<svg width="748" height="286" viewBox="0 0 748 286" fill="none" xmlns="http://www.w3.org/2000/svg">
<g clip-path="url(#clip0_168_10934)">
<path d="M681.875 244C682.703 244 683.375 244.672 683.375 245.5C683.375 246.328 682.703 247 681.875 247H680C679.172 247 678.5 246.328 678.5 245.5C678.5 244.672 679.172 244 680 244H681.875ZM689.375 244C690.203 244 690.875 244.672 690.875 245.5C690.875 246.328 690.203 247 689.375 247H685.625C684.797 247 684.125 246.328 684.125 245.5C684.125 244.672 684.797 244 685.625 244H689.375ZM695 244C695.828 244 696.5 244.672 696.5 245.5C696.5 246.328 695.828 247 695 247H693.125C692.297 247 691.625 246.328 691.625 245.5C691.625 244.672 692.297 244 693.125 244H695ZM58 205C58.8284 205 59.5 205.672 59.5 206.5C59.5 207.328 58.8284 208 58 208H32C31.1716 208 30.5 207.328 30.5 206.5C30.5 205.672 31.1716 205 32 205H58ZM64.875 205C65.7034 205 66.375 205.672 66.375 206.5C66.375 207.328 65.7034 208 64.875 208H63C62.1716 208 61.5 207.328 61.5 206.5C61.5 205.672 62.1716 205 63 205H64.875ZM72.375 205C73.2034 205 73.875 205.672 73.875 206.5C73.875 207.328 73.2034 208 72.375 208H68.625C67.7966 208 67.125 207.328 67.125 206.5C67.125 205.672 67.7966 205 68.625 205H72.375ZM78 205C78.8284 205 79.5 205.672 79.5 206.5C79.5 207.328 78.8284 208 78 208H76.125C75.2966 208 74.625 207.328 74.625 206.5C74.625 205.672 75.2966 205 76.125 205H78ZM652 156C652.828 156 653.5 156.672 653.5 157.5C653.5 158.328 652.828 159 652 159H626C625.172 159 624.5 158.328 624.5 157.5C624.5 156.672 625.172 156 626 156H652ZM629.5 93C630.328 93 631 93.6716 631 94.5C631 95.3284 630.328 96 629.5 96H627C626.172 96 625.5 95.3284 625.5 94.5C625.5 93.6716 626.172 93 627 93H629.5ZM637 93C637.828 93 638.5 93.6716 638.5 94.5C638.5 95.3284 637.828 96 637 96H634.5C633.672 96 633 95.3284 633 94.5C633 93.6716 633.672 93 634.5 93H637ZM674.5 93C675.328 93 676 93.6716 676 94.5C676 95.3284 675.328 96 674.5 96H646C645.172 96 644.5 95.3284 644.5 94.5C644.5 93.6716 645.172 93 646 93H674.5ZM79.875 75C80.7034 75 81.375 75.6716 81.375 76.5C81.375 77.3284 80.7034 78 79.875 78H78C77.1716 78 76.5 77.3284 76.5 76.5C76.5 75.6716 77.1716 75 78 75H79.875ZM87.375 75C88.2034 75 88.875 75.6716 88.875 76.5C88.875 77.3284 88.2034 78 87.375 78H83.625C82.7966 78 82.125 77.3284 82.125 76.5C82.125 75.6716 82.7966 75 83.625 75H87.375ZM93 75C93.8284 75 94.5 75.6716 94.5 76.5C94.5 77.3284 93.8284 78 93 78H91.125C90.2966 78 89.625 77.3284 89.625 76.5C89.625 75.6716 90.2966 75 91.125 75H93ZM226.375 32C227.203 32 227.875 32.6716 227.875 33.5C227.875 34.3284 227.203 35 226.375 35H224.5C223.672 35 223 34.3284 223 33.5C223 32.6716 223.672 32 224.5 32H226.375ZM233.875 32C234.703 32 235.375 32.6716 235.375 33.5C235.375 34.3284 234.703 35 233.875 35H230.125C229.297 35 228.625 34.3284 228.625 33.5C228.625 32.6716 229.297 32 230.125 32H233.875ZM239.5 32C240.328 32 241 32.6716 241 33.5C241 34.3284 240.328 35 239.5 35H237.625C236.797 35 236.125 34.3284 236.125 33.5C236.125 32.6716 236.797 32 237.625 32H239.5ZM473.5 24C474.328 24 475 24.6716 475 25.5C475 26.3284 474.328 27 473.5 27H427C426.172 27 425.5 26.3284 425.5 25.5C425.5 24.6716 426.172 24 427 24H473.5Z" fill="#5EAFC5"/>
<path d="M155.5 52.5V78.5H584.5V52.5C584.5 49.7386 582.261 47.5 579.5 47.5H160.5C157.739 47.5 155.5 49.7386 155.5 52.5Z" fill="#F3F8F9"/>
<path d="M571 63C571 67.4183 567.418 71 563 71C558.582 71 555 67.4183 555 63C555 58.5818 558.582 55 563 55C567.418 55 571 58.5818 571 63Z" fill="#D7E1E5"/>
<path d="M169 56C169 55.4477 169.448 55 170 55H192C192.552 55 193 55.4477 193 56V70C193 70.5523 192.552 71 192 71H170C169.448 71 169 70.5523 169 70V56Z" fill="#D7E1E5"/>
<path d="M155.5 78.5H584.5V286H155.5V78.5Z" fill="white"/>
<rect x="167" y="215" width="406" height="26" rx="2" fill="#E0EADE"/>
<rect x="167" y="267" width="406" height="26" rx="2" fill="#E0EADE"/>
<path fill-rule="evenodd" clip-rule="evenodd" d="M166 179.5C166 177.567 167.567 176 169.5 176H570.5C572.433 176 574 177.567 574 179.5V293H571V179.5C571 179.224 570.776 179 570.5 179H169.5C169.224 179 169 179.224 169 179.5V293H166V179.5Z" fill="#D7E1E5"/>
<path d="M578 46C582.418 46 586 49.5817 586 54V286H583V80H157V286H154V54C154 49.5817 157.582 46 162 46H578ZM162 49C159.239 49 157 51.2386 157 54V77H583V54C583 51.2386 580.761 49 578 49H162Z" fill="#294149"/>
<rect x="190" y="199" width="33" height="8" rx="1" fill="#B0B5BF"/>
<rect x="300" y="199" width="23" height="8" rx="1" fill="#B0B5BF"/>
<rect x="340" y="199" width="40" height="8" rx="1" fill="#B0B5BF"/>
<rect x="426" y="199" width="40" height="8" rx="1" fill="#B0B5BF"/>
<rect x="499" y="199" width="28" height="8" rx="1" fill="#B0B5BF"/>
<path d="M190 220C190 219.448 190.448 219 191 219H277C277.552 219 278 219.448 278 220V226C278 226.552 277.552 227 277 227H191C190.448 227 190 226.552 190 226V220Z" fill="#86B081"/>
<path d="M190 246C190 245.448 190.448 245 191 245H238C238.552 245 239 245.448 239 246V252C239 252.552 238.552 253 238 253H191C190.448 253 190 252.552 190 252V246Z" fill="#86B081"/>
<path d="M190 272C190 271.448 190.448 271 191 271H258C258.552 271 259 271.448 259 272V278C259 278.552 258.552 279 258 279H191C190.448 279 190 278.552 190 278V272Z" fill="#86B081"/>
<rect x="300" y="219" width="23" height="8" rx="1" fill="#86B081"/>
<rect x="300" y="245" width="23" height="8" rx="1" fill="#86B081"/>
<rect x="300" y="271" width="23" height="8" rx="1" fill="#86B081"/>
<rect x="340" y="219" width="60" height="8" rx="1" fill="#86B081"/>
<rect x="340" y="245" width="71" height="8" rx="1" fill="#86B081"/>
<rect x="340" y="271" width="41" height="8" rx="1" fill="#86B081"/>
<rect x="426" y="219" width="26" height="8" rx="1" fill="#86B081"/>
<rect x="426" y="245" width="31" height="8" rx="1" fill="#86B081"/>
<rect x="426" y="271" width="26" height="8" rx="1" fill="#86B081"/>
<path d="M499 220C499 219.448 499.448 219 500 219H542C542.552 219 543 219.448 543 220V226C543 226.552 542.552 227 542 227H500C499.448 227 499 226.552 499 226V220Z" fill="#86B081"/>
<rect x="499" y="245" width="30" height="8" rx="1" fill="#86B081"/>
<rect x="499" y="271" width="45" height="8" rx="1" fill="#86B081"/>
<path d="M362.5 88C365.538 88 368 90.4624 368 93.5V162.5C368 165.538 365.538 168 362.5 168H171.5C168.462 168 166 165.538 166 162.5V93.5C166 90.4624 168.462 88 171.5 88H362.5ZM463.5 88C466.538 88 469 90.4624 469 93.5V162.5C469 165.538 466.538 168 463.5 168H381.5C378.462 168 376 165.538 376 162.5V93.5C376 90.4624 378.462 88 381.5 88H463.5ZM565.5 88C568.538 88 571 90.4624 571 93.5V162.5C571 165.538 568.538 168 565.5 168H482.5C479.462 168 477 165.538 477 162.5V93.5C477 90.4624 479.462 88 482.5 88H565.5ZM171.5 91C170.119 91 169 92.1193 169 93.5V162.5C169 163.881 170.119 165 171.5 165H362.5C363.881 165 365 163.881 365 162.5V93.5C365 92.1193 363.881 91 362.5 91H171.5ZM381.5 91C380.119 91 379 92.1193 379 93.5V162.5C379 163.881 380.119 165 381.5 165H463.5C464.881 165 466 163.881 466 162.5V93.5C466 92.1193 464.881 91 463.5 91H381.5ZM482.5 91C481.119 91 480 92.1193 480 93.5V162.5C480 163.881 481.119 165 482.5 165H565.5C566.881 165 568 163.881 568 162.5V93.5C568 92.1193 566.881 91 565.5 91H482.5ZM343.5 144C345.985 144 348 146.015 348 148.5V151.5C348 153.985 345.985 156 343.5 156H189.5C187.015 156 185 153.985 185 151.5V148.5C185 146.015 187.015 144 189.5 144H343.5ZM189.5 147C188.672 147 188 147.672 188 148.5V151.5C188 152.328 188.672 153 189.5 153H343.5C344.328 153 345 152.328 345 151.5V148.5C345 147.672 344.328 147 343.5 147H189.5Z" fill="#D7E1E5"/>
<path d="M522 114C523.657 114 525 115.343 525 117V118C525 119.657 523.657 121 522 121H491C489.343 121 488 119.657 488 118V117C488 115.343 489.343 114 491 114H522ZM412 113C413.657 113 415 114.343 415 116V117C415 118.657 413.657 120 412 120H391C389.343 120 388 118.657 388 117V116C388 114.343 389.343 113 391 113H412ZM212 99C212.552 99 213 99.4477 213 100V107C213 107.552 212.552 108 212 108H186C185.448 108 185 107.552 185 107V100C185 99.4477 185.448 99 186 99H212ZM408 99C408.552 99 409 99.4477 409 100V107C409 107.552 408.552 108 408 108H390C389.448 108 389 107.552 389 107V100C389 99.4477 389.448 99 390 99H408ZM507 99C507.552 99 508 99.4477 508 100V107C508 107.552 507.552 108 507 108H489C488.448 108 488 107.552 488 107V100C488 99.4477 488.448 99 489 99H507Z" fill="#B0B5BF"/>
<path d="M260.735 113.66C264.449 112.798 268.309 112.78 272.031 113.607C275.753 114.434 279.243 116.085 282.243 118.439C284.717 120.381 286.805 122.759 288.409 125.451C288.974 126.4 288.561 127.604 287.571 128.094L283.996 129.859C283.006 130.348 281.815 129.934 281.217 129.006C280.165 127.375 278.846 125.926 277.312 124.722C275.252 123.106 272.855 121.972 270.298 121.404C267.742 120.836 265.091 120.848 262.541 121.44C260.641 121.881 258.833 122.635 257.189 123.667C256.253 124.255 255 124.126 254.31 123.263L251.819 120.15C251.129 119.288 251.265 118.022 252.179 117.402C254.772 115.642 257.671 114.371 260.735 113.66Z" fill="#E0EADE"/>
<path d="M256.113 124.4C252.729 126.894 250.354 130.52 249.422 134.619C249.168 135.737 249.028 136.869 248.996 138H241.006C241.04 136.277 241.248 134.552 241.634 132.85C242.99 126.881 246.448 121.6 251.375 117.97L256.113 124.4Z" fill="#2D7524"/>
<path d="M288.215 127.156C288.705 126.901 289.311 127.089 289.547 127.588C290.943 130.537 291.76 133.725 291.955 136.981C291.988 137.54 291.535 138 290.975 138H284.976C284.435 138 283.995 137.569 283.949 137.03C283.783 135.046 283.279 133.105 282.46 131.291C282.233 130.787 282.419 130.184 282.909 129.928L288.215 127.156Z" fill="#86B081"/>
<path d="M445.641 143.159L437.848 137.575C437.308 137.188 436.612 137.094 435.989 137.324L428.441 140.115C427.682 140.396 426.83 140.192 426.28 139.598L419.267 132.026C418.342 131.027 416.711 131.224 416.051 132.414L408.431 146.143C407.95 147.01 406.907 147.393 405.98 147.045L398.692 144.312C398.126 144.1 397.494 144.155 396.974 144.462L388.984 149.175C388.374 149.535 388 150.19 388 150.898V153C388 154.105 388.895 155 390 155H455C456.105 155 457 154.105 457 153V140.757C457 139.147 455.195 138.197 453.867 139.108L447.938 143.182C447.244 143.659 446.326 143.65 445.641 143.159Z" fill="#E0EADE"/>
<path d="M547.672 142.654L539.826 137.256C539.297 136.893 538.627 136.805 538.023 137.019L530.402 139.724C529.662 139.987 528.838 139.793 528.293 139.228L521.233 131.91C520.31 130.953 518.728 131.147 518.063 132.297L510.43 145.498C509.946 146.336 508.932 146.706 508.021 146.379L500.661 143.728C500.112 143.531 499.505 143.583 498.998 143.87L491.014 148.391C490.388 148.746 490 149.411 490 150.131V152C490 153.105 490.895 154 492 154H557C558.105 154 559 153.105 559 152V140.393C559 138.8 557.229 137.846 555.899 138.723L549.906 142.676C549.226 143.124 548.343 143.115 547.672 142.654Z" fill="#E0EADE"/>
<path fill-rule="evenodd" clip-rule="evenodd" d="M520.302 132.959C520.072 132.719 519.675 132.766 519.508 133.054L511.831 146.286C510.983 147.747 509.212 148.394 507.622 147.823L500.203 145.162C500.067 145.113 499.915 145.125 499.789 145.197L490.737 150.305C490.016 150.712 489.101 150.458 488.693 149.736C488.286 149.015 488.541 148.1 489.263 147.693L498.314 142.584C499.2 142.084 500.259 141.994 501.217 142.338L508.635 145C508.862 145.081 509.115 144.989 509.236 144.78L516.913 131.549C518.083 129.532 520.859 129.202 522.47 130.886L529.577 138.319C529.714 138.462 529.923 138.511 530.109 138.443L537.767 135.657C538.826 135.272 540.006 135.421 540.937 136.056L548.901 141.494C549.06 141.602 549.266 141.61 549.433 141.514L558.252 136.44C558.97 136.027 559.887 136.274 560.3 136.992C560.713 137.71 560.466 138.627 559.748 139.04L550.929 144.115C549.764 144.785 548.319 144.729 547.21 143.971L539.245 138.534C539.112 138.443 538.944 138.422 538.792 138.477L531.135 141.262C529.83 141.737 528.368 141.395 527.408 140.392L520.302 132.959Z" fill="#2D7524"/>
<path fill-rule="evenodd" clip-rule="evenodd" d="M418.802 133.461C418.572 133.221 418.175 133.268 418.008 133.556L410.332 146.787C409.484 148.249 407.712 148.896 406.122 148.325L398.704 145.664C398.567 145.614 398.416 145.627 398.289 145.699L389.237 150.807C388.516 151.214 387.601 150.96 387.194 150.238C386.787 149.517 387.041 148.602 387.763 148.194L396.815 143.086C397.7 142.586 398.76 142.496 399.717 142.84L407.135 145.502C407.362 145.583 407.615 145.491 407.737 145.282L415.413 132.051C416.583 130.034 419.359 129.703 420.97 131.388L428.077 138.821C428.214 138.964 428.423 139.013 428.609 138.945L436.267 136.159C437.326 135.774 438.506 135.923 439.437 136.558L447.402 141.996C447.56 142.104 447.767 142.112 447.933 142.016L456.752 136.942C457.47 136.529 458.387 136.776 458.8 137.494C459.213 138.212 458.966 139.129 458.248 139.542L449.429 144.617C448.265 145.287 446.819 145.231 445.71 144.473L437.745 139.036C437.612 138.945 437.444 138.924 437.293 138.979L429.635 141.764C428.33 142.239 426.868 141.897 425.909 140.894L418.802 133.461Z" fill="#2D7524"/>
</g>
<defs>
<clipPath id="clip0_168_10934">
<rect width="748" height="286" fill="white"/>
</clipPath>
</defs>
</svg>
