<svg width="748" height="286" viewBox="0 0 748 286" fill="none" xmlns="http://www.w3.org/2000/svg">
<path d="M387.834 242C388.662 242 389.334 242.672 389.334 243.5C389.334 244.328 388.662 245 387.834 245H340C339.172 245 338.5 244.328 338.5 243.5C338.5 242.672 339.172 242 340 242H387.834Z" fill="#5EAFC5"/>
<path d="M13.8193 241C14.6478 241 15.3193 241.672 15.3193 242.5C15.3193 243.328 14.6478 244 13.8193 244H12C11.1716 244 10.5 243.328 10.5 242.5C10.5 241.672 11.1716 241 12 241H13.8193Z" fill="#5EAFC5"/>
<path d="M24.7363 241C25.5647 241 26.2363 241.672 26.2363 242.5C26.2363 243.328 25.5647 244 24.7363 244H21.0977C20.2692 244 19.5977 243.328 19.5977 242.5C19.5977 241.672 20.2692 241 21.0977 241H24.7363Z" fill="#5EAFC5"/>
<path d="M35.6523 241C36.4808 241 37.1523 241.672 37.1523 242.5C37.1523 243.328 36.4808 244 35.6523 244H32.0137C31.1853 244 30.5137 243.328 30.5137 242.5C30.5137 241.672 31.1853 241 32.0137 241H35.6523Z" fill="#5EAFC5"/>
<path d="M46.5693 241C47.3978 241 48.0693 241.672 48.0693 242.5C48.0693 243.328 47.3978 244 46.5693 244H42.9307C42.1022 244 41.4307 243.328 41.4307 242.5C41.4307 241.672 42.1022 241 42.9307 241H46.5693Z" fill="#5EAFC5"/>
<path d="M57.4863 241C58.3147 241 58.9863 241.672 58.9863 242.5C58.9863 243.328 58.3147 244 57.4863 244H53.8477C53.0192 244 52.3477 243.328 52.3477 242.5C52.3477 241.672 53.0192 241 53.8477 241H57.4863Z" fill="#5EAFC5"/>
<path d="M68.4023 241C69.2308 241 69.9023 241.672 69.9023 242.5C69.9023 243.328 69.2308 244 68.4023 244H64.7637C63.9353 244 63.2637 243.328 63.2637 242.5C63.2637 241.672 63.9353 241 64.7637 241H68.4023Z" fill="#5EAFC5"/>
<path d="M77.5 241C78.3284 241 79 241.672 79 242.5C79 243.328 78.3284 244 77.5 244H75.6807C74.8522 244 74.1807 243.328 74.1807 242.5C74.1807 241.672 74.8522 241 75.6807 241H77.5Z" fill="#5EAFC5"/>
<path d="M721.265 208C722.093 208 722.765 208.672 722.765 209.5C722.765 210.328 722.093 211 721.265 211H658C657.172 211 656.5 210.328 656.5 209.5C656.5 208.672 657.172 208 658 208H721.265Z" fill="#5EAFC5"/>
<path d="M511.176 15.9473C512.004 15.9474 512.676 16.6189 512.676 17.4473C512.676 18.2756 512.004 18.9471 511.176 18.9473H478C477.172 18.9473 476.5 18.2757 476.5 17.4473C476.5 16.6188 477.172 15.9473 478 15.9473H511.176Z" fill="#5EAFC5"/>
<path d="M521.912 15.9473C522.741 15.9473 523.412 16.6188 523.412 17.4473C523.412 18.2757 522.741 18.9473 521.912 18.9473H519.662C518.834 18.9473 518.162 18.2757 518.162 17.4473C518.162 16.6188 518.834 15.9473 519.662 15.9473H521.912Z" fill="#5EAFC5"/>
<path d="M535.414 15.9473C536.242 15.9473 536.914 16.6188 536.914 17.4473C536.914 18.2757 536.242 18.9473 535.414 18.9473H530.913C530.085 18.947 529.413 18.2756 529.413 17.4473C529.413 16.619 530.085 15.9475 530.913 15.9473H535.414Z" fill="#5EAFC5"/>
<path d="M546.665 15.9473C547.493 15.9473 548.165 16.6188 548.165 17.4473C548.165 18.2757 547.493 18.9473 546.665 18.9473H544.415C543.587 18.9472 542.915 18.2757 542.915 17.4473C542.915 16.6189 543.587 15.9473 544.415 15.9473H546.665Z" fill="#5EAFC5"/>
<path d="M342.5 29.5C349.127 29.5 354.5 34.8726 354.5 41.5V182.5C354.5 189.127 349.127 194.5 342.5 194.5H323.5V213.5C323.5 220.127 318.127 225.5 311.5 225.5H293.5V103.5C293.5 96.8726 288.127 91.5 281.5 91.5H74.5V72.5C74.5 65.8726 79.8726 60.5 86.5 60.5H105.5V41.5C105.5 34.8726 110.873 29.5 117.5 29.5H342.5Z" fill="#F3F8F9"/>
<path d="M293.5 103.5C293.5 96.8726 288.127 91.5 281.5 91.5H56.5C49.8726 91.5 44.5 96.8726 44.5 103.5V244.5C44.5 251.127 49.8726 256.5 56.5 256.5H281.5C288.127 256.5 293.5 251.127 293.5 244.5V103.5Z" fill="white"/>
<path fill-rule="evenodd" clip-rule="evenodd" d="M342.5 28C349.956 28 356 34.0442 356 41.5V182.5C356 189.956 349.956 196 342.5 196H325V213.5C325 220.956 318.956 227 311.5 227H295V244.5C295 251.956 288.956 258 281.5 258H56.5C49.0442 258 43 251.956 43 244.5V103.5C43 96.0442 49.0442 90 56.5 90H73V72.5C73 65.0442 79.0442 59 86.5 59H104V41.5C104 34.0442 110.044 28 117.5 28H342.5ZM56.5 93C50.701 93 46 97.701 46 103.5V244.5C46 250.299 50.701 255 56.5 255H281.5C287.299 255 292 250.299 292 244.5V103.5C292 97.701 287.299 93 281.5 93H56.5ZM86.5 62C80.701 62 76 66.701 76 72.5V90H281.5C288.956 90 295 96.0442 295 103.5V224H311.5C317.299 224 322 219.299 322 213.5V72.5C322 66.701 317.299 62 311.5 62H86.5ZM117.5 31C111.701 31 107 35.701 107 41.5V59H311.5C318.956 59 325 65.0442 325 72.5V193H342.5C348.299 193 353 188.299 353 182.5V41.5C353 35.701 348.299 31 342.5 31H117.5Z" fill="#294149"/>
<path d="M631.5 29.5C638.127 29.5 643.5 34.8726 643.5 41.5V60.5H662.5C669.127 60.5 674.5 65.8726 674.5 72.5V91.5H467.5C460.873 91.5 455.5 96.8726 455.5 103.5V225.5H437.5C430.873 225.5 425.5 220.127 425.5 213.5V194.5H406.5C399.873 194.5 394.5 189.127 394.5 182.5V41.5C394.5 34.8726 399.873 29.5 406.5 29.5H631.5Z" fill="#F3F8F9"/>
<path d="M455.5 103.5C455.5 96.8726 460.873 91.5 467.5 91.5H692.5C699.127 91.5 704.5 96.8726 704.5 103.5V244.5C704.5 251.127 699.127 256.5 692.5 256.5H467.5C460.873 256.5 455.5 251.127 455.5 244.5V103.5Z" fill="white"/>
<path fill-rule="evenodd" clip-rule="evenodd" d="M631.5 28C638.956 28 645 34.0442 645 41.5V59H662.5C669.956 59 676 65.0442 676 72.5V90H692.5C699.956 90 706 96.0442 706 103.5V244.5C706 251.956 699.956 258 692.5 258H467.5C460.044 258 454 251.956 454 244.5V227H437.5C430.044 227 424 220.956 424 213.5V196H406.5C399.044 196 393 189.956 393 182.5V41.5C393 34.0442 399.044 28 406.5 28H631.5ZM467.5 93C461.701 93 457 97.701 457 103.5V244.5C457 250.299 461.701 255 467.5 255H692.5C698.299 255 703 250.299 703 244.5V103.5C703 97.701 698.299 93 692.5 93H467.5ZM437.5 62C431.701 62 427 66.701 427 72.5V213.5C427 219.299 431.701 224 437.5 224H454V103.5C454 96.0442 460.044 90 467.5 90H673V72.5C673 66.701 668.299 62 662.5 62H437.5ZM406.5 31C400.701 31 396 35.701 396 41.5V182.5C396 188.299 400.701 193 406.5 193H424V72.5C424 65.0442 430.044 59 437.5 59H642V41.5C642 35.701 637.299 31 631.5 31H406.5Z" fill="#294149"/>
<path d="M124.457 177C125.309 177 126 177.691 126 178.543V233.457C126 234.309 125.309 235 124.457 235H117.543C116.691 235 116 234.309 116 233.457V178.543C116 177.691 116.691 177 117.543 177H124.457Z" fill="#2D7524"/>
<path d="M182.457 128C183.309 128 184 128.691 184 129.543V233.457C184 234.309 183.309 235 182.457 235H175.543C174.691 235 174 234.309 174 233.457V129.543C174 128.691 174.691 128 175.543 128H182.457Z" fill="#2D7524"/>
<path d="M240.457 113C241.309 113 242 113.691 242 114.543V233.457C242 234.309 241.309 235 240.457 235H233.543C232.691 235 232 234.309 232 233.457V114.543C232 113.691 232.691 113 233.543 113H240.457Z" fill="#2D7524"/>
<path d="M114.457 113C115.309 113 116 113.691 116 114.543V233.457(116 234.309 115.309 235 114.457 235H107.543C106.691 235 106 234.309 106 233.457V114.543C106 113.691 106.691 113 107.543 113H114.457Z" fill="#D7E1E5"/>
<path d="M172.457 165C173.309 165 174 165.691 174 166.543V233.457C174 234.309 173.309 235 172.457 235H165.543C164.691 235 164 234.309 164 233.457V166.543C164 165.691 164.691 165 165.543 165H172.457Z" fill="#D7E1E5"/>
<path d="M230.457 138C231.309 138 232 138.691 232 139.543V233.457C232 234.309 231.309 235 230.457 235H223.543C222.691 235 222 234.309 222 233.457V139.543C222 138.691 222.691 138 223.543 138H230.457Z" fill="#D7E1E5"/>
<path d="M104.457 145C105.309 145 106 145.691 106 146.543V233.457C106 234.309 105.309 235 104.457 235H97.543C96.6908 235 96 234.309 96 233.457V146.543C96 145.691 96.6908 145 97.543 145H104.457Z" fill="#86B081"/>
<path d="M162.457 209C163.309 209 164 209.691 164 210.543V233.457C164 234.309 163.309 235 162.457 235H155.543C154.691 235 154 234.309 154 233.457V210.543C154 209.691 154.691 209 155.543 209H162.457Z" fill="#86B081"/>
<path d="M220.457 158C221.309 158 222 158.691 222 159.543V233.457C222 234.309 221.309 235 220.457 235H213.543C212.691 235 212 234.309 212 233.457V159.543C212 158.691 212.691 158 213.543 158H220.457Z" fill="#86B081"/>
<path d="M593 142C613.435 142 630 158.565 630 179C630 199.435 613.435 216 593 216C572.565 216 556 199.435 556 179C556 158.565 572.565 142 593 142Z" fill="#CFD5D7"/>
<path d="M519.5 160C529.717 160 538 168.283 538 178.5C538 188.717 529.717 197 519.5 197C509.283 197 501 188.717 501 178.5C501 168.283 509.283 160 519.5 160Z" fill="#CFD5D7"/>
<path d="M546 175C560.359 175 572 186.641 572 201C572 215.359 560.359 227 546 227C531.641 227 520 215.359 520 201C520 186.641 531.641 175 546 175Z" fill="#2D7524"/>
<path d="M627 116C641.359 116 653 127.641 653 142C653 156.359 641.359 168 627 168C612.641 168 601 156.359 601 142C601 127.641 612.641 116 627 116Z" fill="#2D7524"/>
<path d="M630.5 227C640.717 227 649 218.717 649 208.5C649 198.283 640.717 190 630.5 190C620.283 190 612 198.283 612 208.5C612 218.717 620.283 227 630.5 227Z" fill="#86B081"/>
<rect x="310.5" y="50.5" width="21" height="21" fill="white"/>
<path fill-rule="evenodd" clip-rule="evenodd" d="M330 49C331.657 49 333 50.3431 333 52V70C333 71.6569 331.657 73 330 73H312C310.343 73 309 71.6569 309 70V52C309 50.3431 310.343 49 312 49H330ZM312 70H330V52H312V70Z" fill="#294149"/>
<rect x="343.5" y="18.5" width="21" height="21" fill="white"/>
<path fill-rule="evenodd" clip-rule="evenodd" d="M363 17C364.657 17 366 18.3431 366 20V38C366 39.6569 364.657 41 363 41H345C343.343 41 342 39.6569 342 38V20C342 18.3431 343.343 17 345 17H363ZM345 38H363V20H345V38Z" fill="#294149"/>
<rect x="662.5" y="53.5" width="21" height="21" fill="white"/>
<path fill-rule="evenodd" clip-rule="evenodd" d="M682 52C683.657 52 685 53.3431 685 55V73C685 74.6569 683.657 76 682 76H664C662.343 76 661 74.6569 661 73V55C661 53.3431 662.343 52 664 52H682ZM664 73H682V55H664V73Z" fill="#294149"/>
<rect x="631" y="17" width="24" height="24" rx="3" fill="#2D7524"/>
<path d="M647.939 24.9393C648.525 24.3536 649.475 24.3536 650.06 24.9393C650.646 25.5251 650.646 26.4746 650.06 27.0604L642.56 34.5604C641.975 35.1462 641.025 35.1462 640.439 34.5604L636.689 30.8104C636.104 30.2246 636.104 29.2751 636.689 28.6893C637.275 28.1036 638.225 28.1036 638.81 28.6893L641.5 31.3788L647.939 24.9393Z" fill="white"/>
<rect x="693" y="81" width="24" height="24" rx="3" fill="#2D7524"/>
<path d="M709.939 88.9393C710.525 88.3536 711.475 88.3536 712.06 88.9393C712.646 89.5251 712.646 90.4746 712.06 91.0604L704.56 98.5604C703.975 99.1462 703.025 99.1462 702.439 98.5604L698.689 94.8104C698.104 94.2246 698.104 93.2751 698.689 92.6893C699.275 92.1036 700.225 92.1036 700.81 92.6893L703.5 95.3788L709.939 88.9393Z" fill="white"/>
<rect x="281" y="80" width="24" height="24" rx="3" fill="#2D7524"/>
<path d="M297.939 87.9393C298.525 87.3536 299.475 87.3536 300.06 87.9393C300.646 88.5251 300.646 89.4746 300.06 90.0604L292.56 97.5604C291.975 98.1462 291.025 98.1462 290.439 97.5604L286.689 93.8104C286.104 93.2246 286.104 92.2751 286.689 91.6893C287.275 91.1036 288.225 91.1036 288.81 91.6893L291.5 94.3788L297.939 87.9393Z" fill="white"/>
</svg>
