<svg width="748" height="286" viewBox="0 0 748 286" fill="none" xmlns="http://www.w3.org/2000/svg">
<path d="M22.8193 221C23.6478 221 24.3193 221.672 24.3193 222.5C24.3193 223.328 23.6478 224 22.8193 224H21C20.1716 224 19.5 223.328 19.5 222.5C19.5 221.672 20.1716 221 21 221H22.8193Z" fill="#5EAFC5"/>
<path d="M33.7363 221C34.5647 221 35.2363 221.672 35.2363 222.5C35.2363 223.328 34.5647 224 33.7363 224H30.0977C29.2692 224 28.5977 223.328 28.5977 222.5C28.5977 221.672 29.2692 221 30.0977 221H33.7363Z" fill="#5EAFC5"/>
<path d="M44.6523 221C45.4808 221 46.1523 221.672 46.1523 222.5C46.1523 223.328 45.4808 224 44.6523 224H41.0137C40.1853 224 39.5137 223.328 39.5137 222.5C39.5137 221.672 40.1853 221 41.0137 221H44.6523Z" fill="#5EAFC5"/>
<path d="M55.5693 221C56.3978 221 57.0693 221.672 57.0693 222.5C57.0693 223.328 56.3978 224 55.5693 224H51.9307C51.1022 224 50.4307 223.328 50.4307 222.5C50.4307 221.672 51.1022 221 51.9307 221H55.5693Z" fill="#5EAFC5"/>
<path d="M66.4863 221C67.3147 221 67.9863 221.672 67.9863 222.5C67.9863 223.328 67.3147 224 66.4863 224H62.8477C62.0192 224 61.3477 223.328 61.3477 222.5C61.3477 221.672 62.0192 221 62.8477 221H66.4863Z" fill="#5EAFC5"/>
<path d="M77.4023 221C78.2308 221 78.9023 221.672 78.9023 222.5C78.9023 223.328 78.2308 224 77.4023 224H73.7637C72.9353 224 72.2637 223.328 72.2637 222.5C72.2637 221.672 72.9353 221 73.7637 221H77.4023Z" fill="#5EAFC5"/>
<path d="M86.5 221C87.3284 221 88 221.672 88 222.5C88 223.328 87.3284 224 86.5 224H84.6807C83.8522 224 83.1807 223.328 83.1807 222.5C83.1807 221.672 83.8522 221 84.6807 221H86.5Z" fill="#5EAFC5"/>
<path d="M691.265 208C692.093 208 692.765 208.672 692.765 209.5C692.765 210.328 692.093 211 691.265 211H628C627.172 211 626.5 210.328 626.5 209.5C626.5 208.672 627.172 208 628 208H691.265Z" fill="#5EAFC5"/>
<path d="M123.834 120C124.662 120 125.334 120.672 125.334 121.5C125.334 122.328 124.662 123 123.834 123H76C75.1716 123 74.5 122.328 74.5 121.5C74.5 120.672 75.1716 120 76 120H123.834Z" fill="#5EAFC5"/>
<path d="M651.176 57.9473C652.004 57.9474 652.676 58.6189 652.676 59.4473C652.676 60.2756 652.004 60.9471 651.176 60.9473H618C617.172 60.9473 616.5 60.2757 616.5 59.4473C616.5 58.6188 617.172 57.9473 618 57.9473H651.176Z" fill="#5EAFC5"/>
<path d="M661.912 57.9473C662.741 57.9473 663.412 58.6188 663.412 59.4473C663.412 60.2757 662.741 60.9473 661.912 60.9473H659.662C658.834 60.9473 658.162 60.2757 658.162 59.4473C658.162 58.6188 658.834 57.9473 659.662 57.9473H661.912Z" fill="#5EAFC5"/>
<path d="M675.414 57.9473C676.242 57.9473 676.914 58.6188 676.914 59.4473C676.914 60.2757 676.242 60.9473 675.414 60.9473H670.913C670.085 60.947 669.413 60.2756 669.413 59.4473C669.413 58.619 670.085 57.9475 670.913 57.9473H675.414Z" fill="#5EAFC5"/>
<path d="M686.665 57.9473C687.493 57.9473 688.165 58.6188 688.165 59.4473C688.165 60.2757 687.493 60.9473 686.665 60.9473H684.415C683.587 60.9472 682.915 60.2757 682.915 59.4473C682.915 58.6189 683.587 57.9473 684.415 57.9473H686.665Z" fill="#5EAFC5"/>
<path d="M519.5 26.5C526.127 26.5 531.5 31.8726 531.5 38.5V57.5H551.5C558.127 57.5 563.5 62.8726 563.5 69.5V88.5H184.5V69.5C184.5 62.8726 189.873 57.5 196.5 57.5H216.5V38.5C216.5 31.8726 221.873 26.5 228.5 26.5H519.5Z" fill="#F3F8F9"/>
<path d="M152.5 100.5C152.5 93.8726 157.873 88.5 164.5 88.5H583.5C590.127 88.5 595.5 93.8726 595.5 100.5V286H152.5V100.5Z" fill="white"/>
<path fill-rule="evenodd" clip-rule="evenodd" d="M519.5 25C526.956 25 533 31.0442 533 38.5V56H551.5C558.956 56 565 62.0442 565 69.5V87H583.5C590.956 87 597 93.0442 597 100.5V286H594V100.5C594 94.701 589.299 90 583.5 90H164.5C158.701 90 154 94.701 154 100.5V286H151V100.5C151 93.0442 157.044 87 164.5 87H183V69.5C183 62.0442 189.044 56 196.5 56H215V38.5C215 31.0442 221.044 25 228.5 25H519.5ZM196.5 59C190.701 59 186 63.701 186 69.5V87H562V69.5C562 63.701 557.299 59 551.5 59H196.5ZM228.5 28C222.701 28 218 32.701 218 38.5V56H530V38.5C530 32.701 525.299 28 519.5 28H228.5Z" fill="#294149"/>
<rect x="172" y="110" width="101" height="12" rx="1" fill="#CAD7DB"/>
<path d="M494 110C494.552 110 495 110.448 495 111V121C495 121.552 494.552 122 494 122H459C458.448 122 458 121.552 458 121V111C458 110.448 458.448 110 459 110H494Z" fill="#D7E1E5"/>
<path d="M535 110C535.552 110 536 110.448 536 111V121C536 121.552 535.552 122 535 122H500C499.448 122 499 121.552 499 121V111C499 110.448 499.448 110 500 110H535Z" fill="#D7E1E5"/>
<path d="M577 110C577.552 110 578 110.448 578 111V121C578 121.552 577.552 122 577 122H542C541.448 122 541 121.552 541 121V111C541 110.448 541.448 110 542 110H577Z" fill="#D7E1E5"/>
<path d="M569.463 262.012C574.218 262.253 578 266.185 578 271V286H575V271C575 267.686 572.314 265 569 265H181C177.79 265 175.168 267.521 175.008 270.691L175 271V286H172V271C172 266.185 175.782 262.253 180.537 262.012L181 262H569L569.463 262.012Z" fill="#E5EDF0"/>
<path fill-rule="evenodd" clip-rule="evenodd" d="M291 152C295.971 152 300 156.029 300 161V243C300 247.971 295.971 252 291 252H181C176.185 252 172.253 248.218 172.012 243.463L172 243V161C172 156.029 176.029 152 181 152H291ZM181 155C177.79 155 175.168 157.521 175.008 160.691L175 161V243C175 246.314 177.686 249 181 249H291C294.314 249 297 246.314 297 243V161C297 157.686 294.314 155 291 155H181Z" fill="#E5EDF0"/>
<path fill-rule="evenodd" clip-rule="evenodd" d="M430 152C434.971 152 439 156.029 439 161V243C439 247.971 434.971 252 430 252H320C315.185 252 311.253 248.218 311.012 243.463L311 243V161C311 156.029 315.029 152 320 152H430ZM320 155C316.79 155 314.168 157.521 314.008 160.691L314 161V243C314 246.314 316.686 249 320 249H430C433.314 249 436 246.314 436 243V161C436 157.686 433.314 155 430 155H320Z" fill="#E5EDF0"/>
<path fill-rule="evenodd" clip-rule="evenodd" d="M569 152C573.971 152 578 156.029 578 161V243C578 247.971 573.971 252 569 252H459C454.185 252 450.253 248.218 450.012 243.463L450 243V161C450 156.029 454.029 152 459 152H569ZM459 155C455.79 155 453.168 157.521 453.008 160.691L453 161V243C453 246.314 455.686 249 459 249H569C572.314 249 575 246.314 575 243V161C575 157.686 572.314 155 569 155H459Z" fill="#E5EDF0"/>
<path d="M348.457 204C349.309 204 350 204.691 350 205.543V236.457C350 237.309 349.309 238 348.457 238H345.543C344.691 238 344 237.309 344 236.457V205.543C344 204.691 344.691 204 345.543 204H348.457Z" fill="#2D7524"/>
<path d="M382.457 175C383.309 175 384 175.691 384 176.543V236.457C384 237.309 383.309 238 382.457 238H379.543C378.691 238 378 237.309 378 236.457V176.543C378 175.691 378.691 175 379.543 175H382.457Z" fill="#2D7524"/>
<path d="M416.457 166C417.309 166 418 166.691 418 167.543V236.457C418 237.309 417.309 238 416.457 238H413.543C412.691 238 412 237.309 412 236.457V167.543C412 166.691 412.691 166 413.543 166H416.457Z" fill="#2D7524"/>
<path d="M342.457 166C343.309 166 344 166.691 344 167.543V236.457C344 237.309 343.309 238 342.457 238H339.543C338.691 238 338 237.309 338 236.457V167.543C338 166.691 338.691 166 339.543 166H342.457Z" fill="#D7E1E5"/>
<path d="M376.457 197C377.309 197 378 197.691 378 198.543V236.457C378 237.309 377.309 238 376.457 238H373.543C372.691 238 372 237.309 372 236.457V198.543C372 197.691 372.691 197 373.543 197H376.457Z" fill="#D7E1E5"/>
<path d="M410.457 181C411.309 181 412 181.691 412 182.543V236.457(412 237.309 411.309 238 410.457 238H407.543C406.691 238 406 237.309 406 236.457V182.543C406 181.691 406.691 181 407.543 181H410.457Z" fill="#D7E1E5"/>
<path d="M336.457 185C337.309 185 338 185.691 338 186.543V236.457C338 237.309 337.309 238 336.457 238H333.543C332.691 238 332 237.309 332 236.457V186.543C332 185.691 332.691 185 333.543 185H336.457Z" fill="#86B081"/>
<path d="M370.457 223C371.309 223 372 223.691 372 224.543V236.457C372 237.309 371.309 238 370.457 238H367.543C366.691 238 366 237.309 366 236.457V224.543C366 223.691 366.691 223 367.543 223H370.457Z" fill="#86B081"/>
<path d="M404.457 193C405.309 193 406 193.691 406 194.543V236.457C406 237.309 405.309 238 404.457 238H401.543C400.691 238 400 237.309 400 236.457V194.543C400 193.691 400.691 193 401.543 193H404.457Z" fill="#86B081"/>
<path d="M245.5 185C257.374 185 267 194.626 267 206.5C267 218.374 257.374 228 245.5 228C233.626 228 224 218.374 224 206.5C224 194.626 233.626 185 245.5 185Z" fill="#D7E1E5"/>
<path d="M203 196C209.075 196 214 200.925 214 207C214 213.075 209.075 218 203 218C196.925 218 192 213.075 192 207C192 200.925 196.925 196 203 196Z" fill="#D7E1E5"/>
<path d="M218 205C226.284 205 233 211.716 233 220C233 228.284 226.284 235 218 235C209.716 235 203 228.284 203 220C203 211.716 209.716 205 218 205Z" fill="#2D7524"/>
<path d="M266 170C274.284 170 281 176.716 281 185C281 193.284 274.284 200 266 200C257.716 200 251 193.284 251 185C251 176.716 257.716 170 266 170Z" fill="#2D7524"/>
<path d="M268 235C274.075 235 279 230.075 279 224C279 217.925 274.075 213 268 213C261.925 213 257 217.925 257 224C257 230.075 261.925 235 268 235Z" fill="#86B081"/>
<path d="M502.519 190.519C499.836 193.201 498.177 196.907 498.177 201C498.177 209.187 504.813 215.823 513 215.823C521.059 215.823 527.615 209.393 527.818 201.383L527.823 201H549C549 220.882 532.882 237.001 513 237.001C493.118 237.001 477 220.883 477 201.001C477 191.06 481.029 182.06 487.544 175.545L502.519 190.519Z" fill="#D7E1E5"/>
<path d="M512.999 165C515.849 165 518.622 165.333 521.281 165.959L516.409 186.57C515.314 186.313 514.173 186.176 512.999 186.176C508.905 186.176 505.199 187.835 502.517 190.518L487.544 175.544C494.059 169.029 503.058 165 512.999 165Z" fill="#86B081"/>
<path d="M518.303 165.391C535.671 167.955 549 182.92 549 201H527.823C527.823 193.555 522.335 187.393 515.184 186.337L518.303 165.391Z" fill="#2D7524"/>
<rect x="518.5" y="16.5" width="21" height="21" fill="white"/>
<path fill-rule="evenodd" clip-rule="evenodd" d="M538 15C539.657 15 541 16.3431 541 18V36C541 37.6569 539.657 39 538 39H520C518.343 39 517 37.6569 517 36V18C517 16.3431 518.343 15 520 15H538ZM520 36H538V18H520V36Z" fill="#294149"/>
<rect x="550" y="47" width="24" height="24" rx="3" fill="#2D7524"/>
<path d="M566.939 54.9393C567.525 54.3536 568.475 54.3536 569.06 54.9393C569.646 55.5251 569.646 56.4746 569.06 57.0604L561.56 64.5604C560.975 65.1462 560.025 65.1462 559.439 64.5604L555.689 60.8104C555.104 60.2246 555.104 59.2751 555.689 58.6893C556.275 58.1036 557.225 58.1036 557.81 58.6893L560.5 61.3788L566.939 54.9393Z" fill="white"/>
<rect x="582" y="82" width="24" height="24" rx="3" fill="#2D7524"/>
<path d="M598.939 89.9393C599.525 89.3536 600.475 89.3536 601.06 89.9393C601.646 90.5251 601.646 91.4746 601.06 92.0604L593.56 99.5604C592.975 100.146 592.025 100.146 591.439 99.5604L587.689 95.8104C587.104 95.2246 587.104 94.2751 587.689 93.6893C588.275 93.1036 589.225 93.1036 589.81 93.6893L592.5 96.3788L598.939 89.9393Z" fill="white"/>
</svg>
