<svg xmlns="http://www.w3.org/2000/svg" width="16" height="16" viewBox="19.93 110.97 15.13 15.13" fill="none">
  <path d="M23.25 116C23.4487 116 23.6284 116.118 23.708 116.3L25.458 120.3C25.5686 120.553 25.4531 120.847 25.2002 120.958C24.9473 121.069 24.6527 120.953 24.542 120.7L24.2354 120H22.2647L21.958 120.7C21.8474 120.953 21.5528 121.069 21.2998 120.958C21.0469 120.847 20.9314 120.553 21.042 120.3L22.792 116.3L22.8262 116.234C22.9167 116.09 23.0762 116 23.25 116ZM22.7022 119H23.7979L23.25 117.747L22.7022 119Z" fill="currentColor"/>
  <path d="M27.5 116C28.3284 116 29 116.672 29 117.5C29 117.768 28.9284 118.018 28.8057 118.235C29.2229 118.502 29.5 118.968 29.5 119.5C29.5 120.328 28.8284 121 28 121H26.5C26.4656 121 26.4319 120.997 26.3994 120.99C26.2039 120.95 26.0497 120.796 26.0098 120.601L26 120.5V116.5C26 116.224 26.2239 116 26.5 116H27.5ZM27 120H28C28.2762 120 28.5 119.776 28.5 119.5C28.5 119.224 28.2762 119 28 119H27V120ZM27 118H27.5C27.7762 118 28 117.776 28 117.5C28 117.224 27.7762 117 27.5 117H27V118Z" fill="currentColor"/>
  <path d="M32.25 116C32.9034 116 33.4795 116.308 33.8799 116.774C34.0596 116.984 34.0348 117.3 33.8252 117.479C33.6156 117.659 33.2999 117.635 33.1201 117.426C32.8853 117.152 32.5759 117 32.25 117C31.6203 117 31 117.607 31 118.5C31 119.393 31.6203 120 32.25 120C32.5759 120 32.8853 119.848 33.1201 119.574C33.2999 119.365 33.6156 119.341 33.8252 119.521C34.0348 119.7 34.0596 120.016 33.8799 120.226C33.4795 120.692 32.9034 121 32.25 121C30.9468 121 30 119.816 30 118.5C30 117.184 30.9468 116 32.25 116Z" fill="currentColor"/>
</svg>
