<svg xmlns="http://www.w3.org/2000/svg" width="16" height="16" viewBox="20.0 111.0 16.0 16.0" fill="none">
  <path d="M31 117C31.2571 117 31.4727 117.195 31.498 117.451C31.5231 117.707 31.3496 117.94 31.0977 117.99L29.709 118.269C29.4141 118.328 29.2379 118.632 29.333 118.917L30.4746 122.342C30.5538 122.579 30.4447 122.839 30.2197 122.949C29.9947 123.059 29.7229 122.986 29.584 122.777L28.416 121.025C28.2181 120.729 27.7819 120.729 27.584 121.025L26.416 122.777C26.2771 122.986 26.0053 123.059 25.7803 122.949C25.5553 122.839 25.4462 122.579 25.5254 122.342L26.667 118.917C26.7621 118.632 26.5859 118.328 26.291 118.269L24.9023 117.99C24.6504 117.94 24.4769 117.707 24.502 117.451C24.5273 117.195 24.7429 117 25 117H31Z" fill="currentColor"/>
  <path d="M28 114C28.5523 114 29 114.448 29 115C29 115.552 28.5523 116 28 116C27.4477 116 27 115.552 27 115C27 114.448 27.4477 114 28 114Z" fill="currentColor"/>
  <path d="M28 112C31.866 112 35 115.134 35 119C35 122.866 31.866 126 28 126C24.134 126 21 122.866 21 119C21 115.134 24.134 112 28 112ZM28 113C24.6863 113 22 115.686 22 119C22 122.314 24.6863 125 28 125C31.3137 125 34 122.314 34 119C34 115.686 31.3137 113 28 113Z" fill="currentColor"/>
</svg>
