<svg xmlns="http://www.w3.org/2000/svg" width="16" height="16" viewBox="18.99 110.0 18.01 18.01" fill="none">
  <path d="M21.5918 117.028C21.7048 117.19 21.7998 117.385 22.1357 118.124C22.1388 118.131 22.1424 118.137 22.1455 118.144C22.0611 118.539 22.0113 118.943 22.002 119.351C21.9753 120.515 22.2616 121.667 22.832 122.683C23.4025 123.698 24.2358 124.542 25.2441 125.126C26.2525 125.71 27.3995 126.012 28.5645 126C29.7295 125.988 30.8706 125.663 31.8672 125.06C32.1033 124.917 32.4107 124.993 32.5537 125.229C32.6966 125.465 32.6208 125.772 32.3848 125.915C31.2348 126.611 29.9185 126.987 28.5742 127C27.2301 127.013 25.9066 126.664 24.7432 125.991C23.5798 125.318 22.6181 124.344 21.96 123.172C21.3019 122 20.9712 120.672 21.002 119.328C21.0213 118.486 21.1814 117.657 21.4736 116.875C21.5146 116.925 21.5548 116.975 21.5918 117.028Z" fill="currentColor"/>
  <path d="M32.1465 116.146C32.3417 115.951 32.6583 115.951 32.8535 116.146L35.8535 119.146C35.9472 119.24 36 119.367 36 119.5C35.9999 119.632 35.9472 119.76 35.8535 119.854L32.8535 122.854C32.6583 123.049 32.3417 123.049 32.1465 122.854C31.9513 122.658 31.9514 122.342 32.1465 122.146L34.293 120H27.5C27.224 120 27.0002 119.776 27 119.5C27 119.224 27.2239 119 27.5 119H34.293L32.1465 116.854C31.9513 116.658 31.9514 116.342 32.1465 116.146Z" fill="currentColor"/>
  <path d="M23.502 111C23.6978 111 23.876 111.115 23.957 111.293C24.2775 111.998 24.4135 112.293 24.5918 112.548C24.8268 112.884 25.1189 113.176 25.4551 113.411C25.7101 113.589 26.0049 113.725 26.71 114.046C26.8885 114.127 27.0029 114.306 27.0029 114.502C27.0027 114.698 26.8883 114.876 26.71 114.957C26.0049 115.278 25.7101 115.414 25.4551 115.592C25.1189 115.827 24.8268 116.119 24.5918 116.455C24.4135 116.71 24.2775 117.005 23.957 117.71C23.876 117.888 23.6978 118.003 23.502 118.003C23.3059 118.003 23.127 117.888 23.0459 117.71C22.7254 117.005 22.5894 116.71 22.4111 116.455C22.1762 116.119 21.884 115.827 21.5479 115.592C21.2928 115.414 20.998 115.278 20.293 114.957C20.1146 114.876 20.0002 114.698 20 114.502C20 114.306 20.1145 114.127 20.293 114.046C20.998 113.725 21.2928 113.589 21.5479 113.411C21.884 113.176 22.1762 112.884 22.4111 112.548C22.5894 112.293 22.7254 111.998 23.0459 111.293L23.0811 111.229C23.1721 111.088 23.3303 111 23.502 111ZM23.501 112.664C23.4123 112.833 23.3288 112.982 23.2314 113.121C22.9293 113.553 22.5534 113.929 22.1211 114.231C21.9818 114.329 21.8331 114.412 21.6641 114.501C21.8332 114.59 21.9817 114.674 22.1211 114.771C22.5534 115.074 22.9293 115.45 23.2314 115.882C23.3287 116.021 23.4125 116.169 23.501 116.338C23.5896 116.169 23.6742 116.021 23.7715 115.882C24.0736 115.45 24.4496 115.074 24.8818 114.771C25.0211 114.674 25.169 114.59 25.3379 114.501C25.1692 114.412 25.0209 114.329 24.8818 114.231C24.4496 113.929 24.0736 113.553 23.7715 113.121C23.674 112.982 23.5897 112.833 23.501 112.664Z" fill="currentColor"/>
  <path d="M28.918 112.012C30.2603 112.087 31.5579 112.521 32.6748 113.27C32.904 113.423 32.9652 113.734 32.8115 113.963C32.6578 114.192 32.3474 114.254 32.1182 114.101C31.1502 113.452 30.0256 113.075 28.8623 113.01C28.2821 112.977 27.7029 113.023 27.1396 113.144C27.1344 113.141 27.1293 113.138 27.124 113.136C26.3849 112.8 26.1901 112.705 26.0283 112.592C25.9757 112.555 25.9255 112.515 25.876 112.475C26.8441 112.113 27.8796 111.954 28.918 112.012Z" fill="currentColor"/>
</svg>
