<svg xmlns="http://www.w3.org/2000/svg" width="16" height="16" viewBox="19.5 110.5 17.0 17.0" fill="none">
  <path d="M25.6074 113.006C25.8312 113.031 26.0088 113.148 26.1377 113.287C26.2729 113.433 26.3726 113.622 26.4541 113.81C26.6176 114.186 26.7799 114.734 26.9775 115.402L29.0625 122.449C29.2546 123.098 29.385 123.536 29.5088 123.817C29.513 123.827 29.5184 123.836 29.5225 123.845C29.5268 123.836 29.5326 123.827 29.5371 123.817C29.6678 123.539 29.8095 123.105 30.0176 122.461L30.8008 120.038C30.8511 119.882 30.9011 119.725 30.959 119.598C31.0223 119.458 31.1147 119.308 31.2754 119.191L31.3975 119.116C31.5205 119.054 31.6457 119.028 31.7598 119.015C31.8989 118.999 32.0639 118.999 32.2275 118.999H35C35.2759 118.999 35.4996 119.223 35.5 119.499C35.5 119.775 35.2761 119.999 35 119.999H32.2275C32.0406 119.999 31.9421 120 31.873 120.008H31.8701L31.8691 120.012C31.8404 120.075 31.8093 120.168 31.752 120.346L30.9697 122.769C30.7712 123.383 30.6071 123.893 30.4424 124.243C30.3599 124.419 30.2578 124.597 30.1211 124.735C29.9719 124.886 29.7663 125.001 29.5088 124.998C29.251 124.995 29.0478 124.874 28.9023 124.72C28.7692 124.578 28.6719 124.398 28.5938 124.221C28.4378 123.867 28.2867 123.352 28.1035 122.733L26.0186 115.687C25.8123 114.99 25.67 114.514 25.5371 114.208C25.5321 114.197 25.5253 114.186 25.5205 114.176C25.516 114.186 25.5106 114.198 25.5059 114.209C25.3796 114.517 25.248 114.995 25.0566 115.696L24.1836 118.895C24.1385 119.06 24.0936 119.226 24.0391 119.361C23.9795 119.509 23.8891 119.668 23.7246 119.794C23.56 119.92 23.3824 119.965 23.2246 119.983C23.08 120 22.9078 119.999 22.7363 119.999H21C20.7239 119.999 20.5 119.775 20.5 119.499C20.5004 119.223 20.7241 118.999 21 118.999H22.7363C22.9317 118.999 23.0349 118.999 23.1074 118.99L23.1104 118.989L23.1123 118.987C23.1396 118.92 23.1673 118.819 23.2188 118.631L24.0918 115.433C24.2752 114.761 24.4246 114.208 24.5801 113.829C24.6577 113.64 24.7545 113.449 24.8867 113.3C25.0306 113.138 25.2381 113.004 25.5088 113.001L25.6074 113.006Z" fill="currentColor"/>
</svg>
