<svg xmlns="http://www.w3.org/2000/svg" width="16" height="16" viewBox="20.0 112.0 17.0 17.0" fill="none">
  <path d="M31.5 120C31.7761 120 32 120.224 32 120.5V122H33.5C33.7761 122 34 122.224 34 122.5C34 122.776 33.7761 123 33.5 123H32V124.5C32 124.776 31.7761 125 31.5 125C31.2239 125 31 124.776 31 124.5V123H29.5C29.2239 123 29 122.776 29 122.5C29 122.224 29.2239 122 29.5 122H31V120.5C31 120.224 31.2239 120 31.5 120Z" fill="currentColor"/>
  <path d="M31.5 118C33.9853 118 36 120.015 36 122.5C36 124.985 33.9853 127 31.5 127C29.0147 127 27 124.985 27 122.5C27 120.015 29.0147 118 31.5 118ZM31.5 119C29.567 119 28 120.567 28 122.5C28 124.433 29.567 126 31.5 126C33.433 126 35 124.433 35 122.5C35 120.567 33.433 119 31.5 119Z" fill="currentColor"/>
  <path d="M31.5 114C32.193 114 32.7634 113.999 33.2129 114.06C33.6767 114.122 34.0861 114.258 34.4141 114.586C34.742 114.914 34.878 115.323 34.9404 115.787C35.0009 116.237 35 116.807 35 117.5C35 117.769 34.9975 118.02 34.9941 118.253C34.6884 118.001 34.3548 117.782 33.999 117.601C33.999 117.568 34 117.534 34 117.5C34 116.779 33.9986 116.288 33.9492 115.921C33.9018 115.568 33.8183 115.404 33.707 115.293C33.5957 115.182 33.4321 115.098 33.0791 115.051C32.7117 115.001 32.2212 115 31.5 115H24.5C23.7788 115 23.2883 115.001 22.9209 115.051C22.5679 115.098 22.4043 115.182 22.293 115.293C22.1817 115.404 22.0982 115.568 22.0508 115.921C22.0014 116.288 22 116.779 22 117.5C22 118.221 22.0014 118.712 22.0508 119.079C22.0982 119.432 22.1817 119.596 22.293 119.707C22.4043 119.818 22.5679 119.902 22.9209 119.949C23.2883 119.999 23.7788 120 24.5 120H26.6016C26.4395 120.317 26.3067 120.651 26.208 121H24.5C23.807 121 23.2366 121.001 22.7871 120.94C22.3234 120.878 21.9139 120.742 21.5859 120.414C21.258 120.086 21.122 119.677 21.0596 119.213C20.9991 118.763 21 118.193 21 117.5C21 116.807 20.9991 116.237 21.0596 115.787C21.122 115.323 21.258 114.914 21.5859 114.586C21.9139 114.258 22.3234 114.122 22.7871 114.06C23.2366 113.999 23.807 114 24.5 114H31.5Z" fill="currentColor"/>
</svg>
