<svg xmlns="http://www.w3.org/2000/svg" width="16" height="16" viewBox="15.25 109.0 26.5 26.5" fill="none">
  <path d="M26.6016 117C26.7844 117.358 27.0043 117.693 27.2578 118H24.5C23.7788 118 23.2883 118.001 22.9209 118.051C22.5679 118.098 22.4043 118.182 22.293 118.293C22.1817 118.404 22.0982 118.568 22.0508 118.921C22.0014 119.288 22 119.779 22 120.5C22 121.221 22.0014 121.712 22.0508 122.079C22.0982 122.432 22.1817 122.596 22.293 122.707C22.4043 122.818 22.5679 122.902 22.9209 122.949C23.2883 122.999 23.7788 123 24.5 123H31.5C32.2212 123 32.7117 122.999 33.0791 122.949C33.4321 122.902 33.5957 122.818 33.707 122.707C33.8183 122.596 33.9018 122.432 33.9492 122.079C33.9986 121.712 34 121.221 34 120.5C34 120.056 33.9973 119.7 33.9854 119.405C34.3257 119.233 34.6455 119.026 34.9404 118.789C35.0006 119.238 35 119.808 35 120.5C35 121.193 35.0009 121.763 34.9404 122.213C34.878 122.677 34.742 123.086 34.4141 123.414C34.0861 123.742 33.6767 123.878 33.2129 123.94C32.7634 124.001 32.193 124 31.5 124H24.5C23.807 124 23.2366 124.001 22.7871 123.94C22.3234 123.878 21.9139 123.742 21.5859 123.414C21.258 123.086 21.122 122.677 21.0596 122.213C20.9991 121.763 21 121.193 21 120.5C21 119.807 20.9991 119.237 21.0596 118.787C21.122 118.323 21.258 117.914 21.5859 117.586C21.9139 117.258 22.3234 117.122 22.7871 117.06C23.2366 116.999 23.807 117 24.5 117H26.6016Z" fill="currentColor"/>
  <path d="M31.5 112C31.7761 112 32 112.224 32 112.5V114H33.5C33.7761 114 34 114.224 34 114.5C34 114.776 33.7761 115 33.5 115H32V116.5C32 116.776 31.7761 117 31.5 117C31.2239 117 31 116.776 31 116.5V115H29.5C29.2239 115 29 114.776 29 114.5C29 114.224 29.2239 114 29.5 114H31V112.5C31 112.224 31.2239 112 31.5 112Z" fill="currentColor"/>
  <path d="M31.5 110C33.9853 110 36 112.015 36 114.5C36 116.985 33.9853 119 31.5 119C29.0147 119 27 116.985 27 114.5C27 112.015 29.0147 110 31.5 110ZM31.5 111C29.567 111 28 112.567 28 114.5C28 116.433 29.567 118 31.5 118C33.433 118 35 116.433 35 114.5C35 112.567 33.433 111 31.5 111Z" fill="currentColor"/>
  <path d="M28.5 131C30.433 131 32 132.567 32 134.5C32 136.433 30.433 138 28.5 138C26.567 138 25 136.433 25 134.5C25 132.567 26.567 131 28.5 131ZM28.5 132C27.1193 132 26 133.119 26 134.5C26 135.881 27.1193 137 28.5 137C29.8807 137 31 135.881 31 134.5C31 133.119 29.8807 132 28.5 132Z" fill="currentColor"/>
</svg>
