<svg xmlns="http://www.w3.org/2000/svg" width="16" height="16" viewBox="20.0 111.0 16.0 16.0" fill="none">
  <path d="M29 118C30.5163 118 31.1807 118.893 31.4053 119.301C31.4757 119.429 31.5 119.575 31.5 119.721C31.5 120.427 30.9271 121 30.2207 121H27.7793C27.0729 121 26.5 120.427 26.5 119.721C26.5 119.575 26.5243 119.429 26.5947 119.301C26.8193 118.893 27.4837 118 29 118Z" fill="currentColor"/>
  <path d="M29 114C29.8284 114 30.5 114.672 30.5 115.5C30.5 116.328 29.8284 117 29 117C28.1716 117 27.5 116.328 27.5 115.5C27.5 114.672 28.1716 114 29 114Z" fill="currentColor"/>
  <path d="M31.5 112C32.8807 112 34 113.119 34 114.5V123.5C34 124.881 32.8807 126 31.5 126H24C22.8954 126 22 125.105 22 124V114.5C22 113.119 23.1193 112 24.5 112H31.5ZM33 122.496C32.5818 122.811 32.0637 123 31.5 123H24C23.4477 123 23 123.448 23 124C23 124.552 23.4477 125 24 125H31.5C32.3284 125 33 124.328 33 123.5V122.496ZM24 113.087C23.4177 113.293 23 113.847 23 114.5V122.27C23.2944 122.099 23.6354 122 24 122V113.087ZM25 122H31.5C32.2767 122 32.9154 121.41 32.9922 120.653L33 120.5V114.5C33 113.672 32.3284 113 31.5 113H25V122Z" fill="currentColor"/>
</svg>
