<svg xmlns="http://www.w3.org/2000/svg" width="16" height="16" viewBox="20.0 111.5 16.0 16.0" fill="none">
  <path d="M25.5 120C27.0163 120 27.6807 120.893 27.9053 121.301C27.9757 121.429 28 121.575 28 121.721C28 122.427 27.4271 123 26.7207 123H24.2793C23.5729 123 23 122.427 23 121.721C23 121.575 23.0243 121.429 23.0947 121.301C23.3193 120.893 23.9837 120 25.5 120Z" fill="currentColor"/>
  <path d="M32.5 121C32.7761 121 33 121.224 33 121.5C33 121.776 32.7761 122 32.5 122H29.5C29.2239 122 29 121.776 29 121.5C29 121.224 29.2239 121 29.5 121H32.5Z" fill="currentColor"/>
  <path d="M32.5 119C32.7761 119 33 119.224 33 119.5C33 119.776 32.7761 120 32.5 120H29.5C29.2239 120 29 119.776 29 119.5C29 119.224 29.2239 119 29.5 119H32.5Z" fill="currentColor"/>
  <path d="M25.5 116C26.3284 116 27 116.672 27 117.5C27 118.328 26.3284 119 25.5 119C24.6716 119 24 118.328 24 117.5C24 116.672 24.6716 116 25.5 116Z" fill="currentColor"/>
  <path d="M32.5 117C32.7761 117 33 117.224 33 117.5C33 117.776 32.7761 118 32.5 118H29.5C29.2239 118 29 117.776 29 117.5C29 117.224 29.2239 117 29.5 117H32.5Z" fill="currentColor"/>
  <path d="M30.5 114C31.4285 114 32.1751 113.999 32.7607 114.078C33.3608 114.159 33.8663 114.331 34.2676 114.732C34.6689 115.134 34.8412 115.639 34.9219 116.239C35.0006 116.825 35 117.572 35 118.5V120.5C35 121.428 35.0006 122.175 34.9219 122.761C34.8412 123.361 34.6689 123.866 34.2676 124.268C33.8663 124.669 33.3608 124.841 32.7607 124.922C32.1751 125.001 31.4285 125 30.5 125H25.5C24.5715 125 23.8249 125.001 23.2393 124.922C22.6392 124.841 22.1337 124.669 21.7324 124.268C21.3311 123.866 21.1588 123.361 21.0781 122.761C20.9994 122.175 21 121.428 21 120.5V118.5C21 117.572 20.9994 116.825 21.0781 116.239C21.1588 115.639 21.3311 115.134 21.7324 114.732C22.1337 114.331 22.6392 114.159 23.2393 114.078C23.8249 113.999 24.5715 114 25.5 114H30.5ZM25.5 115C24.5431 115 23.8756 115.001 23.3721 115.068C22.8829 115.134 22.624 115.255 22.4395 115.439C22.2549 115.624 22.1341 115.883 22.0684 116.372C22.0007 116.876 22 117.543 22 118.5V120.5C22 121.457 22.0007 122.124 22.0684 122.628C22.1341 123.117 22.2549 123.376 22.4395 123.561C22.624 123.745 22.8829 123.866 23.3721 123.932C23.8756 123.999 24.5431 124 25.5 124H30.5C31.4569 124 32.1244 123.999 32.6279 123.932C33.1171 123.866 33.376 123.745 33.5605 123.561C33.7451 123.376 33.8659 123.117 33.9316 122.628C33.9993 122.124 34 121.457 34 120.5V118.5C34 117.543 33.9993 116.876 33.9316 116.372C33.8659 115.883 33.7451 115.624 33.5605 115.439C33.376 115.255 33.1171 115.134 32.6279 115.068C32.1244 115.001 31.4569 115 30.5 115H25.5Z" fill="currentColor"/>
</svg>
