<svg xmlns="http://www.w3.org/2000/svg" width="16" height="16" viewBox="20.0 111.0 16.0 16.0" fill="none">
  <path d="M32.6465 121.646C32.8417 121.451 33.1583 121.451 33.3535 121.646L34.8535 123.146L34.916 123.223C34.9704 123.304 35 123.401 35 123.5C35 123.633 34.9473 123.76 34.8535 123.853L33.3535 125.353C33.1583 125.549 32.8417 125.549 32.6465 125.353C32.4512 125.158 32.4512 124.842 32.6465 124.646L33.293 124H30.3164C30.7428 123.717 31.1304 123.38 31.4707 123H33.293L32.6465 122.353C32.4512 122.158 32.4512 121.842 32.6465 121.646Z" fill="currentColor"/>
  <path d="M26.6465 112.646C26.8417 112.451 27.1583 112.451 27.3535 112.646C27.5488 112.842 27.5488 113.158 27.3535 113.353L26.707 114H27C29.7614 114 32 116.239 32 119C32 121.761 29.7614 124 27 124H21.5C21.2239 124 21 123.776 21 123.5C21 123.224 21.2239 123 21.5 123H24C22.7857 122.088 22 120.636 22 119C22 117.333 22.8157 115.858 24.0693 114.949C24.1105 115.081 24.1698 115.208 24.248 115.326C24.2675 115.356 24.288 115.385 24.3105 115.412L24.375 115.49C24.3952 115.515 24.417 115.538 24.4395 115.561L24.6455 115.767C23.6483 116.494 23 117.671 23 119C23 121.209 24.7909 123 27 123C29.2091 123 31 121.209 31 119C31 116.791 29.2091 115 27 115H26.707L27.3535 115.646C27.5488 115.842 27.5488 116.158 27.3535 116.353C27.1583 116.549 26.8417 116.549 26.6465 116.353L25.1465 114.853L25.082 114.775C25.0775 114.769 25.0744 114.761 25.0703 114.754C25.0604 114.737 25.0509 114.72 25.043 114.702C25.0383 114.691 25.0341 114.681 25.0303 114.67C25.0243 114.653 25.0199 114.636 25.0156 114.619C25.013 114.608 25.0097 114.597 25.0078 114.586C25.0029 114.558 25 114.529 25 114.5C25 114.367 25.0527 114.24 25.1465 114.146L26.6465 112.646Z" fill="currentColor"/>
</svg>
