<svg xmlns="http://www.w3.org/2000/svg" width="16" height="16" viewBox="19.81 110.8 16.36 16.36" fill="none">
  <path d="M26.9467 113.34C27.0614 112.822 27.8006 112.822 27.9154 113.34L28.3451 115.279C28.7052 116.905 29.9735 118.176 31.599 118.539L33.5326 118.97C34.0494 119.085 34.0495 119.823 33.5326 119.938L31.599 120.369C29.9735 120.732 28.7052 122.003 28.3451 123.629L27.9154 125.568C27.8006 126.087 27.0615 126.087 26.9467 125.568L26.517 123.629C26.1569 122.003 24.8885 120.732 23.2631 120.369L21.3295 119.938C20.8125 119.823 20.8125 119.085 21.3295 118.97L23.2631 118.539C24.8885 118.176 26.1569 116.905 26.517 115.279L26.9467 113.34Z" fill="currentColor"/>
  <path d="M32.2631 112.225C32.3213 111.882 32.8136 111.88 32.8744 112.223L32.9213 112.49C33.0696 113.328 33.727 113.983 34.5648 114.129L34.8275 114.174C35.1713 114.234 35.1697 114.728 34.8256 114.785L34.5668 114.828C33.7167 114.969 33.0486 115.635 32.9047 116.484L32.8676 116.707C32.8093 117.051 32.3146 117.051 32.2562 116.707L32.2181 116.484C32.0739 115.635 31.4076 114.971 30.558 114.829L30.3363 114.792C29.9918 114.734 29.9917 114.239 30.3363 114.181L30.558 114.144C31.4078 114.002 32.0741 113.338 32.2181 112.488L32.2631 112.225Z" fill="currentColor"/>
</svg>
