<svg xmlns="http://www.w3.org/2000/svg" width="16" height="16" viewBox="21.0 112.5 14.0 14.0" fill="none">
  <path d="M30.5 123C30.7761 123 31 123.224 31 123.5C31 123.776 30.7761 124 30.5 124H25.5C25.2239 124 25 123.776 25 123.5C25 123.224 25.2239 123 25.5 123H30.5Z" fill="currentColor"/>
  <path d="M33.5 119C33.7761 119 34 119.224 34 119.5C34 119.776 33.7761 120 33.5 120H22.5C22.2239 120 22 119.776 22 119.5C22 119.224 22.2239 119 22.5 119H33.5Z" fill="currentColor"/>
  <path d="M32.5 115C32.7761 115 33 115.224 33 115.5C33 115.776 32.7761 116 32.5 116H23.5C23.2239 116 23 115.776 23 115.5C23 115.224 23.2239 115 23.5 115H32.5Z" fill="currentColor"/>
</svg>
