<svg xmlns="http://www.w3.org/2000/svg" width="16" height="16" viewBox="20.0 111.0 17.0 17.0" fill="none">
  <path d="M28.5 112C32.6421 112 36 115.358 36 119.5C36 123.642 32.6421 127 28.5 127L28.1143 126.99C24.1514 126.789 21 123.513 21 119.5C21 115.358 24.3579 112 28.5 112ZM28.4502 115.835C28.3995 115.832 28.3236 115.841 28.1562 115.941C27.9766 116.049 27.7563 116.22 27.4141 116.489L22.1045 120.66C22.4308 122.471 23.5072 124.018 25 124.975V121.5C25 121.224 25.2239 121 25.5 121C25.7761 121 26 121.224 26 121.5V125.5L25.999 125.501C26.6227 125.761 27.2957 125.925 28 125.979V119.5C28 119.224 28.2239 119 28.5 119C28.7761 119 29 119.224 29 119.5V125.979C29.704 125.925 30.3765 125.761 31 125.501V120.5C31 120.224 31.2239 120 31.5 120C31.7761 120 32 120.224 32 120.5V124.975C33.8033 123.819 35 121.801 35 119.5C35 118.374 34.7137 117.315 34.21 116.392L33.2236 117.215C32.9008 117.484 32.6217 117.717 32.373 117.875C32.1123 118.041 31.8292 118.161 31.4932 118.146C31.1573 118.13 30.8862 117.985 30.6416 117.797C30.4083 117.617 30.1517 117.36 29.8545 117.062L29.4014 116.608C29.0935 116.3 28.8951 116.104 28.7295 115.976C28.5753 115.856 28.5009 115.838 28.4502 115.835ZM28.5 113C24.9202 113 22.0163 115.894 22 119.47L26.7959 115.703C27.1175 115.45 27.3955 115.231 27.6426 115.083C27.9019 114.928 28.1815 114.817 28.5098 114.837C28.838 114.857 29.1028 115 29.3418 115.185C29.5695 115.361 29.8193 115.612 30.1084 115.901L30.5625 116.354C30.8786 116.671 31.0818 116.874 31.252 117.005C31.4108 117.127 31.4876 117.144 31.5391 117.146C31.5906 117.149 31.668 117.139 31.8369 117.031C32.0183 116.916 32.2395 116.733 32.583 116.446L33.6592 115.549C32.4711 114 30.603 113 28.5 113Z" fill="currentColor"/>
</svg>
