<svg xmlns="http://www.w3.org/2000/svg" width="16" height="16" viewBox="20.5 111.0 16.0 16.0" fill="none">
  <path d="M28.5 112C29.6043 112 30.5 112.896 30.5 114C30.5 114.931 29.8619 115.711 29 115.934V117H30C30.2761 117 30.5 117.224 30.5 117.5C30.5 117.776 30.2761 118 30 118H29V124.969C29.55 124.919 30.0906 124.787 30.6025 124.575C31.2689 124.299 31.8747 123.895 32.3848 123.385C32.8949 122.875 33.2991 122.268 33.5752 121.602C33.7872 121.09 33.9202 120.55 33.9707 120H33C32.7239 120 32.5 119.776 32.5 119.5C32.5 119.224 32.7239 119 33 119H34.5C34.776 119 35 119.224 35 119.5C35 120.353 34.8315 121.199 34.5049 121.987C34.1782 122.776 33.6992 123.492 33.0957 124.096C32.4922 124.699 31.7758 125.178 30.9873 125.505C30.2027 125.83 29.3619 125.996 28.5127 125.998C28.5085 125.998 28.5043 126 28.5 126C28.4955 126 28.4908 125.998 28.4863 125.998C27.6375 125.996 26.797 125.83 26.0127 125.505C25.2241 125.178 24.5069 124.699 23.9033 124.096C23.2999 123.492 22.8217 122.776 22.4951 121.987C22.1685 121.199 22 120.353 22 119.5C22 119.224 22.2239 119 22.5 119H24C24.2761 119 24.5 119.224 24.5 119.5C24.5 119.776 24.2761 120 24 120H23.0293C23.0796 120.55 23.2119 121.09 23.4238 121.602C23.6999 122.268 24.1051 122.875 24.6152 123.385C25.1253 123.895 25.731 124.299 26.3975 124.575C26.9095 124.787 27.45 124.919 28 124.969V118H27C26.7239 118 26.5 117.776 26.5 117.5C26.5 117.224 26.7239 117 27 117H28V115.934C27.1376 115.711 26.5 114.932 26.5 114C26.5 112.895 27.3955 112 28.5 112ZM28.5 113C27.9477 113 27.5 113.448 27.5 114C27.5 114.552 27.9477 115 28.5 115C29.052 115 29.5 114.552 29.5 114C29.5 113.448 29.052 113 28.5 113Z" fill="currentColor"/>
</svg>
