<svg xmlns="http://www.w3.org/2000/svg" width="16" height="16" viewBox="17.97 111.0 17.05 17.05" fill="none">
  <path d="M19.3359 118.213C19.6655 117.945 20.0538 118.013 20.3271 118.099C20.6081 118.187 20.9584 118.356 21.3574 118.548L26.1015 120.829C26.637 121.087 27.0863 121.303 27.3906 121.502C27.6579 121.677 28.0493 121.988 27.9882 122.49C27.927 122.992 27.4734 123.201 27.1718 123.307C26.8286 123.427 26.3396 123.528 25.7578 123.649L24.2343 123.968C24.1203 123.992 24.0628 124.005 24.0224 124.017L24.0185 124.018C23.9943 124.052 23.9643 124.103 23.9052 124.204L23.1826 125.436C22.9271 125.871 22.7085 126.246 22.5078 126.499C22.3203 126.735 22.0103 127.045 21.5546 126.979C21.0989 126.912 20.8898 126.528 20.7773 126.248C20.6567 125.948 20.5537 125.526 20.4326 125.036L19.2509 120.26C19.1447 119.83 19.0503 119.453 19.0214 119.16C18.9934 118.875 19.0064 118.481 19.3359 118.213ZM20.0165 119.062C20.0365 119.265 20.1072 119.557 20.2216 120.02L21.4033 124.796C21.5325 125.318 21.6172 125.657 21.705 125.875C21.7072 125.88 21.7097 125.886 21.7119 125.891C21.7154 125.886 21.7199 125.883 21.7236 125.878C21.8699 125.693 22.0478 125.394 22.3203 124.93L23.0429 123.698C23.1311 123.548 23.2418 123.339 23.4335 123.201C23.6253 123.063 23.8587 123.025 24.0292 122.989L25.5536 122.671C26.1666 122.543 26.5746 122.456 26.8398 122.363C26.8481 122.36 26.8556 122.355 26.8632 122.353C26.8566 122.348 26.8499 122.343 26.8427 122.338C26.6076 122.184 26.2323 122.002 25.6679 121.73L20.9238 119.449C20.4945 119.243 20.2231 119.114 20.0283 119.053C20.024 119.051 20.0196 119.05 20.0156 119.049C20.0159 119.053 20.0161 119.057 20.0165 119.062Z" fill="currentColor"/>
  <path d="M29.4999 112C30.4284 112 31.1751 111.999 31.7607 112.078C32.3607 112.159 32.8663 112.331 33.2675 112.732C33.6688 113.134 33.8411 113.639 33.9218 114.239C34.0005 114.825 33.9999 115.572 33.9999 116.5V119.5C33.9999 120.428 34.0005 121.175 33.9218 121.761C33.8411 122.361 33.6688 122.866 33.2675 123.268C32.8663 123.669 32.3607 123.841 31.7607 123.922C31.1751 124.001 30.4284 124 29.4999 124H28.0458C28.3638 123.808 28.7186 123.497 28.8906 123H29.4999C30.4568 123 31.1243 122.999 31.6279 122.932C32.117 122.866 32.376 122.745 32.5605 122.561C32.745 122.376 32.8658 122.117 32.9316 121.628C32.9993 121.124 32.9999 120.457 32.9999 119.5V116.5C32.9999 115.543 32.9993 114.876 32.9316 114.372C32.8658 113.883 32.745 113.624 32.5605 113.439C32.376 113.255 32.117 113.134 31.6279 113.068C31.1243 113.001 30.4568 113 29.4999 113H24.4999C23.5431 113 22.8756 113.001 22.372 113.068C21.8829 113.134 21.6239 113.255 21.4394 113.439C21.2549 113.624 21.1341 113.883 21.0683 114.372C21.0006 114.876 20.9999 115.543 20.9999 116.5V117.284C20.8718 117.231 20.7462 117.183 20.6269 117.146C20.4865 117.101 20.2642 117.044 19.9999 117.029V116.5C19.9999 115.572 19.9994 114.825 20.0781 114.239C20.1587 113.639 20.3311 113.134 20.7324 112.732C21.1336 112.331 21.6391 112.159 22.2392 112.078C22.8248 111.999 23.5715 112 24.4999 112H29.4999Z" fill="currentColor"/>
  <path d="M31.1464 116.146C31.3417 115.951 31.6582 115.951 31.8535 116.146C32.0487 116.342 32.0487 116.658 31.8535 116.854L29.3535 119.354C29.1582 119.549 28.8417 119.549 28.6464 119.354L26.4999 117.207L24.6728 119.033L23.7177 118.574L26.1464 116.146L26.2245 116.082C26.4186 115.954 26.6826 115.976 26.8535 116.146L28.9999 118.293L31.1464 116.146Z" fill="currentColor"/>
</svg>
