<svg xmlns="http://www.w3.org/2000/svg" width="16" height="16" viewBox="20.0 111.0 16.0 16.0" fill="none">
  <path d="M28 113C29.861 113 31.5706 113.405 32.833 114.085C34.0751 114.754 35 115.761 35 117V120.888C35 122.149 34.0856 123.186 32.8389 123.879C31.5752 124.581 29.8635 125 28 125C26.1365 125 24.4248 124.581 23.1611 123.879C21.9144 123.186 21 122.149 21 120.888V117C21 115.761 21.9249 114.754 23.167 114.085C24.4294 113.405 26.139 113 28 113ZM28 123C27.4628 123 27.0255 123.424 27.002 123.955C27.326 123.984 27.6593 124 28 124C28.3404 124 28.6733 123.984 28.9971 123.955C28.9735 123.424 28.5372 123 28 123ZM34 119.085C33.6677 119.4 33.2707 119.679 32.833 119.915C31.5706 120.595 29.861 121 28 121C26.139 121 24.4294 120.595 23.167 119.915C22.7293 119.679 22.3323 119.4 22 119.085V120.888C22 121.621 22.5408 122.39 23.6465 123.005C24.2934 123.364 25.0994 123.646 26.0088 123.817C26.101 122.798 26.957 122 28 122C29.043 122 29.8979 122.798 29.9902 123.817C30.9001 123.646 31.7063 123.365 32.3535 123.005C33.4592 122.39 34 121.621 34 120.888V119.085ZM28 117C26.8173 117 25.7709 117.238 25.0391 117.6C24.2759 117.977 24 118.404 24 118.724C24.0001 118.906 24.0846 119.116 24.3105 119.345C25.3243 119.751 26.6003 120 28 120C29.4002 120 30.6765 119.75 31.6904 119.344C31.9155 119.116 31.9999 118.906 32 118.724C32 118.404 31.7241 117.977 30.9609 117.6C30.2291 117.238 29.1827 117 28 117ZM23.6406 114.966C22.5304 115.564 22 116.306 22 117C22 117.545 22.3279 118.117 23.0049 118.628C23.0542 117.767 23.7621 117.115 24.5967 116.703C24.633 116.685 24.6707 116.67 24.708 116.652L23.6826 114.943C23.6685 114.951 23.6546 114.958 23.6406 114.966ZM31.291 116.652C31.3286 116.67 31.3668 116.685 31.4033 116.703C32.2378 117.115 32.9448 117.767 32.9941 118.628C33.6715 118.117 34 117.545 34 117C34 116.306 33.4696 115.564 32.3594 114.966C32.3452 114.958 32.3307 114.951 32.3164 114.943L31.291 116.652ZM28 114C26.7343 114 25.5694 114.203 24.6084 114.542L25.665 116.304C26.3657 116.109 27.1622 116 28 116C28.8374 116 29.6335 116.109 30.334 116.304L31.3906 114.542C30.4298 114.203 29.2653 114 28 114Z" fill="currentColor"/>
</svg>
