<svg xmlns="http://www.w3.org/2000/svg" width="16" height="16" viewBox="19.93 110.95 16.1 16.1" fill="none">
  <path d="M24.1466 119.146C24.3418 118.951 24.6584 118.951 24.8536 119.146C25.0489 119.342 25.0489 119.658 24.8536 119.853L22.7072 122H34.5001C34.7763 122 35.0001 122.224 35.0001 122.5C35.0001 122.776 34.7763 123 34.5001 123H22.7072L24.8536 125.146C25.0489 125.342 25.0489 125.658 24.8536 125.853C24.6584 126.049 24.3418 126.049 24.1466 125.853L21.1466 122.853C20.9759 122.683 20.9541 122.419 21.0822 122.225L21.1466 122.146L24.1466 119.146Z" fill="currentColor"/>
  <path d="M31.1466 112.146C31.3418 111.951 31.6584 111.951 31.8536 112.146L34.8536 115.146L34.9181 115.225C34.9524 115.276 34.9746 115.334 34.9874 115.392C34.9893 115.401 34.9899 115.409 34.9913 115.418C34.9951 115.441 34.9976 115.463 34.9982 115.486C34.9983 115.491 35.0001 115.495 35.0001 115.5C35.0001 115.505 34.9983 115.51 34.9982 115.516C34.9975 115.538 34.9949 115.559 34.9913 115.581C34.9897 115.591 34.9887 115.601 34.9865 115.611C34.9814 115.633 34.974 115.654 34.9659 115.676C34.9629 115.684 34.9606 115.692 34.9572 115.7C34.9479 115.721 34.9362 115.741 34.924 115.761C34.9199 115.767 34.9176 115.775 34.9132 115.781C34.8959 115.807 34.8761 115.831 34.8536 115.853L31.8536 118.853C31.6584 119.049 31.3418 119.049 31.1466 118.853C30.9515 118.658 30.9515 118.342 31.1466 118.146L33.2931 116H21.5001C21.2241 116 21.0001 115.776 21.0001 115.5C21.0001 115.224 21.2241 115 21.5001 115H33.2931L31.1466 112.853C30.9515 112.658 30.9515 112.342 31.1466 112.146Z" fill="currentColor"/>
</svg>
