<svg xmlns="http://www.w3.org/2000/svg" width="16" height="16" viewBox="20.0 111.0 16.0 16.0" fill="none">
  <path d="M32.1465 120.146C32.3417 119.951 32.6583 119.951 32.8535 120.146L34.8535 122.146L34.916 122.223C34.9704 122.304 35 122.401 35 122.5C35 122.633 34.9473 122.76 34.8535 122.853L32.8535 124.853C32.6583 125.049 32.3417 125.049 32.1465 124.853C31.9512 124.658 31.9512 124.342 32.1465 124.146L33.293 123H21.5C21.2239 123 21 122.776 21 122.5C21 122.224 21.2239 122 21.5 122H33.293L32.1465 120.853C31.9512 120.658 31.9512 120.342 32.1465 120.146Z" fill="currentColor"/>
  <path d="M32.1465 113.146C32.3417 112.951 32.6583 112.951 32.8535 113.146L34.8535 115.146L34.916 115.223C34.9704 115.304 35 115.401 35 115.5C35 115.633 34.9473 115.76 34.8535 115.853L32.8535 117.853C32.6583 118.049 32.3417 118.049 32.1465 117.853C31.9512 117.658 31.9512 117.342 32.1465 117.146L33.293 116H21.5C21.2239 116 21 115.776 21 115.5C21 115.224 21.2239 115 21.5 115H33.293L32.1465 113.853C31.9512 113.658 31.9512 113.342 32.1465 113.146Z" fill="currentColor"/>
</svg>
