<svg xmlns="http://www.w3.org/2000/svg" width="16" height="16" viewBox="20.0 111.0 17.0 17.0" fill="none">
  <path d="M34.5 112C34.7761 112 35 112.224 35 112.5V115.5C35 115.776 34.7761 116 34.5 116H31.5C31.2239 116 31 115.776 31 115.5C31 115.224 31.2239 115 31.5 115H33.1895C32.006 113.767 30.3428 113 28.5 113C24.9101 113 22 115.91 22 119.5C22 123.09 24.9101 126 28.5 126C32.0899 126 35 123.09 35 119.5C35 119.224 35.2239 119 35.5 119C35.7761 119 36 119.224 36 119.5C36 123.642 32.6421 127 28.5 127C24.3579 127 21 123.642 21 119.5C21 115.358 24.3579 112 28.5 112C30.6734 112 32.6307 112.925 34 114.401V112.5C34 112.224 34.2239 112 34.5 112Z" fill="currentColor"/>
</svg>
