<svg xmlns="http://www.w3.org/2000/svg" width="16" height="16" viewBox="20.45 110.95 16.09 16.09" fill="none">
  <path d="M28.2245 112.082C28.4186 111.954 28.6826 111.976 28.8534 112.146L31.8534 115.146C32.0487 115.341 32.0486 115.658 31.8534 115.853C31.6582 116.049 31.3417 116.049 31.1464 115.853L28.9999 113.707V124.293L31.1464 122.146C31.3416 121.951 31.6582 121.951 31.8534 122.146C32.0487 122.341 32.0486 122.658 31.8534 122.853L28.8534 125.853C28.6826 126.024 28.4186 126.046 28.2245 125.918L28.1464 125.853L25.1464 122.853C24.9512 122.658 24.9512 122.342 25.1464 122.146C25.3416 121.951 25.6582 121.951 25.8534 122.146L27.9999 124.293V113.707L25.8534 115.853C25.6582 116.049 25.3417 116.049 25.1464 115.853C24.9512 115.658 24.9512 115.342 25.1464 115.146L28.1464 112.146L28.2245 112.082Z" fill="currentColor"/>
</svg>
