<svg xmlns="http://www.w3.org/2000/svg" width="16" height="16" viewBox="20.95 112.0 15.05 15.05" fill="none">
  <path d="M28.4999 113C28.6324 113 28.7597 113.053 28.8534 113.146L30.8534 115.146C31.0486 115.342 31.0486 115.658 30.8534 115.854C30.6582 116.049 30.3416 116.049 30.1464 115.854L28.9999 114.707V119H33.2929L32.1464 117.854C31.9511 117.658 31.9511 117.342 32.1464 117.146C32.3417 116.951 32.6582 116.951 32.8534 117.146L34.8534 119.146C34.9471 119.24 34.9998 119.368 34.9999 119.5C34.9999 119.633 34.9471 119.76 34.8534 119.854L32.8534 121.854C32.6582 122.049 32.3416 122.049 32.1464 121.854C31.9511 121.658 31.9511 121.342 32.1464 121.146L33.2929 120H28.9999V124.293L30.1464 123.146C30.3416 122.951 30.6582 122.951 30.8534 123.146C31.0486 123.342 31.0485 123.658 30.8534 123.854L28.8534 125.854C28.6582 126.049 28.3416 126.049 28.1464 125.854L26.1464 123.854C25.9512 123.658 25.9512 123.342 26.1464 123.146C26.3417 122.951 26.6582 122.951 26.8534 123.146L27.9999 124.293V120H23.7069L24.8534 121.146C25.0485 121.342 25.0485 121.658 24.8534 121.854C24.6582 122.049 24.3417 122.049 24.1464 121.854L22.1464 119.854C21.9512 119.658 21.9512 119.342 22.1464 119.146L24.1464 117.146C24.3416 116.951 24.6582 116.951 24.8534 117.146C25.0486 117.342 25.0486 117.658 24.8534 117.854L23.7069 119H27.9999V114.707L26.8534 115.854C26.6582 116.049 26.3416 116.049 26.1464 115.854C25.9511 115.658 25.9511 115.342 26.1464 115.146L28.1464 113.146C28.2401 113.053 28.3674 113 28.4999 113Z" fill="currentColor"/>
</svg>
