<svg xmlns="http://www.w3.org/2000/svg" width="16" height="16" viewBox="20.0 111.0 17.0 17.0" fill="none">
  <path d="M28.5 112C32.6421 112 36 115.358 36 119.5C36 123.642 32.6421 127 28.5 127C24.3579 127 21 123.642 21 119.5C21 119.224 21.2239 119 21.5 119C21.7761 119 22 119.224 22 119.5C22 123.09 24.9101 126 28.5 126C32.0899 126 35 123.09 35 119.5C35 115.91 32.0899 113 28.5 113C26.6572 113 24.994 113.767 23.8105 115H25.5C25.7761 115 26 115.224 26 115.5C26 115.776 25.7761 116 25.5 116H22.5C22.2239 116 22 115.776 22 115.5V112.5C22 112.224 22.2239 112 22.5 112C22.7761 112 23 112.224 23 112.5V114.401C24.3693 112.925 26.3266 112 28.5 112Z" fill="currentColor"/>
</svg>
