<svg xmlns="http://www.w3.org/2000/svg" width="16" height="16" viewBox="20.0 111.5 16.0 16.0" fill="none">
  <path d="M28.5 113C28.776 113 28.9999 113.224 29 113.5C28.9999 113.776 28.776 114 28.5 114H26.707L31.707 119H34.5C34.7761 119 35 119.224 35 119.5C35 119.776 34.7761 120 34.5 120H31.707L26.707 125H28.5C28.776 125 28.9999 125.224 29 125.5C28.9999 125.776 28.776 126 28.5 126H25.5C25.224 126 25.0001 125.776 25 125.5V122.5C25.0002 122.224 25.2234 122 25.499 122C25.775 122 25.9997 122.224 26 122.5V124.293L30.293 120H22.707L23.8535 121.146C24.0488 121.342 24.0488 121.658 23.8535 121.854C23.6583 122.049 23.3417 122.049 23.1465 121.854L21.1465 119.854C21.056 119.763 21 119.638 21 119.5C21 119.471 21.0029 119.442 21.0078 119.414C21.0099 119.402 21.0127 119.391 21.0156 119.379C21.0204 119.36 21.0262 119.341 21.0332 119.322C21.0364 119.314 21.0393 119.305 21.043 119.297C21.0544 119.271 21.0682 119.246 21.084 119.223C21.1024 119.195 21.1231 119.17 21.1465 119.146L23.1465 117.146C23.3417 116.951 23.6583 116.951 23.8535 117.146C24.0488 117.342 24.0488 117.658 23.8535 117.854L22.707 119H30.293L26 114.707V116.5C25.9997 116.776 25.775 117 25.499 117C25.2234 117 25.0002 116.776 25 116.5V113.5C25.0001 113.224 25.224 113 25.5 113H28.5Z" fill="currentColor"/>
</svg>
