<svg xmlns="http://www.w3.org/2000/svg" width="16" height="16" viewBox="20.5 111.0 16.0 16.0" fill="none">
  <path d="M34.5 125C34.7761 125 35 125.224 35 125.5C35 125.776 34.7761 126 34.5 126H22.5C22.2239 126 22 125.776 22 125.5C22 125.224 22.2239 125 22.5 125H34.5Z" fill="currentColor"/>
  <path d="M28.5 112C28.7761 112 29 112.224 29 112.5V122.293L33.1465 118.146C33.3417 117.951 33.6583 117.951 33.8535 118.146C34.0488 118.342 34.0488 118.658 33.8535 118.854L28.8535 123.854C28.6583 124.049 28.3417 124.049 28.1465 123.854L23.1465 118.854C22.9512 118.658 22.9512 118.342 23.1465 118.146C23.3417 117.951 23.6583 117.951 23.8535 118.146L28 122.293V112.5C28 112.224 28.2239 112 28.5 112Z" fill="currentColor"/>
</svg>
