<svg xmlns="http://www.w3.org/2000/svg" width="16" height="16" viewBox="20.0 111.5 16.0 16.0" fill="none">
  <path d="M30.5 113C30.776 113 30.9999 113.224 31 113.5V116.5C30.9998 116.776 30.7766 117 30.501 117C30.225 117 30.0003 116.776 30 116.5V114.707L25.707 119H33.293L32.1465 117.854C31.9512 117.658 31.9512 117.342 32.1465 117.146C32.3417 116.951 32.6583 116.951 32.8535 117.146L34.8535 119.146C34.8768 119.17 34.8977 119.195 34.916 119.223L34.9521 119.286C34.9538 119.29 34.9545 119.293 34.9561 119.297C34.9597 119.305 34.9626 119.314 34.9658 119.322C34.9729 119.341 34.9786 119.36 34.9834 119.379C34.9863 119.391 34.9891 119.402 34.9912 119.414C34.9962 119.442 35 119.471 35 119.5C35 119.638 34.944 119.763 34.8535 119.854L32.8535 121.854C32.6583 122.049 32.3417 122.049 32.1465 121.854C31.9512 121.658 31.9512 121.342 32.1465 121.146L33.293 120H25.707L30 124.293V122.5C30.0003 122.224 30.225 122 30.501 122C30.7766 122 30.9998 122.224 31 122.5V125.5C30.9999 125.776 30.776 126 30.5 126H27.5C27.224 126 27.0001 125.776 27 125.5C27.0001 125.224 27.224 125 27.5 125H29.293L24.293 120H21.5C21.2239 120 21 119.776 21 119.5C21 119.224 21.2239 119 21.5 119H24.293L29.293 114H27.5C27.224 114 27.0001 113.776 27 113.5C27.0001 113.224 27.224 113 27.5 113H30.5Z" fill="currentColor"/>
</svg>
