<svg xmlns="http://www.w3.org/2000/svg" width="16" height="16" viewBox="20.0 112.0 15.0 15.0" fill="none">
  <path d="M31.5 113C32.8807 113 34 114.119 34 115.5V123.5C34 124.881 32.8807 126 31.5 126C31.2239 126 31 125.776 31 125.5C31 125.224 31.2239 125 31.5 125C32.3284 125 33 124.328 33 123.5V115.5C33 114.672 32.3284 114 31.5 114C31.2239 114 31 113.776 31 113.5C31 113.224 31.2239 113 31.5 113Z" fill="currentColor"/>
  <path d="M27.1465 115.146C27.3417 114.951 27.6583 114.951 27.8535 115.146L31.8535 119.146C32.0488 119.342 32.0488 119.658 31.8535 119.854L27.8535 123.854C27.6583 124.049 27.3417 124.049 27.1465 123.854C26.9512 123.658 26.9512 123.342 27.1465 123.146L30.293 120H21.5C21.2239 120 21 119.776 21 119.5C21 119.224 21.2239 119 21.5 119H30.293L27.1465 115.854C26.9512 115.658 26.9512 115.342 27.1465 115.146Z" fill="currentColor"/>
</svg>
