<svg xmlns="http://www.w3.org/2000/svg" width="16" height="16" viewBox="20.5 111.0 16.0 16.0" fill="none">
  <path d="M28.1465 114.146C28.3417 113.951 28.6583 113.951 28.8535 114.146L33.8535 119.146C34.0488 119.342 34.0488 119.658 33.8535 119.854C33.6583 120.049 33.3417 120.049 33.1465 119.854L29 115.707V125.5C29 125.776 28.7761 126 28.5 126C28.2239 126 28 125.776 28 125.5V115.707L23.8535 119.854C23.6583 120.049 23.3417 120.049 23.1465 119.854C22.9512 119.658 22.9512 119.342 23.1465 119.146L28.1465 114.146Z" fill="currentColor"/>
  <path d="M34.5 112C34.7761 112 35 112.224 35 112.5C35 112.776 34.7761 113 34.5 113H22.5C22.2239 113 22 112.776 22 112.5C22 112.224 22.2239 112 22.5 112H34.5Z" fill="currentColor"/>
</svg>
