<svg xmlns="http://www.w3.org/2000/svg" width="16" height="16" viewBox="20.0 111.5 16.0 16.0" fill="none">
  <path d="M21.5 113C21.7761 113 22 113.224 22 113.5V125.5C22 125.776 21.7761 126 21.5 126C21.2239 126 21 125.776 21 125.5V113.5C21 113.224 21.2239 113 21.5 113Z" fill="currentColor"/>
  <path d="M28.1465 114.146C28.3417 113.951 28.6583 113.951 28.8535 114.146C29.0488 114.342 29.0488 114.658 28.8535 114.854L24.707 119H34.5C34.7761 119 35 119.224 35 119.5C35 119.776 34.7761 120 34.5 120H24.707L28.8535 124.146C29.0488 124.342 29.0488 124.658 28.8535 124.854C28.6583 125.049 28.3417 125.049 28.1465 124.854L23.1465 119.854C22.9512 119.658 22.9512 119.342 23.1465 119.146L28.1465 114.146Z" fill="currentColor"/>
</svg>
