<svg xmlns="http://www.w3.org/2000/svg" width="16" height="16" viewBox="21.0 111.98 15.05 15.05" fill="none">
  <path d="M24.5 113C24.7761 113 25 113.224 25 113.5C25 113.776 24.7761 114 24.5 114C23.6716 114 23 114.672 23 115.5V123.5C23 124.328 23.6716 125 24.5 125C24.7761 125 25 125.224 25 125.5C25 125.776 24.7761 126 24.5 126C23.1193 126 22 124.881 22 123.5V115.5C22 114.119 23.1193 113 24.5 113Z" fill="currentColor"/>
  <path d="M30.1465 115.146C30.3417 114.951 30.6583 114.951 30.8535 115.146L34.8535 119.146C35.0488 119.342 35.0488 119.658 34.8535 119.854L30.8535 123.854C30.6583 124.049 30.3417 124.049 30.1465 123.854C29.9512 123.658 29.9512 123.342 30.1465 123.146L33.293 120H24.5C24.2239 120 24 119.776 24 119.5C24 119.224 24.2239 119 24.5 119H33.293L30.1465 115.854C29.9512 115.658 29.9512 115.342 30.1465 115.146Z" fill="currentColor"/>
</svg>
