<svg xmlns="http://www.w3.org/2000/svg" width="16" height="16" viewBox="20.0 111.0 16.0 16.0" fill="none">
  <path d="M23.1465 120.146C23.3417 119.951 23.6583 119.951 23.8535 120.146C24.0488 120.342 24.0488 120.658 23.8535 120.853L22.707 122H34.5C34.7761 122 35 122.224 35 122.5C35 122.776 34.7761 123 34.5 123H22.707L23.8535 124.146C24.0488 124.342 24.0488 124.658 23.8535 124.853C23.6583 125.049 23.3417 125.049 23.1465 124.853L21.1465 122.853C21.0527 122.76 21 122.633 21 122.5C21 122.401 21.0296 122.304 21.084 122.223L21.1465 122.146L23.1465 120.146Z" fill="currentColor"/>
  <path d="M23.1465 113.146C23.3417 112.951 23.6583 112.951 23.8535 113.146C24.0488 113.342 24.0488 113.658 23.8535 113.853L22.707 115H34.5C34.7761 115 35 115.224 35 115.5C35 115.776 34.7761 116 34.5 116H22.707L23.8535 117.146C24.0488 117.342 24.0488 117.658 23.8535 117.853C23.6583 118.049 23.3417 118.049 23.1465 117.853L21.1465 115.853C21.0527 115.76 21 115.633 21 115.5C21 115.401 21.0296 115.304 21.084 115.223L21.1465 115.146L23.1465 113.146Z" fill="currentColor"/>
</svg>
