<svg xmlns="http://www.w3.org/2000/svg" width="16" height="16" viewBox="20.0 111.5 16.0 16.0" fill="none">
  <path d="M34.5 113C34.7761 113 35 113.224 35 113.5V125.5C35 125.776 34.7761 126 34.5 126C34.2239 126 34 125.776 34 125.5V113.5C34 113.224 34.2239 113 34.5 113Z" fill="currentColor"/>
  <path d="M27.1465 114.146C27.3417 113.951 27.6583 113.951 27.8535 114.146L32.8535 119.146C33.0488 119.342 33.0488 119.658 32.8535 119.854L27.8535 124.854C27.6583 125.049 27.3417 125.049 27.1465 124.854C26.9512 124.658 26.9512 124.342 27.1465 124.146L31.293 120H21.5C21.2239 120 21 119.776 21 119.5C21 119.224 21.2239 119 21.5 119H31.293L27.1465 114.854C26.9512 114.658 26.9512 114.342 27.1465 114.146Z" fill="currentColor"/>
</svg>
