<svg xmlns="http://www.w3.org/2000/svg" width="16" height="16" viewBox="19.95 111.98 15.05 15.05" fill="none">
  <path d="M31.5 113C32.8807 113 34 114.119 34 115.5V123.5C34 124.881 32.8807 126 31.5 126C31.2238 126 31 125.776 31 125.5C31 125.224 31.2238 125 31.5 125C32.3284 125 33 124.328 33 123.5V115.5C33 114.672 32.3284 114 31.5 114C31.2238 114 31 113.776 31 113.5C31 113.224 31.2238 113 31.5 113Z" fill="currentColor"/>
  <path d="M25.1464 115.146C25.3417 114.951 25.6582 114.951 25.8535 115.146C26.0487 115.342 26.0487 115.658 25.8535 115.854L22.707 119H31.5C31.7761 119 32 119.224 32 119.5C32 119.776 31.7761 120 31.5 120H22.707L25.8535 123.146C26.0487 123.342 26.0487 123.658 25.8535 123.854C25.6582 124.049 25.3417 124.049 25.1464 123.854L21.1464 119.854C20.9512 119.658 20.9512 119.342 21.1464 119.146L25.1464 115.146Z" fill="currentColor"/>
</svg>
