<svg xmlns="http://www.w3.org/2000/svg" width="16" height="16" viewBox="20.5 111.0 16.0 16.0" fill="none">
  <path d="M28.5 123C29.3284 123 30 123.672 30 124.5C30 125.328 29.3284 126 28.5 126C27.6715 126 27 125.328 27 124.5C27 123.672 27.6715 123 28.5 123ZM28.5 124C28.2238 124 28 124.224 28 124.5C28 124.776 28.2238 125 28.5 125C28.7761 125 29 124.776 29 124.5C29 124.224 28.7761 124 28.5 124Z" fill="currentColor"/>
  <path d="M28.5 112C28.7761 112 29 112.224 29 112.5V119.293L32.1464 116.146C32.3417 115.951 32.6582 115.951 32.8535 116.146C33.0487 116.342 33.0487 116.658 32.8535 116.854L28.8535 120.854C28.7597 120.947 28.6326 121 28.5 121C28.4005 121 28.3041 120.97 28.2226 120.916L28.1464 120.854L24.1464 116.854C23.9512 116.658 23.9512 116.342 24.1464 116.146C24.3417 115.951 24.6582 115.951 24.8535 116.146L28 119.293V112.5C28 112.224 28.2238 112 28.5 112Z" fill="currentColor"/>
</svg>
