<svg xmlns="http://www.w3.org/2000/svg" width="16" height="16" viewBox="21.0 111.0 15.0 15.0" fill="none">
  <path d="M31.5 118C31.9589 118 32.3281 118 32.6279 118.021C32.9323 118.041 33.2022 118.085 33.457 118.19C34.0693 118.444 34.5558 118.931 34.8096 119.543C34.9151 119.798 34.9587 120.068 34.9795 120.372C34.9999 120.672 35 121.041 35 121.5C35 121.959 34.9999 122.328 34.9795 122.628C34.9587 122.932 34.9151 123.202 34.8096 123.457C34.5558 124.069 34.0693 124.556 33.457 124.81C33.2022 124.915 32.9323 124.959 32.6279 124.979C32.3281 125 31.9589 125 31.5 125H25.5C25.0411 125 24.6719 125 24.3721 124.979C24.0677 124.959 23.7978 124.915 23.543 124.81C22.9307 124.556 22.4442 124.069 22.1904 123.457C22.0849 123.202 22.0413 122.932 22.0205 122.628C22.0001 122.328 22 121.959 22 121.5C22 121.041 22.0001 120.672 22.0205 120.372C22.0413 120.068 22.0849 119.798 22.1904 119.543C22.4442 118.931 22.9307 118.444 23.543 118.19C23.7978 118.085 24.0677 118.041 24.3721 118.021C24.6719 118 25.0411 118 25.5 118H31.5ZM25.5 119C25.0272 119 24.6974 119 24.4395 119.018C24.1862 119.035 24.0384 119.068 23.9258 119.114C23.5584 119.266 23.2665 119.558 23.1143 119.926C23.0676 120.038 23.0349 120.186 23.0176 120.439C23 120.697 23 121.027 23 121.5C23 121.973 23 122.303 23.0176 122.561C23.0349 122.814 23.0676 122.962 23.1143 123.074C23.2665 123.442 23.5584 123.734 23.9258 123.886C24.0384 123.932 24.1862 123.965 24.4395 123.982C24.6974 124 25.0272 124 25.5 124H31.5C31.9728 124 32.3026 124 32.5605 123.982C32.8138 123.965 32.9616 123.932 33.0742 123.886C33.4416 123.734 33.7335 123.442 33.8857 123.074C33.9324 122.962 33.9651 122.814 33.9824 122.561C34 122.303 34 121.973 34 121.5C34 121.027 34 120.697 33.9824 120.439C33.9651 120.186 33.9324 120.038 33.8857 119.926C33.7335 119.558 33.4416 119.266 33.0742 119.114C32.9616 119.068 32.8138 119.035 32.5605 119.018C32.3026 119 31.9728 119 31.5 119H25.5Z" fill="currentColor"/>
  <path d="M28.5 112C28.7761 112 29 112.224 29 112.5V116.293L31.1465 114.146C31.3417 113.951 31.6583 113.951 31.8535 114.146C32.0488 114.342 32.0488 114.658 31.8535 114.854L28.8535 117.854C28.7597 117.947 28.6326 118 28.5 118C28.3674 118 28.2403 117.947 28.1465 117.854L25.1465 114.854C24.9512 114.658 24.9512 114.342 25.1465 114.146C25.3417 113.951 25.6583 113.951 25.8535 114.146L28 116.293V112.5C28 112.224 28.2239 112 28.5 112Z" fill="currentColor"/>
</svg>
