<svg xmlns="http://www.w3.org/2000/svg" width="16" height="16" viewBox="20.5 111.0 16.0 16.0" fill="none">
  <path d="M28.5 123C29.3284 123 30 123.672 30 124.5C30 125.328 29.3284 126 28.5 126C27.6715 126 27 125.328 27 124.5C27 123.672 27.6715 123 28.5 123ZM28.5 124C28.2238 124 28 124.224 28 124.5C28 124.776 28.2238 125 28.5 125C28.7761 125 29 124.776 29 124.5C29 124.224 28.7761 124 28.5 124Z" fill="currentColor"/>
  <path d="M28.5 112C28.6326 112 28.7597 112.053 28.8535 112.146L32.8535 116.146C33.0487 116.342 33.0487 116.658 32.8535 116.854C32.6582 117.049 32.3417 117.049 32.1464 116.854L29 113.707V120.5C29 120.776 28.7761 121 28.5 121C28.2238 121 28 120.776 28 120.5V113.707L24.8535 116.854C24.6582 117.049 24.3417 117.049 24.1464 116.854C23.9512 116.658 23.9512 116.342 24.1464 116.146L28.1464 112.146L28.2226 112.084C28.3041 112.03 28.4005 112 28.5 112Z" fill="currentColor"/>
</svg>
