<svg xmlns="http://www.w3.org/2000/svg" width="16" height="16" viewBox="19.95 110.97 16.1 16.1" fill="none">
  <path d="M24.5156 112.001C24.5362 112.002 24.5567 112.004 24.5771 112.007C24.5907 112.009 24.604 112.011 24.6171 112.015C24.6341 112.019 24.6505 112.024 24.667 112.03C24.6781 112.034 24.6894 112.037 24.7002 112.042C24.716 112.049 24.7309 112.058 24.7461 112.066C24.7593 112.074 24.7727 112.081 24.7851 112.09C24.809 112.107 24.8321 112.125 24.8535 112.146L27.8535 115.146C28.0487 115.342 28.0487 115.658 27.8535 115.854C27.6582 116.049 27.3417 116.049 27.1464 115.854L25 113.707V125.5C25 125.776 24.7761 126 24.5 126C24.2238 126 24 125.776 24 125.5V113.707L21.8535 115.854C21.6582 116.049 21.3417 116.049 21.1464 115.854C20.9512 115.658 20.9512 115.342 21.1464 115.146L24.1464 112.146L24.2246 112.082C24.2499 112.065 24.2763 112.051 24.3037 112.039C24.3074 112.037 24.3116 112.037 24.3154 112.035C24.3406 112.025 24.3663 112.017 24.3925 112.012C24.4009 112.01 24.4094 112.009 24.4179 112.008C24.4406 112.004 24.4633 112.002 24.4863 112.001C24.4908 112.001 24.4954 112 24.5 112C24.5052 112 24.5104 112.001 24.5156 112.001Z" fill="currentColor"/>
  <path d="M31.5 112C31.7761 112 32 112.224 32 112.5V124.293L34.1464 122.146C34.3417 121.951 34.6582 121.951 34.8535 122.146C35.0487 122.342 35.0487 122.658 34.8535 122.854L31.8535 125.854C31.6826 126.024 31.4186 126.046 31.2246 125.918L31.1464 125.854L28.1464 122.854C27.9512 122.658 27.9512 122.342 28.1464 122.146C28.3417 121.951 28.6582 121.951 28.8535 122.146L31 124.293V112.5C31 112.224 31.2238 112 31.5 112Z" fill="currentColor"/>
</svg>
