<svg xmlns="http://www.w3.org/2000/svg" width="16" height="16" viewBox="20.0 111.5 16.0 16.0" fill="none">
  <path d="M30.501 122C30.7766 122 30.9998 122.224 31 122.5V125.5C30.9999 125.776 30.776 126 30.5 126H27.5C27.224 126 27.0001 125.776 27 125.5C27.0001 125.224 27.224 125 27.5 125H29.293L27.1465 122.854C26.9515 122.658 26.9513 122.342 27.1465 122.146C27.3417 121.951 27.6582 121.951 27.8535 122.146L30 124.293V122.5C30.0003 122.224 30.225 122 30.501 122Z" fill="currentColor"/>
  <path d="M23.5 117C24.8807 117 26 118.119 26 119.5C26 120.881 24.8807 122 23.5 122C22.1193 122 21 120.881 21 119.5C21 118.119 22.1193 117 23.5 117ZM23.5 118C22.6716 118 22 118.672 22 119.5C22 120.328 22.6716 121 23.5 121C24.3284 121 25 120.328 25 119.5C25 118.672 24.3284 118 23.5 118Z" fill="currentColor"/>
  <path d="M32.1465 117.146C32.3417 116.951 32.6583 116.951 32.8535 117.146L34.8535 119.146C34.8768 119.17 34.8977 119.195 34.916 119.223L34.9521 119.286C34.9538 119.29 34.9545 119.293 34.9561 119.297C34.9597 119.305 34.9626 119.314 34.9658 119.322C34.9729 119.341 34.9786 119.36 34.9834 119.379C34.9863 119.391 34.9891 119.402 34.9912 119.414C34.9962 119.442 35 119.471 35 119.5C35 119.614 34.9601 119.719 34.8955 119.803C34.8822 119.82 34.8692 119.838 34.8535 119.854L32.8535 121.854C32.6583 122.049 32.3417 122.049 32.1465 121.854C31.9512 121.658 31.9512 121.342 32.1465 121.146L33.293 120H28.5C28.2239 120 28 119.776 28 119.5C28 119.224 28.2239 119 28.5 119H33.293L32.1465 117.854C31.9512 117.658 31.9512 117.342 32.1465 117.146Z" fill="currentColor"/>
  <path d="M30.5 113C30.776 113 30.9999 113.224 31 113.5V116.5C30.9998 116.776 30.7766 117 30.501 117C30.225 117 30.0003 116.776 30 116.5V114.707L27.8535 116.854C27.6582 117.049 27.3417 117.049 27.1465 116.854C26.9513 116.658 26.9515 116.342 27.1465 116.146L29.293 114H27.5C27.224 114 27.0001 113.776 27 113.5C27.0001 113.224 27.224 113 27.5 113H30.5Z" fill="currentColor"/>
</svg>
