<svg xmlns="http://www.w3.org/2000/svg" width="16" height="16" viewBox="19.5 112.0 16.0 16.0" fill="none">
  <path d="M27.4998 113C27.776 113 27.9998 113.224 27.9998 113.5V119.129L33.2479 116.068C33.4864 115.929 33.7923 116.01 33.9315 116.248C34.0706 116.487 33.9902 116.792 33.7518 116.932L28.4911 119.999L33.7518 123.068C33.9902 123.208 34.0706 123.513 33.9315 123.752C33.7923 123.99 33.4864 124.071 33.2479 123.932L27.9998 120.87V126.5C27.9998 126.776 27.776 127 27.4998 127C27.2237 127 26.9998 126.776 26.9998 126.5V120.87L21.7518 123.932C21.5133 124.071 21.2074 123.99 21.0682 123.752C20.9292 123.513 21.0095 123.208 21.2479 123.068L26.5077 119.999L21.2479 116.932C21.0095 116.792 20.9291 116.487 21.0682 116.248C21.2074 116.01 21.5133 115.929 21.7518 116.068L26.9998 119.129V113.5C26.9998 113.224 27.2237 113 27.4998 113Z" fill="currentColor"/>
</svg>
