<svg xmlns="http://www.w3.org/2000/svg" width="16" height="16" viewBox="19.99 110.99 16.02 16.02" fill="none">
  <path d="M27.9999 112C29.6346 112 30.9626 113.307 30.998 114.934L31.0409 114.935C31.7522 114.939 32.3484 114.956 32.8368 115.024C33.5019 115.118 34.0557 115.319 34.4667 115.79C34.8777 116.261 35.002 116.837 35.0048 117.509C35.0075 118.166 34.8923 119.001 34.7499 120.043L34.704 120.38C34.537 121.603 34.4064 122.567 34.206 123.315C34.0019 124.077 33.7104 124.677 33.1835 125.137C32.6565 125.597 32.0225 125.804 31.2402 125.903C30.4717 126.001 29.4982 126 28.2636 126H27.7363C26.5017 126 25.5282 126.001 24.7597 125.903C23.9774 125.804 23.3434 125.597 22.8163 125.137C22.2894 124.677 21.9979 124.077 21.7939 123.315C21.5934 122.567 21.4629 121.603 21.2958 120.38L21.2499 120.043C21.1076 119.001 20.9924 118.166 20.995 117.509C20.9978 116.837 21.1221 116.261 21.5331 115.79C21.9441 115.319 22.498 115.118 23.163 115.024C23.661 114.954 24.271 114.937 25.0009 114.934C25.0362 113.307 26.3653 112 27.9999 112ZM25.9999 118.5C25.9999 118.776 25.7761 119 25.4999 119C25.2238 119 24.9999 118.776 24.9999 118.5V115.934L24.956 115.935C24.2595 115.939 23.7266 115.955 23.3027 116.015C22.7516 116.092 22.4727 116.233 22.2861 116.447C22.0995 116.661 21.9973 116.956 21.995 117.513C21.9927 118.083 22.0937 118.835 22.2402 119.907L22.287 120.244C22.4577 121.493 22.5794 122.384 22.7597 123.057C22.9363 123.716 23.1541 124.104 23.4745 124.384C23.7949 124.663 24.2088 124.825 24.8857 124.911C25.5768 124.999 26.4755 125 27.7363 125H28.2636C29.5243 125 30.4231 124.999 31.1142 124.911C31.791 124.825 32.2049 124.663 32.5253 124.384C32.8458 124.104 33.0635 123.716 33.2402 123.057C33.4204 122.384 33.5422 121.493 33.7128 120.244L33.7597 119.907C33.9061 118.835 34.0071 118.083 34.0048 117.513C34.0025 116.956 33.9003 116.661 33.7138 116.447C33.5271 116.233 33.2482 116.092 32.6972 116.015C32.2732 115.955 31.7403 115.939 31.0439 115.935L30.9999 115.934V118.5C30.9999 118.776 30.7761 119 30.4999 119C30.2238 119 29.9999 118.776 29.9999 118.5V115.934H25.9999V118.5ZM27.9999 113C26.9176 113 26.0389 113.86 26.0038 114.934H29.996C29.9609 113.86 29.0822 113 27.9999 113Z" fill="currentColor"/>
</svg>
