<svg xmlns="http://www.w3.org/2000/svg" width="16" height="16" viewBox="20.0 111.0 17.0 17.0" fill="none">
  <path d="M28.5 112C32.6421 112 36 115.358 36 119.5C36 123.642 32.6421 127 28.5 127C24.3579 127 21 123.642 21 119.5C21 115.358 24.3579 112 28.5 112ZM24.8218 124.238C25.8378 125.028 27.1133 125.5 28.5 125.5C31.8137 125.5 34.5 122.814 34.5 119.5C34.5 118.113 34.028 116.838 33.238 115.822L24.8218 124.238ZM28.5 113.5C25.1863 113.5 22.5 116.186 22.5 119.5C22.5 120.886 22.9717 122.162 23.7612 123.177L32.1775 114.761C31.1616 113.972 29.8863 113.5 28.5 113.5Z" fill="currentColor"/>
</svg>
