<svg xmlns="http://www.w3.org/2000/svg" width="16" height="16" viewBox="21.0 112.0 15.0 15.0" fill="none">
  <path d="M24.5 116C24.7761 116 25 116.224 25 116.5V122.5C25 122.776 24.7761 123 24.5 123C24.2239 123 24 122.776 24 122.5V116.5C24 116.224 24.2239 116 24.5 116Z" fill="currentColor"/>
  <path d="M26.5 122C26.7761 122 27 122.224 27 122.5C27 122.776 26.7761 123 26.5 123C26.2239 123 26 122.776 26 122.5C26 122.224 26.2239 122 26.5 122Z" fill="currentColor"/>
  <path d="M28.5 122C28.7761 122 29 122.224 29 122.5C29 122.776 28.7761 123 28.5 123C28.2239 123 28 122.776 28 122.5C28 122.224 28.2239 122 28.5 122Z" fill="currentColor"/>
  <path d="M30.5 122C30.7761 122 31 122.224 31 122.5C31 122.776 30.7761 123 30.5 123C30.2239 123 30 122.776 30 122.5C30 122.224 30.2239 122 30.5 122Z" fill="currentColor"/>
  <path d="M32.5 116C32.7761 116 33 116.224 33 116.5V122.5C33 122.776 32.7761 123 32.5 123C32.2239 123 32 122.776 32 122.5V116.5C32 116.224 32.2239 116 32.5 116Z" fill="currentColor"/>
  <path d="M26.5 116C26.7761 116 27 116.224 27 116.5V120.5C27 120.776 26.7761 121 26.5 121C26.2239 121 26 120.776 26 120.5V116.5C26 116.224 26.2239 116 26.5 116Z" fill="currentColor"/>
  <path d="M28.5 116C28.7761 116 29 116.224 29 116.5V120.5C29 120.776 28.7761 121 28.5 121C28.2239 121 28 120.776 28 120.5V116.5C28 116.224 28.2239 116 28.5 116Z" fill="currentColor"/>
  <path d="M30.5 116C30.7761 116 31 116.224 31 116.5V120.5C31 120.776 30.7761 121 30.5 121C30.2239 121 30 120.776 30 120.5V116.5C30 116.224 30.2239 116 30.5 116Z" fill="currentColor"/>
  <path d="M30.5 114C31.4285 114 32.1751 113.999 32.7607 114.078C33.3608 114.159 33.8663 114.331 34.2676 114.732C34.6689 115.134 34.8412 115.639 34.9219 116.239C35.0006 116.825 35 117.572 35 118.5V120.5C35 121.428 35.0006 122.175 34.9219 122.761C34.8412 123.361 34.6689 123.866 34.2676 124.268C33.8663 124.669 33.3608 124.841 32.7607 124.922C32.1751 125.001 31.4285 125 30.5 125H26.5C25.5715 125 24.8249 125.001 24.2393 124.922C23.6392 124.841 23.1337 124.669 22.7324 124.268C22.3311 123.866 22.1588 123.361 22.0781 122.761C21.9994 122.175 22 121.428 22 120.5V118.5C22 117.572 21.9994 116.825 22.0781 116.239C22.1588 115.639 22.3311 115.134 22.7324 114.732C23.1337 114.331 23.6392 114.159 24.2393 114.078C24.8249 113.999 25.5715 114 26.5 114H30.5ZM26.5 115C25.5431 115 24.8756 115.001 24.3721 115.068C23.8829 115.134 23.624 115.255 23.4395 115.439C23.2549 115.624 23.1341 115.883 23.0684 116.372C23.0007 116.876 23 117.543 23 118.5V120.5C23 121.457 23.0007 122.124 23.0684 122.628C23.1341 123.117 23.2549 123.376 23.4395 123.561C23.624 123.745 23.8829 123.866 24.3721 123.932C24.8756 123.999 25.5431 124 26.5 124H30.5C31.4569 124 32.1244 123.999 32.6279 123.932C33.1171 123.866 33.376 123.745 33.5605 123.561C33.7451 123.376 33.8659 123.117 33.9316 122.628C33.9993 122.124 34 121.457 34 120.5V118.5C34 117.543 33.9993 116.876 33.9316 116.372C33.8659 115.883 33.7451 115.624 33.5605 115.439C33.376 115.255 33.1171 115.134 32.6279 115.068C32.1244 115.001 31.4569 115 30.5 115H26.5Z" fill="currentColor"/>
</svg>
