<svg xmlns="http://www.w3.org/2000/svg" width="16" height="16" viewBox="20.0 111.0 16.0 16.0" fill="none">
  <path d="M30.5002 112C30.7763 112 31.0002 112.224 31.0002 112.5C31.0002 112.776 30.7763 113 30.5002 113H30.0002V116.353C30.0002 116.95 30.0051 117.153 30.0588 117.34C30.1125 117.527 30.2159 117.702 30.5324 118.208L32.0559 120.645C32.6811 121.645 33.1812 122.444 33.4631 123.09C33.746 123.738 33.8728 124.375 33.5432 124.97C33.2135 125.564 32.6061 125.795 31.9065 125.898C31.2092 126.002 30.2665 126 29.0871 126H26.9133C25.7339 126 24.7912 126.002 24.094 125.898C23.3942 125.795 22.7869 125.564 22.4572 124.97C22.1276 124.375 22.2544 123.738 22.5373 123.09C22.8193 122.444 23.3193 121.645 23.9445 120.645L25.468 118.208C25.7845 117.702 25.8879 117.527 25.9416 117.34C25.9953 117.153 26.0002 116.95 26.0002 116.353V113H25.5002C25.2241 113 25.0002 112.776 25.0002 112.5C25.0002 112.224 25.2241 112 25.5002 112H30.5002ZM24.9026 121L24.7932 121.175C24.15 122.204 23.6985 122.928 23.4533 123.49C23.2095 124.049 23.2337 124.306 23.3322 124.484C23.4309 124.662 23.6366 124.82 24.2404 124.909C24.8469 124.999 25.7 125 26.9133 125H29.0871C30.3004 125 31.1536 124.999 31.76 124.909C32.3638 124.82 32.5695 124.662 32.6682 124.484C32.7667 124.306 32.7909 124.049 32.5471 123.49C32.3019 122.928 31.8504 122.204 31.2072 121.175L31.0979 121H24.9026ZM27.0002 116.353C27.0002 116.895 27.0047 117.262 26.9035 117.615C26.8022 117.969 26.604 118.278 26.3166 118.738L25.5276 120H30.4729L29.6838 118.738C29.3964 118.278 29.1982 117.969 29.0969 117.615C28.9957 117.262 29.0002 116.895 29.0002 116.353V113H27.0002V116.353Z" fill="currentColor"/>
</svg>
