<svg xmlns="http://www.w3.org/2000/svg" width="16" height="16" viewBox="20.0 111.0 16.0 16.0" fill="none">
  <path d="M28.001 112C31.3141 112 34 114.686 34 117.999V120.727L34.5781 121.351C34.8485 121.642 35 122.024 35 122.423C35 123.294 34.2938 124 33.4229 124H30.4502C30.2186 125.141 29.2095 126 28 126C26.7905 126 25.7814 125.141 25.5498 124H22.5771C21.7062 124 21 123.294 21 122.423C21 122.024 21.1515 121.642 21.4219 121.351L22.002 120.725V117.999C22.002 114.686 24.6878 112 28.001 112ZM26.5869 124C26.793 124.582 27.3471 125 28 125C28.6529 125 29.207 124.582 29.4131 124H26.5869ZM28.001 113C25.2401 113 23.002 115.238 23.002 117.999V120.921C23.002 121.047 22.9539 121.168 22.8682 121.261L22.1543 122.03C22.0548 122.137 22 122.278 22 122.423C22 122.742 22.2585 123 22.5771 123H33.4229C33.7415 123 34 122.742 34 122.423C34 122.278 33.9452 122.137 33.8457 122.03L33.1338 121.263C33.048 121.17 33 121.049 33 120.923V117.999C33 115.324 30.8993 113.141 28.2578 113.007L28.001 113Z" fill="currentColor"/>
</svg>
