<svg xmlns="http://www.w3.org/2000/svg" width="16" height="16" viewBox="20.0 110.0 16.0 16.0" fill="none">
  <path d="M27 114C29.2091 114 31 115.791 31 118C31 120.209 29.2091 122 27 122C24.7909 122 23 120.209 23 118C23 115.791 24.7909 114 27 114ZM27 115C25.3431 115 24 116.343 24 118C24 119.657 25.3431 121 27 121C28.6569 121 30 119.657 30 118C30 116.343 28.6569 115 27 115Z" fill="currentColor"/>
  <path d="M27 112C29.2205 112 31.1578 113.207 32.1953 115H34C34.5523 115 35 115.448 35 116V120C35 120.552 34.5523 121 34 121H32.1953C31.1578 122.793 29.2205 124 27 124C23.6863 124 21 121.314 21 118C21 114.686 23.6863 112 27 112ZM27 113C24.2386 113 22 115.239 22 118C22 120.761 24.2386 123 27 123C29.7614 123 32 120.761 32 118C32 115.239 29.7614 113 27 113Z" fill="currentColor"/>
</svg>
