<svg xmlns="http://www.w3.org/2000/svg" width="16" height="16" viewBox="20.0 111.0 16.0 16.0" fill="none">
  <path d="M31.1914 112C32.247 112 33.1524 112.754 33.3447 113.792L34.9365 122.387C34.9777 122.585 35 122.79 35 123C35 124.657 33.6569 126 32 126C30.3431 126 29 124.657 29 123V122C29 121.76 28.9993 121.606 28.9912 121.487C28.9834 121.373 28.9705 121.329 28.9619 121.309C28.9112 121.186 28.8139 121.089 28.6914 121.038C28.6706 121.029 28.6267 121.017 28.5127 121.009C28.3943 121.001 28.2395 121 28 121C27.7605 121 27.6057 121.001 27.4873 121.009C27.3733 121.017 27.3294 121.029 27.3086 121.038C27.1861 121.089 27.0888 121.186 27.0381 121.309C27.0295 121.329 27.0166 121.373 27.0088 121.487C27.0021 121.585 27.0004 121.707 27 121.882V123C27 124.657 25.6569 126 24 126C22.3431 126 21 124.657 21 123C21 122.79 21.0214 122.585 21.0625 122.387L22.6553 113.792C22.8476 112.754 23.7528 112 24.8086 112C26.0183 112 26.9999 112.981 27 114.19V115C27 115.24 27.0007 115.394 27.0088 115.513C27.0166 115.627 27.0295 115.671 27.0381 115.691C27.0888 115.814 27.1861 115.911 27.3086 115.962C27.3294 115.971 27.3733 115.983 27.4873 115.991C27.6057 115.999 27.7605 116 28 116C28.2395 116 28.3943 115.999 28.5127 115.991C28.6267 115.983 28.6706 115.971 28.6914 115.962C28.8139 115.911 28.9112 115.814 28.9619 115.691C28.9705 115.671 28.9834 115.627 28.9912 115.513C28.9993 115.394 29 115.24 29 115V114.19C29.0001 112.981 29.9816 112 31.1914 112ZM24 121C22.8954 121 22 121.895 22 123C22 124.105 22.8954 125 24 125C25.1046 125 26 124.105 26 123C26 121.895 25.1046 121 24 121ZM32 121C30.8954 121 30 121.895 30 123C30 124.105 30.8954 125 32 125C33.1046 125 34 124.105 34 123C34 121.895 33.1046 121 32 121ZM24.8662 115C24.3803 115 23.9929 115.139 23.7266 115.277C23.5934 115.347 23.4923 115.415 23.4268 115.464C23.3942 115.488 23.3703 115.507 23.3564 115.519C23.3547 115.52 23.3506 115.521 23.3506 115.521L22.4395 120.44C22.8944 120.162 23.4278 120 24 120C24.7692 120 25.469 120.292 26 120.768V115.632C25.9974 115.628 25.995 115.623 25.9922 115.619C25.9463 115.55 25.8746 115.456 25.7764 115.362C25.5831 115.178 25.2918 115 24.8662 115ZM31.1338 115C30.7082 115 30.4169 115.178 30.2236 115.362C30.1254 115.456 30.0537 115.55 30.0078 115.619C30.005 115.623 30.0026 115.628 30 115.632V120.768C30.531 120.292 31.2308 120 32 120C32.5719 120 33.1048 120.163 33.5596 120.44L32.6475 115.521L32.6436 115.519C32.6297 115.507 32.6058 115.488 32.5732 115.464C32.5077 115.415 32.4066 115.347 32.2734 115.277C32.0071 115.139 31.6197 115 31.1338 115ZM28 117C27.7605 117 27.6057 117.001 27.4873 117.009C27.3733 117.017 27.3294 117.029 27.3086 117.038C27.1861 117.089 27.0888 117.186 27.0381 117.309C27.0295 117.329 27.0166 117.373 27.0088 117.487C27.0007 117.606 27 117.76 27 118V119C27 119.24 27.0007 119.394 27.0088 119.513C27.0166 119.627 27.0295 119.671 27.0381 119.691C27.0888 119.814 27.1861 119.911 27.3086 119.962C27.3294 119.971 27.3733 119.983 27.4873 119.991C27.6057 119.999 27.7605 120 28 120C28.2395 120 28.3943 119.999 28.5127 119.991C28.6267 119.983 28.6706 119.971 28.6914 119.962C28.8139 119.911 28.9112 119.814 28.9619 119.691C28.9705 119.671 28.9834 119.627 28.9912 119.513C28.9993 119.394 29 119.24 29 119V118C29 117.76 28.9993 117.606 28.9912 117.487C28.9834 117.373 28.9705 117.329 28.9619 117.309C28.9112 117.186 28.8139 117.089 28.6914 117.038C28.6706 117.029 28.6267 117.017 28.5127 117.009C28.3943 117.001 28.2395 117 28 117ZM31.1914 113C30.5339 113 30.0001 113.533 30 114.19V114.291C30.2989 114.122 30.6756 114 31.1338 114C31.6381 114 32.0685 114.106 32.4102 114.241L32.3613 113.974C32.2568 113.41 31.7649 113 31.1914 113ZM24.8086 113C24.2349 113 23.7433 113.41 23.6387 113.974L23.5889 114.241C23.9306 114.106 24.3615 114 24.8662 114C25.3244 114 25.7011 114.122 26 114.291V114.19C25.9999 113.533 25.466 113 24.8086 113Z" fill="currentColor"/>
</svg>
