<svg xmlns="http://www.w3.org/2000/svg" width="16" height="16" viewBox="20.0 111.99 17.07 17.07" fill="none">
  <path d="M28.4023 118.138C28.8214 117.93 29.3141 117.93 29.7334 118.137C29.9721 118.255 30.177 118.468 30.4209 118.711L35.2803 123.557C35.5249 123.801 35.7395 124.005 35.8584 124.244C36.0669 124.664 36.0673 125.157 35.8594 125.577C35.7409 125.816 35.5274 126.021 35.2832 126.266C35.0396 126.509 34.8344 126.722 34.5957 126.841C34.1767 127.049 33.685 127.049 33.2656 126.842C33.0268 126.724 32.8221 126.511 32.5781 126.268L28.6748 122.377C28.6656 122.369 28.6552 122.362 28.6465 122.354C28.6377 122.345 28.631 122.334 28.623 122.325L27.7178 121.423C27.4732 121.179 27.2596 120.974 27.1406 120.735C26.932 120.316 26.9316 119.822 27.1396 119.401C27.2582 119.162 27.4716 118.957 27.7158 118.713C27.9593 118.469 28.1638 118.256 28.4023 118.138ZM29.71 121.996L33.2842 125.56C33.5845 125.859 33.6531 125.918 33.708 125.945C33.8477 126.014 34.0118 126.014 34.1514 125.945C34.2062 125.918 34.2753 125.858 34.5752 125.559C34.8764 125.257 34.9366 125.189 34.9639 125.134C35.0331 124.994 35.0322 124.829 34.9629 124.689C34.9356 124.634 34.8761 124.566 34.5742 124.265L31.002 120.704L29.71 121.996ZM29.291 119.033C29.1513 118.964 28.9863 118.964 28.8467 119.033C28.7918 119.06 28.7231 119.121 28.4229 119.421C28.1219 119.722 28.0624 119.791 28.0352 119.846C27.966 119.986 27.9666 120.15 28.0361 120.29C28.0636 120.345 28.1231 120.414 28.4238 120.714L29.002 121.29L30.2939 119.998L29.7148 119.42C29.4147 119.121 29.3459 119.06 29.291 119.033Z" fill="currentColor"/>
  <path d="M24.5 122C25.3284 122 26 122.672 26 123.5C26 124.328 25.3284 125 24.5 125H22.5C21.6716 125 21 124.328 21 123.5C21 122.672 21.6716 122 22.5 122H24.5ZM22.5 123C22.2239 123 22 123.224 22 123.5C22 123.776 22.2239 124 22.5 124H24.5C24.7761 124 25 123.776 25 123.5C25 123.224 24.7761 123 24.5 123H22.5Z" fill="currentColor"/>
  <path d="M24.5 118C25.3284 118 26 118.672 26 119.5C26 120.328 25.3284 121 24.5 121H22.5C21.6716 121 21 120.328 21 119.5C21 118.672 21.6716 118 22.5 118H24.5ZM22.5 119C22.2239 119 22 119.224 22 119.5C22 119.776 22.2239 120 22.5 120H24.5C24.7761 120 25 119.776 25 119.5C25 119.224 24.7761 119 24.5 119H22.5Z" fill="currentColor"/>
  <path d="M24.5 114C25.3284 114 26 114.672 26 115.5C26 116.328 25.3284 117 24.5 117H22.5C21.6716 117 21 116.328 21 115.5C21 114.672 21.6716 114 22.5 114H24.5ZM22.5 115C22.2239 115 22 115.224 22 115.5C22 115.776 22.2239 116 22.5 116H24.5C24.7761 116 25 115.776 25 115.5C25 115.224 24.7761 115 24.5 115H22.5Z" fill="currentColor"/>
  <path d="M30.5 114C31.3284 114 32 114.672 32 115.5C32 116.328 31.3284 117 30.5 117H28.5C27.6716 117 27 116.328 27 115.5C27 114.672 27.6716 114 28.5 114H30.5ZM28.5 115C28.2239 115 28 115.224 28 115.5C28 115.776 28.2239 116 28.5 116H30.5C30.7761 116 31 115.776 31 115.5C31 115.224 30.7761 115 30.5 115H28.5Z" fill="currentColor"/>
</svg>
