<svg xmlns="http://www.w3.org/2000/svg" width="16" height="16" viewBox="21.0 111.0 14.01 14.01" fill="none">
  <path d="M24.4999 112C24.9327 112 25.2472 111.996 25.5175 112.068C26.2077 112.253 26.7466 112.792 26.9316 113.482C27.004 113.753 26.9999 114.067 26.9999 114.5V121.5C26.9999 121.933 27.004 122.247 26.9316 122.518C26.7466 123.208 26.2077 123.747 25.5175 123.932C25.2471 124.004 24.9327 124 24.4999 124C24.0671 124 23.7527 124.004 23.4823 123.932C22.7922 123.747 22.2532 123.208 22.0683 122.518C21.9959 122.247 21.9999 121.933 21.9999 121.5V114.5C21.9999 114.067 21.9958 113.753 22.0683 113.482C22.2532 112.792 22.7922 112.253 23.4823 112.068C23.7527 111.996 24.0671 112 24.4999 112ZM24.4999 113C24.0028 113 23.8523 113.004 23.7411 113.034C23.3961 113.127 23.1266 113.396 23.0341 113.741C23.0043 113.852 22.9999 114.003 22.9999 114.5V121.5C22.9999 121.997 23.0043 122.148 23.0341 122.259C23.1266 122.604 23.3961 122.873 23.7411 122.966C23.8523 122.996 24.0028 123 24.4999 123C24.9971 123 25.1476 122.996 25.2587 122.966C25.6038 122.873 25.8733 122.604 25.9657 122.259C25.9955 122.148 25.9999 121.997 25.9999 121.5V114.5C25.9999 114.003 25.9955 113.852 25.9657 113.741C25.8733 113.396 25.6038 113.127 25.2587 113.034C25.1476 113.004 24.997 113 24.4999 113Z" fill="currentColor"/>
  <path d="M31.4999 112C31.9327 112 32.2472 111.996 32.5175 112.068C33.2077 112.253 33.7466 112.792 33.9316 113.482C34.004 113.753 33.9999 114.067 33.9999 114.5V121.5C33.9999 121.933 34.004 122.247 33.9316 122.518C33.7466 123.208 33.2077 123.747 32.5175 123.932C32.2471 124.004 31.9327 124 31.4999 124C31.0671 124 30.7527 124.004 30.4823 123.932C29.7922 123.747 29.2532 123.208 29.0683 122.518C28.9959 122.247 28.9999 121.933 28.9999 121.5V114.5C28.9999 114.067 28.9958 113.753 29.0683 113.482C29.2532 112.792 29.7922 112.253 30.4823 112.068C30.7527 111.996 31.0671 112 31.4999 112ZM31.4999 113C31.0028 113 30.8523 113.004 30.7411 113.034C30.3961 113.127 30.1266 113.396 30.0341 113.741C30.0043 113.852 29.9999 114.003 29.9999 114.5V121.5C29.9999 121.997 30.0043 122.148 30.0341 122.259C30.1266 122.604 30.3961 122.873 30.7411 122.966C30.8523 122.996 31.0028 123 31.4999 123C31.9971 123 32.1476 122.996 32.2587 122.966C32.6038 122.873 32.8733 122.604 32.9657 122.259C32.9955 122.148 32.9999 121.997 32.9999 121.5V114.5C32.9999 114.003 32.9955 113.852 32.9657 113.741C32.8733 113.396 32.6038 113.127 32.2587 113.034C32.1476 113.004 31.997 113 31.4999 113Z" fill="currentColor"/>
</svg>
