<svg xmlns="http://www.w3.org/2000/svg" width="16" height="16" viewBox="19.94 111.0 16.11 16.11" fill="none">
  <path d="M28.1582 121.645C28.5163 121.678 28.8074 121.846 29.0781 122.064C29.34 122.276 29.6314 122.576 29.9785 122.933C30.7565 123.732 31.3061 124.296 31.7432 124.645C32.1972 125.007 32.3845 125.016 32.4717 124.994C32.5342 124.978 32.5945 124.954 32.6504 124.922C32.7283 124.877 32.8559 124.739 32.9287 124.163C32.9988 123.608 33 122.821 33 121.705V117.3C33 116.155 32.9993 115.346 32.917 114.733C32.8366 114.135 32.6864 113.8 32.4434 113.557C32.2003 113.314 31.8647 113.163 31.2666 113.083C30.6542 113.001 29.8454 113 28.7002 113H27.2998C26.1546 113 25.3458 113.001 24.7334 113.083C24.1353 113.163 23.7997 113.314 23.5566 113.557C23.3136 113.8 23.1634 114.135 23.083 114.733C23.0007 115.346 23 116.155 23 117.3V121.705C23 122.821 23.0012 123.608 23.0713 124.163C23.1441 124.739 23.2717 124.877 23.3496 124.922C23.4055 124.954 23.4658 124.978 23.5283 124.994C23.6155 125.016 23.8028 125.007 24.2568 124.645C24.6939 124.296 25.2435 123.732 26.0215 122.933C26.3686 122.576 26.66 122.276 26.9219 122.064C27.1926 121.846 27.4837 121.678 27.8418 121.645C27.9469 121.635 28.0531 121.635 28.1582 121.645ZM34 121.705C34 122.791 34.0008 123.655 33.9209 124.288C33.8438 124.899 33.6722 125.486 33.1504 125.787C33.0147 125.865 32.8687 125.925 32.7168 125.964C32.1327 126.111 31.6004 125.811 31.1191 125.427C30.6208 125.029 30.019 124.409 29.2617 123.631C28.8972 123.256 28.6542 123.008 28.4502 122.843C28.2551 122.685 28.1475 122.648 28.0654 122.641C28.0221 122.637 27.9779 122.637 27.9346 122.641C27.8526 122.648 27.7449 122.685 27.5498 122.843C27.3458 123.008 27.1028 123.256 26.7383 123.631C25.981 124.409 25.3792 125.029 24.8809 125.427C24.3996 125.811 23.8673 126.111 23.2832 125.964C23.1313 125.925 22.9853 125.865 22.8496 125.787C22.3278 125.486 22.1562 124.899 22.0791 124.288C21.9992 123.655 22 122.791 22 121.705V117.3C22 116.183 21.9994 115.294 22.0928 114.6C22.1881 113.891 22.3898 113.309 22.8496 112.85C23.3094 112.39 23.8908 112.188 24.5996 112.093C25.2942 111.999 26.1827 112 27.2998 112H28.7002C29.8173 112 30.7058 111.999 31.4004 112.093C32.1092 112.188 32.6906 112.39 33.1504 112.85C33.6102 113.309 33.8119 113.891 33.9072 114.6C34.0006 115.294 34 116.183 34 117.3V121.705Z" fill="currentColor"/>
</svg>
