<svg xmlns="http://www.w3.org/2000/svg" width="16" height="16" viewBox="20.0 111.0 16.0 16.0" fill="none">
  <path d="M30.5 117C30.7761 117 31 117.224 31 117.5C31 117.776 30.7761 118 30.5 118H27.5C27.2239 118 27 117.776 27 117.5C27 117.224 27.2239 117 27.5 117H30.5Z" fill="currentColor"/>
  <path d="M31.5 115C31.7761 115 32 115.224 32 115.5C32 115.776 31.7761 116 31.5 116H26.5C26.2239 116 26 115.776 26 115.5C26 115.224 26.2239 115 26.5 115H31.5Z" fill="currentColor"/>
  <path d="M29.5 112C30.4285 112 31.1751 111.999 31.7607 112.078C32.3608 112.159 32.8663 112.331 33.2676 112.732C33.6689 113.134 33.8412 113.639 33.9219 114.239C34.0006 114.825 34 115.572 34 116.5V122.309L33.9961 122.31C33.9911 122.875 33.9762 123.356 33.9219 123.761C33.8412 124.361 33.6689 124.866 33.2676 125.268C32.8663 125.669 32.3608 125.841 31.7607 125.922C31.1751 126.001 30.4285 126 29.5 126H24C22.8954 126 22 125.105 22 124V116.5C22 115.572 21.9994 114.825 22.0781 114.239C22.1588 113.639 22.3311 113.134 22.7324 112.732C23.1337 112.331 23.6392 112.159 24.2393 112.078C24.8249 111.999 25.5715 112 26.5 112H29.5ZM32.8887 122.579C32.5407 122.811 32.1469 122.909 31.6934 122.955C31.2481 123 30.6917 123 30 123H24C23.4477 123 23 123.448 23 124C23 124.552 23.4477 125 24 125H29.5C30.4569 125 31.1244 124.999 31.6279 124.932C32.1171 124.866 32.376 124.745 32.5605 124.561C32.7451 124.376 32.8659 124.117 32.9316 123.628C32.9728 123.322 32.9855 122.956 32.9922 122.501C32.9577 122.527 32.9245 122.555 32.8887 122.579ZM24 113.141C23.7387 113.21 23.5703 113.309 23.4395 113.439C23.2549 113.624 23.1341 113.883 23.0684 114.372C23.0007 114.876 23 115.543 23 116.5V122.27C23.2944 122.099 23.6354 122 24 122V113.141ZM26.5 113C25.8948 113 25.4054 113.002 25 113.02V122H30C30.7126 122 31.2098 121.999 31.5928 121.96C31.9671 121.922 32.1767 121.851 32.333 121.747C32.4968 121.638 32.6376 121.497 32.7471 121.333C32.8515 121.177 32.9219 120.967 32.96 120.593C32.9989 120.21 33 119.713 33 119V116.5C33 115.543 32.9993 114.876 32.9316 114.372C32.8659 113.883 32.7451 113.624 32.5605 113.439C32.376 113.255 32.1171 113.134 31.6279 113.068C31.1244 113.001 30.4569 113 29.5 113H26.5Z" fill="currentColor"/>
</svg>
