<svg xmlns="http://www.w3.org/2000/svg" width="16" height="16" viewBox="20.98 111.5 15.03 15.03" fill="none">
  <path d="M31.4998 113C32.5386 113 33.3232 113.243 33.8983 113.526C34.2293 113.69 34.5364 113.829 34.7733 114.21C35.0151 114.599 34.9998 115.018 34.9998 115.479V123.478C34.9998 123.674 35.0009 123.871 34.9813 124.024C34.9635 124.164 34.9111 124.442 34.6492 124.606C34.3769 124.778 34.0866 124.689 33.9608 124.646C33.8072 124.593 33.6179 124.501 33.4207 124.406C32.9761 124.193 32.3524 124 31.4998 124C29.9997 124 29.1915 124.595 28.8065 124.895C28.626 125.035 28.3736 125.035 28.1932 124.895C27.8081 124.595 27 124 25.4998 124C24.6472 124 24.0235 124.193 23.5789 124.406C23.3817 124.501 23.1925 124.593 23.0389 124.646C22.9129 124.689 22.6227 124.778 22.3504 124.606C22.0886 124.442 22.0361 124.164 22.0184 124.024C21.9988 123.871 21.9998 123.674 21.9998 123.478V115.479C21.9998 115.018 21.9846 114.599 22.2264 114.21C22.4632 113.829 22.7704 113.69 23.1014 113.526C23.6764 113.243 24.461 113 25.4998 113C26.9902 113 27.9446 113.5 28.4998 113.882C29.055 113.5 30.0094 113 31.4998 113ZM25.4998 114C24.625 114 23.9909 114.202 23.5438 114.423C23.1804 114.602 23.1397 114.634 23.075 114.738C23.0155 114.834 22.9998 114.924 22.9998 115.479V123.572C23.044 123.551 23.0934 123.529 23.1463 123.504C23.7174 123.23 24.4884 123 25.4998 123C26.6132 123 27.4277 123.279 27.9998 123.579V114.75C27.5612 114.437 26.7843 114 25.4998 114ZM31.4998 114C30.2148 114 29.4383 114.438 28.9998 114.751V123.579C29.5719 123.279 30.3864 123 31.4998 123C32.5113 123 33.2822 123.23 33.8533 123.504C33.9059 123.529 33.9549 123.551 33.9988 123.572C33.9989 123.543 33.9998 123.511 33.9998 123.478V115.479C33.9998 114.924 33.9842 114.834 33.9246 114.738C33.86 114.634 33.8193 114.602 33.4559 114.423C33.0088 114.202 32.3747 114 31.4998 114Z" fill="currentColor"/>
</svg>
