<svg xmlns="http://www.w3.org/2000/svg" width="16" height="16" viewBox="19.95 110.95 16.1 16.1" fill="none">
  <path d="M26.5 115C26.7761 115 27 115.224 27 115.5V116.5C27 116.776 26.7761 117 26.5 117H25.5C25.2238 117 25 116.776 25 116.5V115.5C25 115.224 25.2238 115 25.5 115H26.5Z" fill="currentColor"/>
  <path d="M34.1464 112.146C34.3417 111.951 34.6582 111.951 34.8535 112.146C35.0487 112.342 35.0487 112.658 34.8535 112.854L21.8535 125.854C21.6582 126.049 21.3417 126.049 21.1464 125.854C20.9512 125.658 20.9512 125.342 21.1464 125.146L22.0361 124.256C22.0141 124.134 22 124.01 22 123.882C22 123.562 22.0735 123.176 22.3466 122.862C22.7267 122.426 23.4931 121.793 24.9033 121.389L26.2939 119.998C25.6931 119.998 25.1912 119.995 24.7871 119.94C24.3234 119.878 23.9138 119.742 23.5859 119.414C23.3137 119.142 23.175 118.813 23.0996 118.444C22.4658 118.269 22 117.69 22 117V116C22 115.31 22.4656 114.73 23.0996 114.555C23.175 114.186 23.3139 113.858 23.5859 113.586C23.9139 113.258 24.3233 113.122 24.7871 113.06C25.2366 112.999 25.807 113 26.5 113H27.5V112.5C27.5 112.224 27.7239 112 28 112C28.276 112 28.4999 112.224 28.5 112.5V113H29.5C30.1929 113 30.7633 112.999 31.2129 113.06C31.6766 113.122 32.0861 113.258 32.414 113.586C32.464 113.636 32.5086 113.688 32.5498 113.742L34.1464 112.146ZM26.5 114C25.7788 114 25.2882 114.001 24.9209 114.051C24.5679 114.098 24.4042 114.182 24.2929 114.293C24.1817 114.404 24.0982 114.568 24.0507 114.921C24.0014 115.288 24 115.779 24 116.5C24 117.221 24.0014 117.712 24.0507 118.079C24.0982 118.432 24.1817 118.596 24.2929 118.707C24.4042 118.818 24.5679 118.902 24.9209 118.949C25.2882 118.999 25.7788 119 26.5 119H27.2929L29.3252 116.967C29.1355 116.896 29 116.714 29 116.5V115.5C29 115.224 29.2238 115 29.5 115H30.5C30.7144 115 30.8957 115.136 30.9668 115.325L31.8252 114.467C31.7895 114.394 31.7524 114.338 31.707 114.293C31.5957 114.182 31.4321 114.098 31.0791 114.051C30.7117 114.001 30.2211 114 29.5 114H26.5Z" fill="currentColor"/>
  <path d="M28.4638 121.01C31.6439 121.108 33.0831 122.208 33.6533 122.862C33.9264 123.176 33.9999 123.562 34 123.882C34 125.052 33.0515 126 31.8818 126H24.1181C23.9221 126 23.7329 125.971 23.5527 125.921L24.4746 125H31.8818C32.4992 125 33 124.499 33 123.882C32.9999 123.699 32.9562 123.585 32.8994 123.52C32.5176 123.082 31.2577 122 28 122C27.8145 122 27.6355 122.004 27.4629 122.011L28.4638 121.01Z" fill="currentColor"/>
  <path d="M33.9287 115.545C33.9744 115.688 34 115.841 34 116V117C34 117.69 33.5336 118.269 32.8994 118.444C32.824 118.813 32.6861 119.142 32.414 119.414C32.0861 119.742 31.6766 119.878 31.2129 119.94C30.7633 120.001 30.1929 120 29.5 120H29.4746L30.4834 118.99C30.7149 118.983 30.9101 118.972 31.0791 118.949C31.432 118.902 31.5957 118.818 31.707 118.707C31.8183 118.596 31.9017 118.432 31.9492 118.079C31.9719 117.91 31.9833 117.715 31.9902 117.483L33.9287 115.545Z" fill="currentColor"/>
</svg>
