<svg xmlns="http://www.w3.org/2000/svg" width="16" height="16" viewBox="18.5 111.0 17.0 17.0" fill="none">
  <path d="M23.502 120C23.6978 120 23.876 120.115 23.957 120.293C24.2775 120.998 24.4135 121.293 24.5918 121.548C24.8268 121.884 25.1189 122.176 25.4551 122.411C25.7101 122.589 26.0049 122.725 26.71 123.046C26.8884 123.127 27.0029 123.306 27.0029 123.502C27.0027 123.698 26.8883 123.876 26.71 123.957C26.0049 124.278 25.7101 124.414 25.4551 124.592C25.1189 124.827 24.8268 125.119 24.5918 125.455C24.4135 125.71 24.2775 126.005 23.957 126.71C23.876 126.888 23.6978 127.003 23.502 127.003C23.3059 127.003 23.127 126.888 23.0459 126.71C22.7254 126.005 22.5894 125.71 22.4111 125.455C22.1762 125.119 21.884 124.827 21.5479 124.592C21.2928 124.414 20.998 124.278 20.293 123.957C20.1146 123.876 20.0002 123.698 20 123.502C20 123.306 20.1145 123.127 20.293 123.046C20.998 122.725 21.2928 122.589 21.5479 122.411C21.884 122.176 22.1762 121.884 22.4111 121.548C22.5894 121.293 22.7254 120.998 23.0459 120.293L23.0811 120.229C23.1721 120.088 23.3303 120 23.502 120ZM23.501 121.664C23.4123 121.833 23.3288 121.982 23.2314 122.121C22.9293 122.553 22.5534 122.929 22.1211 123.231C21.9818 123.329 21.8331 123.412 21.6641 123.501C21.8332 123.59 21.9817 123.674 22.1211 123.771C22.5534 124.074 22.9293 124.45 23.2314 124.882C23.3287 125.021 23.4125 125.169 23.501 125.338C23.5896 125.169 23.6742 125.021 23.7715 124.882C24.0736 124.45 24.4496 124.074 24.8818 123.771C25.0211 123.674 25.169 123.59 25.3379 123.501C25.1692 123.412 25.0209 123.329 24.8818 123.231C24.4496 122.929 24.0736 122.553 23.7715 122.121C23.674 121.982 23.5897 121.833 23.501 121.664Z" fill="currentColor"/>
  <path d="M28 121C31.5056 121 33.0561 122.177 33.6533 122.862C33.9265 123.176 34 123.562 34 123.882C34 125.052 33.0515 126 31.8818 126H25.4326C25.5969 125.772 25.7979 125.572 26.0283 125.411C26.1668 125.314 26.3302 125.233 26.8379 125H31.8818C32.4993 125 33 124.499 33 123.882C33 123.699 32.9563 123.585 32.8994 123.52C32.5176 123.082 31.2578 122 28 122C27.6142 122 27.2564 122.015 26.9248 122.043C26.3481 121.779 26.1744 121.694 26.0283 121.592C25.874 121.484 25.7344 121.357 25.6084 121.218C26.281 121.084 27.0719 121 28 121Z" fill="currentColor"/>
  <path d="M26.5 115C26.7761 115 27 115.224 27 115.5V116.5C27 116.776 26.7761 117 26.5 117H25.5C25.2239 117 25 116.776 25 116.5V115.5C25 115.224 25.2239 115 25.5 115H26.5Z" fill="currentColor"/>
  <path d="M30.5 115C30.7761 115 31 115.224 31 115.5V116.5C31 116.776 30.7761 117 30.5 117H29.5C29.2239 117 29 116.776 29 116.5V115.5C29 115.224 29.2239 115 29.5 115H30.5Z" fill="currentColor"/>
  <path d="M28 112C28.2761 112 28.4999 112.224 28.5 112.5V113H29.5C30.193 113 30.7634 112.999 31.2129 113.06C31.6767 113.122 32.0861 113.258 32.4141 113.586C32.686 113.858 32.824 114.186 32.8994 114.555C33.5338 114.73 34 115.31 34 116V117C34 117.69 33.5337 118.269 32.8994 118.444C32.824 118.813 32.6862 119.142 32.4141 119.414C32.0861 119.742 31.6766 119.878 31.2129 119.94C30.7634 120.001 30.1929 120 29.5 120H26.5C25.8638 120 25.3313 119.998 24.9004 119.951L24.8672 119.879L24.8184 119.781C24.5741 119.334 24.1189 119.041 23.6123 119.004L23.5029 119C23.4327 119 23.3623 119.005 23.2939 119.015C23.2022 118.839 23.1412 118.648 23.0996 118.444C22.4658 118.269 22 117.69 22 117V116C22.0001 115.31 22.4657 114.73 23.0996 114.555C23.175 114.186 23.314 113.858 23.5859 113.586C23.9139 113.258 24.3234 113.122 24.7871 113.06C25.2366 112.999 25.807 113 26.5 113H27.5V112.5C27.5001 112.224 27.7239 112 28 112ZM26.5 114C25.7789 114 25.2883 114.001 24.9209 114.051C24.5679 114.098 24.4042 114.182 24.293 114.293C24.1817 114.404 24.0982 114.568 24.0508 114.921C24.0014 115.288 24 115.779 24 116.5C24 117.221 24.0014 117.712 24.0508 118.079C24.0982 118.432 24.1817 118.596 24.293 118.707C24.4043 118.818 24.5679 118.902 24.9209 118.949C25.2883 118.999 25.7789 119 26.5 119H29.5C30.2211 119 30.7117 118.999 31.0791 118.949C31.432 118.902 31.5957 118.818 31.707 118.707C31.8183 118.596 31.9018 118.432 31.9492 118.079C31.9986 117.712 32 117.221 32 116.5C32 115.779 31.9986 115.288 31.9492 114.921C31.9018 114.568 31.8183 114.404 31.707 114.293C31.5957 114.182 31.4321 114.098 31.0791 114.051C30.7117 114.001 30.2211 114 29.5 114H26.5Z" fill="currentColor"/>
</svg>
