<svg xmlns="http://www.w3.org/2000/svg" width="16" height="16" viewBox="20.0 111.0 16.0 16.0" fill="none">
  <path d="M28 121C31.5056 121 33.0561 122.177 33.6533 122.862C33.9265 123.176 34 123.562 34 123.882C34 125.052 33.0516 126 31.8818 126H24.1182C22.9484 126 22 125.052 22 123.882C22 123.562 22.0735 123.176 22.3467 122.862C22.9439 122.177 24.4944 121 28 121ZM28 122C24.7423 122 23.4825 123.082 23.1006 123.52C23.0437 123.585 23 123.699 23 123.882C23 124.499 23.5007 125 24.1182 125H31.8818C32.4993 125 33 124.499 33 123.882C33 123.699 32.9563 123.585 32.8994 123.52C32.5176 123.082 31.2578 122 28 122Z" fill="currentColor"/>
  <path d="M26.5 115C26.7761 115 27 115.224 27 115.5V116.5C27 116.776 26.7761 117 26.5 117H25.5C25.2239 117 25 116.776 25 116.5V115.5C25 115.224 25.2239 115 25.5 115H26.5Z" fill="currentColor"/>
  <path d="M30.5 115C30.7761 115 31 115.224 31 115.5V116.5C31 116.776 30.7761 117 30.5 117H29.5C29.2239 117 29 116.776 29 116.5V115.5C29 115.224 29.2239 115 29.5 115H30.5Z" fill="currentColor"/>
  <path d="M28 112C28.2761 112 28.4999 112.224 28.5 112.5V113H29.5C30.193 113 30.7634 112.999 31.2129 113.06C31.6767 113.122 32.0861 113.258 32.4141 113.586C32.686 113.858 32.824 114.186 32.8994 114.555C33.5338 114.73 34 115.31 34 116V117C34 117.69 33.5337 118.269 32.8994 118.444C32.824 118.813 32.6862 119.142 32.4141 119.414C32.0861 119.742 31.6766 119.878 31.2129 119.94C30.7634 120.001 30.1929 120 29.5 120H26.5C25.807 120 25.2366 120.001 24.7871 119.94C24.3234 119.878 23.9139 119.742 23.5859 119.414C23.3138 119.142 23.175 118.813 23.0996 118.444C22.4658 118.269 22 117.69 22 117V116C22.0001 115.31 22.4657 114.73 23.0996 114.555C23.175 114.186 23.314 113.858 23.5859 113.586C23.9139 113.258 24.3234 113.122 24.7871 113.06C25.2366 112.999 25.807 113 26.5 113H27.5V112.5C27.5001 112.224 27.7239 112 28 112ZM26.5 114C25.7789 114 25.2883 114.001 24.9209 114.051C24.5679 114.098 24.4042 114.182 24.293 114.293C24.1817 114.404 24.0982 114.568 24.0508 114.921C24.0014 115.288 24 115.779 24 116.5C24 117.221 24.0014 117.712 24.0508 118.079C24.0982 118.432 24.1817 118.596 24.293 118.707C24.4043 118.818 24.5679 118.902 24.9209 118.949C25.2883 118.999 25.7789 119 26.5 119H29.5C30.2211 119 30.7117 118.999 31.0791 118.949C31.432 118.902 31.5957 118.818 31.707 118.707C31.8183 118.596 31.9018 118.432 31.9492 118.079C31.9986 117.712 32 117.221 32 116.5C32 115.779 31.9986 115.288 31.9492 114.921C31.9018 114.568 31.8183 114.404 31.707 114.293C31.5957 114.182 31.4321 114.098 31.0791 114.051C30.7117 114.001 30.2211 114 29.5 114H26.5Z" fill="currentColor"/>
</svg>
