<svg xmlns="http://www.w3.org/2000/svg" width="16" height="16" viewBox="20.0 111.0 16.0 16.0" fill="none">
  <path d="M31.5 122C31.7761 122 32 122.224 32 122.5C32 122.776 31.7761 123 31.5 123H29.5C29.2239 123 29 122.776 29 122.5C29 122.224 29.2239 122 29.5 122H31.5Z" fill="currentColor"/>
  <path d="M30.5 112C31.4285 112 32.1751 111.999 32.7607 112.078C33.3608 112.159 33.8663 112.331 34.2676 112.732C34.6689 113.134 34.8412 113.639 34.9219 114.239C35.0006 114.825 35 115.572 35 116.5V121.5C35 122.428 35.0006 123.175 34.9219 123.761C34.8412 124.361 34.6689 124.866 34.2676 125.268C33.8663 125.669 33.3608 125.841 32.7607 125.922C32.1751 126.001 31.4285 126 30.5 126H25.5C24.5715 126 23.8249 126.001 23.2393 125.922C22.6392 125.841 22.1337 125.669 21.7324 125.268C21.3311 124.866 21.1588 124.361 21.0781 123.761C20.9994 123.175 21 122.428 21 121.5V116.5C21 115.572 20.9994 114.825 21.0781 114.239C21.1588 113.639 21.3311 113.134 21.7324 112.732C22.1337 112.331 22.6392 112.159 23.2393 112.078C23.8249 111.999 24.5715 112 25.5 112H30.5ZM31 115.191C31 115.339 31.0029 115.564 30.9746 115.755C30.9441 115.96 30.842 116.39 30.4072 116.659C29.9725 116.928 29.542 116.826 29.3447 116.762C29.1615 116.702 28.9612 116.598 28.8291 116.532L28 116.117L27.1709 116.532C27.0388 116.598 26.8385 116.702 26.6553 116.762C26.458 116.826 26.0275 116.928 25.5928 116.659C25.158 116.39 25.0559 115.96 25.0254 115.755C24.9971 115.564 25 115.339 25 115.191V113.003C24.3028 113.005 23.7829 113.013 23.3721 113.068C22.8829 113.134 22.624 113.255 22.4395 113.439C22.2549 113.624 22.1341 113.883 22.0684 114.372C22.0007 114.876 22 115.543 22 116.5V121.5C22 122.457 22.0007 123.124 22.0684 123.628C22.1341 124.117 22.2549 124.376 22.4395 124.561C22.624 124.745 22.8829 124.866 23.3721 124.932C23.8756 124.999 24.5431 125 25.5 125H30.5C31.4569 125 32.1244 124.999 32.6279 124.932C33.1171 124.866 33.376 124.745 33.5605 124.561C33.7451 124.376 33.8659 124.117 33.9316 123.628C33.9993 123.124 34 122.457 34 121.5V116.5C34 115.543 33.9993 114.876 33.9316 114.372C33.8659 113.883 33.7451 113.624 33.5605 113.439C33.376 113.255 33.1171 113.134 32.6279 113.068C32.2171 113.013 31.6972 113.005 31 113.003V115.191ZM26 115.191L26.002 115.43C26.0075 115.637 26.0293 115.754 26.1182 115.809C26.2071 115.864 26.3208 115.831 26.5088 115.743L26.7236 115.639L27.7764 115.111C27.886 115.057 27.941 115.029 28 115.029C28.059 115.029 28.114 115.057 28.2236 115.111L29.2764 115.639C29.5603 115.781 29.7201 115.86 29.835 115.828L29.8818 115.809C29.9707 115.754 29.9925 115.637 29.998 115.43L30 115.191V113H26V115.191Z" fill="currentColor"/>
</svg>
