<svg xmlns="http://www.w3.org/2000/svg" width="16" height="16" viewBox="21.0 112.0 15.0 15.0" fill="none">
  <path d="M29.5 113C29.9573 113 30.3507 112.999 30.6641 113.041C30.9918 113.085 31.3058 113.185 31.5605 113.439C31.8153 113.694 31.9149 114.008 31.959 114.336C32.0011 114.649 32 115.043 32 115.5V118.5C32 118.676 32.0007 118.848 31.9893 119H32.5C32.9573 119 33.3507 118.999 33.6641 119.041C33.9918 119.085 34.3058 119.185 34.5605 119.439C34.8153 119.694 34.9149 120.008 34.959 120.336C35.0011 120.649 35 121.043 35 121.5V123.5C35 123.957 35.0011 124.351 34.959 124.664C34.9149 124.992 34.8153 125.306 34.5605 125.561C34.3058 125.815 33.9918 125.915 33.6641 125.959C33.3507 126.001 32.9573 126 32.5 126H24.5C24.0427 126 23.6493 126.001 23.3359 125.959C23.0082 125.915 22.6942 125.815 22.4395 125.561C22.1847 125.306 22.0851 124.992 22.041 124.664C21.9989 124.351 22 123.957 22 123.5V121.5C22 121.043 21.9989 120.649 22.041 120.336C22.0851 120.008 22.1847 119.694 22.4395 119.439C22.6942 119.185 23.0082 119.085 23.3359 119.041C23.6493 118.999 24.0427 119 24.5 119H25.0107C24.9993 118.848 25 118.676 25 118.5V115.5C25 115.043 24.9989 114.649 25.041 114.336C25.0851 114.008 25.1847 113.694 25.4395 113.439C25.6942 113.185 26.0082 113.085 26.3359 113.041C26.6493 112.999 27.0427 113 27.5 113H29.5ZM27 121C27 121.104 27.001 121.232 26.9863 121.341C26.9697 121.464 26.9253 121.635 26.7803 121.78C26.6353 121.925 26.4643 121.97 26.3408 121.986C26.2317 122.001 26.1037 122 26 122H25C24.8963 122 24.7683 122.001 24.6592 121.986C24.5357 121.97 24.3647 121.925 24.2197 121.78C24.0747 121.635 24.0303 121.464 24.0137 121.341C23.999 121.232 24 121.104 24 121V120.004C23.7799 120.007 23.6097 120.013 23.4697 120.032C23.2529 120.061 23.1845 120.108 23.1465 120.146C23.1084 120.185 23.0614 120.253 23.0322 120.47C23.0012 120.701 23 121.015 23 121.5V123.5C23 123.985 23.0012 124.299 23.0322 124.53C23.0614 124.747 23.1084 124.815 23.1465 124.854C23.1845 124.892 23.2529 124.939 23.4697 124.968C23.7009 124.999 24.0147 125 24.5 125H28V120.5C28 120.25 27.9991 120.113 27.9863 120.018L27.9854 120.014H27.9824C27.8873 120.001 27.7498 120 27.5 120H27V121ZM29 125H32.5C32.9853 125 33.2991 124.999 33.5303 124.968C33.7471 124.939 33.8155 124.892 33.8535 124.854C33.8916 124.815 33.9386 124.747 33.9678 124.53C33.9988 124.299 34 123.985 34 123.5V121.5C34 121.015 33.9988 120.701 33.9678 120.47C33.9386 120.253 33.8916 120.185 33.8535 120.146C33.8155 120.108 33.7471 120.061 33.5303 120.032C33.3903 120.013 33.2201 120.007 33 120.004V121C33 121.104 33.001 121.232 32.9863 121.341C32.9697 121.464 32.9253 121.635 32.7803 121.78C32.6353 121.925 32.4643 121.97 32.3408 121.986C32.2317 122.001 32.1037 122 32 122H31C30.8963 122 30.7683 122.001 30.6592 121.986C30.5357 121.97 30.3647 121.925 30.2197 121.78C30.0747 121.635 30.0303 121.464 30.0137 121.341C29.999 121.232 30 121.104 30 121V120H29V125ZM25 121H26V120H25V121ZM31 121H32V120H31V121ZM30 115C30 115.104 30.001 115.232 29.9863 115.341C29.9697 115.464 29.9253 115.635 29.7803 115.78C29.6353 115.925 29.4643 115.97 29.3408 115.986C29.2317 116.001 29.1037 116 29 116H28C27.8963 116 27.7683 116.001 27.6592 115.986C27.5357 115.97 27.3647 115.925 27.2197 115.78C27.0747 115.635 27.0303 115.464 27.0137 115.341C26.999 115.232 27 115.104 27 115V114.004C26.7799 114.007 26.6097 114.013 26.4697 114.032C26.2529 114.061 26.1845 114.108 26.1465 114.146C26.1084 114.185 26.0614 114.253 26.0322 114.47C26.0012 114.701 26 115.015 26 115.5V118.5C26 118.75 26.0009 118.887 26.0137 118.982V118.985L26.0176 118.986C26.1127 118.999 26.2502 119 26.5 119H30.5C30.7498 119 30.8873 118.999 30.9824 118.986L30.9854 118.985L30.9863 118.982C30.9991 118.887 31 118.75 31 118.5V115.5C31 115.015 30.9988 114.701 30.9678 114.47C30.9386 114.253 30.8916 114.185 30.8535 114.146C30.8155 114.108 30.7471 114.061 30.5303 114.032C30.3903 114.013 30.2201 114.007 30 114.004V115ZM28 115H29V114H28V115Z" fill="currentColor"/>
</svg>
