<svg xmlns="http://www.w3.org/2000/svg" width="16" height="16" viewBox="20.95 111.95 14.1 14.1" fill="none">
  <path d="M25.1455 113.147C25.3402 112.952 25.6567 112.951 25.8525 113.145C26.0483 113.34 26.0492 113.657 25.8545 113.852C24.7553 114.958 24 116.832 24 119C24 121.168 24.7553 123.042 25.8545 124.147C26.0492 124.343 26.0483 124.66 25.8525 124.854C25.6567 125.049 25.3402 125.048 25.1455 124.852C23.8254 123.525 23 121.379 23 119C23 116.621 23.8254 114.475 25.1455 113.147Z" fill="currentColor"/>
  <path d="M30.1475 113.145C30.3433 112.951 30.6598 112.952 30.8545 113.147C32.1746 114.475 33 116.621 33 119C33 121.379 32.1746 123.525 30.8545 124.852C30.6598 125.048 30.3433 125.049 30.1475 124.854C29.9517 124.66 29.9508 124.343 30.1455 124.147C31.2447 123.042 32 121.168 32 119C32 116.832 31.2447 114.958 30.1455 113.852C29.9508 113.657 29.9517 113.34 30.1475 113.145Z" fill="currentColor"/>
</svg>
