<svg xmlns="http://www.w3.org/2000/svg" width="16" height="16" viewBox="20.0 111.0 16.0 16.0" fill="none">
  <path d="M32 112C33.1046 112 34 112.895 34 114C34 115.105 33.1046 116 32 116V116.499C32 117.192 32.0008 117.762 31.9404 118.212C31.8781 118.676 31.7421 119.086 31.4141 119.414C31.0861 119.742 30.6767 119.878 30.2129 119.94C29.7634 120.001 29.193 120 28.5 120H25V122.27C25.5973 122.615 26 123.26 26 124C26 125.105 25.1046 126 24 126C22.8954 126 22 125.105 22 124C22 122.895 22.8954 122 24 122V116C22.8954 116 22 115.105 22 114C22 112.895 22.8954 112 24 112C25.1046 112 26 112.895 26 114C26 114.74 25.5971 115.384 25 115.729V119H28.5C29.2212 119 29.7117 118.999 30.0791 118.949C30.4321 118.902 30.5957 118.818 30.707 118.707C30.8183 118.596 30.9017 118.432 30.9492 118.079C30.9986 117.712 31 117.221 31 116.499V115.729C30.4029 115.384 30 114.74 30 114C30 112.895 30.8954 112 32 112ZM24 123C23.4477 123 23 123.448 23 124C23 124.552 23.4477 125 24 125C24.5523 125 25 124.552 25 124C25 123.448 24.5523 123 24 123ZM24 113C23.4477 113 23 113.448 23 114C23 114.552 23.4477 115 24 115C24.5523 115 25 114.552 25 114C25 113.448 24.5523 113 24 113ZM32 113C31.4477 113 31 113.448 31 114C31 114.552 31.4477 115 32 115C32.5523 115 33 114.552 33 114C33 113.448 32.5523 113 32 113Z" fill="currentColor"/>
</svg>
