<svg xmlns="http://www.w3.org/2000/svg" width="16" height="16" viewBox="19.95 110.95 16.1 16.1" fill="none">
  <path d="M23.5 112C24.8807 112 26 113.119 26 114.5C26 115.709 25.141 116.718 24 116.949V121.5C24 121.985 24.0012 122.299 24.0322 122.53C24.0614 122.747 24.1084 122.815 24.1465 122.854C24.1845 122.892 24.2529 122.939 24.4697 122.968C24.7009 122.999 25.0147 123 25.5 123H26.293L25.1465 121.854C24.9512 121.658 24.9512 121.342 25.1465 121.146C25.3417 120.951 25.6583 120.951 25.8535 121.146L27.8535 123.146C28.0488 123.342 28.0488 123.658 27.8535 123.854L25.8535 125.854C25.6583 126.049 25.3417 126.049 25.1465 125.854C24.9512 125.658 24.9512 125.342 25.1465 125.146L26.293 124H25.5C25.0427 124 24.6493 124.001 24.3359 123.959C24.0082 123.915 23.6942 123.815 23.4395 123.561C23.1847 123.306 23.0851 122.992 23.041 122.664C22.9989 122.351 23 121.957 23 121.5V116.949C21.859 116.718 21 115.709 21 114.5C21 113.119 22.1193 112 23.5 112ZM23.5 113C22.6716 113 22 113.672 22 114.5C22 115.328 22.6716 116 23.5 116C24.3284 116 25 115.328 25 114.5C25 113.672 24.3284 113 23.5 113Z" fill="currentColor"/>
  <path d="M30.1465 112.146C30.3417 111.951 30.6583 111.951 30.8535 112.146C31.0488 112.342 31.0488 112.658 30.8535 112.854L29.707 114H30.5C30.9573 114 31.3507 113.999 31.6641 114.041C31.9918 114.085 32.3058 114.185 32.5605 114.439C32.8153 114.694 32.9149 115.008 32.959 115.336C33.0011 115.649 33 116.043 33 116.5V121.05C34.1411 121.281 35 122.291 35 123.5C35 124.881 33.8807 126 32.5 126C31.1193 126 30 124.881 30 123.5C30 122.291 30.8589 121.281 32 121.05V116.5C32 116.015 31.9988 115.701 31.9678 115.47C31.9386 115.253 31.8916 115.185 31.8535 115.146C31.8155 115.108 31.7471 115.061 31.5303 115.032C31.2991 115.001 30.9853 115 30.5 115H29.707L30.8535 116.146C31.0488 116.342 31.0488 116.658 30.8535 116.854C30.6583 117.049 30.3417 117.049 30.1465 116.854L28.1465 114.854C28.0527 114.76 28 114.633 28 114.5C28 114.367 28.0527 114.24 28.1465 114.146L30.1465 112.146ZM32.5 122C31.6716 122 31 122.672 31 123.5C31 124.328 31.6716 125 32.5 125C33.3284 125 34 124.328 34 123.5C34 122.672 33.3284 122 32.5 122Z" fill="currentColor"/>
</svg>
