<svg xmlns="http://www.w3.org/2000/svg" width="16" height="16" viewBox="20.0 110.5 16.0 16.0" fill="none">
  <path d="M28.5 112C28.9573 112 29.3507 111.999 29.6641 112.041C29.9918 112.085 30.3058 112.185 30.5605 112.439C30.8153 112.694 30.9149 113.008 30.959 113.336C30.9849 113.528 30.9926 113.751 30.9961 114C31.6989 114.002 32.2833 114.014 32.7607 114.078C33.3608 114.159 33.8663 114.331 34.2676 114.732C34.6689 115.134 34.8412 115.639 34.9219 116.239C35.0006 116.825 35 117.572 35 118.5V120.5C35 121.428 35.0006 122.175 34.9219 122.761C34.8412 123.361 34.6689 123.866 34.2676 124.268C33.8663 124.669 33.3608 124.841 32.7607 124.922C32.1751 125.001 31.4285 125 30.5 125H25.5C24.5715 125 23.8249 125.001 23.2393 124.922C22.6392 124.841 22.1337 124.669 21.7324 124.268C21.3311 123.866 21.1588 123.361 21.0781 122.761C20.9994 122.175 21 121.428 21 120.5V118.5C21 117.572 20.9994 116.825 21.0781 116.239C21.1588 115.639 21.3311 115.134 21.7324 114.732C22.1337 114.331 22.6392 114.159 23.2393 114.078C23.7165 114.014 24.3006 114.002 25.0029 114C25.0065 113.751 25.0151 113.528 25.041 113.336C25.0851 113.008 25.1847 112.694 25.4395 112.439C25.6942 112.185 26.0082 112.085 26.3359 112.041C26.6493 111.999 27.0427 112 27.5 112H28.5ZM22 119V120.5C22 121.457 22.0007 122.124 22.0684 122.628C22.1341 123.117 22.2549 123.376 22.4395 123.561C22.624 123.745 22.8829 123.866 23.3721 123.932C23.8756 123.999 24.5431 124 25.5 124H30.5C31.4569 124 32.1244 123.999 32.6279 123.932C33.1171 123.866 33.376 123.745 33.5605 123.561C33.7451 123.376 33.8659 123.117 33.9316 122.628C33.9993 122.124 34 121.457 34 120.5V119H29.9717C29.967 119.025 29.9634 119.049 29.957 119.073C29.8414 119.505 29.5046 119.841 29.0732 119.957C28.8983 120.004 28.7002 120 28.5 120H27.5C27.2998 120 27.1017 120.004 26.9268 119.957C26.4954 119.841 26.1586 119.505 26.043 119.073C26.0366 119.049 26.033 119.025 26.0283 119H22ZM27.249 118.003C27.2037 118.005 27.188 118.008 27.1855 118.009C27.0993 118.032 27.0319 118.099 27.0088 118.186C27.0082 118.188 27.005 118.204 27.0029 118.249C27.0004 118.305 27 118.379 27 118.5C27 118.621 27.0004 118.695 27.0029 118.751C27.005 118.796 27.0082 118.812 27.0088 118.814C27.0319 118.901 27.0993 118.968 27.1855 118.991C27.188 118.992 27.2037 118.995 27.249 118.997C27.305 119 27.3792 119 27.5 119H28.5C28.6208 119 28.695 119 28.751 118.997C28.7963 118.995 28.812 118.992 28.8145 118.991C28.9007 118.968 28.9681 118.901 28.9912 118.814C28.9918 118.812 28.995 118.796 28.9971 118.751C28.9996 118.695 29 118.621 29 118.5C29 118.379 28.9996 118.305 28.9971 118.249C28.995 118.204 28.9918 118.188 28.9912 118.186C28.9681 118.099 28.9007 118.032 28.8145 118.009C28.812 118.008 28.7963 118.005 28.751 118.003C28.695 118 28.6208 118 28.5 118H27.5C27.3792 118 27.305 118 27.249 118.003ZM25.5 115C24.5431 115 23.8756 115.001 23.3721 115.068C22.8829 115.134 22.624 115.255 22.4395 115.439C22.2549 115.624 22.1341 115.883 22.0684 116.372C22.0131 116.783 22.0059 117.303 22.0039 118H26.0283C26.033 117.975 26.0366 117.951 26.043 117.927C26.1586 117.495 26.4954 117.159 26.9268 117.043C27.1017 116.996 27.2998 117 27.5 117H28.5C28.7002 117 28.8983 116.996 29.0732 117.043C29.5046 117.159 29.8414 117.495 29.957 117.927C29.9634 117.951 29.967 117.975 29.9717 118H33.9961C33.9941 117.303 33.9869 116.783 33.9316 116.372C33.8659 115.883 33.7451 115.624 33.5605 115.439C33.376 115.255 33.1171 115.134 32.6279 115.068C32.1244 115.001 31.4569 115 30.5 115H25.5ZM27.5 113C27.0147 113 26.7009 113.001 26.4697 113.032C26.2529 113.061 26.1845 113.108 26.1465 113.146C26.1084 113.185 26.0614 113.253 26.0322 113.47C26.0134 113.61 26.0072 113.78 26.0039 114H29.9961C29.9928 113.78 29.9866 113.61 29.9678 113.47C29.9386 113.253 29.8916 113.185 29.8535 113.146C29.8155 113.108 29.7471 113.061 29.5303 113.032C29.2991 113.001 28.9853 113 28.5 113H27.5Z" fill="currentColor"/>
</svg>
