<svg xmlns="http://www.w3.org/2000/svg" width="16" height="16" viewBox="19.94 109.95 16.12 16.12" fill="none">
  <path d="M28 114C29.1023 114 30 114.895 30 116C30 116.654 29.6832 117.233 29.1973 117.598L31.9619 124.309C32.0669 124.565 31.9455 124.857 31.6904 124.962C31.4353 125.067 31.1433 124.945 31.0381 124.69L30.3418 123H25.6582L24.9619 124.69C24.8567 124.945 24.5647 125.067 24.3096 124.962C24.0545 124.857 23.9331 124.565 24.0381 124.309L26.8008 117.597C26.3158 117.232 26 116.653 26 116C26 114.895 26.8977 114 28 114ZM26.0693 122H29.9297L28.2734 117.978C28.1839 117.991 28.0929 118 28 118C27.9064 118 27.8148 117.99 27.7246 117.977L26.0693 122ZM28 115C27.4493 115 27 115.448 27 116C27.0001 116.551 27.4494 117 28 117C28.5506 117 28.9999 116.551 29 116C29 115.448 28.5507 115 28 115Z" fill="currentColor"/>
  <path d="M22.9531 111.153C23.1445 110.954 23.4611 110.948 23.6602 111.14C23.8589 111.331 23.865 111.648 23.6738 111.847C22.6373 112.926 22 114.389 22 116C22 117.611 22.6373 119.074 23.6738 120.153C23.865 120.352 23.8589 120.669 23.6602 120.86C23.4612 121.051 23.1445 121.045 22.9531 120.847C21.7453 119.589 21 117.88 21 116C21 114.119 21.7453 112.41 22.9531 111.153Z" fill="currentColor"/>
  <path d="M32.3398 111.14C32.5389 110.948 32.8555 110.954 33.0469 111.153C34.2547 112.41 35 114.119 35 116C35 117.88 34.2547 119.589 33.0469 120.847C32.8555 121.045 32.5388 121.051 32.3398 120.86C32.1411 120.669 32.135 120.352 32.3262 120.153C33.3627 119.074 34 117.611 34 116C34 114.389 33.3627 112.926 32.3262 111.847C32.135 111.648 32.1411 111.331 32.3398 111.14Z" fill="currentColor"/>
  <path d="M24.2764 112.666C24.4607 112.461 24.7769 112.444 24.9824 112.628C25.1876 112.812 25.2047 113.128 25.0205 113.334C24.3858 114.042 24 114.976 24 116C24 117.024 24.3858 117.957 25.0205 118.666C25.2046 118.871 25.1877 119.188 24.9824 119.372C24.7769 119.556 24.4607 119.539 24.2764 119.334C23.4841 118.45 23 117.28 23 116C23 114.72 23.4841 113.55 24.2764 112.666Z" fill="currentColor"/>
  <path d="M31.0176 112.628C31.2231 112.444 31.5393 112.461 31.7236 112.666C32.5159 113.55 33 114.72 33 116C33 117.28 32.5159 118.45 31.7236 119.334C31.5393 119.539 31.2231 119.556 31.0176 119.372C30.8123 119.188 30.7954 118.871 30.9795 118.666C31.6142 117.957 32 117.024 32 116C32 114.976 31.6142 114.042 30.9795 113.334C30.7953 113.128 30.8124 112.812 31.0176 112.628Z" fill="currentColor"/>
</svg>
