<svg xmlns="http://www.w3.org/2000/svg" width="16" height="16" viewBox="18.81 110.99 17.07 17.07" fill="none">
  <path d="M23.3145 118C25.2474 118 26.8145 119.567 26.8145 121.5C26.8145 122.286 26.5548 123.011 26.1172 123.596L28.668 126.146C28.8632 126.342 28.8632 126.658 28.668 126.854C28.4727 127.049 28.1562 127.049 27.9609 126.854L25.4102 124.303C24.8259 124.74 24.1006 125 23.3145 125C21.3815 125 19.8145 123.433 19.8145 121.5C19.8145 119.567 21.3815 118 23.3145 118ZM23.3145 119C21.9337 119 20.8145 120.119 20.8145 121.5C20.8145 122.881 21.9337 124 23.3145 124C24.6952 124 25.8145 122.881 25.8145 121.5C25.8145 120.119 24.6952 119 23.3145 119Z" fill="currentColor"/>
  <path d="M28.3145 112C30.2474 112 31.8145 113.567 31.8145 115.5C31.8145 115.587 31.81 115.673 31.8037 115.758C32.1015 116.022 32.3456 116.344 32.5195 116.708C32.7064 116.479 32.8145 116.189 32.8145 115.882V115.5C32.8145 115.224 33.0384 115 33.3145 115C33.5906 115 33.8145 115.224 33.8145 115.5V115.882C33.8145 116.662 33.4208 117.38 32.7812 117.805C32.7821 117.815 32.7844 117.825 32.7852 117.836C32.8088 118.157 32.8116 118.541 32.8125 119.004C33.6412 119.045 34.388 119.529 34.7617 120.276C34.8852 120.523 34.785 120.824 34.5381 120.947C34.2911 121.071 33.9907 120.971 33.8672 120.724C33.6632 120.316 33.2631 120.048 32.8145 120.008V121.382L33.5508 122.854C33.7241 123.201 33.8144 123.584 33.8145 123.972V125.5C33.8145 125.776 33.5906 126 33.3145 126C33.0384 126 32.8145 125.776 32.8145 125.5V123.972C32.8144 123.739 32.7602 123.51 32.6562 123.302L32.5361 123.062C32.0526 124.368 30.979 125.386 29.6396 125.799C29.5713 125.67 29.4837 125.548 29.375 125.439L28.8857 124.95C30.5468 124.677 31.8145 123.238 31.8145 121.5V119.346C31.8145 118.711 31.814 118.262 31.7881 117.909C31.7626 117.562 31.7148 117.348 31.6387 117.179C31.4381 116.733 31.0812 116.376 30.6357 116.176C30.4667 116.1 30.2524 116.052 29.9053 116.026C29.553 116.001 29.1034 116 28.4688 116H28.1602C27.5255 116 27.0759 116.001 26.7236 116.026C26.3765 116.052 26.1622 116.1 25.9932 116.176C25.5478 116.376 25.1908 116.733 24.9902 117.179C24.9726 117.218 24.957 117.26 24.9424 117.305C24.4374 117.109 23.8887 117 23.3145 117C23.2451 117 23.176 117.002 23.1074 117.005C22.9193 116.668 22.8145 116.283 22.8145 115.882V115.5C22.8145 115.224 23.0384 115 23.3145 115C23.5906 115 23.8145 115.224 23.8145 115.5V115.882C23.8145 116.189 23.9215 116.48 24.1084 116.709C24.2823 116.344 24.5264 116.022 24.8242 115.758C24.818 115.673 24.8145 115.587 24.8145 115.5C24.8145 113.567 26.3815 112 28.3145 112ZM28.3145 113C27.0464 113 26.0004 113.944 25.8379 115.168C26.086 115.09 26.3525 115.051 26.6504 115.029C27.0478 115 27.5402 115 28.1602 115H28.4688C29.0887 115 29.5811 115 29.9785 115.029C30.276 115.051 30.5422 115.091 30.79 115.168C30.6275 113.944 29.5825 113 28.3145 113Z" fill="currentColor"/>
  <path d="M28.3145 118C28.5906 118 28.8145 118.224 28.8145 118.5V124.879L27.8145 123.879V118.5C27.8145 118.224 28.0384 118 28.3145 118Z" fill="currentColor"/>
</svg>
