<svg xmlns="http://www.w3.org/2000/svg" width="16" height="16" viewBox="20.5 111.0 16.0 16.0" fill="none">
  <path d="M28.4999 112C30.4329 112 31.9999 113.567 31.9999 115.5C31.9999 115.587 31.9954 115.673 31.9891 115.758C32.2869 116.022 32.531 116.344 32.7049 116.708C32.8918 116.479 32.9999 116.189 32.9999 115.882V115.5C32.9999 115.224 33.2238 115 33.4999 115C33.776 115 33.9999 115.224 33.9999 115.5V115.882C33.9999 116.662 33.6063 117.38 32.9667 117.805C32.9675 117.815 32.9698 117.825 32.9706 117.836C32.9942 118.157 32.997 118.541 32.9979 119.004C33.8266 119.045 34.5734 119.529 34.9471 120.276C35.0706 120.523 34.9705 120.824 34.7235 120.947C34.4765 121.071 34.1761 120.971 34.0526 120.724C33.8486 120.316 33.4486 120.048 32.9999 120.008V121.382L33.7362 122.854C33.9096 123.201 33.9998 123.584 33.9999 123.972V125.5C33.9999 125.776 33.776 126 33.4999 126C33.2238 126 32.9999 125.776 32.9999 125.5V123.972C32.9998 123.739 32.9456 123.51 32.8417 123.302L32.7215 123.062C32.0867 124.777 30.4361 126 28.4999 126C26.5633 126 24.9127 124.777 24.2782 123.061L24.1581 123.302C24.0541 123.51 23.9999 123.739 23.9999 123.972V125.5C23.9999 125.776 23.776 126 23.4999 126C23.2238 126 22.9999 125.776 22.9999 125.5V123.972C22.9999 123.584 23.0902 123.201 23.2635 122.854L23.9999 121.382V120.008C23.5513 120.049 23.1511 120.316 22.9471 120.724C22.8236 120.971 22.5232 121.071 22.2762 120.947C22.0294 120.824 21.9292 120.523 22.0526 120.276C22.4262 119.529 23.1726 119.046 24.0008 119.004C24.0017 118.541 24.0056 118.157 24.0292 117.836C24.0299 117.825 24.0313 117.815 24.0321 117.805C23.393 117.38 22.9999 116.661 22.9999 115.882V115.5C22.9999 115.224 23.2238 115 23.4999 115C23.776 115 23.9999 115.224 23.9999 115.5V115.882C23.9999 116.189 24.1069 116.48 24.2938 116.709C24.4677 116.344 24.7118 116.022 25.0096 115.758C25.0034 115.673 24.9999 115.587 24.9999 115.5C24.9999 113.567 26.5669 112 28.4999 112ZM28.3456 116C27.7109 116 27.2613 116.001 26.909 116.026C26.5619 116.052 26.3476 116.1 26.1786 116.176C25.7332 116.376 25.3762 116.733 25.1756 117.179C25.0996 117.348 25.0517 117.562 25.0262 117.909C25.0004 118.262 24.9999 118.711 24.9999 119.346V121.5C24.9999 123.263 26.3038 124.721 27.9999 124.964V118.5C27.9999 118.224 28.2238 118 28.4999 118C28.776 118 28.9999 118.224 28.9999 118.5V124.964C30.696 124.721 31.9999 123.263 31.9999 121.5V119.346C31.9999 118.711 31.9994 118.262 31.9735 117.909C31.948 117.562 31.9002 117.348 31.8241 117.179C31.6235 116.733 31.2666 116.376 30.8211 116.176C30.6521 116.1 30.4378 116.052 30.0907 116.026C29.7384 116.001 29.2888 116 28.6542 116H28.3456ZM28.4999 113C27.2319 113 26.1858 113.944 26.0233 115.168C26.2715 115.09 26.5379 115.051 26.8358 115.029C27.2332 115 27.7256 115 28.3456 115H28.6542C29.2741 115 29.7665 115 30.1639 115.029C30.4614 115.051 30.7276 115.091 30.9754 115.168C30.8129 113.944 29.7679 113 28.4999 113Z" fill="currentColor"/>
</svg>
