<svg xmlns="http://www.w3.org/2000/svg" width="16" height="16" viewBox="19.99 111.12 17.02 17.02" fill="none">
  <path d="M32.5001 121C32.7216 121 32.9381 120.999 33.1153 121.022C33.3069 121.048 33.5255 121.111 33.7071 121.293C33.8887 121.475 33.9518 121.693 33.9776 121.885C33.9826 121.922 33.9853 121.961 33.9883 122.001C33.9922 122.001 33.9961 122 34.0001 122H34.086C34.2086 122 34.3634 121.995 34.5196 122.028L34.6758 122.076L34.8194 122.152C34.9536 122.239 35.0598 122.353 35.1465 122.439L35.5606 122.854C35.6762 122.969 35.8389 123.119 35.9239 123.324C36.0088 123.529 36.0001 123.75 36.0001 123.914V124.5C36.0001 124.722 36.0014 124.938 35.9776 125.115C35.9518 125.307 35.8887 125.525 35.7071 125.707C35.5255 125.889 35.3069 125.952 35.1153 125.978C35.0782 125.983 35.0393 125.985 34.9991 125.988C34.9991 125.992 35.0001 125.996 35.0001 126C35.0001 126.552 34.5523 127 34.0001 127C33.4478 127 33.0001 126.552 33.0001 126C33.0001 125.996 33 125.992 33.0001 125.988C32.8479 126 32.6756 126 32.5001 126H32.0001C32.0001 126.552 31.5523 127 31.0001 127C30.4478 127 30.0001 126.552 30.0001 126C30.0001 125.996 30 125.992 30.0001 125.988C29.9602 125.985 29.9216 125.982 29.8848 125.978C29.6932 125.952 29.4746 125.889 29.293 125.707C29.1114 125.525 29.0483 125.307 29.0225 125.115C28.9987 124.938 29.0001 124.722 29.0001 124.5V122.5C29.0001 122.278 28.9987 122.062 29.0225 121.885C29.0483 121.693 29.1114 121.475 29.293 121.293C29.4746 121.111 29.6932 121.048 29.8848 121.022C30.062 120.999 30.2785 121 30.5001 121H32.5001ZM34.0001 124.5C34.0001 124.676 33.9998 124.848 33.9883 125H34.5001C34.7499 125 34.8874 124.999 34.9825 124.986L34.9854 124.985L34.9864 124.982C34.9992 124.887 35.0001 124.75 35.0001 124.5V123.914C35.0001 123.805 35.0001 123.75 34.9971 123.711L34.9952 123.707C34.9695 123.677 34.931 123.638 34.8536 123.561L34.4395 123.146C34.3621 123.069 34.3229 123.031 34.293 123.005L34.2901 123.003C34.2508 123 34.1951 123 34.086 123H34.0001V124.5ZM30.5001 122C30.2503 122 30.1127 122.001 30.0176 122.014H30.0137V122.018C30.001 122.113 30.0001 122.25 30.0001 122.5V124.5C30.0001 124.75 30.001 124.887 30.0137 124.982V124.985L30.0176 124.986C30.1127 124.999 30.2503 125 30.5001 125H32.5001C32.7498 125 32.8874 124.999 32.9825 124.986L32.9854 124.985L32.9864 124.982C32.9992 124.887 33.0001 124.75 33.0001 124.5V122.5C33.0001 122.25 32.9992 122.113 32.9864 122.018L32.9854 122.014H32.9825C32.8874 122.001 32.7498 122 32.5001 122H30.5001Z" fill="currentColor"/>
  <path d="M28.0001 112.252C28.544 112.252 29.0076 112.468 29.4766 112.808C29.9341 113.139 30.4503 113.627 31.0909 114.232L33.5909 116.595C34.1771 117.149 34.5824 117.518 34.796 118.014C35.0096 118.509 35.0001 119.058 35.0001 119.865V120H34.0001V119.865C34.0001 118.974 33.9907 118.672 33.878 118.41C33.765 118.148 33.5518 117.934 32.9034 117.321L30.4034 114.959C29.743 114.335 29.2825 113.901 28.8907 113.617C28.5107 113.342 28.2513 113.252 28.0001 113.252C27.7489 113.252 27.4894 113.342 27.1094 113.617C26.7176 113.901 26.2571 114.335 25.5967 114.959L23.0967 117.321C22.4483 117.934 22.2351 118.148 22.1221 118.41C22.0094 118.672 22.0001 118.974 22.0001 119.865V121.5C22.0001 122.457 22.0007 123.124 22.0684 123.628C22.1342 124.117 22.2551 124.376 22.4395 124.561C22.624 124.745 22.8831 124.866 23.3721 124.932C23.5571 124.957 23.7646 124.969 24.0001 124.979V122.5C24.0001 121.807 23.9992 121.237 24.0596 120.787C24.122 120.323 24.2581 119.914 24.586 119.586C24.9139 119.258 25.3235 119.122 25.7872 119.06C26.2367 118.999 26.8072 119 27.5001 119H28.5001C29.1929 119 29.7635 118.999 30.213 119.06C30.6767 119.122 31.0862 119.258 31.4141 119.586C31.5405 119.712 31.6378 119.851 31.7139 120H31.0001C30.4988 120 30.0864 120.001 29.7432 120.021C29.4223 120.001 29.0214 120 28.5001 120H27.5001C26.779 120 26.2883 120.001 25.921 120.051C25.5681 120.098 25.4043 120.182 25.293 120.293C25.1818 120.404 25.0983 120.568 25.0508 120.921C25.0473 120.947 25.0461 120.974 25.043 121.002H28.126C28.0522 121.264 28.0222 121.588 28.0098 122.002H25.004C25.0031 122.155 25.0001 122.32 25.0001 122.5V123.002H28.0001V124.002H25.0001V124.996C25.1574 124.997 25.3239 125 25.5001 125H28.0001V126H25.5001C24.5717 126 23.8249 126.001 23.2393 125.922C22.6393 125.841 22.1337 125.669 21.7325 125.268C21.3313 124.866 21.1589 124.361 21.0782 123.761C20.9995 123.175 21.0001 122.428 21.0001 121.5V119.865C21.0001 119.058 20.9906 118.509 21.2042 118.014C21.4177 117.518 21.823 117.149 22.4092 116.595L24.9092 114.232C25.5498 113.627 26.066 113.139 26.5235 112.808C26.9925 112.468 27.4561 112.252 28.0001 112.252Z" fill="currentColor"/>
</svg>
