<svg xmlns="http://www.w3.org/2000/svg" width="16" height="16" viewBox="20.0 111.0 16.0 16.0" fill="none">
  <path d="M24.625 117.75C24.8986 117.75 25.0357 117.75 25.1279 117.825C25.1448 117.839 25.161 117.855 25.1748 117.872C25.2502 117.964 25.25 118.101 25.25 118.375C25.25 118.649 25.2502 118.786 25.1748 118.878C25.161 118.895 25.1448 118.911 25.1279 118.925C25.0357 119 24.8986 119 24.625 119C24.3514 119 24.2143 119 24.1221 118.925C24.1052 118.911 24.089 118.895 24.0752 118.878C23.9998 118.786 24 118.649 24 118.375C24 118.101 23.9998 117.964 24.0752 117.872C24.089 117.855 24.1052 117.839 24.1221 117.825C24.2143 117.75 24.3514 117.75 24.625 117.75Z" fill="currentColor"/>
  <path d="M27.375 117.75C27.6486 117.75 27.7857 117.75 27.8779 117.825C27.8948 117.839 27.91 117.855 27.9238 117.872C27.9995 117.964 28 118.101 28 118.375C28 118.649 27.9995 118.786 27.9238 118.878C27.91 118.895 27.8948 118.911 27.8779 118.925C27.7857 119 27.6486 119 27.375 119C27.1014 119 26.9643 119 26.8721 118.925C26.8552 118.911 26.839 118.895 26.8252 118.878C26.7498 118.786 26.75 118.649 26.75 118.375C26.75 118.101 26.7498 117.964 26.8252 117.872C26.839 117.855 26.8552 117.839 26.8721 117.825C26.9643 117.75 27.1014 117.75 27.375 117.75Z" fill="currentColor"/>
  <path d="M24.625 115C24.8986 115 25.0357 115 25.1279 115.075C25.1448 115.089 25.161 115.105 25.1748 115.122C25.2502 115.214 25.25 115.351 25.25 115.625C25.25 115.899 25.2502 116.036 25.1748 116.128C25.161 116.145 25.1448 116.161 25.1279 116.175C25.0357 116.25 24.8986 116.25 24.625 116.25C24.3514 116.25 24.2143 116.25 24.1221 116.175C24.1052 116.161 24.089 116.145 24.0752 116.128C23.9998 116.036 24 115.899 24 115.625C24 115.351 23.9998 115.214 24.0752 115.122C24.089 115.105 24.1052 115.089 24.1221 115.075C24.2143 115 24.3514 115 24.625 115Z" fill="currentColor"/>
  <path d="M27.375 115C27.6486 115 27.7857 115 27.8779 115.075C27.8948 115.089 27.91 115.105 27.9238 115.122C27.9995 115.214 28 115.351 28 115.625C28 115.899 27.9995 116.036 27.9238 116.128C27.91 116.145 27.8948 116.161 27.8779 116.175C27.7857 116.25 27.6486 116.25 27.375 116.25C27.1014 116.25 26.9643 116.25 26.8721 116.175C26.8552 116.161 26.839 116.145 26.8252 116.128C26.7498 116.036 26.75 115.899 26.75 115.625C26.75 115.351 26.7498 115.214 26.8252 115.122C26.839 115.105 26.8552 115.089 26.8721 115.075C26.9643 115 27.1014 115 27.375 115Z" fill="currentColor"/>
  <path d="M26.5 112C27.4285 112 28.1751 111.999 28.7607 112.078C29.3608 112.159 29.8663 112.331 30.2676 112.732C30.6689 113.134 30.8412 113.639 30.9219 114.239C31.0006 114.825 31 115.572 31 116.5V117C31.701 117.002 32.2842 117.014 32.7607 117.078C33.3608 117.159 33.8663 117.331 34.2676 117.732C34.6689 118.134 34.8412 118.639 34.9219 119.239C35.0006 119.825 35 120.572 35 121.5V125.5C35 125.776 34.7761 126 34.5 126H21.5C21.2239 126 21 125.776 21 125.5V116.5C21 115.572 20.9994 114.825 21.0781 114.239C21.1588 113.639 21.3311 113.134 21.7324 112.732C22.1337 112.331 22.6392 112.159 23.2393 112.078C23.8249 111.999 24.5715 112 25.5 112H26.5ZM25.5 113C24.5431 113 23.8756 113.001 23.3721 113.068C22.8829 113.134 22.624 113.255 22.4395 113.439C22.2549 113.624 22.1341 113.883 22.0684 114.372C22.0007 114.876 22 115.543 22 116.5V125H24V123C24 121.895 24.8954 121 26 121C27.1046 121 28 121.895 28 123V125H30V116.5C30 115.543 29.9993 114.876 29.9316 114.372C29.8659 113.883 29.7451 113.624 29.5605 113.439C29.376 113.255 29.1171 113.134 28.6279 113.068C28.1244 113.001 27.4569 113 26.5 113H25.5ZM26 122C25.4477 122 25 122.448 25 123V125H27V123C27 122.448 26.5523 122 26 122ZM31 125H34V121.5C34 120.543 33.9993 119.876 33.9316 119.372C33.8659 118.883 33.7451 118.624 33.5605 118.439C33.376 118.255 33.1171 118.134 32.6279 118.068C32.2171 118.013 31.6972 118.005 31 118.003V125Z" fill="currentColor"/>
</svg>
