<svg xmlns="http://www.w3.org/2000/svg" width="16" height="16" viewBox="20.0 111.5 16.0 16.0" fill="none">
  <path d="M23.5 118C23.6583 118 23.7376 118 23.7998 118.026C23.8778 118.06 23.9403 118.122 23.9737 118.2C24.0002 118.262 24 118.342 24 118.5C24 118.658 24.0002 118.738 23.9737 118.8C23.9403 118.878 23.8778 118.94 23.7998 118.974C23.7376 119 23.6583 119 23.5 119C23.3417 119 23.2624 119 23.2002 118.974C23.1223 118.94 23.0598 118.878 23.0264 118.8C22.9999 118.738 23 118.658 23 118.5C23 118.342 22.9998 118.262 23.0264 118.2C23.0598 118.122 23.1223 118.06 23.2002 118.026C23.2624 118 23.3417 118 23.5 118Z" fill="currentColor"/>
  <path d="M25.5 118C25.6583 118 25.7376 118 25.7998 118.026C25.8778 118.06 25.9403 118.122 25.9737 118.2C26.0002 118.262 26 118.342 26 118.5C26 118.658 26.0002 118.738 25.9737 118.8C25.9403 118.878 25.8778 118.94 25.7998 118.974C25.7376 119 25.6583 119 25.5 119C25.3417 119 25.2624 119 25.2002 118.974C25.1223 118.94 25.0598 118.878 25.0264 118.8C24.9999 118.738 25 118.658 25 118.5C25 118.342 24.9998 118.262 25.0264 118.2C25.0598 118.122 25.1223 118.06 25.2002 118.026C25.2624 118 25.3417 118 25.5 118Z" fill="currentColor"/>
  <path d="M23.5 116C23.6583 116 23.7376 116 23.7998 116.026C23.8778 116.06 23.9403 116.122 23.9737 116.2C24.0002 116.262 24 116.342 24 116.5C24 116.658 24.0002 116.738 23.9737 116.8C23.9403 116.878 23.8778 116.94 23.7998 116.974C23.7376 117 23.6583 117 23.5 117C23.3417 117 23.2624 117 23.2002 116.974C23.1223 116.94 23.0598 116.878 23.0264 116.8C22.9999 116.738 23 116.658 23 116.5C23 116.342 22.9998 116.262 23.0264 116.2C23.0598 116.122 23.1223 116.06 23.2002 116.026C23.2624 116 23.3417 116 23.5 116Z" fill="currentColor"/>
  <path d="M25.5 116C25.6583 116 25.7376 116 25.7998 116.026C25.8778 116.06 25.9403 116.122 25.9737 116.2C26.0002 116.262 26 116.342 26 116.5C26 116.658 26.0002 116.738 25.9737 116.8C25.9403 116.878 25.8778 116.94 25.7998 116.974C25.7376 117 25.6583 117 25.5 117C25.3417 117 25.2624 117 25.2002 116.974C25.1223 116.94 25.0598 116.878 25.0264 116.8C24.9999 116.738 25 116.658 25 116.5C25 116.342 24.9998 116.262 25.0264 116.2C25.0598 116.122 25.1223 116.06 25.2002 116.026C25.2624 116 25.3417 116 25.5 116Z" fill="currentColor"/>
  <path d="M29.5 123C29.6583 123 29.7376 123 29.7998 123.026C29.8778 123.06 29.9403 123.122 29.9737 123.2C30.0002 123.262 30 123.342 30 123.5C30 123.658 30.0002 123.738 29.9737 123.8C29.9403 123.878 29.8778 123.94 29.7998 123.974C29.7376 124 29.6583 124 29.5 124C29.3417 124 29.2624 124 29.2002 123.974C29.1223 123.94 29.0598 123.878 29.0264 123.8C28.9999 123.738 29 123.658 29 123.5C29 123.342 28.9998 123.262 29.0264 123.2C29.0598 123.122 29.1223 123.06 29.2002 123.026C29.2624 123 29.3417 123 29.5 123Z" fill="currentColor"/>
  <path d="M32.5 123C32.6583 123 32.7376 123 32.7998 123.026C32.8778 123.06 32.9403 123.122 32.9737 123.2C33.0002 123.262 33 123.342 33 123.5C33 123.658 33.0002 123.738 32.9737 123.8C32.9403 123.878 32.8778 123.94 32.7998 123.974C32.7376 124 32.6583 124 32.5 124C32.3417 124 32.2624 124 32.2002 123.974C32.1223 123.94 32.0598 123.878 32.0264 123.8C31.9999 123.738 32 123.658 32 123.5C32 123.342 31.9998 123.262 32.0264 123.2C32.0598 123.122 32.1223 123.06 32.2002 123.026C32.2624 123 32.3417 123 32.5 123Z" fill="currentColor"/>
  <path d="M32.0166 113C32.0459 113 32.1629 112.999 32.2735 113.013C32.3953 113.028 32.6009 113.072 32.8028 113.22L32.8887 113.289L32.9668 113.367C33.1352 113.552 33.2009 113.752 33.2295 113.871C33.2554 113.98 33.2665 114.097 33.2696 114.126L33.8731 119.761L33.9414 119.782C34.0042 119.802 34.1335 119.839 34.2471 119.889C34.3676 119.942 34.5392 120.036 34.6914 120.209L34.7559 120.288L34.8125 120.372C34.9333 120.569 34.9722 120.761 34.9873 120.892C35.0016 121.015 35 121.15 35 121.216V124.5C35 124.59 35.0016 124.757 34.9815 124.907C34.9574 125.086 34.8872 125.38 34.6338 125.634C34.3804 125.887 34.0862 125.957 33.9073 125.981C33.7571 126.002 33.5896 126 33.5 126H22.5C22.4105 126 22.2429 126.002 22.0928 125.981C21.9138 125.957 21.6196 125.887 21.3662 125.634C21.1129 125.38 21.0426 125.086 21.0186 124.907C20.9984 124.757 21 124.59 21 124.5V116C21.0001 114.896 21.8955 114 23 114H26C27.1043 114 28 114.895 28 116V117.953L28.294 118.044L29.2774 118.346L29.7305 114.126C29.7336 114.097 29.7446 113.98 29.7705 113.871C29.8032 113.735 29.8841 113.493 30.1114 113.289L30.1973 113.22C30.3992 113.072 30.6048 113.028 30.7266 113.013C30.8371 112.999 30.9541 113 30.9834 113H32.0166ZM23 115C22.4478 115 22.0001 115.448 22 116V124.5C22 124.736 22.0001 124.854 22.0733 124.927C22.1465 125 22.2643 125 22.5 125H23V122.5C23.0001 121.672 23.6716 121 24.5 121C25.3284 121 26 121.672 26 122.5V125H26.5C26.7357 125 26.8536 125 26.9268 124.927C27 124.854 27 124.736 27 124.5V116C27 115.448 26.5522 115 26 115H23ZM28 124.5C28 124.736 28.0001 124.854 28.0733 124.927C28.1281 124.982 28.208 124.996 28.3438 124.999L28.5 125H33.5L33.6563 124.999C33.792 124.996 33.8719 124.982 33.9268 124.927C34 124.854 34 124.736 34 124.5V121.216C34 121.038 34.0001 120.948 33.9512 120.882C33.9268 120.849 33.8932 120.826 33.8448 120.805L33.6475 120.737L28 119V124.5ZM24.5 122C24.2239 122 24.0001 122.224 24 122.5V125H25V122.5C25 122.224 24.7762 122 24.5 122ZM30.9834 114C30.8728 114 30.8173 114 30.7803 114.033C30.7433 114.067 30.7374 114.122 30.7256 114.232L30.251 118.647L32.8321 119.44L32.2744 114.232C32.2626 114.122 32.2568 114.067 32.2198 114.033C32.2012 114.017 32.178 114.008 32.1455 114.004L32.0166 114H30.9834Z" fill="currentColor"/>
</svg>
