<svg xmlns="http://www.w3.org/2000/svg" width="16" height="16" viewBox="19.99 111.12 16.02 16.02" fill="none">
  <path d="M28.0001 112.252C28.5441 112.252 29.0076 112.468 29.4766 112.808C29.9341 113.139 30.4503 113.627 31.0909 114.232L33.5909 116.595C34.1771 117.149 34.5824 117.518 34.796 118.014C35.0096 118.509 35.0001 119.058 35.0001 119.865V121.5C35.0001 122.428 35.0006 123.175 34.9219 123.761C34.8413 124.361 34.6689 124.866 34.2676 125.268C33.8664 125.669 33.3609 125.841 32.7608 125.922C32.1752 126.001 31.4285 126 30.5001 126H25.5001C24.5716 126 23.8249 126.001 23.2393 125.922C22.6393 125.841 22.1337 125.669 21.7325 125.268C21.3312 124.866 21.1589 124.361 21.0782 123.761C20.9995 123.175 21.0001 122.428 21.0001 121.5V119.865C21.0001 119.058 20.9906 118.509 21.2042 118.014C21.4178 117.518 21.823 117.149 22.4092 116.595L24.9092 114.232C25.5498 113.627 26.066 113.139 26.5235 112.808C26.9926 112.468 27.4561 112.252 28.0001 112.252ZM25.0001 124.002V124.996C25.1574 124.997 25.3238 125 25.5001 125H30.5001C30.6763 125 30.8427 124.997 31.0001 124.996V124.002H25.0001ZM28.0001 113.252C27.7489 113.252 27.4895 113.342 27.1094 113.617C26.7176 113.901 26.2571 114.335 25.5967 114.959L23.0967 117.321C22.4483 117.934 22.2351 118.148 22.1221 118.41C22.0094 118.672 22.0001 118.974 22.0001 119.865V121.5C22.0001 122.457 22.0007 123.124 22.0684 123.628C22.1342 124.117 22.255 124.376 22.4395 124.561C22.624 124.745 22.883 124.866 23.3721 124.932C23.5572 124.957 23.7645 124.969 24.0001 124.979V122.5C24.0001 121.807 23.9992 121.237 24.0596 120.787C24.122 120.323 24.2581 119.914 24.586 119.586C24.914 119.258 25.3234 119.122 25.7872 119.06C26.2367 118.999 26.8071 119 27.5001 119H28.5001C29.193 119 29.7634 118.999 30.213 119.06C30.6767 119.122 31.0862 119.258 31.4141 119.586C31.7421 119.914 31.8781 120.323 31.9405 120.787C32.0009 121.237 32.0001 121.807 32.0001 122.5V124.979C32.2356 124.969 32.4429 124.957 32.628 124.932C33.1171 124.866 33.3761 124.745 33.5606 124.561C33.7451 124.376 33.8659 124.117 33.9317 123.628C33.9994 123.124 34.0001 122.457 34.0001 121.5V119.865C34.0001 118.974 33.9907 118.672 33.878 118.41C33.765 118.148 33.5519 117.934 32.9034 117.321L30.4034 114.959C29.743 114.335 29.2826 113.901 28.8907 113.617C28.5106 113.342 28.2513 113.252 28.0001 113.252ZM25.0001 122.5V123.002H31.0001V122.5C31.0001 122.32 30.9971 122.155 30.9962 122.002H25.004C25.0031 122.155 25.0001 122.32 25.0001 122.5ZM27.5001 120C26.7789 120 26.2883 120.001 25.921 120.051C25.568 120.098 25.4043 120.182 25.293 120.293C25.1818 120.404 25.0983 120.568 25.0508 120.921C25.0473 120.947 25.0461 120.974 25.043 121.002H30.9571C30.954 120.974 30.9528 120.947 30.9493 120.921C30.9018 120.568 30.8184 120.404 30.7071 120.293C30.5958 120.182 30.4322 120.098 30.0792 120.051C29.7118 120.001 29.2212 120 28.5001 120H27.5001Z" fill="currentColor"/>
</svg>
