<svg xmlns="http://www.w3.org/2000/svg" width="16" height="16" viewBox="20.0 111.0 16.0 16.0" fill="none">
  <path d="M23.5 118C23.6551 118 23.7327 118 23.7939 118.025C23.8756 118.059 23.9408 118.124 23.9746 118.206C23.9999 118.267 24 118.345 24 118.5C24 118.655 23.9999 118.733 23.9746 118.794C23.9408 118.876 23.8756 118.941 23.7939 118.975C23.7327 119 23.6551 119 23.5 119C23.3449 119 23.2673 119 23.2061 118.975C23.1244 118.941 23.0592 118.876 23.0254 118.794C23.0001 118.733 23 118.655 23 118.5C23 118.345 23.0001 118.267 23.0254 118.206C23.0592 118.124 23.1244 118.059 23.2061 118.025C23.2673 118 23.3449 118 23.5 118Z" fill="currentColor"/>
  <path d="M26.5 118C26.6551 118 26.7327 118 26.7939 118.025C26.8756 118.059 26.9408 118.124 26.9746 118.206C26.9999 118.267 27 118.345 27 118.5C27 118.655 26.9999 118.733 26.9746 118.794C26.9408 118.876 26.8756 118.941 26.7939 118.975C26.7327 119 26.6551 119 26.5 119C26.3449 119 26.2673 119 26.2061 118.975C26.1244 118.941 26.0592 118.876 26.0254 118.794C26.0001 118.733 26 118.655 26 118.5C26 118.345 26.0001 118.267 26.0254 118.206C26.0592 118.124 26.1244 118.059 26.2061 118.025C26.2673 118 26.3449 118 26.5 118Z" fill="currentColor"/>
  <path d="M23.5 115C23.6551 115 23.7327 115 23.7939 115.025C23.8756 115.059 23.9408 115.124 23.9746 115.206C23.9999 115.267 24 115.345 24 115.5C24 115.655 23.9999 115.733 23.9746 115.794C23.9408 115.876 23.8756 115.941 23.7939 115.975C23.7327 116 23.6551 116 23.5 116C23.3449 116 23.2673 116 23.2061 115.975C23.1244 115.941 23.0592 115.876 23.0254 115.794C23.0001 115.733 23 115.655 23 115.5C23 115.345 23.0001 115.267 23.0254 115.206C23.0592 115.124 23.1244 115.059 23.2061 115.025C23.2673 115 23.3449 115 23.5 115Z" fill="currentColor"/>
  <path d="M26.5 115C26.6551 115 26.7327 115 26.7939 115.025C26.8756 115.059 26.9408 115.124 26.9746 115.206C26.9999 115.267 27 115.345 27 115.5C27 115.655 26.9999 115.733 26.9746 115.794C26.9408 115.876 26.8756 115.941 26.7939 115.975C26.7327 116 26.6551 116 26.5 116C26.3449 116 26.2673 116 26.2061 115.975C26.1244 115.941 26.0592 115.876 26.0254 115.794C26.0001 115.733 26 115.655 26 115.5C26 115.345 26.0001 115.267 26.0254 115.206C26.0592 115.124 26.1244 115.059 26.2061 115.025C26.2673 115 26.3449 115 26.5 115Z" fill="currentColor"/>
  <path d="M25 113C25.6917 113 26.2481 113 26.6934 113.045C27.1469 113.091 27.5407 113.189 27.8887 113.421C28.1616 113.603 28.3967 113.838 28.5791 114.111C28.8115 114.459 28.9089 114.853 28.9551 115.307C29.0004 115.752 29 116.308 29 117V119C29.701 119.002 30.2842 119.014 30.7607 119.078C31.3608 119.159 31.8663 119.331 32.2676 119.732C32.6689 120.134 32.8412 120.639 32.9219 121.239C33.0006 121.825 33 122.572 33 123.5V125.5C33 125.776 32.7761 126 32.5 126H21.5C21.2239 126 21 125.776 21 125.5V117C21 116.308 20.9996 115.752 21.0449 115.307C21.0911 114.853 21.1885 114.459 21.4209 114.111C21.6033 113.838 21.8384 113.603 22.1113 113.421C22.4593 113.189 22.8531 113.091 23.3066 113.045C23.7519 113 24.3083 113 25 113ZM25 114C24.2874 114 23.7902 114.001 23.4072 114.04C23.0329 114.078 22.8233 114.149 22.667 114.253C22.5032 114.362 22.3624 114.503 22.2529 114.667C22.1485 114.823 22.0781 115.033 22.04 115.407C22.0011 115.79 22 116.287 22 117V125H23V123C23 121.895 23.8954 121 25 121C26.1046 121 27 121.895 27 123V125H28V117C28 116.287 27.9989 115.79 27.96 115.407C27.9219 115.033 27.8515 114.823 27.7471 114.667C27.6376 114.503 27.4968 114.362 27.333 114.253C27.1767 114.149 26.9671 114.078 26.5928 114.04C26.2098 114.001 25.7126 114 25 114ZM25 122C24.4477 122 24 122.448 24 123V125H26V123C26 122.448 25.5523 122 25 122ZM29 125H32V123.5C32 122.543 31.9993 121.876 31.9316 121.372C31.8659 120.883 31.7451 120.624 31.5605 120.439C31.376 120.255 31.1171 120.134 30.6279 120.068C30.2171 120.013 29.6972 120.005 29 120.003V125Z" fill="currentColor"/>
  <path d="M30.5 116C30.7761 116 31 116.224 31 116.5C31 116.776 30.7761 117 30.5 117C30.2239 117 30 116.776 30 116.5C30 116.224 30.2239 116 30.5 116Z" fill="currentColor"/>
  <path d="M30.5 114C31.8807 114 33 115.119 33 116.5C33 116.776 32.7761 117 32.5 117C32.2239 117 32 116.776 32 116.5C32 115.672 31.3284 115 30.5 115C30.2239 115 30 114.776 30 114.5C30 114.224 30.2239 114 30.5 114Z" fill="currentColor"/>
  <path d="M30.5 112C32.9853 112 35 114.015 35 116.5C35 116.776 34.7761 117 34.5 117C34.2239 117 34 116.776 34 116.5C34 114.567 32.433 113 30.5 113C30.2239 113 30 112.776 30 112.5C30 112.224 30.2239 112 30.5 112Z" fill="currentColor"/>
</svg>
