<svg xmlns="http://www.w3.org/2000/svg" width="16" height="16" viewBox="20.0 109.96 17.04 17.04" fill="none">
  <path d="M28 112C28.5774 112 29.1381 112.071 29.6748 112.203L29.4395 112.439C29.256 112.623 29.1256 112.849 29.0566 113.095C28.7135 113.034 28.3606 113 28 113C24.6863 113 22 115.686 22 119C22 122.314 24.6863 125 28 125C31.3137 125 34 122.314 34 119C34 118.639 33.9654 118.286 33.9043 117.942C34.15 117.873 34.3769 117.744 34.5605 117.561L34.7959 117.324C34.9279 117.861 35 118.422 35 119C35 122.866 31.866 126 28 126C24.134 126 21 122.866 21 119C21 115.134 24.134 112 28 112Z" fill="currentColor"/>
  <path d="M28 115C28.3453 115 28.6804 115.044 29 115.126V116.174C28.6869 116.063 28.351 116 28 116C26.3431 116 25 117.343 25 119C25 120.657 26.3432 122 28 122C29.6568 122 31 120.657 31 119C31 118.649 30.9369 118.313 30.8262 118H31.874C31.9563 118.32 32 118.655 32 119C32 121.209 30.2091 123 28 123C25.7909 123 24 121.209 24 119C24 116.791 25.7909 115 28 115Z" fill="currentColor"/>
  <path d="M32.1465 111.146C32.2895 111.003 32.5046 110.961 32.6914 111.038C32.8782 111.115 33 111.298 33 111.5V114H35.5C35.7022 114 35.8845 114.122 35.9619 114.309C36.0393 114.495 35.9965 114.711 35.8535 114.854L33.8535 116.854C33.7597 116.947 33.6326 117 33.5 117H30.707L28.9648 118.741C28.987 118.824 29 118.91 29 119C29 119.552 28.5523 120 28 120C27.4477 120 27 119.552 27 119C27 118.448 27.4477 118 28 118C28.0892 118 28.1755 118.012 28.2578 118.034L30 116.292V113.5C30 113.367 30.0527 113.24 30.1465 113.146L32.1465 111.146ZM31 113.707V116H33.293L34.293 115H32.5C32.2239 115 32 114.776 32 114.5V112.707L31 113.707Z" fill="currentColor"/>
</svg>
