<svg xmlns="http://www.w3.org/2000/svg" width="16" height="16" viewBox="20.0 111.0 17.0 17.0" fill="none">
  <path d="M31.5 120C31.7762 120 32 120.224 32 120.5V122H33.5C33.7762 122 34 122.224 34 122.5C34 122.776 33.7762 123 33.5 123H32V124.5C32 124.776 31.7762 125 31.5 125C31.2239 125 31 124.776 31 124.5V123H29.5C29.2239 123 29 122.776 29 122.5C29 122.224 29.2239 122 29.5 122H31V120.5C31 120.224 31.2239 120 31.5 120Z" fill="currentColor"/>
  <path d="M31.5 118C33.9853 118 36 120.015 36 122.5C36 124.985 33.9853 127 31.5 127C29.0147 127 27 124.985 27 122.5C27 120.015 29.0147 118 31.5 118ZM31.5 119C29.567 119 28 120.567 28 122.5C28 124.433 29.567 126 31.5 126C33.433 126 35 124.433 35 122.5C35 120.567 33.433 119 31.5 119Z" fill="currentColor"/>
  <path d="M33.5 112C33.7215 112 33.9381 111.999 34.1152 112.022C34.3068 112.048 34.5255 112.111 34.707 112.293C34.8886 112.475 34.9518 112.693 34.9776 112.885C35.0014 113.062 35 113.278 35 113.5V114.5C35 114.721 35.0014 114.938 34.9776 115.115C34.9518 115.307 34.8887 115.525 34.707 115.707C34.5254 115.889 34.3068 115.952 34.1152 115.978C34.0785 115.982 34.0399 115.985 34 115.988V117.601C33.6832 117.439 33.3487 117.307 33 117.208V116H23V120.5C23 121.221 23.0014 121.712 23.0508 122.079C23.0982 122.432 23.1817 122.596 23.293 122.707C23.4043 122.818 23.5679 122.902 23.9209 122.949C24.2883 122.999 24.7789 123 25.5 123H26.0235C26.0544 123.343 26.1168 123.678 26.208 124H25.5C24.8071 124 24.2366 124.001 23.7871 123.94C23.3234 123.878 22.9139 123.742 22.586 123.414C22.258 123.086 22.122 122.677 22.0596 122.213C21.9992 121.763 22 121.193 22 120.5V115.988C21.9602 115.985 21.9215 115.982 21.8848 115.978C21.6932 115.952 21.4746 115.889 21.293 115.707C21.1114 115.525 21.0482 115.307 21.0225 115.115C20.9987 114.938 21 114.721 21 114.5V113.5C21 113.278 20.9987 113.062 21.0225 112.885C21.0482 112.693 21.1114 112.475 21.293 112.293C21.4746 112.111 21.6932 112.048 21.8848 112.022C22.062 111.999 22.2785 112 22.5 112H33.5ZM22.5 113C22.2502 113 22.1127 113.001 22.0176 113.014H22.0137V113.018C22.0009 113.113 22 113.25 22 113.5V114.5C22 114.75 22.0009 114.887 22.0137 114.982V114.985L22.0176 114.986C22.1127 114.999 22.2502 115 22.5 115H33.5C33.7498 115 33.8873 114.999 33.9824 114.986L33.9854 114.985L33.9863 114.982C33.9991 114.887 34 114.75 34 114.5V113.5C34 113.25 33.9991 113.113 33.9863 113.018L33.9854 113.014H33.9824C33.8873 113.001 33.7498 113 33.5 113H22.5Z" fill="currentColor"/>
  <path d="M28.3399 118C27.9361 118.284 27.5716 118.62 27.2578 119H25.5C25.2239 119 25 118.776 25 118.5C25.0001 118.224 25.2239 118 25.5 118H28.3399Z" fill="currentColor"/>
</svg>
