<svg xmlns="http://www.w3.org/2000/svg" width="16" height="16" viewBox="20.53 111.0 17.0 17.0" fill="none">
  <path d="M31.5 123.875C31.845 123.875 32.125 124.155 32.125 124.5C32.125 124.845 31.845 125.125 31.5 125.125C31.155 125.125 30.875 124.845 30.875 124.5C30.875 124.155 31.155 123.875 31.5 123.875Z" fill="currentColor"/>
  <path d="M31.5 120C31.776 120 32 120.224 32 120.5V122.5C32 122.776 31.776 123 31.5 123C31.224 123 31 122.776 31 122.5V120.5C31 120.224 31.224 120 31.5 120Z" fill="currentColor"/>
  <path d="M31.5 118.025C32.0606 118.026 32.4419 118.395 32.7383 118.815C33.0363 119.238 33.3483 119.856 33.7305 120.611L35.127 123.371C35.4483 124.006 35.716 124.534 35.8584 124.962C36.003 125.397 36.0629 125.858 35.8008 126.285C35.5384 126.712 35.0989 126.867 34.6455 126.935C34.1993 127.001 33.6079 127 32.8965 127H30.1035C29.3918 127 28.7998 127.001 28.3535 126.935C27.9003 126.867 27.4605 126.712 27.1982 126.285C26.9363 125.859 26.9961 125.397 27.1406 124.962C27.283 124.534 27.5507 124.006 27.8721 123.371L29.2686 120.611C29.6507 119.856 29.9627 119.238 30.2607 118.815C30.5571 118.395 30.9393 118.026 31.5 118.025ZM31.5 119.025C31.446 119.025 31.3246 119.042 31.0781 119.392C30.8327 119.74 30.5586 120.277 30.1611 121.062L28.7646 123.822C28.4282 124.487 28.2032 124.936 28.0898 125.277C27.979 125.611 28.0204 125.712 28.0508 125.762C28.0812 125.811 28.1532 125.895 28.501 125.946C28.8563 125.999 29.3587 126 30.1035 126H32.8965C33.6413 126 34.1437 125.999 34.499 125.946C34.8466 125.895 34.9188 125.811 34.9492 125.762C34.9796 125.712 35.0209 125.611 34.9102 125.277C34.7968 124.936 34.5709 124.487 34.2344 123.822L32.8379 121.062C32.4404 120.277 32.1664 119.74 31.9209 119.392C31.6745 119.042 31.554 119.025 31.5 119.025Z" fill="currentColor"/>
  <path d="M30.5 112C30.7761 112 31 112.224 31 112.5V113.02C31.2789 113.031 31.5321 113.047 31.7607 113.078C32.3608 113.159 32.8663 113.331 33.2676 113.732C33.6689 114.134 33.8412 114.639 33.9219 115.239C34.0006 115.825 34 116.572 34 117.5V118.966C33.8507 118.696 33.7041 118.449 33.5557 118.238C33.4195 118.045 33.2359 117.818 33 117.611V117.5C33 117.324 32.9966 117.157 32.9961 117H23.0039C23.0034 117.157 23 117.324 23 117.5V120.5C23 121.457 23.0007 122.124 23.0684 122.628C23.1341 123.117 23.2549 123.376 23.4395 123.561C23.624 123.745 23.8829 123.866 24.3721 123.932C24.8675 123.998 25.5217 123.999 26.4541 123.999C26.3515 124.226 26.2592 124.443 26.1914 124.646C26.1559 124.753 26.1228 124.872 26.0938 124.999C25.3508 124.998 24.7369 124.989 24.2393 124.922C23.6392 124.841 23.1337 124.669 22.7324 124.268C22.3311 123.866 22.1588 123.361 22.0781 122.761C21.9994 122.175 22 121.428 22 120.5V117.5C22 116.572 21.9994 115.825 22.0781 115.239C22.1588 114.639 22.3311 114.134 22.7324 113.732C23.1337 113.331 23.6392 113.159 24.2393 113.078C24.4679 113.047 24.7211 113.031 25 113.02V112.5C25 112.224 25.2239 112 25.5 112C25.7761 112 26 112.224 26 112.5V113H30V112.5C30 112.224 30.2239 112 30.5 112ZM26 114.003V114.5C26 114.776 25.7761 115 25.5 115C25.2239 115 25 114.776 25 114.5V114.02C24.7644 114.03 24.5571 114.043 24.3721 114.068C23.8829 114.134 23.624 114.255 23.4395 114.439C23.2549 114.624 23.1341 114.883 23.0684 115.372C23.0435 115.557 23.0306 115.764 23.0205 116H32.9795C32.9694 115.764 32.9565 115.557 32.9316 115.372C32.8659 114.883 32.7451 114.624 32.5605 114.439C32.376 114.255 32.1171 114.134 31.6279 114.068C31.4429 114.043 31.2356 114.03 31 114.02V114.5C31 114.776 30.7761 115 30.5 115C30.2239 115 30 114.776 30 114.5V114.003C29.8426 114.002 29.6762 114 29.5 114H26.5C26.3238 114 26.1574 114.002 26 114.003Z" fill="currentColor"/>
</svg>
