<svg xmlns="http://www.w3.org/2000/svg" width="16" height="16" viewBox="20.5 111.0 15.0 15.0" fill="none">
  <path d="M25 121C25.5523 121 26 121.448 26 122C26 122.552 25.5523 123 25 123C24.4477 123 24 122.552 24 122C24 121.448 24.4477 121 25 121Z" fill="currentColor"/>
  <path d="M28 121C28.5523 121 29 121.448 29 122C29 122.552 28.5523 123 28 123C27.4477 123 27 122.552 27 122C27 121.448 27.4477 121 28 121Z" fill="currentColor"/>
  <path d="M31 121C31.5523 121 32 121.448 32 122C32 122.552 31.5523 123 31 123C30.4477 123 30 122.552 30 122C30 121.448 30.4477 121 31 121Z" fill="currentColor"/>
  <path d="M25 118C25.5523 118 26 118.448 26 119C26 119.552 25.5523 120 25 120C24.4477 120 24 119.552 24 119C24 118.448 24.4477 118 25 118Z" fill="currentColor"/>
  <path d="M28 118C28.5523 118 29 118.448 29 119C29 119.552 28.5523 120 28 120C27.4477 120 27 119.552 27 119C27 118.448 27.4477 118 28 118Z" fill="currentColor"/>
  <path d="M31 118C31.5523 118 32 118.448 32 119C32 119.552 31.5523 120 31 120C30.4477 120 30 119.552 30 119C30 118.448 30.4477 118 31 118Z" fill="currentColor"/>
  <path d="M30.5 112C30.7761 112 31 112.224 31 112.5V113.02C31.2789 113.031 31.5321 113.047 31.7607 113.078C32.3608 113.159 32.8663 113.331 33.2676 113.732C33.6689 114.134 33.8412 114.639 33.9219 115.239C34.0006 115.825 34 116.572 34 117.5V120.5C34 121.428 34.0006 122.175 33.9219 122.761C33.8412 123.361 33.6689 123.866 33.2676 124.268C32.8663 124.669 32.3608 124.841 31.7607 124.922C31.1751 125.001 30.4285 125 29.5 125H26.5C25.5715 125 24.8249 125.001 24.2393 124.922C23.6392 124.841 23.1337 124.669 22.7324 124.268C22.3311 123.866 22.1588 123.361 22.0781 122.761C21.9994 122.175 22 121.428 22 120.5V117.5C22 116.572 21.9994 115.825 22.0781 115.239C22.1588 114.639 22.3311 114.134 22.7324 113.732C23.1337 113.331 23.6392 113.159 24.2393 113.078C24.4679 113.047 24.7211 113.031 25 113.02V112.5C25 112.224 25.2239 112 25.5 112C25.7761 112 26 112.224 26 112.5V113H30V112.5C30 112.224 30.2239 112 30.5 112ZM23 117.5V120.5C23 121.457 23.0007 122.124 23.0684 122.628C23.1341 123.117 23.2549 123.376 23.4395 123.561C23.624 123.745 23.8829 123.866 24.3721 123.932C24.8756 123.999 25.5431 124 26.5 124H29.5C30.4569 124 31.1244 123.999 31.6279 123.932C32.1171 123.866 32.376 123.745 32.5605 123.561C32.7451 123.376 32.8659 123.117 32.9316 122.628C32.9993 122.124 33 121.457 33 120.5V117.5C33 117.324 32.9966 117.157 32.9961 117H23.0039C23.0034 117.157 23 117.324 23 117.5ZM26 114.003V114.5C26 114.776 25.7761 115 25.5 115C25.2239 115 25 114.776 25 114.5V114.02C24.7644 114.03 24.5571 114.043 24.3721 114.068C23.8829 114.134 23.624 114.255 23.4395 114.439C23.2549 114.624 23.1341 114.883 23.0684 115.372C23.0435 115.557 23.0306 115.764 23.0205 116H32.9795C32.9694 115.764 32.9565 115.557 32.9316 115.372C32.8659 114.883 32.7451 114.624 32.5605 114.439C32.376 114.255 32.1171 114.134 31.6279 114.068C31.4429 114.043 31.2356 114.03 31 114.02V114.5C31 114.776 30.7761 115 30.5 115C30.2239 115 30 114.776 30 114.5V114.003C29.8426 114.002 29.6762 114 29.5 114H26.5C26.3238 114 26.1574 114.002 26 114.003Z" fill="currentColor"/>
</svg>
