<svg xmlns="http://www.w3.org/2000/svg" width="16" height="16" viewBox="20.0 111.5 17.0 17.0" fill="none">
  <path d="M31.5 120C31.7761 120 32 120.224 32 120.5V122H33.5C33.7761 122 34 122.224 34 122.5C34 122.776 33.7761 123 33.5 123H32V124.5C32 124.776 31.7761 125 31.5 125C31.2239 125 31 124.776 31 124.5V123H29.5C29.2239 123 29 122.776 29 122.5C29 122.224 29.2239 122 29.5 122H31V120.5C31 120.224 31.2239 120 31.5 120Z" fill="currentColor"/>
  <path d="M31.5 118C33.9853 118 36 120.015 36 122.5C36 124.985 33.9853 127 31.5 127C29.0147 127 27 124.985 27 122.5C27 120.015 29.0147 118 31.5 118ZM31.5 119C29.567 119 28 120.567 28 122.5C28 124.433 29.567 126 31.5 126C33.433 126 35 124.433 35 122.5C35 120.567 33.433 119 31.5 119Z" fill="currentColor"/>
  <path d="M25 113C25.5523 113 26 113.448 26 114H30.5C31.4285 114 32.1751 113.999 32.7607 114.078C33.3608 114.159 33.8663 114.331 34.2676 114.732C34.6689 115.134 34.8412 115.639 34.9219 116.239C34.9936 116.773 34.9985 117.44 34.999 118.257C34.6903 118.002 34.353 117.781 33.9932 117.598C33.9876 117.097 33.9757 116.7 33.9316 116.372C33.8659 115.883 33.7451 115.624 33.5605 115.439C33.376 115.255 33.1171 115.134 32.6279 115.068C32.1244 115.001 31.4569 115 30.5 115H25.5C24.5431 115 23.8756 115.001 23.3721 115.068C22.8829 115.134 22.624 115.255 22.4395 115.439C22.2549 115.624 22.1341 115.883 22.0684 116.372C22.0007 116.876 22 117.543 22 118.5V119.5C22 120.457 22.0007 121.124 22.0684 121.628C22.1341 122.117 22.2549 122.376 22.4395 122.561C22.624 122.745 22.8829 122.866 23.3721 122.932C23.8756 122.999 24.5431 123 25.5 123H26.0234C26.0544 123.343 26.1168 123.678 26.208 124H25.5C24.5715 124 23.8249 124.001 23.2393 123.922C22.6392 123.841 22.1337 123.669 21.7324 123.268C21.3311 122.866 21.1588 122.361 21.0781 121.761C20.9994 121.175 21 120.428 21 119.5V118.5C21 117.572 20.9994 116.825 21.0781 116.239C21.1588 115.639 21.3311 115.134 21.7324 114.732C22.0792 114.386 22.5039 114.211 23 114.117V114C23 113.448 23.4477 113 24 113H25Z" fill="currentColor"/>
  <path d="M28 116C28.9461 116 29.789 116.439 30.3389 117.123C29.9717 117.202 29.6182 117.318 29.2822 117.466C28.935 117.175 28.4881 117 28 117C26.8954 117 26 117.895 26 119C26 119.488 26.1753 119.935 26.4658 120.282C26.3176 120.618 26.202 120.972 26.123 121.339C25.4388 120.789 25 119.946 25 119C25 117.343 26.3431 116 28 116Z" fill="currentColor"/>
  <path d="M32.5 116C32.7761 116 33 116.224 33 116.5C33 116.776 32.7761 117 32.5 117C32.2239 117 32 116.776 32 116.5C32 116.224 32.2239 116 32.5 116Z" fill="currentColor"/>
</svg>
