<svg xmlns="http://www.w3.org/2000/svg" width="16" height="16" viewBox="19.5 111.47 17.06 17.06" fill="none">
  <path d="M31 123.875C31.345 123.875 31.625 124.155 31.625 124.5C31.625 124.845 31.345 125.125 31 125.125C30.655 125.125 30.375 124.845 30.375 124.5C30.375 124.155 30.655 123.875 31 123.875Z" fill="currentColor"/>
  <path d="M31 120C31.276 120 31.5 120.224 31.5 120.5V122.5C31.5 122.776 31.276 123 31 123C30.724 123 30.5 122.776 30.5 122.5V120.5C30.5 120.224 30.724 120 31 120Z" fill="currentColor"/>
  <path d="M31 118.025C31.5606 118.026 31.9419 118.395 32.2383 118.815C32.5363 119.238 32.8483 119.856 33.2305 120.611L34.627 123.371C34.9483 124.006 35.216 124.534 35.3584 124.962C35.503 125.397 35.5629 125.858 35.3008 126.285C35.0384 126.712 34.5989 126.867 34.1455 126.935C33.6993 127.001 33.1079 127 32.3965 127H29.6035C28.8918 127 28.2998 127.001 27.8535 126.935C27.4003 126.867 26.9605 126.712 26.6982 126.285C26.4363 125.859 26.4961 125.397 26.6406 124.962C26.783 124.534 27.0507 124.006 27.3721 123.371L28.7686 120.611C29.1507 119.856 29.4627 119.238 29.7607 118.815C30.0571 118.395 30.4393 118.026 31 118.025ZM31 119.025C30.946 119.025 30.8246 119.042 30.5781 119.392C30.3327 119.74 30.0586 120.277 29.6611 121.062L28.2646 123.822C27.9282 124.487 27.7032 124.936 27.5898 125.277C27.479 125.611 27.5204 125.712 27.5508 125.762C27.5812 125.811 27.6532 125.895 28.001 125.946C28.3563 125.999 28.8587 126 29.6035 126H32.3965C33.1413 126 33.6437 125.999 33.999 125.946C34.3466 125.895 34.4188 125.811 34.4492 125.762C34.4796 125.712 34.5209 125.611 34.4102 125.277C34.2968 124.936 34.0709 124.487 33.7344 123.822L32.3379 121.062C31.9404 120.277 31.6664 119.74 31.4209 119.392C31.1745 119.042 31.054 119.025 31 119.025Z" fill="currentColor"/>
  <path d="M24.5 113C25.0523 113 25.5 113.448 25.5 114H30C30.9285 114 31.6751 113.999 32.2607 114.078C32.8608 114.159 33.3663 114.331 33.7676 114.732C34.1689 115.134 34.3412 115.639 34.4219 116.239C34.5006 116.825 34.5 117.572 34.5 118.5V119.5C34.5 120.013 34.4975 120.471 34.4844 120.877L34.1221 120.16C33.9105 119.742 33.7034 119.333 33.5 118.966V118.5C33.5 117.543 33.4993 116.876 33.4316 116.372C33.3659 115.883 33.2451 115.624 33.0605 115.439C32.876 115.255 32.6171 115.134 32.1279 115.068C31.6244 115.001 30.9569 115 30 115H25C24.0431 115 23.3756 115.001 22.8721 115.068C22.3829 115.134 22.124 115.255 21.9395 115.439C21.7549 115.624 21.6341 115.883 21.5684 116.372C21.5007 116.876 21.5 117.543 21.5 118.5V119.5C21.5 120.457 21.5007 121.124 21.5684 121.628C21.6341 122.117 21.7549 122.376 21.9395 122.561C22.124 122.745 22.3829 122.866 22.8721 122.932C23.3756 122.999 24.0431 123 25 123H26.4404C26.2686 123.339 26.0996 123.679 25.9541 124H25C24.0715 124 23.3249 124.001 22.7393 123.922C22.1392 123.841 21.6337 123.669 21.2324 123.268C20.8311 122.866 20.6588 122.361 20.5781 121.761C20.4994 121.175 20.5 120.428 20.5 119.5V118.5C20.5 117.572 20.4994 116.825 20.5781 116.239C20.6588 115.639 20.8311 115.134 21.2324 114.732C21.5792 114.386 22.0039 114.211 22.5 114.117V114C22.5 113.448 22.9477 113 23.5 113H24.5Z" fill="currentColor"/>
  <path d="M27.5 116C28.5191 116 29.4178 116.509 29.96 117.286C29.6378 117.46 29.3842 117.699 29.1865 117.929C28.8316 117.371 28.2099 117 27.5 117C26.3954 117 25.5 117.895 25.5 119C25.5 120.089 26.3702 120.972 27.4531 120.997L26.9697 121.952C25.5659 121.702 24.5 120.476 24.5 119C24.5 117.343 25.8431 116 27.5 116Z" fill="currentColor"/>
  <path d="M32 116C32.2761 116 32.5 116.224 32.5 116.5C32.5 116.776 32.2761 117 32 117C31.7239 117 31.5 116.776 31.5 116.5C31.5 116.224 31.7239 116 32 116Z" fill="currentColor"/>
</svg>
