<svg xmlns="http://www.w3.org/2000/svg" width="16" height="16" viewBox="21.0 112.0 14.0 14.0" fill="none">
  <path d="M25 121C25.2261 121 25.4207 121 25.5811 121.011C25.746 121.022 25.9113 121.047 26.0742 121.114C26.4416 121.266 26.7335 121.558 26.8857 121.926C26.9532 122.089 26.978 122.254 26.9893 122.419C27.0002 122.579 27 122.774 27 123C27 123.226 27.0002 123.421 26.9893 123.581C26.978 123.746 26.9532 123.911 26.8857 124.074C26.7335 124.442 26.4416 124.734 26.0742 124.886C25.9113 124.953 25.746 124.978 25.5811 124.989C25.4207 125 25.2261 125 25 125H24C23.7739 125 23.5793 125 23.4189 124.989C23.254 124.978 23.0887 124.953 22.9258 124.886C22.5584 124.734 22.2665 124.442 22.1143 124.074C22.0468 123.911 22.022 123.746 22.0107 123.581C21.9998 123.421 22 123.226 22 123C22 122.774 21.9998 122.579 22.0107 122.419C22.022 122.254 22.0468 122.089 22.1143 121.926C22.2665 121.558 22.5584 121.266 22.9258 121.114C23.0887 121.047 23.254 121.022 23.4189 121.011C23.5793 121 23.7739 121 24 121H25ZM24 122C23.7605 122 23.6057 122.001 23.4873 122.009C23.3733 122.017 23.3294 122.029 23.3086 122.038C23.1861 122.089 23.0888 122.186 23.0381 122.309C23.0295 122.329 23.0166 122.373 23.0088 122.487C23.0007 122.606 23 122.76 23 123C23 123.24 23.0007 123.394 23.0088 123.513C23.0166 123.627 23.0295 123.671 23.0381 123.691C23.0888 123.814 23.1861 123.911 23.3086 123.962C23.3294 123.971 23.3733 123.983 23.4873 123.991C23.6057 123.999 23.7605 124 24 124H25C25.2395 124 25.3943 123.999 25.5127 123.991C25.6267 123.983 25.6706 123.971 25.6914 123.962C25.8139 123.911 25.9112 123.814 25.9619 123.691C25.9705 123.671 25.9834 123.627 25.9912 123.513C25.9993 123.394 26 123.24 26 123C26 122.76 25.9993 122.606 25.9912 122.487C25.9834 122.373 25.9705 122.329 25.9619 122.309C25.9112 122.186 25.8139 122.089 25.6914 122.038C25.6706 122.029 25.6267 122.017 25.5127 122.009C25.3943 122.001 25.2395 122 25 122H24Z" fill="currentColor"/>
  <path d="M31.5 119C31.9573 119 32.3507 118.999 32.6641 119.041C32.9918 119.085 33.3058 119.185 33.5605 119.439C33.8153 119.694 33.9149 120.008 33.959 120.336C34.0011 120.649 34 121.043 34 121.5V122.5C34 122.957 34.0011 123.351 33.959 123.664C33.9149 123.992 33.8153 124.306 33.5605 124.561C33.3058 124.815 32.9918 124.915 32.6641 124.959C32.3507 125.001 31.9573 125 31.5 125C31.0427 125 30.6493 125.001 30.3359 124.959C30.0082 124.915 29.6942 124.815 29.4395 124.561C29.1847 124.306 29.0851 123.992 29.041 123.664C28.9989 123.351 29 122.957 29 122.5V121.5C29 121.043 28.9989 120.649 29.041 120.336C29.0851 120.008 29.1847 119.694 29.4395 119.439C29.6942 119.185 30.0082 119.085 30.3359 119.041C30.6493 118.999 31.0427 119 31.5 119ZM31.5 120C31.0147 120 30.7009 120.001 30.4697 120.032C30.2529 120.061 30.1845 120.108 30.1465 120.146C30.1084 120.185 30.0614 120.253 30.0322 120.47C30.0012 120.701 30 121.015 30 121.5V122.5C30 122.985 30.0012 123.299 30.0322 123.53C30.0614 123.747 30.1084 123.815 30.1465 123.854C30.1845 123.892 30.2529 123.939 30.4697 123.968C30.7009 123.999 31.0147 124 31.5 124C31.9853 124 32.2991 123.999 32.5303 123.968C32.7471 123.939 32.8155 123.892 32.8535 123.854C32.8916 123.815 32.9386 123.747 32.9678 123.53C32.9988 123.299 33 122.985 33 122.5V121.5C33 121.015 32.9988 120.701 32.9678 120.47C32.9386 120.253 32.8916 120.185 32.8535 120.146C32.8155 120.108 32.7471 120.061 32.5303 120.032C32.2991 120.001 31.9853 120 31.5 120Z" fill="currentColor"/>
  <path d="M24.5 113C24.9573 113 25.3507 112.999 25.6641 113.041C25.9918 113.085 26.3058 113.185 26.5605 113.439C26.8153 113.694 26.9149 114.008 26.959 114.336C27.0011 114.649 27 115.043 27 115.5V116.5C27 116.957 27.0011 117.351 26.959 117.664C26.9149 117.992 26.8153 118.306 26.5605 118.561C26.3058 118.815 25.9918 118.915 25.6641 118.959C25.3507 119.001 24.9573 119 24.5 119C24.0427 119 23.6493 119.001 23.3359 118.959C23.0082 118.915 22.6942 118.815 22.4395 118.561C22.1847 118.306 22.0851 117.992 22.041 117.664C21.9989 117.351 22 116.957 22 116.5V115.5C22 115.043 21.9989 114.649 22.041 114.336C22.0851 114.008 22.1847 113.694 22.4395 113.439C22.6942 113.185 23.0082 113.085 23.3359 113.041C23.6493 112.999 24.0427 113 24.5 113ZM24.5 114C24.0147 114 23.7009 114.001 23.4697 114.032C23.2529 114.061 23.1845 114.108 23.1465 114.146C23.1084 114.185 23.0614 114.253 23.0322 114.47C23.0012 114.701 23 115.015 23 115.5V116.5C23 116.985 23.0012 117.299 23.0322 117.53C23.0614 117.747 23.1084 117.815 23.1465 117.854C23.1845 117.892 23.2529 117.939 23.4697 117.968C23.7009 117.999 24.0147 118 24.5 118C24.9853 118 25.2991 117.999 25.5303 117.968C25.7471 117.939 25.8155 117.892 25.8535 117.854C25.8916 117.815 25.9386 117.747 25.9678 117.53C25.9988 117.299 26 116.985 26 116.5V115.5C26 115.015 25.9988 114.701 25.9678 114.47C25.9386 114.253 25.8916 114.185 25.8535 114.146C25.8155 114.108 25.7471 114.061 25.5303 114.032C25.2991 114.001 24.9853 114 24.5 114Z" fill="currentColor"/>
  <path d="M32 113C32.2261 113 32.4207 113 32.5811 113.011C32.746 113.022 32.9113 113.047 33.0742 113.114C33.4416 113.266 33.7335 113.558 33.8857 113.926C33.9532 114.089 33.978 114.254 33.9893 114.419C34.0002 114.579 34 114.774 34 115C34 115.226 34.0002 115.421 33.9893 115.581C33.978 115.746 33.9532 115.911 33.8857 116.074C33.7335 116.442 33.4416 116.734 33.0742 116.886C32.9113 116.953 32.746 116.978 32.5811 116.989C32.4207 117 32.2261 117 32 117H31C30.7739 117 30.5793 117 30.4189 116.989C30.254 116.978 30.0887 116.953 29.9258 116.886C29.5584 116.734 29.2665 116.442 29.1143 116.074C29.0468 115.911 29.022 115.746 29.0107 115.581C28.9998 115.421 29 115.226 29 115C29 114.774 28.9998 114.579 29.0107 114.419C29.022 114.254 29.0468 114.089 29.1143 113.926C29.2665 113.558 29.5584 113.266 29.9258 113.114C30.0887 113.047 30.254 113.022 30.4189 113.011C30.5793 113 30.7739 113 31 113H32ZM31 114C30.7605 114 30.6057 114.001 30.4873 114.009C30.3733 114.017 30.3294 114.029 30.3086 114.038C30.1861 114.089 30.0888 114.186 30.0381 114.309C30.0295 114.329 30.0166 114.373 30.0088 114.487C30.0007 114.606 30 114.76 30 115C30 115.24 30.0007 115.394 30.0088 115.513C30.0166 115.627 30.0295 115.671 30.0381 115.691C30.0888 115.814 30.1861 115.911 30.3086 115.962C30.3294 115.971 30.3733 115.983 30.4873 115.991C30.6057 115.999 30.7605 116 31 116H32C32.2395 116 32.3943 115.999 32.5127 115.991C32.6267 115.983 32.6706 115.971 32.6914 115.962C32.8139 115.911 32.9112 115.814 32.9619 115.691C32.9705 115.671 32.9834 115.627 32.9912 115.513C32.9993 115.394 33 115.24 33 115C33 114.76 32.9993 114.606 32.9912 114.487C32.9834 114.373 32.9705 114.329 32.9619 114.309C32.9112 114.186 32.8139 114.089 32.6914 114.038C32.6706 114.029 32.6267 114.017 32.5127 114.009C32.3943 114.001 32.2395 114 32 114H31Z" fill="currentColor"/>
</svg>
