<svg xmlns="http://www.w3.org/2000/svg" width="16" height="16" viewBox="22.0 113.0 12.0 12.0" fill="none">
  <path d="M28.1155 116.001C28.3735 116.035 28.5661 116.181 28.7093 116.323C28.8641 116.477 29.0277 116.697 29.2015 116.929L31.2025 119.602C31.4536 119.937 31.6777 120.234 31.8128 120.483C31.9461 120.729 32.0788 121.082 31.8958 121.448C31.7124 121.815 31.3493 121.92 31.0726 121.961C30.7923 122.002 30.4209 122.001 30.0023 122.001H25.9984C25.5797 122.001 25.2083 122.002 24.928 121.961C24.6513 121.92 24.2883 121.815 24.1048 121.448C23.9217 121.082 24.0545 120.729 24.1878 120.483C24.3229 120.234 24.5471 119.937 24.7982 119.602L26.7991 116.929C26.9729 116.697 27.1365 116.477 27.2913 116.323C27.4345 116.181 27.6271 116.035 27.8851 116.001L28.0003 115.993L28.1155 116.001Z" fill="currentColor"/>
</svg>
