<svg xmlns="http://www.w3.org/2000/svg" width="16" height="16" viewBox="22.0 113.0 12.0 12.0" fill="none">
  <path d="M25.5518 115.105C25.9181 114.922 26.2708 115.054 26.5166 115.188C26.7656 115.323 27.0631 115.547 27.3984 115.798L30.0713 117.799C30.3034 117.973 30.5225 118.136 30.6768 118.291C30.8193 118.434 30.9648 118.627 30.999 118.885L31.0068 119L30.999 119.115C30.9648 119.373 30.8193 119.566 30.6768 119.709C30.5225 119.864 30.3034 120.028 30.0713 120.201L27.3984 122.202C27.0631 122.453 26.7656 122.678 26.5166 122.813C26.2709 122.946 25.918 123.079 25.5518 122.896C25.1853 122.712 25.0797 122.349 25.0391 122.072C24.998 121.792 24.999 121.421 24.999 121.002V116.998C24.999 116.58 24.998 116.208 25.0391 115.928C25.0797 115.651 25.1852 115.288 25.5518 115.105Z" fill="currentColor"/>
</svg>
