<svg xmlns="http://www.w3.org/2000/svg" width="16" height="16" viewBox="20.56 111.56 14.88 14.88" fill="none">
  <path d="M28.6191 120C29.2338 120 29.7523 119.999 30.1396 120.056C30.526 120.113 30.948 120.25 31.168 120.673C31.3879 121.095 31.2589 121.52 31.084 121.869C30.9086 122.219 30.6102 122.643 30.2578 123.146L29.6387 124.031C29.3686 124.417 29.1348 124.754 28.915 124.986C28.6876 125.227 28.3969 125.442 28 125.442C27.6031 125.442 27.3124 125.227 27.085 124.986C26.8652 124.754 26.6314 124.417 26.3613 124.031L25.7422 123.146C25.3898 122.643 25.0914 122.219 24.916 121.869C24.7411 121.52 24.6121 121.095 24.832 120.673C25.052 120.25 25.4739 120.113 25.8603 120.056C26.2477 119.999 26.7662 120 27.3809 120H28.6191ZM27.3809 121C26.7321 121 26.3028 121.001 26.0059 121.045C25.8623 121.066 25.7859 121.093 25.7471 121.113C25.7187 121.128 25.7187 121.135 25.7187 121.135C25.7187 121.135 25.714 121.141 25.7178 121.17C25.7234 121.213 25.7456 121.291 25.8105 121.421C25.9449 121.689 26.1895 122.042 26.5615 122.573L27.1807 123.458C27.4694 123.871 27.6552 124.133 27.8125 124.3C27.8869 124.378 27.936 124.415 27.9648 124.431C27.9867 124.443 27.9946 124.442 28 124.442C28.0054 124.442 28.0132 124.443 28.0352 124.431C28.064 124.415 28.1131 124.378 28.1875 124.3C28.3448 124.133 28.5306 123.871 28.8193 123.458L29.4385 122.573C29.8105 122.042 30.055 121.689 30.1894 121.421C30.2544 121.291 30.2766 121.213 30.2822 121.17C30.286 121.141 30.2812 121.135 30.2812 121.135C30.2812 121.135 30.2814 121.128 30.2529 121.113C30.2141 121.093 30.1377 121.066 29.9941 121.045C29.6972 121.001 29.2679 121 28.6191 121H27.3809Z" fill="currentColor"/>
  <path d="M28 112.558C28.3969 112.558 28.6876 112.773 28.915 113.014C29.1348 113.246 29.3686 113.583 29.6387 113.969L30.2578 114.854C30.6102 115.357 30.9086 115.781 31.084 116.131C31.2589 116.48 31.3879 116.905 31.168 117.327C30.948 117.75 30.526 117.887 30.1396 117.944C29.7523 118.001 29.2338 118 28.6191 118H27.3809C26.7662 118 26.2477 118.001 25.8603 117.944C25.4739 117.887 25.052 117.75 24.832 117.327C24.6121 116.905 24.7411 116.48 24.916 116.131C25.0914 115.781 25.3898 115.357 25.7422 114.854L26.3613 113.969C26.6314 113.583 26.8652 113.246 27.085 113.014C27.3124 112.773 27.6031 112.558 28 112.558ZM27.9648 113.569C27.936 113.585 27.8869 113.622 27.8125 113.7C27.6552 113.867 27.4694 114.129 27.1807 114.542L26.5615 115.427C26.1895 115.958 25.9449 116.311 25.8105 116.579C25.7456 116.709 25.7234 116.787 25.7178 116.83C25.714 116.859 25.7187 116.865 25.7187 116.865C25.7187 116.865 25.7187 116.872 25.7471 116.887C25.7859 116.907 25.8623 116.934 26.0059 116.955C26.3028 116.999 26.7321 117 27.3809 117H28.6191C29.2679 117 29.6972 116.999 29.9941 116.955C30.1377 116.934 30.2141 116.907 30.2529 116.887C30.2814 116.872 30.2812 116.865 30.2812 116.865C30.2812 116.865 30.286 116.859 30.2822 116.83C30.2766 116.787 30.2544 116.709 30.1894 116.579C30.055 116.311 29.8105 115.958 29.4385 115.427L28.8193 114.542C28.5306 114.129 28.3448 113.867 28.1875 113.7C28.1131 113.622 28.064 113.585 28.0352 113.569C28.0132 113.557 28.0054 113.558 28 113.558C27.9946 113.558 27.9867 113.557 27.9648 113.569Z" fill="currentColor"/>
</svg>
