<svg xmlns="http://www.w3.org/2000/svg" width="16" height="16" viewBox="22.0 113.0 12.0 12.0" fill="none">
  <path d="M30.0021 115.999C30.4208 115.999 30.7922 115.998 31.0725 116.039C31.3492 116.08 31.7123 116.185 31.8957 116.552C32.0787 116.918 31.9459 117.271 31.8127 117.517C31.6776 117.766 31.4534 118.063 31.2023 118.398L29.2014 121.071C29.0276 121.303 28.864 121.523 28.7092 121.677C28.566 121.819 28.3734 121.965 28.1154 121.999L28.0002 122.007L27.885 121.999C27.6269 121.965 27.4344 121.819 27.2912 121.677C27.1363 121.523 26.9728 121.303 26.799 121.071L24.798 118.398C24.5469 118.063 24.3228 117.766 24.1877 117.517C24.0544 117.271 23.9216 116.918 24.1047 116.552C24.2882 116.185 24.6512 116.08 24.9279 116.039C25.2082 115.998 25.5796 115.999 25.9982 115.999H30.0021Z" fill="currentColor"/>
</svg>
