<svg xmlns="http://www.w3.org/2000/svg" width="16" height="16" viewBox="20.0 111.0 16.0 16.0" fill="none">
  <path d="M28.4043 115.076C28.6926 114.927 28.9645 115.032 29.1074 115.104C29.2513 115.176 29.4176 115.295 29.5762 115.406L31.3877 116.681C31.5065 116.764 31.6432 116.859 31.7422 116.953C31.8494 117.055 31.9971 117.234 31.9971 117.499C31.9969 117.764 31.8494 117.943 31.7422 118.045C31.6431 118.139 31.5065 118.233 31.3877 118.316L29.5762 119.592C29.4175 119.703 29.2514 119.822 29.1074 119.895C28.9823 119.958 28.7586 120.045 28.5117 119.966L28.4043 119.921L28.3066 119.859C28.0998 119.703 28.043 119.47 28.0225 119.331C27.999 119.172 28 118.968 28 118.774V116.224C28 116.03 27.999 115.826 28.0225 115.667C28.0458 115.509 28.1159 115.226 28.4043 115.076Z" fill="currentColor"/>
  <path d="M30.5 112C31.4285 112 32.1751 111.999 32.7607 112.078C33.3608 112.159 33.8663 112.331 34.2676 112.732C34.6689 113.134 34.8412 113.639 34.9219 114.239C35.0006 114.825 35 115.572 35 116.5V118.5C35 119.428 35.0006 120.175 34.9219 120.761C34.8412 121.361 34.6689 121.866 34.2676 122.268C33.8663 122.669 33.3608 122.841 32.7607 122.922C32.5263 122.953 32.2659 122.969 31.9785 122.98C31.9678 123.267 31.9533 123.527 31.9219 123.761C31.8412 124.361 31.6689 124.866 31.2676 125.268C30.8663 125.669 30.3608 125.841 29.7607 125.922C29.1751 126.001 28.4285 126 27.5 126H25.5C24.5715 126 23.8249 126.001 23.2393 125.922C22.6392 125.841 22.1337 125.669 21.7324 125.268C21.3311 124.866 21.1588 124.361 21.0781 123.761C20.9994 123.175 21 122.428 21 121.5V119.5C21 118.572 20.9994 117.825 21.0781 117.239C21.1588 116.639 21.3311 116.134 21.7324 115.732C22.1337 115.331 22.6392 115.159 23.2393 115.078C23.4729 115.047 23.7323 115.031 24.0186 115.02C24.0298 114.733 24.0467 114.473 24.0781 114.239C24.1588 113.639 24.3311 113.134 24.7324 112.732C25.1337 112.331 25.6392 112.159 26.2393 112.078C26.8249 111.999 27.5715 112 28.5 112H30.5ZM24 116.021C23.7644 116.03 23.5571 116.043 23.3721 116.068C22.8829 116.134 22.624 116.255 22.4395 116.439C22.2549 116.624 22.1341 116.883 22.0684 117.372C22.0007 117.876 22 118.543 22 119.5V121.5C22 122.457 22.0007 123.124 22.0684 123.628C22.1341 124.117 22.2549 124.376 22.4395 124.561C22.624 124.745 22.8829 124.866 23.3721 124.932C23.8756 124.999 24.5431 125 25.5 125H27.5C28.4569 125 29.1244 124.999 29.6279 124.932C30.1171 124.866 30.376 124.745 30.5605 124.561C30.7451 124.376 30.8659 124.117 30.9316 123.628C30.9566 123.443 30.9685 123.235 30.9775 122.999C30.824 122.999 30.6649 123 30.5 123H28.5C27.5715 123 26.8249 123.001 26.2393 122.922C25.6392 122.841 25.1337 122.669 24.7324 122.268C24.3311 121.866 24.1588 121.361 24.0781 120.761C23.9994 120.175 24 119.428 24 118.5V116.021ZM28.5 113C27.5431 113 26.8756 113.001 26.3721 113.068C25.8829 113.134 25.624 113.255 25.4395 113.439C25.2549 113.624 25.1341 113.883 25.0684 114.372C25.0007 114.876 25 115.543 25 116.5V118.5C25 119.457 25.0007 120.124 25.0684 120.628C25.1341 121.117 25.2549 121.376 25.4395 121.561C25.624 121.745 25.8829 121.866 26.3721 121.932C26.8756 121.999 27.5431 122 28.5 122H30.5C31.4569 122 32.1244 121.999 32.6279 121.932C33.1171 121.866 33.376 121.745 33.5605 121.561C33.7451 121.376 33.8659 121.117 33.9316 120.628C33.9993 120.124 34 119.457 34 118.5V116.5C34 115.543 33.9993 114.876 33.9316 114.372C33.8659 113.883 33.7451 113.624 33.5605 113.439C33.376 113.255 33.1171 113.134 32.6279 113.068C32.1244 113.001 31.4569 113 30.5 113H28.5Z" fill="currentColor"/>
</svg>
