<svg xmlns="http://www.w3.org/2000/svg" width="16" height="16" viewBox="22.0 113.0 12.0 12.0" fill="none">
  <path d="M29.4834 115.188C29.7292 115.054 30.0819 114.922 30.4482 115.105C30.8148 115.288 30.9203 115.651 30.9609 115.928C31.002 116.208 31.001 116.58 31.001 116.998V121.002C31.001 121.421 31.002 121.792 30.9609 122.072C30.9203 122.349 30.8147 122.712 30.4482 122.896C30.082 123.079 29.7291 122.946 29.4834 122.813C29.2344 122.678 28.9369 122.453 28.6016 122.202L25.9287 120.201C25.6966 120.028 25.4775 119.864 25.3232 119.709C25.1807 119.566 25.0352 119.373 25.001 119.115L24.9932 119L25.001 118.885C25.0352 118.627 25.1807 118.434 25.3232 118.291C25.4775 118.136 25.6966 117.973 25.9287 117.799L28.6016 115.798C28.9369 115.547 29.2344 115.323 29.4834 115.188Z" fill="currentColor"/>
</svg>
