<svg xmlns="http://www.w3.org/2000/svg" width="16" height="16" viewBox="20.0 110.48 16.0 16.0" fill="none">
  <path d="M33.5 120C33.7761 120 34 120.224 34 120.5V123.5C34 123.776 33.7761 124 33.5 124H30.5C30.2239 124 30 123.776 30 123.5C30 123.224 30.2239 123 30.5 123H32.293L31.1465 121.853C30.9514 121.658 30.9513 121.342 31.1465 121.146C31.3417 120.951 31.6582 120.951 31.8535 121.146L33 122.293V120.5C33 120.224 33.2239 120 33.5 120Z" fill="currentColor"/>
  <path d="M28.6465 118.646C28.8417 118.451 29.1582 118.451 29.3535 118.646L30.3535 119.646C30.5488 119.842 30.5488 120.158 30.3535 120.353C30.1583 120.549 29.8417 120.549 29.6465 120.353L28.6465 119.353C28.4513 119.158 28.4513 118.842 28.6465 118.646Z" fill="currentColor"/>
  <path d="M32.1465 113.146C32.3417 112.951 32.6583 112.951 32.8535 113.146L34.8535 115.146L34.918 115.225C34.9523 115.277 34.9745 115.334 34.9873 115.393C34.9891 115.401 34.9898 115.409 34.9912 115.418C34.995 115.441 34.9974 115.463 34.998 115.486C34.9982 115.491 35 115.495 35 115.5C35 115.505 34.9982 115.51 34.998 115.516C34.9974 115.536 34.9954 115.557 34.9922 115.577C34.9901 115.591 34.9876 115.604 34.9844 115.617C34.9803 115.634 34.9746 115.65 34.9688 115.667C34.9648 115.678 34.9617 115.689 34.957 115.7C34.9501 115.716 34.9413 115.731 34.9326 115.746C34.9251 115.759 34.9179 115.773 34.9092 115.785C34.8926 115.809 34.8747 115.832 34.8535 115.853L32.8535 117.853C32.6583 118.049 32.3417 118.049 32.1465 117.853C31.9512 117.658 31.9512 117.342 32.1465 117.146L33.293 116H26.707L27.8535 117.146C28.0488 117.342 28.0488 117.658 27.8535 117.853C27.6583 118.049 27.3417 118.049 27.1465 117.853L25.293 116H21.5C21.2239 116 21 115.776 21 115.5C21 115.224 21.2239 115 21.5 115H33.293L32.1465 113.853C31.9512 113.658 31.9512 113.342 32.1465 113.146Z" fill="currentColor"/>
</svg>
