<svg xmlns="http://www.w3.org/2000/svg" width="16" height="16" viewBox="20.0 111.0 16.0 16.0" fill="none">
  <path d="M27.5 121C27.7761 121 28 121.224 28 121.5C28 121.776 27.7761 122 27.5 122H25.5C25.2239 122 25 121.776 25 121.5C25 121.224 25.2239 121 25.5 121H27.5Z" fill="currentColor"/>
  <path d="M27.5 115C27.7215 115 27.938 114.999 28.1152 115.022C28.3068 115.048 28.5254 115.111 28.707 115.293C28.8886 115.475 28.9518 115.693 28.9775 115.885C29.0014 116.062 29 116.278 29 116.5V117.5C29 117.722 29.0014 117.938 28.9775 118.115C28.9518 118.307 28.8886 118.525 28.707 118.707C28.5254 118.889 28.3068 118.952 28.1152 118.978C27.938 119.001 27.7215 119 27.5 119H25.5C25.2785 119 25.062 119.001 24.8848 118.978C24.6932 118.952 24.4746 118.889 24.293 118.707C24.1114 118.525 24.0482 118.307 24.0225 118.115C23.9986 117.938 24 117.722 24 117.5V116.5C24 116.278 23.9986 116.062 24.0225 115.885C24.0482 115.693 24.1114 115.475 24.293 115.293C24.4746 115.111 24.6932 115.048 24.8848 115.022C25.062 114.999 25.2785 115 25.5 115H27.5ZM25.5 116C25.2502 116 25.1127 116.001 25.0176 116.014H25.0137V116.018C25.0009 116.113 25 116.25 25 116.5V117.5C25 117.75 25.0009 117.887 25.0137 117.982V117.985L25.0176 117.986C25.1127 117.999 25.2502 118 25.5 118H27.5C27.7498 118 27.8873 117.999 27.9824 117.986L27.9854 117.985L27.9863 117.982C27.9991 117.887 28 117.75 28 117.5V116.5C28 116.25 27.9991 116.113 27.9863 116.018L27.9854 116.014H27.9824C27.8873 116.001 27.7498 116 27.5 116H25.5Z" fill="currentColor"/>
  <path d="M29.5 112C30.4285 112 31.1751 111.999 31.7607 112.078C32.3608 112.159 32.8663 112.331 33.2676 112.732C33.6689 113.134 33.8412 113.639 33.9219 114.239C33.9859 114.716 33.9969 115.299 33.999 116L34 122C33.9979 122.701 33.9859 123.284 33.9219 123.761C33.8412 124.361 33.6689 124.866 33.2676 125.268C32.8663 125.669 32.3608 125.841 31.7607 125.922C31.1751 126.001 30.4285 126 29.5 126H26.5C25.5715 126 24.8249 126.001 24.2393 125.922C23.6392 125.841 23.1337 125.669 22.7324 125.268C22.3311 124.866 22.1588 124.361 22.0781 123.761C21.9994 123.175 22 122.428 22 121.5V116.5C22 115.572 21.9994 114.825 22.0781 114.239C22.1588 113.639 22.3311 113.134 22.7324 112.732C23.1337 112.331 23.6392 112.159 24.2393 112.078C24.8249 111.999 25.5715 112 26.5 112H29.5ZM26.5 113C25.5431 113 24.8756 113.001 24.3721 113.068C23.8829 113.134 23.624 113.255 23.4395 113.439C23.2549 113.624 23.1341 113.883 23.0684 114.372C23.0007 114.876 23 115.543 23 116.5V121.5C23 122.457 23.0007 123.124 23.0684 123.628C23.1341 124.117 23.2549 124.376 23.4395 124.561C23.624 124.745 23.8829 124.866 24.3721 124.932C24.8756 124.999 25.5431 125 26.5 125H29.5C29.6762 125 29.8426 124.997 30 124.996V113.003C29.8426 113.002 29.6762 113 29.5 113H26.5ZM31 124.979C31.2356 124.969 31.4429 124.957 31.6279 124.932C32.1171 124.866 32.376 124.745 32.5605 124.561C32.7451 124.376 32.8659 124.117 32.9316 123.628C32.9869 123.217 32.9941 122.697 32.9961 122H31V124.979ZM31 121H33V117H31V121ZM31 116H32.9961C32.9941 115.303 32.9869 114.783 32.9316 114.372C32.8659 113.883 32.7451 113.624 32.5605 113.439C32.376 113.255 32.1171 113.134 31.6279 113.068C31.4429 113.043 31.2356 113.03 31 113.02V116Z" fill="currentColor"/>
</svg>
