<svg xmlns="http://www.w3.org/2000/svg" width="16" height="16" viewBox="19.95 110.95 16.1 16.1" fill="none">
  <path d="M29.5 112C30.4284 112 31.1751 111.999 31.7607 112.078C32.3608 112.159 32.8663 112.331 33.2675 112.732C33.3172 112.782 33.3626 112.834 33.4052 112.887L34.1464 112.146C34.3417 111.951 34.6582 111.951 34.8535 112.146C35.0487 112.342 35.0487 112.658 34.8535 112.854L21.8535 125.854C21.6582 126.049 21.3417 126.049 21.1464 125.854C20.9512 125.658 20.9512 125.342 21.1464 125.146L22.1484 124.144C22.1199 124.021 22.0959 123.893 22.0781 123.761C21.9994 123.175 22 122.428 22 121.5V116.5C22 115.572 21.9994 114.825 22.0781 114.239C22.1588 113.639 22.3311 113.134 22.7324 112.732C23.1337 112.331 23.6392 112.159 24.2392 112.078C24.8248 111.999 25.5715 112 26.5 112H29.5ZM26.5 113C25.5431 113 24.8756 113.001 24.372 113.068C23.8829 113.134 23.6239 113.255 23.4394 113.439C23.2549 113.624 23.1341 113.883 23.0683 114.372C23.0006 114.876 23 115.543 23 116.5V121.5C23 122.24 23.0017 122.807 23.0332 123.259L27.2929 119H25.5C25.2784 119 25.0619 119.001 24.8847 118.978C24.6931 118.952 24.4745 118.889 24.2929 118.707C24.1113 118.525 24.0482 118.307 24.0224 118.115C23.9986 117.938 24 117.722 24 117.5V116.5C24 116.278 23.9986 116.062 24.0224 115.885C24.0482 115.693 24.1113 115.475 24.2929 115.293C24.4745 115.111 24.6931 115.048 24.8847 115.022C25.0619 114.999 25.2784 115 25.5 115H27.5C27.7215 115 27.938 114.999 28.1152 115.022C28.3068 115.048 28.5254 115.111 28.707 115.293C28.8886 115.475 28.9517 115.693 28.9775 115.885C29.0013 116.062 29 116.278 29 116.5V117.293L30 116.293V113.003C29.8426 113.002 29.6762 113 29.5 113H26.5ZM25.5 116C25.2502 116 25.1126 116.001 25.0175 116.014H25.0136V116.018C25.0008 116.113 25 116.25 25 116.5V117.5C25 117.75 25.0008 117.887 25.0136 117.982V117.985L25.0175 117.986C25.1126 117.999 25.2502 118 25.5 118H27.5C27.7498 118 27.8873 117.999 27.9824 117.986L27.9853 117.985L27.9863 117.982C27.9991 117.887 28 117.75 28 117.5V116.5C28 116.25 27.9991 116.113 27.9863 116.018L27.9853 116.014H27.9824C27.8873 116.001 27.7498 116 27.5 116H25.5ZM31 115.293L32.6884 113.604C32.6491 113.543 32.6086 113.487 32.5605 113.439C32.376 113.255 32.1171 113.134 31.6279 113.068C31.4428 113.043 31.2355 113.03 31 113.02V115.293Z" fill="currentColor"/>
  <path d="M33.999 116L34 122C33.9979 122.701 33.9859 123.284 33.9218 123.761C33.8412 124.361 33.6688 124.866 33.2675 125.268C32.8663 125.669 32.3608 125.841 31.7607 125.922C31.1751 126.001 30.4284 126 29.5 126H26.5C25.5715 126 24.8248 126.001 24.2392 125.922C24.0386 125.895 23.849 125.856 23.6699 125.804L24.5273 124.946C25.0113 124.996 25.638 125 26.5 125H29.5C29.6762 125 29.8426 124.997 30 124.996V119.475L31 118.475V121H33V117H32.4746L33.9941 115.479C33.9966 115.645 33.9984 115.819 33.999 116ZM31 124.979C31.2355 124.969 31.4428 124.957 31.6279 124.932C32.1171 124.866 32.376 124.745 32.5605 124.561C32.745 124.376 32.8658 124.117 32.9316 123.628C32.9868 123.217 32.994 122.697 32.9961 122H31V124.979Z" fill="currentColor"/>
</svg>
