<svg xmlns="http://www.w3.org/2000/svg" width="16" height="16" viewBox="20.0 111.0 16.0 16.0" fill="none">
  <path d="M23.9795 121.085C24.2089 120.931 24.5192 120.992 24.6729 121.222C25.0603 121.8 25.5953 122.273 26.2227 122.585C26.4697 122.708 26.571 123.008 26.4482 123.255C26.3254 123.502 26.0246 123.603 25.7773 123.48C24.9929 123.091 24.3255 122.501 23.8418 121.778C23.6883 121.549 23.7503 121.239 23.9795 121.085Z" fill="currentColor"/>
  <path d="M28 117C29.1046 117 30 117.895 30 119C30 120.105 29.1046 121 28 121C26.8954 121 26 120.105 26 119C26 117.895 26.8954 117 28 117ZM28 118C27.4477 118 27 118.448 27 119C27 119.552 27.4477 120 28 120C28.5523 120 29 119.552 29 119C29 118.448 28.5523 118 28 118Z" fill="currentColor"/>
  <path d="M28 114C30.7614 114 33 116.239 33 119C33 119.276 32.7761 119.5 32.5 119.5C32.2239 119.5 32 119.276 32 119C32 116.791 30.2091 115 28 115C27.7239 115 27.5 114.776 27.5 114.5C27.5 114.224 27.7239 114 28 114Z" fill="currentColor"/>
  <path d="M28 112C31.866 112 35 115.134 35 119C35 122.866 31.866 126 28 126C24.134 126 21 122.866 21 119C21 115.134 24.134 112 28 112ZM28 113C24.6863 113 22 115.686 22 119C22 122.314 24.6863 125 28 125C31.3137 125 34 122.314 34 119C34 115.686 31.3137 113 28 113Z" fill="currentColor"/>
</svg>
