<svg xmlns="http://www.w3.org/2000/svg" width="16" height="16" viewBox="20.0 110.0 16.0 16.0" fill="none">
  <path d="M29.5 113C29.7761 113 30 113.224 30 113.5C30 113.776 29.7761 114 29.5 114H26.5C26.2239 114 26 113.776 26 113.5C26 113.224 26.2239 113 26.5 113H29.5Z" fill="currentColor"/>
  <path d="M28.5 111C29.4285 111 30.1751 110.999 30.7607 111.078C31.3608 111.159 31.8663 111.331 32.2676 111.732C32.6689 112.134 32.8412 112.639 32.9219 113.239C33.0006 113.825 33 114.572 33 115.5V120.5C33 121.428 33.0006 122.175 32.9219 122.761C32.8412 123.361 32.6689 123.866 32.2676 124.268C31.8663 124.669 31.3608 124.841 30.7607 124.922C30.1751 125.001 29.4285 125 28.5 125H27.5C26.5715 125 25.8249 125.001 25.2393 124.922C24.6392 124.841 24.1337 124.669 23.7324 124.268C23.3311 123.866 23.1588 123.361 23.0781 122.761C22.9994 122.175 23 121.428 23 120.5V115.5C23 114.572 22.9994 113.825 23.0781 113.239C23.1588 112.639 23.3311 112.134 23.7324 111.732C24.1337 111.331 24.6392 111.159 25.2393 111.078C25.8249 110.999 26.5715 111 27.5 111H28.5ZM27.5 112C26.5431 112 25.8756 112.001 25.3721 112.068C24.8829 112.134 24.624 112.255 24.4395 112.439C24.2549 112.624 24.1341 112.883 24.0684 113.372C24.0007 113.876 24 114.543 24 115.5V120.5C24 121.457 24.0007 122.124 24.0684 122.628C24.1341 123.117 24.2549 123.376 24.4395 123.561C24.624 123.745 24.8829 123.866 25.3721 123.932C25.8756 123.999 26.5431 124 27.5 124H28.5C29.4569 124 30.1244 123.999 30.6279 123.932C31.1171 123.866 31.376 123.745 31.5605 123.561C31.7451 123.376 31.8659 123.117 31.9316 122.628C31.9993 122.124 32 121.457 32 120.5V115.5C32 114.543 31.9993 113.876 31.9316 113.372C31.8659 112.883 31.7451 112.624 31.5605 112.439C31.376 112.255 31.1171 112.134 30.6279 112.068C30.1244 112.001 29.4569 112 28.5 112H27.5Z" fill="currentColor"/>
</svg>
