<svg xmlns="http://www.w3.org/2000/svg" width="16" height="16" viewBox="19.95 110.98 16.05 16.05" fill="none">
  <path d="M29.5 116.5C29.7761 116.5 30 116.724 30 117V117.5C30 118.041 30.0123 118.143 30.0527 118.224C30.0931 118.304 30.167 118.376 30.5996 118.7L31.7998 119.6C32.0205 119.765 32.0657 120.079 31.9004 120.3C31.7348 120.521 31.4211 120.566 31.2002 120.4L30 119.5C29.6476 119.236 29.3289 119.012 29.1582 118.671C28.9874 118.329 29 117.941 29 117.5V117C29 116.724 29.2238 116.5 29.5 116.5Z" fill="currentColor"/>
  <path d="M30 114C32.7614 114 35 116.239 35 119C35 121.761 32.7614 124 30 124C27.2385 124 25 121.761 25 119C25 116.239 27.2385 114 30 114ZM30 115C27.7908 115 26 116.791 26 119C26 121.209 27.7908 123 30 123C32.2091 123 34 121.209 34 119C34 116.791 32.2091 115 30 115Z" fill="currentColor"/>
  <path d="M23.1464 117.146C23.3417 116.951 23.6582 116.951 23.8535 117.146C24.0487 117.342 24.0487 117.658 23.8535 117.854L22.207 119.5L23.8535 121.146C24.0487 121.342 24.0487 121.658 23.8535 121.854C23.6582 122.049 23.3417 122.049 23.1464 121.854L21.1464 119.854C20.9512 119.658 20.9512 119.342 21.1464 119.146L23.1464 117.146Z" fill="currentColor"/>
</svg>
