<svg xmlns="http://www.w3.org/2000/svg" width="16" height="16" viewBox="19.0 110.5 18.0 18.0" fill="none">
  <path d="M23.502 120C23.6978 120 23.876 120.115 23.957 120.293C24.2775 120.998 24.4135 121.293 24.5918 121.548C24.8268 121.884 25.1189 122.176 25.4551 122.411C25.7101 122.589 26.0049 122.725 26.71 123.046C26.8884 123.127 27.0029 123.306 27.0029 123.502C27.0027 123.698 26.8883 123.876 26.71 123.957C26.0049 124.278 25.7101 124.414 25.4551 124.592C25.1189 124.827 24.8268 125.119 24.5918 125.455C24.4135 125.71 24.2775 126.005 23.957 126.71C23.876 126.888 23.6978 127.003 23.502 127.003C23.3059 127.003 23.127 126.888 23.0459 126.71C22.7254 126.005 22.5894 125.71 22.4111 125.455C22.1762 125.119 21.884 124.827 21.5479 124.592C21.2928 124.414 20.998 124.278 20.293 123.957C20.1146 123.876 20.0002 123.698 20 123.502C20 123.306 20.1145 123.127 20.293 123.046C20.998 122.725 21.2928 122.589 21.5479 122.411C21.884 122.176 22.1762 121.884 22.4111 121.548C22.5894 121.293 22.7254 120.998 23.0459 120.293L23.0811 120.229C23.1721 120.088 23.3303 120 23.502 120ZM23.501 121.664C23.4123 121.833 23.3288 121.982 23.2314 122.121C22.9293 122.553 22.5534 122.929 22.1211 123.231C21.9818 123.329 21.8331 123.412 21.6641 123.501C21.8332 123.59 21.9817 123.674 22.1211 123.771C22.5534 124.074 22.9293 124.45 23.2314 124.882C23.3287 125.021 23.4125 125.169 23.501 125.338C23.5896 125.169 23.6742 125.021 23.7715 124.882C24.0736 124.45 24.4496 124.074 24.8818 123.771C25.0211 123.674 25.169 123.59 25.3379 123.501C25.1692 123.412 25.0209 123.329 24.8818 123.231C24.4496 122.929 24.0736 122.553 23.7715 122.121C23.674 121.982 23.5897 121.833 23.501 121.664Z" fill="currentColor"/>
  <path d="M28.5 112C32.6421 112 36 115.358 36 119.5C36 123.642 32.6421 127 28.5 127C27.3432 127 26.2479 126.737 25.2695 126.27C25.325 126.163 25.3662 126.093 25.4111 126.028C25.5583 125.818 25.7386 125.633 25.9424 125.477C26.7275 125.813 27.5918 126 28.5 126C32.0899 126 35 123.09 35 119.5C35 115.91 32.0899 113 28.5 113C28.2239 113 28 112.776 28 112.5C28 112.224 28.2239 112 28.5 112Z" fill="currentColor"/>
  <path d="M28.5 116C28.7761 116 29 116.224 29 116.5V117.127C29 118.094 29.0112 118.421 29.1416 118.699C29.2722 118.978 29.5162 119.196 30.2598 119.815L31.8203 121.116C32.0322 121.293 32.0605 121.608 31.8838 121.82C31.707 122.032 31.3917 122.06 31.1797 121.884L29.6191 120.584C28.9474 120.024 28.4835 119.651 28.2363 119.124C27.9893 118.597 28 118.001 28 117.127V116.5C28 116.224 28.2239 116 28.5 116Z" fill="currentColor"/>
  <path d="M24.5 113C24.7761 113 25 113.224 25 113.5V116.5C25 116.776 24.7761 117 24.5 117C24.2239 117 24 116.776 24 116.5V114.811C22.7671 115.994 22 117.657 22 119.5C22 119.705 22.0097 119.908 22.0283 120.108C21.7757 120.661 21.692 120.831 21.5918 120.975C21.4888 121.122 21.3681 121.255 21.2363 121.377C21.0818 120.777 21 120.148 21 119.5C21 117.326 21.9259 115.369 23.4023 114H21.5C21.2239 114 21 113.776 21 113.5C21 113.224 21.2239 113 21.5 113H24.5Z" fill="currentColor"/>
</svg>
