<svg xmlns="http://www.w3.org/2000/svg" width="16" height="16" viewBox="20.0 110.98 16.05 16.05" fill="none">
  <path d="M25.5 116.5C25.7761 116.5 26 116.724 26 117V117.5C26 118.041 26.0123 118.143 26.0527 118.224C26.0931 118.304 26.167 118.376 26.5996 118.7L27.7998 119.6C28.0206 119.765 28.0658 120.079 27.9004 120.3C27.7348 120.521 27.4211 120.566 27.2002 120.4L26 119.5C25.6476 119.236 25.329 119.012 25.1582 118.671C24.9874 118.329 25 117.941 25 117.5V117C25 116.724 25.2239 116.5 25.5 116.5Z" fill="currentColor"/>
  <path d="M26 114C28.7614 114 31 116.239 31 119C31 121.761 28.7614 124 26 124C23.2386 124 21 121.761 21 119C21 116.239 23.2386 114 26 114ZM26 115C23.7909 115 22 116.791 22 119C22 121.209 23.7909 123 26 123C28.2091 123 30 121.209 30 119C30 116.791 28.2091 115 26 115Z" fill="currentColor"/>
  <path d="M32.1465 117.146C32.3417 116.951 32.6583 116.951 32.8535 117.146L34.8535 119.146C35.0488 119.342 35.0488 119.658 34.8535 119.854L32.8535 121.854C32.6583 122.049 32.3417 122.049 32.1465 121.854C31.9512 121.658 31.9512 121.342 32.1465 121.146L33.793 119.5L32.1465 117.854C31.9512 117.658 31.9512 117.342 32.1465 117.146Z" fill="currentColor"/>
</svg>
