<svg xmlns="http://www.w3.org/2000/svg" width="16" height="16" viewBox="19.5 111.5 17.0 17.0" fill="none">
  <path d="M33 114C33.2074 114 33.4634 113.998 33.6816 114.027C33.9287 114.061 34.2706 114.149 34.5605 114.439C34.8505 114.729 34.9394 115.071 34.9727 115.318C35.002 115.537 35 115.793 35 116V126C35.2761 126 35.5 126.224 35.5 126.5C35.5 126.776 35.2761 127 35 127H21C20.7239 127 20.5 126.776 20.5 126.5C20.5 126.224 20.7239 126 21 126V121C21 120.793 20.998 120.537 21.0273 120.318C21.0606 120.071 21.1495 119.729 21.4395 119.439C21.7294 119.149 22.0713 119.061 22.3184 119.027C22.5366 118.998 22.7926 119 23 119C23.2074 119 23.4634 118.998 23.6816 119.027C23.9287 119.061 24.2706 119.149 24.5605 119.439C24.8505 119.729 24.9394 120.071 24.9727 120.318C25.002 120.537 25 120.793 25 121V126H26V119C26 118.793 25.998 118.537 26.0273 118.318C26.0606 118.071 26.1495 117.729 26.4395 117.439C26.7294 117.149 27.0713 117.061 27.3184 117.027C27.5366 116.998 27.7926 117 28 117C28.2074 117 28.4634 116.998 28.6816 117.027C28.9287 117.061 29.2706 117.149 29.5605 117.439C29.8505 117.729 29.9394 118.071 29.9727 118.318C30.002 118.537 30 118.793 30 119V126H31V116C31 115.793 30.998 115.537 31.0273 115.318C31.0606 115.071 31.1495 114.729 31.4395 114.439C31.7294 114.149 32.0713 114.061 32.3184 114.027C32.5366 113.998 32.7926 114 33 114ZM23 120C22.5286 120 22.2929 120 22.1465 120.146C22 120.293 22 120.529 22 121V126H24V121C24 120.529 24 120.293 23.8535 120.146C23.7071 120 23.4714 120 23 120ZM28 118C27.5286 118 27.2929 118 27.1465 118.146C27 118.293 27 118.529 27 119V126H29V119C29 118.529 29 118.293 28.8535 118.146C28.7071 118 28.4714 118 28 118ZM33 115C32.5286 115 32.2929 115 32.1465 115.146C32 115.293 32 115.529 32 116V126H34V116C34 115.529 34 115.293 33.8535 115.146C33.7071 115 33.4714 115 33 115Z" fill="currentColor"/>
  <path d="M29.5 113C29.7761 113 30 113.224 30 113.5V115.5C30 115.776 29.7761 116 29.5 116C29.2239 116 29 115.776 29 115.5V114.657L28.8857 114.756C26.8151 116.531 24.2686 117.658 21.5625 117.996C21.2887 118.03 21.0384 117.836 21.0039 117.562C20.9697 117.289 21.1638 117.038 21.4375 117.004C23.9475 116.69 26.3103 115.645 28.2314 114H27.5C27.2239 114 27 113.776 27 113.5C27 113.224 27.2239 113 27.5 113H29.5Z" fill="currentColor"/>
</svg>
