<svg xmlns="http://www.w3.org/2000/svg" width="16" height="16" viewBox="20.0 111.0 16.05 16.05" fill="none">
  <path d="M33.5 112C34.3284 112 35 112.672 35 113.5V114.5C35 115.328 34.3284 116 33.5 116H25V124.5C25 125.328 24.3284 126 23.5 126H22.5C21.6716 126 21 125.328 21 124.5V113.5C21 112.672 21.6716 112 22.5 112H33.5ZM22 116V124.5C22 124.776 22.2239 125 22.5 125H23.5C23.7761 125 24 124.776 24 124.5V116H22ZM25 115H33.5C33.7761 115 34 114.776 34 114.5V113.5C34 113.224 33.7761 113 33.5 113H25V115ZM22.5 113C22.2239 113 22 113.224 22 113.5V115H24V113H22.5Z" fill="currentColor"/>
  <path d="M32.2246 117.082C32.4187 116.954 32.6827 116.976 32.8535 117.146L34.8535 119.146C35.0488 119.342 35.0488 119.658 34.8535 119.854C34.6583 120.049 34.3417 120.049 34.1465 119.854L33 118.707V122C33 123.105 32.1046 124 31 124H27.7061L28.8535 125.146C29.0488 125.342 29.0488 125.658 28.8535 125.854C28.6583 126.049 28.3417 126.049 28.1465 125.854L26.1465 123.854L26.084 123.777C26.0292 123.695 25.9995 123.597 26 123.497C26.0008 123.364 26.0551 123.236 26.1504 123.143L28.1914 121.143C28.3887 120.949 28.7052 120.953 28.8984 121.15C29.0917 121.348 29.0889 121.664 28.8916 121.857L27.7246 123H31C31.5523 123 32 122.552 32 122V118.707L30.8535 119.854C30.6583 120.049 30.3417 120.049 30.1465 119.854C29.9512 119.658 29.9512 119.342 30.1465 119.146L32.1465 117.146L32.2246 117.082Z" fill="currentColor"/>
</svg>
