<svg xmlns="http://www.w3.org/2000/svg" width="16" height="16" viewBox="19.96 110.98 16.04 16.04" fill="none">
  <path d="M24.5 123C24.7762 123 25 123.224 25 123.5C25 123.776 24.7762 124 24.5 124H22.5C22.2239 124 22 123.776 22 123.5C22 123.224 22.2239 123 22.5 123H24.5Z" fill="currentColor"/>
  <path d="M33.5 123C33.7762 123 34 123.224 34 123.5C34 123.776 33.7762 124 33.5 124H31.5C31.2239 124 31 123.776 31 123.5C31 123.224 31.2239 123 31.5 123H33.5Z" fill="currentColor"/>
  <path d="M27.9854 114C28.1602 114 28.3347 114.007 28.5078 114.02C28.7388 114.037 29.0566 114.056 29.3223 114.128C29.6193 114.208 29.9448 114.376 30.1739 114.711L30.2657 114.865L30.3418 115.04C30.4876 115.445 30.4116 115.823 30.3057 116.098C30.2049 116.359 30.0305 116.642 29.8936 116.87L29.2422 117.956C28.9915 118.374 28.574 118.597 28.1612 118.646L27.9854 118.657C27.3542 118.657 26.7478 118.909 26.3008 119.355C26.0221 119.634 25.819 119.975 25.7061 120.346C25.6312 120.592 25.5582 120.836 25.4834 121.025C25.4203 121.186 25.2832 121.515 24.9727 121.745C24.6914 121.954 24.3891 122.004 24.1993 122.022C24.015 122.041 23.7959 122.04 23.6036 122.04H22.9453C22.7369 122.04 22.4613 122.043 22.2256 122.006C21.9422 121.961 21.5876 121.841 21.3067 121.51C21.0429 121.198 20.9678 120.853 20.9659 120.555C20.9643 120.319 21.0111 120.059 21.0411 119.88C21.2813 118.443 21.9643 117.105 23.0078 116.062C24.3281 114.742 26.1188 114 27.9854 114ZM27.9854 115C26.3839 115 24.8475 115.636 23.7149 116.769L23.5498 116.939C22.7472 117.808 22.2206 118.889 22.0274 120.045L21.9834 120.328C21.9502 120.577 21.958 120.731 22.0703 120.863C22.1826 120.996 22.3466 121.029 22.625 121.037L22.9453 121.04H23.6036L23.8858 121.038C24.1322 121.033 24.2776 121.015 24.377 120.941C24.4762 120.868 24.5465 120.701 24.6426 120.401L24.75 120.055C24.8902 119.594 25.1278 119.166 25.4502 118.801L25.5938 118.648C26.1884 118.054 26.9816 117.703 27.8174 117.661L27.9854 117.657C28.1264 117.657 28.2622 117.598 28.3496 117.491L28.3848 117.441L29.0362 116.355C29.3491 115.834 29.5062 115.573 29.378 115.325C29.2817 115.139 29.1039 115.081 28.792 115.047L28.4336 115.017C28.3595 115.011 28.2846 115.007 28.21 115.004L27.9854 115Z" fill="currentColor"/>
  <path d="M32.5254 116.116C32.928 116.16 33.2286 116.367 33.4395 116.59C33.6283 116.79 33.7958 117.059 33.92 117.254C34.4286 118.051 34.7723 118.945 34.9287 119.88C34.9587 120.059 35.0055 120.319 35.0039 120.555C35.002 120.853 34.9267 121.198 34.6631 121.51C34.3822 121.841 34.0276 121.961 33.7442 122.006C33.5087 122.043 33.2339 122.04 33.0254 122.04H32.3682C32.1757 122.04 31.9559 122.041 31.7715 122.022C31.5819 122.004 31.2804 121.954 30.9991 121.746C30.6881 121.516 30.5506 121.186 30.4873 121.026C30.4124 120.837 30.3389 120.593 30.2637 120.347C30.2419 120.275 30.2169 120.205 30.1885 120.136C30.1267 119.986 30.0611 119.827 30.0157 119.692C29.9736 119.567 29.9038 119.339 29.9239 119.072L29.9483 118.9C29.9818 118.738 30.0392 118.606 30.087 118.51C30.1459 118.391 30.2245 118.261 30.2881 118.155L30.7559 117.377C30.8923 117.15 31.0593 116.864 31.2422 116.652C31.4619 116.398 31.8184 116.116 32.3457 116.108L32.5254 116.116ZM32.3594 117.108C32.0811 117.112 31.9244 117.372 31.6123 117.892L31.1455 118.67L30.9825 118.954C30.9454 119.029 30.9254 119.088 30.9209 119.147C30.912 119.266 30.979 119.429 31.1133 119.756C31.1536 119.854 31.1898 119.953 31.2207 120.055C31.3815 120.581 31.4613 120.844 31.5938 120.942C31.6931 121.016 31.8388 121.033 32.085 121.038L32.3682 121.04H33.0254L33.3448 121.037C33.5766 121.03 33.7296 121.006 33.8389 120.922L33.8995 120.863C34.0116 120.731 34.0205 120.577 33.9873 120.328L33.9424 120.045C33.825 119.343 33.584 118.669 33.2334 118.053L33.0772 117.792C32.7849 117.334 32.6376 117.105 32.3594 117.108Z" fill="currentColor"/>
</svg>
