<svg xmlns="http://www.w3.org/2000/svg" width="16" height="16" viewBox="20.0 111.0 16.0 16.0" fill="none">
  <path d="M22.5 125C22.7761 125 23 125.224 23 125.5C23 125.776 22.7761 126 22.5 126H21.5C21.2239 126 21 125.776 21 125.5C21 125.224 21.2239 125 21.5 125H22.5Z" fill="currentColor"/>
  <path d="M26.5 125C26.7761 125 27 125.224 27 125.5C27 125.776 26.7761 126 26.5 126H25.5C25.2239 126 25 125.776 25 125.5C25 125.224 25.2239 125 25.5 125H26.5Z" fill="currentColor"/>
  <path d="M30.5 125C30.7761 125 31 125.224 31 125.5C31 125.776 30.7761 126 30.5 126H29.5C29.2239 126 29 125.776 29 125.5C29 125.224 29.2239 125 29.5 125H30.5Z" fill="currentColor"/>
  <path d="M34.5 125C34.7761 125 35 125.224 35 125.5C35 125.776 34.7761 126 34.5 126H33.5C33.2239 126 33 125.776 33 125.5C33 125.224 33.2239 125 33.5 125H34.5Z" fill="currentColor"/>
  <path d="M23.8027 121.138C23.57 122.224 22.6107 123 21.5 123C21.2239 123 21 122.776 21 122.5C21 122.224 21.2239 122 21.5 122C22.1391 122 22.6912 121.554 22.8252 120.929L23.0244 120H24.0469L23.8027 121.138Z" fill="currentColor"/>
  <path d="M29.1406 120C29.2876 120.588 29.8152 121 30.4209 121C31.032 121 31.557 120.582 31.7021 120H32.7188L32.7178 120.008C32.5545 121.151 31.5756 122 30.4209 122C29.3563 122 28.4281 121.275 28.1699 120.242L28.1094 120H29.1406Z" fill="currentColor"/>
  <path d="M34.5 114C34.7761 114 35 114.224 35 114.5C35 114.776 34.7761 115 34.5 115C33.8881 115 33.3697 115.45 33.2832 116.056L33.0049 118H34.5C34.7761 118 35 118.224 35 118.5C35 118.776 34.7761 119 34.5 119H21.5C21.2239 119 21 118.776 21 118.5C21 118.224 21.2239 118 21.5 118H23.4531L23.6914 116.888C23.9273 115.787 24.9005 115 26.0264 115C27.1219 115 28.0771 115.746 28.3428 116.809L28.6406 118H31.9951L32.293 115.914C32.4499 114.816 33.3905 114 34.5 114ZM26.0264 116C25.3721 116 24.8061 116.457 24.6689 117.097L24.4756 118H27.6094L27.3721 117.051C27.2175 116.433 26.6629 116 26.0264 116Z" fill="currentColor"/>
  <path d="M22.5 112C22.7761 112 23 112.224 23 112.5C23 112.776 22.7761 113 22.5 113H21.5C21.2239 113 21 112.776 21 112.5C21 112.224 21.2239 112 21.5 112H22.5Z" fill="currentColor"/>
  <path d="M26.5 112C26.7761 112 27 112.224 27 112.5C27 112.776 26.7761 113 26.5 113H25.5C25.2239 113 25 112.776 25 112.5C25 112.224 25.2239 112 25.5 112H26.5Z" fill="currentColor"/>
  <path d="M30.5 112C30.7761 112 31 112.224 31 112.5C31 112.776 30.7761 113 30.5 113H29.5C29.2239 113 29 112.776 29 112.5C29 112.224 29.2239 112 29.5 112H30.5Z" fill="currentColor"/>
  <path d="M34.5 112C34.7761 112 35 112.224 35 112.5C35 112.776 34.7761 113 34.5 113H33.5C33.2239 113 33 112.776 33 112.5C33 112.224 33.2239 112 33.5 112H34.5Z" fill="currentColor"/>
</svg>
