<svg xmlns="http://www.w3.org/2000/svg" width="16" height="16" viewBox="20.0 111.0 16.0 16.0" fill="none">
  <path d="M28 112C29.3807 112 30.5 113.119 30.5 114.5C30.5 115.194 30.2169 115.821 29.7607 116.273L32.2549 121.012C32.3355 121.004 32.4173 121 32.5 121C33.8807 121 35 122.119 35 123.5C35 124.881 33.8807 126 32.5 126C31.2905 126 30.2814 125.141 30.0498 124H25.9502C25.7186 125.141 24.7095 126 23.5 126C22.1193 126 21 124.881 21 123.5C21 122.119 22.1193 121 23.5 121C23.582 121 23.6632 121.004 23.7432 121.012L26.2383 116.272C25.7827 115.82 25.5 115.193 25.5 114.5C25.5 113.119 26.6193 112 28 112ZM23.5 122C22.6716 122 22 122.672 22 123.5C22 124.328 22.6716 125 23.5 125C24.3284 125 25 124.328 25 123.5C25 122.672 24.3284 122 23.5 122ZM32.5 122C31.6716 122 31 122.672 31 123.5C31 124.328 31.6716 125 32.5 125C33.3284 125 34 124.328 34 123.5C34 122.672 33.3284 122 32.5 122ZM28.9199 116.822C28.6349 116.935 28.3252 117 28 117C27.6741 117 27.3636 116.936 27.0781 116.822L24.7139 121.315C25.341 121.665 25.803 122.275 25.9502 123H30.0498C30.1969 122.275 30.6578 121.665 31.2842 121.315L28.9199 116.822ZM28 113C27.1716 113 26.5 113.672 26.5 114.5C26.5 115.328 27.1716 116 28 116C28.8284 116 29.5 115.328 29.5 114.5C29.5 113.672 28.8284 113 28 113Z" fill="currentColor"/>
</svg>
