<svg xmlns="http://www.w3.org/2000/svg" width="16" height="16" viewBox="20.02 110.52 15.96 15.96" fill="none">
  <path d="M31.1465 117.146C31.3418 116.951 31.6583 116.951 31.8535 117.146C32.0488 117.342 32.0488 117.658 31.8535 117.854L29.7207 119.985C29.8967 120.283 30 120.629 30 121C30 122.105 29.1046 123 28 123C26.8955 123 26 122.105 26 121C26 119.895 26.8955 119 28 119C28.3705 119 28.7162 119.103 29.0137 119.278L31.1465 117.146ZM28 120C27.4478 120 27 120.448 27 121C27 121.552 27.4478 122 28 122C28.5523 122 29 121.552 29 121C29 120.448 28.5523 120 28 120Z" fill="currentColor"/>
  <path d="M28 114C29.8565 114 31.6375 114.737 32.9502 116.05C33.986 117.086 34.6635 118.413 34.9033 119.839C34.9334 120.018 34.9809 120.278 34.9795 120.514C34.9778 120.812 34.9022 121.157 34.6387 121.469C34.3577 121.801 34.0026 121.921 33.7188 121.966C33.483 122.003 33.2084 122 33 122H30.8262C30.937 121.687 31 121.351 31 121H33C33.4229 121 33.6612 121 33.8145 120.882L33.875 120.823C33.9873 120.69 33.9953 120.537 33.9619 120.288L33.917 120.005C33.7243 118.859 33.2014 117.788 32.4053 116.927L32.2422 116.758C31.117 115.633 29.5913 115 28 115C26.4088 115 24.883 115.633 23.7578 116.758L23.5948 116.927C22.7987 117.788 22.2758 118.859 22.083 120.005L22.0381 120.288C22.0047 120.537 22.0128 120.69 22.125 120.823C22.2374 120.956 22.4018 120.989 22.6807 120.997L23 121H25C25 121.351 25.0631 121.687 25.1739 122H23C22.7917 122 22.517 122.003 22.2813 121.966C21.9975 121.921 21.6423 121.801 21.3614 121.469C21.0979 121.157 21.0223 120.812 21.0205 120.514C21.0192 120.278 21.0666 120.018 21.0967 119.839C21.3366 118.413 22.0141 117.086 23.0498 116.05C24.3626 114.737 26.1436 114 28 114Z" fill="currentColor"/>
</svg>
