<svg xmlns="http://www.w3.org/2000/svg" width="16" height="16" viewBox="19.5 110.75 17.5 17.5" fill="none">
  <path d="M33.1465 121.147C33.3417 120.951 33.6583 120.951 33.8535 121.147C34.0485 121.342 34.0486 121.658 33.8535 121.854L31.3535 124.354C31.1583 124.549 30.8418 124.549 30.6465 124.354L29.1465 122.854C28.9514 122.658 28.9513 122.342 29.1465 122.147C29.3417 121.951 29.6583 121.951 29.8535 122.147L31 123.293L33.1465 121.147Z" fill="currentColor"/>
  <path d="M31.5 118C33.9853 118 36 120.015 36 122.5C36 124.985 33.9853 127 31.5 127C29.0147 127 27 124.985 27 122.5C27 120.015 29.0147 118 31.5 118ZM31.5 119C29.567 119 28 120.567 28 122.5C28 124.433 29.567 126 31.5 126C33.433 126 35 124.433 35 122.5C35 120.567 33.433 119 31.5 119Z" fill="currentColor"/>
  <path d="M23 112C23.2074 112 23.4634 111.998 23.6816 112.027C23.9287 112.061 24.2706 112.15 24.5605 112.439C24.8505 112.729 24.9394 113.071 24.9727 113.318C25.002 113.537 25 113.793 25 114V124H26V117C26 116.793 25.998 116.537 26.0273 116.318C26.0606 116.071 26.1495 115.729 26.4395 115.439C26.7294 115.15 27.0713 115.061 27.3184 115.027C27.5366 114.998 27.7926 115 28 115C28.2074 115 28.4634 114.998 28.6816 115.027C28.9287 115.061 29.2706 115.15 29.5605 115.439C29.8505 115.729 29.9394 116.071 29.9727 116.318C30.002 116.537 30 116.793 30 117V117.208C29.6513 117.307 29.3168 117.439 29 117.601V117C29 116.529 28.9999 116.293 28.8535 116.147C28.7071 116 28.4713 116 28 116C27.5287 116 27.2929 116 27.1465 116.147C27.0001 116.293 27 116.529 27 117V119.339C26.3705 120.233 26 121.323 26 122.5C26 123.401 26.2179 124.25 26.6016 125H21C20.7239 125 20.5 124.776 20.5 124.5C20.5001 124.224 20.7239 124 21 124V114C21 113.793 20.998 113.537 21.0273 113.318C21.0606 113.071 21.1495 112.729 21.4395 112.439C21.7294 112.15 22.0713 112.061 22.3184 112.027C22.5366 111.998 22.7926 112 23 112ZM23 113C22.5287 113 22.2929 113 22.1465 113.147C22.0001 113.293 22 113.529 22 114V124H24V114C24 113.529 23.9999 113.293 23.8535 113.147C23.7071 113 23.4713 113 23 113Z" fill="currentColor"/>
</svg>
