<svg xmlns="http://www.w3.org/2000/svg" width="16" height="16" viewBox="19.86 110.37 16.26 16.26" fill="none">
  <path d="M31.935 112C32.4949 112 33.0302 111.997 33.4448 112.059C33.8391 112.117 34.3924 112.27 34.7387 112.788L34.8051 112.897L34.8627 113.01C35.1221 113.576 34.962 114.127 34.8051 114.493C34.6401 114.879 34.3576 115.334 34.0639 115.811L31.0766 120.662C31.0483 120.708 31.027 120.743 31.0092 120.772C31.007 120.776 31.0044 120.78 31.0024 120.783V122.5C31.0024 122.825 31.0047 123.17 30.9663 123.456C30.9239 123.771 30.8161 124.161 30.4897 124.487C30.1632 124.814 29.7735 124.921 29.4584 124.964C29.1723 125.002 28.8275 125 28.5024 125H27.4995C27.1743 125 26.8287 125.002 26.5424 124.964C26.2274 124.921 25.8376 124.814 25.5112 124.487C25.1848 124.161 25.0779 123.771 25.0356 123.456C25.0164 123.313 25.0067 123.156 25.0024 122.993L24.9994 122.5V120.925C24.9994 120.871 24.9988 120.83 24.9985 120.796C24.9984 120.791 24.9976 120.786 24.9975 120.781C24.9959 120.779 24.9943 120.775 24.9926 120.772C24.9749 120.743 24.9534 120.709 24.9252 120.663L21.9379 115.811C21.6442 115.333 21.3609 114.879 21.1957 114.493C21.0284 114.102 20.8575 113.502 21.1957 112.897L21.2621 112.788C21.6085 112.27 22.1617 112.117 22.5561 112.059C22.9707 111.997 23.506 112 24.0658 112H31.935ZM25.9994 121V122.5L26.0024 122.968C26.0127 123.375 26.0537 123.616 26.2182 123.78C26.383 123.945 26.6237 123.986 27.0317 123.996L27.4995 124H28.5024L28.9692 123.996C29.3095 123.988 29.5334 123.958 29.6938 123.853L29.7827 123.78C29.9471 123.616 29.9882 123.375 29.9985 122.968L30.0024 122.5V121H25.9994ZM25.6909 120H30.31L32.1577 117H23.8442L25.6909 120ZM24.0658 113C22.8782 113 22.2836 113 22.0688 113.384C21.8541 113.768 22.1664 114.274 22.7895 115.286L23.2299 116.003C23.2409 116.002 23.2519 116 23.2631 116H32.6967C32.7209 116 32.7448 116.004 32.768 116.007L33.2124 115.286C33.8351 114.275 34.1465 113.768 33.9321 113.384C33.7711 113.096 33.3961 113.024 32.7182 113.006L31.935 113H24.0658Z" fill="currentColor"/>
</svg>
