<svg xmlns="http://www.w3.org/2000/svg" width="16" height="16" viewBox="20.0 110.0 16.0 16.0" fill="none">
  <path d="M25.5 122C25.7761 122 26 122.224 26 122.5C26 122.776 25.7761 123 25.5 123H24.5C24.2239 123 24 122.776 24 122.5C24 122.224 24.2239 122 24.5 122H25.5Z" fill="currentColor"/>
  <path d="M31.5 122C31.7761 122 32 122.224 32 122.5C32 122.776 31.7761 123 31.5 123H27.5C27.2239 123 27 122.776 27 122.5C27 122.224 27.2239 122 27.5 122H31.5Z" fill="currentColor"/>
  <path d="M25.5 113C25.7761 113 26 113.224 26 113.5C26 113.776 25.7761 114 25.5 114H24.5C24.2239 114 24 113.776 24 113.5C24 113.224 24.2239 113 24.5 113H25.5Z" fill="currentColor"/>
  <path d="M28.5 113C28.7761 113 29 113.224 29 113.5C29 113.776 28.7761 114 28.5 114H27.5C27.2239 114 27 113.776 27 113.5C27 113.224 27.2239 113 27.5 113H28.5Z" fill="currentColor"/>
  <path d="M31.5 113C31.7761 113 32 113.224 32 113.5C32 113.776 31.7761 114 31.5 114H30.5C30.2239 114 30 113.776 30 113.5C30 113.224 30.2239 113 30.5 113H31.5Z" fill="currentColor"/>
  <path d="M29.5 111C30.4285 111 31.1751 110.999 31.7607 111.078C32.3608 111.159 32.8663 111.331 33.2676 111.732C33.6689 112.134 33.8412 112.639 33.9219 113.239C34.0006 113.825 34 114.572 34 115.5V120.5C34 121.428 34.0006 122.175 33.9219 122.761C33.8412 123.361 33.6689 123.866 33.2676 124.268C32.8663 124.669 32.3608 124.841 31.7607 124.922C31.1751 125.001 30.4285 125 29.5 125H26.5C25.5715 125 24.8249 125.001 24.2393 124.922C23.6392 124.841 23.1337 124.669 22.7324 124.268C22.3311 123.866 22.1588 123.361 22.0781 122.761C22.0325 122.421 22.0147 122.028 22.0068 121.576C22 121.532 21.9996 121.486 22.0049 121.441C22.0012 121.151 22 120.838 22 120.5V115.5C22 114.572 21.9994 113.825 22.0781 113.239C22.1588 112.639 22.3311 112.134 22.7324 111.732C23.1337 111.331 23.6392 111.159 24.2393 111.078C24.8249 110.999 25.5715 111 26.5 111H29.5ZM26.5 112C25.5431 112 24.8756 112.001 24.3721 112.068C23.8829 112.134 23.624 112.255 23.4395 112.439C23.2549 112.624 23.1341 112.883 23.0684 113.372C23.0007 113.876 23 114.543 23 115.5V120.043L25.0332 117.429C25.523 116.799 26.4697 116.783 26.9805 117.396L28.3164 118.998C28.4155 119.117 28.5976 119.118 28.6982 119.001L31.1201 116.175C31.2998 115.965 31.6155 115.941 31.8252 116.12C32.0348 116.3 32.0594 116.616 31.8799 116.825L29.457 119.651C28.9536 120.239 28.0431 120.233 27.5479 119.639L26.2119 118.036C26.1099 117.914 25.9213 117.916 25.8232 118.042L23.0078 121.66C23.0158 122.042 23.0322 122.359 23.0684 122.628C23.1341 123.117 23.2549 123.376 23.4395 123.561C23.624 123.745 23.8829 123.866 24.3721 123.932C24.8756 123.999 25.5431 124 26.5 124H29.5C30.4569 124 31.1244 123.999 31.6279 123.932C32.1171 123.866 32.376 123.745 32.5605 123.561C32.7451 123.376 32.8659 123.117 32.9316 122.628C32.9993 122.124 33 121.457 33 120.5V115.5C33 114.543 32.9993 113.876 32.9316 113.372C32.8659 112.883 32.7451 112.624 32.5605 112.439C32.376 112.255 32.1171 112.134 31.6279 112.068C31.1244 112.001 30.4569 112 29.5 112H26.5Z" fill="currentColor"/>
</svg>
