<svg xmlns="http://www.w3.org/2000/svg" width="16" height="16" viewBox="20.0 110.5 16.0 16.0" fill="none">
  <path d="M30.5 117C30.7761 117 31 117.224 31 117.5V119.5C31 119.776 30.7762 120 30.5 120C30.2239 120 30 119.776 30 119.5V117.5C30 117.224 30.2239 117 30.5 117Z" fill="currentColor"/>
  <path d="M32.5 115C32.8252 115 33.1698 114.998 33.4561 115.036C33.7712 115.079 34.1607 115.186 34.4873 115.513C34.8139 115.839 34.9215 116.229 34.9639 116.544C35.0024 116.83 35 117.175 35 117.5V119.5C35 119.825 35.0024 120.17 34.9639 120.456C34.9215 120.771 34.8139 121.161 34.4873 121.487C34.1607 121.814 33.7712 121.922 33.4561 121.964C33.1698 122.002 32.8252 122 32.5 122H23.5C23.1748 122 22.8303 122.002 22.544 121.964C22.2288 121.922 21.8393 121.814 21.5127 121.487C21.1861 121.161 21.0785 120.771 21.0362 120.456C20.9977 120.17 21 119.825 21 119.5V117.5C21 117.175 20.9977 116.83 21.0362 116.544C21.0785 116.229 21.1861 115.839 21.5127 115.513C21.8393 115.186 22.2289 115.079 22.544 115.036C22.8303 114.998 23.1748 115 23.5 115H32.5ZM22.0049 120C22.0166 120.388 22.0594 120.62 22.2198 120.78C22.4394 121 22.7929 121 23.5 121H26V120H22.0049ZM27 117H27.5C27.7002 117 27.8983 116.996 28.0733 117.043C28.5046 117.159 28.8414 117.496 28.9571 117.927C29.0039 118.102 29 118.3 29 118.5C29 118.7 29.0038 118.898 28.9571 119.073C28.8415 119.505 28.5046 119.841 28.0733 119.957C27.8983 120.004 27.7003 120 27.5 120H27V121H32.5C33.2071 121 33.5606 121 33.7803 120.78C33.945 120.616 33.9858 120.376 33.9961 119.968L34 119.5V117.5L33.9961 117.032C33.9858 116.624 33.945 116.384 33.7803 116.22C33.5606 116 33.2071 116 32.5 116H27V117ZM25 119H27.5C27.6208 119 27.695 119 27.751 118.997C27.7963 118.995 27.812 118.992 27.8145 118.991C27.9007 118.968 27.9681 118.901 27.9912 118.814C27.9919 118.811 27.9951 118.795 27.9971 118.751C27.9996 118.695 28 118.621 28 118.5C28 118.379 27.9997 118.305 27.9971 118.249C27.995 118.204 27.9918 118.188 27.9912 118.186C27.9681 118.099 27.9007 118.032 27.8145 118.009C27.8119 118.008 27.796 118.005 27.751 118.003C27.695 118 27.6208 118 27.5 118H25V119ZM23.0323 116.004C22.6244 116.014 22.3845 116.055 22.2198 116.22C22.0594 116.38 22.0176 116.612 22.0059 117H26V116H23.5L23.0323 116.004Z" fill="currentColor"/>
</svg>
