<svg xmlns="http://www.w3.org/2000/svg" width="16" height="16" viewBox="20.0 110.5 16.0 16.0" fill="none">
  <path d="M21.335 116.528C21.5352 116.458 21.7581 116.522 21.8906 116.688L23.6045 118.83L25.8408 117.338C25.9201 117.285 26.0193 117.218 26.1123 117.172C26.1917 117.133 26.2993 117.092 26.4277 117.087L26.5635 117.094L26.6943 117.128C26.8149 117.172 26.905 117.243 26.9688 117.305C27.0435 117.377 27.1172 117.471 27.1768 117.546L30.5469 121.759L34.1523 118.271C34.2966 118.132 34.5105 118.092 34.6953 118.17C34.88 118.248 35 118.43 35 118.631V124.5C34.9999 124.776 34.7761 125 34.5 125H21.5C21.2239 125 21.0001 124.776 21 124.5V117C21 116.788 21.1346 116.599 21.335 116.528Z" fill="currentColor"/>
  <path d="M22 112C22.5523 112 23 112.448 23 113C23 113.128 22.9747 113.251 22.9307 113.363L23.7656 114.407C23.9215 114.602 24.0088 114.708 24.0781 114.774L24.0801 114.776L24.083 114.775C24.1652 114.726 24.2738 114.641 24.4688 114.485L25.4072 113.734C25.58 113.596 25.7483 113.46 25.9014 113.368C26.0463 113.281 26.2252 113.202 26.4385 113.203L26.5322 113.209L26.625 113.225C26.8333 113.271 26.991 113.385 27.1133 113.502C27.2425 113.625 27.3763 113.796 27.5146 113.969L30.1924 117.315C30.3645 117.531 30.4621 117.65 30.54 117.724L30.543 117.726L30.5459 117.725C30.6316 117.66 30.7417 117.551 30.9365 117.356L33.0342 115.258C33.0123 115.176 33 115.089 33 115C33 114.448 33.4477 114 34 114C34.5523 114 35 114.448 35 115C35 115.552 34.5523 116 34 116C33.9104 116 33.8239 115.987 33.7412 115.965L31.6436 118.063C31.4698 118.237 31.3029 118.406 31.1484 118.522C30.9826 118.648 30.7648 118.765 30.4863 118.75C30.2077 118.735 30.0036 118.593 29.8525 118.45C29.712 118.317 29.5645 118.131 29.4111 117.939L26.7344 114.593C26.5785 114.398 26.4912 114.292 26.4219 114.226L26.4189 114.223L26.417 114.225C26.3348 114.274 26.2262 114.359 26.0312 114.515L25.0928 115.266C24.92 115.404 24.7517 115.54 24.5986 115.632C24.4329 115.731 24.223 115.819 23.9678 115.791C23.7125 115.763 23.5265 115.632 23.3867 115.498C23.2575 115.375 23.1237 115.204 22.9854 115.031L22.1494 113.987C22.1006 113.995 22.0509 114 22 114C21.4477 114 21 113.552 21 113C21 112.448 21.4477 112 22 112Z" fill="currentColor"/>
</svg>
