<svg xmlns="http://www.w3.org/2000/svg" width="16" height="16" viewBox="20.0 111.0 16.0 16.0" fill="none">
  <path d="M21.5 112C21.7761 112 22 112.224 22 112.5V122.5C22.7927 122.5 23.5004 122.002 23.7676 121.256L25.2002 117.248C25.0732 117.028 25 116.773 25 116.5C25 115.672 25.6716 115 26.5 115C27.3284 115 28 115.672 28 116.5C28 116.646 27.9781 116.786 27.9395 116.919L29.6816 119.243C29.917 119.09 30.198 119 30.5 119C30.6902 119 30.8716 119.037 31.0391 119.102L32.4941 115.61C32.1914 115.336 32 114.941 32 114.5C32 113.672 32.6716 113 33.5 113C34.3284 113 35 113.672 35 114.5C35 115.328 34.3284 116 33.5 116C33.4724 116 33.4452 115.997 33.418 115.995L31.8301 119.808C31.9382 120.015 32 120.25 32 120.5C32 121.328 31.3284 122 30.5 122C29.6716 122 29 121.328 29 120.5C29 120.354 29.0208 120.213 29.0596 120.08L27.3174 117.757C27.0821 117.91 26.8017 118 26.5 118C26.3321 118 26.1712 117.971 26.0205 117.92L24.709 121.593C24.2995 122.737 23.2151 123.5 22 123.5V125H34.5C34.7761 125 35 125.224 35 125.5C35 125.776 34.7761 126 34.5 126H21.5C21.2239 126 21 125.776 21 125.5V112.5C21 112.224 21.2239 112 21.5 112ZM30.5 120C30.2239 120 30 120.224 30 120.5C30 120.776 30.2239 121 30.5 121C30.7761 121 31 120.776 31 120.5C31 120.224 30.7761 120 30.5 120ZM26.5 116C26.2239 116 26 116.224 26 116.5C26 116.776 26.2239 117 26.5 117C26.7761 117 27 116.776 27 116.5C27 116.224 26.7761 116 26.5 116ZM33.5 114C33.2239 114 33 114.224 33 114.5C33 114.776 33.2239 115 33.5 115C33.7761 115 34 114.776 34 114.5C34 114.224 33.7761 114 33.5 114Z" fill="currentColor"/>
</svg>
