<svg xmlns="http://www.w3.org/2000/svg" width="16" height="16" viewBox="19.0 110.5 17.0 17.0" fill="none">
  <path d="M21.5 111.5C21.7761 111.5 22 111.724 22 112H27C27.2073 112 27.4634 111.998 27.6816 112.027C27.9287 112.061 28.2706 112.15 28.5605 112.439C28.8505 112.729 28.9394 113.071 28.9727 113.318C29.002 113.537 29 113.793 29 114C29 114.207 29.002 114.463 28.9727 114.682C28.9394 114.929 28.8505 115.271 28.5605 115.561C28.2706 115.85 27.9287 115.939 27.6816 115.973C27.4634 116.002 27.2073 116 27 116H22V117H29C29.2073 117 29.4634 116.998 29.6816 117.027C29.9287 117.061 30.2706 117.15 30.5605 117.439C30.8505 117.729 30.9394 118.071 30.9727 118.318C31.002 118.537 31 118.793 31 119C31 119.207 31.002 119.463 30.9727 119.682C30.9394 119.929 30.8505 120.271 30.5605 120.561C30.2706 120.85 29.9287 120.939 29.6816 120.973C29.4634 121.002 29.2073 121 29 121H22V122H32C32.2073 122 32.4634 121.998 32.6816 122.027C32.9287 122.061 33.2706 122.15 33.5605 122.439C33.8505 122.729 33.9394 123.071 33.9727 123.318C34.002 123.537 34 123.793 34 124C34 124.207 34.002 124.463 33.9727 124.682C33.9394 124.929 33.8505 125.271 33.5605 125.561C33.2706 125.85 32.9287 125.939 32.6816 125.973C32.4634 126.002 32.2073 126 32 126H22C22 126.276 21.7761 126.5 21.5 126.5C21.2239 126.5 21 126.276 21 126V112C21 111.724 21.2239 111.5 21.5 111.5ZM22 125H32C32.4713 125 32.7071 125 32.8535 124.854C33 124.707 33 124.471 33 124C33 123.529 33 123.293 32.8535 123.146C32.7071 123 32.4713 123 32 123H22V125ZM22 120H29C29.4713 120 29.7071 120 29.8535 119.854C30 119.707 30 119.471 30 119C30 118.529 30 118.293 29.8535 118.146C29.7071 118 29.4713 118 29 118H22V120ZM22 115H27C27.4713 115 27.7071 115 27.8535 114.854C28 114.707 28 114.471 28 114C28 113.529 28 113.293 27.8535 113.146C27.7071 113 27.4713 113 27 113H22V115Z" fill="currentColor"/>
</svg>
