<svg xmlns="http://www.w3.org/2000/svg" width="16" height="16" viewBox="19.87 111.02 16.11 16.11" fill="none">
  <path d="M27.011 113.02C27.1979 113.021 27.3904 113.062 27.5696 113.185L27.6458 113.243L27.719 113.312C27.876 113.478 27.9426 113.674 27.972 113.859C28.0017 114.047 28.0003 114.275 28.0003 114.5V119H32.5003C32.7253 119 32.9533 118.998 33.1409 119.028C33.3261 119.057 33.5224 119.124 33.6878 119.281L33.7571 119.354L33.8148 119.43C33.9379 119.61 33.9787 119.802 33.9798 119.989C33.9808 120.171 33.9435 120.382 33.9105 120.578C33.7587 121.48 33.4171 122.344 32.9046 123.111C32.1904 124.18 31.1752 125.013 29.9876 125.505C28.7999 125.997 27.4926 126.126 26.2317 125.875C24.9711 125.624 23.8125 125.004 22.9036 124.095C21.995 123.187 21.3761 122.029 21.1253 120.768C20.8745 119.507 21.0035 118.2 21.4954 117.012C21.9874 115.825 22.8202 114.81 23.889 114.095C24.6561 113.583 25.5204 113.241 26.4222 113.09C26.6183 113.057 26.8288 113.019 27.011 113.02ZM28.0003 124.975C28.549 124.925 29.0903 124.794 29.6048 124.581C30.6097 124.164 31.4692 123.46 32.0735 122.555C32.5072 121.906 32.7958 121.175 32.9241 120.412C32.9425 120.303 32.9563 120.218 32.9661 120.145C32.974 120.086 32.9768 120.044 32.9778 120.014C32.8865 120.001 32.7522 120 32.5003 120H28.0003V124.975ZM26.8548 114.034C26.7819 114.044 26.6972 114.058 26.5882 114.076C25.8252 114.204 25.0937 114.493 24.4446 114.926C23.5402 115.531 22.8355 116.39 22.4192 117.395C22.003 118.4 21.8936 119.506 22.1058 120.573C22.318 121.64 22.8425 122.619 23.6116 123.388C24.3808 124.158 25.3602 124.682 26.4271 124.894C26.6171 124.932 26.8086 124.956 27.0003 124.973V114.5C27.0003 114.247 26.9984 114.112 26.9847 114.021C26.9547 114.022 26.9132 114.026 26.8548 114.034Z" fill="currentColor"/>
  <path d="M30.0101 112.023C30.1934 112.027 30.4025 112.07 30.5931 112.109C30.9387 112.179 31.2774 112.283 31.6048 112.419C32.272 112.695 32.8783 113.1 33.389 113.611C33.8997 114.122 34.305 114.728 34.5814 115.395C34.7169 115.723 34.8209 116.061 34.8909 116.407C34.9296 116.598 34.9734 116.807 34.9769 116.99C34.9809 117.208 34.9307 117.43 34.7649 117.633C34.5886 117.848 34.3614 117.935 34.1458 117.97C33.9562 118.002 33.7255 118 33.5003 118H30.5003C30.2788 118 30.0622 118.001 29.8851 117.977C29.6935 117.952 29.4749 117.888 29.2933 117.707C29.1117 117.525 29.0485 117.307 29.0228 117.115C28.999 116.938 29.0003 116.721 29.0003 116.5V113.5C29.0003 113.275 28.9985 113.044 29.0296 112.854C29.065 112.639 29.1518 112.411 29.3675 112.235L29.4446 112.178C29.626 112.058 29.8197 112.02 30.0101 112.023ZM30.0159 113.025C30.0024 113.115 30.0003 113.248 30.0003 113.5V116.5C30.0003 116.749 30.0012 116.887 30.014 116.982V116.985L30.0179 116.986C30.113 116.999 30.2506 117 30.5003 117H33.5003C33.7509 117 33.8838 116.997 33.9739 116.983C33.9719 116.956 33.9689 116.918 33.9603 116.866C33.9485 116.795 33.9321 116.713 33.9105 116.606C33.8531 116.324 33.7684 116.046 33.6575 115.778C33.4314 115.232 33.0998 114.736 32.6819 114.318C32.2641 113.9 31.7679 113.569 31.222 113.343C30.9542 113.232 30.6766 113.147 30.3939 113.09C30.2872 113.068 30.2048 113.052 30.1341 113.04C30.0813 113.031 30.0435 113.027 30.0159 113.025Z" fill="currentColor"/>
</svg>
