<svg xmlns="http://www.w3.org/2000/svg" width="16" height="16" viewBox="20.0 111.0 16.0 16.0" fill="none">
  <path d="M30.5 112C31.4285 112 32.1751 111.999 32.7607 112.078C33.3608 112.159 33.8663 112.331 34.2676 112.732C34.6689 113.134 34.8412 113.639 34.9219 114.239C35.0006 114.825 35 115.572 35 116.5V121.5C35 122.428 35.0006 123.175 34.9219 123.761C34.8412 124.361 34.6689 124.866 34.2676 125.268C33.8663 125.669 33.3608 125.841 32.7607 125.922C32.4204 125.968 32.0255 125.984 31.5723 125.992C31.5487 125.996 31.5246 126 31.5 126C31.4817 126 31.464 125.996 31.4463 125.994C31.1545 125.998 30.8394 126 30.5 126H25.5C24.5715 126 23.8249 126.001 23.2393 125.922C22.6392 125.841 22.1337 125.669 21.7324 125.268C21.3311 124.866 21.1588 124.361 21.0781 123.761C20.9994 123.175 21 122.428 21 121.5V116.5C21 115.572 20.9994 114.825 21.0781 114.239C21.1588 113.639 21.3311 113.134 21.7324 112.732C22.1337 112.331 22.6392 112.159 23.2393 112.078C23.8249 111.999 24.5715 112 25.5 112H30.5ZM28 125H30.5C30.6762 125 30.8426 124.997 31 124.996V118H28V125ZM22 121.5C22 122.457 22.0007 123.124 22.0684 123.628C22.1341 124.117 22.2549 124.376 22.4395 124.561C22.624 124.745 22.8829 124.866 23.3721 124.932C23.8756 124.999 24.5431 125 25.5 125H27V120.042H22V121.5ZM32 122V124.979C32.2356 124.969 32.4429 124.957 32.6279 124.932C33.1171 124.866 33.376 124.745 33.5605 124.561C33.7451 124.376 33.8659 124.117 33.9316 123.628C33.9869 123.217 33.9941 122.697 33.9961 122H32ZM32 118V121H34V118H32ZM25.5 113C24.5431 113 23.8756 113.001 23.3721 113.068C22.8829 113.134 22.624 113.255 22.4395 113.439C22.2549 113.624 22.1341 113.883 22.0684 114.372C22.0007 114.876 22 115.543 22 116.5V119.042H27V113H25.5ZM28 117H34V116.5C34 115.543 33.9993 114.876 33.9316 114.372C33.8659 113.883 33.7451 113.624 33.5605 113.439C33.376 113.255 33.1171 113.134 32.6279 113.068C32.1244 113.001 31.4569 113 30.5 113H28V117Z" fill="currentColor"/>
</svg>
