<svg xmlns="http://www.w3.org/2000/svg" width="16" height="16" viewBox="21.0 113.0 14.0 14.0" fill="none">
  <path d="M26.5 125C26.7762 125 27 125.224 27 125.5C27 125.776 26.7762 126 26.5 126H22.5C22.2239 126 22 125.776 22 125.5C22 125.224 22.2239 125 22.5 125H26.5Z" fill="currentColor"/>
  <path d="M33.5 125C33.7762 125 34 125.224 34 125.5C34 125.776 33.7762 126 33.5 126H29.5C29.2239 126 29 125.776 29 125.5C29 125.224 29.2239 125 29.5 125H33.5Z" fill="currentColor"/>
  <path d="M25.5 115C26.3285 115 27 115.672 27 116.5V122.5C27 122.59 27.0016 122.757 26.9815 122.907C26.9574 123.086 26.8872 123.38 26.6338 123.634C26.3804 123.887 26.0862 123.957 25.9073 123.981C25.7571 124.002 25.5896 124 25.5 124H23.5C23.4105 124 23.2429 124.002 23.0928 123.981C22.9138 123.957 22.6196 123.887 22.3662 123.634C22.1129 123.38 22.0426 123.086 22.0186 122.907C21.9984 122.757 22 122.59 22 122.5V119.5C22 118.672 22.6716 118 23.5 118C23.6755 118 23.8435 118.032 24 118.087V116.5C24 115.672 24.6716 115 25.5 115ZM23.5 119C23.2239 119 23 119.224 23 119.5V122.5C23 122.736 23.0001 122.854 23.0733 122.927C23.1465 123 23.2643 123 23.5 123C23.7357 123 23.8536 123 23.9268 122.927C24 122.854 24 122.736 24 122.5V119.5C24 119.224 23.7762 119 23.5 119ZM25.5 116C25.2239 116 25 116.224 25 116.5V122.5C25 122.736 25.0001 122.854 25.0733 122.927C25.1465 123 25.2643 123 25.5 123C25.7357 123 25.8536 123 25.9268 122.927C26 122.854 26 122.736 26 122.5V116.5C26 116.224 25.7762 116 25.5 116Z" fill="currentColor"/>
  <path d="M32.5 114C33.3285 114 34 114.672 34 115.5V122.5C34 122.59 34.0016 122.757 33.9815 122.907C33.9574 123.086 33.8872 123.38 33.6338 123.634C33.3804 123.887 33.0862 123.957 32.9073 123.981C32.7571 124.002 32.5896 124 32.5 124H30.5C30.4105 124 30.2429 124.002 30.0928 123.981C29.9138 123.957 29.6196 123.887 29.3662 123.634C29.1129 123.38 29.0426 123.086 29.0186 122.907C28.9984 122.757 29 122.59 29 122.5V117.5C29 116.672 29.6716 116 30.5 116C30.6755 116 30.8435 116.032 31 116.087V115.5C31 114.672 31.6716 114 32.5 114ZM30.5 117C30.2239 117 30 117.224 30 117.5V122.5C30 122.736 30.0001 122.854 30.0733 122.927C30.1465 123 30.2643 123 30.5 123C30.7357 123 30.8536 123 30.9268 122.927C31 122.854 31 122.736 31 122.5V117.5C31 117.224 30.7762 117 30.5 117ZM32.5 115C32.2239 115 32 115.224 32 115.5V122.5C32 122.736 32.0001 122.854 32.0733 122.927C32.1465 123 32.2643 123 32.5 123C32.7357 123 32.8536 123 32.9268 122.927C33 122.854 33 122.736 33 122.5V115.5C33 115.224 32.7762 115 32.5 115Z" fill="currentColor"/>
</svg>
