<svg xmlns="http://www.w3.org/2000/svg" width="16" height="16" viewBox="20.0 111.0 16.0 16.0" fill="none">
  <path d="M28 112C31.866 112 35 115.134 35 119C35 122.866 31.866 126 28 126C24.134 126 21 122.866 21 119C21 115.134 24.134 112 28 112ZM28 113C24.6863 113 22 115.686 22 119C22 122.314 24.6863 125 28 125C29.4768 125 30.8277 124.465 31.873 123.58L29.7363 121.443C29.246 121.792 28.6478 122 28 122C26.3431 122 25 120.657 25 119C25 117.343 26.3431 116 28 116C28.6473 116 29.2452 116.207 29.7354 116.556L31.8721 114.419C30.8269 113.535 29.4763 113 28 113ZM30.4424 117.263C30.7919 117.753 31 118.352 31 119C31 119.648 30.7924 120.246 30.4434 120.736L32.5801 122.873C33.4649 121.828 34 120.477 34 119C34 117.523 33.4645 116.171 32.5791 115.126L30.4424 117.263ZM28 117C26.8954 117 26 117.895 26 119C26 120.105 26.8954 121 28 121C29.1046 121 30 120.105 30 119C30 117.895 29.1046 117 28 117Z" fill="currentColor"/>
</svg>
