<svg xmlns="http://www.w3.org/2000/svg" width="16" height="16" viewBox="20.0 111.5 16.0 16.0" fill="none">
  <path d="M34.5 125C34.7761 125 35 125.224 35 125.5C35 125.776 34.7761 126 34.5 126H21.5C21.2239 126 21 125.776 21 125.5C21 125.224 21.2239 125 21.5 125H34.5Z" fill="currentColor"/>
  <path d="M27.5 121C28.3284 121 29 121.672 29 122.5C29 123.328 28.3284 124 27.5 124C26.6716 124 26 123.328 26 122.5C26 121.672 26.6716 121 27.5 121ZM27.5 122C27.2239 122 27 122.224 27 122.5C27 122.776 27.2239 123 27.5 123C27.7761 123 28 122.776 28 122.5C28 122.224 27.7761 122 27.5 122Z" fill="currentColor"/>
  <path d="M32 118C33.1046 118 34 118.895 34 120C34 121.105 33.1046 122 32 122C30.8954 122 30 121.105 30 120C30 118.895 30.8954 118 32 118ZM32 119C31.4477 119 31 119.448 31 120C31 120.552 31.4477 121 32 121C32.5523 121 33 120.552 33 120C33 119.448 32.5523 119 32 119Z" fill="currentColor"/>
  <path d="M25.5 113C27.433 113 29 114.567 29 116.5C29 118.433 27.433 120 25.5 120C23.567 120 22 118.433 22 116.5C22 114.567 23.567 113 25.5 113ZM25.5 114C24.1193 114 23 115.119 23 116.5C23 117.881 24.1193 119 25.5 119C26.8807 119 28 117.881 28 116.5C28 115.119 26.8807 114 25.5 114Z" fill="currentColor"/>
</svg>
