<svg xmlns="http://www.w3.org/2000/svg" width="16" height="16" viewBox="19.5 110.0 17.0 17.0" fill="none">
  <path d="M33 122C33.2074 122 33.4634 121.998 33.6817 122.027C33.9287 122.061 34.2706 122.15 34.5606 122.439C34.8506 122.729 34.9395 123.071 34.9727 123.318C35.002 123.537 35 123.793 35 124C35 124.207 35.002 124.463 34.9727 124.682C34.9395 124.929 34.8506 125.271 34.5606 125.561C34.2706 125.851 33.9287 125.939 33.6817 125.973C33.4634 126.002 33.2074 126 33 126H30C29.7927 126 29.5366 126.002 29.3184 125.973C29.0713 125.939 28.7295 125.851 28.4395 125.561C28.1495 125.271 28.0606 124.929 28.0274 124.682C27.9981 124.463 28 124.207 28 124C28 123.793 27.9981 123.537 28.0274 123.318C28.0606 123.071 28.1495 122.729 28.4395 122.439C28.7295 122.149 29.0713 122.061 29.3184 122.027C29.5366 121.998 29.7927 122 30 122H33ZM30 123C29.5286 123 29.293 123 29.1465 123.147C29.0001 123.293 29 123.529 29 124C29 124.471 29.0001 124.707 29.1465 124.854C29.293 125 29.5286 125 30 125H33C33.4714 125 33.7071 125 33.8535 124.854C34 124.707 34 124.471 34 124C34 123.529 34 123.293 33.8535 123.147C33.7071 123 33.4714 123 33 123H30Z" fill="currentColor"/>
  <path d="M25.5 122C25.5896 122 25.7571 121.998 25.9073 122.019C26.0862 122.043 26.3804 122.113 26.6338 122.366C26.8872 122.62 26.9574 122.914 26.9815 123.093C27.0016 123.243 27 123.41 27 123.5C27 123.59 27.0016 123.757 26.9815 123.907C26.9574 124.086 26.8872 124.38 26.6338 124.634C26.3804 124.887 26.0862 124.957 25.9073 124.981C25.7571 125.002 25.5896 125 25.5 125H22.5C22.4105 125 22.2429 125.002 22.0928 124.981C21.9138 124.957 21.6196 124.887 21.3662 124.634C21.1129 124.38 21.0426 124.086 21.0186 123.907C20.9984 123.757 21 123.59 21 123.5C21 123.41 20.9984 123.243 21.0186 123.093C21.0426 122.914 21.1129 122.62 21.3662 122.366C21.6196 122.113 21.9138 122.043 22.0928 122.019C22.2429 121.998 22.4105 122 22.5 122H25.5ZM22.5 123C22.2643 123 22.1465 123 22.0733 123.073C22.0001 123.146 22 123.264 22 123.5C22 123.736 22.0001 123.854 22.0733 123.927C22.1465 124 22.2643 124 22.5 124H25.5C25.7357 124 25.8536 124 25.9268 123.927C26 123.854 26 123.736 26 123.5C26 123.264 26 123.146 25.9268 123.073C25.8536 123 25.7357 123 25.5 123H22.5Z" fill="currentColor"/>
  <path d="M32 116C32.2074 116 32.4634 115.998 32.6817 116.027C32.9287 116.061 33.2706 116.15 33.5606 116.439C33.8506 116.729 33.9395 117.071 33.9727 117.318C34.002 117.537 34 117.793 34 118V119C34 119.207 34.002 119.463 33.9727 119.682C33.9395 119.929 33.8506 120.271 33.5606 120.561C33.2706 120.851 32.9287 120.939 32.6817 120.973C32.4634 121.002 32.2074 121 32 121H24C23.7927 121 23.5366 121.002 23.3184 120.973C23.0713 120.939 22.7295 120.851 22.4395 120.561C22.1495 120.271 22.0606 119.929 22.0274 119.682C21.9981 119.463 22 119.207 22 119V118C22 117.793 21.9981 117.537 22.0274 117.318C22.0606 117.071 22.1495 116.729 22.4395 116.439C22.7295 116.149 23.0713 116.061 23.3184 116.027C23.5366 115.998 23.7927 116 24 116H32ZM24 117C23.5286 117 23.293 117 23.1465 117.147C23.0001 117.293 23 117.529 23 118V119C23 119.471 23.0001 119.707 23.1465 119.854C23.293 120 23.5286 120 24 120H32C32.4714 120 32.7071 120 32.8535 119.854C33 119.707 33 119.471 33 119V118C33 117.529 33 117.293 32.8535 117.147C32.7071 117 32.4714 117 32 117H24Z" fill="currentColor"/>
  <path d="M27 111C27.2074 111 27.4634 110.998 27.6817 111.027C27.9287 111.061 28.2706 111.15 28.5606 111.439C28.8506 111.729 28.9395 112.071 28.9727 112.318C29.002 112.537 29 112.793 29 113C29 113.207 29.002 113.463 28.9727 113.682C28.9395 113.929 28.8506 114.271 28.5606 114.561C28.2706 114.851 27.9287 114.939 27.6817 114.973C27.4634 115.002 27.2074 115 27 115H23C22.7927 115 22.5366 115.002 22.3184 114.973C22.0713 114.939 21.7295 114.851 21.4395 114.561C21.1495 114.271 21.0606 113.929 21.0274 113.682C20.9981 113.463 21 113.207 21 113C21 112.793 20.9981 112.537 21.0274 112.318C21.0606 112.071 21.1495 111.729 21.4395 111.439C21.7295 111.149 22.0713 111.061 22.3184 111.027C22.5366 110.998 22.7927 111 23 111H27ZM23 112C22.5286 112 22.293 112 22.1465 112.147C22.0001 112.293 22 112.529 22 113C22 113.471 22.0001 113.707 22.1465 113.854C22.293 114 22.5286 114 23 114H27C27.4714 114 27.7071 114 27.8535 113.854C28 113.707 28 113.471 28 113C28 112.529 28 112.293 27.8535 112.147C27.7071 112 27.4714 112 27 112H23Z" fill="currentColor"/>
  <path d="M33.5 112C33.5896 112 33.7571 111.998 33.9073 112.019C34.0862 112.043 34.3804 112.113 34.6338 112.366C34.8872 112.62 34.9574 112.914 34.9815 113.093C35.0016 113.243 35 113.41 35 113.5C35 113.59 35.0016 113.757 34.9815 113.907C34.9574 114.086 34.8872 114.38 34.6338 114.634C34.3804 114.887 34.0862 114.957 33.9073 114.981C33.7571 115.002 33.5896 115 33.5 115H31.5C31.4105 115 31.2429 115.002 31.0928 114.981C30.9138 114.957 30.6196 114.887 30.3662 114.634C30.1129 114.38 30.0426 114.086 30.0186 113.907C29.9984 113.757 30 113.59 30 113.5C30 113.41 29.9984 113.243 30.0186 113.093C30.0426 112.914 30.1129 112.62 30.3662 112.366C30.6196 112.113 30.9138 112.043 31.0928 112.019C31.2429 111.998 31.4105 112 31.5 112H33.5ZM31.5 113C31.2643 113 31.1465 113 31.0733 113.073C31.0001 113.146 31 113.264 31 113.5C31 113.736 31.0001 113.854 31.0733 113.927C31.1465 114 31.2643 114 31.5 114H33.5C33.7357 114 33.8536 114 33.9268 113.927C34 113.854 34 113.736 34 113.5C34 113.264 34 113.146 33.9268 113.073C33.8536 113 33.7357 113 33.5 113H31.5Z" fill="currentColor"/>
</svg>
