<svg xmlns="http://www.w3.org/2000/svg" width="16" height="16" viewBox="20.0 111.0 16.0 16.0" fill="none">
  <path d="M21.5 112C21.7761 112 22 112.224 22 112.5V119.991L24 117.284C24.4944 116.615 25.4394 116.476 26.1055 116.975L28.9453 119.1L33.2783 114.581C33.9019 113.931 34.9998 114.373 35 115.273V125.5C35 125.776 34.7761 126 34.5 126H21.5C21.2239 126 21 125.776 21 125.5V112.5C21 112.224 21.2239 112 21.5 112ZM30.4668 123.74C29.939 124.268 29.103 124.328 28.5059 123.88L25.5928 121.694L23.0215 125H34V120.207L30.4668 123.74ZM29.667 119.791C29.3175 120.155 28.7511 120.203 28.3467 119.9L25.5059 117.775C25.2839 117.609 24.9695 117.656 24.8047 117.879L22 121.675V124.686L24.8037 121.081C25.1386 120.651 25.757 120.567 26.1934 120.895L29.1064 123.08C29.3055 123.229 29.5839 123.209 29.7598 123.033L34 118.793V115.273L29.667 119.791Z" fill="currentColor"/>
</svg>
