<svg xmlns="http://www.w3.org/2000/svg" width="16" height="16" viewBox="20.0 111.0 16.0 16.0" fill="none">
  <path d="M34 112C34.5523 112 35 112.448 35 113V115.001C35 115.553 34.5523 116.001 34 116.001H28.2529C28.5215 116.156 28.782 116.327 29.0312 116.516C29.4464 116.829 29.953 117 30.4736 117H34C34.5521 117 35 117.448 35 118V123C35 123.552 34.5521 124 34 124H30.5908L30.3809 124.008C29.9663 124.045 29.5693 124.203 29.2402 124.461C27.9722 125.457 26.4052 126 24.792 126H22C21.4477 126 21 125.552 21 125V123C21 122.448 21.4477 122 22 122H24.792C25.5084 122 26.205 121.759 26.7686 121.316C27.1719 121 27.6105 120.737 28.0732 120.531C27.5574 120.322 27.0676 120.047 26.6182 119.707C26.0121 119.249 25.2721 119 24.5127 119H22C21.4477 119 21 118.552 21 118V113C21 112.448 21.4477 112 22 112H34ZM30.3584 121.005C29.2793 121.05 28.2389 121.433 27.3867 122.103C26.647 122.684 25.7327 123 24.792 123H22V125H24.792C26.1808 125 27.53 124.533 28.6221 123.675C29.1091 123.292 29.6972 123.062 30.3105 123.011L30.5742 123H34V121H30.5742L30.3584 121.005ZM22 118H24.5127C25.4901 118 26.4421 118.32 27.2217 118.909C28.1578 119.617 29.3001 120 30.4736 120H34V118H30.4736C29.7354 118 29.0166 117.759 28.4277 117.313C27.3125 116.47 25.954 116.011 24.5566 116.001H22V118ZM22 113V115H24.5127C24.5296 115 24.5466 115.001 24.5635 115.001H34V113H22Z" fill="currentColor"/>
</svg>
