<svg xmlns="http://www.w3.org/2000/svg" width="16" height="16" viewBox="20.0 110.96 16.07 16.07" fill="none">
  <path d="M21.5 112C21.7761 112 22 112.224 22 112.5V120.848L23.4385 123.006L26.6914 116.5C27.024 115.835 27.9398 115.753 28.3857 116.348L30.459 119.112L34.0742 113.238C34.2189 113.003 34.5266 112.93 34.7617 113.074C34.9968 113.219 35.0702 113.527 34.9258 113.762L31.3105 119.637C30.9407 120.237 30.0823 120.276 29.6592 119.712L27.585 116.947L24.333 123.453C23.9896 124.14 23.0324 124.199 22.6064 123.561L22 122.65V125H34.5C34.7761 125 35 125.224 35 125.5C35 125.776 34.7761 126 34.5 126H21.5C21.2239 126 21 125.776 21 125.5V112.5C21 112.224 21.2239 112 21.5 112Z" fill="currentColor"/>
</svg>
