<svg xmlns="http://www.w3.org/2000/svg" width="16" height="16" viewBox="20.0 111.0 16.0 16.0" fill="none">
  <path d="M21.5 112C21.7761 112 22 112.224 22 112.5V125H34.5C34.7761 125 35 125.224 35 125.5C35 125.776 34.7761 126 34.5 126H21.5C21.2239 126 21 125.776 21 125.5V112.5C21 112.224 21.2239 112 21.5 112Z" fill="currentColor"/>
  <path d="M25.5 114C25.7761 114 26 114.224 26 114.5V115C26.2074 115 26.4634 114.998 26.6816 115.027C26.9287 115.061 27.2706 115.149 27.5605 115.439C27.8505 115.729 27.9394 116.071 27.9727 116.318C28.002 116.537 28 116.793 28 117V121C28 121.207 28.002 121.463 27.9727 121.682C27.9394 121.929 27.8505 122.271 27.5605 122.561C27.2706 122.851 26.9287 122.939 26.6816 122.973C26.4634 123.002 26.2074 123 26 123V123.5C26 123.776 25.7761 124 25.5 124C25.2239 124 25 123.776 25 123.5V123C24.7926 123 24.5366 123.002 24.3184 122.973C24.0713 122.939 23.7294 122.851 23.4395 122.561C23.1495 122.271 23.0606 121.929 23.0273 121.682C22.998 121.463 23 121.207 23 121V117C23 116.793 22.998 116.537 23.0273 116.318C23.0606 116.071 23.1495 115.729 23.4395 115.439C23.7294 115.149 24.0713 115.061 24.3184 115.027C24.5366 114.998 24.7926 115 25 115V114.5C25 114.224 25.2239 114 25.5 114ZM25 116C24.5286 116 24.2929 116 24.1465 116.146C24 116.293 24 116.529 24 117V121C24 121.471 24 121.707 24.1465 121.854C24.2563 121.963 24.4164 121.991 24.6885 121.998L25 122H26C26.4714 122 26.7071 122 26.8535 121.854C27 121.707 27 121.471 27 121V117C27 116.529 27 116.293 26.8535 116.146C26.7071 116 26.4714 116 26 116H25Z" fill="currentColor"/>
  <path d="M31.5 112C31.7761 112 32 112.224 32 112.5V113C32.2074 113 32.4634 112.998 32.6816 113.027C32.9287 113.061 33.2706 113.149 33.5605 113.439C33.8505 113.729 33.9394 114.071 33.9727 114.318C34.002 114.537 34 114.793 34 115V120C34 120.207 34.002 120.463 33.9727 120.682C33.9394 120.929 33.8505 121.271 33.5605 121.561C33.2706 121.851 32.9287 121.939 32.6816 121.973C32.4634 122.002 32.2074 122 32 122V122.5C32 122.776 31.7761 123 31.5 123C31.2239 123 31 122.776 31 122.5V122C30.7926 122 30.5366 122.002 30.3184 121.973C30.0713 121.939 29.7294 121.851 29.4395 121.561C29.1495 121.271 29.0606 120.929 29.0273 120.682C28.998 120.463 29 120.207 29 120V115C29 114.793 28.998 114.537 29.0273 114.318C29.0606 114.071 29.1495 113.729 29.4395 113.439C29.7294 113.149 30.0713 113.061 30.3184 113.027C30.5366 112.998 30.7926 113 31 113V112.5C31 112.224 31.2239 112 31.5 112ZM31 114C30.5286 114 30.2929 114 30.1465 114.146C30 114.293 30 114.529 30 115V120C30 120.471 30 120.707 30.1465 120.854C30.2563 120.963 30.4164 120.991 30.6885 120.998L31 121H32C32.4714 121 32.7071 121 32.8535 120.854C33 120.707 33 120.471 33 120V115C33 114.529 33 114.293 32.8535 114.146C32.7071 114 32.4714 114 32 114H31Z" fill="currentColor"/>
</svg>
