<svg xmlns="http://www.w3.org/2000/svg" width="16" height="16" viewBox="20.0 109.93 16.07 16.07" fill="none">
  <path d="M21.5 111C21.7761 111 22 111.224 22 111.5V117.998C26.9197 117.975 31.484 115.423 34.0752 111.237C34.2205 111.003 34.5279 110.93 34.7627 111.075C34.9974 111.221 35.07 111.528 34.9248 111.763C32.1513 116.243 27.2661 118.975 22 118.998V121H22.4287C26.8235 121 31.0388 119.254 34.1465 116.146C34.3417 115.951 34.6583 115.951 34.8535 116.146C35.0486 116.342 35.0486 116.658 34.8535 116.854C31.5583 120.149 27.0888 122 22.4287 122H22V124H34.5C34.7761 124 35 124.224 35 124.5C35 124.776 34.7761 125 34.5 125H21.5C21.2239 125 21 124.776 21 124.5V111.5C21 111.224 21.2239 111 21.5 111Z" fill="currentColor"/>
</svg>
