<svg xmlns="http://www.w3.org/2000/svg" width="16" height="16" viewBox="19.75 110.5 17.55 17.55" fill="none">
  <path d="M30.5 118C32.433 118 34 119.567 34 121.5C34 122.286 33.7403 123.011 33.3027 123.596L35.8535 126.146C36.0488 126.342 36.0488 126.658 35.8535 126.854C35.6583 127.049 35.3417 127.049 35.1465 126.854L32.5957 124.303C32.0114 124.74 31.2862 125 30.5 125C28.567 125 27 123.433 27 121.5C27 119.567 28.567 118 30.5 118ZM30.5 119C29.1193 119 28 120.119 28 121.5C28 122.881 29.1193 124 30.5 124C31.8807 124 33 122.881 33 121.5C33 120.119 31.8807 119 30.5 119Z" fill="currentColor"/>
  <path d="M21.5 111.5C21.7761 111.5 22 111.724 22 112H32C32.2073 112 32.4635 111.998 32.6816 112.027C32.9287 112.061 33.2706 112.15 33.5605 112.439C33.8505 112.729 33.9394 113.071 33.9727 113.318C34.002 113.537 34 113.793 34 114C34 114.207 34.002 114.463 33.9727 114.682C33.9394 114.929 33.8505 115.271 33.5605 115.561C33.2706 115.85 32.9286 115.939 32.6816 115.973C32.4635 116.002 32.2073 116 32 116H22V117H29C29.2073 117 29.4635 116.998 29.6816 117.027C29.7227 117.033 29.7659 117.042 29.8115 117.052C29.0088 117.175 28.2767 117.512 27.6729 118H22V120H26.2578C26.1452 120.319 26.0667 120.653 26.0283 121H22V122H26.0283C26.0667 122.347 26.1452 122.681 26.2578 123H22V125H27C27.2858 125 27.4847 124.999 27.6299 124.966C27.9124 125.2 28.2241 125.4 28.5586 125.561C28.2688 125.85 27.9284 125.939 27.6816 125.973C27.4635 126.002 27.2073 126 27 126H22C22 126.276 21.7761 126.5 21.5 126.5C21.224 126.5 21 126.276 21 126V112C21 111.724 21.224 111.5 21.5 111.5ZM22 115H32C32.4713 115 32.7071 115 32.8535 114.854C33 114.707 33 114.471 33 114C33 113.529 33 113.293 32.8535 113.146C32.7071 113 32.4713 113 32 113H22V115Z" fill="currentColor"/>
</svg>
