<svg xmlns="http://www.w3.org/2000/svg" width="16" height="16" viewBox="20.0 111.0 16.0 16.0" fill="none">
  <path d="M32.5 112C33.3284 112 34 112.672 34 113.5C34 114.153 33.5822 114.706 33 114.912V119.087C33.5823 119.293 34 119.847 34 120.5C34 121.328 33.3284 122 32.5 122C32.2682 122 32.0495 121.945 31.8535 121.852L29.8516 123.854C29.9455 124.05 30 124.268 30 124.5C30 125.328 29.3284 126 28.5 126C27.6716 126 27 125.328 27 124.5C27 124.327 27.0302 124.161 27.084 124.007L24.291 121.772C24.0612 121.916 23.7907 122 23.5 122C22.6716 122 22 121.328 22 120.5C22 119.672 22.6716 119 23.5 119C23.9968 119 24.436 119.242 24.709 119.614L28.1953 118.57L31.2637 114.349C31.0977 114.107 31 113.815 31 113.5C31 112.672 31.6716 112 32.5 112ZM28.5 124C28.2239 124 28 124.224 28 124.5C28 124.776 28.2239 125 28.5 125C28.7761 125 29 124.776 29 124.5C29 124.224 28.7761 124 28.5 124ZM28.9043 119.294L28.8516 119.355C28.7937 119.413 28.7223 119.455 28.6436 119.479L24.9961 120.572C24.9891 120.719 24.9612 120.859 24.915 120.992L27.709 123.227C27.9387 123.084 28.2094 123 28.5 123C28.7311 123 28.949 123.054 29.1445 123.147L31.1465 121.145C31.0533 120.949 31 120.731 31 120.5C31 119.847 31.4177 119.293 32 119.087V115.038L28.9043 119.294ZM23.5 120C23.2239 120 23 120.224 23 120.5C23 120.776 23.2239 121 23.5 121C23.7761 121 24 120.776 24 120.5C24 120.224 23.7761 120 23.5 120ZM32.5 120C32.2239 120 32 120.224 32 120.5C32 120.776 32.2239 121 32.5 121C32.7761 121 33 120.776 33 120.5C33 120.224 32.7761 120 32.5 120ZM32.5 113C32.2239 113 32 113.224 32 113.5C32 113.776 32.2239 114 32.5 114C32.7761 114 33 113.776 33 113.5C33 113.224 32.7761 113 32.5 113Z" fill="currentColor"/>
</svg>
