<svg xmlns="http://www.w3.org/2000/svg" width="16" height="16" viewBox="20.0 111.04 16.0 16.0" fill="none">
  <path d="M25 120C25.5522 120 26 120.448 26 121V122.036C26.0336 122.029 26.0644 122.022 26.0928 122.019C26.2429 121.998 26.4105 122 26.5 122H27.5C27.5895 122 27.7571 121.998 27.9073 122.019C28.0862 122.043 28.3804 122.113 28.6338 122.366C28.8872 122.62 28.9574 122.914 28.9815 123.093C29.0016 123.243 29 123.41 29 123.5V124.5C29 124.59 29.0017 124.758 28.9815 124.908C28.9574 125.087 28.8869 125.381 28.6338 125.634C28.3804 125.887 28.0862 125.958 27.9073 125.982C27.7572 126.003 27.5895 126 27.5 126H26.5C26.4105 126 26.2429 126.003 26.0928 125.982C25.9138 125.958 25.6196 125.887 25.3662 125.634C25.1132 125.381 25.0427 125.087 25.0186 124.908C24.9984 124.758 25 124.59 25 124.5V123.5C25 123.41 24.9984 123.243 25.0186 123.093C25.0191 123.089 25.02 123.085 25.0205 123.081C25.0137 123.081 25.0069 123.083 25 123.083H23.917C23.3647 123.083 22.917 122.635 22.917 122.083V121C22.917 120.448 23.3647 120 23.917 120H25ZM26.5 123C26.2643 123 26.1465 123 26.0733 123.073C26 123.146 26 123.264 26 123.5V124.5C26 124.735 26.0003 124.854 26.0733 124.927C26.1465 125 26.2643 125 26.5 125H27.5C27.7357 125 27.8536 125 27.9268 124.927C27.9998 124.854 28 124.736 28 124.5V123.5C28 123.264 28 123.146 27.9268 123.073C27.8536 123 27.7357 123 27.5 123H26.5ZM23.917 122.083H25V121H23.917V122.083Z" fill="currentColor"/>
  <path d="M34 114C34.5523 114 35 114.448 35 115V116C35 116.552 34.5523 117 34 117H33.9014C33.9388 117.115 33.9599 117.223 33.9727 117.318C34.002 117.537 34 117.793 34 118V119C34 119.207 34.002 119.463 33.9727 119.682C33.9599 119.777 33.9388 119.885 33.9014 120H34C34.5523 120 35 120.448 35 121V122C35 122.552 34.5523 123 34 123H33C32.4478 123 32 122.552 32 122V121H31C30.7927 121 30.5366 121.002 30.3184 120.973C30.0713 120.939 29.7295 120.851 29.4395 120.561C29.1495 120.271 29.0606 119.929 29.0274 119.682C28.9981 119.463 29 119.207 29 119V118C29 117.793 28.9981 117.537 29.0274 117.318C29.0606 117.071 29.1495 116.729 29.4395 116.439C29.7295 116.149 30.0713 116.061 30.3184 116.027C30.5366 115.998 30.7927 116 31 116H32V115C32 114.448 32.4478 114 33 114H34ZM33 122H34V121H33V122ZM31 117C30.5286 117 30.293 117 30.1465 117.147C30.0001 117.293 30 117.529 30 118V119C30 119.471 30.0001 119.707 30.1465 119.854C30.293 120 30.5286 120 31 120H32C32.4714 120 32.7071 120 32.8535 119.854C33 119.707 33 119.471 33 119V118C33 117.529 33 117.293 32.8535 117.147C32.7071 117 32.4714 117 32 117H31ZM33 116H34V115H33V116Z" fill="currentColor"/>
  <path d="M25.5 112.083C25.8252 112.083 26.1698 112.081 26.4561 112.119C26.7712 112.162 27.1607 112.269 27.4873 112.596C27.8139 112.922 27.9215 113.312 27.9639 113.627C28.0024 113.913 28 114.258 28 114.583V116.5C28 116.825 28.0024 117.17 27.9639 117.456C27.9215 117.771 27.8139 118.161 27.4873 118.487C27.1607 118.814 26.7712 118.922 26.4561 118.964C26.1698 119.002 25.8252 119 25.5 119H23.5C23.1748 119 22.8303 119.002 22.544 118.964C22.2289 118.922 21.8393 118.814 21.5127 118.487C21.1861 118.161 21.0785 117.771 21.0362 117.456C20.9977 117.17 21 116.825 21 116.5V114.583C21 114.258 20.9977 113.913 21.0362 113.627C21.0785 113.312 21.1861 112.922 21.5127 112.596C21.8393 112.269 22.2289 112.162 22.544 112.119C22.8303 112.081 23.1748 112.083 23.5 112.083H25.5ZM23.5 113.083C22.7929 113.083 22.4394 113.083 22.2198 113.303C22.0001 113.522 22 113.876 22 114.583V116.5C22 117.207 22.0001 117.561 22.2198 117.78C22.4394 118 22.7929 118 23.5 118H25.5C26.2071 118 26.5606 118 26.7803 117.78C27 117.561 27 117.207 27 116.5V114.583C27 113.876 27 113.522 26.7803 113.303C26.5606 113.083 26.2071 113.083 25.5 113.083H23.5Z" fill="currentColor"/>
</svg>
