<svg xmlns="http://www.w3.org/2000/svg" width="16" height="16" viewBox="19.0 110.0 17.0 17.0" fill="none">
  <path d="M28 112C31.866 112 35 115.134 35 119C35 122.866 31.866 126 28 126C24.134 126 21 122.866 21 119C21 118.796 21.0102 118.594 21.0273 118.395C21.3817 118.741 21.7265 119.035 22.0049 119.256C22.1113 121.792 23.7937 123.921 26.0977 124.69C26.4834 123.974 27.1282 123.43 27.9023 123.172L28.5654 122.951C29.1629 122.752 29.593 122.227 29.6719 121.603C29.7206 121.216 29.6301 120.824 29.416 120.498L29.0273 119.907C28.4259 118.992 27.4044 118.441 26.3096 118.441C26.1865 118.441 26.0637 118.435 25.9414 118.425C25.9805 118.387 26.0213 118.35 26.0605 118.311C26.3062 118.065 26.5627 117.782 26.8076 117.471C28.0463 117.617 29.169 118.301 29.8633 119.357L30.251 119.949C30.5958 120.474 30.7425 121.105 30.6641 121.728C30.5371 122.734 29.8435 123.58 28.8809 123.9L28.2188 124.121C27.7731 124.27 27.3907 124.556 27.1221 124.935C27.4087 124.977 27.7017 125 28 125C30.8895 125 33.3008 122.957 33.8711 120.237L33.3242 119.533C33.0469 119.176 32.6659 118.914 32.2334 118.782C31.6378 118.601 31.108 118.249 30.71 117.771L29.54 116.363C28.8684 115.555 28.5001 114.537 28.5 113.486V113.022C28.3351 113.009 28.1684 113 28 113C27.9143 113 27.829 113.002 27.7441 113.006C27.6231 112.662 27.462 112.338 27.2656 112.038C27.507 112.013 27.752 112 28 112ZM29.5 113.486C29.5001 114.303 29.7862 115.095 30.3086 115.724L31.4785 117.131C31.7517 117.459 32.1156 117.701 32.5244 117.825C33.0947 117.999 33.6031 118.329 33.9941 118.775C33.8949 116.079 32.0183 113.837 29.5 113.188V113.486Z" fill="currentColor"/>
  <path d="M23.5 113.5C24.0523 113.5 24.5 113.948 24.5 114.5C24.5 115.052 24.0523 115.5 23.5 115.5C22.9477 115.5 22.5 115.052 22.5 114.5C22.5 113.948 22.9477 113.5 23.5 113.5Z" fill="currentColor"/>
  <path d="M23.5 111C25.433 111 27 112.567 27 114.5C27 115.123 26.7677 115.713 26.46 116.226C26.1505 116.741 25.7456 117.211 25.3535 117.604C24.9599 117.997 24.5678 118.323 24.2754 118.551C24.1289 118.665 24.0067 118.755 23.9199 118.817C23.8765 118.848 23.8416 118.872 23.8174 118.889C23.8053 118.897 23.7958 118.904 23.7891 118.908C23.7859 118.91 23.7832 118.912 23.7812 118.913L23.7783 118.915L23.7773 118.916C23.6305 119.014 23.4447 119.026 23.2881 118.953L23.2227 118.916L23.2217 118.915L23.2188 118.913C23.2168 118.912 23.2141 118.91 23.2109 118.908C23.2042 118.904 23.1947 118.897 23.1826 118.889C23.1584 118.872 23.1235 118.848 23.0801 118.817C22.9933 118.755 22.8711 118.665 22.7246 118.551C22.4322 118.323 22.0401 117.997 21.6465 117.604C21.2544 117.211 20.8495 116.741 20.54 116.226C20.2323 115.713 20 115.123 20 114.5C20 112.567 21.567 111 23.5 111ZM23.5 112C22.1193 112 21 113.119 21 114.5C21 114.877 21.1428 115.287 21.3975 115.712C21.6505 116.134 21.9957 116.539 22.3535 116.896C22.7098 117.253 23.0679 117.552 23.3379 117.762C23.3959 117.807 23.4514 117.846 23.5 117.882C23.5486 117.846 23.6041 117.807 23.6621 117.762C23.9321 117.552 24.2902 117.253 24.6465 116.896C25.0043 116.539 25.3495 116.134 25.6025 115.712C25.8572 115.287 26 114.877 26 114.5C26 113.119 24.8807 112 23.5 112Z" fill="currentColor"/>
</svg>
