<svg xmlns="http://www.w3.org/2000/svg" width="16" height="16" viewBox="19.87 110.38 16.25 16.25" fill="none">
  <path d="M27.9973 112C28.6936 112 29.1354 112.444 29.3947 112.782C29.6507 113.116 29.9094 113.588 30.1828 114.08L34.1857 121.287C34.4449 121.754 34.698 122.203 34.841 122.583C34.9878 122.973 35.1235 123.559 34.7834 124.138C34.443 124.716 33.865 124.882 33.4523 124.943C33.0503 125.003 32.5343 125.001 32.0002 125.001H23.9943C23.4605 125.001 22.9452 125.003 22.5432 124.943C22.1305 124.882 21.5527 124.716 21.2121 124.138C20.8718 123.559 21.0077 122.974 21.1545 122.583C21.2975 122.203 21.5497 121.754 21.8088 121.287L25.8117 114.08C26.0852 113.588 26.3438 113.116 26.5998 112.782C26.8591 112.444 27.3009 112 27.9973 112ZM22.6828 121.772L22.3244 122.43C22.0247 123.005 21.9105 123.354 22.0734 123.631C22.2367 123.908 22.5973 123.978 23.2463 123.995L23.9943 124.001H32.0002C33.1355 124.001 33.7035 124 33.9211 123.631C34.0841 123.354 33.9699 123.005 33.6701 122.43L33.3117 121.772L32.883 121H23.1115L22.6828 121.772ZM25.3332 117L23.6672 120H32.3273L30.6613 117H25.3332ZM27.9973 113C27.556 113 27.2656 113.522 26.6857 114.565L25.8889 116H30.1057L29.3088 114.565C28.7289 113.522 28.4386 113 27.9973 113Z" fill="currentColor"/>
</svg>
