<svg xmlns="http://www.w3.org/2000/svg" width="16" height="16" viewBox="20.0 111.0 16.0 16.0" fill="none">
  <path d="M21.5 112C21.7761 112 22 112.224 22 112.5V122H23.5C23.7498 122 23.8873 121.999 23.9824 121.986L23.9854 121.985L23.9863 121.982C23.9991 121.887 24 121.75 24 121.5V118.5C24 118.278 23.9986 118.062 24.0225 117.885C24.0482 117.693 24.1114 117.475 24.293 117.293L24.3623 117.23C24.5285 117.096 24.717 117.045 24.8848 117.022C25.062 116.999 25.2785 117 25.5 117H27.5C27.7215 117 27.938 116.999 28.1152 117.022C28.283 117.045 28.4715 117.096 28.6377 117.23L28.707 117.293L28.7695 117.362C28.9037 117.529 28.955 117.717 28.9775 117.885C29.0014 118.062 29 118.278 29 118.5V119.5C29 119.75 29.0009 119.887 29.0137 119.982V119.985L29.0176 119.986C29.1127 119.999 29.2502 120 29.5 120H31.5C31.7498 120 31.8873 119.999 31.9824 119.986L31.9854 119.985L31.9863 119.982C31.9991 119.887 32 119.75 32 119.5V115.5C32 115.278 31.9986 115.062 32.0225 114.885C32.0482 114.693 32.1114 114.475 32.293 114.293L32.3623 114.23C32.5285 114.096 32.717 114.045 32.8848 114.022C33.062 113.999 33.2785 114 33.5 114H34.5C34.7761 114 35 114.224 35 114.5C35 114.776 34.7761 115 34.5 115H33.5C33.2502 115 33.1127 115.001 33.0176 115.014H33.0137V115.018C33.0009 115.113 33 115.25 33 115.5V119.5C33 119.722 33.0014 119.938 32.9775 120.115C32.9518 120.307 32.8886 120.525 32.707 120.707C32.5254 120.889 32.3068 120.952 32.1152 120.978C31.938 121.001 31.7215 121 31.5 121H29.5C29.2785 121 29.062 121.001 28.8848 120.978C28.6932 120.952 28.4746 120.889 28.293 120.707C28.1114 120.525 28.0482 120.307 28.0225 120.115C27.9986 119.938 28 119.722 28 119.5V118.5C28 118.25 27.9991 118.113 27.9863 118.018L27.9854 118.014H27.9824C27.8873 118.001 27.7498 118 27.5 118H25.5C25.2502 118 25.1127 118.001 25.0176 118.014H25.0137V118.018C25.0009 118.113 25 118.25 25 118.5V121.5C25 121.722 25.0014 121.938 24.9775 122.115C24.9518 122.307 24.8886 122.525 24.707 122.707C24.5254 122.889 24.3068 122.952 24.1152 122.978C23.938 123.001 23.7215 123 23.5 123H22V125H34.5C34.7761 125 35 125.224 35 125.5C35 125.776 34.7761 126 34.5 126H21.5C21.2239 126 21 125.776 21 125.5V112.5C21 112.224 21.2239 112 21.5 112Z" fill="currentColor"/>
</svg>
