<svg xmlns="http://www.w3.org/2000/svg" width="16" height="16" viewBox="19.96 111.0 16.04 16.04" fill="none">
  <path d="M27.9854 115C28.1602 115 28.3346 115.007 28.5078 115.02C28.7387 115.037 29.0565 115.056 29.3223 115.128C29.6194 115.208 29.9447 115.376 30.1739 115.711L30.2657 115.865L30.3418 116.04C30.4877 116.445 30.4117 116.823 30.3057 117.098C30.2048 117.359 30.0305 117.642 29.8936 117.87L29.2422 118.956C28.9915 119.374 28.5742 119.597 28.1612 119.646L27.9854 119.657C27.3542 119.657 26.7478 119.909 26.3008 120.355C26.0218 120.635 25.8191 120.976 25.7061 121.347C25.6311 121.593 25.5572 121.836 25.4825 122.025C25.4193 122.186 25.2819 122.515 24.9707 122.745C24.6893 122.954 24.388 123.004 24.1983 123.022C24.0139 123.041 23.795 123.04 23.6026 123.04H22.9453C22.7368 123.04 22.4614 123.043 22.2256 123.006C21.9422 122.961 21.5876 122.841 21.3067 122.51C21.043 122.198 20.9678 121.853 20.9659 121.555C20.9643 121.319 21.0111 121.059 21.0411 120.88C21.2813 119.443 21.9644 118.105 23.0078 117.062C24.328 115.742 26.1187 115 27.9854 115ZM27.9854 116C26.3839 116 24.8475 116.636 23.7149 117.769L23.5498 117.939C22.7473 118.808 22.2206 119.889 22.0274 121.045L21.9834 121.328C21.9502 121.577 21.9581 121.731 22.0703 121.863C22.1826 121.996 22.3466 122.029 22.625 122.037L22.9453 122.04H23.6026L23.8848 122.038C24.0902 122.034 24.2255 122.022 24.3223 121.975L24.376 121.941C24.4753 121.868 24.5453 121.702 24.6416 121.401L24.7491 121.055C24.8895 120.594 25.1276 120.166 25.4502 119.801L25.5938 119.648C26.1884 119.054 26.9816 118.703 27.8174 118.661L27.9854 118.657C28.1265 118.657 28.2621 118.598 28.3496 118.491L28.3848 118.441L29.0362 117.355C29.3493 116.834 29.5064 116.573 29.378 116.325C29.2816 116.139 29.1042 116.081 28.792 116.047L28.4336 116.017C28.3594 116.011 28.2847 116.007 28.21 116.004L27.9854 116Z" fill="currentColor"/>
  <path d="M32.3457 117.108C32.84 117.102 33.1983 117.335 33.4395 117.59C33.6284 117.79 33.7957 118.06 33.92 118.255C34.4284 119.052 34.7724 119.945 34.9287 120.88C34.9587 121.059 35.0055 121.319 35.0039 121.555C35.002 121.853 34.9266 122.197 34.6631 122.509C34.3821 122.841 34.0277 122.961 33.7442 123.006C33.5085 123.043 33.2339 123.04 33.0254 123.04H32.3672C32.1746 123.04 31.955 123.041 31.7705 123.022C31.5808 123.004 31.2794 122.954 30.9981 122.746C30.687 122.516 30.5495 122.185 30.4864 122.025C30.4116 121.836 30.3388 121.593 30.2637 121.347C30.242 121.276 30.2167 121.205 30.1885 121.137C30.1268 120.987 30.061 120.828 30.0157 120.693C29.9737 120.569 29.9037 120.34 29.9239 120.073L29.9483 119.901C29.9818 119.739 30.0392 119.607 30.087 119.511C30.1459 119.392 30.2246 119.262 30.2881 119.156L30.7559 118.378C30.8924 118.151 31.0592 117.864 31.2422 117.652C31.4619 117.398 31.8182 117.116 32.3457 117.108ZM32.3594 118.108C32.0812 118.112 31.9253 118.373 31.6133 118.893L31.1455 119.671L30.9825 119.955C30.9454 120.03 30.9254 120.089 30.9209 120.148C30.912 120.267 30.9793 120.43 31.1133 120.756C31.1535 120.854 31.1889 120.954 31.2198 121.055C31.3803 121.581 31.4604 121.844 31.5928 121.942C31.6922 122.016 31.8377 122.033 32.084 122.038L32.3672 122.04H33.0254L33.3448 122.037C33.5768 122.03 33.7295 122.006 33.8389 121.922L33.8995 121.863C34.0118 121.731 34.0205 121.577 33.9873 121.328L33.9424 121.045C33.825 120.343 33.5849 119.668 33.2344 119.053L33.0772 118.792C32.7848 118.334 32.6379 118.105 32.3594 118.108Z" fill="currentColor"/>
</svg>
