<svg xmlns="http://www.w3.org/2000/svg" width="16" height="16" viewBox="19.5 112.24 17.0 17.0" fill="none">
  <path d="M32.9463 114.503C33.2207 114.474 33.4674 114.672 33.4971 114.946C33.5264 115.221 33.328 115.468 33.0537 115.497L30.5596 115.765C28.0148 116.037 25.6334 117.15 23.793 118.929L23.3477 119.359C23.1491 119.551 22.8325 119.546 22.6406 119.348C22.4488 119.149 22.454 118.833 22.6523 118.641L23.0986 118.21C23.3803 117.938 23.6747 117.682 23.9785 117.439C23.9596 117.309 23.9244 117.217 23.8535 117.147C23.7071 117 23.4714 117 23 117C22.5286 117 22.2929 117 22.1465 117.147C22 117.293 22 117.529 22 118V126H24V119.736C24.3189 119.443 24.6526 119.169 25 118.915V126H26V121C26 120.793 25.998 120.537 26.0273 120.318C26.0606 120.071 26.1495 119.73 26.4395 119.44C26.7294 119.15 27.0713 119.061 27.3184 119.027C27.5366 118.998 27.7926 119 28 119C28.2074 119 28.4634 118.998 28.6816 119.027C28.9287 119.061 29.2706 119.15 29.5605 119.44C29.8505 119.73 29.9394 120.071 29.9727 120.318C30.002 120.537 30 120.793 30 121V126H31V123C31 122.793 30.998 122.537 31.0273 122.318C31.0606 122.071 31.1495 121.73 31.4395 121.44C31.7294 121.15 32.0713 121.061 32.3184 121.027C32.5366 120.998 32.7926 121 33 121C33.2074 121 33.4634 120.998 33.6816 121.027C33.9287 121.061 34.2706 121.15 34.5605 121.44C34.8505 121.73 34.9394 122.071 34.9727 122.318C35.002 122.537 35 122.793 35 123V126L35.1006 126.01C35.3285 126.056 35.5 126.258 35.5 126.5C35.5 126.776 35.2761 127 35 127H21C20.7239 127 20.5 126.776 20.5 126.5C20.5 126.258 20.6715 126.056 20.8994 126.01L21 126V118C21 117.793 20.998 117.537 21.0273 117.318C21.0606 117.071 21.1495 116.73 21.4395 116.44C21.7294 116.15 22.0713 116.061 22.3184 116.027C22.5366 115.998 22.7926 116 23 116C23.2074 116 23.4634 115.998 23.6816 116.027C23.9287 116.061 24.2706 116.15 24.5605 116.44C24.6806 116.56 24.7647 116.689 24.8262 116.816C26.4996 115.695 28.4282 114.986 30.4531 114.77L32.9463 114.503ZM28 120C27.5286 120 27.2929 120 27.1465 120.147C27.0001 120.293 27 120.529 27 121V126H29V121C29 120.529 28.9999 120.293 28.8535 120.147C28.7071 120 28.4714 120 28 120ZM33 122C32.5286 122 32.2929 122 32.1465 122.147C32.0001 122.293 32 122.529 32 123V126H34V123C34 122.529 33.9999 122.293 33.8535 122.147C33.7071 122 33.4714 122 33 122Z" fill="currentColor"/>
</svg>
