<svg xmlns="http://www.w3.org/2000/svg" width="16" height="16" viewBox="19.5 111.5 16.0 16.0" fill="none">
  <path d="M26 112.999C26.1262 112.999 26.3155 112.994 26.5098 113.021L26.7031 113.059L26.8145 113.093C27.3277 113.268 27.7313 113.672 27.9062 114.185L27.9404 114.296L27.9785 114.49C28.0049 114.684 28 114.873 28 114.999V116.171C28.0948 116.126 28.1934 116.087 28.2969 116.059L28.4902 116.021C28.6845 115.994 28.8738 115.999 29 115.999C29.1262 115.999 29.3155 115.994 29.5098 116.021L29.7031 116.059L29.8145 116.093C30.3277 116.268 30.7313 116.672 30.9062 117.185L30.9404 117.296L30.9785 117.49C31.0049 117.684 31 117.873 31 117.999V119.171C31.0948 119.126 31.1934 119.087 31.2969 119.059L31.4902 119.021C31.6845 118.994 31.8738 118.999 32 118.999C32.1262 118.999 32.3155 118.994 32.5098 119.021L32.7031 119.059L32.8145 119.093C33.3277 119.268 33.7313 119.672 33.9062 120.185L33.9404 120.296L33.9785 120.49C34.0049 120.684 34 120.873 34 120.999V124.999C34.276 124.999 34.4998 125.223 34.5 125.499C34.5 125.776 34.2761 125.999 34 125.999H21C20.7239 125.999 20.5 125.776 20.5 125.499C20.5002 125.223 20.724 124.999 21 124.999V120.999C21 120.831 20.9914 120.551 21.0596 120.296L21.0938 120.185C21.2812 119.635 21.7309 119.211 22.2969 119.059L22.4902 119.021C22.6845 118.994 22.8738 118.999 23 118.999C23.1262 118.999 23.3155 118.994 23.5098 119.021L23.7031 119.059L23.8145 119.093C23.878 119.115 23.94 119.14 24 119.168V114.999C24 114.831 23.9914 114.551 24.0596 114.296L24.0938 114.185C24.2812 113.635 24.7309 113.211 25.2969 113.059L25.4902 113.021C25.6845 112.994 25.8738 112.999 26 112.999ZM23 119.999C22.7676 119.999 22.651 119.999 22.5557 120.025C22.2971 120.094 22.0949 120.297 22.0254 120.555C21.9998 120.65 22 120.767 22 120.999V124.999H24V120.999C24 120.767 24.0002 120.65 23.9746 120.555C23.9051 120.297 23.7029 120.094 23.4443 120.025C23.349 119.999 23.2324 119.999 23 119.999ZM26 113.999C25.7676 113.999 25.651 113.999 25.5557 114.025C25.2971 114.094 25.0949 114.297 25.0254 114.555C24.9998 114.65 25 114.767 25 114.999V124.999H27V114.999C27 114.767 27.0002 114.65 26.9746 114.555C26.9051 114.297 26.7029 114.094 26.4443 114.025C26.349 113.999 26.2324 113.999 26 113.999ZM29 116.999C28.7676 116.999 28.651 116.999 28.5557 117.025C28.2971 117.094 28.0949 117.297 28.0254 117.555C27.9998 117.65 28 117.767 28 117.999V124.999H30V117.999C30 117.767 30.0002 117.65 29.9746 117.555C29.9051 117.297 29.7029 117.094 29.4443 117.025C29.349 116.999 29.2324 116.999 29 116.999ZM32 119.999C31.7676 119.999 31.651 119.999 31.5557 120.025C31.2971 120.094 31.0949 120.297 31.0254 120.555C30.9998 120.65 31 120.767 31 120.999V124.999H33V120.999C33 120.767 33.0002 120.65 32.9746 120.555C32.9051 120.297 32.7029 120.094 32.4443 120.025C32.349 119.999 32.2324 119.999 32 119.999Z" fill="currentColor"/>
</svg>
