<svg xmlns="http://www.w3.org/2000/svg" width="16" height="16" viewBox="19.5 110.5 17.0 17.0" fill="none">
  <path d="M23 111.999C23.1262 111.999 23.3155 111.994 23.5098 112.021L23.7031 112.059L23.8145 112.093C24.3277 112.268 24.7313 112.672 24.9062 113.185L24.9404 113.296L24.9785 113.49C25.0049 113.684 25 113.873 25 113.999V115.999C25 116.167 25.0085 116.448 24.9404 116.703C24.8578 117.011 24.6931 117.284 24.4727 117.499C24.6662 117.689 24.8166 117.922 24.9062 118.185L24.9404 118.296L24.9785 118.49C25.0049 118.684 25 118.873 25 118.999C25 119.167 25.0085 119.448 24.9404 119.703C24.8578 120.011 24.6931 120.284 24.4727 120.499C24.6662 120.689 24.8166 120.922 24.9062 121.185L24.9404 121.296L24.9785 121.49C25.0049 121.684 25 121.873 25 121.999V124.999H26V122.999C26 122.831 25.9914 122.551 26.0596 122.296L26.0938 122.185C26.1719 121.956 26.2973 121.75 26.4561 121.575C26.1755 121.302 26 120.921 26 120.499C26.0001 120.077 26.1751 119.696 26.4561 119.423C26.2722 119.22 26.1329 118.976 26.0596 118.703C25.9915 118.448 26 118.167 26 117.999V116.999C26 116.831 25.9914 116.551 26.0596 116.296L26.0938 116.185C26.2812 115.635 26.7309 115.211 27.2969 115.059L27.4902 115.021C27.6845 114.994 27.8738 114.999 28 114.999C28.1262 114.999 28.3155 114.994 28.5098 115.021L28.7031 115.059L28.8145 115.093C29.3277 115.268 29.7313 115.672 29.9062 116.185L29.9404 116.296L29.9785 116.49C30.0049 116.684 30 116.873 30 116.999V117.999C30 118.167 30.0085 118.448 29.9404 118.703C29.8671 118.976 29.7271 119.22 29.543 119.423C29.8243 119.696 29.9999 120.077 30 120.499C30 120.922 29.8238 121.302 29.543 121.575C29.702 121.75 29.828 121.955 29.9062 122.185L29.9404 122.296L29.9785 122.49C30.0049 122.684 30 122.873 30 122.999V124.999H31V122.999C31 122.831 30.9914 122.551 31.0596 122.296L31.0938 122.185C31.1833 121.922 31.334 121.69 31.5273 121.5C31.3066 121.285 31.1423 121.011 31.0596 120.703C30.9915 120.448 31 120.167 31 119.999C31 119.831 30.9914 119.551 31.0596 119.296L31.0938 119.185C31.1833 118.922 31.334 118.69 31.5273 118.5C31.3066 118.285 31.1423 118.011 31.0596 117.703C30.9915 117.448 31 117.167 31 116.999V115.999C31 115.831 30.9914 115.551 31.0596 115.296L31.0938 115.185C31.2812 114.635 31.7309 114.211 32.2969 114.059L32.4902 114.021C32.6845 113.994 32.8738 113.999 33 113.999C33.1262 113.999 33.3155 113.994 33.5098 114.021L33.7031 114.059L33.8145 114.093C34.3277 114.268 34.7313 114.672 34.9062 115.185L34.9404 115.296L34.9785 115.49C35.0049 115.684 35 115.873 35 115.999V116.999C35 117.167 35.0085 117.448 34.9404 117.703C34.8578 118.011 34.6931 118.284 34.4727 118.499C34.6662 118.689 34.8166 118.922 34.9062 119.185L34.9404 119.296L34.9785 119.49C35.0049 119.684 35 119.873 35 119.999C35 120.167 35.0085 120.448 34.9404 120.703C34.8578 121.011 34.6931 121.284 34.4727 121.499C34.6662 121.689 34.8166 121.922 34.9062 122.185L34.9404 122.296L34.9785 122.49C35.0049 122.684 35 122.873 35 122.999V124.999C35.276 124.999 35.4998 125.223 35.5 125.499C35.5 125.776 35.2761 125.999 35 125.999H21C20.7239 125.999 20.5 125.776 20.5 125.499C20.5002 125.223 20.724 124.999 21 124.999V121.999C21 121.831 20.9914 121.551 21.0596 121.296L21.0938 121.185C21.1833 120.922 21.334 120.69 21.5273 120.5C21.3066 120.285 21.1423 120.011 21.0596 119.703C20.9915 119.448 21 119.167 21 118.999C21 118.831 20.9914 118.551 21.0596 118.296L21.0938 118.185C21.1833 117.922 21.334 117.69 21.5273 117.5C21.3066 117.285 21.1423 117.011 21.0596 116.703C20.9915 116.448 21 116.167 21 115.999V113.999C21 113.831 20.9914 113.551 21.0596 113.296L21.0938 113.185C21.2812 112.635 21.7309 112.211 22.2969 112.059L22.4902 112.021C22.6845 111.994 22.8738 111.999 23 111.999ZM23 120.999C22.7676 120.999 22.651 120.999 22.5557 121.025C22.2971 121.094 22.0949 121.297 22.0254 121.555C21.9998 121.65 22 121.767 22 121.999V124.999H24V121.999C24 121.767 24.0002 121.65 23.9746 121.555C23.9051 121.297 23.7029 121.094 23.4443 121.025C23.349 120.999 23.2324 120.999 23 120.999ZM28 121.999C27.7676 121.999 27.651 121.999 27.5557 122.025C27.2971 122.094 27.0949 122.297 27.0254 122.555C26.9998 122.65 27 122.767 27 122.999V124.999H29V122.999C29 122.767 29.0002 122.65 28.9746 122.555C28.9051 122.297 28.7029 122.094 28.4443 122.025C28.349 121.999 28.2324 121.999 28 121.999ZM33 121.999C32.7676 121.999 32.651 121.999 32.5557 122.025C32.2971 122.094 32.0949 122.297 32.0254 122.555C31.9998 122.65 32 122.767 32 122.999V124.999H34V122.999C34 122.767 34.0002 122.65 33.9746 122.555C33.9051 122.297 33.7029 122.094 33.4443 122.025C33.349 121.999 33.2324 121.999 33 121.999ZM27.5 119.999C27.224 119.999 27.0002 120.223 27 120.499C27 120.776 27.2239 120.999 27.5 120.999H28.5C28.7761 120.999 29 120.776 29 120.499C28.9998 120.223 28.776 119.999 28.5 119.999H27.5ZM33 118.999C32.7676 118.999 32.651 118.999 32.5557 119.025C32.2971 119.094 32.0949 119.297 32.0254 119.555C31.9998 119.65 32 119.767 32 119.999C32 120.232 31.9999 120.348 32.0254 120.444C32.0948 120.702 32.297 120.905 32.5557 120.974C32.651 121 32.7675 120.999 33 120.999C33.1744 120.999 33.2834 120.999 33.3672 120.989L33.4443 120.974C33.6708 120.913 33.8538 120.751 33.9424 120.537L33.9746 120.444C34.0001 120.348 34 120.232 34 119.999C34 119.767 34.0002 119.65 33.9746 119.555C33.9051 119.297 33.7029 119.094 33.4443 119.025C33.349 118.999 33.2324 118.999 33 118.999ZM23 117.999C22.7676 117.999 22.651 117.999 22.5557 118.025C22.2971 118.094 22.0949 118.297 22.0254 118.555C21.9998 118.65 22 118.767 22 118.999C22 119.232 21.9999 119.348 22.0254 119.444C22.0948 119.702 22.297 119.905 22.5557 119.974C22.651 120 22.7675 119.999 23 119.999C23.1744 119.999 23.2834 119.999 23.3672 119.989L23.4443 119.974C23.6708 119.913 23.8538 119.751 23.9424 119.537L23.9746 119.444C24.0001 119.348 24 119.232 24 118.999C24 118.767 24.0002 118.65 23.9746 118.555C23.9051 118.297 23.7029 118.094 23.4443 118.025C23.349 117.999 23.2324 117.999 23 117.999ZM28 115.999C27.7676 115.999 27.651 115.999 27.5557 116.025C27.2971 116.094 27.0949 116.297 27.0254 116.555C26.9998 116.65 27 116.767 27 116.999V117.999C27 118.232 26.9999 118.348 27.0254 118.444C27.0948 118.702 27.297 118.905 27.5557 118.974C27.651 119 27.7675 118.999 28 118.999C28.1744 118.999 28.2834 118.999 28.3672 118.989L28.4443 118.974C28.6708 118.913 28.8538 118.751 28.9424 118.537L28.9746 118.444C29.0001 118.348 29 118.232 29 117.999V116.999C29 116.767 29.0002 116.65 28.9746 116.555C28.9051 116.297 28.7029 116.094 28.4443 116.025C28.349 115.999 28.2324 115.999 28 115.999ZM33 114.999C32.7676 114.999 32.651 114.999 32.5557 115.025C32.2971 115.094 32.0949 115.297 32.0254 115.555C31.9998 115.65 32 115.767 32 115.999V116.999C32 117.232 31.9999 117.348 32.0254 117.444C32.0948 117.702 32.297 117.905 32.5557 117.974C32.651 118 32.7675 117.999 33 117.999C33.1744 117.999 33.2834 117.999 33.3672 117.989L33.4443 117.974C33.6708 117.913 33.8538 117.751 33.9424 117.537L33.9746 117.444C34.0001 117.348 34 117.232 34 116.999V115.999C34 115.767 34.0002 115.65 33.9746 115.555C33.9051 115.297 33.7029 115.094 33.4443 115.025C33.349 114.999 33.2324 114.999 33 114.999ZM23 112.999C22.7676 112.999 22.651 112.999 22.5557 113.025C22.2971 113.094 22.0949 113.297 22.0254 113.555C21.9998 113.65 22 113.767 22 113.999V115.999C22 116.232 21.9999 116.348 22.0254 116.444C22.0948 116.702 22.297 116.905 22.5557 116.974C22.651 117 22.7675 116.999 23 116.999C23.1744 116.999 23.2834 116.999 23.3672 116.989L23.4443 116.974C23.6708 116.913 23.8538 116.751 23.9424 116.537L23.9746 116.444C24.0001 116.348 24 116.232 24 115.999V113.999C24 113.767 24.0002 113.65 23.9746 113.555C23.9051 113.297 23.7029 113.094 23.4443 113.025C23.349 112.999 23.2324 112.999 23 112.999Z" fill="currentColor"/>
</svg>
