<svg xmlns="http://www.w3.org/2000/svg" width="16" height="16" viewBox="19.28 110.92 17.1 17.1" fill="none">
  <path d="M26.0891 112.399C27.1783 112.029 28.3383 111.915 29.4787 112.065C30.6193 112.215 31.7107 112.625 32.6672 113.264C33.0269 113.505 33.3638 113.775 33.675 114.072C33.9545 114.338 34.2208 114.589 34.3967 114.843C34.5965 115.133 34.6965 115.448 34.6506 115.833C34.6016 116.241 34.3933 116.533 34.1086 116.773C33.8486 116.992 33.4855 117.199 33.0803 117.433L32.6281 117.694C32.6958 117.85 32.756 118.01 32.8059 118.174C33.1083 119.171 33.0561 120.242 32.6574 121.204C32.6441 121.236 32.6295 121.268 32.6154 121.299L33.0803 121.568C33.4857 121.802 33.8486 122.009 34.1086 122.228C34.3934 122.468 34.6017 122.76 34.6506 123.169C34.6964 123.553 34.5965 123.868 34.3967 124.158C34.2208 124.412 33.9544 124.663 33.675 124.929C33.0103 125.563 32.2299 126.073 31.3703 126.429C30.5106 126.785 29.5979 126.977 28.6799 126.999C28.2937 127.008 27.9276 127.019 27.6232 126.963C27.2774 126.9 26.9838 126.747 26.7443 126.443C26.4902 126.12 26.4315 125.766 26.4631 125.395C26.4921 125.056 26.6017 124.653 26.7229 124.201L26.8635 123.673C26.4297 123.505 26.0247 123.271 25.6633 122.978L25.257 123.385C24.9268 123.715 24.633 124.01 24.3547 124.204C24.0498 124.416 23.714 124.541 23.3078 124.483C22.9257 124.428 22.6468 124.251 22.4191 123.984C22.2189 123.749 22.0455 123.428 21.8606 123.09C21.7318 122.856 21.615 122.613 21.5119 122.365C21.41 122.12 21.3213 121.869 21.2463 121.615C21.137 121.245 21.0314 120.895 21.0061 120.587C20.9773 120.236 21.0479 119.912 21.2795 119.602C21.526 119.272 21.8533 119.124 22.2199 119.058C22.5546 118.998 22.9728 119.001 23.4406 119.001H23.6066C23.9684 119.001 24.3052 119.002 24.6154 119.005H27.0852C27.1033 118.954 27.1242 118.903 27.1477 118.854L27.1408 118.847C27.115 118.821 27.0883 118.796 27.0617 118.769L24.6115 116.319C24.2806 115.988 23.9838 115.694 23.7893 115.415C23.5763 115.109 23.4496 114.773 23.508 114.366C23.5631 113.983 23.7421 113.704 24.01 113.476C24.2456 113.276 24.5676 113.103 24.9065 112.918C25.2837 112.712 25.6796 112.538 26.0891 112.399ZM32.1223 122.169C31.638 122.826 30.9828 123.342 30.2229 123.657C29.4622 123.972 28.6324 124.071 27.8244 123.948L27.6887 124.46C27.558 124.947 27.4788 125.25 27.4592 125.48C27.4425 125.677 27.4758 125.755 27.5305 125.825C27.6003 125.914 27.666 125.954 27.8039 125.979C27.9836 126.012 28.2285 126.009 28.6555 125.999C29.4512 125.98 30.2424 125.814 30.9875 125.505C31.7326 125.197 32.4094 124.755 32.9856 124.206C33.2947 123.911 33.4705 123.74 33.5744 123.589C33.6541 123.474 33.6717 123.399 33.6584 123.287C33.6478 123.199 33.6152 123.12 33.4641 122.993C33.2877 122.844 33.0179 122.686 32.5803 122.433L32.1223 122.169ZM23.4406 120.001C22.9357 120.001 22.6225 120.002 22.3957 120.043C22.2018 120.077 22.1344 120.13 22.0813 120.201C22.0137 120.291 21.9908 120.365 22.0022 120.505C22.0172 120.686 22.0844 120.922 22.2053 121.332C22.2702 121.551 22.3475 121.769 22.4357 121.981C22.5251 122.196 22.626 122.407 22.7375 122.61C22.942 122.983 23.0618 123.196 23.1799 123.335C23.2703 123.441 23.3382 123.477 23.4494 123.493C23.537 123.505 23.6217 123.495 23.7834 123.382C23.9721 123.251 24.1943 123.032 24.551 122.676L24.6662 122.563C24.7692 122.46 24.8661 122.36 24.9602 122.265C24.439 121.605 24.1188 120.829 24.0275 120.002C23.8933 120.001 23.7529 120.001 23.6066 120.001H23.4406ZM29.4748 120.638C29.2398 120.84 28.9429 120.969 28.6154 120.994L28.091 122.957C28.7985 123.039 29.5166 122.906 30.1486 122.568C30.5737 122.341 30.9419 122.029 31.2375 121.657L29.4748 120.638ZM25.0383 120.005C25.1277 120.626 25.3816 121.205 25.7883 121.701C26.1484 122.139 26.6092 122.478 27.1252 122.698L27.6496 120.736C27.3932 120.559 27.1958 120.304 27.0891 120.005H25.0383ZM30.0793 119.167C30.044 119.187 30.0081 119.205 29.9738 119.225C29.9904 119.315 30.0002 119.406 30.0002 119.501C30.0002 119.594 29.9901 119.685 29.9738 119.773L31.7424 120.795C32.043 120.053 32.0823 119.231 31.8498 118.465C31.8222 118.375 31.7897 118.286 31.7551 118.198L30.0793 119.167ZM28.9572 116.03C28.4251 115.96 27.8835 116.013 27.3752 116.185C27.0287 116.303 26.7043 116.475 26.4123 116.692L27.8645 118.143C28.0576 118.053 28.2727 118.001 28.5002 118.001C28.8711 118.001 29.2101 118.136 29.4719 118.359L31.2492 117.335C31.0223 117.047 30.7511 116.794 30.4445 116.589C29.9983 116.291 29.4893 116.1 28.9572 116.03ZM29.3488 113.056C28.3604 112.926 27.3544 113.025 26.4104 113.345C26.0555 113.466 25.7128 113.617 25.3859 113.796C25.0109 114 24.7966 114.12 24.6574 114.238C24.5507 114.329 24.5143 114.397 24.4982 114.508C24.4858 114.596 24.4966 114.68 24.6096 114.842C24.7415 115.032 24.9613 115.255 25.3186 115.612L25.6789 115.972C26.3577 115.428 27.1829 115.088 28.0559 115.003C29.0922 114.901 30.1322 115.161 30.9982 115.739C31.4402 116.034 31.8229 116.403 32.132 116.826L32.5803 116.568C33.0176 116.315 33.2877 116.157 33.4641 116.008C33.6151 115.881 33.6478 115.802 33.6584 115.714C33.6718 115.602 33.6541 115.527 33.5744 115.412C33.4706 115.261 33.2949 115.09 32.9856 114.796C32.7159 114.538 32.4232 114.305 32.1115 114.096C31.2826 113.542 30.3372 113.186 29.3488 113.056Z" fill="currentColor"/>
</svg>
