<svg xmlns="http://www.w3.org/2000/svg" width="16" height="16" viewBox="19.5 111.0 17.0 17.0" fill="none">
  <path d="M33 113C33.2074 113 33.4634 112.998 33.6816 113.027C33.9287 113.061 34.2706 113.149 34.5605 113.439C34.8505 113.729 34.9394 114.071 34.9727 114.318C35.002 114.537 35 114.793 35 115V125C35.2761 125 35.5 125.224 35.5 125.5C35.5 125.776 35.2761 126 35 126H21C20.7239 126 20.5 125.776 20.5 125.5C20.5 125.224 20.7239 125 21 125V120C21 119.793 20.998 119.537 21.0273 119.318C21.0606 119.071 21.1495 118.729 21.4395 118.439C21.7294 118.149 22.0713 118.061 22.3184 118.027C22.5366 117.998 22.7926 118 23 118C23.2074 118 23.4634 117.998 23.6816 118.027C23.9287 118.061 24.2706 118.149 24.5605 118.439C24.8505 118.729 24.9394 119.071 24.9727 119.318C25.002 119.537 25 119.793 25 120V125H26V118C26 117.793 25.998 117.537 26.0273 117.318C26.0606 117.071 26.1495 116.729 26.4395 116.439C26.7294 116.149 27.0713 116.061 27.3184 116.027C27.5366 115.998 27.7926 116 28 116C28.2074 116 28.4634 115.998 28.6816 116.027C28.9287 116.061 29.2706 116.149 29.5605 116.439C29.8505 116.729 29.9394 117.071 29.9727 117.318C30.002 117.537 30 117.793 30 118V125H31V115C31 114.793 30.998 114.537 31.0273 114.318C31.0606 114.071 31.1495 113.729 31.4395 113.439C31.7294 113.149 32.0713 113.061 32.3184 113.027C32.5366 112.998 32.7926 113 33 113ZM23 119C22.5286 119 22.2929 119 22.1465 119.147C22 119.293 22 119.529 22 120V125H24V120C24 119.529 24 119.293 23.8535 119.147C23.7071 119 23.4714 119 23 119ZM33 114C32.5286 114 32.2929 114 32.1465 114.147C32 114.293 32 114.529 32 115V125H34V115C34 114.529 34 114.293 33.8535 114.147C33.7071 114 33.4714 114 33 114ZM28 117C27.5286 117 27.2929 117 27.1465 117.147C27 117.293 27 117.529 27 118V125H29V118C29 117.529 29 117.293 28.8535 117.147C28.7071 117 28.4714 117 28 117Z" fill="currentColor"/>
</svg>
