<svg xmlns="http://www.w3.org/2000/svg" width="16" height="16" viewBox="19.5 111.0 16.0 16.0" fill="none">
  <path d="M26 116.5C26 116.224 26.2239 116 26.5 116L28.5 116C28.7762 116 29 116.224 29 116.5C29 116.776 28.7762 117 28.5 117L26.5 117C26.2239 117 26 116.776 26 116.5Z" fill="currentColor"/>
  <path d="M24 114.5C24 114.175 23.9977 113.83 24.0362 113.544C24.0785 113.229 24.1861 112.839 24.5127 112.513C24.8393 112.186 25.2289 112.078 25.544 112.036C25.8303 111.998 26.1748 112 26.5 112L28.5 112C28.8252 112 29.1698 111.998 29.4561 112.036C29.7712 112.078 30.1607 112.186 30.4873 112.513C30.8139 112.839 30.9215 113.229 30.9639 113.544C31.0024 113.83 31 114.175 31 114.5L31 123.5C31 123.825 31.0024 124.17 30.9639 124.456C30.9215 124.771 30.8139 125.161 30.4873 125.487C30.1607 125.814 29.7712 125.921 29.4561 125.964C29.1698 126.002 28.8252 126 28.5 126L26.5 126C26.1748 126 25.8303 126.002 25.544 125.964C25.2289 125.921 24.8393 125.814 24.5127 125.487C24.1861 125.161 24.0785 124.771 24.0362 124.456C23.9977 124.17 24 123.825 24 123.5L24 114.5ZM29 124.995C29.3884 124.983 29.62 124.941 29.7803 124.78C30 124.561 30 124.207 30 123.5L30 121L29 121L29 124.995ZM26 120L26 119.5C26 119.3 25.9962 119.102 26.043 118.927C26.1586 118.495 26.4955 118.159 26.9268 118.043C27.1017 117.996 27.2999 118 27.5 118C27.7002 118 27.8984 117.996 28.0733 118.043C28.5046 118.159 28.8415 118.495 28.9571 118.927C29.0039 119.102 29 119.3 29 119.5L29 120L30 120L30 114.5C30 113.793 30 113.439 29.7803 113.22C29.6156 113.055 29.3756 113.014 28.9678 113.004L28.5 113L26.5 113L26.0323 113.004C25.6244 113.014 25.3845 113.055 25.2198 113.22C25.0001 113.439 25 113.793 25 114.5L25 120L26 120ZM28 122L28 119.5C28 119.379 27.9997 119.305 27.9971 119.249C27.995 119.204 27.9918 119.188 27.9912 119.186C27.9681 119.099 27.9007 119.032 27.8145 119.009C27.8113 119.008 27.795 119.005 27.751 119.003C27.695 119 27.6206 119 27.5 119C27.3794 119 27.305 119 27.2491 119.003C27.2039 119.005 27.188 119.008 27.1856 119.009C27.0994 119.032 27.0319 119.099 27.0088 119.186C27.0082 119.188 27.005 119.204 27.003 119.249C27.0004 119.305 27 119.379 27 119.5L27 122L28 122ZM25.0039 123.968C25.0142 124.376 25.0551 124.616 25.2198 124.78C25.3801 124.941 25.6117 124.982 26 124.994L26 121L25 121L25 123.5L25.0039 123.968Z" fill="currentColor"/>
</svg>
