<svg xmlns="http://www.w3.org/2000/svg" width="16" height="16" viewBox="20.0 111.0 16.0 16.0" fill="none">
  <path d="M21.5 112C21.7761 112 22 112.224 22 112.5V124.293L33.1465 113.146C33.3417 112.951 33.6583 112.951 33.8535 113.146C34.0488 113.342 34.0488 113.658 33.8535 113.854L22.707 125H34.5C34.7761 125 35 125.224 35 125.5C35 125.776 34.7761 126 34.5 126H21.5C21.2239 126 21 125.776 21 125.5V112.5C21 112.224 21.2239 112 21.5 112Z" fill="currentColor"/>
  <path d="M29.5 122.75C29.9142 122.75 30.25 123.086 30.25 123.5C30.25 123.914 29.9142 124.25 29.5 124.25C29.0858 124.25 28.75 123.914 28.75 123.5C28.75 123.086 29.0858 122.75 29.5 122.75Z" fill="currentColor"/>
  <path d="M30.5 119.75C30.9142 119.75 31.25 120.086 31.25 120.5C31.25 120.914 30.9142 121.25 30.5 121.25C30.0858 121.25 29.75 120.914 29.75 120.5C29.75 120.086 30.0858 119.75 30.5 119.75Z" fill="currentColor"/>
  <path d="M24.5 117.75C24.9142 117.75 25.25 118.086 25.25 118.5C25.25 118.914 24.9142 119.25 24.5 119.25C24.0858 119.25 23.75 118.914 23.75 118.5C23.75 118.086 24.0858 117.75 24.5 117.75Z" fill="currentColor"/>
  <path d="M33.5 115.75C33.9142 115.75 34.25 116.086 34.25 116.5C34.25 116.914 33.9142 117.25 33.5 117.25C33.0858 117.25 32.75 116.914 32.75 116.5C32.75 116.086 33.0858 115.75 33.5 115.75Z" fill="currentColor"/>
  <path d="M26.5 114.75C26.9142 114.75 27.25 115.086 27.25 115.5C27.25 115.914 26.9142 116.25 26.5 116.25C26.0858 116.25 25.75 115.914 25.75 115.5C25.75 115.086 26.0858 114.75 26.5 114.75Z" fill="currentColor"/>
  <path d="M29.5 112.75C29.9142 112.75 30.25 113.086 30.25 113.5C30.25 113.914 29.9142 114.25 29.5 114.25C29.0858 114.25 28.75 113.914 28.75 113.5C28.75 113.086 29.0858 112.75 29.5 112.75Z" fill="currentColor"/>
</svg>
