<svg xmlns="http://www.w3.org/2000/svg" width="16" height="16" viewBox="20.0 111.5 16.0 16.0" fill="none">
  <path d="M24 125C24.2762 125 24.5 125.224 24.5 125.5C24.5 125.776 24.2762 126 24 126H22C21.7239 126 21.5 125.776 21.5 125.5C21.5 125.224 21.7239 125 22 125H24Z" fill="currentColor"/>
  <path d="M29 125C29.2762 125 29.5 125.224 29.5 125.5C29.5 125.776 29.2762 126 29 126H27C26.7239 126 26.5 125.776 26.5 125.5C26.5 125.224 26.7239 125 27 125H29Z" fill="currentColor"/>
  <path d="M34 125C34.2762 125 34.5 125.224 34.5 125.5C34.5 125.776 34.2762 126 34 126H32C31.7239 126 31.5 125.776 31.5 125.5C31.5 125.224 31.7239 125 32 125H34Z" fill="currentColor"/>
  <path d="M23 118C23.2074 118 23.4634 117.998 23.6817 118.027C23.9287 118.061 24.2706 118.15 24.5606 118.439C24.8506 118.729 24.9395 119.071 24.9727 119.318C25.002 119.537 25 119.793 25 120V122C25 122.207 25.002 122.463 24.9727 122.682C24.9395 122.929 24.8506 123.271 24.5606 123.561C24.2706 123.851 23.9287 123.939 23.6817 123.973C23.4634 124.002 23.2074 124 23 124C22.7927 124 22.5366 124.002 22.3184 123.973C22.0713 123.939 21.7295 123.851 21.4395 123.561C21.1495 123.271 21.0606 122.929 21.0274 122.682C20.9981 122.463 21 122.207 21 122V120C21 119.793 20.9981 119.537 21.0274 119.318C21.0606 119.071 21.1495 118.729 21.4395 118.439C21.7295 118.149 22.0713 118.061 22.3184 118.027C22.5366 117.998 22.7927 118 23 118ZM23 119C22.5286 119 22.293 119 22.1465 119.147C22.0001 119.293 22 119.529 22 120V122C22 122.471 22.0001 122.707 22.1465 122.854C22.293 123 22.5286 123 23 123C23.4714 123 23.7071 123 23.8535 122.854C24 122.707 24 122.471 24 122V120C24 119.529 24 119.293 23.8535 119.147C23.7071 119 23.4714 119 23 119Z" fill="currentColor"/>
  <path d="M28 113C28.2074 113 28.4634 112.998 28.6817 113.027C28.9287 113.061 29.2706 113.15 29.5606 113.439C29.8506 113.729 29.9395 114.071 29.9727 114.318C30.002 114.537 30 114.793 30 115V122C30 122.207 30.002 122.463 29.9727 122.682C29.9395 122.929 29.8506 123.271 29.5606 123.561C29.2706 123.851 28.9287 123.939 28.6817 123.973C28.4634 124.002 28.2074 124 28 124C27.7927 124 27.5366 124.002 27.3184 123.973C27.0713 123.939 26.7295 123.851 26.4395 123.561C26.1495 123.271 26.0606 122.929 26.0274 122.682C25.9981 122.463 26 122.207 26 122V115C26 114.793 25.9981 114.537 26.0274 114.318C26.0606 114.071 26.1495 113.729 26.4395 113.439C26.7295 113.149 27.0713 113.061 27.3184 113.027C27.5366 112.998 27.7927 113 28 113ZM28 114C27.5286 114 27.293 114 27.1465 114.147C27.0001 114.293 27 114.529 27 115V122C27 122.471 27.0001 122.707 27.1465 122.854C27.293 123 27.5286 123 28 123C28.4714 123 28.7071 123 28.8535 122.854C29 122.707 29 122.471 29 122V115C29 114.529 29 114.293 28.8535 114.147C28.7071 114 28.4714 114 28 114Z" fill="currentColor"/>
  <path d="M33 115C33.2074 115 33.4634 114.998 33.6817 115.027C33.9287 115.061 34.2706 115.15 34.5606 115.439C34.8506 115.729 34.9395 116.071 34.9727 116.318C35.002 116.537 35 116.793 35 117V122C35 122.207 35.002 122.463 34.9727 122.682C34.9395 122.929 34.8506 123.271 34.5606 123.561C34.2706 123.851 33.9287 123.939 33.6817 123.973C33.4634 124.002 33.2074 124 33 124C32.7927 124 32.5366 124.002 32.3184 123.973C32.0713 123.939 31.7295 123.851 31.4395 123.561C31.1495 123.271 31.0606 122.929 31.0274 122.682C30.9981 122.463 31 122.207 31 122V117C31 116.793 30.9981 116.537 31.0274 116.318C31.0606 116.071 31.1495 115.729 31.4395 115.439C31.7295 115.149 32.0713 115.061 32.3184 115.027C32.5366 114.998 32.7927 115 33 115ZM33 116C32.5286 116 32.293 116 32.1465 116.147C32.0001 116.293 32 116.529 32 117V122C32 122.471 32.0001 122.707 32.1465 122.854C32.293 123 32.5286 123 33 123C33.4714 123 33.7071 123 33.8535 122.854C34 122.707 34 122.471 34 122V117C34 116.529 34 116.293 33.8535 116.147C33.7071 116 33.4714 116 33 116Z" fill="currentColor"/>
</svg>
