<svg xmlns="http://www.w3.org/2000/svg" width="16" height="16" viewBox="19.93 110.94 16.11 16.11" fill="none">
  <path d="M22.5 125C22.7761 125 23 125.224 23 125.5C23 125.776 22.7761 126 22.5 126H21.5C21.2239 126 21 125.776 21 125.5C21 125.224 21.2239 125 21.5 125H22.5Z" fill="currentColor"/>
  <path d="M26.5 125C26.7761 125 27 125.224 27 125.5C27 125.776 26.7761 126 26.5 126H25.5C25.2239 126 25 125.776 25 125.5C25 125.224 25.2239 125 25.5 125H26.5Z" fill="currentColor"/>
  <path d="M30.5 125C30.7761 125 31 125.224 31 125.5C31 125.776 30.7761 126 30.5 126H29.5C29.2239 126 29 125.776 29 125.5C29 125.224 29.2239 125 29.5 125H30.5Z" fill="currentColor"/>
  <path d="M34.5 125C34.7761 125 35 125.224 35 125.5C35 125.776 34.7761 126 34.5 126H33.5C33.2239 126 33 125.776 33 125.5C33 125.224 33.2239 125 33.5 125H34.5Z" fill="currentColor"/>
  <path d="M23.8516 123.365C23.5108 124.088 22.5004 124.139 22.0889 123.454L21.0713 121.757C20.9297 121.52 21.0068 121.213 21.2432 121.071C21.4798 120.93 21.7867 121.007 21.9287 121.243L22.9463 122.939L24.3301 120H25.4355L23.8516 123.365Z" fill="currentColor"/>
  <path d="M30.9375 120.944L31.374 120H32.4766L31.8447 121.364C31.5096 122.088 30.5041 122.147 30.0859 121.469L29.1816 120H30.3564L30.9375 120.944Z" fill="currentColor"/>
  <path d="M34.0166 114.29C34.1327 114.04 34.4302 113.93 34.6807 114.046C34.931 114.162 35.0403 114.459 34.9248 114.71L33.4023 118H34.5C34.7761 118 35 118.224 35 118.5C35 118.776 34.7761 119 34.5 119H21.5C21.2239 119 21 118.776 21 118.5C21 118.224 21.2239 118 21.5 118H25.2715L26.1543 116.124C26.4928 115.405 27.4936 115.349 27.9102 116.025L29.126 118H32.2998L34.0166 114.29ZM26.376 118H27.9512L27.0586 116.55L26.376 118Z" fill="currentColor"/>
  <path d="M22.5 112C22.7761 112 23 112.224 23 112.5C23 112.776 22.7761 113 22.5 113H21.5C21.2239 113 21 112.776 21 112.5C21 112.224 21.2239 112 21.5 112H22.5Z" fill="currentColor"/>
  <path d="M26.5 112C26.7761 112 27 112.224 27 112.5C27 112.776 26.7761 113 26.5 113H25.5C25.2239 113 25 112.776 25 112.5C25 112.224 25.2239 112 25.5 112H26.5Z" fill="currentColor"/>
  <path d="M30.5 112C30.7761 112 31 112.224 31 112.5C31 112.776 30.7761 113 30.5 113H29.5C29.2239 113 29 112.776 29 112.5C29 112.224 29.2239 112 29.5 112H30.5Z" fill="currentColor"/>
  <path d="M34.5 112C34.7761 112 35 112.224 35 112.5C35 112.776 34.7761 113 34.5 113H33.5C33.2239 113 33 112.776 33 112.5C33 112.224 33.2239 112 33.5 112H34.5Z" fill="currentColor"/>
</svg>
