<svg xmlns="http://www.w3.org/2000/svg" width="16" height="16" viewBox="19.85 111.0 16.3 16.3" fill="none">
  <path d="M29.624 115C30.9357 115 31.9987 116.064 31.999 117.375L31.9951 117.456C31.9965 117.471 32 117.486 32 117.501C31.9997 118.99 30.9644 120.12 30.0586 120.831C29.5937 121.196 29.1316 121.476 28.7871 121.665C28.6142 121.76 28.4689 121.833 28.3662 121.882C28.315 121.906 28.2739 121.925 28.2451 121.938C28.2308 121.945 28.219 121.95 28.2109 121.953C28.207 121.955 28.2035 121.957 28.2012 121.958L28.1982 121.959C28.0725 122.013 27.9285 122.014 27.8027 121.96L27.8018 121.959L27.7988 121.958C27.7965 121.957 27.793 121.955 27.7891 121.953C27.781 121.95 27.7692 121.945 27.7549 121.938C27.7261 121.925 27.685 121.906 27.6338 121.882C27.531 121.833 27.3858 121.76 27.2129 121.665C26.8683 121.476 26.4055 121.196 25.9404 120.831C25.0345 120.12 23.9993 118.99 23.999 117.501C23.999 117.487 24.0027 117.473 24.0039 117.459C24.0024 117.433 23.999 117.404 23.999 117.376C23.999 116.064 25.0637 115.001 26.375 115.001L26.5391 115.007C27.1034 115.045 27.6122 115.282 27.999 115.646C28.4232 115.246 28.9943 115 29.624 115ZM29.4365 116.013C29.0075 116.071 28.6412 116.329 28.4326 116.691C28.3434 116.846 28.1777 116.941 27.999 116.941C27.8203 116.941 27.6547 116.846 27.5654 116.691C27.3569 116.329 26.9913 116.072 26.5625 116.014L26.375 116.001C25.6153 116.001 24.999 116.617 24.999 117.376L25.0049 117.468C25.0069 117.498 25.0044 117.528 25.001 117.558C25.0273 118.544 25.7301 119.394 26.5586 120.045C26.9686 120.367 27.3817 120.618 27.6934 120.788C27.8131 120.854 27.918 120.905 28 120.945C28.082 120.905 28.1869 120.854 28.3066 120.788C28.6183 120.617 29.0315 120.367 29.4414 120.045C30.2696 119.394 30.9707 118.544 30.9971 117.558C30.9937 117.528 30.9921 117.498 30.9941 117.468C30.9973 117.42 30.999 117.397 30.999 117.375C30.9988 116.616 30.3831 116 29.624 116L29.4365 116.013Z" fill="currentColor"/>
  <path d="M28.999 112C32.3128 112 34.999 114.686 34.999 118C34.9988 121.314 32.3126 124 28.999 124H27.002L24.5996 125.802C23.9404 126.296 23 125.826 23 125.002V122.479L22.998 122.476C22.9964 122.472 22.9927 122.466 22.9863 122.46C21.7675 121.362 21 119.77 21 118C21.0002 114.686 23.6865 112 27 112H28.999ZM27 113C24.2388 113 22.0001 115.239 22 118C22 119.475 22.6389 120.801 23.6562 121.717C23.8638 121.904 24 122.176 24 122.479V125.002L26.4082 123.195L26.5459 123.108C26.6889 123.035 26.8459 123 27 123H28.999C31.7603 123 33.9989 120.761 33.999 118C33.999 115.239 31.7605 113 28.999 113H27Z" fill="currentColor"/>
</svg>
