<svg xmlns="http://www.w3.org/2000/svg" width="16" height="16" viewBox="19.85 110.0 17.3 17.3" fill="none">
  <path d="M28.999 112C29.4939 112 29.9745 112.061 30.4346 112.174C30.2989 112.331 30.1452 112.473 29.9746 112.592C29.8937 112.648 29.8048 112.7 29.6436 112.78L29.1611 113.004C29.1073 113.002 29.0533 113 28.999 113H27C24.2387 113 22.0001 115.239 22 118C22 119.475 22.6382 120.801 23.6553 121.717C23.8627 121.904 23.9999 122.176 24 122.478V125.001L26.4082 123.195L26.5469 123.108C26.6897 123.035 26.8461 123 27 123H28.999C31.7603 123 33.9989 120.761 33.999 118C33.999 117.949 33.9956 117.899 33.9941 117.849C34.2308 117.332 34.3137 117.168 34.4111 117.028C34.5297 116.859 34.6699 116.705 34.8262 116.57C34.9382 117.029 34.999 117.507 34.999 118C34.9988 121.314 32.3126 124 28.999 124H27.002L24.5996 125.803C23.9404 126.297 23 125.826 23 125.002V122.478C23 122.478 22.9995 122.479 22.998 122.476C22.9964 122.472 22.9928 122.466 22.9863 122.46C21.7675 121.362 21 119.77 21 118C21.0002 114.686 23.6864 112 27 112H28.999Z" fill="currentColor"/>
  <path d="M32.502 111C32.6978 111 32.876 111.115 32.957 111.293C33.2775 111.998 33.4135 112.293 33.5918 112.548C33.8268 112.884 34.1189 113.176 34.4551 113.411C34.7101 113.589 35.0049 113.725 35.71 114.046C35.8885 114.127 36.0029 114.306 36.0029 114.502C36.0027 114.698 35.8883 114.876 35.71 114.957C35.0049 115.278 34.7101 115.414 34.4551 115.592C34.1189 115.827 33.8268 116.119 33.5918 116.455C33.4135 116.71 33.2775 117.005 32.957 117.71C32.876 117.888 32.6978 118.003 32.502 118.003C32.3059 118.003 32.127 117.888 32.0459 117.71C31.7254 117.005 31.5894 116.71 31.4111 116.455C31.1762 116.119 30.884 115.827 30.5479 115.592C30.2928 115.414 29.998 115.278 29.293 114.957C29.1146 114.876 29.0002 114.698 29 114.502C29 114.306 29.1145 114.127 29.293 114.046C29.998 113.725 30.2928 113.589 30.5479 113.411C30.884 113.176 31.1762 112.884 31.4111 112.548C31.5894 112.293 31.7254 111.998 32.0459 111.293L32.0811 111.229C32.1721 111.088 32.3303 111 32.502 111ZM32.501 112.664C32.4123 112.833 32.3288 112.982 32.2314 113.121C31.9293 113.553 31.5534 113.929 31.1211 114.231C30.9818 114.329 30.8331 114.412 30.6641 114.501C30.8332 114.59 30.9817 114.674 31.1211 114.771C31.5534 115.074 31.9293 115.45 32.2314 115.882C32.3287 116.021 32.4125 116.169 32.501 116.338C32.5896 116.169 32.6742 116.021 32.7715 115.882C33.0736 115.45 33.4496 115.074 33.8818 114.771C34.0211 114.674 34.169 114.59 34.3379 114.501C34.1692 114.412 34.0209 114.329 33.8818 114.231C33.4496 113.929 33.0736 113.553 32.7715 113.121C32.674 112.982 32.5897 112.833 32.501 112.664Z" fill="currentColor"/>
</svg>
