<svg xmlns="http://www.w3.org/2000/svg" width="16" height="16" viewBox="19.89 110.0 17.3 17.3" fill="none">
  <path d="M28.9609 112C28.79 112.312 28.616 112.651 28.4395 113H27C24.2388 113 22.0001 115.239 22 118C22 119.475 22.6389 120.801 23.6562 121.717C23.8638 121.904 24 122.176 24 122.479V125.002L26.4082 123.195L26.5459 123.108C26.6889 123.035 26.8459 123 27 123H28.999C30.6349 123 32.0868 122.214 32.999 120.999C33.4146 120.999 33.8283 120.998 34.207 120.978C33.1727 122.783 31.2286 124 28.999 124H27.002L24.5996 125.802C23.9404 126.296 23 125.826 23 125.002V122.479L22.998 122.476C22.9964 122.472 22.9927 122.466 22.9863 122.46C21.7675 121.362 21 119.77 21 118C21.0002 114.686 23.6865 112 27 112H28.9609Z" fill="currentColor"/>
  <path d="M31.5 116.875C31.845 116.875 32.125 117.155 32.125 117.5C32.125 117.845 31.845 118.125 31.5 118.125C31.155 118.125 30.875 117.845 30.875 117.5C30.875 117.155 31.155 116.875 31.5 116.875Z" fill="currentColor"/>
  <path d="M31.5 113C31.776 113 32 113.224 32 113.5V115.5C32 115.776 31.776 116 31.5 116C31.224 116 31 115.776 31 115.5V113.5C31 113.224 31.224 113 31.5 113Z" fill="currentColor"/>
  <path d="M31.5 111C32.0627 111 32.4457 111.371 32.7432 111.792C33.0423 112.216 33.3557 112.836 33.7393 113.593L35.1416 116.36C35.4643 116.997 35.733 117.527 35.876 117.956C36.0211 118.392 36.0814 118.855 35.8184 119.283C35.5549 119.711 35.1134 119.867 34.6582 119.935C34.2102 120.001 33.6168 120 32.9023 120H30.0986C29.384 120 28.7899 120.001 28.3418 119.935C27.8866 119.867 27.445 119.711 27.1816 119.283C26.9186 118.855 26.9789 118.392 27.124 117.956C27.267 117.527 27.5358 116.997 27.8584 116.36L29.2607 113.593C29.6443 112.836 29.9577 112.216 30.2568 111.792C30.5543 111.371 30.9373 111 31.5 111ZM31.5 112.003C31.4458 112.003 31.3245 112.02 31.0771 112.37C30.8307 112.719 30.5553 113.258 30.1562 114.046L28.7549 116.813C28.4171 117.48 28.191 117.931 28.0771 118.272C27.9658 118.607 28.0076 118.708 28.0381 118.758C28.0686 118.807 28.1407 118.892 28.4902 118.943C28.847 118.996 29.351 118.997 30.0986 118.997H32.9023C33.6501 118.997 34.154 118.996 34.5107 118.943C34.8601 118.891 34.9324 118.807 34.9629 118.758C34.9934 118.708 35.0349 118.606 34.9238 118.272C34.81 117.931 34.5829 117.48 34.2451 116.813L32.8438 114.046C32.4447 113.258 32.1693 112.719 31.9229 112.37C31.6755 112.02 31.5542 112.003 31.5 112.003Z" fill="currentColor"/>
</svg>
