<svg xmlns="http://www.w3.org/2000/svg" width="16" height="16" viewBox="15.0 109.0 27.0 27.0" fill="none">
  <path d="M28.5361 111C28.357 111.31 28.2173 111.645 28.126 112H27C24.2388 112 22.0001 114.239 22 117C22 118.475 22.6389 119.801 23.6562 120.717C23.8638 120.904 24 121.176 24 121.479V124.002L26.4082 122.195L26.5459 122.108C26.6889 122.035 26.8459 122 27 122H28.999C30.6347 122 32.0868 121.214 32.999 120H33.7969C33.9276 119.999 34.0644 119.994 34.2031 119.984C33.1678 121.786 31.2258 123 28.999 123H27.002L24.5996 124.802C23.9404 125.296 23 124.826 23 124.002V121.479L22.998 121.476C22.9964 121.472 22.9927 121.466 22.9863 121.46C21.7675 120.362 21 118.77 21 117C21.0002 113.686 23.6865 111 27 111H28.5361Z" fill="currentColor"/>
  <path d="M32 110C33.6569 110 35 111.343 35 113V114.268C35.4534 114.529 35.7925 114.963 35.9316 115.482C36.0041 115.753 36 116.067 36 116.5C36 116.933 36.0041 117.247 35.9316 117.518C35.7467 118.208 35.2078 118.747 34.5176 118.932C34.2472 119.004 33.9328 119 33.5 119H30.5C30.0672 119 29.7528 119.004 29.4824 118.932C28.7922 118.747 28.2533 118.208 28.0684 117.518C27.9959 117.247 28 116.933 28 116.5C28 116.067 27.9959 115.753 28.0684 115.482C28.2075 114.963 28.5466 114.529 29 114.268V113C29 111.343 30.3431 110 32 110ZM30.5 115C30.0028 115 29.8523 115.004 29.7412 115.034C29.3961 115.127 29.1266 115.396 29.0342 115.741C29.0044 115.852 29 116.003 29 116.5C29 116.997 29.0044 117.148 29.0342 117.259C29.1266 117.604 29.3961 117.873 29.7412 117.966C29.8523 117.996 30.0028 118 30.5 118H33.5C33.9972 118 34.1477 117.996 34.2588 117.966C34.6039 117.873 34.8734 117.604 34.9658 117.259C34.9956 117.148 35 116.997 35 116.5C35 116.003 34.9956 115.852 34.9658 115.741C34.8734 115.396 34.6039 115.127 34.2588 115.034C34.2033 115.019 34.1379 115.011 34.0244 115.006L33.5 115H30.5ZM32 111C30.8954 111 30 111.895 30 113V114.006C30.1486 114.001 30.3133 114 30.5 114H33.5L34 114.006V113C34 111.895 33.1046 111 32 111Z" fill="currentColor"/>
  <path d="M29 131C30.1046 131 31 131.895 31 133V134.088C31.0246 134.096 31.0497 134.104 31.0742 134.114C31.4416 134.266 31.7335 134.558 31.8857 134.926C31.9532 135.089 31.978 135.254 31.9893 135.419C32.0002 135.579 32 135.774 32 136C32 136.226 32.0002 136.421 31.9893 136.581C31.978 136.746 31.9532 136.911 31.8857 137.074C31.7335 137.442 31.4416 137.734 31.0742 137.886C30.9113 137.953 30.746 137.978 30.5811 137.989C30.4207 138 30.2261 138 30 138H28C27.7739 138 27.5793 138 27.4189 137.989C27.254 137.978 27.0887 137.953 26.9258 137.886C26.5584 137.734 26.2665 137.442 26.1143 137.074C26.0468 136.911 26.022 136.746 26.0107 136.581C25.9998 136.421 26 136.226 26 136C26 135.774 25.9998 135.579 26.0107 135.419C26.022 135.254 26.0468 135.089 26.1143 134.926C26.2665 134.558 26.5584 134.266 26.9258 134.114C26.9503 134.104 26.9754 134.096 27 134.088V133C27 131.895 27.8954 131 29 131ZM28 135C27.7605 135 27.6057 135.001 27.4873 135.009C27.3733 135.017 27.3294 135.029 27.3086 135.038C27.1861 135.089 27.0888 135.186 27.0381 135.309C27.0295 135.329 27.0166 135.373 27.0088 135.487C27.0007 135.606 27 135.76 27 136C27 136.24 27.0007 136.394 27.0088 136.513C27.0166 136.627 27.0295 136.671 27.0381 136.691C27.0888 136.814 27.1861 136.911 27.3086 136.962C27.3294 136.971 27.3733 136.983 27.4873 136.991C27.6057 136.999 27.7605 137 28 137H30C30.2395 137 30.3943 136.999 30.5127 136.991C30.6267 136.983 30.6706 136.971 30.6914 136.962C30.8139 136.911 30.9112 136.814 30.9619 136.691C30.9705 136.671 30.9834 136.627 30.9912 136.513C30.9993 136.394 31 136.24 31 136C31 135.76 30.9993 135.606 30.9912 135.487C30.9834 135.373 30.9705 135.329 30.9619 135.309C30.9112 135.186 30.8139 135.089 30.6914 135.038C30.6706 135.029 30.6267 135.017 30.5127 135.009C30.4535 135.005 30.3852 135.002 30.3018 135.001L30 135H28ZM29 132C28.4477 132 28 132.448 28 133V134H30V133C30 132.448 29.5523 132 29 132Z" fill="currentColor"/>
</svg>
