<svg xmlns="http://www.w3.org/2000/svg" width="16" height="16" viewBox="19.85 110.0 17.3 17.3" fill="none">
  <path d="M27.2578 112C27 112.312 26.7764 112.653 26.5918 113.018C24.0216 113.225 22.0001 115.376 22 118C22 119.475 22.6389 120.801 23.6562 121.717C23.8638 121.904 24 122.176 24 122.479V125.002L26.4082 123.195L26.5459 123.108C26.6889 123.035 26.8459 123 27 123H28.999C30.7499 123 32.2895 122.099 33.1826 120.736C33.713 120.566 34.2077 120.317 34.6543 120.004C33.8293 122.332 31.6096 124 28.999 124H27.002L24.5996 125.802C23.9404 126.296 23 125.826 23 125.002V122.479L22.998 122.476C22.9964 122.472 22.9927 122.466 22.9863 122.46C21.7675 121.362 21 119.77 21 118C21.0002 114.686 23.6865 112 27 112H27.2578Z" fill="currentColor"/>
  <path d="M31.5 116.875C31.8452 116.875 32.125 117.155 32.125 117.5C32.125 117.845 31.8452 118.125 31.5 118.125C31.1548 118.125 30.875 117.845 30.875 117.5C30.875 117.155 31.1548 116.875 31.5 116.875Z" fill="currentColor"/>
  <path d="M31.5 113C31.7761 113 32 113.224 32 113.5V115.5C32 115.776 31.7761 116 31.5 116C31.2239 116 31 115.776 31 115.5V113.5C31 113.224 31.2239 113 31.5 113Z" fill="currentColor"/>
  <path d="M31.5 111C33.9853 111 36 113.015 36 115.5C36 117.985 33.9853 120 31.5 120C29.0147 120 27 117.985 27 115.5C27 113.015 29.0147 111 31.5 111ZM31.5 112C29.567 112 28 113.567 28 115.5C28 117.433 29.567 119 31.5 119C33.433 119 35 117.433 35 115.5C35 113.567 33.433 112 31.5 112Z" fill="currentColor"/>
</svg>
