<svg xmlns="http://www.w3.org/2000/svg" width="16" height="16" viewBox="19.85 111.0 16.3 16.3" fill="none">
  <path d="M33.999 118C33.999 115.239 31.7605 113 28.999 113H27C24.2387 113 22.0001 115.239 22 118C22 119.476 22.6389 120.801 23.6562 121.717C23.8638 121.904 24 122.176 24 122.479V125.002L26.4082 123.195L26.5459 123.108C26.689 123.035 26.8458 123 27 123H28.999C31.7603 123 33.9989 120.761 33.999 118ZM34.999 118C34.9988 121.314 32.3126 124 28.999 124H27.002L24.5996 125.802C23.9404 126.296 23 125.826 23 125.002V122.479C23 122.479 22.9994 122.478 22.998 122.476C22.9964 122.472 22.9928 122.466 22.9863 122.46C21.7675 121.362 21 119.77 21 118C21.0002 114.686 23.6864 112 27 112H28.999C32.3127 112 34.999 114.686 34.999 118Z" fill="currentColor"/>
</svg>
