<svg xmlns="http://www.w3.org/2000/svg" width="16" height="16" viewBox="20.95 111.95 15.05 15.05" fill="none">
  <path d="M24 121C24.465 121 24.6979 121 24.8887 121.051C25.406 121.19 25.8105 121.594 25.9492 122.111C26.0003 122.302 26 122.535 26 123C26 123.465 26.0003 123.698 25.9492 123.889L25.8848 124.077C25.7074 124.503 25.3413 124.828 24.8887 124.949L24.7344 124.978C24.5667 125 24.3487 125 24 125C23.6513 125 23.4333 125 23.2656 124.978L23.1113 124.949C22.6587 124.828 22.2926 124.503 22.1152 124.077L22.0508 123.889C21.9997 123.698 22 123.465 22 123C22 122.535 21.9997 122.302 22.0508 122.111C22.1895 121.594 22.594 121.19 23.1113 121.051C23.3021 121 23.535 121 24 121ZM23.499 122.005C23.4006 122.009 23.3701 122.017 23.3701 122.017C23.1978 122.063 23.0629 122.198 23.0166 122.37C23.0166 122.37 23.0093 122.401 23.0049 122.499C22.9998 122.611 23 122.759 23 123C23 123.241 22.9998 123.389 23.0049 123.501C23.0094 123.599 23.0166 123.63 23.0166 123.63C23.0629 123.802 23.1979 123.937 23.3701 123.983C23.3701 123.983 23.4009 123.991 23.499 123.995C23.611 124 23.7588 124 24 124C24.2412 124 24.389 124 24.501 123.995C24.5991 123.991 24.6299 123.983 24.6299 123.983C24.8021 123.937 24.9371 123.802 24.9834 123.63C24.9834 123.63 24.9906 123.599 24.9951 123.501C25.0002 123.389 25 123.241 25 123C25 122.759 25.0002 122.611 24.9951 122.499C24.9907 122.401 24.9834 122.37 24.9834 122.37C24.9371 122.198 24.8022 122.063 24.6299 122.017C24.6299 122.017 24.5994 122.009 24.501 122.005C24.389 122 24.2412 122 24 122C23.7588 122 23.611 122 23.499 122.005Z" fill="currentColor"/>
  <path d="M34.5 122C34.7761 122 35 122.224 35 122.5C35 122.776 34.7761 123 34.5 123H27.5C27.2239 123 27 122.776 27 122.5C27 122.224 27.2239 122 27.5 122H34.5Z" fill="currentColor"/>
  <path d="M25.1465 114.146C25.3417 113.951 25.6583 113.951 25.8535 114.146C26.0488 114.342 26.0488 114.658 25.8535 114.853L23.8535 116.853C23.6583 117.049 23.3417 117.049 23.1465 116.853L22.1465 115.853C21.9512 115.658 21.9512 115.342 22.1465 115.146C22.3417 114.951 22.6583 114.951 22.8535 115.146L23.5 115.793L25.1465 114.146Z" fill="currentColor"/>
  <path d="M34.5 115C34.7761 115 35 115.224 35 115.5C35 115.776 34.7761 116 34.5 116H27.5C27.2239 116 27 115.776 27 115.5C27 115.224 27.2239 115 27.5 115H34.5Z" fill="currentColor"/>
</svg>
