<svg xmlns="http://www.w3.org/2000/svg" width="16" height="16" viewBox="20.0 111.0 16.0 16.0" fill="none">
  <path d="M28.5 117C28.7215 117 28.938 116.999 29.1152 117.022C29.3068 117.048 29.5254 117.111 29.707 117.293C29.8886 117.475 29.9518 117.693 29.9775 117.885C30.0014 118.062 30 118.278 30 118.5V119.5C30 119.722 30.0014 119.938 29.9775 120.115C29.9518 120.307 29.8886 120.525 29.707 120.707C29.5254 120.889 29.3068 120.952 29.1152 120.978C28.938 121.001 28.7215 121 28.5 121H27.5C27.2785 121 27.062 121.001 26.8848 120.978C26.6932 120.952 26.4746 120.889 26.293 120.707C26.1114 120.525 26.0482 120.307 26.0225 120.115C25.9986 119.938 26 119.722 26 119.5V118.5C26 118.278 25.9986 118.062 26.0225 117.885C26.0482 117.693 26.1114 117.475 26.293 117.293C26.4746 117.111 26.6932 117.048 26.8848 117.022C27.062 116.999 27.2785 117 27.5 117H28.5ZM27.5 118C27.2502 118 27.1127 118.001 27.0176 118.014H27.0137V118.018C27.0009 118.113 27 118.25 27 118.5V119.5C27 119.75 27.0009 119.887 27.0137 119.982V119.985L27.0176 119.986C27.1127 119.999 27.2502 120 27.5 120H28.5C28.7498 120 28.8873 119.999 28.9824 119.986L28.9854 119.985L28.9863 119.982C28.9991 119.887 29 119.75 29 119.5V118.5C29 118.25 28.9991 118.113 28.9863 118.018L28.9854 118.014H28.9824C28.8873 118.001 28.7498 118 28.5 118H27.5Z" fill="currentColor"/>
  <path d="M29.5 112C29.7761 112 30 112.224 30 112.5V114.02C30.2789 114.031 30.5321 114.047 30.7607 114.078C31.3608 114.159 31.8663 114.331 32.2676 114.732C32.6689 115.134 32.8412 115.639 32.9219 116.239C32.9526 116.468 32.9682 116.721 32.9795 117H34.5C34.7761 117 35 117.224 35 117.5C35 117.776 34.7761 118 34.5 118H32.999C32.9995 118.16 33 118.327 33 118.5V119.5C33 119.673 32.9995 119.84 32.999 120H34.5C34.7761 120 35 120.224 35 120.5C35 120.776 34.7761 121 34.5 121H32.9795C32.9682 121.279 32.9526 121.532 32.9219 121.761C32.8412 122.361 32.6689 122.866 32.2676 123.268C31.8663 123.669 31.3608 123.841 30.7607 123.922C30.5321 123.953 30.2789 123.968 30 123.979V125.5C30 125.776 29.7761 126 29.5 126C29.2239 126 29 125.776 29 125.5V123.999C28.8396 123.999 28.6729 124 28.5 124H27.5C27.3271 124 27.1604 123.999 27 123.999V125.5C27 125.776 26.7761 126 26.5 126C26.2239 126 26 125.776 26 125.5V123.979C25.7211 123.968 25.4679 123.953 25.2393 123.922C24.6392 123.841 24.1337 123.669 23.7324 123.268C23.3311 122.866 23.1588 122.361 23.0781 121.761C23.0474 121.532 23.0318 121.279 23.0205 121H21.5C21.2239 121 21 120.776 21 120.5C21 120.224 21.2239 120 21.5 120H23.001C23.0005 119.84 23 119.673 23 119.5V118.5C23 118.327 23.0005 118.16 23.001 118H21.5C21.2239 118 21 117.776 21 117.5C21 117.224 21.2239 117 21.5 117H23.0205C23.0318 116.721 23.0474 116.468 23.0781 116.239C23.1588 115.639 23.3311 115.134 23.7324 114.732C24.1337 114.331 24.6392 114.159 25.2393 114.078C25.4679 114.047 25.7211 114.031 26 114.02V112.5C26 112.224 26.2239 112 26.5 112C26.7761 112 27 112.224 27 112.5V114H29V112.5C29 112.224 29.2239 112 29.5 112ZM27.5 115C26.5431 115 25.8756 115.001 25.3721 115.068C24.8829 115.134 24.624 115.255 24.4395 115.439C24.2549 115.624 24.1341 115.883 24.0684 116.372C24.0007 116.876 24 117.543 24 118.5V119.5C24 120.457 24.0007 121.124 24.0684 121.628C24.1341 122.117 24.2549 122.376 24.4395 122.561C24.624 122.745 24.8829 122.866 25.3721 122.932C25.8756 122.999 26.5431 123 27.5 123H28.5C29.4569 123 30.1244 122.999 30.6279 122.932C31.1171 122.866 31.376 122.745 31.5605 122.561C31.7451 122.376 31.8659 122.117 31.9316 121.628C31.9993 121.124 32 120.457 32 119.5V118.5C32 117.543 31.9993 116.876 31.9316 116.372C31.8659 115.883 31.7451 115.624 31.5605 115.439C31.376 115.255 31.1171 115.134 30.6279 115.068C30.1244 115.001 29.4569 115 28.5 115H27.5Z" fill="currentColor"/>
</svg>
