<svg xmlns="http://www.w3.org/2000/svg" width="16" height="16" viewBox="20.0 111.0 17.0 17.0" fill="none">
  <path d="M26.5 116C26.7761 116 27 116.224 27 116.5V122.5C27 122.776 26.7761 123 26.5 123C26.2239 123 26 122.776 26 122.5V116.5C26 116.224 26.2239 116 26.5 116Z" fill="currentColor"/>
  <path d="M30.5 116C30.7761 116 31 116.224 31 116.5V122.5C31 122.776 30.7761 123 30.5 123C30.2239 123 30 122.776 30 122.5V116.5C30 116.224 30.2239 116 30.5 116Z" fill="currentColor"/>
  <path d="M28.5 112C32.6421 112 36 115.358 36 119.5C36 123.642 32.6421 127 28.5 127C24.3579 127 21 123.642 21 119.5C21 115.358 24.3579 112 28.5 112ZM28.5 113C24.9101 113 22 115.91 22 119.5C22 123.09 24.9101 126 28.5 126C32.0899 126 35 123.09 35 119.5C35 115.91 32.0899 113 28.5 113Z" fill="currentColor"/>
</svg>
