<svg xmlns="http://www.w3.org/2000/svg" width="16" height="16" viewBox="20.0 111.0 17.0 17.0" fill="none">
  <path d="M31.1465 116.146C31.3417 115.951 31.6583 115.951 31.8535 116.146C32.0488 116.342 32.0488 116.658 31.8535 116.854L29.207 119.5L31.8535 122.146C32.0488 122.342 32.0488 122.658 31.8535 122.854C31.6583 123.049 31.3417 123.049 31.1465 122.854L28.5 120.207L25.8535 122.854C25.6583 123.049 25.3417 123.049 25.1465 122.854C24.9512 122.658 24.9512 122.342 25.1465 122.146L27.793 119.5L25.1465 116.854C24.9512 116.658 24.9512 116.342 25.1465 116.146C25.3417 115.951 25.6583 115.951 25.8535 116.146L28.5 118.793L31.1465 116.146Z" fill="currentColor"/>
  <path d="M28.5 112C32.6421 112 36 115.358 36 119.5C36 123.642 32.6421 127 28.5 127C24.3579 127 21 123.642 21 119.5C21 115.358 24.3579 112 28.5 112ZM28.5 113C24.9101 113 22 115.91 22 119.5C22 123.09 24.9101 126 28.5 126C32.0899 126 35 123.09 35 119.5C35 115.91 32.0899 113 28.5 113Z" fill="currentColor"/>
</svg>
