<svg xmlns="http://www.w3.org/2000/svg" width="16" height="16" viewBox="20.0 111.0 17.0 17.0" fill="none">
  <path d="M28.5 122.5C29.0523 122.5 29.5 122.948 29.5 123.5C29.5 124.052 29.0523 124.5 28.5 124.5C27.9477 124.5 27.5 124.052 27.5 123.5C27.5 122.948 27.9477 122.5 28.5 122.5Z" fill="currentColor"/>
  <path d="M28.5 118.5C29.0523 118.5 29.5 118.948 29.5 119.5C29.5 120.052 29.0523 120.5 28.5 120.5C27.9477 120.5 27.5 120.052 27.5 119.5C27.5 118.948 27.9477 118.5 28.5 118.5Z" fill="currentColor"/>
  <path d="M28.5 114.5C29.0523 114.5 29.5 114.948 29.5 115.5C29.5 116.052 29.0523 116.5 28.5 116.5C27.9477 116.5 27.5 116.052 27.5 115.5C27.5 114.948 27.9477 114.5 28.5 114.5Z" fill="currentColor"/>
  <path d="M28.5 112C32.6421 112 36 115.358 36 119.5C36 123.642 32.6421 127 28.5 127C24.3579 127 21 123.642 21 119.5C21 115.358 24.3579 112 28.5 112ZM28.5 113C24.9101 113 22 115.91 22 119.5C22 123.09 24.9101 126 28.5 126C32.0899 126 35 123.09 35 119.5C35 115.91 32.0899 113 28.5 113Z" fill="currentColor"/>
</svg>
