<svg xmlns="http://www.w3.org/2000/svg" width="16" height="16" viewBox="20.0 111.0 17.0 17.0" fill="none">
  <path d="M27.1465 116.146C27.3417 115.951 27.6583 115.951 27.8535 116.146L30.8535 119.146C30.9473 119.24 31 119.367 31 119.5C31 119.633 30.9473 119.76 30.8535 119.854L27.8535 122.854C27.6583 123.049 27.3417 123.049 27.1465 122.854C26.9512 122.658 26.9512 122.342 27.1465 122.146L29.793 119.5L27.1465 116.854C26.9512 116.658 26.9512 116.342 27.1465 116.146Z" fill="currentColor"/>
  <path d="M28.5 112C32.6421 112 36 115.358 36 119.5C36 123.642 32.6421 127 28.5 127C24.3579 127 21 123.642 21 119.5C21 115.358 24.3579 112 28.5 112ZM28.5 113C24.9101 113 22 115.91 22 119.5C22 123.09 24.9101 126 28.5 126C32.0899 126 35 123.09 35 119.5C35 115.91 32.0899 113 28.5 113Z" fill="currentColor"/>
</svg>
