<svg xmlns="http://www.w3.org/2000/svg" width="16" height="16" viewBox="20.0 111.0 17.0 17.0" fill="none">
  <path d="M30.6562 116C30.9838 116 31.2552 116 31.459 116.013C31.5619 116.019 31.6658 116.031 31.7617 116.052C31.8542 116.072 31.9742 116.109 32.085 116.188C32.4607 116.459 32.6017 116.952 32.4258 117.38C32.3739 117.506 32.2914 117.601 32.2236 117.667C32.1533 117.736 32.0712 117.8 31.9873 117.86C31.8212 117.979 31.5906 118.122 31.3125 118.295C31.1613 118.389 31.0715 118.446 31.0098 118.491C31.0056 118.494 31.0015 118.497 30.998 118.5C31.0015 118.503 31.0056 118.506 31.0098 118.509C31.0715 118.554 31.1613 118.611 31.3125 118.705C31.5906 118.878 31.8212 119.021 31.9873 119.14C32.0712 119.2 32.1533 119.264 32.2236 119.333C32.2914 119.399 32.3739 119.494 32.4258 119.62C32.6017 120.048 32.4607 120.541 32.085 120.812C31.9742 120.891 31.8542 120.928 31.7617 120.948C31.6658 120.969 31.5619 120.981 31.459 120.987C31.2552 121 30.9838 121 30.6562 121H25.999V123.001C25.9985 123.277 25.7748 123.501 25.499 123.501C25.2233 123.501 24.9995 123.277 24.999 123.001V118.5C24.999 118.043 24.9979 117.649 25.04 117.336C25.0841 117.008 25.1838 116.694 25.4385 116.439C25.6932 116.185 26.0074 116.085 26.335 116.041C26.6483 115.999 27.0419 116 27.499 116H30.6562ZM27.499 117C27.0139 117 26.6999 117.001 26.4688 117.032C26.2521 117.061 26.1836 117.108 26.1455 117.146C26.1075 117.185 26.0604 117.253 26.0312 117.47C26.0002 117.701 25.999 118.015 25.999 118.5V120H30.6562C30.9985 120 31.2315 120 31.3955 119.989C31.413 119.988 31.429 119.985 31.4434 119.983C31.4318 119.975 31.4196 119.963 31.4053 119.953C31.2716 119.858 31.0746 119.735 30.7842 119.554C30.646 119.468 30.5186 119.388 30.4199 119.316C30.3221 119.245 30.202 119.146 30.1182 119.001C29.9391 118.691 29.9391 118.309 30.1182 117.999C30.202 117.854 30.3221 117.755 30.4199 117.684C30.5186 117.612 30.646 117.532 30.7842 117.446C31.0746 117.265 31.2716 117.142 31.4053 117.047C31.4198 117.036 31.4316 117.024 31.4434 117.016C31.429 117.014 31.4129 117.012 31.3955 117.011C31.2315 117 30.9985 117 30.6562 117H27.499Z" fill="currentColor"/>
  <path d="M28.5 112C32.6421 112 36 115.358 36 119.5C36 123.642 32.6421 127 28.5 127C24.3579 127 21 123.642 21 119.5C21 115.358 24.3579 112 28.5 112ZM28.5 113C24.9101 113 22 115.91 22 119.5C22 123.09 24.9101 126 28.5 126C32.0899 126 35 123.09 35 119.5C35 115.91 32.0899 113 28.5 113Z" fill="currentColor"/>
</svg>
