<svg xmlns="http://www.w3.org/2000/svg" width="16" height="16" viewBox="20.0 111.0 17.0 17.0" fill="none">
  <path d="M26.6533 116.125C27.0616 115.903 27.4788 116.014 27.8262 116.173C28.1722 116.331 28.5925 116.605 29.0889 116.928L30.4668 117.822C30.8893 118.097 31.2552 118.333 31.5078 118.556C31.7672 118.785 32.0048 119.084 32.0049 119.5C32.0045 119.916 31.7671 120.215 31.5078 120.443C31.2551 120.666 30.8895 120.902 30.4668 121.177L29.0889 122.071C28.5924 122.394 28.1723 122.668 27.8262 122.826C27.4788 122.985 27.0616 123.095 26.6533 122.874C26.2452 122.652 26.1107 122.242 26.0547 121.864C25.999 121.488 26 120.985 26 120.394V118.605C26 118.014 25.999 117.511 26.0547 117.135C26.1107 116.757 26.245 116.347 26.6533 116.125ZM27.1309 117.004C27.1309 117.004 27.1235 117.006 27.1094 117.033C27.0901 117.07 27.0643 117.144 27.0439 117.281C27.0017 117.567 27 117.98 27 118.605V120.394C27 121.019 27.0017 121.432 27.0439 121.718C27.0643 121.855 27.0901 121.929 27.1094 121.966C27.1231 121.992 27.1309 121.995 27.1309 121.995C27.1328 121.996 27.1396 122 27.166 121.997C27.2077 121.993 27.2837 121.975 27.4102 121.917C27.6729 121.797 28.0199 121.573 28.5449 121.232L29.9219 120.338C30.3724 120.045 30.6627 119.856 30.8467 119.693C30.9338 119.616 30.9742 119.565 30.9922 119.534C31.0046 119.513 31.0049 119.505 31.0049 119.5C31.0049 119.495 31.0051 119.487 30.9922 119.465C30.9743 119.434 30.9337 119.383 30.8467 119.306C30.6627 119.143 30.3722 118.954 29.9219 118.661L28.5449 117.767C28.0201 117.426 27.6728 117.202 27.4102 117.082C27.2838 117.024 27.2078 117.006 27.166 117.002C27.1385 116.999 27.1326 117.003 27.1309 117.004Z" fill="currentColor"/>
  <path d="M28.5 112C32.6421 112 36 115.358 36 119.5C36 123.642 32.6421 127 28.5 127C24.3579 127 21 123.642 21 119.5C21 115.358 24.3579 112 28.5 112ZM28.5 113C24.9101 113 22 115.91 22 119.5C22 123.09 24.9101 126 28.5 126C32.0899 126 35 123.09 35 119.5C35 115.91 32.0899 113 28.5 113Z" fill="currentColor"/>
</svg>
