<svg xmlns="http://www.w3.org/2000/svg" width="16" height="16" viewBox="20.0 110.0 17.0 17.0" fill="none">
  <path d="M29.7695 124.876C30.0402 124.823 30.3028 124.999 30.3564 125.27C30.41 125.54 30.2338 125.804 29.9629 125.857C29.4894 125.951 29.0001 126 28.5 126C27.9999 126 27.5106 125.951 27.0371 125.857C26.7662 125.804 26.59 125.54 26.6436 125.27C26.6972 124.999 26.9598 124.823 27.2305 124.876C27.6405 124.957 28.0653 125 28.5 125C28.9347 125 29.3595 124.957 29.7695 124.876ZM22.4014 121.974C22.6308 121.82 22.9412 121.882 23.0947 122.111C23.5694 122.82 24.1798 123.431 24.8887 123.905C25.118 124.059 25.1796 124.369 25.0264 124.599C24.8728 124.828 24.5624 124.89 24.333 124.736C23.5153 124.189 22.8111 123.485 22.2637 122.667C22.1103 122.438 22.172 122.127 22.4014 121.974ZM33.9053 122.111C34.0588 121.882 34.3692 121.82 34.5986 121.974C34.828 122.127 34.8897 122.438 34.7363 122.667C34.1889 123.485 33.4847 124.189 32.667 124.736C32.4376 124.89 32.1272 124.828 31.9736 124.599C31.8204 124.369 31.882 124.059 32.1113 123.905C32.8202 123.431 33.4306 122.82 33.9053 122.111ZM21 118.5C21 118 21.0489 117.511 21.1426 117.037C21.1962 116.766 21.4596 116.59 21.7305 116.644C22.0011 116.697 22.1773 116.96 22.124 117.23C22.0429 117.641 22 118.065 22 118.5C22 118.935 22.0429 119.359 22.124 119.77C22.1773 120.04 22.0011 120.303 21.7305 120.356C21.4596 120.41 21.1962 120.234 21.1426 119.963C21.0489 119.489 21 119 21 118.5ZM35 118.5C35 118.065 34.9571 117.641 34.876 117.23C34.8227 116.96 34.9989 116.697 35.2695 116.644C35.5404 116.59 35.8038 116.766 35.8574 117.037C35.9511 117.511 36 118 36 118.5C36 119 35.9511 119.489 35.8574 119.963C35.8038 120.234 35.5404 120.41 35.2695 120.356C34.9989 120.303 34.8227 120.04 34.876 119.77C34.9571 119.359 35 118.935 35 118.5ZM24.333 112.264C24.5624 112.11 24.8728 112.172 25.0264 112.401C25.1796 112.631 25.118 112.941 24.8887 113.095C24.1798 113.569 23.5694 114.18 23.0947 114.889C22.9412 115.118 22.6308 115.18 22.4014 115.026C22.172 114.873 22.1103 114.562 22.2637 114.333C22.8111 113.515 23.5153 112.811 24.333 112.264ZM31.9736 112.401C32.1272 112.172 32.4376 112.11 32.667 112.264C33.4847 112.811 34.1889 113.515 34.7363 114.333C34.8897 114.562 34.828 114.873 34.5986 115.026C34.3692 115.18 34.0588 115.118 33.9053 114.889C33.4306 114.18 32.8202 113.569 32.1113 113.095C31.882 112.941 31.8204 112.631 31.9736 112.401ZM28.5 111C29.0001 111 29.4894 111.049 29.9629 111.143C30.2338 111.196 30.41 111.46 30.3564 111.73C30.3028 112.001 30.0402 112.177 29.7695 112.124C29.3595 112.043 28.9347 112 28.5 112C28.0653 112 27.6405 112.043 27.2305 112.124C26.9598 112.177 26.6972 112.001 26.6436 111.73C26.59 111.46 26.7662 111.196 27.0371 111.143C27.5106 111.049 27.9999 111 28.5 111Z" fill="currentColor"/>
</svg>
