<svg xmlns="http://www.w3.org/2000/svg" width="16" height="16" viewBox="20.0 111.0 17.0 17.0" fill="none">
  <path d="M31.6465 117.146C31.8417 116.951 32.1583 116.951 32.3535 117.146C32.5488 117.342 32.5488 117.658 32.3535 117.854L27.8535 122.354C27.6583 122.549 27.3417 122.549 27.1465 122.354L24.6465 119.854C24.4512 119.658 24.4512 119.342 24.6465 119.146C24.8417 118.951 25.1583 118.951 25.3535 119.146L27.5 121.293L31.6465 117.146Z" fill="currentColor"/>
  <path d="M28.5 112C32.6421 112 36 115.358 36 119.5C36 123.642 32.6421 127 28.5 127C24.3579 127 21 123.642 21 119.5C21 115.358 24.3579 112 28.5 112ZM28.5 113C24.9101 113 22 115.91 22 119.5C22 123.09 24.9101 126 28.5 126C32.0899 126 35 123.09 35 119.5C35 115.91 32.0899 113 28.5 113Z" fill="currentColor"/>
</svg>
