<svg xmlns="http://www.w3.org/2000/svg" width="16" height="16" viewBox="20.0 111.0 17.0 17.0" fill="none">
  <path d="M26.6533 116.125C27.0616 115.904 27.4788 116.014 27.8262 116.173C28.1723 116.331 28.5924 116.605 29.0889 116.928L30.4668 117.822C30.8894 118.097 31.2551 118.333 31.5078 118.556C31.7672 118.785 32.0047 119.084 32.0049 119.5C32.0045 119.916 31.767 120.215 31.5078 120.443C31.2552 120.666 30.8893 120.902 30.4668 121.177L29.0889 122.071C28.5925 122.394 28.1722 122.668 27.8262 122.826C27.4788 122.985 27.0616 123.096 26.6533 122.874C26.2451 122.652 26.1107 122.242 26.0547 121.864C25.999 121.488 26 120.985 26 120.394V118.605C26 118.014 25.999 117.511 26.0547 117.135C26.1107 116.757 26.2452 116.347 26.6533 116.125Z" fill="currentColor"/>
  <path d="M28.5 112C32.6421 112 36 115.358 36 119.5C36 123.642 32.6421 127 28.5 127C24.3579 127 21 123.642 21 119.5C21 115.358 24.3579 112 28.5 112ZM28.5 113C24.9101 113 22 115.91 22 119.5C22 123.09 24.9101 126 28.5 126C32.0899 126 35 123.09 35 119.5C35 115.91 32.0899 113 28.5 113Z" fill="currentColor"/>
</svg>
