<svg xmlns="http://www.w3.org/2000/svg" width="16" height="16" viewBox="20.0 111.0 17.0 17.0" fill="none">
  <path d="M28.5 112C28.6066 112 28.7131 112.003 28.8193 112.008C28.8666 112.01 28.9139 112.012 28.9609 112.015C29.0415 112.02 29.1219 112.026 29.2021 112.033C29.2338 112.036 29.2654 112.039 29.2969 112.042C29.356 112.048 29.4148 112.057 29.4736 112.064C29.5897 112.08 29.705 112.097 29.8193 112.117C29.848 112.122 29.8767 112.127 29.9053 112.133C29.976 112.146 30.0462 112.161 30.1162 112.177C30.1439 112.183 30.1716 112.189 30.1992 112.195C30.4416 112.251 30.6793 112.319 30.9121 112.398C30.927 112.403 30.9422 112.408 30.957 112.413C31.2866 112.527 31.6053 112.664 31.9121 112.821C31.9339 112.832 31.9559 112.843 31.9775 112.854C32.0377 112.886 32.097 112.919 32.1562 112.952C32.1949 112.974 32.2331 112.996 32.2715 113.019C32.3225 113.048 32.3736 113.078 32.4238 113.108C32.5057 113.159 32.5869 113.21 32.667 113.264C32.6706 113.266 32.6741 113.269 32.6777 113.271C32.7084 113.292 32.7382 113.314 32.7686 113.335C32.8233 113.373 32.878 113.411 32.9316 113.45C32.9691 113.478 33.006 113.506 33.043 113.534C33.1046 113.581 33.1655 113.629 33.2256 113.678C33.2454 113.694 33.2656 113.709 33.2852 113.726C33.3604 113.788 33.4342 113.852 33.5068 113.917C33.5444 113.951 33.5813 113.985 33.6182 114.02C33.6655 114.064 33.7127 114.108 33.7588 114.153C33.7952 114.189 33.8305 114.226 33.8662 114.263C33.9129 114.311 33.9596 114.358 34.0049 114.407C34.0285 114.433 34.0519 114.459 34.0752 114.484C34.2177 114.643 34.353 114.808 34.4814 114.978C34.5079 115.012 34.5338 115.048 34.5596 115.083C34.5986 115.137 34.6372 115.19 34.6748 115.245C34.7022 115.285 34.7292 115.325 34.7559 115.365C34.7813 115.404 34.8063 115.442 34.8311 115.481C35.3928 116.365 35.7748 117.372 35.9258 118.455C35.9332 118.508 35.939 118.561 35.9453 118.613C35.9507 118.659 35.9573 118.705 35.9619 118.751C35.9724 118.855 35.9802 118.96 35.9863 119.064C35.9891 119.113 35.9903 119.162 35.9922 119.211C35.9948 119.278 35.9963 119.344 35.9971 119.411C35.9974 119.441 36 119.47 36 119.5C36 119.516 35.9982 119.533 35.998 119.549C35.9977 119.603 35.9966 119.656 35.9951 119.71C35.9926 119.802 35.9883 119.894 35.9824 119.985C35.9776 120.06 35.9719 120.134 35.9648 120.208C35.96 120.26 35.9541 120.311 35.9482 120.362C35.9442 120.397 35.9401 120.432 35.9355 120.467C35.8094 121.446 35.4947 122.366 35.0283 123.189C35.0057 123.23 34.9834 123.27 34.96 123.31C34.9351 123.352 34.9094 123.393 34.8838 123.435C34.8376 123.51 34.7901 123.584 34.7412 123.657C34.7304 123.673 34.7199 123.69 34.709 123.706C34.583 123.892 34.4473 124.072 34.3047 124.246C34.2897 124.264 34.2749 124.283 34.2598 124.301C34.2042 124.367 34.1478 124.433 34.0898 124.498C34.0688 124.522 34.0477 124.545 34.0264 124.568C33.9535 124.648 33.8802 124.727 33.8037 124.804C33.7214 124.886 33.6366 124.966 33.5508 125.044C33.5455 125.049 33.5404 125.054 33.5352 125.059C33.2742 125.295 32.9977 125.512 32.708 125.708C32.6905 125.72 32.6729 125.731 32.6553 125.743C32.5881 125.788 32.5197 125.831 32.4512 125.873C32.409 125.899 32.367 125.926 32.3242 125.951C32.2888 125.972 32.2525 125.991 32.2168 126.012C31.924 126.179 31.6195 126.328 31.3037 126.455C31.2895 126.461 31.275 126.466 31.2607 126.472C31.0185 126.568 30.7705 126.652 30.5166 126.723C30.5085 126.725 30.5003 126.727 30.4922 126.729C30.4171 126.75 30.3416 126.77 30.2656 126.788C30.2377 126.795 30.2097 126.801 30.1816 126.808C29.9517 126.86 29.718 126.903 29.4805 126.934C29.4411 126.939 29.4017 126.944 29.3623 126.948C29.311 126.954 29.2596 126.96 29.208 126.965C29.1146 126.974 29.0212 126.981 28.9277 126.986C28.9105 126.987 28.8933 126.989 28.876 126.99C28.7669 126.996 28.6579 126.997 28.5488 126.998C28.5326 126.998 28.5163 127 28.5 127C28.4703 127 28.4407 126.997 28.4111 126.997C28.344 126.996 28.277 126.995 28.21 126.992C28.1613 126.99 28.1128 126.989 28.0645 126.986C27.9598 126.98 27.8553 126.972 27.751 126.962C27.7078 126.958 27.665 126.951 27.6221 126.946C27.5683 126.94 27.5145 126.934 27.4609 126.927C27.3847 126.916 27.3089 126.904 27.2334 126.892C27.2184 126.889 27.2035 126.885 27.1885 126.883C26.9304 126.837 26.677 126.779 26.4287 126.708C26.4209 126.706 26.4131 126.703 26.4053 126.701C26.0648 126.602 25.7347 126.48 25.416 126.336C25.3958 126.327 25.3756 126.318 25.3555 126.309C25.1222 126.201 24.8954 126.082 24.6758 125.951C24.6635 125.944 24.6509 125.937 24.6387 125.93C24.582 125.896 24.5264 125.86 24.4707 125.824C24.437 125.803 24.4035 125.781 24.3701 125.759C24.3272 125.73 24.2844 125.702 24.2422 125.673C24.177 125.628 24.1125 125.582 24.0488 125.535C24.028 125.52 24.007 125.505 23.9863 125.489C23.8124 125.358 23.6443 125.22 23.4824 125.074C23.462 125.056 23.442 125.037 23.4219 125.019C23.3593 124.961 23.2979 124.902 23.2373 124.843C23.2147 124.82 23.1923 124.798 23.1699 124.775C23.0138 124.618 22.8646 124.453 22.7227 124.281C22.7135 124.27 22.7044 124.259 22.6953 124.248C22.6317 124.17 22.5694 124.091 22.5088 124.011C22.4975 123.996 22.4858 123.981 22.4746 123.966C22.4171 123.888 22.3612 123.809 22.3066 123.729C22.2953 123.713 22.2837 123.696 22.2725 123.68C22.2696 123.675 22.2665 123.671 22.2637 123.667C22.2058 123.58 22.1497 123.493 22.0957 123.404C22.0766 123.373 22.0587 123.341 22.04 123.31C22.0057 123.251 21.9721 123.193 21.9395 123.134C21.9106 123.082 21.8822 123.029 21.8545 122.977C21.84 122.949 21.8256 122.921 21.8115 122.894C21.6586 122.593 21.5259 122.28 21.4141 121.958C21.4085 121.942 21.4029 121.926 21.3975 121.91C21.3191 121.679 21.2521 121.443 21.1963 121.203C21.1895 121.174 21.1822 121.145 21.1758 121.116C21.1609 121.048 21.1468 120.98 21.1338 120.912C21.1273 120.878 21.1223 120.844 21.1162 120.81C21.0966 120.698 21.0791 120.586 21.0645 120.474C21.0568 120.415 21.0483 120.356 21.042 120.297C21.0387 120.265 21.0361 120.234 21.0332 120.202C21.0248 120.112 21.0189 120.022 21.0137 119.932C21.0121 119.903 21.0101 119.875 21.0088 119.847C21.0035 119.731 21 119.616 21 119.5C21 115.358 24.3579 112 28.5 112ZM29 118C29 118.339 29.0007 118.644 28.9678 118.89C28.9329 119.149 28.8519 119.416 28.6338 119.634C28.4156 119.852 28.1493 119.933 27.8896 119.968C27.6444 120.001 27.3394 120 27 120H22.0215C22.0326 120.146 22.0469 120.29 22.0674 120.433C22.1053 120.694 22.1593 120.953 22.2285 121.207C22.2312 121.217 22.2336 121.227 22.2363 121.236C22.3813 121.759 22.5922 122.264 22.8643 122.737C22.8713 122.749 22.8787 122.761 22.8857 122.773C22.9524 122.888 23.0219 123.001 23.0957 123.111C23.1146 123.14 23.1349 123.167 23.1543 123.195C23.4795 123.665 23.8643 124.089 24.2988 124.458C24.3309 124.485 24.3629 124.513 24.3955 124.539C24.6572 124.753 24.9362 124.945 25.2295 125.116C25.4807 125.262 25.7421 125.393 26.0127 125.505C26.1556 125.564 26.3002 125.618 26.4463 125.667C26.4541 125.67 26.4619 125.672 26.4697 125.675C26.7572 125.769 27.0504 125.842 27.3467 125.896C27.4766 125.919 27.6077 125.939 27.7402 125.954C27.7923 125.96 27.8443 125.966 27.8965 125.971C28.0835 125.988 28.2726 125.998 28.4639 125.999C28.4818 125.999 28.4997 125.999 28.5176 125.999C28.9038 125.998 29.2818 125.962 29.6494 125.896C29.6891 125.889 29.729 125.883 29.7686 125.875C29.8216 125.864 29.8741 125.852 29.9268 125.84C30.0416 125.814 30.1551 125.786 30.2676 125.754C30.4713 125.696 30.6718 125.63 30.8682 125.553C30.97 125.513 31.0706 125.471 31.1699 125.426C31.3578 125.341 31.5408 125.247 31.7197 125.145C32.203 124.868 32.6477 124.533 33.043 124.146C33.0602 124.13 33.0786 124.114 33.0957 124.097C33.1138 124.079 33.1306 124.059 33.1484 124.041C33.5389 123.641 33.8776 123.192 34.1553 122.702C34.4165 122.241 34.6224 121.748 34.7646 121.234C34.7659 121.23 34.7654 121.225 34.7666 121.221C34.8075 121.072 34.8447 120.921 34.875 120.769C34.8833 120.727 34.89 120.685 34.8975 120.643C34.9609 120.285 34.9957 119.917 34.998 119.542C34.9983 119.508 34.9984 119.475 34.998 119.441C34.9947 119.068 34.9593 118.703 34.8955 118.347C34.8134 117.892 34.6836 117.444 34.5049 117.013C34.3623 116.669 34.1904 116.339 33.9932 116.027C33.9241 115.918 33.8517 115.812 33.7764 115.707C33.6756 115.567 33.5696 115.431 33.458 115.299C33.0982 114.875 32.6848 114.498 32.2285 114.178C32.1895 114.15 32.151 114.122 32.1113 114.096C31.5356 113.711 30.905 113.423 30.2451 113.239C30.234 113.236 30.2231 113.233 30.2119 113.229C29.9564 113.16 29.6964 113.106 29.4336 113.067C29.2905 113.047 29.1459 113.032 29 113.021V118ZM28 113.021C24.8089 113.263 22.2633 115.809 22.0205 119H27C27.3674 119 27.5927 118.998 27.7559 118.977C27.9046 118.957 27.9253 118.928 27.9268 118.927C27.9292 118.925 27.957 118.902 27.9766 118.756C27.9984 118.593 28 118.367 28 118V113.021Z" fill="currentColor"/>
</svg>
