<svg xmlns="http://www.w3.org/2000/svg" width="16" height="16" viewBox="20.0 111.0 17.0 17.0" fill="none">
  <path d="M28.5 117C28.6326 117 28.7597 117.053 28.8535 117.146L31.8535 120.146C32.0488 120.342 32.0488 120.658 31.8535 120.854C31.6583 121.049 31.3417 121.049 31.1465 120.854L28.5 118.207L25.8535 120.854C25.6583 121.049 25.3417 121.049 25.1465 120.854C24.9512 120.658 24.9512 120.342 25.1465 120.146L28.1465 117.146C28.2403 117.053 28.3674 117 28.5 117Z" fill="currentColor"/>
  <path d="M28.5 112C32.6421 112 36 115.358 36 119.5C36 123.642 32.6421 127 28.5 127C24.3579 127 21 123.642 21 119.5C21 115.358 24.3579 112 28.5 112ZM28.5 113C24.9101 113 22 115.91 22 119.5C22 123.09 24.9101 126 28.5 126C32.0899 126 35 123.09 35 119.5C35 115.91 32.0899 113 28.5 113Z" fill="currentColor"/>
</svg>
