<svg xmlns="http://www.w3.org/2000/svg" width="16" height="16" viewBox="20.0 111.0 17.0 17.0" fill="none">
  <path d="M28.5 115C28.7761 115 29 115.224 29 115.5V123.5C29 123.776 28.7761 124 28.5 124C28.2239 124 28 123.776 28 123.5V115.5C28 115.224 28.2239 115 28.5 115Z" fill="currentColor"/>
  <path d="M28.5 112C32.6421 112 36 115.358 36 119.5C36 123.642 32.6421 127 28.5 127C24.3579 127 21 123.642 21 119.5C21 115.358 24.3579 112 28.5 112ZM28.5 113C24.9101 113 22 115.91 22 119.5C22 123.09 24.9101 126 28.5 126C32.0899 126 35 123.09 35 119.5C35 115.91 32.0899 113 28.5 113Z" fill="currentColor"/>
</svg>
