<svg xmlns="http://www.w3.org/2000/svg" width="16" height="16" viewBox="20.0 111.0 17.0 17.0" fill="none">
  <path d="M29.3945 117C29.9865 117 30.4888 116.999 30.8652 117.055C31.243 117.111 31.6533 117.245 31.875 117.653C32.0964 118.062 31.986 118.479 31.8271 118.826C31.6688 119.172 31.3946 119.592 31.0723 120.089L30.1777 121.467C29.9033 121.889 29.6673 122.255 29.4443 122.508C29.2155 122.767 28.917 123.005 28.501 123.005C28.0846 123.005 27.7856 122.767 27.5566 122.508C27.3337 122.255 27.0976 121.889 26.8232 121.467L25.9287 120.089C25.6064 119.592 25.3322 119.172 25.1738 118.826C25.0149 118.479 24.9044 118.062 25.126 117.653C25.3478 117.245 25.7579 117.111 26.1357 117.055C26.5123 116.999 27.0146 117 27.6064 117H29.3945Z" fill="currentColor"/>
  <path d="M28.5 112C32.6421 112 36 115.358 36 119.5C36 123.642 32.6421 127 28.5 127C24.3579 127 21 123.642 21 119.5C21 115.358 24.3579 112 28.5 112ZM28.5 113C24.9101 113 22 115.91 22 119.5C22 123.09 24.9101 126 28.5 126C32.0899 126 35 123.09 35 119.5C35 115.91 32.0899 113 28.5 113Z" fill="currentColor"/>
</svg>
