<svg xmlns="http://www.w3.org/2000/svg" width="16" height="16" viewBox="20.0 111.0 17.0 17.0" fill="none">
  <path d="M28.5 117C28.7761 117 29 117.224 29 117.5V123.5C29 123.776 28.7761 124 28.5 124C28.2239 124 28 123.776 28 123.5V117.5C28 117.224 28.2239 117 28.5 117Z" fill="currentColor"/>
  <path d="M28.5049 114.88C28.85 114.88 29.1298 115.16 29.1299 115.505C29.1299 115.85 28.8501 116.13 28.5049 116.13C28.1597 116.13 27.8799 115.85 27.8799 115.505C27.8799 115.16 28.1597 114.88 28.5049 114.88Z" fill="currentColor"/>
  <path d="M28.5 112C32.6421 112 36 115.358 36 119.5C36 123.642 32.6421 127 28.5 127C24.3579 127 21 123.642 21 119.5C21 115.358 24.3579 112 28.5 112ZM28.5 113C24.9101 113 22 115.91 22 119.5C22 123.09 24.9101 126 28.5 126C32.0898 126 35 123.09 35 119.5C35 115.91 32.0898 113 28.5 113Z" fill="currentColor"/>
</svg>
