<svg xmlns="http://www.w3.org/2000/svg" width="16" height="16" viewBox="20.0 111.0 17.0 17.0" fill="none">
  <path d="M28.5 112C32.6421 112 36 115.358 36 119.5C36 123.642 32.6421 127 28.5 127C28.3714 127 28.2431 126.997 28.1152 126.99C26.9939 126.934 25.9384 126.629 25 126.133C24.9867 126.126 24.9732 126.119 24.96 126.112C24.8632 126.06 24.768 126.006 24.6738 125.95C24.6625 125.944 24.6509 125.937 24.6396 125.931C24.564 125.885 24.4899 125.837 24.416 125.789C24.3858 125.769 24.3551 125.751 24.3252 125.73C24.2724 125.695 24.2208 125.658 24.1689 125.621C24.1187 125.586 24.068 125.551 24.0186 125.514C23.9964 125.497 23.9751 125.48 23.9531 125.463C23.6882 125.261 23.4345 125.042 23.1963 124.804C22.8925 124.5 22.6195 124.171 22.375 123.825C22.3394 123.775 22.3029 123.725 22.2686 123.674C22.2453 123.639 22.2238 123.603 22.2012 123.568C22.1563 123.499 22.1109 123.43 22.0684 123.359C22.0551 123.337 22.0433 123.314 22.0303 123.292C21.4374 122.283 21.0713 121.123 21.0088 119.884C21.0023 119.756 21 119.628 21 119.5C21 119.251 21.0128 119.004 21.0371 118.759C21.1456 117.653 21.4945 116.619 22.0303 115.707C22.0433 115.685 22.0551 115.662 22.0684 115.64C22.1109 115.569 22.1563 115.5 22.2012 115.431C22.2238 115.396 22.2453 115.36 22.2686 115.325C22.303 115.274 22.3394 115.224 22.375 115.174C22.6194 114.828 22.8927 114.5 23.1963 114.196C23.4346 113.958 23.688 113.738 23.9531 113.536C23.9751 113.519 23.9964 113.502 24.0186 113.485C24.0695 113.447 24.122 113.412 24.1738 113.375C24.2242 113.339 24.274 113.303 24.3252 113.269C24.3599 113.245 24.3956 113.224 24.4307 113.201C24.4999 113.156 24.5689 113.111 24.6396 113.068C24.6618 113.055 24.6848 113.043 24.707 113.03C24.7905 112.981 24.8744 112.933 24.96 112.887C24.9732 112.88 24.9867 112.873 25 112.866C25.9383 112.37 26.9941 112.065 28.1152 112.009C28.2431 112.002 28.3714 112 28.5 112ZM29 125.979C32.3561 125.723 35 122.922 35 119.5C35 116.078 32.3562 113.276 29 113.021V125.979ZM27.9795 113.022C27.8848 113.03 27.7908 113.039 27.6973 113.051C26.8482 113.156 26.0311 113.428 25.292 113.847C24.5496 114.269 23.8989 114.833 23.376 115.502C23.2806 115.624 23.1886 115.749 23.1025 115.877C23.0264 115.99 22.9548 116.107 22.8857 116.225C22.3748 117.101 22.0735 118.09 22.0127 119.114C22.0052 119.242 22 119.37 22 119.5C22 119.612 22.0032 119.724 22.0088 119.835C22.062 120.868 22.3618 121.867 22.873 122.752C22.9459 122.878 23.0216 123.002 23.1025 123.122C23.1886 123.25 23.2806 123.375 23.376 123.497C23.8984 124.166 24.5484 124.729 25.29 125.151C26.1172 125.62 27.0419 125.905 28 125.979V113.021C27.9932 113.021 27.9863 113.022 27.9795 113.022Z" fill="currentColor"/>
</svg>
