<svg xmlns="http://www.w3.org/2000/svg" width="16" height="16" viewBox="20.0 111.0 17.0 17.0" fill="none">
  <path d="M28.5 112C28.6268 112 28.7535 112.002 28.8799 112.009C28.9171 112.011 28.9541 112.015 28.9912 112.018C29.0773 112.023 29.1633 112.028 29.249 112.037C30.4672 112.158 31.5982 112.572 32.5742 113.205C32.6083 113.227 32.6431 113.248 32.6768 113.271C32.735 113.31 32.7916 113.351 32.8486 113.392C32.892 113.422 32.9358 113.453 32.9785 113.484C33.0029 113.503 33.0266 113.522 33.0508 113.54C33.1538 113.619 33.2546 113.7 33.3535 113.784C33.6024 113.996 33.8383 114.222 34.0576 114.464C34.1858 114.605 34.3071 114.753 34.4238 114.903C34.4542 114.942 34.4851 114.981 34.5146 115.021C34.5414 115.056 34.5667 115.093 34.5928 115.13C34.6386 115.194 34.6847 115.257 34.7285 115.322C34.7406 115.34 34.7518 115.359 34.7637 115.377C35.4136 116.362 35.8384 117.509 35.9619 118.745C35.967 118.795 35.9696 118.846 35.9736 118.896C35.9786 118.959 35.9839 119.022 35.9873 119.085C35.9926 119.18 35.9954 119.276 35.9971 119.371C35.9978 119.414 36 119.457 36 119.5C36 123.642 32.6421 127 28.5 127C24.3579 127 21 123.642 21 119.5C21 115.358 24.3579 112 28.5 112ZM28 113.021C24.6438 113.276 22 116.078 22 119.5C22 123.09 24.9101 126 28.5 126C31.9215 126 34.7231 123.356 34.9785 120H30C29.6606 120 29.3556 120.001 29.1104 119.968C28.8507 119.933 28.5844 119.852 28.3662 119.634C28.148 119.416 28.0671 119.149 28.0322 118.89C27.9992 118.644 28 118.339 28 118V113.021ZM29 118C29 118.367 29.0016 118.593 29.0234 118.756C29.0434 118.905 29.0718 118.925 29.0732 118.927C29.0747 118.928 29.0953 118.957 29.2441 118.977C29.4073 118.998 29.6326 119 30 119H34.9785C34.9259 118.318 34.7676 117.647 34.5049 117.013C34.3178 116.561 34.0793 116.134 33.7979 115.737C33.3736 115.141 32.8519 114.62 32.2549 114.196C31.8603 113.917 31.4359 113.681 30.9873 113.495C30.7517 113.398 30.511 113.314 30.2666 113.245C30.1784 113.22 30.0897 113.197 30 113.176C29.6785 113.1 29.3513 113.049 29.0215 113.022C29.0143 113.022 29.0072 113.021 29 113.021V118Z" fill="currentColor"/>
</svg>
