<svg xmlns="http://www.w3.org/2000/svg" width="16" height="16" viewBox="20.0 111.0 17.0 17.0" fill="none">
  <path d="M30.1465 120.146C30.3418 119.951 30.6583 119.951 30.8535 120.146L31.8535 121.146C31.9472 121.24 31.9999 121.368 32 121.5C32 121.633 31.9472 121.76 31.8535 121.854L30.8535 122.854C30.6582 123.049 30.3417 123.049 30.1465 122.854C29.9513 122.658 29.9512 122.342 30.1465 122.146L30.3008 121.992C29.5998 121.936 28.9527 121.586 28.5205 121.024L29.1641 120.22L29.2998 120.4C29.5372 120.717 29.8883 120.923 30.2734 120.981L30.1465 120.854C29.9513 120.658 29.9512 120.342 30.1465 120.146Z" fill="currentColor"/>
  <path d="M30.1465 116.146C30.3417 115.951 30.6582 115.951 30.8535 116.146L31.8535 117.146C31.9473 117.239 31.9999 117.366 32 117.499C32 117.632 31.9472 117.759 31.8535 117.853L30.8535 118.854C30.6583 119.049 30.3418 119.049 30.1465 118.854C29.9513 118.658 29.9514 118.342 30.1465 118.146L30.2734 118.019C29.8883 118.077 29.5371 118.283 29.2998 118.6L27.5 120.999C27.0279 121.629 26.2869 121.999 25.5 121.999C25.2239 121.999 25 121.775 25 121.499C25.0002 121.223 25.224 120.999 25.5 120.999C25.9721 120.999 26.4169 120.777 26.7002 120.399L27.374 119.499L26.7002 118.6C26.417 118.222 25.972 118 25.5 118C25.2239 118 25 117.776 25 117.5C25.0001 117.224 25.2239 117 25.5 117C26.2868 117 27.0279 117.371 27.5 118L27.999 118.666L28.5 117.999C28.932 117.423 29.5894 117.065 30.3008 117.008L30.1465 116.854C29.9513 116.658 29.9514 116.342 30.1465 116.146Z" fill="currentColor"/>
  <path d="M28.5 112C32.6421 112 36 115.358 36 119.5C36 123.642 32.6421 127 28.5 127C24.3579 127 21 123.642 21 119.5C21 115.358 24.3579 112 28.5 112ZM28.5 113C24.9101 113 22 115.91 22 119.5C22 123.09 24.9101 126 28.5 126C32.0899 126 35 123.09 35 119.5C35 115.91 32.0899 113 28.5 113Z" fill="currentColor"/>
</svg>
