<svg xmlns="http://www.w3.org/2000/svg" width="16" height="16" viewBox="20.0 111.0 17.0 17.0" fill="none">
  <path d="M29.5 116C29.9573 116 30.3507 115.999 30.6641 116.041C30.9918 116.085 31.3058 116.185 31.5605 116.439C31.8153 116.694 31.9149 117.008 31.959 117.336C32.0011 117.649 32 118.043 32 118.5V120.5C32 120.957 32.0011 121.351 31.959 121.664C31.9149 121.992 31.8153 122.306 31.5605 122.561C31.3058 122.815 30.9918 122.915 30.6641 122.959C30.3507 123.001 29.9573 123 29.5 123H27.5C27.0427 123 26.6493 123.001 26.3359 122.959C26.0082 122.915 25.6942 122.815 25.4395 122.561C25.1847 122.306 25.0851 121.992 25.041 121.664C24.9989 121.351 25 120.957 25 120.5V118.5C25 118.043 24.9989 117.649 25.041 117.336C25.0851 117.008 25.1847 116.694 25.4395 116.439C25.6942 116.185 26.0082 116.085 26.3359 116.041C26.6493 115.999 27.0427 116 27.5 116H29.5ZM27.5 117C27.0147 117 26.7009 117.001 26.4697 117.032C26.2529 117.061 26.1845 117.108 26.1465 117.146C26.1084 117.185 26.0614 117.253 26.0322 117.47C26.0012 117.701 26 118.015 26 118.5V120.5C26 120.985 26.0012 121.299 26.0322 121.53C26.0614 121.747 26.1084 121.815 26.1465 121.854C26.1845 121.892 26.2529 121.939 26.4697 121.968C26.7009 121.999 27.0147 122 27.5 122H29.5C29.9853 122 30.2991 121.999 30.5303 121.968C30.7471 121.939 30.8155 121.892 30.8535 121.854C30.8916 121.815 30.9386 121.747 30.9678 121.53C30.9988 121.299 31 120.985 31 120.5V118.5C31 118.015 30.9988 117.701 30.9678 117.47C30.9386 117.253 30.8916 117.185 30.8535 117.146C30.8155 117.108 30.7471 117.061 30.5303 117.032C30.2991 117.001 29.9853 117 29.5 117H27.5Z" fill="currentColor"/>
  <path d="M28.5 112C32.6421 112 36 115.358 36 119.5C36 123.642 32.6421 127 28.5 127C24.3579 127 21 123.642 21 119.5C21 115.358 24.3579 112 28.5 112ZM28.5 113C24.9101 113 22 115.91 22 119.5C22 123.09 24.9101 126 28.5 126C32.0899 126 35 123.09 35 119.5C35 115.91 32.0899 113 28.5 113Z" fill="currentColor"/>
</svg>
