<svg xmlns="http://www.w3.org/2000/svg" width="16" height="16" viewBox="20.0 111.0 17.0 17.0" fill="none">
  <path d="M28.501 115.995C28.917 115.996 29.2155 116.233 29.4443 116.492C29.6673 116.745 29.9033 117.111 30.1777 117.533L31.0723 118.911C31.3947 119.408 31.6688 119.828 31.8271 120.174C31.986 120.521 32.0964 120.938 31.875 121.347C31.6533 121.755 31.243 121.889 30.8652 121.945C30.4888 122.001 29.9864 122 29.3945 122H27.6064C27.0146 122 26.5123 122.001 26.1357 121.945C25.7578 121.889 25.3477 121.755 25.126 121.347C24.9043 120.938 25.0149 120.521 25.1738 120.174C25.3322 119.828 25.6064 119.408 25.9287 118.911L26.8232 117.533C27.0976 117.111 27.3337 116.745 27.5566 116.492C27.7856 116.233 28.0846 115.995 28.501 115.995Z" fill="currentColor"/>
  <path d="M28.5 112C32.6421 112 36 115.358 36 119.5C36 123.642 32.6421 127 28.5 127C24.3579 127 21 123.642 21 119.5C21 115.358 24.3579 112 28.5 112ZM28.5 113C24.9101 113 22 115.91 22 119.5C22 123.09 24.9101 126 28.5 126C32.0899 126 35 123.09 35 119.5C35 115.91 32.0899 113 28.5 113Z" fill="currentColor"/>
</svg>
