<svg xmlns="http://www.w3.org/2000/svg" width="16" height="16" viewBox="20.0 111.0 17.0 17.0" fill="none">
  <path d="M32.5 116.5C32.7758 116.5 32.9998 116.724 33 117V122C32.9998 122.276 32.776 122.5 32.5 122.5C32.224 122.5 32.0002 122.276 32 122V120.483C31.8435 120.642 31.6523 120.812 31.4443 120.996L31.3271 121.1C30.8032 121.564 30.3688 121.953 30.0078 122.19C29.6568 122.422 29.2085 122.624 28.7373 122.412C28.2663 122.2 28.1206 121.731 28.0605 121.314C28.0268 121.08 28.0125 120.799 28.0059 120.478C27.8483 120.638 27.6549 120.809 27.4443 120.996L27.3271 121.1C26.8032 121.564 26.3688 121.953 26.0078 122.19C25.6567 122.422 25.2086 122.624 24.7373 122.412C24.2661 122.2 24.1205 121.731 24.0605 121.314C23.9989 120.886 24 120.304 24 119.604V119.396C24 118.696 23.9989 118.114 24.0605 117.686C24.1205 117.269 24.2663 116.801 24.7373 116.589C25.2086 116.377 25.6567 116.579 26.0078 116.811C26.3687 117.048 26.8034 117.436 27.3271 117.9L27.4443 118.004C27.6547 118.191 27.8483 118.362 28.0059 118.521C28.0125 118.201 28.0268 117.92 28.0605 117.686C28.1206 117.27 28.2664 116.801 28.7373 116.589C29.2085 116.377 29.6568 116.579 30.0078 116.811C30.3687 117.048 30.8036 117.436 31.3271 117.9L31.4443 118.004C31.6522 118.188 31.8435 118.358 32 118.517V117C32.0002 116.724 32.2242 116.5 32.5 116.5ZM25.1475 117.501L25.1289 117.528C25.105 117.574 25.0746 117.663 25.0508 117.828C25.0019 118.167 25 118.662 25 119.396V119.604C25 120.338 25.0019 120.832 25.0508 121.172C25.0747 121.338 25.105 121.427 25.1289 121.473C25.1387 121.491 25.1465 121.499 25.1465 121.499L25.1475 121.5H25.1494L25.1807 121.496C25.2305 121.484 25.3177 121.447 25.457 121.355C25.7433 121.167 26.1148 120.839 26.6641 120.352L26.7803 120.248C27.0861 119.977 27.2762 119.807 27.3955 119.667C27.5019 119.542 27.4975 119.502 27.4971 119.5C27.4976 119.496 27.4999 119.456 27.3955 119.333C27.2762 119.193 27.0861 119.023 26.7803 118.752L26.6641 118.648C26.1148 118.161 25.7433 117.834 25.457 117.646C25.3177 117.554 25.2305 117.517 25.1807 117.505C25.1624 117.5 25.1523 117.5 25.1494 117.5L25.1475 117.501ZM29.1475 117.501L29.1289 117.528C29.105 117.574 29.0746 117.663 29.0508 117.828C29.0019 118.167 29 118.662 29 119.396V119.604C29 120.338 29.0019 120.833 29.0508 121.172C29.0746 121.337 29.105 121.427 29.1289 121.473C29.1382 121.49 29.145 121.498 29.1465 121.499L29.1475 121.5H29.1494L29.1807 121.496C29.2305 121.484 29.3177 121.447 29.457 121.355C29.7433 121.167 30.1147 120.839 30.6641 120.352L30.7803 120.248C31.0862 119.977 31.2762 119.807 31.3955 119.667C31.4987 119.546 31.4976 119.505 31.4971 119.5C31.4976 119.495 31.4976 119.453 31.3955 119.333C31.2762 119.193 31.0859 119.023 30.7803 118.752L30.6641 118.648C30.115 118.161 29.7433 117.834 29.457 117.646C29.3178 117.554 29.2305 117.517 29.1807 117.505C29.1624 117.5 29.1523 117.5 29.1494 117.5L29.1475 117.501Z" fill="currentColor"/>
  <path d="M28.5 112C32.6421 112 36 115.358 36 119.5C36 123.642 32.6421 127 28.5 127C24.3579 127 21 123.642 21 119.5C21 115.358 24.3579 112 28.5 112ZM28.5 113C24.9101 113 22 115.91 22 119.5C22 123.09 24.9101 126 28.5 126C32.0899 126 35 123.09 35 119.5C35 115.91 32.0899 113 28.5 113Z" fill="currentColor"/>
</svg>
