<svg xmlns="http://www.w3.org/2000/svg" width="16" height="16" viewBox="20.0 111.0 17.0 17.0" fill="none">
  <path d="M30.5176 119.602L27.9287 122.191C27.8744 122.246 27.8081 122.287 27.7354 122.312L25.5986 123.035C25.4187 123.096 25.2193 123.049 25.085 122.915C24.9506 122.781 24.904 122.58 24.9648 122.4L25.6875 120.264C25.7121 120.191 25.7534 120.125 25.8076 120.07L28.3965 117.48L30.5176 119.602Z" fill="currentColor"/>
  <path d="M29.3564 116.521C29.9422 115.936 30.8927 115.936 31.4785 116.521C32.064 117.107 32.0639 118.057 31.4785 118.643L31.3125 118.807L29.1914 116.686L29.3564 116.521Z" fill="currentColor"/>
  <path d="M28.5 112C32.6421 112 36 115.358 36 119.5C36 123.642 32.6421 127 28.5 127C24.3579 127 21 123.642 21 119.5C21 115.358 24.3579 112 28.5 112ZM28.5 113C24.9101 113 22 115.91 22 119.5C22 123.09 24.9101 126 28.5 126C32.0899 126 35 123.09 35 119.5C35 115.91 32.0899 113 28.5 113Z" fill="currentColor"/>
</svg>
