<svg xmlns="http://www.w3.org/2000/svg" width="16" height="16" viewBox="20.0 111.0 17.0 17.0" fill="none">
  <path d="M24.5 116.501C24.7758 116.501 24.9997 116.724 25 117V118.517C25.1564 118.358 25.3479 118.189 25.5557 118.005L25.6729 117.901C26.1964 117.437 26.6313 117.049 26.9922 116.812C27.3433 116.58 27.7914 116.378 28.2627 116.59C28.7335 116.802 28.8795 117.27 28.9395 117.687C28.9732 117.921 28.9875 118.202 28.9941 118.522C29.1517 118.362 29.3451 118.191 29.5557 118.004L29.6729 117.9C30.1965 117.436 30.6313 117.048 30.9922 116.811C31.3432 116.579 31.7915 116.377 32.2627 116.589C32.7335 116.801 32.8794 117.27 32.9395 117.686C33.0011 118.113 33 118.696 33 119.396V119.604C33 120.304 33.001 120.887 32.9395 121.314C32.8794 121.731 32.7338 122.2 32.2627 122.412C31.7915 122.624 31.3432 122.422 30.9922 122.19C30.6313 121.953 30.1966 121.564 29.6729 121.1L29.5557 120.996C29.3452 120.809 29.1517 120.638 28.9941 120.478C28.9875 120.799 28.9733 121.081 28.9395 121.315C28.8794 121.731 28.7337 122.201 28.2627 122.413C27.7917 122.625 27.3432 122.423 26.9922 122.191C26.6313 121.954 26.1966 121.565 25.6729 121.101L25.5557 120.997C25.3476 120.812 25.1566 120.642 25 120.483V122C24.9999 122.276 24.776 122.501 24.5 122.501C24.2241 122.501 24.0003 122.277 24 122.001V117.001C24 116.725 24.224 116.501 24.5 116.501ZM27.8193 117.506C27.7695 117.518 27.6822 117.555 27.543 117.646C27.2567 117.835 26.885 118.162 26.3359 118.649L26.2197 118.753C25.914 119.024 25.7238 119.194 25.6045 119.334C25.4997 119.457 25.5025 119.498 25.5029 119.501C25.5024 119.507 25.5032 119.549 25.6045 119.668C25.7239 119.808 25.9141 119.978 26.2197 120.249L26.3359 120.353C26.8851 120.84 27.2567 121.168 27.543 121.356C27.6821 121.448 27.7696 121.485 27.8193 121.497L27.8506 121.501H27.8525L27.8535 121.5C27.8535 121.5 27.8613 121.492 27.8711 121.474C27.895 121.428 27.9253 121.338 27.9492 121.173C27.9981 120.834 28 120.339 28 119.604V119.397C28 118.663 27.998 118.168 27.9492 117.829C27.9255 117.664 27.895 117.575 27.8711 117.529L27.8535 117.502L27.8506 117.501C27.8477 117.501 27.8377 117.501 27.8193 117.506ZM31.8193 117.505C31.7695 117.517 31.6823 117.554 31.543 117.646C31.2567 117.834 30.8852 118.161 30.3359 118.648L30.2197 118.752C29.9139 119.023 29.7239 119.193 29.6045 119.333C29.5034 119.452 29.5024 119.494 29.5029 119.5C29.5025 119.503 29.4999 119.544 29.6045 119.667C29.7238 119.807 29.9141 119.977 30.2197 120.248L30.3359 120.352C30.885 120.839 31.2567 121.167 31.543 121.355C31.6821 121.447 31.7695 121.484 31.8193 121.496L31.8506 121.5H31.8525L31.8535 121.499C31.8535 121.499 31.8616 121.491 31.8711 121.473C31.895 121.427 31.9253 121.337 31.9492 121.172C31.998 120.833 32 120.338 32 119.604V119.396C32 118.662 31.9981 118.167 31.9492 117.828C31.9254 117.663 31.895 117.574 31.8711 117.528L31.8535 117.501L31.8506 117.5C31.8477 117.5 31.8376 117.5 31.8193 117.505Z" fill="currentColor"/>
  <path d="M28.5 112C32.6421 112 36 115.358 36 119.5C36 123.642 32.6421 127 28.5 127C24.3579 127 21 123.642 21 119.5C21 115.358 24.3579 112 28.5 112ZM28.5 113C24.9101 113 22 115.91 22 119.5C22 123.09 24.9101 126 28.5 126C32.0899 126 35 123.09 35 119.5C35 115.91 32.0899 113 28.5 113Z" fill="currentColor"/>
</svg>
