<svg xmlns="http://www.w3.org/2000/svg" width="16" height="16" viewBox="20.0 111.0 17.0 17.0" fill="none">
  <path d="M28.5 115C29.8807 115 31 116.119 31 117.5V118.268C31.4534 118.529 31.7925 118.963 31.9316 119.482C32.0041 119.753 32 120.067 32 120.5C32 120.933 32.0041 121.247 31.9316 121.518C31.7467 122.208 31.2078 122.747 30.5176 122.932C30.2472 123.004 29.9328 123 29.5 123H27.5C27.0672 123 26.7528 123.004 26.4824 122.932C25.7922 122.747 25.2533 122.208 25.0684 121.518C24.9959 121.247 25 120.933 25 120.5C25 120.067 24.9959 119.753 25.0684 119.482C25.2075 118.963 25.5466 118.529 26 118.268V117.5C26 116.119 27.1193 115 28.5 115ZM28.5 116C27.6716 116 27 116.672 27 117.5V118.006C27.1486 118.001 27.3133 118 27.5 118H29.5C29.6867 118 29.8514 118.001 30 118.006V117.5C30 116.672 29.3284 116 28.5 116Z" fill="currentColor"/>
  <path d="M28.5 112C32.6421 112 36 115.358 36 119.5C36 123.642 32.6421 127 28.5 127C24.3579 127 21 123.642 21 119.5C21 115.358 24.3579 112 28.5 112ZM28.5 113C24.9101 113 22 115.91 22 119.5C22 123.09 24.9101 126 28.5 126C32.0899 126 35 123.09 35 119.5C35 115.91 32.0899 113 28.5 113Z" fill="currentColor"/>
</svg>
