<svg xmlns="http://www.w3.org/2000/svg" width="16" height="16" viewBox="20.0 111.0 16.0 16.0" fill="none">
  <path d="M28 114C29.933 114 31.5 115.567 31.5 117.5C31.5 119.433 29.933 121 28 121C26.067 121 24.5 119.433 24.5 117.5C24.5 115.567 26.067 114 28 114ZM28 115C26.6193 115 25.5 116.119 25.5 117.5C25.5 118.881 26.6193 120 28 120C29.3807 120 30.5 118.881 30.5 117.5C30.5 116.119 29.3807 115 28 115Z" fill="currentColor"/>
  <path d="M28 112C31.866 112 35 115.134 35 119C35 122.866 31.866 126 28 126C24.134 126 21 122.866 21 119C21 115.134 24.134 112 28 112ZM28 123C26.2071 123 25.0884 123.399 24.4111 123.809C25.412 124.557 26.6542 125 28 125C29.3452 125 30.5862 124.556 31.5869 123.809C30.9096 123.399 29.7917 123 28 123ZM28 113C24.6863 113 22 115.686 22 119C22 120.595 22.624 122.044 23.6396 123.119C24.4575 122.55 25.8154 122 28 122C30.184 122 31.5414 122.551 32.3594 123.119C33.3753 122.044 34 120.596 34 119C34 115.686 31.3137 113 28 113Z" fill="currentColor"/>
</svg>
