<svg xmlns="http://www.w3.org/2000/svg" width="16" height="16" viewBox="20.0 111.0 17.0 17.0" fill="none">
  <path d="M29.1738 116.173C29.5213 116.014 29.9383 115.903 30.3467 116.125C30.7551 116.347 30.8894 116.757 30.9453 117.135C31.001 117.511 31 118.014 31 118.605V120.394C31 120.986 31.001 121.488 30.9453 121.864C30.8893 122.242 30.7549 122.652 30.3467 122.874C29.9384 123.096 29.5212 122.985 29.1738 122.826C28.8277 122.668 28.4077 122.394 27.9111 122.071L26.5332 121.177C26.1105 120.902 25.7449 120.666 25.4922 120.443C25.2328 120.214 24.9954 119.916 24.9951 119.5C24.9951 119.084 25.2328 118.785 25.4922 118.556C25.7448 118.333 26.1106 118.097 26.5332 117.822L27.9111 116.928C28.4075 116.605 28.8278 116.331 29.1738 116.173Z" fill="currentColor"/>
  <path d="M28.5 112C32.6421 112 36 115.358 36 119.5C36 123.642 32.6421 127 28.5 127C24.3579 127 21 123.642 21 119.5C21 115.358 24.3579 112 28.5 112ZM28.5 113C24.9101 113 22 115.91 22 119.5C22 123.09 24.9101 126 28.5 126C32.0899 126 35 123.09 35 119.5C35 115.91 32.0899 113 28.5 113Z" fill="currentColor"/>
</svg>
