<svg xmlns="http://www.w3.org/2000/svg" width="16" height="16" viewBox="20.0 111.0 17.0 17.0" fill="none">
  <path d="M28.5 115C28.7761 115 29 115.224 29 115.5V122.293L32.1465 119.146C32.3417 118.951 32.6583 118.951 32.8535 119.146C33.0488 119.342 33.0488 119.658 32.8535 119.854L28.8535 123.854C28.6583 124.049 28.3417 124.049 28.1465 123.854L24.1465 119.854C23.9512 119.658 23.9512 119.342 24.1465 119.146C24.3417 118.951 24.6583 118.951 24.8535 119.146L28 122.293V115.5C28 115.224 28.2239 115 28.5 115Z" fill="currentColor"/>
  <path d="M28.5 112C32.6421 112 36 115.358 36 119.5C36 123.642 32.6421 127 28.5 127C24.3579 127 21 123.642 21 119.5C21 115.358 24.3579 112 28.5 112ZM28.5 113C24.9101 113 22 115.91 22 119.5C22 123.09 24.9101 126 28.5 126C32.0899 126 35 123.09 35 119.5C35 115.91 32.0899 113 28.5 113Z" fill="currentColor"/>
</svg>
