<svg xmlns="http://www.w3.org/2000/svg" width="16" height="16" viewBox="20.0 111.0 17.0 17.0" fill="none">
  <path d="M28.5049 123.88C28.85 123.88 29.1298 124.16 29.1299 124.505C29.1299 124.85 28.8501 125.13 28.5049 125.13C28.1597 125.13 27.8799 124.85 27.8799 124.505C27.8799 124.16 28.1597 123.88 28.5049 123.88Z" fill="currentColor"/>
  <path d="M28.7188 114.5C30.5309 114.5 32 115.969 32 117.781C32 119.024 31.2979 120.16 30.1865 120.716L29.8291 120.895C29.321 121.149 29 121.668 29 122.236V122.5C29 122.776 28.7761 123 28.5 123C28.2239 123 28 122.776 28 122.5V122.236C28 121.289 28.5349 120.423 29.3818 120L29.7393 119.821C30.5119 119.435 31 118.645 31 117.781C31 116.521 29.9786 115.5 28.7188 115.5H28.5C27.1193 115.5 26 116.619 26 118V118.5C26 118.776 25.7761 119 25.5 119C25.2239 119 25 118.776 25 118.5V118C25 116.067 26.567 114.5 28.5 114.5H28.7188Z" fill="currentColor"/>
  <path d="M28.5 112C32.6421 112 36 115.358 36 119.5C36 123.642 32.6421 127 28.5 127C24.3579 127 21 123.642 21 119.5C21 115.358 24.3579 112 28.5 112ZM28.5 113C24.9101 113 22 115.91 22 119.5C22 123.09 24.9101 126 28.5 126C32.0898 126 35 123.09 35 119.5C35 115.91 32.0898 113 28.5 113Z" fill="currentColor"/>
</svg>
