<svg xmlns="http://www.w3.org/2000/svg" width="16" height="16" viewBox="20.0 111.0 17.0 17.0" fill="none">
  <path d="M31.1191 116.707C31.4685 116.529 31.895 116.395 32.3203 116.614C32.7456 116.834 32.8842 117.258 32.9414 117.646C32.9988 118.036 32.9971 118.559 32.9971 119.179V119.823C32.9971 120.443 32.9988 120.966 32.9414 121.355C32.8841 121.743 32.7454 122.168 32.3203 122.388C31.8951 122.607 31.4684 122.473 31.1191 122.295C30.7683 122.116 30.3427 121.812 29.8379 121.453L29.3857 121.131C29.0308 120.878 28.7192 120.655 28.4932 120.448C28.489 120.799 28.4783 121.105 28.4414 121.355C28.3841 121.743 28.2454 122.168 27.8203 122.388C27.3952 122.607 26.9684 122.473 26.6191 122.295C26.2683 122.116 25.8427 121.812 25.3379 121.453L24.8857 121.131C24.5075 120.862 24.1768 120.628 23.9482 120.409C23.7115 120.182 23.5002 119.893 23.5 119.501C23.5 119.109 23.7116 118.82 23.9482 118.593C24.1767 118.374 24.5076 118.14 24.8857 117.871L25.3379 117.549C25.8426 117.19 26.2683 116.886 26.6191 116.707C26.9686 116.529 27.395 116.395 27.8203 116.614C28.2456 116.834 28.3842 117.258 28.4414 117.646C28.4782 117.897 28.489 118.202 28.4932 118.553C28.7192 118.346 29.0312 118.123 29.3857 117.871L29.8379 117.549C30.3426 117.19 30.7683 116.886 31.1191 116.707ZM27.3271 117.502C27.2833 117.508 27.2042 117.531 27.0742 117.598C26.8047 117.735 26.4505 117.986 25.918 118.364L25.4648 118.686C25.0603 118.973 24.8026 119.158 24.6396 119.314C24.5629 119.388 24.5273 119.437 24.5117 119.466C24.5002 119.487 24.5 119.496 24.5 119.501C24.5 119.506 24.5003 119.515 24.5117 119.536C24.5275 119.565 24.5628 119.614 24.6396 119.688C24.8026 119.844 25.0604 120.028 25.4648 120.315L25.918 120.638C26.4506 121.016 26.8047 121.267 27.0742 121.404C27.2042 121.471 27.2833 121.494 27.3271 121.5C27.3446 121.502 27.3539 121.501 27.3564 121.501C27.3564 121.501 27.3591 121.501 27.3623 121.499C27.365 121.498 27.3672 121.495 27.3672 121.495C27.3689 121.493 27.3747 121.486 27.3828 121.471C27.4033 121.432 27.4308 121.354 27.4521 121.209C27.4962 120.91 27.4971 120.476 27.4971 119.823V119.179C27.4971 118.525 27.4962 118.091 27.4521 117.792C27.4309 117.648 27.4033 117.57 27.3828 117.531C27.3742 117.515 27.3686 117.507 27.3672 117.506C27.3672 117.506 27.3653 117.505 27.3623 117.503C27.3589 117.501 27.3564 117.501 27.3564 117.501C27.3541 117.501 27.3449 117.5 27.3271 117.502ZM31.8271 117.502C31.7833 117.508 31.7041 117.531 31.5742 117.598C31.3047 117.735 30.9504 117.986 30.418 118.364L29.9648 118.686C29.5604 118.973 29.3026 119.158 29.1396 119.314C29.063 119.388 29.0274 119.437 29.0117 119.466C29.0003 119.487 29 119.496 29 119.501C29 119.506 29.0003 119.515 29.0117 119.536C29.0274 119.565 29.0628 119.614 29.1396 119.688C29.3026 119.844 29.5604 120.028 29.9648 120.315L30.418 120.638C30.9506 121.016 31.3047 121.267 31.5742 121.404C31.7042 121.471 31.7833 121.494 31.8271 121.5C31.8446 121.502 31.8539 121.501 31.8564 121.501C31.8564 121.501 31.8591 121.501 31.8623 121.499C31.865 121.498 31.8672 121.495 31.8672 121.495C31.869 121.493 31.8748 121.486 31.8828 121.471C31.9033 121.432 31.9308 121.354 31.9521 121.209C31.9962 120.91 31.9971 120.476 31.9971 119.823V119.179C31.9971 118.525 31.9962 118.091 31.9521 117.792C31.9308 117.648 31.9033 117.57 31.8828 117.531C31.8741 117.515 31.8672 117.506 31.8672 117.506C31.8672 117.506 31.8653 117.504 31.8623 117.503C31.8589 117.501 31.8564 117.501 31.8564 117.501C31.8541 117.501 31.8449 117.5 31.8271 117.502Z" fill="currentColor"/>
  <path d="M28.5 112C32.6421 112 36 115.358 36 119.5C36 123.642 32.6421 127 28.5 127C24.3579 127 21 123.642 21 119.5C21 115.358 24.3579 112 28.5 112ZM28.5 113C24.9101 113 22 115.91 22 119.5C22 123.09 24.9101 126 28.5 126C32.0899 126 35 123.09 35 119.5C35 115.91 32.0899 113 28.5 113Z" fill="currentColor"/>
</svg>
