<svg xmlns="http://www.w3.org/2000/svg" width="16" height="16" viewBox="20.0 111.0 17.0 17.0" fill="none">
  <path d="M31.1465 118.146C31.3417 117.951 31.6583 117.951 31.8535 118.146C32.0488 118.342 32.0488 118.658 31.8535 118.854L28.8535 121.854C28.7597 121.947 28.6326 122 28.5 122C28.3674 122 28.2403 121.947 28.1465 121.854L25.1465 118.854C24.9512 118.658 24.9512 118.342 25.1465 118.146C25.3417 117.951 25.6583 117.951 25.8535 118.146L28.5 120.793L31.1465 118.146Z" fill="currentColor"/>
  <path d="M28.5 112C32.6421 112 36 115.358 36 119.5C36 123.642 32.6421 127 28.5 127C24.3579 127 21 123.642 21 119.5C21 115.358 24.3579 112 28.5 112ZM28.5 113C24.9101 113 22 115.91 22 119.5C22 123.09 24.9101 126 28.5 126C32.0899 126 35 123.09 35 119.5C35 115.91 32.0899 113 28.5 113Z" fill="currentColor"/>
</svg>
