<svg xmlns="http://www.w3.org/2000/svg" width="16" height="16" viewBox="20.0 111.0 17.0 17.0" fill="none">
  <path d="M28.1465 115.146C28.3417 114.951 28.6583 114.951 28.8535 115.146L32.8535 119.146C33.0488 119.342 33.0488 119.658 32.8535 119.854L28.8535 123.854C28.6583 124.049 28.3417 124.049 28.1465 123.854C27.9512 123.658 27.9512 123.342 28.1465 123.146L31.293 120H24.5C24.2239 120 24 119.776 24 119.5C24 119.224 24.2239 119 24.5 119H31.293L28.1465 115.854C27.9512 115.658 27.9512 115.342 28.1465 115.146Z" fill="currentColor"/>
  <path d="M28.5 112C32.6421 112 36 115.358 36 119.5C36 123.642 32.6421 127 28.5 127C24.3579 127 21 123.642 21 119.5C21 115.358 24.3579 112 28.5 112ZM28.5 113C24.9101 113 22 115.91 22 119.5C22 123.09 24.9101 126 28.5 126C32.0899 126 35 123.09 35 119.5C35 115.91 32.0899 113 28.5 113Z" fill="currentColor"/>
</svg>
