<svg xmlns="http://www.w3.org/2000/svg" width="16" height="16" viewBox="20.0 111.0 17.0 17.0" fill="none">
  <path d="M27.5 120C28.3284 120 29 120.672 29 121.5C29 122.328 28.3284 123 27.5 123C26.6716 123 26 122.328 26 121.5C26 120.672 26.6716 120 27.5 120ZM27.5 121C27.2239 121 27 121.224 27 121.5C27 121.776 27.2239 122 27.5 122C27.7761 122 28 121.776 28 121.5C28 121.224 27.7761 121 27.5 121Z" fill="currentColor"/>
  <path d="M28.25 116C30.2965 116 32.1148 117.167 33 118.927V117.5C33 117.224 33.2239 117 33.5 117C33.7761 117 34 117.224 34 117.5V120.5C34 120.776 33.7761 121 33.5 121H30.5C30.2239 121 30 120.776 30 120.5C30 120.224 30.2239 120 30.5 120H32.3604C31.7942 118.23 30.1428 117 28.25 117C26.2034 117 24.4377 118.437 24.0225 120.441L23.9893 120.602C23.9332 120.872 23.6687 121.045 23.3984 120.989C23.1282 120.933 22.9547 120.669 23.0107 120.398L23.0439 120.238C23.5554 117.77 25.7293 116 28.25 116Z" fill="currentColor"/>
  <path d="M28.5 112C32.6421 112 36 115.358 36 119.5C36 123.642 32.6421 127 28.5 127C24.3579 127 21 123.642 21 119.5C21 115.358 24.3579 112 28.5 112ZM28.5 113C24.9101 113 22 115.91 22 119.5C22 123.09 24.9101 126 28.5 126C32.0899 126 35 123.09 35 119.5C35 115.91 32.0899 113 28.5 113Z" fill="currentColor"/>
</svg>
