<svg xmlns="http://www.w3.org/2000/svg" width="16" height="16" viewBox="20.0 111.0 17.0 17.0" fill="none">
  <path d="M29.1768 116.614C29.6021 116.395 30.0285 116.529 30.3779 116.707C30.7287 116.886 31.1544 117.19 31.6592 117.549L32.1113 117.871C32.4895 118.14 32.8203 118.374 33.0488 118.593C33.2855 118.82 33.4971 119.108 33.4971 119.501C33.4969 119.893 33.2856 120.182 33.0488 120.409C32.8203 120.628 32.4896 120.862 32.1113 121.131L31.6592 121.453C31.1543 121.812 30.7288 122.116 30.3779 122.295C30.0286 122.473 29.602 122.607 29.1768 122.388C28.7516 122.168 28.6129 121.744 28.5557 121.355C28.5188 121.105 28.5081 120.799 28.5039 120.448C28.2778 120.655 27.9663 120.878 27.6113 121.131L27.1592 121.453C26.6543 121.812 26.2288 122.116 25.8779 122.295C25.5286 122.473 25.102 122.607 24.6768 122.388C24.2516 122.168 24.1129 121.744 24.0557 121.355C23.9983 120.966 24 120.443 24 119.823V119.179C24 118.559 23.9983 118.036 24.0557 117.646C24.1129 117.258 24.2514 116.834 24.6768 116.614C25.102 116.395 25.5286 116.529 25.8779 116.707C26.2287 116.886 26.6545 117.19 27.1592 117.549L27.6113 117.871C27.9659 118.123 28.2779 118.346 28.5039 118.553C28.5081 118.202 28.5188 117.897 28.5557 117.646C28.6129 117.258 28.7514 116.834 29.1768 116.614ZM25.1348 117.503C25.1318 117.504 25.1299 117.506 25.1299 117.506C25.1299 117.506 25.1233 117.514 25.1143 117.531C25.0938 117.57 25.0663 117.647 25.0449 117.792C25.0009 118.091 25 118.525 25 119.179V119.823C25 120.476 25.0009 120.91 25.0449 121.209C25.0663 121.354 25.0938 121.432 25.1143 121.471C25.1223 121.486 25.1281 121.493 25.1299 121.495C25.1299 121.495 25.132 121.498 25.1348 121.499C25.1379 121.501 25.1406 121.501 25.1406 121.501C25.1433 121.501 25.1526 121.502 25.1699 121.5C25.2138 121.494 25.2929 121.471 25.4229 121.404C25.6924 121.267 26.0465 121.016 26.5791 120.638L27.0322 120.315C27.4368 120.028 27.6945 119.844 27.8574 119.688C27.9344 119.614 27.9697 119.565 27.9854 119.536C27.997 119.515 27.9971 119.506 27.9971 119.501C27.9971 119.495 27.9969 119.487 27.9854 119.466C27.9697 119.437 27.9341 119.388 27.8574 119.314C27.6945 119.158 27.4367 118.973 27.0322 118.686L26.5791 118.364C26.0466 117.986 25.6923 117.735 25.4229 117.598C25.293 117.531 25.2138 117.508 25.1699 117.502C25.1524 117.5 25.1431 117.501 25.1406 117.501C25.1406 117.501 25.1381 117.501 25.1348 117.503ZM29.6348 117.503C29.6317 117.505 29.6299 117.506 29.6299 117.506C29.6299 117.506 29.6232 117.514 29.6143 117.531C29.5938 117.57 29.5663 117.647 29.5449 117.792C29.5009 118.091 29.5 118.525 29.5 119.179V119.823C29.5 120.477 29.5009 120.91 29.5449 121.209C29.5663 121.354 29.5938 121.432 29.6143 121.471C29.6224 121.486 29.6282 121.493 29.6299 121.495C29.6299 121.495 29.632 121.498 29.6348 121.499C29.638 121.501 29.6406 121.501 29.6406 121.501C29.6433 121.501 29.6526 121.502 29.6699 121.5C29.7138 121.494 29.7929 121.471 29.9229 121.404C30.1924 121.267 30.5465 121.016 31.0791 120.638L31.5322 120.315C31.9368 120.028 32.1945 119.844 32.3574 119.688C32.4344 119.614 32.4697 119.565 32.4854 119.536C32.4969 119.515 32.4971 119.506 32.4971 119.501C32.4971 119.496 32.4969 119.487 32.4854 119.466C32.4697 119.437 32.4342 119.388 32.3574 119.314C32.1945 119.158 31.9368 118.973 31.5322 118.686L31.0791 118.364C30.5466 117.986 30.1924 117.735 29.9229 117.598C29.793 117.531 29.7138 117.508 29.6699 117.502C29.6524 117.5 29.6431 117.501 29.6406 117.501C29.6406 117.501 29.6381 117.501 29.6348 117.503Z" fill="currentColor"/>
  <path d="M28.5 112C32.6421 112 36 115.358 36 119.5C36 123.642 32.6421 127 28.5 127C24.3579 127 21 123.642 21 119.5C21 115.358 24.3579 112 28.5 112ZM28.5 113C24.9101 113 22 115.91 22 119.5C22 123.09 24.9101 126 28.5 126C32.0899 126 35 123.09 35 119.5C35 115.91 32.0899 113 28.5 113Z" fill="currentColor"/>
</svg>
