<svg xmlns="http://www.w3.org/2000/svg" width="16" height="16" viewBox="19.0 111.0 17.0 17.0" fill="none">
  <path d="M27.5 112C31.6421 112 35 115.358 35 119.5C35 123.642 31.6421 127 27.5 127C26.9999 127 26.5106 126.951 26.0371 126.857C25.7662 126.804 25.59 126.54 25.6436 126.27C25.6972 125.999 25.9598 125.823 26.2305 125.876C26.6405 125.957 27.0653 126 27.5 126C31.0899 126 34 123.09 34 119.5C34 115.91 31.0899 113 27.5 113C27.0653 113 26.6405 113.043 26.2305 113.124C25.9598 113.177 25.6972 113.001 25.6436 112.73C25.59 112.46 25.7662 112.196 26.0371 112.143C26.5106 112.049 26.9999 112 27.5 112Z" fill="currentColor"/>
  <path d="M21.4014 122.974C21.6308 122.82 21.9412 122.882 22.0947 123.111C22.5694 123.82 23.1798 124.431 23.8887 124.905C24.118 125.059 24.1796 125.369 24.0264 125.599C23.8728 125.828 23.5624 125.89 23.333 125.736C22.5153 125.189 21.8111 124.485 21.2637 123.667C21.1103 123.438 21.172 123.127 21.4014 122.974Z" fill="currentColor"/>
  <path d="M30.1465 117.146C30.3417 116.951 30.6583 116.951 30.8535 117.146C31.0488 117.342 31.0488 117.658 30.8535 117.854L26.8535 121.854C26.6583 122.049 26.3417 122.049 26.1465 121.854L24.1465 119.854C23.9512 119.658 23.9512 119.342 24.1465 119.146C24.3417 118.951 24.6583 118.951 24.8535 119.146L26.5 120.793L30.1465 117.146Z" fill="currentColor"/>
  <path d="M20.7305 117.644C21.0011 117.697 21.1773 117.96 21.124 118.23C21.0429 118.641 21 119.065 21 119.5C21 119.935 21.0429 120.359 21.124 120.77C21.1773 121.04 21.0011 121.303 20.7305 121.356C20.4596 121.41 20.1962 121.234 20.1426 120.963C20.0489 120.489 20 120 20 119.5C20 119 20.0489 118.511 20.1426 118.037C20.1962 117.766 20.4596 117.59 20.7305 117.644Z" fill="currentColor"/>
  <path d="M23.333 113.264C23.5624 113.11 23.8728 113.172 24.0264 113.401C24.1796 113.631 24.118 113.941 23.8887 114.095C23.1798 114.569 22.5694 115.18 22.0947 115.889C21.9412 116.118 21.6308 116.18 21.4014 116.026C21.172 115.873 21.1103 115.562 21.2637 115.333C21.8111 114.515 22.5153 113.811 23.333 113.264Z" fill="currentColor"/>
</svg>
