<svg xmlns="http://www.w3.org/2000/svg" width="16" height="16" viewBox="20.0 111.0 17.0 17.0" fill="none">
  <path d="M31.5 120.499C31.7761 120.499 32 120.723 32 120.999C31.9999 122.104 31.1045 122.999 30 122.999H27C25.8955 122.999 25.0001 122.104 25 120.999C25 120.723 25.2239 120.499 25.5 120.499C25.7761 120.499 26 120.723 26 120.999C26.0001 121.551 26.4478 121.999 27 121.999H30C30.5522 121.999 30.9999 121.551 31 120.999C31 120.723 31.2239 120.499 31.5 120.499Z" fill="currentColor"/>
  <path d="M28.5 115C28.7761 115 29 115.224 29 115.5V119.292L30.6455 117.646C30.8407 117.45 31.1573 117.45 31.3525 117.646C31.5477 117.841 31.5477 118.157 31.3525 118.353L28.8535 120.853C28.7598 120.946 28.6326 120.999 28.5 120.999C28.3674 120.999 28.2402 120.946 28.1465 120.853L25.6475 118.354C25.4522 118.158 25.4523 117.842 25.6475 117.646C25.8427 117.451 26.1592 117.451 26.3545 117.646L28 119.292V115.5C28 115.224 28.2239 115 28.5 115Z" fill="currentColor"/>
  <path d="M28.5 112C32.6421 112 36 115.358 36 119.5C36 123.642 32.6421 127 28.5 127C24.3579 127 21 123.642 21 119.5C21 115.358 24.3579 112 28.5 112ZM28.5 113C24.9101 113 22 115.91 22 119.5C22 123.09 24.9101 126 28.5 126C32.0899 126 35 123.09 35 119.5C35 115.91 32.0899 113 28.5 113Z" fill="currentColor"/>
</svg>
