<svg xmlns="http://www.w3.org/2000/svg" width="16" height="16" viewBox="20.0 111.0 17.0 17.0" fill="none">
  <path d="M28.1465 115.146C28.3417 114.951 28.6583 114.951 28.8535 115.146L32.8535 119.146C33.0488 119.342 33.0488 119.658 32.8535 119.854C32.6583 120.049 32.3417 120.049 32.1465 119.854L29 116.707V123.5C29 123.776 28.7761 124 28.5 124C28.2239 124 28 123.776 28 123.5V116.707L24.8535 119.854C24.6583 120.049 24.3417 120.049 24.1465 119.854C23.9512 119.658 23.9512 119.342 24.1465 119.146L28.1465 115.146Z" fill="currentColor"/>
  <path d="M28.5 112C32.6421 112 36 115.358 36 119.5C36 123.642 32.6421 127 28.5 127C24.3579 127 21 123.642 21 119.5C21 115.358 24.3579 112 28.5 112ZM28.5 113C24.9101 113 22 115.91 22 119.5C22 123.09 24.9101 126 28.5 126C32.0899 126 35 123.09 35 119.5C35 115.91 32.0899 113 28.5 113Z" fill="currentColor"/>
</svg>
