<svg xmlns="http://www.w3.org/2000/svg" width="16" height="16" viewBox="20.0 112.0 17.0 17.0" fill="none">
  <path d="M28.5 116C28.7761 116 29 116.224 29 116.5V120H32.5C32.7761 120 33 120.224 33 120.5C33 120.776 32.7761 121 32.5 121H29V124.5C29 124.776 28.7761 125 28.5 125C28.2239 125 28 124.776 28 124.5V121H24.5C24.2239 121 24 120.776 24 120.5C24 120.224 24.2239 120 24.5 120H28V116.5C28 116.224 28.2239 116 28.5 116Z" fill="currentColor"/>
  <path d="M28.5 113C32.6421 113 36 116.358 36 120.5C36 124.642 32.6421 128 28.5 128C24.3579 128 21 124.642 21 120.5C21 116.358 24.3579 113 28.5 113ZM28.5 114C24.9101 114 22 116.91 22 120.5C22 124.09 24.9101 127 28.5 127C32.0899 127 35 124.09 35 120.5C35 116.91 32.0899 114 28.5 114Z" fill="currentColor"/>
</svg>
