<svg xmlns="http://www.w3.org/2000/svg" width="16" height="16" viewBox="19.81 111.11 16.44 16.44" fill="none">
  <path d="M32.3417 119.096C32.5768 118.951 32.8855 119.025 33.0301 119.26L33.7479 120.429C34.2573 121.257 34.6717 121.927 34.9042 122.471C35.1378 123.017 35.2501 123.577 34.9559 124.104C34.6615 124.63 34.1257 124.828 33.538 124.915C32.9531 125.002 32.1657 125 31.1932 125H28.7079L29.3544 125.646C29.5495 125.842 29.5495 126.158 29.3544 126.354C29.1591 126.549 28.8426 126.549 28.6473 126.354L27.1473 124.854C26.9521 124.658 26.9521 124.342 27.1473 124.146L28.6473 122.646C28.8426 122.451 29.1591 122.451 29.3544 122.646C29.5495 122.842 29.5495 123.158 29.3544 123.354L28.7079 124H31.1932C32.1992 124 32.8965 123.999 33.3905 123.926C33.8811 123.853 34.0195 123.729 34.0829 123.616C34.1462 123.503 34.1793 123.321 33.9843 122.864C33.7879 122.405 33.4235 121.81 32.8964 120.952L32.1776 119.784C32.033 119.549 32.1066 119.24 32.3417 119.096Z" fill="currentColor"/>
  <path d="M23.9774 117.884C24.2478 117.828 24.5125 118.002 24.5682 118.272L24.9969 120.35C25.0527 120.62 24.8785 120.884 24.6083 120.94C24.3378 120.996 24.0732 120.822 24.0175 120.552L23.8348 119.67L23.0653 120.993C22.5704 121.842 22.2298 122.431 22.0487 122.884C21.8692 123.333 21.9032 123.512 21.9676 123.624C22.0321 123.736 22.1702 123.856 22.6483 123.927C23.1309 123.998 23.8111 124 24.7938 124H25.5009C25.7769 124 26.0008 124.224 26.0009 124.5C26.0009 124.776 25.7769 125 25.5009 125H24.7938C23.8447 125 23.0744 125.001 22.5009 124.916C21.9232 124.83 21.3974 124.637 21.1014 124.122C20.8055 123.607 20.9032 123.055 21.12 122.513C21.3352 121.974 21.7232 121.309 22.201 120.489L23.0087 119.104L22.1014 119.291C21.8311 119.347 21.5664 119.173 21.5106 118.902C21.4552 118.632 21.6293 118.368 21.8993 118.313L23.9774 117.884Z" fill="currentColor"/>
  <path d="M27.9979 112.114C28.6104 112.116 29.0462 112.501 29.4081 112.985C29.769 113.468 30.1498 114.177 30.6229 115.053L31.2821 116.273L31.5096 115.273C31.5706 115.004 31.838 114.835 32.1073 114.896C32.3765 114.956 32.5449 115.224 32.4843 115.493L32.0165 117.563C31.9556 117.832 31.6881 118.001 31.4188 117.94L29.3495 117.472C29.0803 117.411 28.9116 117.143 28.9725 116.874C29.0335 116.605 29.3009 116.436 29.5702 116.497L30.3632 116.676L29.743 115.528C29.2537 114.622 28.9133 113.993 28.6073 113.584C28.3026 113.177 28.1251 113.115 27.995 113.114C27.8649 113.114 27.6874 113.175 27.3798 113.58C27.0711 113.987 26.7257 114.613 26.2303 115.516L25.746 116.398C25.6131 116.64 25.3092 116.728 25.0673 116.596C24.8252 116.463 24.7363 116.159 24.869 115.917L25.3534 115.035C25.8325 114.162 26.2187 113.456 26.5829 112.976C26.948 112.494 27.3856 112.112 27.9979 112.114Z" fill="currentColor"/>
</svg>
