<svg xmlns="http://www.w3.org/2000/svg" width="16" height="16" viewBox="20.5 111.0 16.0 16.0" fill="none">
  <path d="M28.5 121.875C28.8452 121.875 29.125 122.155 29.125 122.5C29.125 122.845 28.8452 123.125 28.5 123.125C28.1548 123.125 27.875 122.845 27.875 122.5C27.875 122.155 28.1548 121.875 28.5 121.875Z" fill="currentColor"/>
  <path d="M28.5 117C28.7761 117 29 117.224 29 117.5V120.5C29 120.776 28.7761 121 28.5 121C28.2239 121 28 120.776 28 120.5V117.5C28 117.224 28.2239 117 28.5 117Z" fill="currentColor"/>
  <path d="M29.5 112C30.4285 112 31.1751 111.999 31.7607 112.078C32.3608 112.159 32.8663 112.331 33.2676 112.732C33.6689 113.134 33.8412 113.639 33.9219 114.239C34.0006 114.825 34 115.572 34 116.5V121.5C34 122.428 34.0006 123.175 33.9219 123.761C33.8412 124.361 33.6689 124.866 33.2676 125.268C32.8663 125.669 32.3608 125.841 31.7607 125.922C31.1751 126.001 30.4285 126 29.5 126H27.5C26.5715 126 25.8249 126.001 25.2393 125.922C24.6392 125.841 24.1337 125.669 23.7324 125.268C23.3311 124.866 23.1588 124.361 23.0781 123.761C22.9994 123.175 23 122.428 23 121.5V116.5C23 115.572 22.9994 114.825 23.0781 114.239C23.1588 113.639 23.3311 113.134 23.7324 112.732C24.1337 112.331 24.6392 112.159 25.2393 112.078C25.8249 111.999 26.5715 112 27.5 112H29.5ZM30.918 113.017C30.9697 113.168 31 113.331 31 113.5C31 114.328 30.3284 115 29.5 115H27.5C26.6716 115 26 114.328 26 113.5C26 113.331 26.0294 113.168 26.0811 113.017C25.8116 113.026 25.5781 113.041 25.3721 113.068C24.8829 113.134 24.624 113.255 24.4395 113.439C24.2549 113.624 24.1341 113.883 24.0684 114.372C24.0007 114.876 24 115.543 24 116.5V121.5C24 122.457 24.0007 123.124 24.0684 123.628C24.1341 124.117 24.2549 124.376 24.4395 124.561C24.624 124.745 24.8829 124.866 25.3721 124.932C25.8756 124.999 26.5431 125 27.5 125H29.5C30.4569 125 31.1244 124.999 31.6279 124.932C32.1171 124.866 32.376 124.745 32.5605 124.561C32.7451 124.376 32.8659 124.117 32.9316 123.628C32.9993 123.124 33 122.457 33 121.5V116.5C33 115.543 32.9993 114.876 32.9316 114.372C32.8659 113.883 32.7451 113.624 32.5605 113.439C32.376 113.255 32.1171 113.134 31.6279 113.068C31.4217 113.041 31.1878 113.026 30.918 113.017ZM27.5 113C27.2239 113 27 113.224 27 113.5C27 113.776 27.2239 114 27.5 114H29.5C29.7761 114 30 113.776 30 113.5C30 113.224 29.7761 113 29.5 113H27.5Z" fill="currentColor"/>
</svg>
