<svg xmlns="http://www.w3.org/2000/svg" width="16" height="16" viewBox="21.0 111.0 16.0 16.0" fill="none">
  <path d="M29.5 112C30.4285 112 31.1751 111.999 31.7607 112.078C32.3608 112.159 32.8663 112.331 33.2676 112.732C33.6689 113.134 33.8412 113.639 33.9219 114.239C34.0006 114.825 34 115.572 34 116.5V117H33V116.5C33 115.543 32.9993 114.876 32.9316 114.372C32.8659 113.883 32.7451 113.624 32.5605 113.439C32.376 113.255 32.1171 113.134 31.6279 113.068C31.4217 113.041 31.1878 113.026 30.918 113.017C30.9697 113.168 31 113.331 31 113.5C31 114.328 30.3284 115 29.5 115H26.5C25.6716 115 25 114.328 25 113.5C25 113.331 25.0294 113.168 25.0811 113.017C24.8116 113.026 24.5781 113.041 24.3721 113.068C23.8829 113.134 23.624 113.255 23.4395 113.439C23.2549 113.624 23.1341 113.883 23.0684 114.372C23.0007 114.876 23 115.543 23 116.5V121.5C23 122.457 23.0007 123.124 23.0684 123.628C23.1341 124.117 23.2549 124.376 23.4395 124.561C23.624 124.745 23.8829 124.866 24.3721 124.932C24.8756 124.999 25.5431 125 26.5 125H29.5C29.7094 125 29.9049 124.996 30.0879 124.995C30.0314 125.153 30 125.323 30 125.5C30 125.675 30.0308 125.843 30.0859 125.999C29.8993 126 29.704 126 29.5 126H26.5C25.5715 126 24.8249 126.001 24.2393 125.922C23.6392 125.841 23.1337 125.669 22.7324 125.268C22.3311 124.866 22.1588 124.361 22.0781 123.761C21.9994 123.175 22 122.428 22 121.5V116.5C22 115.572 21.9994 114.825 22.0781 114.239C22.1588 113.639 22.3311 113.134 22.7324 112.732C23.1337 112.331 23.6392 112.159 24.2393 112.078C24.8249 111.999 25.5715 112 26.5 112H29.5ZM26.5 113C26.2239 113 26 113.224 26 113.5C26 113.776 26.2239 114 26.5 114H29.5C29.7761 114 30 113.776 30 113.5C30 113.224 29.7761 113 29.5 113H26.5Z" fill="currentColor"/>
  <path d="M35.5 118C35.7761 118 36 118.224 36 118.5V119.5C36 119.776 35.7761 120 35.5 120C35.2239 120 35 119.776 35 119.5V119H33V125H33.5C33.7761 125 34 125.224 34 125.5C34 125.776 33.7761 126 33.5 126H31.5C31.2239 126 31 125.776 31 125.5C31 125.224 31.2239 125 31.5 125H32V119H30V119.5C30 119.776 29.7761 120 29.5 120C29.2239 120 29 119.776 29 119.5V118.5C29 118.224 29.2239 118 29.5 118H35.5Z" fill="currentColor"/>
</svg>
