<svg xmlns="http://www.w3.org/2000/svg" width="16" height="16" viewBox="19.0 110.06 17.0 17.0" fill="none">
  <path d="M30.5 112C31.4285 112 32.1751 111.999 32.7607 112.078C33.3608 112.159 33.8663 112.331 34.2676 112.732C34.6689 113.134 34.8412 113.639 34.9219 114.239C35.0006 114.825 35 115.572 35 116.5V121.5C35 122.428 35.0006 123.175 34.9219 123.761C34.8412 124.361 34.6689 124.866 34.2676 125.268C33.8663 125.669 33.3608 125.841 32.7607 125.922C32.1751 126.001 31.4285 126 30.5 126H27.5C26.5715 126 25.8249 126.001 25.2393 125.922C24.6392 125.841 24.1337 125.669 23.7324 125.268C23.3311 124.866 23.1588 124.361 23.0781 123.761C22.9994 123.175 23 122.428 23 121.5V120.763C23.1457 120.815 23.2714 120.855 23.3711 120.885C23.4484 120.908 23.6853 120.984 24 120.984V121.5C24 122.457 24.0007 123.124 24.0684 123.628C24.1341 124.117 24.2549 124.376 24.4395 124.561C24.624 124.745 24.8829 124.866 25.3721 124.932C25.8756 124.999 26.5431 125 27.5 125H30.5C31.4569 125 32.1244 124.999 32.6279 124.932C33.1171 124.866 33.376 124.745 33.5605 124.561C33.7451 124.376 33.8659 124.117 33.9316 123.628C33.9993 123.124 34 122.457 34 121.5V116.5C34 115.543 33.9993 114.876 33.9316 114.372C33.8659 113.883 33.7451 113.624 33.5605 113.439C33.376 113.255 33.1171 113.134 32.6279 113.068C32.4217 113.041 32.1878 113.026 31.918 113.017C31.9697 113.168 32 113.331 32 113.5C32 114.328 31.3284 115 30.5 115H29V114H30.5C30.7761 114 31 113.776 31 113.5C31 113.224 30.7761 113 30.5 113H28.9229C28.8836 112.839 28.8194 112.653 28.708 112.466L28.6104 112.317L28.4854 112.166C28.4279 112.104 28.3675 112.05 28.3076 112H30.5Z" fill="currentColor"/>
  <path d="M31.1465 118.146C31.3417 117.951 31.6583 117.951 31.8535 118.146C32.0488 118.342 32.0488 118.658 31.8535 118.854L28.3535 122.354C28.1583 122.549 27.8417 122.549 27.6465 122.354L26.1465 120.854C25.994 120.701 25.9612 120.475 26.0469 120.29C26.2022 120.205 26.3607 120.108 26.5215 120.002C26.6422 120.007 26.7614 120.054 26.8535 120.146L28 121.293L31.1465 118.146Z" fill="currentColor"/>
  <path d="M24 111.12C24.1893 111.12 24.3499 111.186 24.4727 111.249C24.5942 111.311 24.7352 111.4 24.8867 111.495C25.3557 111.788 26.0179 112.153 26.666 112.354C26.9199 112.432 27.1395 112.5 27.3057 112.566C27.4568 112.627 27.6658 112.722 27.8047 112.91C27.9342 113.086 27.9703 113.284 27.9854 113.44C28.0004 113.597 28 113.79 28 114V115.5C28 117.063 27.2734 118.126 26.4551 118.812C25.6504 119.488 24.7527 119.805 24.3467 119.925C24.2618 119.95 24.1532 119.984 24 119.984C23.8468 119.984 23.7382 119.95 23.6533 119.925C23.2473 119.805 22.3496 119.488 21.5449 118.812C20.7266 118.126 20 117.063 20 115.5V114C20 113.79 19.9996 113.597 20.0146 113.44C20.0297 113.284 20.0658 113.086 20.1953 112.91C20.3342 112.722 20.5432 112.627 20.6943 112.566C20.8605 112.5 21.0801 112.432 21.334 112.354C21.9821 112.153 22.6443 111.788 23.1133 111.495C23.2648 111.4 23.4059 111.311 23.5273 111.249C23.6501 111.186 23.8107 111.12 24 111.12ZM23.9824 112.14C23.9088 112.177 23.8106 112.238 23.6436 112.343C23.147 112.653 22.3995 113.07 21.6299 113.309C21.3592 113.392 21.1849 113.447 21.0645 113.495C21.0427 113.504 21.0256 113.512 21.0117 113.519C21.0111 113.524 21.0104 113.53 21.0098 113.536C21.0004 113.633 21 113.77 21 114V115.5C21 116.708 21.5461 117.508 22.1875 118.046C22.8424 118.595 23.5917 118.865 23.9355 118.966C23.9589 118.973 23.9745 118.977 23.9873 118.98C23.9928 118.982 23.997 118.983 24 118.983C24.003 118.983 24.0072 118.982 24.0127 118.98C24.0255 118.977 24.0411 118.973 24.0645 118.966C24.4083 118.865 25.1576 118.595 25.8125 118.046C26.4539 117.508 27 116.708 27 115.5V114C27 113.77 26.9996 113.633 26.9902 113.536C26.9896 113.53 26.9879 113.524 26.9873 113.519C26.9736 113.512 26.9569 113.504 26.9355 113.495C26.8151 113.447 26.6408 113.392 26.3701 113.309C25.6005 113.07 24.853 112.653 24.3564 112.343C24.1894 112.238 24.0912 112.177 24.0176 112.14C24.0112 112.136 24.0051 112.134 24 112.132C23.9949 112.134 23.9888 112.136 23.9824 112.14Z" fill="currentColor"/>
</svg>
