<svg xmlns="http://www.w3.org/2000/svg" width="16" height="16" viewBox="20.0 111.0 16.0 16.0" fill="none">
  <path d="M30.5 112C30.5524 112 30.6043 112.003 30.6553 112.008C31.0739 112.017 31.4413 112.035 31.7608 112.078C32.3608 112.159 32.8663 112.331 33.2676 112.732C33.6689 113.134 33.8412 113.639 33.9219 114.239C34.0006 114.825 34 115.572 34 116.5V119.5C34 120.428 34.0006 121.175 33.9219 121.761C33.8412 122.361 33.6689 122.866 33.2676 123.268C32.9132 123.622 32.4772 123.797 31.9668 123.889C31.7904 125.013 30.8736 125.885 29.7266 125.989C29.6081 126 29.4727 126 29.2696 126H26.5C25.5715 126 24.8249 126.001 24.2393 125.922C23.6392 125.841 23.1337 125.669 22.7324 125.268C22.3312 124.866 22.1588 124.361 22.0781 123.761C21.9995 123.175 22 122.428 22 121.5V117C22 116.56 21.9975 116.266 22.0479 116.013C22.2451 115.021 23.021 114.245 24.0127 114.048C24.0445 114.042 24.0772 114.038 24.1104 114.033C24.2022 113.523 24.378 113.087 24.7324 112.732C25.1337 112.331 25.6392 112.159 26.2393 112.078C26.5582 112.035 26.925 112.017 27.3428 112.008C27.3945 112.002 27.4469 112 27.5 112H30.5ZM24.0166 115.081C23.5149 115.252 23.1348 115.678 23.0293 116.207C23.0029 116.34 23 116.511 23 117V121.5C23 122.457 23.0007 123.124 23.0684 123.628C23.1341 124.117 23.255 124.376 23.4395 124.561C23.624 124.745 23.8829 124.866 24.3721 124.932C24.8756 124.999 25.5431 125 26.5 125H29.2696C29.4945 125 29.5738 125 29.6358 124.994C30.2365 124.94 30.7318 124.533 30.919 123.982C30.5029 123.997 30.0313 124 29.5 124H28.5C27.5715 124 26.8249 124.001 26.2393 123.922C25.6392 123.841 25.1337 123.669 24.7324 123.268C24.3312 122.866 24.1588 122.361 24.0781 121.761C23.9995 121.175 24 120.428 24 119.5V116.5C24 115.969 24.002 115.497 24.0166 115.081ZM31.9512 113.127C31.9818 113.246 32 113.371 32 113.5C32 114.328 31.3284 115 30.5 115H27.5C26.6716 115 26 114.328 26 113.5C26 113.371 26.0173 113.246 26.0479 113.127C25.7588 113.197 25.5782 113.301 25.4395 113.439C25.255 113.624 25.1341 113.883 25.0684 114.372C25.0007 114.876 25 115.543 25 116.5V119.5C25 120.457 25.0007 121.124 25.0684 121.628C25.1341 122.117 25.255 122.376 25.4395 122.561C25.624 122.745 25.8829 122.866 26.3721 122.932C26.8756 122.999 27.5431 123 28.5 123H29.5C30.4569 123 31.1244 122.999 31.628 122.932C32.1171 122.866 32.3761 122.745 32.5606 122.561C32.7451 122.376 32.8659 122.117 32.9317 121.628C32.9994 121.124 33 120.457 33 119.5V116.5C33 115.543 32.9994 114.876 32.9317 114.372C32.8659 113.883 32.7451 113.624 32.5606 113.439C32.4217 113.301 32.2408 113.197 31.9512 113.127ZM27.4199 113.007C27.1819 113.045 27 113.251 27 113.5C27 113.776 27.2239 114 27.5 114H30.5C30.7762 114 31 113.776 31 113.5C31 113.251 30.8176 113.045 30.5791 113.007C30.2659 113.001 29.9094 113 29.5 113H28.5C28.0902 113 27.7335 113.001 27.4199 113.007Z" fill="currentColor"/>
</svg>
