<svg xmlns="http://www.w3.org/2000/svg" width="16" height="16" viewBox="19.95 110.95 16.1 16.1" fill="none">
  <path d="M29.5 112C30.4284 112 31.1751 111.999 31.7607 112.078C32.3608 112.159 32.8663 112.331 33.2675 112.732C33.3172 112.782 33.3626 112.834 33.4052 112.887L34.1464 112.146C34.3417 111.951 34.6582 111.951 34.8535 112.146C35.0487 112.342 35.0487 112.658 34.8535 112.854L21.8535 125.854C21.6582 126.049 21.3417 126.049 21.1464 125.854C20.9512 125.658 20.9512 125.342 21.1464 125.146L22.1484 124.144C22.1199 124.021 22.0959 123.893 22.0781 123.761C21.9994 123.175 22 122.428 22 121.5V116.5C22 115.572 21.9994 114.825 22.0781 114.239C22.1588 113.639 22.3311 113.134 22.7324 112.732C23.1337 112.331 23.6392 112.159 24.2392 112.078C24.8248 111.999 25.5715 112 26.5 112H29.5ZM30.9179 113.017C30.9697 113.168 31 113.331 31 113.5C31 114.328 30.3284 115 29.5 115H26.5C25.6715 115 25 114.328 25 113.5C25 113.331 25.0293 113.168 25.081 113.017C24.8116 113.026 24.578 113.041 24.372 113.068C23.8829 113.134 23.6239 113.255 23.4394 113.439C23.2549 113.624 23.1341 113.883 23.0683 114.372C23.0006 114.876 23 115.543 23 116.5V121.5C23 122.24 23.0017 122.807 23.0332 123.259L32.6884 113.604C32.6491 113.543 32.6086 113.487 32.5605 113.439C32.376 113.255 32.1171 113.134 31.6279 113.068C31.4216 113.041 31.1878 113.026 30.9179 113.017ZM26.5 113C26.2238 113 26 113.224 26 113.5C26 113.776 26.2238 114 26.5 114H29.5C29.7761 114 30 113.776 30 113.5C30 113.224 29.7761 113 29.5 113H26.5Z" fill="currentColor"/>
  <path d="M34 116.5V121.5C34 122.428 34.0005 123.175 33.9218 123.761C33.8412 124.361 33.6688 124.866 33.2675 125.268C32.8663 125.669 32.3608 125.841 31.7607 125.922C31.1751 126.001 30.4284 126 29.5 126H26.5C25.5715 126 24.8248 126.001 24.2392 125.922C24.0386 125.895 23.849 125.856 23.6699 125.804L24.5273 124.946C25.0113 124.996 25.638 125 26.5 125H29.5C30.4569 125 31.1243 124.999 31.6279 124.932C32.1171 124.866 32.376 124.745 32.5605 124.561C32.745 124.376 32.8658 124.117 32.9316 123.628C32.9993 123.124 33 122.457 33 121.5V116.5C33 116.492 32.999 116.483 32.999 116.475L33.9931 115.48C33.9979 115.793 34 116.132 34 116.5Z" fill="currentColor"/>
</svg>
