<svg xmlns="http://www.w3.org/2000/svg" width="16" height="16" viewBox="20.5 111.0 17.0 17.0" fill="none">
  <path d="M32.502 120C32.6978 120 32.876 120.115 32.957 120.293C33.2775 120.998 33.4135 121.293 33.5918 121.548C33.8268 121.884 34.1189 122.176 34.4551 122.411C34.7101 122.589 35.0049 122.725 35.71 123.046C35.8884 123.127 36.0029 123.306 36.0029 123.502C36.0027 123.698 35.8883 123.876 35.71 123.957C35.0049 124.278 34.7101 124.414 34.4551 124.592C34.1189 124.827 33.8268 125.119 33.5918 125.455C33.4135 125.71 33.2775 126.005 32.957 126.71C32.876 126.888 32.6978 127.003 32.502 127.003C32.3059 127.003 32.127 126.888 32.0459 126.71C31.7254 126.005 31.5894 125.71 31.4111 125.455C31.1762 125.119 30.884 124.827 30.5479 124.592C30.2928 124.414 29.998 124.278 29.293 123.957C29.1146 123.876 29.0002 123.698 29 123.502C29 123.306 29.1145 123.127 29.293 123.046C29.998 122.725 30.2928 122.589 30.5479 122.411C30.884 122.176 31.1762 121.884 31.4111 121.548C31.5894 121.293 31.7254 120.998 32.0459 120.293L32.0811 120.229C32.1721 120.088 32.3303 120 32.502 120ZM32.501 121.664C32.4123 121.833 32.3288 121.982 32.2314 122.121C31.9293 122.553 31.5534 122.929 31.1211 123.231C30.9818 123.329 30.8331 123.412 30.6641 123.501C30.8332 123.59 30.9817 123.674 31.1211 123.771C31.5534 124.074 31.9293 124.45 32.2314 124.882C32.3287 125.021 32.4125 125.169 32.501 125.338C32.5896 125.169 32.6742 125.021 32.7715 124.882C33.0736 124.45 33.4496 124.074 33.8818 123.771C34.0211 123.674 34.169 123.59 34.3379 123.501C34.1692 123.412 34.0209 123.329 33.8818 123.231C33.4496 122.929 33.0736 122.553 32.7715 122.121C32.674 121.982 32.5897 121.833 32.501 121.664Z" fill="currentColor"/>
  <path d="M29.5 112C30.4285 112 31.1751 111.999 31.7607 112.078C32.3608 112.159 32.8663 112.331 33.2676 112.732C33.6689 113.134 33.8412 113.639 33.9219 114.239C34.0006 114.825 34 115.572 34 116.5V120.164L33.8672 119.879L33.8184 119.781C33.6387 119.452 33.3445 119.207 33 119.086V116.5C33 115.543 32.9993 114.876 32.9316 114.372C32.8659 113.883 32.7451 113.624 32.5605 113.439C32.376 113.255 32.1171 113.134 31.6279 113.068C31.4217 113.041 31.1878 113.026 30.918 113.017C30.9697 113.168 31 113.331 31 113.5C31 114.328 30.3284 115 29.5 115H26.5C25.6716 115 25 114.328 25 113.5C25 113.331 25.0294 113.168 25.0811 113.017C24.8116 113.026 24.5781 113.041 24.3721 113.068C23.8829 113.134 23.624 113.255 23.4395 113.439C23.2549 113.624 23.1341 113.883 23.0684 114.372C23.0007 114.876 23 115.543 23 116.5V121.5C23 122.457 23.0007 123.124 23.0684 123.628C23.1341 124.117 23.2549 124.376 23.4395 124.561C23.624 124.745 23.8829 124.866 24.3721 124.932C24.8756 124.999 25.5431 125 26.5 125H29.165C29.6727 125.233 29.8361 125.314 29.9746 125.411C30.2023 125.57 30.4012 125.768 30.5645 125.992C30.24 125.998 29.8857 126 29.5 126H26.5C25.5715 126 24.8249 126.001 24.2393 125.922C23.6392 125.841 23.1337 125.669 22.7324 125.268C22.3311 124.866 22.1588 124.361 22.0781 123.761C21.9994 123.175 22 122.428 22 121.5V116.5C22 115.572 21.9994 114.825 22.0781 114.239C22.1588 113.639 22.3311 113.134 22.7324 112.732C23.1337 112.331 23.6392 112.159 24.2393 112.078C24.8249 111.999 25.5715 112 26.5 112H29.5ZM26.5 113C26.2239 113 26 113.224 26 113.5C26 113.776 26.2239 114 26.5 114H29.5C29.7761 114 30 113.776 30 113.5C30 113.224 29.7761 113 29.5 113H26.5Z" fill="currentColor"/>
  <path d="M30.1465 118.146C30.3417 117.951 30.6583 117.951 30.8535 118.146C31.0488 118.342 31.0488 118.658 30.8535 118.854L27.3535 122.354C27.1583 122.549 26.8417 122.549 26.6465 122.354L25.1465 120.854C24.9512 120.658 24.9512 120.342 25.1465 120.146C25.3417 119.951 25.6583 119.951 25.8535 120.146L27 121.293L30.1465 118.146Z" fill="currentColor"/>
</svg>
