<svg xmlns="http://www.w3.org/2000/svg" width="16" height="16" viewBox="20.0 111.0 17.0 17.0" fill="none">
  <path d="M28.5 116C28.7761 116 29 116.224 29 116.5V117.595C29 118.332 29.0114 118.544 29.0947 118.722C29.1781 118.9 29.3329 119.044 29.8994 119.516L31.8203 121.116C32.0322 121.293 32.0605 121.608 31.8838 121.82C31.707 122.032 31.3917 122.06 31.1797 121.884L29.2598 120.283C28.7648 119.871 28.3883 119.572 28.1885 119.146C27.9888 118.719 28 118.239 28 117.595V116.5C28 116.224 28.2239 116 28.5 116Z" fill="currentColor"/>
  <path d="M28.5 112C32.6421 112 36 115.358 36 119.5C36 123.642 32.6421 127 28.5 127C24.3579 127 21 123.642 21 119.5C21 115.358 24.3579 112 28.5 112ZM28.5 113C24.9101 113 22 115.91 22 119.5C22 123.09 24.9101 126 28.5 126C32.0899 126 35 123.09 35 119.5C35 115.91 32.0899 113 28.5 113Z" fill="currentColor"/>
</svg>
