<svg xmlns="http://www.w3.org/2000/svg" width="16" height="16" viewBox="20.0 111.0 16.0 16.0" fill="none">
  <path d="M30.5 112C31.4285 112 32.1751 111.999 32.7607 112.078C33.3608 112.159 33.8663 112.331 34.2676 112.732C34.6689 113.134 34.8412 113.639 34.9219 114.239C35.0006 114.825 35 115.572 35 116.5V119.5C35 120.428 35.0006 121.175 34.9219 121.761C34.8412 122.361 34.6689 122.866 34.2676 123.268C33.8663 123.669 33.3608 123.841 32.7607 123.922C32.5191 123.954 32.25 123.97 31.9521 123.981C31.7276 125.132 30.7159 126 29.5 126H25.5C24.5715 126 23.8249 126.001 23.2393 125.922C22.6392 125.841 22.1337 125.669 21.7324 125.268C21.3311 124.866 21.1588 124.361 21.0781 123.761C20.9994 123.175 21 122.428 21 121.5V117.5C21 116.284 21.8677 115.272 23.0176 115.047C23.0287 114.749 23.0457 114.481 23.0781 114.239C23.1588 113.639 23.3311 113.134 23.7324 112.732C24.1337 112.331 24.6392 112.159 25.2393 112.078C25.8249 111.999 26.5715 112 27.5 112H30.5ZM23 116.087C22.4177 116.293 22 116.847 22 117.5V121.5C22 122.457 22.0007 123.124 22.0684 123.628C22.1341 124.117 22.2549 124.376 22.4395 124.561C22.624 124.745 22.8829 124.866 23.3721 124.932C23.8756 124.999 24.5431 125 25.5 125H29.5C30.1531 125 30.7062 124.582 30.9121 123.999C30.7789 123.999 30.6416 124 30.5 124H27.5C26.5715 124 25.8249 124.001 25.2393 123.922C24.6392 123.841 24.1337 123.669 23.7324 123.268C23.3311 122.866 23.1588 122.361 23.0781 121.761C22.9994 121.175 23 120.428 23 119.5V116.087ZM27.5 113C26.5431 113 25.8756 113.001 25.3721 113.068C24.8829 113.134 24.624 113.255 24.4395 113.439C24.2549 113.624 24.1341 113.883 24.0684 114.372C24.0007 114.876 24 115.543 24 116.5V119.5C24 120.457 24.0007 121.124 24.0684 121.628C24.1341 122.117 24.2549 122.376 24.4395 122.561C24.624 122.745 24.8829 122.866 25.3721 122.932C25.8756 122.999 26.5431 123 27.5 123H30.5C31.4569 123 32.1244 122.999 32.6279 122.932C33.1171 122.866 33.376 122.745 33.5605 122.561C33.7451 122.376 33.8659 122.117 33.9316 121.628C33.9993 121.124 34 120.457 34 119.5V116.5C34 115.543 33.9993 114.876 33.9316 114.372C33.8659 113.883 33.7451 113.624 33.5605 113.439C33.376 113.255 33.1171 113.134 32.6279 113.068C32.1244 113.001 31.4569 113 30.5 113H27.5Z" fill="currentColor"/>
</svg>
