<svg xmlns="http://www.w3.org/2000/svg" width="16" height="16" viewBox="21.95 112.95 12.1 12.1" fill="none">
  <path d="M32.1464 114.147C32.3417 113.951 32.6582 113.951 32.8535 114.147C33.0487 114.342 33.0487 114.658 32.8535 114.854L28.707 119L32.8535 123.147C33.0487 123.342 33.0487 123.658 32.8535 123.854C32.6582 124.049 32.3417 124.049 32.1464 123.854L28 119.707L23.8535 123.854C23.6582 124.049 23.3417 124.049 23.1464 123.854C22.9512 123.658 22.9512 123.342 23.1464 123.147L27.2929 119L23.1464 114.854C22.9512 114.658 22.9512 114.342 23.1464 114.147C23.3417 113.951 23.6582 113.951 23.8535 114.147L28 118.293L32.1464 114.147Z" fill="currentColor"/>
</svg>
