<svg xmlns="http://www.w3.org/2000/svg" width="16" height="16" viewBox="20.0 111.0 17.0 17.0" fill="none">
  <path d="M33.1465 121.146C33.3417 120.951 33.6583 120.951 33.8535 121.146C34.0485 121.342 34.0486 121.658 33.8535 121.854L31.3535 124.354C31.1583 124.549 30.8418 124.549 30.6465 124.354L29.1465 122.854C28.9514 122.658 28.9513 122.342 29.1465 122.146C29.3417 121.951 29.6583 121.951 29.8535 122.146L31 123.293L33.1465 121.146Z" fill="currentColor"/>
  <path d="M31.5 118C33.9853 118 36 120.015 36 122.5C36 124.985 33.9853 127 31.5 127C29.0147 127 27 124.985 27 122.5C27 120.015 29.0147 118 31.5 118ZM31.5 119C29.567 119 28 120.567 28 122.5C28 124.433 29.567 126 31.5 126C33.433 126 35 124.433 35 122.5C35 120.567 33.433 119 31.5 119Z" fill="currentColor"/>
  <path d="M29.2061 112.005C31.3193 112.112 33 113.86 33 116V116.173C33.9049 116.493 34.609 117.234 34.8789 118.161C34.2581 117.677 33.5311 117.323 32.7383 117.141C32.63 117.098 32.517 117.064 32.4004 117.04C32.1674 116.993 32 116.788 32 116.55V116L31.9961 115.846C31.9184 114.312 30.6882 113.082 29.1543 113.004L29 113C27.4895 113 26.2402 114.118 26.0322 115.571C25.9968 115.817 25.7856 116 25.5371 116H24.5C23.1193 116 22 117.119 22 118.5L22.0127 118.756C22.1409 120.016 23.2058 121 24.5 121H26.208C26.1168 121.322 26.0544 121.657 26.0234 122H24.5C22.6275 122 21.0985 120.529 21.0049 118.68L21 118.5C21 116.567 22.5672 115 24.5 115H25.1289C25.573 113.275 27.136 112 29 112L29.2061 112.005Z" fill="currentColor"/>
</svg>
