<svg xmlns="http://www.w3.org/2000/svg" width="16" height="16" viewBox="20.0 111.0 16.0 16.0" fill="none">
  <path d="M32 118C32 116.343 30.6569 115 29 115C27.4895 115 26.2401 116.118 26.0322 117.571C25.9968 117.818 25.7857 118 25.5371 118H24.5C23.1193 118 22 119.12 22 120.5L22.0127 120.756C22.1409 122.016 23.2058 123 24.5 123H32C33.0355 123 33.8869 122.213 33.9893 121.204L34 121C34 120.033 33.3131 119.225 32.4004 119.04C32.1674 118.993 32 118.788 32 118.55V118ZM33 118.173C34.1649 118.585 35 119.694 35 121C34.9999 122.657 33.6568 124 32 124H24.5C22.5672 124 21.0001 122.433 21 120.5C21 118.567 22.5672 117 24.5 117H25.1289C25.573 115.275 27.136 114 29 114C31.2091 114 33 115.791 33 118V118.173Z" fill="currentColor"/>
</svg>
