<svg xmlns="http://www.w3.org/2000/svg" width="16" height="16" viewBox="19.95 110.95 16.1 16.1" fill="none">
  <path d="M34.1465 112.147C34.3417 111.951 34.6583 111.951 34.8535 112.147C35.0487 112.342 35.0488 112.658 34.8535 112.854L21.8535 125.854C21.6583 126.049 21.3417 126.049 21.1465 125.854C20.9512 125.658 20.9513 125.342 21.1465 125.147L22.7568 123.535C21.707 122.931 21.0001 121.798 21 120.5C21.0001 118.567 22.5673 117 24.5 117H25.1289C25.5731 115.275 27.1361 114 29 114C29.924 114 30.774 114.315 31.4512 114.841L34.1465 112.147ZM29 115C27.4896 115 26.2403 116.118 26.0322 117.571C25.9968 117.817 25.7856 118 25.5371 118H24.5C23.1194 118 22.0001 119.12 22 120.5L22.0127 120.756C22.1058 121.671 22.6927 122.437 23.502 122.79L30.7354 115.557C30.2452 115.208 29.6474 115 29 115Z" fill="currentColor"/>
  <path d="M32.7803 116.693C32.9218 117.103 33 117.542 33 118V118.173C34.1648 118.585 34.9999 119.694 35 121C34.9999 122.657 33.6567 124 32 124H25.4746L26.4746 123H32C33.0354 123 33.8869 122.213 33.9893 121.204L34 121C33.9999 120.033 33.3129 119.225 32.4004 119.04C32.1674 118.993 32 118.788 32 118.55V118C32 117.835 31.9847 117.673 31.959 117.515L32.7803 116.693Z" fill="currentColor"/>
</svg>
