<svg xmlns="http://www.w3.org/2000/svg" width="16" height="16" viewBox="20.0 111.0 16.0 16.0" fill="none">
  <path d="M26.1465 119.146C26.3418 118.951 26.6583 118.951 26.8535 119.146C27.0488 119.342 27.0488 119.658 26.8535 119.854L26.207 120.5L26.8535 121.146C27.0488 121.342 27.0488 121.658 26.8535 121.854C26.6583 122.049 26.3418 122.049 26.1465 121.854L25.1465 120.854C24.9512 120.658 24.9513 120.342 25.1465 120.146L26.1465 119.146Z" fill="currentColor"/>
  <path d="M29.1465 119.146C29.3418 118.951 29.6583 118.951 29.8535 119.146L29.8574 119.15L29.8906 119.183L29.8916 119.185L29.9336 119.227L29.9356 119.228L29.9365 119.23L29.9551 119.248L29.957 119.249L29.958 119.251L29.959 119.252L29.961 119.253L29.9619 119.255L30.0156 119.309L30.0176 119.31L30.0186 119.312L30.0264 119.319L30.0283 119.32L30.0293 119.322L30.0625 119.355L30.0654 119.357L30.0674 119.36L30.084 119.377L30.0869 119.379L30.0889 119.382L30.1817 119.475L30.1846 119.477L30.1865 119.48L30.2276 119.521L30.2315 119.523L30.2344 119.527L30.7852 120.078C30.787 120.08 30.7883 120.082 30.7901 120.084C30.7918 120.086 30.7941 120.087 30.7959 120.089L30.8135 120.106C30.8153 120.108 30.8166 120.111 30.8184 120.112C30.8202 120.114 30.8224 120.115 30.8242 120.117L30.8535 120.146C30.9472 120.24 31 120.367 31 120.5C31 120.633 30.9472 120.76 30.8535 120.854L29.8535 121.854C29.6583 122.049 29.3417 122.049 29.1465 121.854C28.9513 121.658 28.9513 121.342 29.1465 121.146L29.793 120.5L29.7813 120.488C29.7798 120.487 29.7778 120.486 29.7764 120.484C29.7749 120.483 29.7739 120.481 29.7725 120.48L29.7188 120.426L29.7139 120.422L29.71 120.418L29.7061 120.413L29.6748 120.382L29.6709 120.379L29.667 120.375L29.6641 120.371L29.5459 120.253L29.542 120.25L29.5391 120.246L29.5274 120.234L29.5235 120.231L29.5205 120.228L29.4795 120.187L29.4766 120.185L29.4746 120.182L29.4629 120.17L29.46 120.168L29.458 120.165L29.4444 120.151L29.4414 120.149L29.4395 120.146L29.4024 120.109L29.3994 120.107L29.3975 120.105L29.3819 120.089L29.3789 120.087L29.377 120.084L29.3731 120.08L29.3701 120.078L29.3682 120.075L29.3604 120.067L29.3574 120.065L29.3555 120.063L29.3223 120.029L29.3203 120.028L29.3194 120.026L29.3115 120.019L29.3096 120.018L29.3086 120.016L29.2979 120.005L29.2959 120.004L29.2949 120.002L29.293 120L29.291 119.999L29.2901 119.997L29.2774 119.984L29.2754 119.983L29.2744 119.981L29.2725 119.98L29.2715 119.979L29.2695 119.978L29.2686 119.976L29.2666 119.975L29.2656 119.973L29.2549 119.962L29.2529 119.961L29.252 119.959L29.2422 119.949L29.2402 119.948L29.2393 119.946L29.1895 119.896L29.1846 119.893L29.1826 119.891L29.1817 119.889L29.1465 119.854L29.082 119.775C28.9539 119.581 28.9757 119.317 29.1465 119.146Z" fill="currentColor"/>
  <path d="M33.5 113C33.7215 113 33.938 112.999 34.1152 113.022C34.3068 113.048 34.5254 113.111 34.707 113.293C34.8887 113.475 34.9518 113.693 34.9776 113.885C35.0014 114.062 35 114.278 35 114.5V115.5C35 115.722 35.0014 115.938 34.9776 116.115C34.9518 116.307 34.8887 116.525 34.707 116.707C34.5254 116.889 34.3068 116.952 34.1152 116.978C34.0785 116.982 34.0399 116.985 34 116.988V121.5C34 122.193 34.0009 122.763 33.9404 123.213C33.8781 123.677 33.742 124.086 33.4141 124.414C33.0861 124.742 32.6767 124.878 32.2129 124.94C31.7634 125.001 31.193 125 30.5 125H25.5C24.8071 125 24.2366 125.001 23.7871 124.94C23.3234 124.878 22.9139 124.742 22.586 124.414C22.258 124.086 22.122 123.677 22.0596 123.213C21.9991 122.763 22 122.193 22 121.5V116.988C21.9601 116.985 21.9216 116.982 21.8848 116.978C21.6932 116.952 21.4746 116.889 21.293 116.707C21.1115 116.525 21.0482 116.307 21.0225 116.115C20.9987 115.938 21 115.721 21 115.5V114.5C21 114.279 20.9987 114.062 21.0225 113.885C21.0482 113.693 21.1114 113.475 21.293 113.293L21.3623 113.23C21.5285 113.096 21.7171 113.045 21.8848 113.022C22.062 112.999 22.2785 113 22.5 113H33.5ZM23 121.5C23 122.221 23.0014 122.712 23.0508 123.079C23.0982 123.432 23.1817 123.596 23.293 123.707C23.4043 123.818 23.5679 123.902 23.9209 123.949C24.2883 123.999 24.7789 124 25.5 124H30.5C31.2211 124 31.7117 123.999 32.0791 123.949C32.4321 123.902 32.5958 123.818 32.707 123.707C32.8183 123.596 32.9018 123.432 32.9492 123.079C32.9986 122.712 33 122.221 33 121.5V117H23V121.5ZM22.5 114C22.2502 114 22.1127 114.001 22.0176 114.014H22.0137V114.019C22.001 114.114 22 114.251 22 114.5V115.5C22 115.75 22.0009 115.887 22.0137 115.982V115.985L22.0176 115.986C22.1127 115.999 22.2502 116 22.5 116H33.5C33.7498 116 33.8873 115.999 33.9824 115.986L33.9854 115.985L33.9863 115.982C33.9991 115.887 34 115.75 34 115.5V114.5C34 114.25 33.9991 114.113 33.9863 114.018L33.9854 114.014H33.9824C33.8873 114.001 33.7498 114 33.5 114H22.5Z" fill="currentColor"/>
</svg>
