<svg xmlns="http://www.w3.org/2000/svg" width="16" height="16" viewBox="19.95 110.95 16.05 16.05" fill="none">
  <path d="M31.5 114C32.193 114 32.7634 113.999 33.2129 114.06C33.6766 114.122 34.0861 114.258 34.4141 114.586C34.742 114.914 34.878 115.323 34.9404 115.787C35.0009 116.237 35 116.807 35 117.5V121.5C35 122.193 35.0009 122.763 34.9404 123.213C34.878 123.677 34.742 124.086 34.4141 124.414C34.0861 124.742 33.6766 124.878 33.2129 124.94C32.7634 125.001 32.193 125 31.5 125H24.5C23.807 125 23.2366 125.001 22.7871 124.94C22.3234 124.878 21.9139 124.742 21.5859 124.414C21.258 124.086 21.122 123.677 21.0596 123.213C20.9991 122.763 21 122.193 21 121.5V119.5C21 119.224 21.2239 119 21.5 119C21.7761 119 22 119.224 22 119.5V121.5C22 122.221 22.0014 122.712 22.0508 123.079C22.0982 123.432 22.1817 123.596 22.293 123.707C22.4043 123.818 22.5679 123.902 22.9209 123.949C23.2883 123.999 23.7789 124 24.5 124H31.5C32.2211 124 32.7117 123.999 33.0791 123.949C33.4321 123.902 33.5957 123.818 33.707 123.707C33.8183 123.596 33.9018 123.432 33.9492 123.079C33.9986 122.712 34 122.221 34 121.5V117.5C34 116.779 33.9986 116.288 33.9492 115.921C33.9018 115.568 33.8183 115.404 33.707 115.293C33.5957 115.182 33.4321 115.098 33.0791 115.051C32.7117 115.001 32.2212 115 31.5 115H30.5C30.2239 115 30 114.776 30 114.5C30 114.224 30.2239 114 30.5 114H31.5Z" fill="currentColor"/>
  <path d="M23.1465 113.146C23.3417 112.951 23.6583 112.951 23.8535 113.146C24.0488 113.342 24.0488 113.658 23.8535 113.853L22.207 115.5L23.8535 117.146C24.0488 117.342 24.0488 117.658 23.8535 117.853C23.6583 118.049 23.3417 118.049 23.1465 117.853L21.1465 115.853C20.9512 115.658 20.9513 115.342 21.1465 115.146L23.1465 113.146Z" fill="currentColor"/>
  <path d="M26.1465 113.146C26.3417 112.951 26.6583 112.951 26.8535 113.146L28.8535 115.146C29.0487 115.342 29.0488 115.658 28.8535 115.853L26.8535 117.853C26.6583 118.049 26.3417 118.049 26.1465 117.853C25.9512 117.658 25.9512 117.342 26.1465 117.146L27.793 115.5L26.1465 113.853C25.9512 113.658 25.9512 113.342 26.1465 113.146Z" fill="currentColor"/>
</svg>
