<svg xmlns="http://www.w3.org/2000/svg" width="16" height="16" viewBox="20.0 111.47 17.05 17.05" fill="none">
  <path d="M30.5 118C32.433 118 34 119.567 34 121.5C34 122.286 33.7403 123.011 33.3027 123.596L35.8535 126.146C36.0487 126.342 36.0488 126.658 35.8535 126.853C35.6583 127.049 35.3417 127.049 35.1465 126.853L32.5957 124.303C32.0114 124.74 31.2861 125 30.5 125C28.567 125 27 123.433 27 121.5C27 119.567 28.567 118 30.5 118ZM30.5 119C29.1193 119 28 120.119 28 121.5C28 122.881 29.1193 124 30.5 124C31.8807 124 33 122.881 33 121.5C33 120.119 31.8807 119 30.5 119Z" fill="currentColor"/>
  <path d="M25.1885 113.106C25.4058 112.936 25.7203 112.974 25.8906 113.191C26.0606 113.409 26.0226 113.723 25.8057 113.893L22.8477 116.213C22.4893 116.494 22.2635 116.672 22.1211 116.821C22.0546 116.891 22.0244 116.937 22.0107 116.964C22.0005 116.984 22 116.993 22 116.999C22 117.005 22.0003 117.015 22.0107 117.035C22.0245 117.062 22.0547 117.108 22.1211 117.178C22.2636 117.327 22.4893 117.505 22.8477 117.786L25.8057 120.106C26.0225 120.277 26.0607 120.591 25.8906 120.809C25.7203 121.025 25.4056 121.063 25.1885 120.893L22.2305 118.573C21.8965 118.311 21.6015 118.082 21.3975 117.868C21.1843 117.645 21.0001 117.366 21 116.999C21.0002 116.632 21.1845 116.354 21.3975 116.131C21.6015 115.917 21.8966 115.687 22.2305 115.426L25.1885 113.106Z" fill="currentColor"/>
  <path d="M30.1064 113.191C30.2768 112.974 30.5913 112.936 30.8086 113.106L33.7666 115.426C34.1005 115.687 34.3956 115.917 34.5996 116.131C34.8126 116.354 34.9969 116.632 34.9971 116.999C34.997 117.366 34.8127 117.645 34.5996 117.868C34.4139 118.063 34.1517 118.269 33.8545 118.502C33.6286 118.249 33.3748 118.022 33.0977 117.826L33.1494 117.786C33.5078 117.505 33.7335 117.327 33.876 117.178C33.9424 117.108 33.9726 117.062 33.9863 117.035C33.9968 117.015 33.9971 117.005 33.9971 116.999C33.9971 116.993 33.9965 116.984 33.9863 116.964C33.9727 116.937 33.9425 116.891 33.876 116.821C33.7335 116.672 33.5078 116.494 33.1494 116.213L30.1914 113.893C29.9745 113.723 29.9365 113.409 30.1064 113.191Z" fill="currentColor"/>
</svg>
