<svg xmlns="http://www.w3.org/2000/svg" width="16" height="16" viewBox="20.0 111.0 16.0 16.0" fill="none">
  <path d="M25.1885 115.106C25.4058 114.936 25.7203 114.974 25.8906 115.191C26.0608 115.409 26.0226 115.723 25.8057 115.894L22.8477 118.213C22.4892 118.494 22.2635 118.672 22.1211 118.821C22.0545 118.891 22.0244 118.937 22.0107 118.964C22.0004 118.984 22 118.993 22 118.999C22 119.005 22.0001 119.014 22.0107 119.035C22.0244 119.062 22.0545 119.108 22.1211 119.178C22.2635 119.327 22.4891 119.505 22.8477 119.786L25.8057 122.106C26.0226 122.277 26.0607 122.591 25.8906 122.809C25.7203 123.026 25.4057 123.064 25.1885 122.894L22.2305 120.573C21.8964 120.311 21.6015 120.082 21.3975 119.868C21.1843 119.645 21 119.367 21 118.999C21.0002 118.632 21.1844 118.354 21.3975 118.131C21.6015 117.917 21.8966 117.688 22.2305 117.426L25.1885 115.106Z" fill="currentColor"/>
  <path d="M30.1064 115.191C30.2768 114.974 30.5913 114.936 30.8086 115.106L33.7666 117.426C34.1005 117.688 34.3956 117.917 34.5996 118.131C34.8126 118.354 34.9969 118.632 34.9971 118.999C34.997 119.367 34.8128 119.645 34.5996 119.868C34.3955 120.082 34.1006 120.311 33.7666 120.573L30.8086 122.894C30.5914 123.064 30.2768 123.026 30.1064 122.809C29.9364 122.591 29.9745 122.277 30.1914 122.106L33.1494 119.786C33.508 119.505 33.7335 119.327 33.876 119.178C33.9426 119.108 33.9726 119.062 33.9863 119.035C33.9969 119.014 33.9971 119.005 33.9971 118.999C33.9971 118.993 33.9966 118.984 33.9863 118.964C33.9726 118.937 33.9426 118.891 33.876 118.821C33.7335 118.672 33.5079 118.494 33.1494 118.213L30.1914 115.894C29.9744 115.723 29.9363 115.409 30.1064 115.191Z" fill="currentColor"/>
</svg>
