<svg xmlns="http://www.w3.org/2000/svg" width="16" height="16" viewBox="20.0 111.5 16.0 16.0" fill="none">
  <path d="M23.7003 122C23.7429 122 23.8754 121.998 23.9981 122.015C24.1499 122.035 24.4246 122.098 24.6632 122.337C24.9017 122.576 24.965 122.85 24.9854 123.002C25.0019 123.125 25.0001 123.257 25.0001 123.3V123.7C25.0001 123.743 25.0019 123.875 24.9854 123.998C24.965 124.15 24.9018 124.425 24.6632 124.663C24.4245 124.902 24.1499 124.965 23.9981 124.985C23.8753 125.002 23.7429 125 23.7003 125H22.2999C22.2571 125 22.1247 125.002 22.002 124.985C21.8502 124.965 21.5756 124.902 21.337 124.663C21.0984 124.425 21.0351 124.15 21.0147 123.998C20.9982 123.875 21.0001 123.743 21.0001 123.7V123.3C21.0001 123.257 20.9982 123.125 21.0147 123.002C21.0352 122.85 21.0984 122.576 21.337 122.337C21.5756 122.098 21.8502 122.035 22.002 122.015C22.1247 121.998 22.2571 122 22.2999 122H23.7003ZM22.2999 123C22.1586 123 22.0879 123 22.044 123.044C22.0001 123.088 22.0001 123.159 22.0001 123.3V123.7C22.0001 123.841 22.0002 123.912 22.044 123.956C22.0879 124 22.1586 124 22.2999 124H23.7003C23.8416 124 23.9122 124 23.9561 123.956C24 123.912 24.0001 123.842 24.0001 123.7V123.3C24.0001 123.159 24 123.088 23.9561 123.044C23.9122 123 23.8415 123 23.7003 123H22.2999Z" fill="currentColor"/>
  <path d="M23.7003 118C23.7429 118 23.8754 117.998 23.9981 118.015C24.1499 118.035 24.4246 118.098 24.6632 118.337C24.9017 118.576 24.965 118.85 24.9854 119.002C25.0019 119.125 25.0001 119.257 25.0001 119.3V119.7C25.0001 119.743 25.0019 119.875 24.9854 119.998C24.965 120.15 24.9018 120.425 24.6632 120.663C24.4245 120.902 24.1499 120.965 23.9981 120.985C23.8753 121.002 23.7429 121 23.7003 121H22.2999C22.2571 121 22.1247 121.002 22.002 120.985C21.8502 120.965 21.5756 120.902 21.337 120.663C21.0984 120.425 21.0351 120.15 21.0147 119.998C20.9982 119.875 21.0001 119.743 21.0001 119.7V119.3C21.0001 119.257 20.9982 119.125 21.0147 119.002C21.0352 118.85 21.0984 118.576 21.337 118.337C21.5756 118.098 21.8502 118.035 22.002 118.015C22.1247 117.998 22.2571 118 22.2999 118H23.7003Z" fill="currentColor"/>
  <path d="M28.7003 118C28.7429 118 28.8754 117.998 28.9981 118.015C29.1499 118.035 29.4246 118.098 29.6632 118.337C29.9017 118.576 29.965 118.85 29.9854 119.002C30.0019 119.125 30.0001 119.257 30.0001 119.3V119.7C30.0001 119.743 30.0019 119.875 29.9854 119.998C29.965 120.15 29.9018 120.425 29.6632 120.663C29.4245 120.902 29.1499 120.965 28.9981 120.985C28.8753 121.002 28.7429 121 28.7003 121H27.2999C27.2572 121 27.1247 121.002 27.002 120.985C26.8502 120.965 26.5756 120.902 26.337 120.663C26.0984 120.425 26.0351 120.15 26.0147 119.998C25.9982 119.875 26.0001 119.743 26.0001 119.7V119.3C26.0001 119.257 25.9982 119.125 26.0147 119.002C26.0352 118.85 26.0984 118.576 26.337 118.337C26.5756 118.098 26.8502 118.035 27.002 118.015C27.1247 117.998 27.2572 118 27.2999 118H28.7003ZM27.2999 119C27.1586 119 27.0879 119 27.044 119.044C27.0001 119.088 27.0001 119.159 27.0001 119.3V119.7C27.0001 119.841 27.0002 119.912 27.044 119.956C27.0879 120 27.1586 120 27.2999 120H28.7003C28.8416 120 28.9122 120 28.9561 119.956C29 119.912 29.0001 119.842 29.0001 119.7V119.3C29.0001 119.159 29 119.088 28.9561 119.044C28.9122 119 28.8415 119 28.7003 119H27.2999Z" fill="currentColor"/>
  <path d="M23.7003 114C23.7429 114 23.8754 113.998 23.9981 114.015C24.1499 114.035 24.4246 114.098 24.6632 114.337C24.9017 114.576 24.965 114.85 24.9854 115.002C25.0019 115.125 25.0001 115.257 25.0001 115.3V115.7C25.0001 115.743 25.0019 115.875 24.9854 115.998C24.965 116.15 24.9018 116.425 24.6632 116.663C24.4245 116.902 24.1499 116.965 23.9981 116.985C23.8753 117.002 23.7429 117 23.7003 117H22.2999C22.2571 117 22.1247 117.002 22.002 116.985C21.8502 116.965 21.5756 116.902 21.337 116.663C21.0984 116.425 21.0351 116.15 21.0147 115.998C20.9982 115.875 21.0001 115.743 21.0001 115.7V115.3C21.0001 115.257 20.9982 115.125 21.0147 115.002C21.0352 114.85 21.0984 114.576 21.337 114.337C21.5756 114.098 21.8502 114.035 22.002 114.015C22.1247 113.998 22.2571 114 22.2999 114H23.7003Z" fill="currentColor"/>
  <path d="M28.7003 114C28.7429 114 28.8754 113.998 28.9981 114.015C29.1499 114.035 29.4246 114.098 29.6632 114.337C29.9017 114.576 29.965 114.85 29.9854 115.002C30.0019 115.125 30.0001 115.257 30.0001 115.3V115.7C30.0001 115.743 30.0019 115.875 29.9854 115.998C29.965 116.15 29.9018 116.425 29.6632 116.663C29.4245 116.902 29.1499 116.965 28.9981 116.985C28.8753 117.002 28.7429 117 28.7003 117H27.2999C27.2572 117 27.1247 117.002 27.002 116.985C26.8502 116.965 26.5756 116.902 26.337 116.663C26.0984 116.425 26.0351 116.15 26.0147 115.998C25.9982 115.875 26.0001 115.743 26.0001 115.7V115.3C26.0001 115.257 25.9982 115.125 26.0147 115.002C26.0352 114.85 26.0984 114.576 26.337 114.337C26.5756 114.098 26.8502 114.035 27.002 114.015C27.1247 113.998 27.2572 114 27.2999 114H28.7003Z" fill="currentColor"/>
  <path d="M33.7003 114C33.7429 114 33.8754 113.998 33.9981 114.015C34.1499 114.035 34.4246 114.098 34.6632 114.337C34.9017 114.576 34.965 114.85 34.9854 115.002C35.0019 115.125 35.0001 115.257 35.0001 115.3V115.7C35.0001 115.743 35.0019 115.875 34.9854 115.998C34.965 116.15 34.9018 116.425 34.6632 116.663C34.4245 116.902 34.1499 116.965 33.9981 116.985C33.8753 117.002 33.7429 117 33.7003 117H32.2999C32.2571 117 32.1247 117.002 32.002 116.985C31.8502 116.965 31.5756 116.902 31.337 116.663C31.0984 116.425 31.0351 116.15 31.0147 115.998C30.9982 115.875 31.0001 115.743 31.0001 115.7V115.3C31.0001 115.257 30.9982 115.125 31.0147 115.002C31.0352 114.85 31.0984 114.576 31.337 114.337C31.5756 114.098 31.8502 114.035 32.002 114.015C32.1247 113.998 32.2571 114 32.2999 114H33.7003ZM32.2999 115C32.1586 115 32.0879 115 32.044 115.044C32.0001 115.088 32.0001 115.159 32.0001 115.3V115.7C32.0001 115.841 32.0002 115.912 32.044 115.956C32.0879 116 32.1586 116 32.2999 116H33.7003C33.8416 116 33.9122 116 33.9561 115.956C34 115.912 34.0001 115.842 34.0001 115.7V115.3C34.0001 115.159 34 115.088 33.9561 115.044C33.9122 115 33.8415 115 33.7003 115H32.2999Z" fill="currentColor"/>
</svg>
