<svg xmlns="http://www.w3.org/2000/svg" width="16" height="16" viewBox="19.95 110.95 16.1 16.1" fill="none">
  <path d="M26.5 120C26.7761 120 27 120.224 27 120.5V124.5C26.9999 124.776 26.7761 125 26.5 125C26.2238 125 26 124.776 26 124.5V121.707L21.8535 125.854C21.6582 126.049 21.3417 126.049 21.1464 125.854C20.9512 125.658 20.9512 125.342 21.1464 125.147L25.2929 121H22.5C22.2238 121 22 120.776 22 120.5C22 120.224 22.2238 120 22.5 120H26.5Z" fill="currentColor"/>
  <path d="M34.1464 112.147C34.3417 111.951 34.6582 111.951 34.8535 112.147C35.0487 112.342 35.0487 112.658 34.8535 112.854L30.707 117H33.5C33.7761 117 34 117.224 34 117.5C33.9999 117.776 33.7761 118 33.5 118H29.5C29.2238 118 29 117.776 29 117.5V113.5C29 113.224 29.2238 113 29.5 113C29.7761 113 30 113.224 30 113.5V116.293L34.1464 112.147Z" fill="currentColor"/>
</svg>
