<svg xmlns="http://www.w3.org/2000/svg" width="16" height="16" viewBox="20.5 111.0 16.0 16.0" fill="none">
  <path d="M33 112C34.1046 112 35 112.895 35 114C35 115.105 34.1046 116 33 116C32.6288 116 32.2823 115.897 31.9844 115.721L29 118.707V122.065L28.9951 122.064C29.8599 122.285 30.5 123.067 30.5 124C30.5 125.105 29.6046 126 28.5 126C27.3954 126 26.5 125.105 26.5 124C26.5 123.067 27.1396 122.285 28.0039 122.064L28 122.065V118.707L25.0137 115.721C24.7161 115.896 24.3706 116 24 116C22.8954 116 22 115.105 22 114C22 112.895 22.8954 112 24 112C25.1046 112 26 112.895 26 114C26 114.371 25.8964 114.716 25.7207 115.014L28.5 117.793L31.2783 115.014C31.1028 114.716 31 114.37 31 114C31 112.895 31.8954 112 33 112ZM28.5 123C27.9477 123 27.5 123.448 27.5 124C27.5 124.552 27.9477 125 28.5 125C29.0523 125 29.5 124.552 29.5 124C29.5 123.448 29.0523 123 28.5 123ZM24 113C23.4477 113 23 113.448 23 114C23 114.552 23.4477 115 24 115C24.5523 115 25 114.552 25 114C25 113.448 24.5523 113 24 113ZM33 113C32.4477 113 32 113.448 32 114C32 114.552 32.4477 115 33 115C33.5523 115 34 114.552 34 114C34 113.448 33.5523 113 33 113Z" fill="currentColor"/>
</svg>
