<svg xmlns="http://www.w3.org/2000/svg" width="16" height="16" viewBox="19.9 110.0 17.19 17.19" fill="none">
  <path d="M26.6016 113C26.4395 113.317 26.3067 113.651 26.208 114H25.5C24.5431 114 23.8756 114.001 23.3721 114.068C22.883 114.134 22.624 114.255 22.4395 114.439C22.2549 114.624 22.1342 114.883 22.0684 115.372C22.0006 115.876 22 116.543 22 117.5V118.5C22 119.457 22.0006 120.124 22.0684 120.628C22.1342 121.117 22.2549 121.376 22.4395 121.561C22.624 121.745 22.883 121.866 23.3721 121.932C23.8756 121.999 24.5431 122 25.5 122H25.9453C26.3318 122 26.6832 122.223 26.8486 122.572L27.999 125L29.1494 122.572C29.3148 122.223 29.6663 122 30.0527 122H30.5C31.4569 122 32.1244 121.999 32.6279 121.932C33.117 121.866 33.376 121.745 33.5605 121.561C33.7451 121.376 33.8658 121.117 33.9316 120.628C33.9404 120.563 33.9435 120.495 33.9502 120.424C34.3228 120.238 34.6716 120.012 34.9902 119.75C34.9806 120.13 34.9616 120.466 34.9219 120.761C34.8412 121.361 34.6688 121.866 34.2676 122.268C33.8663 122.669 33.3608 122.841 32.7607 122.922C32.1751 123.001 31.4285 123 30.5 123H30.0527L28.9023 125.428C28.5411 126.19 27.4569 126.19 27.0957 125.428L25.9453 123H25.5C24.5715 123 23.8249 123.001 23.2393 122.922C22.6392 122.841 22.1337 122.669 21.7324 122.268C21.3312 121.866 21.1588 121.361 21.0781 120.761C20.9994 120.175 21 119.429 21 118.5V117.5C21 116.571 20.9994 115.825 21.0781 115.239C21.1588 114.639 21.3312 114.134 21.7324 113.732C22.1337 113.331 22.6392 113.159 23.2393 113.078C23.8249 112.999 24.5715 113 25.5 113H26.6016Z" fill="currentColor"/>
  <path d="M31.5 113C31.7761 113 32 113.224 32 113.5V115H33.5C33.7761 115 34 115.224 34 115.5C34 115.776 33.7761 116 33.5 116H32V117.5C32 117.776 31.7761 118 31.5 118C31.2239 118 31 117.776 31 117.5V116H29.5C29.2239 116 29 115.776 29 115.5C29 115.224 29.2239 115 29.5 115H31V113.5C31 113.224 31.2239 113 31.5 113Z" fill="currentColor"/>
  <path d="M31.5 111C33.9853 111 36 113.015 36 115.5C36 117.985 33.9853 120 31.5 120C29.0147 120 27 117.985 27 115.5C27 113.015 29.0147 111 31.5 111ZM31.5 112C29.567 112 28 113.567 28 115.5C28 117.433 29.567 119 31.5 119C33.433 119 35 117.433 35 115.5C35 113.567 33.433 112 31.5 112Z" fill="currentColor"/>
</svg>
