<svg xmlns="http://www.w3.org/2000/svg" width="16" height="16" viewBox="19.9 110.0 17.19 17.19" fill="none">
  <path d="M26.6016 113C26.4395 113.317 26.3067 113.651 26.208 114H25.5C24.5431 114 23.8756 114.001 23.3721 114.068C22.883 114.134 22.624 114.255 22.4395 114.439C22.2549 114.624 22.1342 114.883 22.0684 115.372C22.0006 115.876 22 116.543 22 117.5V118.5C22 119.457 22.0006 120.124 22.0684 120.628C22.1342 121.117 22.2549 121.376 22.4395 121.561C22.624 121.745 22.883 121.866 23.3721 121.932C23.8756 121.999 24.5431 122 25.5 122H25.9453C26.3318 122 26.6832 122.223 26.8486 122.572L27.999 125L29.1494 122.572C29.3148 122.223 29.6663 122 30.0527 122H30.5C31.4569 122 32.1244 121.999 32.6279 121.932C33.117 121.866 33.376 121.745 33.5605 121.561C33.7451 121.376 33.8658 121.117 33.9316 120.628C33.9404 120.563 33.9435 120.495 33.9502 120.424C34.3228 120.238 34.6716 120.012 34.9902 119.75C34.9806 120.13 34.9616 120.466 34.9219 120.761C34.8412 121.361 34.6688 121.866 34.2676 122.268C33.8663 122.669 33.3608 122.841 32.7607 122.922C32.1751 123.001 31.4285 123 30.5 123H30.0527L28.9023 125.428C28.5411 126.19 27.4569 126.19 27.0957 125.428L25.9453 123H25.5C24.5715 123 23.8249 123.001 23.2393 122.922C22.6392 122.841 22.1337 122.669 21.7324 122.268C21.3312 121.866 21.1588 121.361 21.0781 120.761C20.9994 120.175 21 119.429 21 118.5V117.5C21 116.571 20.9994 115.825 21.0781 115.239C21.1588 114.639 21.3312 114.134 21.7324 113.732C22.1337 113.331 22.6392 113.159 23.2393 113.078C23.8249 112.999 24.5715 113 25.5 113H26.6016Z" fill="currentColor"/>
  <path d="M33.0625 116.258C33.1962 116.016 33.5006 115.929 33.7422 116.062C33.9838 116.196 34.0712 116.501 33.9375 116.742C33.7906 117.008 33.581 117.238 33.3301 117.426C33.0792 117.613 32.7885 117.758 32.4766 117.854C32.1644 117.951 31.8328 118 31.5 118C31.1672 118 30.8356 117.951 30.5234 117.854C30.2115 117.758 29.9208 117.613 29.6699 117.426C29.419 117.238 29.2094 117.008 29.0625 116.742C28.9288 116.501 29.0162 116.196 29.2578 116.062C29.4994 115.929 29.8038 116.016 29.9375 116.258C30.0082 116.385 30.1176 116.512 30.2686 116.625C30.4197 116.738 30.6061 116.833 30.8193 116.899C31.0324 116.965 31.2642 117 31.5 117C31.7358 117 31.9676 116.965 32.1807 116.899C32.3939 116.833 32.5803 116.738 32.7314 116.625C32.8824 116.512 32.9918 116.385 33.0625 116.258Z" fill="currentColor"/>
  <path d="M30.5 113.5C30.7761 113.5 31 113.724 31 114V114.5C31 114.776 30.7761 115 30.5 115C30.2239 115 30 114.776 30 114.5V114C30 113.724 30.2239 113.5 30.5 113.5Z" fill="currentColor"/>
  <path d="M32.5 113.5C32.7761 113.5 33 113.724 33 114V114.5C33 114.776 32.7761 115 32.5 115C32.2239 115 32 114.776 32 114.5V114C32 113.724 32.2239 113.5 32.5 113.5Z" fill="currentColor"/>
  <path d="M31.5 111C33.9853 111 36 113.015 36 115.5C36 117.985 33.9853 120 31.5 120C29.0147 120 27 117.985 27 115.5C27 113.015 29.0147 111 31.5 111ZM31.5 112C29.567 112 28 113.567 28 115.5C28 117.433 29.567 119 31.5 119C33.433 119 35 117.433 35 115.5C35 113.567 33.433 112 31.5 112Z" fill="currentColor"/>
</svg>
