<svg xmlns="http://www.w3.org/2000/svg" width="16" height="16" viewBox="20.0 111.59 16.0 16.0" fill="none">
  <path d="M25 117C25.5523 117 26 117.448 26 118C26 118.552 25.5523 119 25 119C24.4477 119 24 118.552 24 118C24 117.448 24.4477 117 25 117Z" fill="currentColor"/>
  <path d="M28 117C28.5523 117 29 117.448 29 118C29 118.552 28.5523 119 28 119C27.4477 119 27 118.552 27 118C27 117.448 27.4477 117 28 117Z" fill="currentColor"/>
  <path d="M31 117C31.5523 117 32 117.448 32 118C32 118.552 31.5523 119 31 119C30.4477 119 30 118.552 30 118C30 117.448 30.4477 117 31 117Z" fill="currentColor"/>
  <path d="M30.5 113C31.4285 113 32.1751 112.999 32.7607 113.078C33.3608 113.159 33.8663 113.331 34.2676 113.732C34.6688 114.134 34.8412 114.639 34.9219 115.239C35.0006 115.825 35 116.571 35 117.5V118.5C35 119.429 35.0006 120.175 34.9219 120.761C34.8412 121.361 34.6688 121.866 34.2676 122.268C33.8663 122.669 33.3608 122.841 32.7607 122.922C32.1751 123.001 31.4285 123 30.5 123H30.0527L28.9023 125.428C28.5411 126.19 27.4569 126.19 27.0957 125.428L25.9453 123H25.5C24.5715 123 23.8249 123.001 23.2393 122.922C22.6392 122.841 22.1337 122.669 21.7324 122.268C21.3312 121.866 21.1588 121.361 21.0781 120.761C20.9994 120.175 21 119.429 21 118.5V117.5C21 116.571 20.9994 115.825 21.0781 115.239C21.1588 114.639 21.3312 114.134 21.7324 113.732C22.1337 113.331 22.6392 113.159 23.2393 113.078C23.8249 112.999 24.5715 113 25.5 113H30.5ZM25.5 114C24.5431 114 23.8756 114.001 23.3721 114.068C22.883 114.134 22.624 114.255 22.4395 114.439C22.2549 114.624 22.1342 114.883 22.0684 115.372C22.0006 115.876 22 116.543 22 117.5V118.5C22 119.457 22.0006 120.124 22.0684 120.628C22.1342 121.117 22.2549 121.376 22.4395 121.561C22.624 121.745 22.883 121.866 23.3721 121.932C23.8756 121.999 24.5431 122 25.5 122H25.9453C26.3318 122 26.6832 122.223 26.8486 122.572L27.999 125L29.1494 122.572C29.3148 122.223 29.6663 122 30.0527 122H30.5C31.4569 122 32.1244 121.999 32.6279 121.932C33.117 121.866 33.376 121.745 33.5605 121.561C33.7451 121.376 33.8658 121.117 33.9316 120.628C33.9994 120.124 34 119.457 34 118.5V117.5C34 116.543 33.9994 115.876 33.9316 115.372C33.8658 114.883 33.7451 114.624 33.5605 114.439C33.376 114.255 33.117 114.134 32.6279 114.068C32.1244 114.001 31.4569 114 30.5 114H25.5Z" fill="currentColor"/>
</svg>
