<svg xmlns="http://www.w3.org/2000/svg" width="16" height="16" viewBox="20.81 112.0 14.0 14.0" fill="none">
  <path d="M30.8145 121H31.8145C32.919 121 33.8145 121.895 33.8145 123C33.8145 124.105 32.919 125 31.8145 125C30.7099 125 29.8145 124.105 29.8145 123V122H25.8145V123C25.8145 124.105 24.919 125 23.8145 125C22.7099 125 21.8145 124.105 21.8145 123C21.8145 121.895 22.7099 121 23.8145 121H24.8145V117H23.8145C22.7099 117 21.8145 116.105 21.8145 115C21.8145 113.895 22.7099 113 23.8145 113C24.919 113 25.8145 113.895 25.8145 115V116H29.8145V115C29.8145 113.895 30.7099 113 31.8145 113C32.919 113 33.8145 113.895 33.8145 115C33.8145 116.105 32.919 117 31.8145 117H30.8145V121ZM29.8145 117H25.8145V121H29.8145V117ZM23.8145 122C23.2622 122 22.8145 122.448 22.8145 123C22.8145 123.552 23.2622 124 23.8145 124C24.3667 124 24.8145 123.552 24.8145 123V122H23.8145ZM30.8145 122V123C30.8145 123.552 31.2622 124 31.8145 124C32.3667 124 32.8145 123.552 32.8145 123C32.8145 122.448 32.3667 122 31.8145 122H30.8145ZM23.8145 114C23.2622 114 22.8145 114.448 22.8145 115C22.8145 115.552 23.2622 116 23.8145 116H24.8145V115C24.8145 114.448 24.3667 114 23.8145 114ZM31.8145 114C31.2622 114 30.8145 114.448 30.8145 115V116H31.8145C32.3667 116 32.8145 115.552 32.8145 115C32.8145 114.448 32.3667 114 31.8145 114Z" fill="currentColor"/>
</svg>
