<svg xmlns="http://www.w3.org/2000/svg" width="16" height="16" viewBox="20.0 109.99 17.22 17.22" fill="none">
  <path d="M28 113C27.9191 113 27.7173 112.997 27.5293 113.022C27.3297 113.049 26.9854 113.124 26.6592 113.384L26.5205 113.507C26.5005 113.527 26.4836 113.546 26.4697 113.562L26.4668 113.565C26.4791 113.551 26.4936 113.535 26.5107 113.518C26.4844 113.544 26.4611 113.573 26.4375 113.6L26.4355 113.603C26.427 113.614 26.4202 113.623 26.416 113.629C26.414 113.632 26.4111 113.636 26.4111 113.636L26.4141 113.631C26.4175 113.626 26.4232 113.618 26.4307 113.608L26.3604 113.694C26.2833 113.797 26.2241 113.9 26.1777 114H25.5C24.5431 114 23.8756 114.001 23.3721 114.068C22.883 114.134 22.624 114.255 22.4395 114.439C22.2549 114.624 22.1342 114.883 22.0684 115.372C22.0006 115.876 22 116.543 22 117.5V118.5C22 119.457 22.0006 120.124 22.0684 120.628C22.1342 121.117 22.2549 121.376 22.4395 121.561C22.624 121.745 22.883 121.866 23.3721 121.932C23.8756 121.999 24.5431 122 25.5 122H25.9453C26.3317 122 26.6832 122.223 26.8486 122.572L27.999 125L29.1494 122.572C29.3149 122.223 29.6663 122 30.0527 122H30.5C31.4569 122 32.1244 121.999 32.6279 121.932C33.117 121.866 33.376 121.745 33.5605 121.561C33.7188 121.402 33.8294 121.189 33.8994 120.823C34.0079 120.791 34.1157 120.755 34.2207 120.709C34.4878 120.593 34.7388 120.443 34.9688 120.265C34.9576 120.441 34.9426 120.607 34.9219 120.761C34.8412 121.361 34.6688 121.866 34.2676 122.268C33.8663 122.669 33.3608 122.841 32.7607 122.922C32.1751 123.001 31.4285 123 30.5 123H30.0527L28.9023 125.428C28.5411 126.19 27.4569 126.19 27.0957 125.428L25.9453 123H25.5C24.5715 123 23.8249 123.001 23.2393 122.922C22.6392 122.841 22.1337 122.669 21.7324 122.268C21.3312 121.866 21.1588 121.361 21.0781 120.761C20.9994 120.175 21 119.428 21 118.5V117.5C21 116.572 20.9994 115.825 21.0781 115.239C21.1589 114.639 21.3312 114.134 21.7324 113.732C22.1337 113.331 22.6392 113.159 23.2393 113.078C23.8249 112.999 24.5715 113 25.5 113H28Z" fill="currentColor"/>
  <path d="M32.5898 111C33.6249 111 34.3556 112.014 34.0283 112.996L33.6943 114H34.1123C34.2122 114 34.2885 114 34.3506 114.004C35.4587 114.077 36.2187 115.151 35.9199 116.221C35.9032 116.281 35.8779 116.352 35.8447 116.446L35.4951 117.44C35.2098 118.251 35.0265 118.803 34.6553 119.202C34.4211 119.454 34.1367 119.655 33.8213 119.792C33.3211 120.01 32.7395 120 31.8799 120H31.2109C30.6391 120 30.2514 120.005 29.8809 119.893C29.5811 119.802 29.3145 119.641 28.9717 119.415C28.9475 119.528 28.8977 119.663 28.7803 119.78L28.7246 119.83C28.5931 119.936 28.4489 119.972 28.3408 119.986C28.2318 120.001 28.1036 120 28 120C27.8963 120 27.7682 120.001 27.6592 119.986C27.5511 119.972 27.4069 119.936 27.2754 119.83L27.2197 119.78L27.1699 119.725C27.0641 119.593 27.0282 119.449 27.0137 119.341C26.9991 119.232 26.9999 119.104 27 119L27.0029 114.998C27.003 114.895 27.002 114.768 27.0166 114.659C27.0331 114.536 27.0772 114.366 27.2207 114.222C27.2222 114.22 27.2231 114.218 27.2246 114.217C27.3692 114.074 27.5394 114.03 27.6621 114.014C27.7705 113.999 27.898 114 28.001 114C28.1041 114 28.2323 113.999 28.3408 114.014C28.4636 114.03 28.6337 114.074 28.7783 114.218L28.7822 114.222C28.8418 114.282 28.8816 114.347 28.9121 114.411C29.4835 114.256 29.9876 113.904 30.3262 113.406C30.3786 113.329 30.43 113.241 30.5586 113.016L31.2734 111.764C31.5435 111.291 32.0458 111 32.5898 111ZM32.5898 112C32.4047 112 32.2336 112.099 32.1416 112.26L31.4268 113.512C31.3064 113.722 31.2329 113.852 31.1533 113.969C30.6453 114.716 29.8713 115.23 29 115.419V118.232L29.2695 118.412C29.7939 118.762 29.9746 118.876 30.1709 118.936C30.3672 118.995 30.5808 119 31.2109 119H31.8799C32.833 119 33.1587 118.989 33.4219 118.875C33.611 118.793 33.7814 118.673 33.9219 118.521C34.1173 118.311 34.2353 118.007 34.5518 117.108L34.9014 116.114C34.9403 116.004 34.9515 115.972 34.957 115.952C35.0851 115.494 34.7591 115.033 34.2842 115.002C34.2638 115.001 34.2301 115 34.1123 115H33.6328C32.9805 115 32.5195 114.361 32.7256 113.742L33.0801 112.68C33.1914 112.345 32.9423 112 32.5898 112Z" fill="currentColor"/>
</svg>
