<svg xmlns="http://www.w3.org/2000/svg" width="16" height="16" viewBox="20.0 111.0 16.0 16.0" fill="none">
  <path d="M29.8623 115.992C30.1318 115.952 30.4924 115.95 30.7715 116.229C31.0505 116.508 31.0484 116.869 31.0078 117.139C30.9672 117.408 30.8626 117.747 30.7471 118.126L30.1318 120.142C30.0969 120.256 30.0618 120.375 30.0215 120.474C29.9772 120.582 29.9143 120.7 29.8086 120.807C29.703 120.913 29.5864 120.976 29.4785 121.021C29.3799 121.063 29.2611 121.1 29.1465 121.136L27.2236 121.739C26.8552 121.855 26.5241 121.96 26.2598 122.002C25.9937 122.044 25.6393 122.048 25.3594 121.779C25.0798 121.51 25.0699 121.156 25.1016 120.889C25.1331 120.623 25.226 120.288 25.3271 119.915L25.873 117.902C25.9059 117.781 25.9394 117.657 25.9785 117.553C26.0215 117.439 26.0834 117.315 26.1924 117.202L26.2764 117.126C26.3619 117.058 26.4516 117.012 26.5361 116.978C26.639 116.935 26.7626 116.898 26.8828 116.861L28.875 116.253C29.2538 116.137 29.593 116.033 29.8623 115.992ZM26.292 120.177C26.1821 120.582 26.1155 120.831 26.0947 121.006C26.0944 121.009 26.094 121.012 26.0938 121.015C26.0968 121.014 26.1003 121.015 26.1035 121.015C26.2772 120.987 26.524 120.911 26.9248 120.785L28.5635 120.271L26.7559 118.463L26.292 120.177ZM30.0107 116.981C29.832 117.008 29.5782 117.085 29.167 117.21L27.4424 117.735L29.2646 119.558L29.791 117.834C29.9163 117.423 29.9925 117.169 30.0195 116.99C30.02 116.987 30.0192 116.983 30.0195 116.98C30.0167 116.981 30.0137 116.981 30.0107 116.981Z" fill="currentColor"/>
  <path d="M28 112C31.866 112 35 115.134 35 119C35 122.866 31.866 126 28 126C24.134 126 21 122.866 21 119C21 115.134 24.134 112 28 112ZM28 113C24.6863 113 22 115.686 22 119C22 122.314 24.6863 125 28 125C31.3137 125 34 122.314 34 119C34 115.686 31.3137 113 28 113Z" fill="currentColor"/>
</svg>
