<svg xmlns="http://www.w3.org/2000/svg" width="16" height="16" viewBox="20.0 111.0 16.0 16.0" fill="none">
  <path d="M24 115C24.4579 115 24.8348 115 25.1396 115.027C25.4514 115.056 25.7372 115.116 26 115.268C26.304 115.443 26.5569 115.696 26.7324 116C26.8841 116.263 26.9444 116.549 26.9727 116.86C27.0003 117.165 27 117.542 27 118V120H29C29.4579 120 29.8348 120 30.1396 120.027C30.4514 120.056 30.7372 120.116 31 120.268C31.304 120.443 31.5569 120.696 31.7324 121C31.8841 121.263 31.9444 121.549 31.9727 121.86C32.0003 122.165 32 122.542 32 123C32 123.458 32.0003 123.835 31.9727 124.14C31.9444 124.451 31.8841 124.737 31.7324 125C31.5569 125.304 31.304 125.557 31 125.732C30.7372 125.884 30.4514 125.944 30.1396 125.973C29.8348 126 29.4579 126 29 126H24.5C23.807 126 23.2366 126.001 22.7871 125.94C22.3234 125.878 21.9139 125.742 21.5859 125.414C21.258 125.086 21.122 124.677 21.0596 124.213C20.9991 123.763 21 123.193 21 122.5V118C21 117.542 20.9997 117.165 21.0273 116.86C21.0556 116.549 21.1159 116.263 21.2676 116C21.4431 115.696 21.696 115.443 22 115.268C22.2628 115.116 22.5486 115.056 22.8604 115.027C23.1652 115 23.5421 115 24 115ZM22 122.5C22 123.221 22.0014 123.712 22.0508 124.079C22.0982 124.432 22.1817 124.596 22.293 124.707C22.4043 124.818 22.5679 124.902 22.9209 124.949C23.2883 124.999 23.7788 125 24.5 125H26V121H22V122.5ZM27 125H29C29.4765 125 29.8004 124.999 30.0498 124.977C30.2922 124.955 30.4148 124.915 30.5 124.866C30.652 124.778 30.7784 124.652 30.8662 124.5C30.9154 124.415 30.9546 124.292 30.9766 124.05C30.9992 123.8 31 123.477 31 123C31 122.523 30.9992 122.2 30.9766 121.95C30.9546 121.708 30.9154 121.585 30.8662 121.5C30.7784 121.348 30.652 121.222 30.5 121.134C30.4148 121.085 30.2922 121.045 30.0498 121.023C29.8004 121.001 29.4765 121 29 121H27V125ZM24 116C23.5235 116 23.1996 116.001 22.9502 116.023C22.7078 116.045 22.5853 116.085 22.5 116.134C22.348 116.222 22.2216 116.348 22.1338 116.5C22.0846 116.585 22.0454 116.708 22.0234 116.95C22.0008 117.2 22 117.523 22 118V120H26V118C26 117.523 25.9992 117.2 25.9766 116.95C25.9546 116.708 25.9154 116.585 25.8662 116.5C25.7784 116.348 25.652 116.222 25.5 116.134C25.4148 116.085 25.2922 116.045 25.0498 116.023C24.8004 116.001 24.4765 116 24 116Z" fill="currentColor"/>
  <path d="M31.5 112C32.193 112 32.7634 111.999 33.2129 112.06C33.6767 112.122 34.0861 112.258 34.4141 112.586C34.742 112.914 34.878 113.323 34.9404 113.787C35.0009 114.237 35 114.807 35 115.5C35 116.193 35.0009 116.763 34.9404 117.213C34.878 117.677 34.742 118.086 34.4141 118.414C34.0861 118.742 33.6767 118.878 33.2129 118.94C32.7634 119.001 32.193 119 31.5 119C30.807 119 30.2366 119.001 29.7871 118.94C29.3234 118.878 28.9139 118.742 28.5859 118.414C28.258 118.086 28.122 117.677 28.0596 117.213C27.9991 116.763 28 116.193 28 115.5C28 114.807 27.9991 114.237 28.0596 113.787C28.122 113.323 28.258 112.914 28.5859 112.586C28.9139 112.258 29.3234 112.122 29.7871 112.06C30.2366 111.999 30.807 112 31.5 112ZM31.5 113C30.7788 113 30.2883 113.001 29.9209 113.051C29.5679 113.098 29.4043 113.182 29.293 113.293C29.1817 113.404 29.0982 113.568 29.0508 113.921C29.0014 114.288 29 114.779 29 115.5C29 116.221 29.0014 116.712 29.0508 117.079C29.0982 117.432 29.1817 117.596 29.293 117.707C29.4043 117.818 29.5679 117.902 29.9209 117.949C30.2883 117.999 30.7788 118 31.5 118C32.2212 118 32.7117 117.999 33.0791 117.949C33.4321 117.902 33.5957 117.818 33.707 117.707C33.8183 117.596 33.9018 117.432 33.9492 117.079C33.9986 116.712 34 116.221 34 115.5C34 114.779 33.9986 114.288 33.9492 113.921C33.9018 113.568 33.8183 113.404 33.707 113.293C33.5957 113.182 33.4321 113.098 33.0791 113.051C32.7117 113.001 32.2212 113 31.5 113Z" fill="currentColor"/>
</svg>
