<svg xmlns="http://www.w3.org/2000/svg" width="16" height="16" viewBox="19.98 110.98 16.04 16.04" fill="none">
  <path d="M28.0046 120.001C28.2736 120.001 28.482 120.112 28.6413 120.229C28.7887 120.338 28.9464 120.492 29.1091 120.649L29.903 121.417C30.1714 121.676 30.3979 121.894 30.5641 122.087C30.7346 122.284 30.8756 122.491 30.945 122.74C31.0249 123.028 31.0233 123.331 30.9401 123.618C30.8679 123.867 30.7244 124.071 30.5514 124.267C30.3831 124.458 30.1556 124.673 29.8845 124.929C29.6089 125.19 29.3771 125.409 29.1725 125.57C28.9626 125.736 28.7417 125.873 28.4743 125.941C28.1667 126.02 27.8425 126.02 27.5348 125.942C27.2674 125.874 27.0467 125.737 26.8366 125.572C26.6319 125.411 26.4005 125.192 26.1247 124.932C25.8523 124.675 25.6229 124.46 25.4538 124.269C25.4045 124.214 25.3586 124.156 25.3151 124.098C25.205 123.952 25.1154 123.797 25.0632 123.618C24.9788 123.329 24.9772 123.024 25.0583 122.734C25.1281 122.485 25.2692 122.279 25.4401 122.082C25.4684 122.049 25.5003 122.017 25.5319 121.983C25.5598 121.953 25.5884 121.922 25.6188 121.89C25.7567 121.747 25.9183 121.589 26.1012 121.413L26.8952 120.648C27.0582 120.491 27.2163 120.337 27.3639 120.228C27.5234 120.111 27.7316 120 28.0007 120.001H28.0046ZM28.0016 120.994C27.9219 121.052 27.8198 121.149 27.6364 121.326L26.8405 122.091C26.5581 122.364 26.3698 122.546 26.2389 122.697C26.1129 122.842 26.0713 122.925 26.0544 122.985C26.0201 123.108 26.0206 123.239 26.0563 123.362C26.0672 123.399 26.0888 123.444 26.1335 123.508C26.1602 123.547 26.1948 123.592 26.2419 123.645C26.3742 123.794 26.5644 123.974 26.8493 124.243C27.1376 124.515 27.3306 124.696 27.4909 124.822C27.6455 124.944 27.7325 124.983 27.7966 125C27.9292 125.034 28.0702 125.034 28.2028 125C28.2668 124.983 28.3535 124.943 28.5075 124.822C28.6676 124.696 28.8602 124.514 29.1481 124.242C29.432 123.973 29.6209 123.793 29.7526 123.644C29.879 123.501 29.9215 123.421 29.9391 123.361C29.9751 123.238 29.9756 123.106 29.9411 122.982C29.9243 122.922 29.8837 122.841 29.7585 122.696C29.6285 122.546 29.4415 122.364 29.1608 122.092L28.3678 121.327C28.1847 121.15 28.0813 121.052 28.0016 120.994Z" fill="currentColor"/>
  <path d="M23.3845 116.063C23.6718 115.98 23.9751 115.977 24.2634 116.057C24.5134 116.127 24.7209 116.269 24.9186 116.44C25.111 116.607 25.3283 116.833 25.5876 117.102L26.3552 117.899C26.5121 118.062 26.6668 118.22 26.7751 118.368C26.8918 118.527 27.0017 118.735 27.0016 119.004C27.0013 119.273 26.8903 119.481 26.7731 119.64C26.6645 119.788 26.5103 119.945 26.3532 120.108L25.5856 120.902C25.3262 121.17 25.1081 121.397 24.9157 121.563C24.7183 121.734 24.5117 121.875 24.2624 121.944C23.9747 122.024 23.6713 122.021 23.3845 121.938C23.1359 121.866 22.9307 121.723 22.735 121.55C22.5445 121.382 22.3293 121.155 22.0729 120.883C21.8124 120.608 21.5937 120.376 21.4323 120.172C21.2667 119.962 21.1296 119.741 21.0612 119.473C20.9827 119.166 20.9821 118.841 21.0602 118.533C21.1282 118.266 21.2644 118.045 21.4294 117.836C21.5905 117.631 21.8097 117.399 22.07 117.123C22.3269 116.85 22.5422 116.621 22.7331 116.452C22.9291 116.278 23.1351 116.136 23.3845 116.063ZM24.0173 117.053C23.8939 117.019 23.7634 117.02 23.6403 117.055C23.5802 117.073 23.4987 117.115 23.3542 117.243C23.2046 117.375 23.0247 117.566 22.7555 117.851C22.4829 118.14 22.301 118.334 22.1745 118.495C22.0525 118.65 22.0131 118.737 21.9968 118.801C21.9633 118.933 21.9631 119.073 21.9968 119.205C22.0133 119.269 22.0536 119.356 22.1755 119.51C22.3022 119.671 22.4844 119.865 22.7575 120.154C23.0264 120.438 23.2058 120.628 23.3552 120.76C23.4992 120.887 23.5813 120.929 23.6413 120.946C23.764 120.981 23.8942 120.982 24.0173 120.948C24.0774 120.931 24.1592 120.891 24.3044 120.765C24.4551 120.635 24.6361 120.447 24.9079 120.166L25.6764 119.372C25.8535 119.189 25.9498 119.085 26.0085 119.006L26.0104 119.003L26.0085 119.001C25.95 118.921 25.853 118.819 25.6764 118.635L24.9098 117.839C24.6382 117.557 24.4562 117.369 24.3053 117.238C24.16 117.112 24.0775 117.07 24.0173 117.053Z" fill="currentColor"/>
  <path d="M31.7399 116.057C32.0281 115.977 32.3324 115.979 32.6198 116.062C32.8689 116.135 33.0743 116.278 33.2702 116.452C33.4611 116.621 33.6764 116.85 33.9333 117.123C34.1934 117.399 34.4128 117.63 34.5739 117.835C34.7391 118.045 34.875 118.266 34.943 118.533C35.0213 118.841 35.0207 119.165 34.9421 119.473C34.8737 119.74 34.7374 119.961 34.572 120.171C34.4105 120.375 34.191 120.607 33.9303 120.882C33.6739 121.154 33.4588 121.381 33.2682 121.549C33.0725 121.722 32.8676 121.866 32.6188 121.938C32.332 122.021 32.0286 122.023 31.7409 121.943C31.4917 121.874 31.2849 121.733 31.0876 121.562C30.8953 121.396 30.6769 121.17 30.4177 120.902L29.6501 120.108C29.4929 119.945 29.3387 119.787 29.2302 119.639C29.113 119.48 29.0019 119.272 29.0016 119.004C29.0015 118.735 29.1113 118.526 29.2282 118.367C29.3364 118.219 29.4913 118.062 29.6481 117.899L30.4157 117.102C30.6752 116.833 30.8921 116.606 31.0846 116.439C31.2824 116.268 31.49 116.127 31.7399 116.057ZM32.363 117.055C32.24 117.02 32.1094 117.019 31.986 117.053C31.9258 117.07 31.844 117.111 31.6989 117.237C31.5479 117.368 31.3656 117.556 31.0934 117.839L30.3268 118.634C30.1501 118.818 30.0534 118.92 29.9948 119L29.9928 119.002L29.9948 119.006C30.0535 119.085 30.1499 119.188 30.3268 119.371L31.0954 120.165C31.367 120.446 31.5482 120.634 31.6989 120.764C31.8437 120.889 31.9259 120.93 31.986 120.947C32.1091 120.981 32.2393 120.98 32.362 120.945C32.422 120.928 32.504 120.887 32.6481 120.759C32.7976 120.627 32.9768 120.437 33.2458 120.153C33.5188 119.864 33.7011 119.671 33.8278 119.51C33.9497 119.356 33.99 119.269 34.0065 119.205C34.0403 119.073 34.0401 118.932 34.0065 118.8C33.9901 118.736 33.9505 118.65 33.8288 118.495C33.7023 118.334 33.5204 118.139 33.2477 117.85C32.9785 117.565 32.7987 117.374 32.6491 117.242C32.5049 117.114 32.4231 117.073 32.363 117.055Z" fill="currentColor"/>
  <path d="M27.5348 112.058C27.8426 111.98 28.1677 111.981 28.4753 112.059C28.7426 112.128 28.9636 112.265 29.1735 112.43C29.3781 112.592 29.6099 112.81 29.8854 113.071C30.1566 113.327 30.3841 113.542 30.5524 113.733C30.7252 113.929 30.8678 114.134 30.9401 114.382C31.0233 114.669 31.0257 114.973 30.946 115.26C30.8767 115.51 30.7355 115.716 30.5651 115.914C30.399 116.106 30.1723 116.324 29.904 116.584L29.11 117.351C28.9476 117.508 28.7896 117.663 28.6423 117.771C28.483 117.888 28.2745 117.999 28.0055 118C27.737 118 27.5291 117.89 27.3698 117.773C27.2222 117.665 27.064 117.51 26.9011 117.353L26.1042 116.586C25.835 116.326 25.6088 116.109 25.4421 115.917C25.2707 115.719 25.1289 115.511 25.0593 115.261C24.9791 114.973 24.9817 114.67 25.0651 114.382C25.1376 114.133 25.2803 113.927 25.4538 113.731C25.6228 113.54 25.8524 113.325 26.1247 113.068C26.4006 112.808 26.6328 112.588 26.8376 112.427C27.0474 112.262 27.2679 112.126 27.5348 112.058ZM28.2067 112.995C28.075 112.961 27.9351 112.961 27.8034 112.995C27.7392 113.011 27.6517 113.051 27.4968 113.173C27.336 113.299 27.1422 113.481 26.8532 113.754C26.568 114.022 26.3774 114.203 26.2448 114.352C26.1172 114.496 26.0749 114.578 26.0573 114.638C26.0216 114.761 26.0211 114.892 26.0553 115.015C26.0722 115.076 26.1138 115.158 26.2399 115.303C26.3707 115.454 26.5584 115.636 26.8405 115.908L27.6374 116.674C27.8208 116.851 27.9229 116.948 28.0026 117.006L28.0046 117.008L28.0075 117.006C28.0871 116.948 28.1908 116.851 28.3737 116.674L29.1677 115.906C29.4487 115.634 29.6371 115.453 29.7673 115.302C29.8924 115.157 29.9331 115.075 29.9499 115.015C29.984 114.892 29.9834 114.762 29.9479 114.639C29.9305 114.579 29.8895 114.497 29.7624 114.353C29.6304 114.204 29.4404 114.025 29.1559 113.756C28.867 113.482 28.673 113.3 28.5124 113.173C28.3579 113.052 28.2709 113.011 28.2067 112.995Z" fill="currentColor"/>
</svg>
