<svg xmlns="http://www.w3.org/2000/svg" width="16" height="16" viewBox="20.0 111.0 16.0 16.0" fill="none">
  <path d="M25.5 114C25.7215 114 25.938 113.999 26.1152 114.022C26.3068 114.048 26.5254 114.111 26.707 114.293C26.8886 114.475 26.9518 114.693 26.9775 114.885C27.0014 115.062 27 115.278 27 115.5V116H29V115.5C29 115.278 28.9986 115.062 29.0225 114.885C29.0482 114.693 29.1114 114.475 29.293 114.293C29.4746 114.111 29.6932 114.048 29.8848 114.022C30.062 113.999 30.2785 114 30.5 114H31.5C31.7215 114 31.938 113.999 32.1152 114.022C32.3068 114.048 32.5254 114.111 32.707 114.293C32.8886 114.475 32.9518 114.693 32.9775 114.885C33.0014 115.062 33 115.278 33 115.5V116.003C33.249 116.006 33.4716 116.015 33.6641 116.041C33.9918 116.085 34.3058 116.185 34.5605 116.439C34.8153 116.694 34.9149 117.008 34.959 117.336C35.0011 117.649 35 118.043 35 118.5V121.5C35 121.957 35.0011 122.351 34.959 122.664C34.9149 122.992 34.8153 123.306 34.5605 123.561C34.3058 123.815 33.9918 123.915 33.6641 123.959C33.3507 124.001 32.9573 124 32.5 124H23.5C23.0427 124 22.6493 124.001 22.3359 123.959C22.0082 123.915 21.6942 123.815 21.4395 123.561C21.1847 123.306 21.0851 122.992 21.041 122.664C21.0199 122.507 21.0099 122.33 21.0049 122.136L21 121.5V118.5C21 118.043 20.9989 117.649 21.041 117.336C21.0851 117.008 21.1847 116.694 21.4395 116.439C21.6942 116.185 22.0082 116.085 22.3359 116.041C22.5284 116.015 22.751 116.006 23 116.003V115.5C23 115.278 22.9986 115.062 23.0225 114.885C23.0482 114.693 23.1114 114.475 23.293 114.293C23.4746 114.111 23.6932 114.048 23.8848 114.022C24.062 113.999 24.2785 114 24.5 114H25.5ZM23.5 117C23.0147 117 22.7009 117.001 22.4697 117.032C22.2529 117.061 22.1846 117.108 22.1465 117.146C22.1084 117.185 22.0614 117.253 22.0322 117.47C22.0012 117.701 22 118.015 22 118.5V121.5L22.0049 122.11C22.009 122.278 22.0167 122.415 22.0322 122.53C22.0614 122.747 22.1084 122.815 22.1465 122.854C22.1845 122.892 22.2529 122.939 22.4697 122.968C22.7009 122.999 23.0147 123 23.5 123H32.5C32.9853 123 33.2991 122.999 33.5303 122.968C33.7471 122.939 33.8155 122.892 33.8535 122.854C33.8916 122.815 33.9386 122.747 33.9678 122.53C33.9988 122.299 34 121.985 34 121.5V118.5C34 118.015 33.9988 117.701 33.9678 117.47C33.9386 117.253 33.8916 117.185 33.8535 117.146C33.8155 117.108 33.7471 117.061 33.5303 117.032C33.2991 117.001 32.9853 117 32.5 117H23.5ZM24.5 115C24.2502 115 24.1127 115.001 24.0176 115.014H24.0137V115.018C24.0009 115.113 24 115.25 24 115.5V116H26V115.5C26 115.25 25.9991 115.113 25.9863 115.018L25.9854 115.014H25.9824C25.8873 115.001 25.7498 115 25.5 115H24.5ZM30.5 115C30.2502 115 30.1127 115.001 30.0176 115.014H30.0137V115.018C30.0009 115.113 30 115.25 30 115.5V116H32V115.5C32 115.25 31.9991 115.113 31.9863 115.018L31.9854 115.014H31.9824C31.8873 115.001 31.7498 115 31.5 115H30.5Z" fill="currentColor"/>
</svg>
