<svg xmlns="http://www.w3.org/2000/svg" width="16" height="16" viewBox="19.94 110.97 16.12 16.12" fill="none">
  <path d="M21.3792 118.015C21.647 117.948 21.9187 118.111 21.9857 118.379L22.8958 122.022C22.9017 122.022 22.9076 122.021 22.9134 122.021C23.1031 121.999 23.3323 122 23.5814 122H24.0003C24.3396 122 24.6447 121.999 24.89 122.032C25.1495 122.067 25.416 122.148 25.6341 122.366C25.8523 122.584 25.9332 122.851 25.9681 123.11C26.0011 123.356 26.0003 123.661 26.0003 124V125.5C26.0003 125.776 25.7765 126 25.5003 126C25.2243 126 25.0003 125.776 25.0003 125.5V124C25.0003 123.633 24.9988 123.407 24.9769 123.244C24.9569 123.095 24.9285 123.075 24.9271 123.073C24.9245 123.07 24.9007 123.043 24.7562 123.023C24.5931 123.002 24.3674 123 24.0003 123H23.5814C23.3093 123 23.1467 123.001 23.0267 123.015C22.9219 123.027 22.899 123.044 22.8948 123.047C22.8905 123.05 22.8662 123.066 22.8216 123.162C22.7707 123.272 22.7191 123.426 22.6331 123.684L21.9749 125.658C21.8876 125.92 21.604 126.062 21.3421 125.975C21.0804 125.887 20.9385 125.604 21.0257 125.342L21.6839 123.367C21.7627 123.131 21.8348 122.913 21.9154 122.74C21.9412 122.685 21.9707 122.63 22.0032 122.576L21.015 118.621C20.9482 118.353 21.1116 118.082 21.3792 118.015Z" fill="currentColor"/>
  <path d="M34.6214 118.015C34.8892 118.082 35.0525 118.353 34.9857 118.621L33.9964 122.575C34.0293 122.629 34.0592 122.684 34.0853 122.74C34.1658 122.913 34.2379 123.131 34.3167 123.367L34.9749 125.342C35.0622 125.604 34.9205 125.887 34.6585 125.975C34.3966 126.062 34.113 125.92 34.0257 125.658L33.3675 123.684C33.2815 123.426 33.23 123.272 33.179 123.162C33.1335 123.064 33.1093 123.049 33.1058 123.047C33.101 123.043 33.0772 123.026 32.9739 123.015C32.8539 123.001 32.6913 123 32.4193 123H32.0003C31.6332 123 31.4075 123.002 31.2445 123.023C31.096 123.043 31.075 123.072 31.0736 123.073C31.0706 123.076 31.0431 123.1 31.0238 123.244C31.0019 123.407 31.0003 123.633 31.0003 124V125.5C31.0003 125.776 30.7765 126 30.5003 126C30.2243 126 30.0003 125.776 30.0003 125.5V124C30.0003 123.661 29.9996 123.356 30.0325 123.11C30.0675 122.851 30.1485 122.584 30.3665 122.366C30.5846 122.148 30.8511 122.067 31.1107 122.032C31.3559 121.999 31.6611 122 32.0003 122H32.4193C32.6683 122 32.8975 121.999 33.0872 122.021C33.0926 122.021 33.0984 122.022 33.1038 122.022L34.015 118.379C34.0819 118.111 34.3537 117.948 34.6214 118.015Z" fill="currentColor"/>
  <path d="M28.0003 113.5C28.6907 113.5 29.2503 114.06 29.2503 114.75C29.2503 115.44 28.6907 116 28.0003 116C27.3101 116 26.7503 115.44 26.7503 114.75C26.7503 114.06 27.3101 113.5 28.0003 113.5Z" fill="currentColor"/>
  <path d="M29.5003 112C30.1931 112 30.7637 111.999 31.2132 112.06C31.6769 112.122 32.0864 112.258 32.4144 112.586C32.7423 112.914 32.8783 113.323 32.9407 113.787C33.0012 114.237 33.0003 114.807 33.0003 115.5C33.0003 116.193 33.0012 116.763 32.9407 117.213C32.8783 117.677 32.7423 118.086 32.4144 118.414C32.0864 118.742 31.6769 118.878 31.2132 118.94C30.7637 119.001 30.1931 119 29.5003 119H26.5003C25.8075 119 25.2369 119.001 24.7874 118.94C24.3238 118.878 23.9141 118.742 23.5863 118.414C23.2584 118.086 23.1223 117.677 23.0599 117.213C22.9995 116.763 23.0003 116.193 23.0003 115.5C23.0003 114.807 22.9995 114.237 23.0599 113.787C23.1223 113.323 23.2584 112.914 23.5863 112.586C23.9141 112.258 24.3238 112.122 24.7874 112.06C25.2369 111.999 25.8075 112 26.5003 112H29.5003ZM26.5003 113C25.7794 113 25.2885 113.001 24.9212 113.051C24.5684 113.098 24.4045 113.182 24.2933 113.293C24.1821 113.404 24.0985 113.568 24.0511 113.921C24.0017 114.288 24.0003 114.779 24.0003 115.5C24.0003 116.221 24.0017 116.712 24.0511 117.079C24.0985 117.432 24.1821 117.596 24.2933 117.707C24.4045 117.818 24.5684 117.902 24.9212 117.949C25.0984 117.973 25.3046 117.984 25.5511 117.991C25.5289 117.931 25.5109 117.869 25.5042 117.803L25.5003 117.724L25.5052 117.642C25.515 117.552 25.5431 117.442 25.6155 117.336L25.7191 117.206C26.0075 116.89 26.6481 116.5 28.0003 116.5C29.546 116.5 30.1618 117.009 30.3851 117.336C30.4817 117.477 30.5003 117.625 30.5003 117.724C30.5003 117.818 30.4813 117.908 30.4505 117.991C30.6967 117.984 30.9024 117.973 31.0794 117.949C31.4322 117.902 31.5961 117.818 31.7073 117.707C31.8186 117.596 31.9021 117.432 31.9495 117.079C31.9989 116.712 32.0003 116.221 32.0003 115.5C32.0003 114.779 31.9989 114.288 31.9495 113.921C31.9021 113.568 31.8186 113.404 31.7073 113.293C31.5961 113.182 31.4322 113.098 31.0794 113.051C30.7121 113.001 30.2212 113 29.5003 113H26.5003Z" fill="currentColor"/>
</svg>
