<svg xmlns="http://www.w3.org/2000/svg" width="16" height="16" viewBox="20.0 110.0 16.0 16.0" fill="none">
  <path d="M31.5 120C31.7761 120 32 120.224 32 120.5C32 120.776 31.7761 121 31.5 121H24.5C24.2239 121 24 120.776 24 120.5C24 120.224 24.2239 120 24.5 120H31.5Z" fill="currentColor"/>
  <path d="M31.5 117C31.7761 117 32 117.224 32 117.5C32 117.776 31.7761 118 31.5 118H24.5C24.2239 118 24 117.776 24 117.5C24 117.224 24.2239 117 24.5 117H31.5Z" fill="currentColor"/>
  <path d="M31.5 114C31.7761 114 32 114.224 32 114.5C32 114.776 31.7761 115 31.5 115H24.5C24.2239 115 24 114.776 24 114.5C24 114.224 24.2239 114 24.5 114H31.5Z" fill="currentColor"/>
  <path d="M29.5 111C30.4285 111 31.1751 110.999 31.7607 111.078C32.3608 111.159 32.8663 111.331 33.2676 111.732C33.6689 112.134 33.8412 112.639 33.9219 113.239C34.0006 113.825 34 114.572 34 115.5V120.5C34 121.428 34.0006 122.175 33.9219 122.761C33.8412 123.361 33.6689 123.866 33.2676 124.268C32.8663 124.669 32.3608 124.841 31.7607 124.922C31.1751 125.001 30.4285 125 29.5 125H26.5C25.5715 125 24.8249 125.001 24.2393 124.922C23.6392 124.841 23.1337 124.669 22.7324 124.268C22.3311 123.866 22.1588 123.361 22.0781 122.761C21.9994 122.175 22 121.428 22 120.5V115.5C22 114.572 21.9994 113.825 22.0781 113.239C22.1588 112.639 22.3311 112.134 22.7324 111.732C23.1337 111.331 23.6392 111.159 24.2393 111.078C24.8249 110.999 25.5715 111 26.5 111H29.5ZM26.5 112C25.5431 112 24.8756 112.001 24.3721 112.068C23.8829 112.134 23.624 112.255 23.4395 112.439C23.2549 112.624 23.1341 112.883 23.0684 113.372C23.0007 113.876 23 114.543 23 115.5V120.5C23 121.457 23.0007 122.124 23.0684 122.628C23.1341 123.117 23.2549 123.376 23.4395 123.561C23.624 123.745 23.8829 123.866 24.3721 123.932C24.8756 123.999 25.5431 124 26.5 124H29.5C30.4569 124 31.1244 123.999 31.6279 123.932C32.1171 123.866 32.376 123.745 32.5605 123.561C32.7451 123.376 32.8659 123.117 32.9316 122.628C32.9993 122.124 33 121.457 33 120.5V115.5C33 114.543 32.9993 113.876 32.9316 113.372C32.8659 112.883 32.7451 112.624 32.5605 112.439C32.376 112.255 32.1171 112.134 31.6279 112.068C31.1244 112.001 30.4569 112 29.5 112H26.5Z" fill="currentColor"/>
</svg>
