<svg xmlns="http://www.w3.org/2000/svg" width="16" height="16" viewBox="20.0 114.99 16.01 16.01" fill="none">
  <path d="M28 120C28.2761 120 28.5 120.224 28.5 120.5V121.05C29.0044 121.152 29.3591 121.402 29.5947 121.671C29.7425 121.84 29.8371 122.008 29.8955 122.136C29.9247 122.199 29.9458 122.254 29.96 122.296C29.967 122.317 29.9725 122.335 29.9766 122.349C29.9786 122.355 29.9811 122.362 29.9824 122.367C29.983 122.369 29.983 122.371 29.9834 122.373L29.9844 122.376V122.378L29.9854 122.379C30.0522 122.647 29.8889 122.918 29.6211 122.985C29.3539 123.052 29.0834 122.89 29.0156 122.623V122.625C29.0159 122.626 29.0164 122.627 29.0166 122.628C29.0164 122.627 29.0157 122.624 29.0137 122.618C29.0092 122.605 29.0009 122.581 28.9873 122.552C28.9598 122.492 28.9137 122.41 28.8428 122.329C28.7122 122.18 28.4708 122 28 122C27.3585 122 27 122.417 27 122.75C27 122.95 27.0615 123.064 27.1875 123.165C27.3445 123.291 27.6259 123.412 28.1016 123.511C28.6256 123.62 29.0946 123.779 29.4375 124.054C29.8113 124.353 30 124.76 30 125.25C30 126.123 29.3156 126.755 28.5 126.941V127.5C28.5 127.776 28.2761 128 28 128C27.7239 128 27.5 127.776 27.5 127.5V126.949C26.9957 126.847 26.6408 126.598 26.4053 126.329C26.2575 126.16 26.1629 125.992 26.1045 125.864C26.0753 125.8 26.0542 125.746 26.04 125.704C26.033 125.683 26.0275 125.665 26.0234 125.651C26.0214 125.644 26.0189 125.638 26.0176 125.633C26.017 125.631 26.017 125.629 26.0166 125.627L26.0156 125.624V125.622L26.0146 125.621C25.9479 125.353 26.1111 125.082 26.3789 125.015C26.6445 124.948 26.9136 125.108 26.9834 125.372C26.9836 125.373 26.9843 125.376 26.9863 125.382C26.9907 125.395 26.9991 125.419 27.0127 125.448C27.0402 125.508 27.0863 125.59 27.1572 125.671C27.2878 125.82 27.5292 126 28 126C28.6415 126 29 125.583 29 125.25C29 125.05 28.9385 124.936 28.8125 124.835C28.6555 124.709 28.3741 124.588 27.8984 124.489C27.3744 124.38 26.9054 124.221 26.5625 123.946C26.1887 123.647 26 123.24 26 122.75C26 121.876 26.6843 121.244 27.5 121.058V120.5C27.5 120.224 27.7239 120 28 120Z" fill="currentColor"/>
  <path d="M27.9121 116C28.6573 116 29.164 115.992 29.6289 116.177C30.0935 116.361 30.4561 116.714 30.998 117.225L32.5859 118.721C33.1742 119.275 33.5806 119.645 33.7949 120.142C34.0092 120.638 34 121.188 34 121.996V125.5C34 126.428 34.0006 127.175 33.9219 127.761C33.8412 128.361 33.6688 128.866 33.2676 129.268C32.8663 129.669 32.3608 129.841 31.7607 129.922C31.1751 130 30.4285 130 29.5 130H26.5C25.5715 130 24.8249 130 24.2393 129.922C23.6392 129.841 23.1337 129.669 22.7324 129.268C22.3312 128.866 22.1588 128.361 22.0781 127.761C21.9994 127.175 22 126.428 22 125.5V120.5C22 119.571 21.9994 118.825 22.0781 118.239C22.1588 117.639 22.3312 117.134 22.7324 116.732C23.1337 116.331 23.6392 116.159 24.2393 116.078C24.8249 115.999 25.5715 116 26.5 116H27.9121ZM26.5 117C25.5431 117 24.8756 117.001 24.3721 117.068C23.8829 117.134 23.624 117.255 23.4395 117.439C23.255 117.624 23.1341 117.883 23.0684 118.372C23.0007 118.876 23 119.543 23 120.5V125.5C23 126.457 23.0007 127.124 23.0684 127.628C23.1341 128.117 23.255 128.376 23.4395 128.56C23.624 128.745 23.8829 128.866 24.3721 128.932C24.8756 128.999 25.5431 129 26.5 129H29.5C30.4569 129 31.1244 128.999 31.6279 128.932C32.1171 128.866 32.376 128.745 32.5605 128.56C32.745 128.376 32.8659 128.117 32.9316 127.628C32.9993 127.124 33 126.457 33 125.5V121.996C33 121.528 32.9973 121.223 32.9785 121H30.5C29.6716 121 29 120.328 29 119.5V117.038C28.7827 117.005 28.4747 117 27.9121 117H26.5ZM30 119.5C30 119.776 30.2239 120 30.5 120H32.4678C32.3286 119.858 32.1467 119.681 31.9004 119.449L30.3125 117.953C30.1945 117.842 30.0909 117.746 30 117.662V119.5Z" fill="currentColor"/>
</svg>
