<svg xmlns="http://www.w3.org/2000/svg" width="16" height="16" viewBox="20.0 116.0 16.0 16.0" fill="none">
  <path d="M23.5 117C23.7761 117 24 117.224 24 117.5V124.5C24 125.457 24.0007 126.124 24.0684 126.628C24.1341 127.117 24.255 127.376 24.4395 127.561C24.624 127.745 24.8829 127.866 25.3721 127.932C25.8756 127.999 26.5431 128 27.5 128H34.5C34.7761 128 35 128.224 35 128.5C35 128.776 34.7761 129 34.5 129H33V130.5C33 130.776 32.7761 131 32.5 131C32.2239 131 32 130.776 32 130.5V129H27.5C26.5715 129 25.8249 129.001 25.2393 128.922C24.6392 128.841 24.1337 128.669 23.7324 128.268C23.3312 127.866 23.1588 127.361 23.0781 126.761C22.9994 126.175 23 125.428 23 124.5V120H21.5C21.2239 120 21 119.776 21 119.5C21 119.224 21.2239 119 21.5 119H23V117.5C23 117.224 23.2239 117 23.5 117Z" fill="currentColor"/>
  <path d="M28.5 119C29.4285 119 30.1751 118.999 30.7607 119.078C31.3608 119.159 31.8663 119.331 32.2676 119.732C32.6689 120.134 32.8412 120.639 32.9219 121.239C33.0006 121.825 33 122.572 33 123.5V127H32V123.5C32 122.543 31.9993 121.876 31.9316 121.372C31.8659 120.883 31.7451 120.624 31.5605 120.439C31.376 120.255 31.1171 120.134 30.6279 120.068C30.1244 120.001 29.4569 120 28.5 120H25V119H28.5Z" fill="currentColor"/>
</svg>
