<svg xmlns="http://www.w3.org/2000/svg" width="16" height="16" viewBox="20.65 111.16 15.69 15.69" fill="none">
  <path d="M28.5 112.161C29.1356 112.161 29.7206 112.419 30.3936 112.694L33.1358 113.816C33.4165 113.931 33.7019 114.046 33.9326 114.171C34.1535 114.291 34.3865 114.451 34.5801 114.696L34.6602 114.807L34.7324 114.923C34.8857 115.195 34.9454 115.471 34.9727 115.721C35.0012 115.982 35 116.289 35 116.593V121.484C35 121.793 35.0019 122.105 34.9727 122.37C34.9407 122.659 34.8639 122.984 34.6514 123.295C34.4388 123.606 34.1641 123.796 33.9063 123.931C33.6705 124.054 33.3788 124.166 33.0918 124.278L30.3203 125.362C29.6722 125.616 29.1092 125.853 28.5 125.853C27.8908 125.853 27.3278 125.616 26.6797 125.362L23.9082 124.278C23.6212 124.166 23.3295 124.054 23.0938 123.931C22.836 123.796 22.5613 123.606 22.3487 123.295C22.1361 122.984 22.0593 122.659 22.0274 122.37C21.9981 122.105 22 121.793 22 121.484V116.593C22 116.289 21.9989 115.982 22.0274 115.721C22.0585 115.435 22.1327 115.115 22.3399 114.807L22.4199 114.696C22.6135 114.451 22.8466 114.291 23.0674 114.171C23.2981 114.046 23.5836 113.931 23.8643 113.816L26.6065 112.694C27.2795 112.419 27.8644 112.161 28.5 112.161ZM23.0098 116.035C23.0032 116.19 23 116.373 23 116.593V121.484C23 122.145 22.9997 122.476 23.1739 122.731C23.348 122.986 23.656 123.107 24.2715 123.348L27.044 124.431C27.4574 124.592 27.7526 124.706 28 124.774V117.85L23.0098 116.035ZM29 117.85V124.774C29.2474 124.706 29.5426 124.592 29.9561 124.431L32.7285 123.348C33.267 123.137 33.5699 123.018 33.7539 122.821L33.8262 122.731C34.0003 122.476 34 122.145 34 121.484V116.593C34 116.373 33.9959 116.19 33.9893 116.035L29 117.85ZM28.5 113.161C28.1068 113.161 27.7328 113.313 26.9854 113.619L24.2432 114.741L23.8448 114.907C23.6704 114.983 23.5327 115.05 23.4229 115.122L28.5 116.968L33.5752 115.122C33.3925 115.002 33.1338 114.895 32.7569 114.741L30.0147 113.619C29.3607 113.352 28.9927 113.201 28.6475 113.168L28.5 113.161Z" fill="currentColor"/>
</svg>
