<svg xmlns="http://www.w3.org/2000/svg" width="16" height="16" viewBox="21.5 112.0 14.0 14.0" fill="none">
  <path d="M27 113C28.1046 113 29 113.895 29 115V117.5C29 118.052 29.4477 118.5 30 118.5C30.2761 118.5 30.5 118.724 30.5 119C30.5 119.276 30.2761 119.5 30 119.5C29.4477 119.5 29 119.948 29 120.5V123C29 124.105 28.1046 125 27 125C26.7239 125 26.5 124.776 26.5 124.5C26.5 124.224 26.7239 124 27 124C27.5523 124 28 123.552 28 123V120.5C28 119.902 28.2636 119.367 28.6797 119C28.2636 118.633 28 118.098 28 117.5V115C28 114.448 27.5523 114 27 114C26.7239 114 26.5 113.776 26.5 113.5C26.5 113.224 26.7239 113 27 113Z" fill="currentColor"/>
</svg>
