<svg xmlns="http://www.w3.org/2000/svg" width="16" height="16" viewBox="20.5 111.5 15.0 15.0" fill="none">
  <path d="M25 113C25.2761 113 25.5 113.224 25.5 113.5C25.5 113.776 25.2761 114 25 114C24.4477 114 24 114.448 24 115V117.5C24 118.098 23.7357 118.633 23.3193 119C23.7357 119.367 24 119.902 24 120.5V123C24 123.552 24.4477 124 25 124C25.2761 124 25.5 124.224 25.5 124.5C25.5 124.776 25.2761 125 25 125C23.8954 125 23 124.105 23 123V120.5C23 119.948 22.5523 119.5 22 119.5C21.7239 119.5 21.5 119.276 21.5 119C21.5 118.724 21.7239 118.5 22 118.5C22.5523 118.5 23 118.052 23 117.5V115C23 113.895 23.8954 113 25 113Z" fill="currentColor"/>
  <path d="M31 113C32.1046 113 33 113.895 33 115V117.5C33 118.052 33.4477 118.5 34 118.5C34.2761 118.5 34.5 118.724 34.5 119C34.5 119.276 34.2761 119.5 34 119.5C33.4477 119.5 33 119.948 33 120.5V123C33 124.105 32.1046 125 31 125C30.7239 125 30.5 124.776 30.5 124.5C30.5 124.224 30.7239 124 31 124C31.5523 124 32 123.552 32 123V120.5C32 119.902 32.2636 119.367 32.6797 119C32.2636 118.633 32 118.098 32 117.5V115C32 114.448 31.5523 114 31 114C30.7239 114 30.5 113.776 30.5 113.5C30.5 113.224 30.7239 113 31 113Z" fill="currentColor"/>
</svg>
