<svg xmlns="http://www.w3.org/2000/svg" width="16" height="16" viewBox="20.5 112.0 14.0 14.0" fill="none">
  <path d="M29 113C29.2761 113 29.5 113.224 29.5 113.5C29.5 113.776 29.2761 114 29 114C28.4477 114 28 114.448 28 115V117.5C28 118.098 27.7357 118.633 27.3193 119C27.7357 119.367 28 119.902 28 120.5V123C28 123.552 28.4477 124 29 124C29.2761 124 29.5 124.224 29.5 124.5C29.5 124.776 29.2761 125 29 125C27.8954 125 27 124.105 27 123V120.5C27 119.948 26.5523 119.5 26 119.5C25.7239 119.5 25.5 119.276 25.5 119C25.5 118.724 25.7239 118.5 26 118.5C26.5523 118.5 27 118.052 27 117.5V115C27 113.895 27.8954 113 29 113Z" fill="currentColor"/>
</svg>
