<svg xmlns="http://www.w3.org/2000/svg" width="16" height="16" viewBox="19.5 110.5 17.0 17.0" fill="none">
  <path d="M28 111.5C28.2761 111.5 28.5 111.724 28.5 112V113.032C29.3263 113.136 30.11 113.486 30.7207 113.967C31.444 114.537 32 115.354 32 116.25C32 116.526 31.7761 116.75 31.5 116.75C31.2239 116.75 31 116.526 31 116.25C31 115.771 30.6874 115.213 30.1016 114.752C29.5253 114.298 28.7573 114 28 114C26.2241 114 25 115.113 25 116.25C25 116.853 25.218 117.278 25.6758 117.624C26.1669 117.995 26.9517 118.285 28.0967 118.51C29.2846 118.743 30.2503 119.068 30.9258 119.578C31.6346 120.113 32 120.834 32 121.75C32 123.498 30.3849 124.778 28.5 124.973V126C28.5 126.276 28.2761 126.5 28 126.5C27.7239 126.5 27.5 126.276 27.5 126V124.967C26.6738 124.863 25.89 124.514 25.2793 124.033C24.556 123.463 24 122.646 24 121.75C24 121.474 24.2239 121.25 24.5 121.25C24.7761 121.25 25 121.474 25 121.75C25 122.229 25.3126 122.787 25.8984 123.248C26.4747 123.702 27.2427 124 28 124C29.7759 124 31 122.887 31 121.75C31 121.147 30.782 120.722 30.3242 120.376C29.8331 120.005 29.0483 119.715 27.9033 119.49C26.7154 119.257 25.7497 118.932 25.0742 118.422C24.3654 117.887 24 117.166 24 116.25C24 114.502 25.615 113.221 27.5 113.026V112C27.5 111.724 27.7239 111.5 28 111.5Z" fill="currentColor"/>
</svg>
