<svg xmlns="http://www.w3.org/2000/svg" width="16" height="16" viewBox="20.43 110.93 15.07 15.07" fill="none">
  <path d="M31.5001 115C31.7761 115 32 115.224 32.0001 115.5V116C33.1046 116 34 116.896 34.0001 118C34.0001 118.276 33.7762 118.5 33.5001 118.5C33.224 118.5 33.0001 118.276 33.0001 118C33 117.448 32.5523 117 32.0001 117H31.1846C30.5305 117 30.0002 117.531 30.0001 118.185C30.0001 118.728 30.3702 119.202 30.8975 119.334L32.3448 119.696C33.3173 119.939 34 120.813 34.0001 121.816C34 122.96 33.1201 123.896 32.0001 123.99V124.5C32.0001 124.776 31.7762 125 31.5001 125C31.224 125 31.0001 124.776 31.0001 124.5V124C29.8956 124 29.0001 123.105 29.0001 122C29.0001 121.724 29.224 121.5 29.5001 121.5C29.7761 121.5 30 121.724 30.0001 122C30.0001 122.552 30.4478 123 31.0001 123H31.8155C32.4697 123 33 122.47 33.0001 121.816C33 121.272 32.6299 120.798 32.1026 120.666L30.6553 120.304C29.6829 120.061 29.0001 119.187 29.0001 118.185C29.0002 117.04 29.8801 116.103 31.0001 116.009V115.5C31.0001 115.224 31.224 115 31.5001 115Z" fill="currentColor"/>
  <path d="M26.0938 112.208C26.255 111.984 26.568 111.933 26.792 112.094C27.016 112.255 27.0673 112.568 26.9063 112.792L25.3165 115H25.8331C26.1092 115 26.333 115.224 26.3331 115.5C26.3331 115.776 26.1092 116 25.8331 116H25.0001V117H25.8331C26.1092 117 26.333 117.224 26.3331 117.5C26.3331 117.776 26.1092 118 25.8331 118H25.0001V119.5C25.0001 119.776 24.7762 120 24.5001 120C24.224 120 24.0001 119.776 24.0001 119.5V118H23.167C22.891 118 22.667 117.776 22.667 117.5C22.6671 117.224 22.891 117 23.167 117H24.0001V116H23.167C22.891 116 22.667 115.776 22.667 115.5C22.6671 115.224 22.891 115 23.167 115H23.6837L22.0938 112.792C21.9329 112.568 21.9842 112.255 22.2081 112.094C22.4321 111.933 22.745 111.984 22.9063 112.208L24.5001 114.421L26.0938 112.208Z" fill="currentColor"/>
</svg>
