<svg xmlns="http://www.w3.org/2000/svg" width="16" height="16" viewBox="21.0 112.0 15.0 15.0" fill="none">
  <path d="M22.5 122C22.7761 122 23 122.224 23 122.5C23 122.973 23 123.303 23.0176 123.561C23.0349 123.814 23.0676 123.962 23.1143 124.074C23.2665 124.442 23.5584 124.734 23.9258 124.886C24.0384 124.932 24.1862 124.965 24.4395 124.982C24.6974 125 25.0272 125 25.5 125C25.7761 125 26 125.224 26 125.5C26 125.776 25.7761 126 25.5 126C25.0411 126 24.6719 126 24.3721 125.979C24.0677 125.959 23.7978 125.915 23.543 125.81C22.9307 125.556 22.4442 125.069 22.1904 124.457C22.0849 124.202 22.0413 123.932 22.0205 123.628C22.0001 123.328 22 122.959 22 122.5C22 122.224 22.2239 122 22.5 122Z" fill="currentColor"/>
  <path d="M29.5 125C29.7761 125 30 125.224 30 125.5C30 125.776 29.7761 126 29.5 126H27.5C27.2239 126 27 125.776 27 125.5C27 125.224 27.2239 125 27.5 125H29.5Z" fill="currentColor"/>
  <path d="M34.5 122C34.7761 122 35 122.224 35 122.5C35 122.959 34.9999 123.328 34.9795 123.628C34.9587 123.932 34.9151 124.202 34.8096 124.457C34.5558 125.069 34.0693 125.556 33.457 125.81C33.2022 125.915 32.9323 125.959 32.6279 125.979C32.3281 126 31.9589 126 31.5 126C31.2239 126 31 125.776 31 125.5C31 125.224 31.2239 125 31.5 125C31.9728 125 32.3026 125 32.5605 124.982C32.8138 124.965 32.9616 124.932 33.0742 124.886C33.4416 124.734 33.7335 124.442 33.8857 124.074C33.9324 123.962 33.9651 123.814 33.9824 123.561C34 123.303 34 122.973 34 122.5C34 122.224 34.2239 122 34.5 122Z" fill="currentColor"/>
  <path d="M30 115C31.4142 115 32.1212 115 32.5605 115.439C32.9999 115.879 33 116.586 33 118V121C33 122.414 32.9999 123.121 32.5605 123.561C32.1212 124 31.4142 124 30 124H27C25.6743 124 24.9703 124 24.5254 123.638L24.4395 123.561C24.0001 123.121 24 122.414 24 121V118C24 116.674 24.0004 115.97 24.3623 115.525L24.4395 115.439C24.769 115.11 25.2491 115.027 26.0654 115.007L27 115H30ZM27 116C26.2646 116 25.8137 116.002 25.4873 116.046C25.1897 116.086 25.1494 116.144 25.1465 116.146C25.1436 116.149 25.0859 116.19 25.0459 116.487C25.002 116.814 25 117.265 25 118V121C25 121.735 25.002 122.186 25.0459 122.513C25.0859 122.81 25.1436 122.851 25.1465 122.854C25.1494 122.856 25.1897 122.914 25.4873 122.954C25.8137 122.998 26.2646 123 27 123H30C30.7354 123 31.1863 122.998 31.5127 122.954C31.8103 122.914 31.8506 122.856 31.8535 122.854C31.8564 122.851 31.9141 122.81 31.9541 122.513C31.998 122.186 32 121.735 32 121V118C32 117.265 31.998 116.814 31.9541 116.487C31.9141 116.19 31.8564 116.149 31.8535 116.146C31.8506 116.144 31.8103 116.086 31.5127 116.046C31.1863 116.002 30.7354 116 30 116H27Z" fill="currentColor"/>
  <path d="M22.5 118C22.7761 118 23 118.224 23 118.5V120.5C23 120.776 22.7761 121 22.5 121C22.2239 121 22 120.776 22 120.5V118.5C22 118.224 22.2239 118 22.5 118Z" fill="currentColor"/>
  <path d="M34.5 118C34.7761 118 35 118.224 35 118.5V120.5C35 120.776 34.7761 121 34.5 121C34.2239 121 34 120.776 34 120.5V118.5C34 118.224 34.2239 118 34.5 118Z" fill="currentColor"/>
  <path d="M25.5 113C25.7761 113 26 113.224 26 113.5C26 113.776 25.7761 114 25.5 114C25.0272 114 24.6974 114 24.4395 114.018C24.1862 114.035 24.0384 114.068 23.9258 114.114C23.5584 114.266 23.2665 114.558 23.1143 114.926C23.0676 115.038 23.0349 115.186 23.0176 115.439C23 115.697 23 116.027 23 116.5C23 116.776 22.7761 117 22.5 117C22.2239 117 22 116.776 22 116.5C22 116.041 22.0001 115.672 22.0205 115.372C22.0413 115.068 22.0849 114.798 22.1904 114.543C22.4442 113.931 22.9307 113.444 23.543 113.19C23.7978 113.085 24.0677 113.041 24.3721 113.021C24.6719 113 25.0411 113 25.5 113Z" fill="currentColor"/>
  <path d="M31.5 113C31.9589 113 32.3281 113 32.6279 113.021C32.9323 113.041 33.2022 113.085 33.457 113.19C34.0693 113.444 34.5558 113.931 34.8096 114.543C34.9151 114.798 34.9587 115.068 34.9795 115.372C34.9999 115.672 35 116.041 35 116.5C35 116.776 34.7761 117 34.5 117C34.2239 117 34 116.776 34 116.5C34 116.027 34 115.697 33.9824 115.439C33.9651 115.186 33.9324 115.038 33.8857 114.926C33.7335 114.558 33.4416 114.266 33.0742 114.114C32.9616 114.068 32.8138 114.035 32.5605 114.018C32.3026 114 31.9728 114 31.5 114C31.2239 114 31 113.776 31 113.5C31 113.224 31.2239 113 31.5 113Z" fill="currentColor"/>
  <path d="M29.5 113C29.7761 113 30 113.224 30 113.5C30 113.776 29.7761 114 29.5 114H27.5C27.2239 114 27 113.776 27 113.5C27 113.224 27.2239 113 27.5 113H29.5Z" fill="currentColor"/>
</svg>
