<svg xmlns="http://www.w3.org/2000/svg" width="16" height="16" viewBox="20.5 111.0 17.0 17.0" fill="none">
  <path d="M31.5 120C31.776 120 32 120.224 32 120.5V123.293L33.1465 122.146C33.3417 121.951 33.6583 121.951 33.8535 122.146C34.0486 122.342 34.0486 122.658 33.8535 122.854L31.8535 124.854C31.6827 125.024 31.4186 125.046 31.2246 124.918L31.1465 124.854L29.1465 122.854C28.9514 122.658 28.9514 122.342 29.1465 122.146C29.3417 121.951 29.6583 121.951 29.8535 122.146L31 123.293V120.5C31 120.224 31.224 120 31.5 120Z" fill="currentColor"/>
  <path d="M31.5 118C33.9853 118 36 120.015 36 122.5C36 124.985 33.9853 127 31.5 127C29.0147 127 27 124.985 27 122.5C27 120.015 29.0147 118 31.5 118ZM31.5 119C29.567 119 28 120.567 28 122.5C28 124.433 29.567 126 31.5 126C33.433 126 35 124.433 35 122.5C35 120.567 33.433 119 31.5 119Z" fill="currentColor"/>
  <path d="M28 112C29.5733 112 31.0217 112.289 32.0957 112.777C33.1246 113.245 34 113.993 34 115V117.601C33.6832 117.439 33.3487 117.307 33 117.208V116.697C32.8142 116.836 32.6096 116.96 32.3955 117.073C32.104 117.026 31.805 117 31.5 117C30.3284 117 29.2428 117.367 28.3506 117.991C28.2345 117.994 28.1176 118 28 118C26.4267 118 24.9783 117.711 23.9043 117.223C23.58 117.075 23.2711 116.9 23 116.697V119C23 119.374 23.3559 119.875 24.3174 120.312C24.8464 120.553 25.5042 120.742 26.2471 120.861C26.149 121.176 26.0803 121.504 26.04 121.84C25.2387 121.707 24.5114 121.499 23.9043 121.223C23.58 121.075 23.2711 120.9 23 120.697V123C23 123.374 23.3559 123.875 24.3174 124.312C24.9179 124.585 25.6841 124.794 26.5527 124.906C26.7393 125.289 26.9697 125.647 27.2363 125.974C25.9613 125.896 24.8019 125.631 23.9043 125.223C22.8754 124.755 22 124.007 22 123V115C22 113.993 22.8754 113.245 23.9043 112.777C24.9783 112.289 26.4267 112 28 112ZM28 113C26.5358 113 25.234 113.271 24.3174 113.688C23.3559 114.125 23 114.626 23 115C23 115.374 23.3559 115.875 24.3174 116.312C25.234 116.729 26.5358 117 28 117C29.4642 117 30.766 116.729 31.6826 116.312C32.6441 115.875 33 115.374 33 115C33 114.626 32.6441 114.125 31.6826 113.688C30.766 113.271 29.4642 113 28 113Z" fill="currentColor"/>
</svg>
