<svg xmlns="http://www.w3.org/2000/svg" width="16" height="16" viewBox="20.53 111.0 17.0 17.0" fill="none">
  <path d="M31.5 123.875C31.845 123.875 32.125 124.155 32.125 124.5C32.125 124.845 31.845 125.125 31.5 125.125C31.155 125.125 30.875 124.845 30.875 124.5C30.875 124.155 31.155 123.875 31.5 123.875Z" fill="currentColor"/>
  <path d="M31.5 120C31.776 120 32 120.224 32 120.5V122.5C32 122.776 31.776 123 31.5 123C31.224 123 31 122.776 31 122.5V120.5C31 120.224 31.224 120 31.5 120Z" fill="currentColor"/>
  <path d="M31.5 118.025C32.0606 118.026 32.4419 118.395 32.7383 118.815C33.0363 119.238 33.3483 119.856 33.7305 120.611L35.127 123.371C35.4483 124.006 35.716 124.534 35.8584 124.962C36.003 125.397 36.0629 125.858 35.8008 126.285C35.5384 126.712 35.0989 126.867 34.6455 126.935C34.1993 127.001 33.608 127 32.8965 127H30.1035C29.3918 127 28.7998 127.001 28.3535 126.935C27.9003 126.867 27.4605 126.712 27.1982 126.285C26.9363 125.859 26.9961 125.397 27.1406 124.962C27.283 124.534 27.5507 124.006 27.8721 123.371L29.2686 120.611C29.6507 119.856 29.9627 119.238 30.2607 118.815C30.5571 118.395 30.9393 118.026 31.5 118.025ZM31.5 119.025C31.446 119.025 31.3246 119.042 31.0781 119.392C30.8327 119.74 30.5586 120.277 30.1611 121.062L28.7646 123.822C28.4282 124.487 28.2032 124.936 28.0898 125.277C27.979 125.611 28.0204 125.712 28.0508 125.762C28.0812 125.811 28.1532 125.895 28.501 125.946C28.8563 125.999 29.3587 126 30.1035 126H32.8965C33.6413 126 34.1437 125.999 34.499 125.946C34.8466 125.895 34.9188 125.811 34.9492 125.762C34.9796 125.712 35.0209 125.611 34.9102 125.277C34.7968 124.936 34.5709 124.487 34.2344 123.822L32.8379 121.062C32.4404 120.277 32.1664 119.74 31.9209 119.392C31.6745 119.042 31.554 119.025 31.5 119.025Z" fill="currentColor"/>
  <path d="M28 112C29.5733 112 31.0217 112.289 32.0957 112.777C33.1246 113.245 34 113.993 34 115V118.966C33.8507 118.696 33.7041 118.449 33.5557 118.238C33.4195 118.045 33.2359 117.818 33 117.611V116.697C32.7695 116.869 32.5106 117.02 32.2393 117.152C32.073 117.093 31.892 117.05 31.6953 117.033L31.5 117.025C30.6763 117.026 30.1061 117.456 29.7295 117.878C29.1803 117.957 28.5993 118 28 118C26.4267 118 24.9783 117.711 23.9043 117.223C23.58 117.075 23.2711 116.9 23 116.697V119C23 119.374 23.3559 119.875 24.3174 120.312C25.224 120.725 26.5074 120.992 27.9521 120.998L27.4521 121.986C26.0922 121.928 24.8524 121.654 23.9043 121.223C23.58 121.075 23.2711 120.9 23 120.697V123C23 123.374 23.3559 123.875 24.3174 124.312C24.8189 124.54 25.4362 124.722 26.1318 124.842C26.0526 125.127 25.9957 125.471 26.0273 125.838C25.2311 125.705 24.5082 125.497 23.9043 125.223C22.8754 124.755 22 124.007 22 123V115C22 113.993 22.8754 113.245 23.9043 112.777C24.9783 112.289 26.4267 112 28 112ZM28 113C26.5358 113 25.234 113.271 24.3174 113.688C23.3559 114.125 23 114.626 23 115C23 115.374 23.3559 115.875 24.3174 116.312C25.234 116.729 26.5358 117 28 117C29.4642 117 30.766 116.729 31.6826 116.312C32.6441 115.875 33 115.374 33 115C33 114.626 32.6441 114.125 31.6826 113.688C30.766 113.271 29.4642 113 28 113Z" fill="currentColor"/>
</svg>
