<svg xmlns="http://www.w3.org/2000/svg" width="16" height="16" viewBox="20.5 111.0 17.0 17.0" fill="none">
  <path d="M30.8242 120.003C30.9282 120.006 31.0266 120.011 31.1152 120.022C31.3068 120.048 31.5254 120.111 31.707 120.293C31.8886 120.475 31.9518 120.693 31.9775 120.885C32.0014 121.062 32 121.278 32 121.5V123H33.5C33.7215 123 33.938 122.999 34.1152 123.022C34.283 123.045 34.4715 123.096 34.6377 123.23L34.707 123.293L34.7695 123.362C34.9038 123.529 34.955 123.717 34.9775 123.885C35.0014 124.062 35 124.278 35 124.5V125.5C35 125.722 35.0014 125.938 34.9775 126.115C34.9518 126.307 34.8886 126.525 34.707 126.707C34.5254 126.889 34.3068 126.952 34.1152 126.978C33.938 127.001 33.7215 127 33.5 127H29.5C29.2785 127 29.062 127.001 28.8848 126.978C28.6932 126.952 28.4746 126.889 28.293 126.707C28.1114 126.525 28.0482 126.307 28.0225 126.115C27.9986 125.938 28 125.722 28 125.5V121.5C28 121.278 27.9986 121.062 28.0225 120.885C28.0482 120.693 28.1114 120.475 28.293 120.293C28.4746 120.111 28.6932 120.048 28.8848 120.022C29.062 119.999 29.2785 120 29.5 120H30.5L30.8242 120.003ZM29 125.5C29 125.75 29.0009 125.887 29.0137 125.982V125.985L29.0176 125.986C29.1127 125.999 29.2502 126 29.5 126H31V124H29V125.5ZM32 126H33.5C33.7498 126 33.8873 125.999 33.9824 125.986L33.9854 125.985L33.9863 125.982C33.9991 125.887 34 125.75 34 125.5V124.5C34 124.25 33.9991 124.113 33.9863 124.018L33.9854 124.014H33.9824C33.8873 124.001 33.7498 124 33.5 124H32V126ZM29.5 121C29.2502 121 29.1127 121.001 29.0176 121.014H29.0137V121.018C29.0009 121.113 29 121.25 29 121.5V123H31V121.5C31 121.25 30.9991 121.113 30.9863 121.018L30.9854 121.014H30.9824C30.9348 121.007 30.8763 121.004 30.7988 121.002L30.5 121H29.5Z" fill="currentColor"/>
  <path d="M28 112C29.5733 112 31.0217 112.289 32.0957 112.777C33.1246 113.245 34 113.993 34 115V118.009C33.9166 118.013 33.8325 118.02 33.752 118.031C33.5506 118.058 33.2778 118.12 33 118.274V116.697C32.7289 116.9 32.42 117.075 32.0957 117.223C31.0217 117.711 29.5733 118 28 118C26.4267 118 24.9783 117.711 23.9043 117.223C23.58 117.075 23.2711 116.9 23 116.697V119C23 119.374 23.3559 119.875 24.3174 120.312C25.0215 120.633 25.953 120.865 27.0107 120.956C27.0041 121.056 27.001 121.156 27 121.249V121.957C25.8183 121.862 24.7461 121.605 23.9043 121.223C23.58 121.075 23.2711 120.9 23 120.697V123C23 123.374 23.3559 123.875 24.3174 124.312C25.0191 124.631 25.9467 124.863 27 124.955V125.5C27 125.623 26.9989 125.788 27.0068 125.958C25.8224 125.864 24.7478 125.606 23.9043 125.223C22.8754 124.755 22 124.007 22 123V115C22 113.993 22.8754 113.245 23.9043 112.777C24.9783 112.289 26.4267 112 28 112ZM28 113C26.5358 113 25.234 113.271 24.3174 113.688C23.3559 114.125 23 114.626 23 115C23 115.374 23.3559 115.875 24.3174 116.312C25.234 116.729 26.5358 117 28 117C29.4642 117 30.766 116.729 31.6826 116.312C32.6441 115.875 33 115.374 33 115C33 114.626 32.6441 114.125 31.6826 113.688C30.766 113.271 29.4642 113 28 113Z" fill="currentColor"/>
  <path d="M34.5 119C34.7215 119 34.938 118.999 35.1152 119.022C35.3068 119.048 35.5254 119.111 35.707 119.293C35.8886 119.475 35.9518 119.693 35.9775 119.885C36.0014 120.062 36 120.278 36 120.5C36 120.722 36.0014 120.938 35.9775 121.115C35.9518 121.307 35.8886 121.525 35.707 121.707C35.5254 121.889 35.3068 121.952 35.1152 121.978C34.938 122.001 34.7215 122 34.5 122C34.2785 122 34.062 122.001 33.8848 121.978C33.6932 121.952 33.4746 121.889 33.293 121.707C33.1114 121.525 33.0482 121.307 33.0225 121.115C32.9986 120.938 33 120.722 33 120.5C33 120.278 32.9986 120.062 33.0225 119.885C33.0482 119.693 33.1114 119.475 33.293 119.293C33.4746 119.111 33.6932 119.048 33.8848 119.022C34.062 118.999 34.2785 119 34.5 119ZM34.5 120C34.2502 120 34.1127 120.001 34.0176 120.014H34.0137V120.018C34.0009 120.113 34 120.25 34 120.5C34 120.75 34.0009 120.887 34.0137 120.982V120.985L34.0176 120.986C34.1127 120.999 34.2502 121 34.5 121C34.7498 121 34.8873 120.999 34.9824 120.986L34.9854 120.985L34.9863 120.982C34.9991 120.887 35 120.75 35 120.5C35 120.25 34.9991 120.113 34.9863 120.018L34.9854 120.014H34.9824C34.8873 120.001 34.7498 120 34.5 120Z" fill="currentColor"/>
</svg>
