<svg xmlns="http://www.w3.org/2000/svg" width="16" height="16" viewBox="20.5 111.0 17.0 17.0" fill="none">
  <path d="M32.5 118C33.193 118 33.7634 117.999 34.2129 118.06C34.6766 118.122 35.0861 118.258 35.4141 118.586C35.742 118.914 35.878 119.323 35.9404 119.787C36.0009 120.237 36 120.807 36 121.5V124.6H35.9961C35.9922 124.804 35.9846 124.987 35.9688 125.15C35.9364 125.484 35.8667 125.789 35.6934 126.064C35.5336 126.319 35.3186 126.534 35.0645 126.693C34.7886 126.867 34.4841 126.936 34.1504 126.969C33.8244 127 33.4199 127 32.9287 127H30.5C29.6716 127 29 126.328 29 125.5V121.5C29 120.807 28.9991 120.237 29.0596 119.787C29.122 119.323 29.258 118.914 29.5859 118.586C29.9139 118.258 30.3234 118.122 30.7871 118.06C31.2366 117.999 31.807 118 32.5 118ZM34.9902 124.735C34.7986 124.842 34.5944 124.902 34.376 124.938C34.3023 124.951 34.2272 124.961 34.1504 124.969C33.8244 125 33.4199 125 32.9287 125H30.5C30.3714 125 30.2546 125.049 30.166 125.129C30.1583 125.136 30.1508 125.143 30.1436 125.15C30.0551 125.241 30 125.364 30 125.5C30 125.776 30.2239 126 30.5 126H32.9287C33.4397 126 33.7871 125.999 34.0537 125.974C34.3126 125.949 34.4423 125.903 34.5322 125.847C34.6593 125.767 34.7668 125.659 34.8467 125.532C34.9032 125.442 34.9485 125.313 34.9736 125.054C34.9828 124.959 34.9863 124.854 34.9902 124.735ZM30.9209 119.051C30.5679 119.098 30.4043 119.182 30.293 119.293C30.1817 119.404 30.0983 119.568 30.0508 119.921C30.0014 120.288 30 120.779 30 121.5V124.087C30.1148 124.046 30.2356 124.018 30.3613 124.007C30.4069 124.002 30.4532 124 30.5 124H31V119.043C30.9731 119.046 30.9466 119.047 30.9209 119.051ZM32 119.003V124H32.9287L33.583 123.996C33.6748 123.994 33.759 123.992 33.8369 123.988C33.9151 123.985 33.987 123.98 34.0537 123.974C34.3126 123.949 34.4423 123.903 34.5322 123.847C34.6593 123.767 34.7668 123.659 34.8467 123.532C34.9032 123.442 34.9485 123.313 34.9736 123.054C34.9866 122.92 34.9927 122.767 34.9961 122.583L35 121.929V121.5C35 120.779 34.9986 120.288 34.9492 119.921C34.9017 119.568 34.8183 119.404 34.707 119.293C34.5957 119.182 34.4321 119.098 34.0791 119.051C33.7117 119.001 33.2212 119 32.5 119C32.3194 119 32.1533 119.002 32 119.003Z" fill="currentColor"/>
  <path d="M28 112C29.5733 112 31.0217 112.289 32.0957 112.777C33.1246 113.245 34 113.993 34 115V117.034C33.6893 117.011 33.3507 117.006 33 117.004V116.697C32.8536 116.807 32.6952 116.907 32.5303 117C32.5202 117 32.5101 117 32.5 117C31.8353 117 31.1859 116.997 30.6543 117.068C30.0795 117.146 29.4237 117.334 28.8789 117.879C28.849 117.909 28.8227 117.941 28.7949 117.972C28.5344 117.988 28.2691 118 28 118C26.4267 118 24.9783 117.711 23.9043 117.223C23.58 117.075 23.2711 116.9 23 116.697V119C23 119.374 23.3559 119.875 24.3174 120.312C25.234 120.729 26.5358 121 28 121L28.0039 120.999C28.003 121.164 28 121.331 28 121.5V122C26.4267 122 24.9783 121.711 23.9043 121.223C23.58 121.075 23.2711 120.9 23 120.697V123C23 123.374 23.3559 123.875 24.3174 124.312C25.234 124.729 26.5358 125 28 125C28 125.073 28.0065 125.145 28.0166 125.215C28.006 125.308 28 125.404 28 125.5C28 125.671 28.0173 125.837 28.0498 125.998C28.0332 125.998 28.0166 126 28 126C26.4267 126 24.9783 125.711 23.9043 125.223C22.8754 124.755 22 124.007 22 123V115C22 113.993 22.8754 113.245 23.9043 112.777C24.9783 112.289 26.4267 112 28 112ZM28 113C26.5358 113 25.234 113.271 24.3174 113.688C23.3559 114.125 23 114.626 23 115C23 115.374 23.3559 115.875 24.3174 116.312C25.234 116.729 26.5358 117 28 117C29.4642 117 30.766 116.729 31.6826 116.312C32.6441 115.875 33 115.374 33 115C33 114.626 32.6441 114.125 31.6826 113.688C30.766 113.271 29.4642 113 28 113Z" fill="currentColor"/>
</svg>
