<svg xmlns="http://www.w3.org/2000/svg" width="16" height="16" viewBox="20.0 112.0 16.0 16.0" fill="none">
  <path d="M28 113C29.5733 113 31.0217 113.289 32.0957 113.777C33.1246 114.245 34 114.993 34 116V124C34 125.007 33.1246 125.755 32.0957 126.223C31.0217 126.711 29.5733 127 28 127C26.4267 127 24.9783 126.711 23.9043 126.223C22.8754 125.755 22 125.007 22 124V116C22 114.993 22.8754 114.245 23.9043 113.777C24.9783 113.289 26.4267 113 28 113ZM33 121.697C32.7289 121.9 32.42 122.075 32.0957 122.223C31.0217 122.711 29.5733 123 28 123C26.4267 123 24.9783 122.711 23.9043 122.223C23.58 122.075 23.2711 121.9 23 121.697V124C23 124.374 23.3559 124.875 24.3174 125.312C25.234 125.729 26.5358 126 28 126C29.4642 126 30.766 125.729 31.6826 125.312C32.6441 124.875 33 124.374 33 124V121.697ZM33 117.697C32.7289 117.9 32.42 118.075 32.0957 118.223C31.0217 118.711 29.5733 119 28 119C26.4267 119 24.9783 118.711 23.9043 118.223C23.58 118.075 23.2711 117.9 23 117.697V120C23 120.374 23.3559 120.875 24.3174 121.312C25.234 121.729 26.5358 122 28 122C29.4642 122 30.766 121.729 31.6826 121.312C32.6441 120.875 33 120.374 33 120V117.697ZM28 114C26.5358 114 25.234 114.271 24.3174 114.688C23.3559 115.125 23 115.626 23 116C23 116.374 23.3559 116.875 24.3174 117.312C25.234 117.729 26.5358 118 28 118C29.4642 118 30.766 117.729 31.6826 117.312C32.6441 116.875 33 116.374 33 116C33 115.626 32.6441 115.125 31.6826 114.688C30.766 114.271 29.4642 114 28 114Z" fill="currentColor"/>
</svg>
