<svg xmlns="http://www.w3.org/2000/svg" width="16" height="16" viewBox="19.0 111.0 17.0 17.0" fill="none">
  <path d="M25.9785 118C26.4017 118 26.7763 117.999 27.0586 118.04C27.3018 118.076 27.6122 118.161 27.8086 118.43L27.8857 118.557L27.9395 118.694C28.0341 119.014 27.9133 119.312 27.7939 119.527C27.6554 119.777 27.4268 120.074 27.1699 120.41L26.7197 121L27.1699 121.59C27.4268 121.926 27.6554 122.223 27.7939 122.473C27.9303 122.718 28.0687 123.073 27.8857 123.443C27.7027 123.813 27.3367 123.919 27.0586 123.96C26.7762 124.001 26.4009 124 25.9775 124H21V126.5C21 126.776 20.7761 127 20.5 127C20.2239 127 20 126.776 20 126.5V121.5C20 120.807 19.9991 120.237 20.0596 119.787C20.122 119.323 20.258 118.914 20.5859 118.586C20.9139 118.258 21.3234 118.122 21.7871 118.06C22.2366 117.999 22.8071 118 23.5 118H25.9785ZM23.5 119C22.7789 119 22.2883 119.001 21.9209 119.051C21.5679 119.098 21.4043 119.182 21.293 119.293C21.1817 119.404 21.0982 119.568 21.0508 119.921C21.0014 120.288 21 120.779 21 121.5V123H25.9775C26.4351 123 26.7216 122.999 26.9141 122.971C26.9175 122.97 26.9206 122.968 26.9238 122.968C26.9222 122.965 26.9216 122.961 26.9199 122.958C26.8255 122.788 26.6526 122.56 26.375 122.196L25.6934 121.304C25.5565 121.125 25.5565 120.875 25.6934 120.696L26.376 119.804C26.6535 119.44 26.8255 119.212 26.9199 119.042C26.9218 119.039 26.9221 119.034 26.9238 119.031C26.9206 119.031 26.9174 119.03 26.9141 119.029C26.7217 119.001 26.4358 119 25.9785 119H23.5Z" fill="currentColor"/>
  <path d="M29 112C30.5733 112 32.0217 112.289 33.0957 112.777C34.1246 113.245 35 113.993 35 115V123C35 124.007 34.1246 124.755 33.0957 125.223C32.0217 125.711 30.5733 126 29 126C27.4267 126 25.9783 125.711 24.9043 125.223C24.7546 125.155 24.6087 125.08 24.4678 125H25.9775L26.5977 124.995C26.8086 124.989 27.0172 124.976 27.2031 124.949C27.2744 124.939 27.3641 124.921 27.4658 124.896C27.9481 124.963 28.4631 125 29 125C30.4642 125 31.766 124.729 32.6826 124.312C33.6441 123.875 34 123.374 34 123V120.697C33.7289 120.9 33.42 121.075 33.0957 121.223C32.0217 121.711 30.5733 122 29 122C28.8893 122 28.7793 121.995 28.6699 121.992L28.668 121.987C28.4886 121.664 28.2108 121.307 27.9766 121C27.9875 120.986 27.9977 120.971 28.0088 120.956C28.3286 120.984 28.6599 121 29 121C30.4642 121 31.766 120.729 32.6826 120.312C33.6441 119.875 34 119.374 34 119V116.697C33.7289 116.9 33.42 117.075 33.0957 117.223C32.0217 117.711 30.5733 118 29 118C28.9038 118 28.8081 117.995 28.7129 117.993L28.6631 117.91L28.6152 117.839L28.5303 117.731C28.0919 117.217 27.4945 117.093 27.2031 117.051C26.8313 116.996 26.369 117 25.9785 117H24.4688C24.3041 116.907 24.1462 116.806 24 116.697V117H23.5C23.3317 117 23.1645 117.003 23 117.004V115C23 113.993 23.8754 113.245 24.9043 112.777C25.9783 112.289 27.4267 112 29 112ZM29 113C27.5358 113 26.234 113.271 25.3174 113.688C24.3559 114.125 24 114.626 24 115C24 115.374 24.3559 115.875 25.3174 116.312C26.234 116.729 27.5358 117 29 117C30.4642 117 31.766 116.729 32.6826 116.312C33.6441 115.875 34 115.374 34 115C34 114.626 33.6441 114.125 32.6826 113.688C31.766 113.271 30.4642 113 29 113Z" fill="currentColor"/>
</svg>
