<svg xmlns="http://www.w3.org/2000/svg" width="16" height="16" viewBox="20.5 111.0 17.14 17.14" fill="none">
  <path d="M30.5098 118.408C31.0565 117.861 31.9435 117.861 32.4902 118.408L35.5928 121.51C36.1392 122.056 36.1392 122.944 35.5928 123.49L32.4902 126.592C31.9435 127.139 31.0565 127.139 30.5098 126.592L27.4082 123.49C26.8615 122.944 26.8615 122.056 27.4082 121.51L30.5098 118.408ZM31.7832 119.115C31.627 118.959 31.373 118.959 31.2168 119.115L28.1152 122.217C27.959 122.373 27.959 122.627 28.1152 122.783L31.2168 125.885C31.373 126.041 31.627 126.041 31.7832 125.885L34.8848 122.783C35.041 122.627 35.041 122.373 34.8848 122.217L31.7832 119.115Z" fill="currentColor"/>
  <path d="M28 112C29.5733 112 31.0217 112.289 32.0957 112.777C33.1246 113.245 34 113.993 34 115V118.503L33.1973 117.701C33.1341 117.638 33.0681 117.579 33 117.524V116.697C32.7819 116.86 32.5385 117.003 32.2832 117.131C31.4427 116.841 30.4737 117.03 29.8027 117.701L29.6094 117.894C29.0957 117.962 28.5558 118 28 118C26.4267 118 24.9783 117.711 23.9043 117.223C23.58 117.075 23.2711 116.9 23 116.697V119C23 119.374 23.3559 119.875 24.3174 120.312C24.9291 120.591 25.7128 120.801 26.6016 120.912C26.3555 121.19 26.184 121.51 26.0889 121.848C25.2683 121.716 24.5237 121.504 23.9043 121.223C23.58 121.075 23.2711 120.9 23 120.697V123C23 123.374 23.3559 123.875 24.3174 124.312C25.1263 124.68 26.2354 124.933 27.4912 124.987L28.4922 125.988C28.3297 125.995 28.1656 126 28 126C26.4267 126 24.9783 125.711 23.9043 125.223C22.8754 124.755 22 124.007 22 123V115C22 113.993 22.8754 113.245 23.9043 112.777C24.9783 112.289 26.4267 112 28 112ZM28 113C26.5358 113 25.234 113.271 24.3174 113.688C23.3559 114.125 23 114.626 23 115C23 115.374 23.3559 115.875 24.3174 116.312C25.234 116.729 26.5358 117 28 117C29.4642 117 30.766 116.729 31.6826 116.312C32.6441 115.875 33 115.374 33 115C33 114.626 32.6441 114.125 31.6826 113.688C30.766 113.271 29.4642 113 28 113Z" fill="currentColor"/>
</svg>
