<svg xmlns="http://www.w3.org/2000/svg" width="16" height="16" viewBox="18.48 111.0 17.05 17.05" fill="none">
  <path d="M23.5 118C25.433 118 27 119.567 27 121.5C27 122.286 26.7403 123.011 26.3027 123.596L28.8535 126.146C29.0488 126.342 29.0488 126.658 28.8535 126.854C28.6583 127.049 28.3417 127.049 28.1465 126.854L25.5957 124.303C25.0114 124.74 24.2862 125 23.5 125C21.567 125 20 123.433 20 121.5C20 119.567 21.567 118 23.5 118ZM23.5 119C22.1193 119 21 120.119 21 121.5C21 122.881 22.1193 124 23.5 124C24.8807 124 26 122.881 26 121.5C26 120.119 24.8807 119 23.5 119Z" fill="currentColor"/>
  <path d="M28 112C29.5733 112 31.0217 112.289 32.0957 112.777C33.1246 113.245 34 113.993 34 115V123C34 124.007 33.1246 124.755 32.0957 125.223C31.4618 125.511 30.697 125.726 29.8535 125.857C29.7819 125.707 29.6854 125.564 29.5605 125.439L29.0713 124.95C30.0952 124.854 30.9968 124.624 31.6826 124.312C32.6441 123.875 33 123.374 33 123V120.697C32.7289 120.9 32.42 121.075 32.0957 121.223C31.0217 121.711 29.5733 122 28 122C27.9906 122 27.9811 121.999 27.9717 121.999C27.9899 121.835 28 121.669 28 121.5C28 121.331 27.9889 121.164 27.9707 120.999C27.9805 120.999 27.9902 121 28 121C29.4642 121 30.766 120.729 31.6826 120.312C32.6441 119.875 33 119.374 33 119V116.697C32.7289 116.9 32.42 117.075 32.0957 117.223C31.0217 117.711 29.5733 118 28 118C27.3528 118 26.7272 117.948 26.1396 117.856C25.398 117.318 24.4864 117 23.5 117C23.4899 117 23.4798 117 23.4697 117C23.3048 116.907 23.1464 116.807 23 116.697V117.028C22.6532 117.067 22.3185 117.144 22 117.257V115C22 113.993 22.8754 113.245 23.9043 112.777C24.9783 112.289 26.4267 112 28 112ZM28 113C26.5358 113 25.234 113.271 24.3174 113.688C23.3559 114.125 23 114.626 23 115C23 115.374 23.3559 115.875 24.3174 116.312C25.234 116.729 26.5358 117 28 117C29.4642 117 30.766 116.729 31.6826 116.312C32.6441 115.875 33 115.374 33 115C33 114.626 32.6441 114.125 31.6826 113.688C30.766 113.271 29.4642 113 28 113Z" fill="currentColor"/>
</svg>
