<svg xmlns="http://www.w3.org/2000/svg" width="16" height="16" viewBox="20.0 110.5 17.0 17.0" fill="none">
  <path d="M31.1465 119.146C31.3417 118.951 31.6583 118.951 31.8535 119.146L33.8535 121.146C34.0243 121.317 34.046 121.581 33.918 121.775L33.8535 121.854L31.8535 123.854C31.6583 124.049 31.3417 124.049 31.1465 123.854C30.9513 123.658 30.9513 123.342 31.1465 123.146L32.293 122H29.5C29.2239 122 29.0001 121.776 29 121.5C29.0001 121.224 29.2239 121 29.5 121H32.293L31.1465 119.854C30.9513 119.658 30.9513 119.342 31.1465 119.146Z" fill="currentColor"/>
  <path d="M31.5 117C33.9853 117 36 119.015 36 121.5C36 123.985 33.9853 126 31.5 126C29.0147 126 27 123.985 27 121.5C27 119.015 29.0147 117 31.5 117ZM31.5 118C29.567 118 28 119.567 28 121.5C28 123.433 29.567 125 31.5 125C33.433 125 35 123.433 35 121.5C35 119.567 33.433 118 31.5 118Z" fill="currentColor"/>
  <path d="M22 118C22.5523 118 23 118.448 23 119C23 119.552 22.5523 120 22 120C21.4477 120 21 119.552 21 119C21 118.448 21.4477 118 22 118Z" fill="currentColor"/>
  <path d="M26.5 112C27.8807 112 29 113.119 29 114.5V116.601C28.6424 116.783 28.307 117.003 28 117.257V114.5C28 113.672 27.3284 113 26.5 113C25.6716 113 25 113.672 25 114.5V117.5C25 118.328 25.6716 119 26.5 119C26.5348 119 26.5693 118.996 26.6035 118.994C26.4429 119.307 26.3116 119.638 26.2129 119.982C24.9675 119.84 24 118.784 24 117.5V114.5C24 113.119 25.1193 112 26.5 112Z" fill="currentColor"/>
  <path d="M32.5 112C33.8807 112 35 113.119 35 114.5V117.257C34.693 117.003 34.3576 116.783 34 116.601V114.5C34 113.672 33.3284 113 32.5 113C31.6716 113 31 113.672 31 114.5V116.023C30.6565 116.054 30.3223 116.117 30 116.208V114.5C30 113.119 31.1193 112 32.5 112Z" fill="currentColor"/>
</svg>
