<svg xmlns="http://www.w3.org/2000/svg" width="16" height="16" viewBox="21.0 111.0 17.0 17.0" fill="none">
  <path d="M33.5 122C33.7761 122 34 122.224 34 122.5C34 122.776 33.7761 123 33.5 123H29.5C29.2239 123 29 122.776 29 122.5C29 122.224 29.2239 122 29.5 122H33.5Z" fill="currentColor"/>
  <path d="M31.5 118C33.9853 118 36 120.015 36 122.5C36 124.985 33.9853 127 31.5 127C29.0147 127 27 124.985 27 122.5C27 120.015 29.0147 118 31.5 118ZM31.5 119C29.567 119 28 120.567 28 122.5C28 124.433 29.567 126 31.5 126C33.433 126 35 124.433 35 122.5C35 120.567 33.433 119 31.5 119Z" fill="currentColor"/>
  <path d="M26.5 112C27.193 112 27.7634 111.999 28.2129 112.06C28.6766 112.122 29.0861 112.258 29.4141 112.586C29.742 112.914 29.878 113.323 29.9404 113.787C30.0009 114.237 30 114.807 30 115.5V117.208C29.6513 117.307 29.3168 117.439 29 117.601V115.5C29 114.779 28.9986 114.288 28.9492 113.921C28.9018 113.568 28.8183 113.404 28.707 113.293C28.5957 113.182 28.4321 113.098 28.0791 113.051C27.7117 113.001 27.2212 113 26.5 113C25.7788 113 25.2883 113.001 24.9209 113.051C24.5679 113.098 24.4043 113.182 24.293 113.293C24.1817 113.404 24.0982 113.568 24.0508 113.921C24.0014 114.288 24 114.779 24 115.5V122.5C24 123.221 24.0014 123.712 24.0508 124.079C24.0982 124.432 24.1817 124.596 24.293 124.707C24.4043 124.818 24.5679 124.902 24.9209 124.949C25.2883 124.999 25.7788 125 26.5 125C26.534 125 26.5676 124.999 26.6006 124.999C26.7824 125.355 27.0011 125.688 27.2529 125.994C27.0204 125.998 26.7695 126 26.5 126C25.807 126 25.2366 126.001 24.7871 125.94C24.3234 125.878 23.9139 125.742 23.5859 125.414C23.258 125.086 23.122 124.677 23.0596 124.213C22.9991 123.763 23 123.193 23 122.5V115.5C23 114.807 22.9991 114.237 23.0596 113.787C23.122 113.323 23.258 112.914 23.5859 112.586C23.9139 112.258 24.3234 112.122 24.7871 112.06C25.2366 111.999 25.807 112 26.5 112Z" fill="currentColor"/>
</svg>
