<svg xmlns="http://www.w3.org/2000/svg" width="16" height="16" viewBox="20.0 111.0 16.0 16.0" fill="none">
  <path d="M34.5 115C34.7761 115 35 115.224 35 115.5C35 115.776 34.7761 116 34.5 116H34V122.5C34 122.776 33.7761 123 33.5 123C33.2239 123 33 122.776 33 122.5V122H30V122.5C30 122.776 29.7761 123 29.5 123C29.2239 123 29 122.776 29 122.5V119H23V122.5C23 122.776 22.7761 123 22.5 123C22.2239 123 22 122.776 22 122.5V116H21.5C21.2239 116 21 115.776 21 115.5C21 115.224 21.2239 115 21.5 115H34.5ZM30 121H33V119H30V121ZM23 118H29V116H23V118ZM30 118H33V116H30V118Z" fill="currentColor"/>
</svg>
