<svg xmlns="http://www.w3.org/2000/svg" width="16" height="16" viewBox="20.0 110.0 17.0 17.0" fill="none">
  <path d="M28.5049 121.88C28.8501 121.88 29.1299 122.16 29.1299 122.505C29.1299 122.85 28.8501 123.13 28.5049 123.13C28.1597 123.13 27.8799 122.85 27.8799 122.505C27.8799 122.16 28.1597 121.88 28.5049 121.88Z" fill="currentColor"/>
  <path d="M28.5 114C28.7761 114 29 114.224 29 114.5V120.5C29 120.776 28.7761 121 28.5 121C28.2239 121 28 120.776 28 120.5V114.5C28 114.224 28.2239 114 28.5 114Z" fill="currentColor"/>
  <path d="M28.5 111.002C29.0674 111.002 29.547 111.237 30.0283 111.604C30.498 111.963 31.0252 112.492 31.6816 113.148L33.8516 115.318C34.5082 115.975 35.0381 116.502 35.3965 116.972C35.7636 117.453 35.998 117.933 35.998 118.5C35.998 119.067 35.7636 119.547 35.3965 120.028C35.0381 120.498 34.5081 121.025 33.8516 121.682L31.6816 123.852C31.0252 124.508 30.498 125.037 30.0283 125.396C29.547 125.763 29.0674 125.998 28.5 125.998C27.9327 125.998 27.4539 125.763 26.9727 125.396C26.5029 125.037 25.975 124.508 25.3184 123.852L23.1484 121.682C22.492 121.025 21.9629 120.498 21.6045 120.028C21.2373 119.547 21.002 119.067 21.002 118.5C21.002 117.933 21.2373 117.453 21.6045 116.972C21.9629 116.502 22.492 115.975 23.1484 115.318L25.3184 113.148C25.975 112.492 26.5029 111.963 26.9727 111.604C27.4539 111.237 27.9327 111.002 28.5 111.002ZM28.5 112.002C28.2391 112.002 27.9705 112.1 27.5781 112.399C27.1743 112.708 26.7018 113.179 26.0254 113.855L23.8555 116.025C23.179 116.702 22.7076 117.174 22.3994 117.578C22.1 117.971 22.002 118.239 22.002 118.5C22.002 118.761 22.1 119.029 22.3994 119.422C22.7076 119.826 23.179 120.298 23.8555 120.975L26.0254 123.145C26.7018 123.821 27.1743 124.292 27.5781 124.601C27.9705 124.9 28.2391 124.998 28.5 124.998C28.7609 124.998 29.0295 124.9 29.4219 124.601C29.8258 124.292 30.2981 123.821 30.9746 123.145L33.1445 120.975C33.821 120.298 34.2924 119.826 34.6006 119.422C34.9 119.029 34.998 118.761 34.998 118.5C34.998 118.239 34.9 117.971 34.6006 117.578C34.2924 117.174 33.821 116.702 33.1445 116.025L30.9746 113.855C30.2981 113.179 29.8258 112.708 29.4219 112.399C29.0295 112.1 28.7609 112.002 28.5 112.002Z" fill="currentColor"/>
</svg>
