<svg xmlns="http://www.w3.org/2000/svg" width="16" height="16" viewBox="20.0 111.0 17.0 17.0" fill="none">
  <path d="M28.5 112.002C29.0674 112.002 29.547 112.237 30.0283 112.604C30.498 112.963 31.0252 113.492 31.6816 114.148L33.8516 116.318C34.5082 116.975 35.0381 117.502 35.3965 117.972C35.7636 118.453 35.998 118.933 35.998 119.5C35.998 120.067 35.7636 120.547 35.3965 121.028C35.0381 121.498 34.5081 122.025 33.8516 122.682L31.6816 124.852C31.0252 125.508 30.498 126.037 30.0283 126.396C29.547 126.763 29.0674 126.998 28.5 126.998C27.9327 126.998 27.4539 126.763 26.9727 126.396C26.5029 126.037 25.975 125.508 25.3184 124.852L23.1484 122.682C22.492 122.025 21.9629 121.498 21.6045 121.028C21.2373 120.547 21.002 120.067 21.002 119.5C21.002 118.933 21.2373 118.453 21.6045 117.972C21.9629 117.502 22.492 116.975 23.1484 116.318L25.3184 114.148C25.975 113.492 26.5029 112.963 26.9727 112.604C27.4539 112.237 27.9327 112.002 28.5 112.002ZM28.5 113.002C28.2391 113.002 27.9705 113.1 27.5781 113.399C27.1743 113.708 26.7018 114.179 26.0254 114.855L23.8555 117.025C23.179 117.702 22.7076 118.174 22.3994 118.578C22.1 118.971 22.002 119.239 22.002 119.5C22.002 119.761 22.1 120.029 22.3994 120.422C22.7076 120.826 23.179 121.298 23.8555 121.975L26.0254 124.145C26.7018 124.821 27.1743 125.292 27.5781 125.601C27.9705 125.9 28.2391 125.998 28.5 125.998C28.7609 125.998 29.0295 125.9 29.4219 125.601C29.8258 125.292 30.2981 124.821 30.9746 124.145L33.1445 121.975C33.821 121.298 34.2924 120.826 34.6006 120.422C34.9 120.029 34.998 119.761 34.998 119.5C34.998 119.239 34.9 118.971 34.6006 118.578C34.2924 118.174 33.821 117.702 33.1445 117.025L30.9746 114.855C30.2981 114.179 29.8258 113.708 29.4219 113.399C29.0295 113.1 28.7609 113.002 28.5 113.002Z" fill="currentColor"/>
</svg>
