<svg xmlns="http://www.w3.org/2000/svg" width="16" height="16" viewBox="20.98 110.95 14.05 14.05" fill="none">
  <path d="M25.1465 112.146C25.3417 111.951 25.6583 111.951 25.8535 112.146C26.0488 112.342 26.0488 112.658 25.8535 112.853L23.707 115H29.5C30.4285 115 31.1751 114.999 31.7607 115.078C32.3608 115.159 32.8663 115.331 33.2676 115.732C33.6688 116.134 33.8412 116.639 33.9219 117.239C34.0006 117.825 34 118.571 34 119.5V123.5C34 123.776 33.7761 124 33.5 124C33.2239 124 33 123.776 33 123.5V119.5C33 118.543 32.9993 117.876 32.9316 117.372C32.8659 116.883 32.745 116.624 32.5605 116.439C32.376 116.255 32.1171 116.134 31.6279 116.068C31.1244 116.001 30.4569 116 29.5 116H23.707L25.8535 118.146C26.0488 118.342 26.0488 118.658 25.8535 118.853C25.6583 119.049 25.3417 119.049 25.1465 118.853L22.1465 115.853C22.0527 115.76 22 115.633 22 115.5C22 115.367 22.0527 115.24 22.1465 115.146L25.1465 112.146Z" fill="currentColor"/>
</svg>
