<svg xmlns="http://www.w3.org/2000/svg" width="16" height="16" viewBox="20.98 112.0 14.05 14.05" fill="none">
  <path d="M33.5 113C33.7761 113 34 113.224 34 113.5V117.5C34 118.428 34.0006 119.175 33.9219 119.761C33.8412 120.361 33.6689 120.866 33.2676 121.268C32.8663 121.669 32.3608 121.841 31.7607 121.922C31.1751 122.001 30.4285 122 29.5 122H23.707L25.8535 124.146C26.0488 124.342 26.0488 124.658 25.8535 124.854C25.6583 125.049 25.3417 125.049 25.1465 124.854L22.1465 121.854C22.0527 121.76 22 121.633 22 121.5C22 121.367 22.0527 121.24 22.1465 121.146L25.1465 118.146C25.3417 117.951 25.6583 117.951 25.8535 118.146C26.0488 118.342 26.0488 118.658 25.8535 118.854L23.707 121H29.5C30.4569 121 31.1244 120.999 31.6279 120.932C32.1171 120.866 32.376 120.745 32.5605 120.561C32.7451 120.376 32.8659 120.117 32.9316 119.628C32.9993 119.124 33 118.457 33 117.5V113.5C33 113.224 33.2239 113 33.5 113Z" fill="currentColor"/>
</svg>
