<svg xmlns="http://www.w3.org/2000/svg" width="16" height="16" viewBox="24.0 112.0 14.0 14.0" fill="none">
  <path d="M33.4998 113C33.776 113 33.9998 113.224 33.9998 113.5V117.5C33.9998 117.776 33.776 118 33.4998 118C33.2237 118 32.9998 117.776 32.9998 117.5V114.707L29.7323 117.975C29.2702 118.437 29.1433 118.576 29.076 118.738C29.0088 118.901 28.9998 119.089 28.9998 119.742V124.5C28.9998 124.776 28.776 125 28.4998 125C28.2237 125 27.9998 124.776 27.9998 124.5V119.742C27.9998 119.17 27.9911 118.744 28.1522 118.355C28.3133 117.967 28.6207 117.672 29.0252 117.268L32.2928 114H29.4998C29.2237 114 28.9998 113.776 28.9998 113.5C28.9998 113.224 29.2237 113 29.4998 113H33.4998Z" fill="currentColor"/>
</svg>
