<svg xmlns="http://www.w3.org/2000/svg" width="16" height="16" viewBox="20.98 111.95 14.05 14.05" fill="none">
  <path d="M30.1465 113.146C30.3417 112.951 30.6583 112.951 30.8535 113.146L33.8535 116.146C33.9473 116.24 34 116.367 34 116.5C34 116.633 33.9473 116.76 33.8535 116.853L30.8535 119.853C30.6583 120.049 30.3417 120.049 30.1465 119.853C29.9512 119.658 29.9512 119.342 30.1465 119.146L32.293 117H26.5C25.5431 117 24.8756 117.001 24.3721 117.068C23.8829 117.134 23.624 117.255 23.4395 117.439C23.255 117.624 23.1341 117.883 23.0684 118.372C23.0007 118.876 23 119.543 23 120.5V124.5C23 124.776 22.7761 125 22.5 125C22.2239 125 22 124.776 22 124.5V120.5C22 119.571 21.9994 118.825 22.0781 118.239C22.1588 117.639 22.3312 117.134 22.7324 116.732C23.1337 116.331 23.6392 116.159 24.2393 116.078C24.8249 115.999 25.5715 116 26.5 116H32.293L30.1465 113.853C29.9512 113.658 29.9512 113.342 30.1465 113.146Z" fill="currentColor"/>
</svg>
