<svg xmlns="http://www.w3.org/2000/svg" width="16" height="16" viewBox="20.98 112.0 14.05 14.05" fill="none">
  <path d="M22.5 113C22.7761 113 23 113.224 23 113.5V117.5C23 118.457 23.0007 119.124 23.0684 119.628C23.1341 120.117 23.2549 120.376 23.4395 120.561C23.624 120.745 23.8829 120.866 24.3721 120.932C24.8756 120.999 25.5431 121 26.5 121H32.293L30.1465 118.854C29.9512 118.658 29.9512 118.342 30.1465 118.146C30.3417 117.951 30.6583 117.951 30.8535 118.146L33.8535 121.146C33.9473 121.24 34 121.367 34 121.5C34 121.633 33.9473 121.76 33.8535 121.854L30.8535 124.854C30.6583 125.049 30.3417 125.049 30.1465 124.854C29.9512 124.658 29.9512 124.342 30.1465 124.146L32.293 122H26.5C25.5715 122 24.8249 122.001 24.2393 121.922C23.6392 121.841 23.1337 121.669 22.7324 121.268C22.3311 120.866 22.1588 120.361 22.0781 119.761C21.9994 119.175 22 118.428 22 117.5V113.5C22 113.224 22.2239 113 22.5 113Z" fill="currentColor"/>
</svg>
