<svg xmlns="http://www.w3.org/2000/svg" width="16" height="16" viewBox="21.5 112.0 14.0 14.0" fill="none">
  <path d="M28.5 113C28.6326 113 28.7597 113.053 28.8535 113.146L31.8535 116.146C32.0487 116.342 32.0487 116.658 31.8535 116.854C31.6582 117.049 31.3417 117.049 31.1464 116.854L29 114.707V124.5C29 124.776 28.7761 125 28.5 125C28.2238 125 28 124.776 28 124.5V114.707L25.8535 116.854C25.6582 117.049 25.3417 117.049 25.1464 116.854C24.9512 116.658 24.9512 116.342 25.1464 116.146L28.1464 113.146C28.2402 113.053 28.3674 113 28.5 113Z" fill="currentColor"/>
</svg>
