<svg xmlns="http://www.w3.org/2000/svg" width="16" height="16" viewBox="19.0 112.0 14.0 14.0" fill="none">
  <path d="M27.5 113C27.7761 113 28 113.224 28 113.5C28 113.776 27.7761 114 27.5 114H24.707L27.9746 117.268C28.3792 117.672 28.6865 117.967 28.8477 118.355C29.0087 118.744 29 119.17 29 119.742V124.5C29 124.776 28.7761 125 28.5 125C28.2239 125 28 124.776 28 124.5V119.742C28 119.089 27.9911 118.901 27.9238 118.738C27.8565 118.576 27.7297 118.437 27.2676 117.975L24 114.707V117.5C24 117.776 23.7761 118 23.5 118C23.2239 118 23 117.776 23 117.5V113.5C23 113.224 23.2239 113 23.5 113H27.5Z" fill="currentColor"/>
</svg>
