<svg xmlns="http://www.w3.org/2000/svg" width="16" height="16" viewBox="21.5 111.0 14.0 14.0" fill="none">
  <path d="M28.5 112C28.7761 112 29 112.224 29 112.5V122.293L31.1464 120.146C31.3417 119.951 31.6582 119.951 31.8535 120.146C32.0487 120.342 32.0487 120.658 31.8535 120.854L28.8535 123.854C28.7597 123.947 28.6326 124 28.5 124C28.3674 124 28.2402 123.947 28.1464 123.854L25.1464 120.854C24.9512 120.658 24.9512 120.342 25.1464 120.146C25.3417 119.951 25.6582 119.951 25.8535 120.146L28 122.293V112.5C28 112.224 28.2238 112 28.5 112Z" fill="currentColor"/>
</svg>
