<svg xmlns="http://www.w3.org/2000/svg" width="16" height="16" viewBox="20.0 109.99 16.01 16.01" fill="none">
  <path d="M25 116C25.5523 116 26 116.448 26 117C26 117.552 25.5523 118 25 118C24.4477 118 24 117.552 24 117C24 116.448 24.4477 116 25 116Z" fill="currentColor"/>
  <path d="M27.9121 111C28.6573 111 29.164 110.992 29.6289 111.177C30.0935 111.361 30.4561 111.714 30.998 112.225L32.5859 113.721C33.1742 114.275 33.5806 114.645 33.7949 115.142C34.0092 115.638 34 116.188 34 116.996V120.5C34 121.428 34.0006 122.175 33.9219 122.761C33.8412 123.361 33.6688 123.866 33.2676 124.268C32.8663 124.669 32.3608 124.841 31.7607 124.922C31.1751 125.001 30.4285 125 29.5 125H26.5C25.5715 125 24.8249 125.001 24.2393 124.922C23.6392 124.841 23.1337 124.669 22.7324 124.268C22.4208 123.956 22.2482 123.581 22.1484 123.148L22.1465 123.147L22.1475 123.145C22.1192 123.021 22.096 122.893 22.0781 122.761C21.9994 122.175 22 121.428 22 120.5V115.5C22 114.572 21.9994 113.825 22.0781 113.239C22.1588 112.639 22.3312 112.134 22.7324 111.732C23.1337 111.331 23.6392 111.159 24.2393 111.078C24.8249 110.999 25.5715 111 26.5 111H27.9121ZM26 120.914C25.9462 120.914 25.8644 120.929 25.6904 121.062C25.505 121.203 25.2826 121.425 24.9395 121.768L23.3076 123.398C23.3472 123.46 23.3913 123.512 23.4395 123.561C23.624 123.745 23.8829 123.866 24.3721 123.932C24.8756 123.999 25.5431 124 26.5 124H29.293L27.0605 121.768C26.7174 121.425 26.495 121.203 26.3096 121.062C26.1356 120.929 26.0538 120.914 26 120.914ZM31 118.914C30.9462 118.914 30.8644 118.929 30.6904 119.062C30.505 119.203 30.2826 119.425 29.9395 119.768L28.207 121.5L30.6982 123.991C31.0635 123.983 31.3676 123.967 31.6279 123.932C32.1171 123.866 32.376 123.745 32.5605 123.561C32.745 123.376 32.8659 123.117 32.9316 122.628C32.9944 122.161 32.9976 121.554 32.998 120.705L32.0605 119.768C31.7174 119.425 31.495 119.203 31.3096 119.062C31.1356 118.929 31.0538 118.914 31 118.914ZM26.5 112C25.5431 112 24.8756 112.001 24.3721 112.068C23.8829 112.134 23.624 112.255 23.4395 112.439C23.255 112.624 23.1341 112.883 23.0684 113.372C23.0007 113.876 23 114.543 23 115.5V120.5C23 121.24 23.0017 121.807 23.0332 122.259L24.2324 121.061C24.5556 120.737 24.8327 120.458 25.084 120.267C25.3469 120.066 25.6396 119.914 26 119.914C26.3604 119.914 26.6531 120.066 26.916 120.267C27.0948 120.403 27.2848 120.586 27.4971 120.795L29.2324 119.061C29.5556 118.737 29.8327 118.458 30.084 118.267C30.3469 118.066 30.6396 117.914 31 117.914C31.3604 117.914 31.6531 118.066 31.916 118.267C32.1673 118.458 32.4444 118.737 32.7676 119.061L33 119.293V116.996C33 116.528 32.9973 116.223 32.9785 116H30.5C29.6716 116 29 115.328 29 114.5V112.038C28.7827 112.005 28.4747 112 27.9121 112H26.5ZM30 114.5C30 114.776 30.2239 115 30.5 115H32.4678C32.3286 114.858 32.1467 114.681 31.9004 114.449L30.3125 112.953C30.1945 112.842 30.0909 112.746 30 112.662V114.5Z" fill="currentColor"/>
</svg>
