<svg xmlns="http://www.w3.org/2000/svg" width="16" height="16" viewBox="20.0 110.99 16.01 16.01" fill="none">
  <path d="M27.5 117C27.6326 117 27.7597 117.053 27.8535 117.147C27.9473 117.24 28 117.367 28 117.5V120H30.5C30.7761 120 31 120.224 31 120.5C31 121.192 30.7947 121.869 30.4102 122.444C30.0257 123.02 29.4792 123.469 28.8398 123.733C28.2004 123.998 27.4963 124.068 26.8174 123.933C26.1385 123.798 25.5149 123.464 25.0254 122.975C24.5359 122.485 24.2024 121.862 24.0674 121.183C23.9324 120.504 24.0017 119.8 24.2666 119.16C24.5315 118.521 24.9802 117.974 25.5557 117.59C26.1312 117.205 26.8078 117 27.5 117ZM27 118.051C26.6842 118.115 26.382 118.24 26.1113 118.421C25.7003 118.696 25.3797 119.086 25.1904 119.543C25.0013 120 24.9515 120.503 25.0479 120.987C25.1443 121.472 25.3828 121.918 25.7324 122.268C26.0821 122.617 26.5277 122.856 27.0127 122.952C27.4975 123.049 28.0004 122.999 28.457 122.81C28.9137 122.62 29.3045 122.3 29.5791 121.889C29.7598 121.618 29.8838 121.316 29.9482 121H27.5C27.3674 121 27.2403 120.947 27.1465 120.854C27.0527 120.76 27 120.633 27 120.5V118.051Z" fill="currentColor"/>
  <path d="M27.9121 112C28.6573 112 29.164 111.992 29.6289 112.177C30.0935 112.361 30.4561 112.714 30.998 113.225L32.5859 114.721C33.1742 115.275 33.5806 115.645 33.7949 116.142C34.0092 116.638 34 117.188 34 117.996V121.5C34 122.429 34.0006 123.175 33.9219 123.761C33.8412 124.361 33.6688 124.866 33.2676 125.268C32.8663 125.669 32.3608 125.841 31.7607 125.922C31.1751 126.001 30.4285 126 29.5 126H26.5C25.5715 126 24.8249 126.001 24.2393 125.922C23.6392 125.841 23.1337 125.669 22.7324 125.268C22.3312 124.866 22.1588 124.361 22.0781 123.761C21.9994 123.175 22 122.429 22 121.5V116.5C22 115.572 21.9994 114.825 22.0781 114.239C22.1588 113.639 22.3312 113.134 22.7324 112.732C23.1337 112.331 23.6392 112.159 24.2393 112.078C24.8249 111.999 25.5715 112 26.5 112H27.9121ZM26.5 113C25.5431 113 24.8756 113.001 24.3721 113.068C23.8829 113.134 23.624 113.255 23.4395 113.44C23.255 113.624 23.1341 113.883 23.0684 114.372C23.0007 114.876 23 115.543 23 116.5V121.5C23 122.457 23.0007 123.124 23.0684 123.628C23.1341 124.117 23.255 124.376 23.4395 124.561C23.624 124.745 23.8829 124.866 24.3721 124.932C24.8756 124.999 25.5431 125 26.5 125H29.5C30.4569 125 31.1244 124.999 31.6279 124.932C32.1171 124.866 32.376 124.745 32.5605 124.561C32.745 124.376 32.8659 124.117 32.9316 123.628C32.9993 123.124 33 122.457 33 121.5V117.996C33 117.528 32.9973 117.223 32.9785 117H30.5C29.6716 117 29 116.328 29 115.5V113.038C28.7827 113.005 28.4747 113 27.9121 113H26.5ZM30 115.5C30 115.776 30.2239 116 30.5 116H32.4678C32.3286 115.858 32.1468 115.681 31.9004 115.449L30.3125 113.953C30.1945 113.842 30.0909 113.746 30 113.662V115.5Z" fill="currentColor"/>
</svg>
