<svg xmlns="http://www.w3.org/2000/svg" width="16" height="16" viewBox="20.0 110.99 16.01 16.01" fill="none">
  <path d="M27.4453 118.168C27.7521 117.964 28.1466 117.944 28.4717 118.118C28.7968 118.292 29 118.631 29 119V123C29 123.369 28.7968 123.708 28.4717 123.882C28.1466 124.056 27.7521 124.037 27.4453 123.832L26.1973 123H25.25C24.5596 123 24 122.44 24 121.75V120.25C24 119.56 24.5597 119 25.25 119H26.1973L27.4453 118.168ZM26.5 120H25.25C25.112 120 25 120.112 25 120.25V121.75C25 121.888 25.1119 122 25.25 122H26.5L28 123V119L26.5 120Z" fill="currentColor"/>
  <path d="M30.6172 119.014L30.6182 119.015H30.6201L30.623 119.016C30.625 119.016 30.6274 119.017 30.6299 119.018C30.6348 119.019 30.6407 119.021 30.6475 119.023C30.6613 119.026 30.6794 119.031 30.7002 119.038C30.742 119.052 30.7979 119.073 30.8623 119.102C30.9902 119.159 31.1588 119.254 31.3281 119.401C31.6804 119.708 32 120.218 32 121C32 121.782 31.6804 122.292 31.3281 122.599C31.1588 122.746 30.9902 122.841 30.8623 122.898C30.7979 122.928 30.742 122.948 30.7002 122.962C30.6794 122.969 30.6613 122.974 30.6475 122.978C30.6407 122.98 30.6348 122.981 30.6299 122.982C30.6274 122.983 30.625 122.984 30.623 122.984L30.6201 122.985H30.6182C30.6182 122.985 30.6201 122.985 30.6172 122.986C30.349 123.051 30.0786 122.885 30.0137 122.617C29.9493 122.35 30.1132 122.081 30.3799 122.015L30.376 122.016C30.376 122.016 30.3802 122.015 30.3857 122.013C30.3986 122.008 30.4212 122 30.4502 121.987C30.5097 121.96 30.5913 121.915 30.6719 121.845C30.8195 121.716 31 121.476 31 121C31 120.525 30.8195 120.284 30.6719 120.155C30.5913 120.085 30.5097 120.04 30.4502 120.013C30.4212 120 30.3986 119.992 30.3857 119.987C30.3802 119.986 30.375 119.984 30.375 119.984L30.3789 119.985C30.1122 119.919 29.9492 119.65 30.0137 119.383C30.0786 119.115 30.349 118.949 30.6172 119.014Z" fill="currentColor"/>
  <path d="M27.9121 112C28.6573 112 29.164 111.992 29.6289 112.177C30.0935 112.361 30.4561 112.714 30.998 113.225L32.5859 114.721C33.1742 115.275 33.5806 115.645 33.7949 116.142C34.0092 116.638 34 117.188 34 117.996V121.5C34 122.428 34.0006 123.175 33.9219 123.761C33.8412 124.361 33.6688 124.866 33.2676 125.268C32.8663 125.669 32.3608 125.841 31.7607 125.922C31.1751 126.001 30.4285 126 29.5 126H26.5C25.5715 126 24.8249 126.001 24.2393 125.922C23.6392 125.841 23.1337 125.669 22.7324 125.268C22.3312 124.866 22.1588 124.361 22.0781 123.761C21.9994 123.175 22 122.428 22 121.5V116.5C22 115.572 21.9994 114.825 22.0781 114.239C22.1588 113.639 22.3312 113.134 22.7324 112.732C23.1337 112.331 23.6392 112.159 24.2393 112.078C24.8249 111.999 25.5715 112 26.5 112H27.9121ZM26.5 113C25.5431 113 24.8756 113.001 24.3721 113.068C23.8829 113.134 23.624 113.255 23.4395 113.439C23.255 113.624 23.1341 113.883 23.0684 114.372C23.0007 114.876 23 115.543 23 116.5V121.5C23 122.457 23.0007 123.124 23.0684 123.628C23.1341 124.117 23.255 124.376 23.4395 124.561C23.624 124.745 23.8829 124.866 24.3721 124.932C24.8756 124.999 25.5431 125 26.5 125H29.5C30.4569 125 31.1244 124.999 31.6279 124.932C32.1171 124.866 32.376 124.745 32.5605 124.561C32.745 124.376 32.8659 124.117 32.9316 123.628C32.9993 123.124 33 122.457 33 121.5V117.996C33 117.528 32.9973 117.223 32.9785 117H30.5C29.6716 117 29 116.328 29 115.5V113.038C28.7827 113.005 28.4747 113 27.9121 113H26.5ZM30 115.5C30 115.776 30.2239 116 30.5 116H32.4678C32.3286 115.858 32.1467 115.681 31.9004 115.449L30.3125 113.953C30.1945 113.842 30.0909 113.746 30 113.662V115.5Z" fill="currentColor"/>
</svg>
