<svg xmlns="http://www.w3.org/2000/svg" width="16" height="16" viewBox="20.5 110.99 17.01 17.01" fill="none">
  <path d="M33.1465 123.147C33.3417 122.951 33.6583 122.951 33.8535 123.147C34.0487 123.342 34.0488 123.658 33.8535 123.854L32.8516 124.855C32.9452 125.05 33 125.269 33 125.5C33 126.328 32.3284 127 31.5 127C30.6716 127 30 126.328 30 125.5C30 124.672 30.6716 124 31.5 124C31.7311 124 31.949 124.054 32.1445 124.148L33.1465 123.147ZM31.5 125C31.2239 125 31 125.224 31 125.5C31 125.776 31.2239 126 31.5 126C31.7761 126 32 125.776 32 125.5C32 125.224 31.7761 125 31.5 125Z" fill="currentColor"/>
  <path d="M31.501 120.5C32.6964 120.5 33.8445 120.974 34.6904 121.818C35.3838 122.511 35.8289 123.406 35.9668 124.364C35.9776 124.439 36.0059 124.617 36.002 124.785C35.9966 125.011 35.9344 125.307 35.7041 125.573C35.459 125.856 35.1549 125.95 34.9463 125.982C34.7832 126.008 34.6011 126.005 34.5127 126.005H33.9492C33.9826 125.842 34 125.673 34 125.5C34 125.33 33.9824 125.165 33.9502 125.005H34.5127C34.7224 125.005 34.8416 125.004 34.918 124.947L34.9482 124.919C35.0041 124.854 35.0101 124.776 34.9961 124.65L34.9766 124.507C34.8827 123.855 34.606 123.24 34.1768 122.735L33.9844 122.526C33.3261 121.869 32.4319 121.5 31.501 121.5C30.5702 121.5 29.6768 121.87 29.0186 122.526C28.4791 123.065 28.1336 123.762 28.0264 124.507L28.0068 124.65C27.9928 124.776 27.9978 124.854 28.0537 124.919C28.1097 124.983 28.1924 125 28.3311 125.004L28.4902 125.005H29.0498C29.0176 125.165 29 125.331 29 125.5C29 125.673 29.0174 125.842 29.0508 126.005H28.4902C28.4021 126.005 28.22 126.008 28.0566 125.982C27.848 125.95 27.5431 125.856 27.2979 125.573C27.0675 125.307 27.0053 125.011 27 124.785C26.996 124.617 27.0254 124.439 27.0361 124.364C27.174 123.406 27.6192 122.511 28.3125 121.818C29.1584 120.974 30.3058 120.5 31.501 120.5Z" fill="currentColor"/>
  <path d="M27.9121 112C28.6573 112 29.164 111.992 29.6289 112.177C30.0934 112.361 30.4561 112.714 30.998 113.225L32.5859 114.721C33.1742 115.275 33.5806 115.645 33.7949 116.142C34.0092 116.638 34 117.188 34 117.996V120.099C33.6802 119.936 33.3454 119.805 33 119.707V117.996C33 117.528 32.9973 117.223 32.9785 117H30.5C29.6716 117 29 116.328 29 115.5V113.038C28.7827 113.005 28.4746 113 27.9121 113H26.5C25.5431 113 24.8756 113.001 24.3721 113.068C23.883 113.134 23.624 113.255 23.4395 113.439C23.255 113.624 23.1341 113.883 23.0684 114.372C23.0007 114.876 23 115.543 23 116.5V121.5C23 122.457 23.0007 123.124 23.0684 123.628C23.1341 124.117 23.255 124.376 23.4395 124.561C23.624 124.745 23.8829 124.866 24.3721 124.932C24.7854 124.987 25.3091 124.994 26.0127 124.996C26.0437 125.294 26.1396 125.651 26.3701 125.999C25.5016 125.999 24.7973 125.997 24.2393 125.922C23.6392 125.841 23.1337 125.669 22.7324 125.268C22.3312 124.866 22.1588 124.361 22.0781 123.761C21.9995 123.175 22 122.428 22 121.5V116.5C22 115.572 21.9994 114.825 22.0781 114.239C22.1588 113.639 22.3312 113.134 22.7324 112.732C23.1337 112.331 23.6392 112.159 24.2393 112.078C24.8249 111.999 25.5715 112 26.5 112H27.9121ZM30 115.5C30 115.776 30.2239 116 30.5 116H32.4678C32.3286 115.858 32.1467 115.681 31.9004 115.449L30.3125 113.953C30.1945 113.842 30.0909 113.746 30 113.662V115.5Z" fill="currentColor"/>
</svg>
