<svg xmlns="http://www.w3.org/2000/svg" width="16" height="16" viewBox="20.49 110.99 17.01 17.01" fill="none">
  <path d="M34.086 118C35.143 118 35.9999 118.857 36 119.914C36 120.422 35.7984 120.909 35.4395 121.268L33.1465 123.561C33.0691 123.638 33.0306 123.677 33.0049 123.707L33.003 123.709V123.711C33 123.75 33 123.805 33 123.914V125.5C33 125.633 32.9473 125.76 32.8535 125.854L32.0606 126.647C31.8342 126.873 31.5272 127 31.2071 127C30.5405 127 30.0001 126.46 30 125.793V123.864C30 123.782 29.9998 123.74 29.9981 123.71C29.998 123.709 29.9972 123.708 29.9971 123.707C29.9772 123.685 29.9472 123.655 29.8887 123.597L27.5606 121.268C27.2017 120.909 27 120.422 27 119.914C27.0001 118.857 27.857 118 28.9141 118H34.086ZM28.9141 119C28.4093 119 28.0001 119.409 28 119.914C28 120.156 28.0963 120.389 28.2676 120.561L30.5967 122.889C30.6845 122.976 30.8044 123.091 30.8828 123.238C30.8977 123.266 30.9117 123.295 30.9238 123.324L30.9561 123.414L30.9834 123.534C31.0027 123.654 31 123.771 31 123.864V125.793C31.0001 125.907 31.0927 126 31.2071 126C31.2619 126 31.3147 125.978 31.3535 125.94L32 125.293V123.914C32 123.751 31.9913 123.529 32.0762 123.324L32.1524 123.181C32.2394 123.047 32.3527 122.94 32.4395 122.854L34.7324 120.561C34.9038 120.389 35 120.157 35 119.914C34.9999 119.409 34.5907 119 34.086 119H28.9141Z" fill="currentColor"/>
  <path d="M28.8428 112C29.6193 112 30.1473 111.992 30.628 112.19C31.1087 112.39 31.4763 112.769 32.0254 113.318L32.6817 113.975C33.2308 114.524 33.6104 114.891 33.8096 115.372C33.9949 115.82 33.9992 116.308 33.999 117H31.5C31.0428 117 30.6493 117.001 30.336 116.959C30.0083 116.915 29.6942 116.815 29.4395 116.561C29.1848 116.306 29.0851 115.992 29.041 115.664C28.9989 115.351 29 114.957 29 114.5V113H28.5C27.5432 113 26.8756 113.001 26.3721 113.068C25.883 113.134 25.624 113.255 25.4395 113.44C25.255 113.624 25.1342 113.883 25.0684 114.372C25.0007 114.876 25 115.543 25 116.5V119.5C25 120.457 25.0007 121.124 25.0684 121.628C25.1341 122.117 25.2551 122.376 25.4395 122.561C25.624 122.745 25.883 122.866 26.3721 122.932C26.7578 122.984 27.2397 122.992 27.874 122.995L28.8789 124H28.5C27.5716 124 26.8249 124.001 26.2393 123.922C25.6393 123.841 25.1337 123.669 24.7324 123.268C24.3313 122.866 24.1588 122.361 24.0781 121.761C23.9995 121.175 24 120.428 24 119.5V116.5C24 115.969 24.002 115.497 24.0166 115.081C23.5149 115.252 23.1349 115.678 23.0293 116.207C23.0029 116.34 23 116.512 23 117V121.5C23 122.457 23.0007 123.124 23.0684 123.628C23.1341 124.117 23.2551 124.376 23.4395 124.561C23.624 124.745 23.883 124.866 24.3721 124.932C24.8756 124.999 25.5432 125 26.5 125H29V125.793C29 125.863 29.0044 125.932 29.0108 126H26.5C25.5716 126 24.8249 126.001 24.2393 125.922C23.6393 125.841 23.1337 125.669 22.7324 125.268C22.3313 124.866 22.1588 124.361 22.0781 123.761C21.9995 123.175 22 122.428 22 121.5V117C22 116.56 21.9975 116.266 22.0479 116.013C22.2452 115.021 23.0211 114.245 24.0127 114.048C24.0445 114.042 24.0772 114.038 24.1104 114.033C24.2022 113.523 24.378 113.087 24.7324 112.732C25.1337 112.331 25.6393 112.159 26.2393 112.078C26.8249 111.999 27.5716 112 28.5 112H28.8428ZM30 114.5C30 114.985 30.0012 115.299 30.0322 115.53C30.0614 115.747 30.1085 115.815 30.1465 115.854C30.1846 115.892 30.253 115.939 30.4697 115.968C30.7009 115.999 31.0148 116 31.5 116H32.9541C32.9376 115.907 32.9164 115.829 32.8858 115.755C32.7804 115.501 32.5813 115.288 31.9746 114.682L31.3184 114.025C30.7116 113.419 30.4994 113.22 30.2451 113.114C30.171 113.084 30.0935 113.061 30 113.045V114.5Z" fill="currentColor"/>
</svg>
