<svg xmlns="http://www.w3.org/2000/svg" width="16" height="16" viewBox="20.0 110.99 16.01 16.01" fill="none">
  <path d="M24.5 120C25.3284 120 26 120.672 26 121.5C26 122.328 25.3284 123 24.5 123H24V123.5C24 123.776 23.7762 124 23.5 124C23.2239 124 23 123.776 23 123.5V120.5C23 120.224 23.2239 120 23.5 120H24.5ZM24 122H24.5C24.7762 122 25 121.776 25 121.5C25 121.224 24.7761 121 24.5 121H24V122Z" fill="currentColor"/>
  <path d="M28.25 120C29.2165 120 30 120.784 30 121.75V122.25C30 123.217 29.2165 124 28.25 124H27.5C27.2239 124 27 123.776 27 123.5V120.5C27 120.224 27.2239 120 27.5 120H28.25ZM28 123H28.25C28.6642 123 29 122.664 29 122.25V121.75C29 121.336 28.6642 121 28.25 121H28V123Z" fill="currentColor"/>
  <path d="M33 120C33.2761 120 33.5 120.224 33.5 120.5C33.5 120.776 33.2762 121 33 121H32V122H32.5C32.7761 122 33 122.224 33 122.5C33 122.776 32.7762 123 32.5 123H32V123.5C32 123.776 31.7762 124 31.5 124C31.2239 124 31 123.776 31 123.5V120.5C31 120.224 31.2239 120 31.5 120C31.5172 120 31.534 120.003 31.5508 120.005C31.567 120.004 31.5831 120 31.5996 120H33Z" fill="currentColor"/>
  <path d="M27.9121 112C28.6573 112 29.164 111.992 29.6289 112.177C30.0935 112.361 30.4561 112.714 30.9981 113.225L32.5859 114.721C33.1742 115.275 33.5806 115.645 33.7949 116.142C34.0092 116.638 34 117.188 34 117.996V118.28C34.1434 118.357 34.2838 118.456 34.4141 118.586C34.7773 118.949 34.9026 119.386 34.9541 119.77C35.0018 120.124 35 120.557 35 121V123C35 123.443 35.0018 123.876 34.9541 124.231C34.9026 124.614 34.7773 125.051 34.4141 125.414C34.0509 125.777 33.6137 125.903 33.2305 125.954C32.876 126.002 32.4431 126 32 126H24C23.5569 126 23.124 126.002 22.7695 125.954C22.3863 125.903 21.9492 125.777 21.5859 125.414C21.2228 125.051 21.0974 124.614 21.0459 124.231C20.9983 123.876 21 123.443 21 123V121C21 120.557 20.9983 120.124 21.0459 119.77C21.0974 119.386 21.2227 118.949 21.5859 118.586C21.7162 118.456 21.8566 118.357 22 118.28V116.5C22 115.572 21.9994 114.825 22.0781 114.239C22.1588 113.639 22.3312 113.134 22.7324 112.732C23.1337 112.331 23.6392 112.159 24.2393 112.078C24.8249 111.999 25.5715 112 26.5 112H27.9121ZM24 119C23.0572 119 22.5859 119 22.293 119.293C22.0001 119.586 22 120.057 22 121V123L22.0049 123.623C22.0186 124.167 22.0733 124.487 22.293 124.707C22.5859 125 23.0572 125 24 125H32L32.6231 124.995C33.1673 124.981 33.4873 124.927 33.707 124.707C33.9999 124.414 34 123.943 34 123V121C34 120.057 33.9999 119.586 33.707 119.293C33.4873 119.073 33.1672 119.019 32.6231 119.005L32 119H24ZM26.5 113C25.5431 113 24.8756 113.001 24.3721 113.068C23.8829 113.134 23.624 113.255 23.4395 113.439C23.255 113.624 23.1341 113.883 23.0684 114.372C23.0007 114.876 23 115.543 23 116.5V118.023C23.3043 117.999 23.6489 118 24 118H32C32.3511 118 32.6957 117.999 33 118.023V117.996C33 117.528 32.9973 117.223 32.9785 117H30.5C29.6716 117 29 116.328 29 115.5V113.038C28.7827 113.005 28.4747 113 27.9121 113H26.5ZM30 115.5C30 115.776 30.2239 116 30.5 116H32.4678C32.3286 115.858 32.1468 115.681 31.9004 115.449L30.3125 113.953C30.1945 113.842 30.0909 113.746 30 113.662V115.5Z" fill="currentColor"/>
</svg>
