<svg xmlns="http://www.w3.org/2000/svg" width="16" height="16" viewBox="18.98 111.51 17.02 17.02" fill="none">
  <path d="M22.4996 118C23.8804 118 24.9996 119.119 24.9996 120.5C24.9996 121.06 24.8128 121.575 24.5016 121.992L24.9967 126.444C25.0169 126.626 24.936 126.805 24.7858 126.91C24.6356 127.015 24.4398 127.029 24.276 126.947L23.1705 126.395C22.687 126.153 22.5899 126.118 22.4996 126.118C22.4094 126.118 22.312 126.153 21.8287 126.395L20.7233 126.947C20.5595 127.029 20.3637 127.015 20.2135 126.91C20.0634 126.805 19.9824 126.626 20.0026 126.444L20.4967 121.991C20.186 121.575 19.9996 121.06 19.9996 120.5C19.9996 119.119 21.119 118 22.4996 118ZM23.5797 122.751C23.2524 122.908 22.8871 123 22.4996 123C22.1118 123 21.7461 122.909 21.4186 122.751L21.0973 125.642L21.3815 125.5C21.7754 125.303 22.1179 125.118 22.4996 125.118C22.8814 125.118 23.2239 125.303 23.6178 125.5L23.901 125.642L23.5797 122.751ZM22.4996 119C21.6713 119 20.9996 119.672 20.9996 120.5C20.9996 121.328 21.6713 122 22.4996 122C23.3281 122 23.9996 121.328 23.9996 120.5C23.9996 119.672 23.3281 119 22.4996 119Z" fill="currentColor"/>
  <path d="M30.4996 113C31.4281 113 32.1748 112.999 32.7604 113.078C33.3604 113.159 33.866 113.331 34.2672 113.732C34.6685 114.134 34.8408 114.639 34.9215 115.239C35.0002 115.825 34.9996 116.572 34.9996 117.5V120.5C34.9996 121.428 35.0002 122.175 34.9215 122.761C34.8408 123.361 34.6685 123.866 34.2672 124.268C33.866 124.669 33.3604 124.841 32.7604 124.922C32.1748 125.001 31.4281 125 30.4996 125H25.8424L25.7311 124H30.4996C31.4565 124 32.124 123.999 32.6276 123.932C33.1167 123.866 33.3757 123.745 33.5602 123.561C33.7447 123.376 33.8655 123.117 33.9313 122.628C33.999 122.124 33.9996 121.457 33.9996 120.5V117.5C33.9996 116.543 33.999 115.876 33.9313 115.372C33.8655 114.883 33.7447 114.624 33.5602 114.439C33.3757 114.255 33.1167 114.134 32.6276 114.068C32.124 114.001 31.4565 114 30.4996 114H25.4996C24.5428 114 23.8752 114.001 23.3717 114.068C22.8826 114.134 22.6236 114.255 22.4391 114.439C22.2546 114.624 22.1338 114.883 22.068 115.372C22.0118 115.79 22.0044 116.32 22.0026 117.035C21.6485 117.086 21.3113 117.189 20.9996 117.337C20.9998 116.484 21.0037 115.79 21.0778 115.239C21.1584 114.639 21.3308 114.134 21.7321 113.732C22.1333 113.331 22.6389 113.159 23.2389 113.078C23.8245 112.999 24.5712 113 25.4996 113H30.4996Z" fill="currentColor"/>
  <path d="M31.4996 120C31.7758 120 31.9996 120.224 31.9996 120.5C31.9996 120.776 31.7758 121 31.4996 121H25.9625C25.986 120.837 25.9996 120.67 25.9996 120.5C25.9996 120.33 25.9859 120.163 25.9625 120H31.4996Z" fill="currentColor"/>
  <path d="M31.4996 117C31.7758 117 31.9996 117.224 31.9996 117.5C31.9996 117.776 31.7758 118 31.4996 118H24.9479C24.6787 117.736 24.3678 117.515 24.025 117.349C24.0893 117.147 24.2765 117 24.4996 117H31.4996Z" fill="currentColor"/>
</svg>
