<svg xmlns="http://www.w3.org/2000/svg" width="16" height="16" viewBox="20.55 110.99 17.04 17.04" fill="none">
  <path d="M33.4395 119.44C34.0252 118.854 34.9748 118.854 35.5606 119.44C36.1464 120.025 36.1463 120.975 35.5606 121.561L31.0606 126.061C31.0084 126.113 30.9454 126.153 30.876 126.178L28.669 126.971C28.4868 127.036 28.2833 126.99 28.1465 126.854C28.0097 126.717 27.9639 126.513 28.0293 126.331L28.8223 124.124C28.8472 124.055 28.8873 123.992 28.9395 123.94L33.4395 119.44ZM29.7256 124.567L29.3291 125.671L30.4326 125.274L33.8555 121.852L33.1485 121.145L29.7256 124.567ZM34.8535 120.147C34.6583 119.951 34.3418 119.951 34.1465 120.147L33.8555 120.438L34.5625 121.145L34.8535 120.854C35.0488 120.658 35.0488 120.342 34.8535 120.147Z" fill="currentColor"/>
  <path d="M28.8428 112C29.6193 112 30.1473 111.992 30.628 112.19C31.1087 112.39 31.4763 112.769 32.0254 113.318L32.6817 113.975C33.2308 114.524 33.6104 114.891 33.8096 115.372C34.0086 115.853 34 116.381 34 117.157V118.051C33.6444 118.123 33.3029 118.275 33 118.503V117.157C33 117.103 32.9991 117.05 32.999 117H31.5C31.0428 117 30.6493 117.001 30.336 116.959C30.0083 116.915 29.6942 116.815 29.4395 116.561C29.1848 116.306 29.0851 115.992 29.041 115.664C28.9989 115.351 29 114.957 29 114.5V113H28.5C27.5431 113 26.8756 113.001 26.3721 113.068C25.883 113.134 25.624 113.255 25.4395 113.44C25.255 113.624 25.1342 113.883 25.0684 114.372C25.0007 114.876 25 115.543 25 116.5V119.5C25 120.457 25.0007 121.124 25.0684 121.628C25.1341 122.117 25.2551 122.376 25.4395 122.561C25.624 122.745 25.883 122.866 26.3721 122.932C26.8695 122.999 27.5268 122.999 28.4649 122.999L28.2324 123.232C28.0761 123.389 27.9557 123.578 27.8809 123.786L27.8037 123.998C27.1894 123.994 26.6706 123.98 26.2393 123.922C25.6393 123.841 25.1337 123.669 24.7324 123.268C24.3313 122.866 24.1588 122.361 24.0781 121.761C23.9995 121.175 24 120.428 24 119.5V116.5C24 115.969 24.002 115.497 24.0166 115.081C23.5149 115.252 23.1349 115.678 23.0293 116.207C23.0029 116.34 23 116.512 23 117V121.5C23 122.457 23.0007 123.124 23.0684 123.628C23.1341 124.117 23.2551 124.376 23.4395 124.561C23.624 124.745 23.883 124.866 24.3721 124.932C24.8756 124.999 25.5431 125 26.5 125H27.4453L27.0889 125.993C27.0881 125.995 27.0877 125.998 27.0869 126H26.5C25.5716 126 24.8249 126.001 24.2393 125.922C23.6393 125.841 23.1337 125.669 22.7324 125.268C22.3313 124.866 22.1588 124.361 22.0781 123.761C21.9995 123.175 22 122.428 22 121.5V117C22 116.56 21.9975 116.266 22.0479 116.013C22.2452 115.021 23.0211 114.245 24.0127 114.048C24.0445 114.042 24.0772 114.038 24.1104 114.033C24.2022 113.523 24.378 113.087 24.7324 112.732C25.1337 112.331 25.6393 112.159 26.2393 112.078C26.8249 111.999 27.5716 112 28.5 112H28.8428ZM30 114.5C30 114.985 30.0012 115.299 30.0322 115.53C30.0614 115.747 30.1085 115.815 30.1465 115.854C30.1846 115.892 30.253 115.939 30.4697 115.968C30.701 115.999 31.0148 116 31.5 116H32.9541C32.9376 115.907 32.9164 115.829 32.8858 115.755C32.7804 115.501 32.5813 115.288 31.9746 114.682L31.3184 114.025C30.7116 113.419 30.4994 113.22 30.2451 113.114C30.171 113.084 30.0935 113.061 30 113.045V114.5Z" fill="currentColor"/>
</svg>
