<svg xmlns="http://www.w3.org/2000/svg" width="16" height="16" viewBox="19.95 110.95 16.1 16.1" fill="none">
  <path d="M27.9121 112C28.6572 112 29.164 111.992 29.6289 112.177C30.0934 112.361 30.4561 112.714 30.998 113.225L32.0634 114.229L34.1464 112.147C34.3417 111.951 34.6582 111.951 34.8535 112.147C35.0487 112.342 35.0487 112.658 34.8535 112.854L21.8535 125.854C21.6582 126.049 21.3417 126.049 21.1464 125.854C20.9512 125.658 20.9512 125.342 21.1464 125.147L22.1484 124.144C22.1199 124.021 22.0959 123.893 22.0781 123.761C21.9994 123.175 22 122.428 22 121.5V116.5C22 115.572 21.9994 114.825 22.0781 114.239C22.1588 113.639 22.3312 113.134 22.7324 112.732C23.1336 112.331 23.6392 112.159 24.2392 112.078C24.8248 111.999 25.5715 112 26.5 112H27.9121ZM26.5 113C25.5431 113 24.8756 113.001 24.372 113.068C23.883 113.134 23.6239 113.255 23.4394 113.439C23.2549 113.624 23.1341 113.883 23.0683 114.372C23.0006 114.876 23 115.543 23 116.5V121.5C23 122.24 23.0017 122.807 23.0332 123.259L29.5966 116.695C29.2346 116.422 29 115.989 29 115.5V113.038C28.7827 113.005 28.4746 113 27.9121 113H26.5ZM30 115.5C30 115.714 30.1355 115.896 30.3252 115.967L31.3554 114.937L30.3125 113.953C30.1945 113.842 30.0909 113.746 30 113.662V115.5Z" fill="currentColor"/>
  <path d="M33.6318 115.842C33.6942 115.938 33.7496 116.037 33.7949 116.142C34.0092 116.638 34 117.188 34 117.996V121.5C34 122.428 34.0005 123.175 33.9218 123.761C33.8412 124.361 33.6687 124.866 33.2675 125.268C32.8663 125.669 32.3607 125.841 31.7607 125.922C31.1751 126.001 30.4284 126 29.5 126H26.5C25.5715 126 24.8248 126.001 24.2392 125.922C24.0386 125.895 23.849 125.856 23.6699 125.804L24.5273 124.946C25.0113 124.996 25.638 125 26.5 125H29.5C30.4569 125 31.1243 124.999 31.6279 124.932C32.117 124.866 32.376 124.745 32.5605 124.561C32.7449 124.376 32.8658 124.117 32.9316 123.628C32.9993 123.124 33 122.457 33 121.5V117.996C33 117.528 32.9973 117.223 32.9785 117H32.4746L33.6318 115.842Z" fill="currentColor"/>
</svg>
