<svg xmlns="http://www.w3.org/2000/svg" width="16" height="16" viewBox="20.0 111.0 17.0 17.0" fill="none">
  <path d="M31.1465 120.146C31.3417 119.951 31.6583 119.951 31.8535 120.146C32.0488 120.342 32.0488 120.658 31.8535 120.854L30.707 122H32C33.1046 122 34 122.895 34 124C34 124.276 33.7761 124.5 33.5 124.5C33.2239 124.5 33 124.276 33 124C33 123.448 32.5523 123 32 123H30.707L31.8535 124.146C32.0488 124.342 32.0488 124.658 31.8535 124.854C31.6583 125.049 31.3417 125.049 31.1465 124.854L29.1465 122.854C28.9512 122.658 28.9512 122.342 29.1465 122.146L31.1465 120.146Z" fill="currentColor"/>
  <path d="M31.5 118C33.9853 118 36 120.015 36 122.5C36 124.985 33.9853 127 31.5 127C29.0147 127 27 124.985 27 122.5C27 120.015 29.0147 118 31.5 118ZM31.5 119C29.567 119 28 120.567 28 122.5C28 124.433 29.567 126 31.5 126C33.433 126 35 124.433 35 122.5C35 120.567 33.433 119 31.5 119Z" fill="currentColor"/>
  <path d="M28.5 112C29.4285 112 30.1751 111.999 30.7607 112.078C31.3608 112.159 31.8663 112.331 32.2676 112.732C32.6689 113.134 32.8412 113.639 32.9219 114.239C33.0006 114.825 33 115.572 33 116.5V117.208C32.6777 117.117 32.3435 117.054 32 117.023V116.5C32 115.543 31.9993 114.876 31.9316 114.372C31.8659 113.883 31.7451 113.624 31.5605 113.439C31.376 113.255 31.1171 113.134 30.6279 113.068C30.1244 113.001 29.4569 113 28.5 113H25.5C24.5431 113 23.8756 113.001 23.3721 113.068C22.8829 113.134 22.624 113.255 22.4395 113.439C22.2549 113.624 22.1341 113.883 22.0684 114.372C22.0007 114.876 22 115.543 22 116.5V121.5C22 122.457 22.0007 123.124 22.0684 123.628C22.1341 124.117 22.2549 124.376 22.4395 124.561C22.624 124.745 22.8829 124.866 23.3721 124.932C23.8756 124.999 24.5431 125 25.5 125H26.6016C26.7844 125.358 27.0043 125.693 27.2578 126H25.5C24.5715 126 23.8249 126.001 23.2393 125.922C22.6392 125.841 22.1337 125.669 21.7324 125.268C21.3311 124.866 21.1588 124.361 21.0781 123.761C20.9994 123.175 21 122.428 21 121.5V116.5C21 115.572 20.9994 114.825 21.0781 114.239C21.1588 113.639 21.3311 113.134 21.7324 112.732C22.1337 112.331 22.6392 112.159 23.2393 112.078C23.8249 111.999 24.5715 112 25.5 112H28.5Z" fill="currentColor"/>
  <path d="M26.0234 122C26.0086 122.165 26 122.331 26 122.5C26 122.669 26.0086 122.835 26.0234 123H23.5C23.2239 123 23 122.776 23 122.5C23 122.224 23.2239 122 23.5 122H26.0234Z" fill="currentColor"/>
  <path d="M26.6016 120C26.4395 120.317 26.3067 120.651 26.208 121H23.5C23.2239 121 23 120.776 23 120.5C23 120.224 23.2239 120 23.5 120H26.6016Z" fill="currentColor"/>
  <path d="M30 115C30.5523 115 31 115.448 31 116V117.023C30.6565 117.054 30.3223 117.117 30 117.208V116H24V118H28.3398C27.936 118.284 27.5716 118.62 27.2578 119H24C23.4823 119 23.0562 118.607 23.0049 118.103L23 118V116C23 115.448 23.4477 115 24 115H30Z" fill="currentColor"/>
</svg>
