<svg xmlns="http://www.w3.org/2000/svg" width="16" height="16" viewBox="20.0 111.0 17.0 17.0" fill="none">
  <path d="M32.5 119C33.193 119 33.7634 118.999 34.2129 119.06C34.6766 119.122 35.0861 119.258 35.4141 119.586C35.742 119.914 35.878 120.323 35.9404 120.787C36.0009 121.237 36 121.807 36 122.5V123.5C36 124.193 36.0009 124.763 35.9404 125.213C35.878 125.677 35.742 126.086 35.4141 126.414C35.0861 126.742 34.6767 126.878 34.2129 126.94C33.7634 127.001 33.193 127 32.5 127H30.5C29.807 127 29.2366 127.001 28.7871 126.94C28.3234 126.878 27.9139 126.742 27.5859 126.414C27.258 126.086 27.122 125.677 27.0596 125.213C26.9991 124.763 27 124.193 27 123.5V122.5C27 121.807 26.9991 121.237 27.0596 120.787C27.122 120.323 27.258 119.914 27.5859 119.586C27.9139 119.258 28.3234 119.122 28.7871 119.06C29.2366 118.999 29.807 119 30.5 119H32.5ZM32.4004 123.45C31.8671 123.85 31.1329 123.85 30.5996 123.45L28.0098 121.507C28.0013 121.781 28 122.106 28 122.5V123.5C28 124.221 28.0014 124.712 28.0508 125.079C28.0982 125.432 28.1817 125.596 28.293 125.707C28.4043 125.818 28.5679 125.902 28.9209 125.949C29.2883 125.999 29.7789 126 30.5 126H32.5C33.2211 126 33.7117 125.999 34.0791 125.949C34.4321 125.902 34.5957 125.818 34.707 125.707C34.8183 125.596 34.9018 125.432 34.9492 125.079C34.9986 124.712 35 124.221 35 123.5V122.5C35 122.106 34.9977 121.781 34.9893 121.507L32.4004 123.45ZM30.5 120C29.7789 120 29.2883 120.001 28.9209 120.051C28.5679 120.098 28.4043 120.182 28.293 120.293C28.2613 120.325 28.233 120.361 28.2061 120.404L31.2002 122.65C31.3778 122.783 31.6222 122.783 31.7998 122.65L34.793 120.404C34.7661 120.361 34.7385 120.324 34.707 120.293C34.5957 120.182 34.4321 120.098 34.0791 120.051C33.7117 120.001 33.2211 120 32.5 120H30.5Z" fill="currentColor"/>
  <path d="M28.5 112C29.4285 112 30.1751 111.999 30.7607 112.078C31.3608 112.159 31.8663 112.331 32.2676 112.732C32.6689 113.134 32.8412 113.639 32.9219 114.239C33.0006 114.825 33 115.572 33 116.5V118.004C32.8354 118.003 32.6682 118 32.5 118H32V116.5C32 115.543 31.9993 114.876 31.9316 114.372C31.8659 113.883 31.7451 113.624 31.5605 113.439C31.376 113.255 31.1171 113.134 30.6279 113.068C30.1244 113.001 29.4569 113 28.5 113H25.5C24.5431 113 23.8756 113.001 23.3721 113.068C22.8829 113.134 22.624 113.255 22.4395 113.439C22.2549 113.624 22.1341 113.883 22.0684 114.372C22.0007 114.876 22 115.543 22 116.5V121.5C22 122.457 22.0007 123.124 22.0684 123.628C22.1341 124.117 22.2549 124.376 22.4395 124.561C22.624 124.745 22.8829 124.866 23.3721 124.932C23.8756 124.999 24.5431 125 25.5 125H26.0342C26.0433 125.12 26.0535 125.235 26.0684 125.346C26.0966 125.556 26.1399 125.777 26.21 126H25.5C24.5715 126 23.8249 126.001 23.2393 125.922C22.6392 125.841 22.1337 125.669 21.7324 125.268C21.3311 124.866 21.1588 124.361 21.0781 123.761C20.9994 123.175 21 122.428 21 121.5V116.5C21 115.572 20.9994 114.825 21.0781 114.239C21.1588 113.639 21.3311 113.134 21.7324 112.732C22.1337 112.331 22.6392 112.159 23.2393 112.078C23.8249 111.999 24.5715 112 25.5 112H28.5Z" fill="currentColor"/>
  <path d="M26 122.5V123H23.5C23.2239 123 23 122.776 23 122.5C23 122.224 23.2239 122 23.5 122H26.0039C26.003 122.165 26 122.332 26 122.5Z" fill="currentColor"/>
  <path d="M26.21 120C26.1399 120.223 26.0966 120.444 26.0684 120.654C26.0535 120.765 26.0433 120.88 26.0342 121H23.5C23.2239 121 23 120.776 23 120.5C23 120.224 23.2239 120 23.5 120H26.21Z" fill="currentColor"/>
  <path d="M30 115C30.5523 115 31 115.448 31 116V118H30.5C29.8353 118 29.1859 117.997 28.6543 118.068C28.0795 118.146 27.4237 118.334 26.8789 118.879C26.8398 118.918 26.805 118.96 26.7695 119H24C23.4823 119 23.0562 118.607 23.0049 118.103L23 118V116C23 115.448 23.4477 115 24 115H30ZM24 118H30V116H24V118Z" fill="currentColor"/>
</svg>
