<svg xmlns="http://www.w3.org/2000/svg" width="16" height="16" viewBox="20.5 110.99 17.01 17.01" fill="none">
  <path d="M34.0947 118.005C34.3071 118.028 34.4768 118.125 34.6113 118.228C34.7536 118.336 34.9057 118.491 35.0625 118.648L35.3564 118.943C35.5125 119.1 35.6663 119.252 35.7744 119.394C35.8913 119.547 36.0009 119.747 36.001 120.003C36.0008 120.259 35.8912 120.458 35.7744 120.611C35.6663 120.753 35.5125 120.906 35.3564 121.063L35.0625 121.356C34.9058 121.514 34.7535 121.669 34.6113 121.777C34.5768 121.804 34.5393 121.829 34.5 121.854V123.065C35.3623 123.288 35.9999 124.068 36 125C36 126.105 35.1046 127 34 127C32.8954 127 32 126.105 32 125C32.0001 124.068 32.6377 123.288 33.5 123.065V121.852C33.4615 121.828 33.4245 121.803 33.3906 121.777C33.2484 121.669 33.0962 121.514 32.9395 121.356L32.6445 121.063C32.4885 120.906 32.3357 120.753 32.2275 120.611C32.2011 120.577 32.175 120.54 32.1504 120.5H30.9346C30.7536 121.202 30.2022 121.753 29.5 121.934V123C29.7215 123 29.938 122.999 30.1152 123.023C30.3068 123.048 30.5254 123.111 30.707 123.293C30.8886 123.475 30.9518 123.693 30.9775 123.885C31.0014 124.062 31 124.279 31 124.5V125.5C31 125.722 31.0013 125.938 30.9775 126.115C30.9518 126.307 30.8886 126.525 30.707 126.707C30.5254 126.889 30.3068 126.952 30.1152 126.978C29.938 127.001 29.7215 127 29.5 127H28.5C28.2785 127 28.062 127.001 27.8848 126.978C27.6932 126.952 27.4746 126.889 27.293 126.707C27.1114 126.525 27.0482 126.307 27.0225 126.115C26.9987 125.938 27 125.722 27 125.5V124.5C27 124.279 26.9986 124.062 27.0225 123.885C27.0482 123.693 27.1114 123.475 27.293 123.293C27.4746 123.111 27.6932 123.048 27.8848 123.023C28.062 122.999 28.2785 123 28.5 123V121.934C27.6378 121.711 27 120.932 27 120C27.0001 118.896 27.8955 118 29 118C29.9317 118 30.7123 118.638 30.9346 119.5H32.1533C32.177 119.462 32.2022 119.427 32.2275 119.394C32.3355 119.252 32.4887 119.1 32.6445 118.943L32.9395 118.648C33.0961 118.491 33.2485 118.336 33.3906 118.228C33.5443 118.11 33.744 118 34.001 118L34.0947 118.005ZM28.5 124C28.2502 124 28.1127 124.001 28.0176 124.014H28.0137V124.018C28.0009 124.113 28 124.25 28 124.5V125.5C28 125.75 28.0009 125.887 28.0137 125.982V125.985L28.0176 125.986C28.1127 125.999 28.2502 126 28.5 126H29.5C29.7498 126 29.8873 125.999 29.9824 125.986L29.9854 125.985L29.9863 125.982C29.9991 125.887 30 125.75 30 125.5V124.5C30 124.25 29.9991 124.113 29.9863 124.018L29.9854 124.014H29.9824C29.8873 124.001 29.7498 124 29.5 124H28.5ZM34 124C33.4478 124 33.0001 124.448 33 125C33 125.552 33.4477 126 34 126C34.5523 126 35 125.552 35 125C34.9999 124.448 34.5522 124 34 124ZM29 119C28.4478 119 28.0001 119.448 28 120C28 120.552 28.4477 121 29 121C29.5523 121 30 120.552 30 120C29.9999 119.448 29.5522 119 29 119ZM33.998 119.023C33.9217 119.081 33.823 119.178 33.6465 119.355L33.3525 119.649C33.1767 119.826 33.0804 119.924 33.0225 120L33.0205 120.002L33.0225 120.006C33.0805 120.082 33.1767 120.179 33.3525 120.356L33.6465 120.65C33.8232 120.828 33.9217 120.924 33.998 120.982L34 120.984L34.0039 120.982C34.0802 120.924 34.1781 120.827 34.3545 120.65L34.6484 120.356C34.824 120.18 34.9205 120.082 34.9785 120.006L34.9805 120.002L34.9785 120C34.9205 119.924 34.8245 119.826 34.6484 119.649L34.3545 119.355C34.1779 119.178 34.0803 119.081 34.0039 119.023L34 119.02L33.998 119.023Z" fill="currentColor"/>
  <path d="M27.9121 112C28.6573 112 29.164 111.992 29.6289 112.177C30.0934 112.361 30.4562 112.714 30.998 113.225L32.5859 114.721C33.1741 115.275 33.5806 115.646 33.7949 116.142C33.9078 116.403 33.9566 116.68 33.9795 117.001C33.5643 117.006 33.2324 117.143 32.9912 117.289C32.988 117.178 32.9823 117.083 32.9756 117H30.5C29.6716 117 29 116.328 29 115.5V113.038C28.7827 113.005 28.4746 113 27.9121 113H26.5C25.5431 113 24.8756 113.001 24.3721 113.068C23.883 113.134 23.624 113.255 23.4395 113.439C23.255 113.624 23.1341 113.883 23.0684 114.372C23.0007 114.876 23 115.543 23 116.5V121.5C23 122.457 23.0007 123.124 23.0684 123.628C23.1341 124.117 23.255 124.376 23.4395 124.561C23.624 124.745 23.8829 124.866 24.3721 124.932C24.7829 124.987 25.3028 124.994 26 124.996V125C26 125.306 25.9974 125.678 26.0381 125.999C25.3201 125.997 24.7244 125.987 24.2393 125.922C23.6392 125.841 23.1337 125.669 22.7324 125.268C22.3312 124.866 22.1588 124.361 22.0781 123.761C21.9995 123.175 22 122.428 22 121.5V116.5C22 115.572 21.9994 114.825 22.0781 114.239C22.1588 113.639 22.3312 113.134 22.7324 112.732C23.1337 112.331 23.6393 112.159 24.2393 112.078C24.8249 111.999 25.5715 112 26.5 112H27.9121ZM30 115.5C30 115.776 30.2239 116 30.5 116H32.4678C32.3286 115.858 32.1467 115.681 31.9004 115.449L30.3125 113.953C30.1945 113.842 30.0909 113.746 30 113.662V115.5Z" fill="currentColor"/>
</svg>
