<svg xmlns="http://www.w3.org/2000/svg" width="16" height="16" viewBox="20.5 110.99 17.01 17.01" fill="none">
  <path d="M31.5 122C32.3284 122 33 122.672 33 123.5C33 124.328 32.3284 125 31.5 125C30.6716 125 30 124.328 30 123.5C30 122.672 30.6716 122 31.5 122ZM31.5 123C31.2239 123 31 123.224 31 123.5C31 123.776 31.2239 124 31.5 124C31.7761 124 32 123.776 32 123.5C32 123.224 31.7761 123 31.5 123Z" fill="currentColor"/>
  <path d="M31.5 120C32.6394 120 33.6708 120.474 34.4512 121.113C35.2248 121.748 35.8025 122.587 35.9873 123.388C36.0043 123.462 36.0043 123.538 35.9873 123.612C35.8009 124.42 35.1967 125.26 34.4053 125.891C33.6059 126.528 32.5547 127 31.417 127C30.2759 127 29.2634 126.525 28.502 125.882C27.7466 125.244 27.1957 124.405 27.0127 123.612C26.9957 123.538 26.9957 123.462 27.0127 123.388C27.1974 122.587 27.7744 121.748 28.5479 121.113C29.3283 120.473 30.3605 120 31.5 120ZM31.5 121C30.6396 121 29.8252 121.36 29.1826 121.887C28.5784 122.382 28.1725 122.989 28.0195 123.5C28.1717 124.018 28.5631 124.626 29.1465 125.118C29.7666 125.642 30.5586 126 31.417 126C32.2792 126 33.1173 125.639 33.7822 125.109C34.4081 124.611 34.8262 124.003 34.9795 123.498C34.8261 122.987 34.4208 122.381 33.8174 121.887C33.1748 121.36 32.3604 121 31.5 121Z" fill="currentColor"/>
  <path d="M27.9121 112C28.6573 112 29.164 111.992 29.6289 112.177C30.0934 112.361 30.4561 112.714 30.998 113.225L32.5859 114.721C33.1741 115.275 33.5806 115.645 33.7949 116.142C34.0092 116.638 34 117.188 34 117.996V119.625C33.6865 119.463 33.3521 119.325 33 119.221V117.996C33 117.528 32.9973 117.223 32.9785 117H30.5C29.6716 117 29 116.328 29 115.5V113.038C28.7827 113.005 28.4746 113 27.9121 113H26.5C25.5431 113 24.8756 113.001 24.3721 113.068C23.883 113.134 23.624 113.255 23.4395 113.439C23.255 113.624 23.1341 113.883 23.0684 114.372C23.0007 114.876 23 115.543 23 116.5V121.5C23 122.457 23.0007 123.124 23.0684 123.628C23.1341 124.117 23.255 124.376 23.4395 124.561C23.624 124.745 23.8829 124.866 24.3721 124.932C24.8743 124.999 25.5394 124.999 26.4922 124.999C26.6868 125.352 26.9267 125.689 27.1992 126H26.5C25.5715 126 24.8249 126.001 24.2393 125.922C23.6392 125.841 23.1337 125.669 22.7324 125.268C22.3312 124.866 22.1588 124.361 22.0781 123.761C21.9995 123.175 22 122.428 22 121.5V116.5C22 115.572 21.9994 114.825 22.0781 114.239C22.1588 113.639 22.3312 113.134 22.7324 112.732C23.1337 112.331 23.6392 112.159 24.2393 112.078C24.8249 111.999 25.5715 112 26.5 112H27.9121ZM30 115.5C30 115.776 30.2239 116 30.5 116H32.4678C32.3286 115.858 32.1467 115.681 31.9004 115.449L30.3125 113.953C30.1945 113.842 30.0909 113.746 30 113.662V115.5Z" fill="currentColor"/>
</svg>
