<svg xmlns="http://www.w3.org/2000/svg" width="16" height="16" viewBox="20.0 109.99 16.01 16.01" fill="none">
  <path d="M25.7549 116.257C26.1312 116.097 26.4826 116.182 26.6553 116.238C26.8384 116.298 27.0388 116.402 27.1709 116.468L29.5527 117.658C29.7174 117.741 29.9449 117.852 30.1172 117.972C30.2835 118.088 30.6914 118.412 30.6914 119C30.6914 119.588 30.2835 119.912 30.1172 120.028C29.9449 120.149 29.7174 120.259 29.5527 120.342L27.1709 121.532C27.0388 121.598 26.8384 121.702 26.6553 121.762C26.458 121.826 26.0274 121.928 25.5928 121.659C25.1581 121.391 25.0559 120.96 25.0254 120.755C24.9971 120.564 25 120.339 25 120.191V117.809C25 117.661 24.9971 117.436 25.0254 117.245C25.0559 117.04 25.1581 116.61 25.5928 116.341L25.7549 116.257ZM26.7236 117.361C26.3994 117.199 26.2367 117.118 26.1182 117.191C25.9998 117.265 26 117.446 26 117.809V120.191L26.002 120.43C26.0075 120.637 26.0293 120.754 26.1182 120.809C26.2071 120.864 26.3208 120.831 26.5088 120.743L26.7236 120.639L29.1055 119.447C29.4468 119.277 29.6388 119.18 29.6816 119.056L29.6914 119C29.6914 118.846 29.4957 118.748 29.1055 118.553L26.7236 117.361Z" fill="currentColor"/>
  <path d="M27.9121 111C28.6573 111 29.164 110.992 29.6289 111.177C30.0935 111.361 30.4561 111.714 30.998 112.225L32.5859 113.721C33.1742 114.275 33.5806 114.645 33.7949 115.142C34.0092 115.638 34 116.188 34 116.996V120.5C34 121.428 34.0006 122.175 33.9219 122.761C33.8412 123.361 33.6688 123.866 33.2676 124.268C32.8663 124.669 32.3608 124.841 31.7607 124.922C31.1751 125.001 30.4285 125 29.5 125H26.5C25.5715 125 24.8249 125.001 24.2393 124.922C23.6392 124.841 23.1337 124.669 22.7324 124.268C22.3312 123.866 22.1588 123.361 22.0781 122.761C21.9994 122.175 22 121.428 22 120.5V115.5C22 114.572 21.9994 113.825 22.0781 113.239C22.1588 112.639 22.3312 112.134 22.7324 111.732C23.1337 111.331 23.6392 111.159 24.2393 111.078C24.8249 110.999 25.5715 111 26.5 111H27.9121ZM26.5 112C25.5431 112 24.8756 112.001 24.3721 112.068C23.8829 112.134 23.624 112.255 23.4395 112.439C23.255 112.624 23.1341 112.883 23.0684 113.372C23.0007 113.876 23 114.543 23 115.5V120.5C23 121.457 23.0007 122.124 23.0684 122.628C23.1341 123.117 23.255 123.376 23.4395 123.561C23.624 123.745 23.8829 123.866 24.3721 123.932C24.8756 123.999 25.5431 124 26.5 124H29.5C30.4569 124 31.1244 123.999 31.6279 123.932C32.1171 123.866 32.376 123.745 32.5605 123.561C32.745 123.376 32.8659 123.117 32.9316 122.628C32.9993 122.124 33 121.457 33 120.5V116.996C33 116.528 32.9973 116.223 32.9785 116H30.5C29.6716 116 29 115.328 29 114.5V112.038C28.7827 112.005 28.4747 112 27.9121 112H26.5ZM30 114.5C30 114.776 30.2239 115 30.5 115H32.4678C32.3286 114.858 32.1467 114.681 31.9004 114.449L30.3125 112.953C30.1945 112.842 30.0909 112.746 30 112.662V114.5Z" fill="currentColor"/>
</svg>
