<svg xmlns="http://www.w3.org/2000/svg" width="16" height="16" viewBox="20.47 110.99 17.06 17.06" fill="none">
  <path d="M32.5 118C34.433 118 36 119.567 36 121.5C36 123.433 34.433 125 32.5 125C31.7138 125 30.9886 124.74 30.4043 124.303L27.8535 126.854C27.6583 127.049 27.3417 127.049 27.1465 126.854C26.9512 126.658 26.9512 126.342 27.1465 126.147L29.6973 123.596C29.2597 123.011 29 122.286 29 121.5C29 119.567 30.567 118 32.5 118ZM32.5 119C31.1193 119 30 120.119 30 121.5C30 122.881 31.1193 124 32.5 124C33.8807 124 35 122.881 35 121.5C35 120.119 33.8807 119 32.5 119Z" fill="currentColor"/>
  <path d="M27.9121 112C28.6573 112 29.164 111.992 29.6289 112.177C30.0934 112.361 30.4562 112.714 30.998 113.225L32.5859 114.721C33.1741 115.275 33.5806 115.646 33.7949 116.142C33.9365 116.47 33.9786 116.821 33.9922 117.255C33.6697 117.142 33.3309 117.063 32.9795 117.025C32.9788 117.017 32.9792 117.008 32.9785 117H30.5C29.6716 117 29 116.328 29 115.5V113.038C28.7827 113.005 28.4746 113 27.9121 113H26.5C25.5431 113 24.8756 113.001 24.3721 113.068C23.883 113.134 23.624 113.255 23.4395 113.439C23.255 113.624 23.1341 113.883 23.0684 114.372C23.0007 114.876 23 115.543 23 116.5V121.5C23 122.457 23.0007 123.124 23.0684 123.628C23.1341 124.117 23.255 124.376 23.4395 124.561C23.624 124.745 23.8829 124.866 24.3721 124.932C24.8756 124.999 25.5431 125 26.5 125H26.8789L26.4395 125.439C26.2761 125.603 26.1592 125.795 26.0869 125.999C25.347 125.998 24.7354 125.989 24.2393 125.922C23.6392 125.841 23.1337 125.669 22.7324 125.268C22.3312 124.866 22.1588 124.361 22.0781 123.761C21.9995 123.175 22 122.428 22 121.5V116.5C22 115.572 21.9994 114.825 22.0781 114.239C22.1588 113.639 22.3312 113.134 22.7324 112.732C23.1337 112.331 23.6393 112.159 24.2393 112.078C24.8249 111.999 25.5715 112 26.5 112H27.9121ZM30 115.5C30 115.776 30.2239 116 30.5 116H32.4678C32.3286 115.858 32.1467 115.681 31.9004 115.449L30.3125 113.953C30.1945 113.842 30.0909 113.746 30 113.662V115.5Z" fill="currentColor"/>
  <path d="M26 120C26.4649 120 26.6979 120 26.8887 120.051C27.406 120.19 27.8104 120.594 27.9492 121.111C28.0003 121.302 28 121.535 28 122C28 122.465 28.0003 122.698 27.9492 122.889L27.8848 123.077C27.7074 123.503 27.3413 123.828 26.8887 123.949L26.7344 123.979C26.5667 124 26.3487 124 26 124C25.6513 124 25.4333 124 25.2656 123.979L25.1113 123.949C24.6587 123.828 24.2926 123.503 24.1152 123.077L24.0508 122.889C23.9997 122.698 24 122.465 24 122C24 121.535 23.9997 121.302 24.0508 121.111C24.1896 120.594 24.594 120.19 25.1113 120.051C25.3021 120 25.5351 120 26 120ZM25.499 121.005C25.402 121.009 25.3701 121.017 25.3701 121.017C25.1979 121.063 25.0629 121.198 25.0166 121.37C25.0166 121.37 25.0094 121.401 25.0049 121.499C24.9998 121.611 25 121.759 25 122C25 122.241 24.9998 122.389 25.0049 122.501C25.0092 122.596 25.0159 122.627 25.0166 122.63C25.0629 122.802 25.1979 122.937 25.3701 122.983C25.3701 122.983 25.4006 122.991 25.499 122.995C25.611 123 25.7588 123 26 123C26.2412 123 26.389 123 26.501 122.995C26.5994 122.991 26.6299 122.983 26.6299 122.983C26.8021 122.937 26.9371 122.802 26.9834 122.63C26.9841 122.627 26.9908 122.596 26.9951 122.501C27.0002 122.389 27 122.241 27 122C27 121.759 27.0002 121.611 26.9951 121.499C26.9906 121.401 26.9834 121.37 26.9834 121.37C26.9371 121.198 26.8021 121.063 26.6299 121.017C26.6299 121.017 26.598 121.009 26.501 121.005C26.389 121 26.2412 121 26 121C25.7588 121 25.611 121 25.499 121.005Z" fill="currentColor"/>
  <path d="M27.1465 116.147C27.3417 115.951 27.6583 115.951 27.8535 116.147C28.0487 116.342 28.0487 116.658 27.8535 116.854L25.8535 118.854C25.6583 119.049 25.3417 119.049 25.1465 118.854L24.1465 117.854C23.9513 117.658 23.9513 117.342 24.1465 117.147C24.3417 116.951 24.6583 116.951 24.8535 117.147L25.5 117.793L27.1465 116.147Z" fill="currentColor"/>
</svg>
