<svg xmlns="http://www.w3.org/2000/svg" width="16" height="16" viewBox="19.88 111.0 17.24 17.24" fill="none">
  <path d="M32.4434 118.005C34.4245 118.106 35.9999 119.744 36 121.75C36 123.821 34.3211 125.5 32.25 125.5H30.75C30.7324 125.5 30.7148 125.498 30.6973 125.498L29.2529 126.807C28.7708 127.243 28.0003 126.901 28 126.251V124.298C27.3804 123.629 27.0001 122.734 27 121.75C27 119.679 28.6789 118 30.75 118H32.25L32.4434 118.005ZM30.75 119C29.2312 119 28 120.231 28 121.75C28 122.498 28.2978 123.175 28.7822 123.671C28.9149 123.807 29 123.995 29 124.202V125.687L30.0996 124.692L30.1592 124.644C30.3025 124.538 30.4744 124.492 30.6406 124.498L30.75 124.5H32.25C33.7688 124.5 35 123.269 35 121.75C34.9999 120.326 33.9178 119.156 32.5312 119.015L32.25 119H30.75Z" fill="currentColor"/>
  <path d="M28.5 112C29.4285 112 30.1751 111.999 30.7607 112.078C31.3608 112.159 31.8663 112.331 32.2676 112.732C32.6689 113.134 32.8412 113.639 32.9219 114.239C33.0006 114.825 33 115.572 33 116.5V117.059C32.7557 117.02 32.5052 117 32.25 117H32V116.5C32 115.543 31.9993 114.876 31.9316 114.372C31.8659 113.883 31.7451 113.624 31.5605 113.439C31.376 113.255 31.1171 113.134 30.6279 113.068C30.1244 113.001 29.4569 113 28.5 113H25.5C24.5431 113 23.8756 113.001 23.3721 113.068C22.8829 113.134 22.624 113.255 22.4395 113.439C22.2549 113.624 22.1341 113.883 22.0684 114.372C22.0007 114.876 22 115.543 22 116.5V121.5C22 122.457 22.0007 123.124 22.0684 123.628C22.1341 124.117 22.2549 124.376 22.4395 124.561C22.624 124.745 22.8829 124.866 23.3721 124.932C23.8756 124.999 24.5431 125 25.5 125H27V126H25.5C24.5715 126 23.8249 126.001 23.2393 125.922C22.6392 125.841 22.1337 125.669 21.7324 125.268C21.3311 124.866 21.1588 124.361 21.0781 123.761C20.9994 123.175 21 122.428 21 121.5V116.5C21 115.572 20.9994 114.825 21.0781 114.239C21.1588 113.639 21.3311 113.134 21.7324 112.732C22.1337 112.331 22.6392 112.159 23.2393 112.078C23.8249 111.999 24.5715 112 25.5 112H28.5Z" fill="currentColor"/>
  <path d="M26.0068 122C26.0248 122.344 26.0802 122.679 26.168 123H23.5C23.2239 123 23 122.776 23 122.5C23 122.224 23.2239 122 23.5 122H26.0068Z" fill="currentColor"/>
  <path d="M26.334 120C26.2079 120.318 26.1147 120.653 26.0596 121H23.5C23.2239 121 23 120.776 23 120.5C23 120.224 23.2239 120 23.5 120H26.334Z" fill="currentColor"/>
  <path d="M30 115C30.5523 115 31 115.448 31 116V117H30.75C30.4948 117 30.2443 117.02 30 117.059V116H24V118H27.8359C27.47 118.285 27.1471 118.622 26.8779 119H24C23.4823 119 23.0562 118.607 23.0049 118.103L23 118V116C23 115.448 23.4477 115 24 115H30Z" fill="currentColor"/>
</svg>
