<svg xmlns="http://www.w3.org/2000/svg" width="16" height="16" viewBox="20.0 111.0 17.0 17.0" fill="none">
  <path d="M32.2354 118C32.5594 118 32.8642 118.153 33.0586 118.412L35.75 122C35.9123 122.216 36 122.48 36 122.75C36 123.44 35.4404 124 34.75 124H34.1943L34.7422 125.645C34.9644 126.311 34.4675 127 33.7646 127C33.4406 127 33.1358 126.847 32.9414 126.588L30.25 123C30.0877 122.784 30 122.52 30 122.25C30 121.56 30.5596 121 31.25 121H31.8057L31.2578 119.355C31.0356 118.689 31.5325 118 32.2354 118ZM32.2217 119.003C32.2184 119.005 32.2144 119.008 32.2109 119.013C32.2076 119.017 32.2057 119.022 32.2051 119.025C32.2046 119.028 32.2047 119.032 32.207 119.039L32.9746 121.342C33.0254 121.494 32.9992 121.662 32.9053 121.792C32.8113 121.922 32.6607 122 32.5 122H31.25C31.1119 122 31 122.112 31 122.25C31 122.304 31.0173 122.357 31.0498 122.4L33.7412 125.988C33.7468 125.996 33.7554 126 33.7646 126C33.772 126 33.7759 125.998 33.7783 125.997C33.7816 125.995 33.7856 125.992 33.7891 125.987C33.7924 125.983 33.7943 125.978 33.7949 125.975C33.7954 125.972 33.7953 125.968 33.793 125.961L33.0254 123.658C32.9746 123.506 33.0008 123.338 33.0947 123.208C33.1887 123.078 33.3393 123 33.5 123H34.75C34.8881 123 35 122.888 35 122.75C35 122.696 34.9827 122.643 34.9502 122.6L32.2588 119.012C32.2532 119.004 32.2446 119 32.2354 119C32.228 119 32.2241 119.002 32.2217 119.003Z" fill="currentColor"/>
  <path d="M28.5 112C29.4285 112 30.1751 111.999 30.7607 112.078C31.3608 112.159 31.8663 112.331 32.2676 112.732C32.6689 113.134 32.8412 113.639 32.9219 114.239C33.0006 114.825 33 115.572 33 116.5V117.149C32.8323 117.081 32.655 117.035 32.4727 117.014L32.2354 117C32.1555 117 32.077 117.005 32 117.014V116.5C32 115.543 31.9993 114.876 31.9316 114.372C31.8659 113.883 31.7451 113.624 31.5605 113.439C31.376 113.255 31.1171 113.134 30.6279 113.068C30.1244 113.001 29.4569 113 28.5 113H25.5C24.5431 113 23.8756 113.001 23.3721 113.068C22.8829 113.134 22.624 113.255 22.4395 113.439C22.2549 113.624 22.1341 113.883 22.0684 114.372C22.0007 114.876 22 115.543 22 116.5V121.5C22 122.457 22.0007 123.124 22.0684 123.628C22.1341 124.117 22.2549 124.376 22.4395 124.561C22.624 124.745 22.8829 124.866 23.3721 124.932C23.8756 124.999 24.5431 125 25.5 125H28.5C29.3544 125 29.9777 124.996 30.46 124.947L31.1387 125.853C31.0171 125.88 30.8914 125.904 30.7607 125.922C30.1751 126.001 29.4285 126 28.5 126H25.5C24.5715 126 23.8249 126.001 23.2393 125.922C22.6392 125.841 22.1337 125.669 21.7324 125.268C21.3311 124.866 21.1588 124.361 21.0781 123.761C20.9994 123.175 21 122.428 21 121.5V116.5C21 115.572 20.9994 114.825 21.0781 114.239C21.1588 113.639 21.3311 113.134 21.7324 112.732C22.1337 112.331 22.6392 112.159 23.2393 112.078C23.8249 111.999 24.5715 112 25.5 112H28.5Z" fill="currentColor"/>
  <path d="M29 122.25C29 122.507 29.0451 122.761 29.1299 123H23.5C23.2239 123 23 122.776 23 122.5C23 122.224 23.2239 122 23.5 122H29.0156C29.0065 122.082 29 122.165 29 122.25Z" fill="currentColor"/>
  <path d="M30.4668 120.143C30.021 120.308 29.643 120.612 29.3818 121H23.5C23.2239 121 23 120.776 23 120.5C23 120.224 23.2239 120 23.5 120H30.4189L30.4668 120.143Z" fill="currentColor"/>
  <path d="M30 115C30.5523 115 31 115.448 31 116V117.422C30.5237 117.79 30.2214 118.359 30.2061 118.978C30.1395 118.992 30.0707 119 30 119H24C23.4823 119 23.0562 118.607 23.0049 118.103L23 118V116C23 115.448 23.4477 115 24 115H30ZM24 118H30V116H24V118Z" fill="currentColor"/>
</svg>
