<svg xmlns="http://www.w3.org/2000/svg" width="16" height="16" viewBox="20.0 111.0 17.0 17.0" fill="none">
  <path d="M32.502 120C32.6978 120 32.876 120.115 32.957 120.293C33.2775 120.998 33.4135 121.293 33.5918 121.548C33.8268 121.884 34.1189 122.176 34.4551 122.411C34.7101 122.589 35.0049 122.725 35.71 123.046C35.8884 123.127 36.0029 123.306 36.0029 123.502C36.0027 123.698 35.8883 123.876 35.71 123.957C35.0049 124.278 34.7101 124.414 34.4551 124.592C34.1189 124.827 33.8268 125.119 33.5918 125.455C33.4135 125.71 33.2775 126.005 32.957 126.71C32.876 126.888 32.6978 127.003 32.502 127.003C32.3059 127.003 32.127 126.888 32.0459 126.71C31.7254 126.005 31.5894 125.71 31.4111 125.455C31.1762 125.119 30.884 124.827 30.5479 124.592C30.2928 124.414 29.998 124.278 29.293 123.957C29.1146 123.876 29.0002 123.698 29 123.502C29 123.306 29.1145 123.127 29.293 123.046C29.998 122.725 30.2928 122.589 30.5479 122.411C30.884 122.176 31.1762 121.884 31.4111 121.548C31.5894 121.293 31.7254 120.998 32.0459 120.293L32.0811 120.229C32.1721 120.088 32.3303 120 32.502 120ZM32.501 121.664C32.4123 121.833 32.3288 121.982 32.2314 122.121C31.9293 122.553 31.5534 122.929 31.1211 123.231C30.9818 123.329 30.8331 123.412 30.6641 123.501C30.8332 123.59 30.9817 123.674 31.1211 123.771C31.5534 124.074 31.9293 124.45 32.2314 124.882C32.3287 125.021 32.4125 125.169 32.501 125.338C32.5896 125.169 32.6742 125.021 32.7715 124.882C33.0736 124.45 33.4496 124.074 33.8818 123.771C34.0211 123.674 34.169 123.59 34.3379 123.501C34.1692 123.412 34.0209 123.329 33.8818 123.231C33.4496 122.929 33.0736 122.553 32.7715 122.121C32.674 121.982 32.5897 121.833 32.501 121.664Z" fill="currentColor"/>
  <path d="M28.5 112C29.4285 112 30.1751 111.999 30.7607 112.078C31.3608 112.159 31.8663 112.331 32.2676 112.732C32.6689 113.134 32.8412 113.639 32.9219 114.239C33.0006 114.825 33 115.572 33 116.5V119.086C32.8762 119.042 32.7462 119.014 32.6123 119.004L32.5029 119C32.3286 119 32.1588 119.032 32 119.089V116.5C32 115.543 31.9993 114.876 31.9316 114.372C31.8659 113.883 31.7451 113.624 31.5605 113.439C31.376 113.255 31.1171 113.134 30.6279 113.068C30.1244 113.001 29.4569 113 28.5 113H25.5C24.5431 113 23.8756 113.001 23.3721 113.068C22.8829 113.134 22.624 113.255 22.4395 113.439C22.2549 113.624 22.1341 113.883 22.0684 114.372C22.0007 114.876 22 115.543 22 116.5V121.5C22 122.457 22.0007 123.124 22.0684 123.628C22.1341 124.117 22.2549 124.376 22.4395 124.561C22.624 124.745 22.8829 124.866 23.3721 124.932C23.8756 124.999 24.5431 125 25.5 125H28.5C28.7349 125 28.9524 124.996 29.1543 124.995C29.6704 125.232 29.8351 125.314 29.9746 125.411C30.1871 125.56 30.3734 125.742 30.5303 125.948C29.9829 126.001 29.3108 126 28.5 126H25.5C24.5715 126 23.8249 126.001 23.2393 125.922C22.6392 125.841 22.1337 125.669 21.7324 125.268C21.3311 124.866 21.1588 124.361 21.0781 123.761C20.9994 123.175 21 122.428 21 121.5V116.5C21 115.572 20.9994 114.825 21.0781 114.239C21.1588 113.639 21.3311 113.134 21.7324 112.732C22.1337 112.331 22.6392 112.159 23.2393 112.078C23.8249 111.999 24.5715 112 25.5 112H28.5Z" fill="currentColor"/>
  <path d="M28.8789 122.136C28.5009 122.308 28.2204 122.624 28.0869 123H23.5C23.2239 123 23 122.776 23 122.5C23 122.224 23.2239 122 23.5 122H29.1709L28.8789 122.136Z" fill="currentColor"/>
  <path d="M30.5 120C30.6975 120 30.867 120.115 30.9482 120.281C30.7555 120.698 30.6807 120.847 30.5918 120.975C30.5874 120.981 30.5816 120.986 30.5771 120.992C30.5519 120.996 30.5263 121 30.5 121H23.5C23.2239 121 23 120.776 23 120.5C23 120.224 23.2239 120 23.5 120H30.5Z" fill="currentColor"/>
  <path d="M30 115C30.5523 115 31 115.448 31 116V118C31 118.552 30.5523 119 30 119H24C23.4477 119 23 118.552 23 118V116C23 115.448 23.4477 115 24 115H30ZM24 118H30V116H24V118Z" fill="currentColor"/>
</svg>
