<svg xmlns="http://www.w3.org/2000/svg" width="16" height="16" viewBox="20.0 110.99 16.01 16.01" fill="none">
  <path d="M28.8428 112C29.6193 112 30.1472 111.991 30.628 112.19C31.1087 112.39 31.4762 112.769 32.0254 113.318L32.6817 113.975C33.2309 114.524 33.6104 114.891 33.8096 115.372C34.0086 115.853 34 116.381 34 117.157V119.5C34 120.428 34.0006 121.175 33.9219 121.761C33.8412 122.361 33.6689 122.866 33.2676 123.268C32.9132 123.622 32.4772 123.797 31.9668 123.889C31.7904 125.013 30.8736 125.885 29.7266 125.989C29.6081 126 29.4727 126 29.2696 126H26.5C25.5715 126 24.8249 126.001 24.2393 125.922C23.6392 125.841 23.1337 125.669 22.7324 125.268C22.3312 124.866 22.1588 124.361 22.0781 123.761C21.9995 123.175 22 122.428 22 121.5V117C22 116.56 21.9975 116.266 22.0479 116.013C22.2452 115.021 23.021 114.245 24.0127 114.048C24.0445 114.041 24.0772 114.038 24.1104 114.033C24.2022 113.523 24.378 113.087 24.7324 112.732C25.1337 112.331 25.6392 112.159 26.2393 112.078C26.8249 111.999 27.5715 112 28.5 112H28.8428ZM24.0166 115.081C23.5149 115.252 23.1348 115.677 23.0293 116.207C23.0029 116.34 23 116.511 23 117V121.5C23 122.457 23.0007 123.124 23.0684 123.628C23.1341 124.117 23.255 124.376 23.4395 124.56C23.624 124.745 23.8829 124.866 24.3721 124.932C24.8756 124.999 25.5431 125 26.5 125H29.2696C29.4945 125 29.5738 125 29.6358 124.994C30.2362 124.94 30.7316 124.534 30.919 123.983C30.5029 123.998 30.0313 124 29.5 124H28.5C27.5715 124 26.8249 124.001 26.2393 123.922C25.6392 123.841 25.1337 123.669 24.7324 123.268C24.3312 122.866 24.1588 122.361 24.0781 121.761C23.9995 121.175 24 120.428 24 119.5V116.5C24 115.969 24.002 115.497 24.0166 115.081ZM28.5 113C27.5431 113 26.8756 113.001 26.3721 113.068C25.8829 113.134 25.624 113.255 25.4395 113.439C25.255 113.624 25.1342 113.883 25.0684 114.372C25.0007 114.876 25 115.543 25 116.5V119.5C25 120.457 25.0007 121.124 25.0684 121.628C25.1341 122.117 25.255 122.376 25.4395 122.56C25.624 122.745 25.8829 122.866 26.3721 122.932C26.8756 122.999 27.5431 123 28.5 123H29.5C30.4569 123 31.1244 122.999 31.628 122.932C32.1171 122.866 32.3761 122.745 32.5606 122.56C32.7451 122.376 32.8659 122.117 32.9317 121.628C32.9994 121.124 33 120.457 33 119.5V117.157C33 117.102 32.9991 117.05 32.999 117H31.5C31.0428 117 30.6493 117.001 30.336 116.959C30.0083 116.915 29.6943 116.815 29.4395 116.56C29.1847 116.306 29.0851 115.992 29.041 115.664C28.9989 115.351 29 114.957 29 114.5V113H28.5ZM30 114.5C30 114.985 30.0012 115.299 30.0322 115.53C30.0614 115.747 30.1084 115.815 30.1465 115.853C30.1846 115.892 30.2529 115.939 30.4697 115.968C30.701 115.999 31.0147 116 31.5 116H32.9541C32.9376 115.906 32.9164 115.829 32.8858 115.755C32.7804 115.501 32.5815 115.288 31.9746 114.682L31.3184 114.025C30.7115 113.418 30.4994 113.22 30.2451 113.114C30.1709 113.083 30.0936 113.061 30 113.045V114.5Z" fill="currentColor"/>
</svg>
