<svg xmlns="http://www.w3.org/2000/svg" width="16" height="16" viewBox="20.0 111.0 16.0 16.0" fill="none">
  <path d="M32.5 123C32.7761 123 33 123.224 33 123.5C33 123.776 32.7761 124 32.5 124H29.5C29.2239 124 29 123.776 29 123.5C29 123.224 29.2239 123 29.5 123H32.5Z" fill="currentColor"/>
  <path d="M32.5 121C32.7761 121 33 121.224 33 121.5C33 121.776 32.7761 122 32.5 122H29.5C29.2239 122 29 121.776 29 121.5C29 121.224 29.2239 121 29.5 121H32.5Z" fill="currentColor"/>
  <path d="M26.5 118C26.7761 118 27 118.224 27 118.5C27 118.776 26.7761 119 26.5 119H23.5C23.2239 119 23 118.776 23 118.5C23 118.224 23.2239 118 23.5 118H26.5Z" fill="currentColor"/>
  <path d="M26.5 116C26.7761 116 27 116.224 27 116.5C27 116.776 26.7761 117 26.5 117H23.5C23.2239 117 23 116.776 23 116.5C23 116.224 23.2239 116 23.5 116H26.5Z" fill="currentColor"/>
  <path d="M26.5 114C26.7761 114 27 114.224 27 114.5C27 114.776 26.7761 115 26.5 115H23.5C23.2239 115 23 114.776 23 114.5C23 114.224 23.2239 114 23.5 114H26.5Z" fill="currentColor"/>
  <path d="M27.1357 112.005C27.3304 112.01 27.5073 112.02 27.6641 112.041C27.9918 112.085 28.3058 112.185 28.5605 112.439C28.8153 112.694 28.9149 113.008 28.959 113.336C29.0011 113.649 29 114.043 29 114.5V118.5C29 118.678 28.999 118.846 28.9961 119.003C29.1538 119.001 29.322 119 29.5 119H32.5L33.1357 119.005C33.3305 119.01 33.5073 119.02 33.6641 119.041C33.9918 119.085 34.3058 119.185 34.5605 119.439C34.8153 119.694 34.9149 120.008 34.959 120.336C35.0011 120.649 35 121.043 35 121.5V123.5C35 123.957 35.0011 124.351 34.959 124.664C34.9149 124.992 34.8153 125.306 34.5605 125.561C34.3058 125.815 33.9918 125.915 33.6641 125.959C33.3507 126.001 32.9573 126 32.5 126H29.5C29.0427 126 28.6493 126.001 28.3359 125.959C28.0082 125.915 27.6942 125.815 27.4395 125.561C27.1847 125.306 27.0851 124.992 27.041 124.664C26.9989 124.351 27 123.957 27 123.5V121.5C27 121.322 27.0007 121.154 27.0029 120.996C26.8456 120.999 26.6776 121 26.5 121H23.5C23.0427 121 22.6493 121.001 22.3359 120.959C22.0082 120.915 21.6942 120.815 21.4395 120.561C21.1847 120.306 21.0851 119.992 21.041 119.664C20.9989 119.351 21 118.957 21 118.5V114.5C21 114.043 20.9989 113.649 21.041 113.336C21.0851 113.008 21.1847 112.694 21.4395 112.439C21.6942 112.185 22.0082 112.085 22.3359 112.041C22.6493 111.999 23.0427 112 23.5 112H26.5L27.1357 112.005ZM29.5 120C29.0147 120 28.7009 120.001 28.4697 120.032C28.2529 120.061 28.1845 120.108 28.1465 120.146C28.1084 120.185 28.0614 120.253 28.0322 120.47C28.0012 120.701 28 121.015 28 121.5V123.5C28 123.985 28.0012 124.299 28.0322 124.53C28.0614 124.747 28.1084 124.815 28.1465 124.854C28.1845 124.892 28.2529 124.939 28.4697 124.968C28.7009 124.999 29.0147 125 29.5 125H32.5C32.9853 125 33.2991 124.999 33.5303 124.968C33.7471 124.939 33.8155 124.892 33.8535 124.854C33.8916 124.815 33.9386 124.747 33.9678 124.53C33.9988 124.299 34 123.985 34 123.5V121.5C34 121.015 33.9988 120.701 33.9678 120.47C33.9386 120.253 33.8916 120.185 33.8535 120.146C33.8155 120.108 33.7471 120.061 33.5303 120.032C33.4147 120.017 33.2784 120.009 33.1104 120.005L32.5 120H29.5ZM23.5 113C23.0147 113 22.7009 113.001 22.4697 113.032C22.2529 113.061 22.1845 113.108 22.1465 113.146C22.1084 113.185 22.0614 113.253 22.0322 113.47C22.0012 113.701 22 114.015 22 114.5V118.5C22 118.985 22.0012 119.299 22.0322 119.53C22.0614 119.747 22.1084 119.815 22.1465 119.854C22.1845 119.892 22.2529 119.939 22.4697 119.968C22.7009 119.999 23.0147 120 23.5 120H26.5C26.744 120 26.9447 119.998 27.1133 119.994C27.1752 119.793 27.2751 119.604 27.4395 119.439C27.6038 119.275 27.7927 119.175 27.9941 119.113C27.9984 118.945 28 118.744 28 118.5V114.5C28 114.015 27.9988 113.701 27.9678 113.47C27.9386 113.253 27.8916 113.185 27.8535 113.146C27.8155 113.108 27.7471 113.061 27.5303 113.032C27.4147 113.017 27.2784 113.009 27.1104 113.005L26.5 113H23.5Z" fill="currentColor" fill-rule="evenodd" clip-rule="evenodd"/>
  <path d="M31.5 113C32.3284 113 33 113.672 33 114.5V115.293L33.1465 115.146C33.3417 114.951 33.6583 114.951 33.8535 115.146C34.0488 115.342 34.0488 115.658 33.8535 115.854L32.8535 116.854C32.6583 117.049 32.3418 117.049 32.1465 116.854L31.1465 115.854C30.9512 115.658 30.9512 115.342 31.1465 115.146C31.3417 114.951 31.6583 114.951 31.8535 115.146L32 115.293V114.5C32 114.224 31.7761 114 31.5 114H30.5C30.2239 114 30 113.776 30 113.5C30 113.224 30.2239 113 30.5 113H31.5Z" fill="currentColor"/>
</svg>
