<svg xmlns="http://www.w3.org/2000/svg" width="16" height="16" viewBox="20.0 110.99 16.01 16.01" fill="none">
  <path d="M30 117C30.2074 117 30.4634 116.998 30.6816 117.027C30.9287 117.061 31.2706 117.15 31.5605 117.439C31.8505 117.729 31.9394 118.071 31.9727 118.318C32.002 118.537 32 118.793 32 119V122C32 122.207 32.002 122.463 31.9727 122.682C31.9394 122.929 31.8505 123.271 31.5605 123.561C31.2706 123.851 30.9287 123.939 30.6816 123.973C30.4634 124.002 30.2074 124 30 124H26C25.7926 124 25.5366 124.002 25.3184 123.973C25.0713 123.939 24.7294 123.851 24.4395 123.561C24.1495 123.271 24.0606 122.929 24.0273 122.682C23.998 122.463 24 122.207 24 122V119C24 118.793 23.998 118.537 24.0273 118.318C24.0606 118.071 24.1495 117.729 24.4395 117.439C24.7294 117.15 25.0713 117.061 25.3184 117.027C25.5366 116.998 25.7926 117 26 117H30ZM25.002 122.312C25.0088 122.584 25.0367 122.744 25.1465 122.854C25.2563 122.963 25.4164 122.991 25.6885 122.998L26 123V122H25L25.002 122.312ZM27 123H29V122H27V123ZM30 123C30.4714 123 30.7071 123 30.8535 122.854C30.9999 122.707 31 122.471 31 122H30V123ZM25 120V121H26V120H25ZM27 120V121H29V120H27ZM30 120V121H31V120H30ZM25.6885 118.002C25.4164 118.009 25.2563 118.037 25.1465 118.147C25 118.293 25 118.529 25 119H26V118L25.6885 118.002ZM27 119H29V118H27V119ZM30 119H31C31 118.529 31 118.293 30.8535 118.147C30.7071 118 30.4714 118 30 118V119Z" fill="currentColor"/>
  <path d="M27.9121 112C28.6573 112 29.164 111.992 29.6289 112.177C30.0935 112.361 30.4561 112.714 30.998 113.225L32.5859 114.721C33.1742 115.275 33.5806 115.645 33.7949 116.142C34.0092 116.638 34 117.188 34 117.996V121.5C34 122.428 34.0006 123.175 33.9219 123.761C33.8412 124.361 33.6688 124.866 33.2676 125.268C32.8663 125.669 32.3608 125.841 31.7607 125.922C31.1751 126.001 30.4285 126 29.5 126H26.5C25.5715 126 24.8249 126.001 24.2393 125.922C23.6392 125.841 23.1337 125.669 22.7324 125.268C22.3312 124.866 22.1588 124.361 22.0781 123.761C21.9994 123.175 22 122.428 22 121.5V116.5C22 115.572 21.9994 114.825 22.0781 114.239C22.1588 113.639 22.3312 113.134 22.7324 112.732C23.1337 112.331 23.6392 112.159 24.2393 112.078C24.8249 111.999 25.5715 112 26.5 112H27.9121ZM26.5 113C25.5431 113 24.8756 113.001 24.3721 113.068C23.8829 113.134 23.624 113.255 23.4395 113.439C23.255 113.624 23.1341 113.883 23.0684 114.372C23.0007 114.876 23 115.543 23 116.5V121.5C23 122.457 23.0007 123.124 23.0684 123.628C23.1341 124.117 23.255 124.376 23.4395 124.561C23.624 124.745 23.8829 124.866 24.3721 124.932C24.8756 124.999 25.5431 125 26.5 125H29.5C30.4569 125 31.1244 124.999 31.6279 124.932C32.1171 124.866 32.376 124.745 32.5605 124.561C32.745 124.376 32.8659 124.117 32.9316 123.628C32.9993 123.124 33 122.457 33 121.5V117.996C33 117.528 32.9973 117.223 32.9785 117H30.5C29.6716 117 29 116.328 29 115.5V113.038C28.7827 113.005 28.4747 113 27.9121 113H26.5ZM30 115.5C30 115.776 30.2239 116 30.5 116H32.4678C32.3286 115.858 32.1467 115.681 31.9004 115.449L30.3125 113.953C30.1945 113.842 30.0909 113.746 30 113.662V115.5Z" fill="currentColor"/>
</svg>
