<svg xmlns="http://www.w3.org/2000/svg" width="16" height="16" viewBox="20.5 111.0 16.0 16.0" fill="none">
  <path d="M26 118C26.5523 118 27 118.448 27 119C27 119.552 26.5523 120 26 120C25.4477 120 25 119.552 25 119C25 118.448 25.4477 118 26 118Z" fill="currentColor"/>
  <path d="M30.5 112C31.193 112 31.7634 111.999 32.2129 112.06C32.6767 112.122 33.0861 112.258 33.4141 112.586C33.742 112.914 33.878 113.323 33.9404 113.787C34.0009 114.237 34 114.807 34 115.5V122.5C34 123.193 34.0009 123.763 33.9404 124.213C33.878 124.677 33.742 125.086 33.4141 125.414C33.0861 125.742 32.6767 125.878 32.2129 125.94C31.7634 126.001 31.193 126 30.5 126H26.5C25.807 126 25.2366 126.001 24.7871 125.94C24.3234 125.878 23.9139 125.742 23.5859 125.414C23.258 125.086 23.122 124.677 23.0596 124.213C22.9991 123.763 23 123.193 23 122.5V115.5C23 114.807 22.9991 114.237 23.0596 113.787C23.122 113.323 23.258 112.914 23.5859 112.586C23.9139 112.258 24.3234 112.122 24.7871 112.06C25.2366 111.999 25.807 112 26.5 112H30.5ZM26.5 113C25.7788 113 25.2883 113.001 24.9209 113.051C24.5679 113.098 24.4043 113.182 24.293 113.293C24.1817 113.404 24.0982 113.568 24.0508 113.921C24.0014 114.288 24 114.779 24 115.5V122.5C24 123.221 24.0014 123.712 24.0508 124.079C24.0982 124.432 24.1817 124.596 24.293 124.707C24.4043 124.818 24.5679 124.902 24.9209 124.949C25.2883 124.999 25.7788 125 26.5 125H30.5C31.2212 125 31.7117 124.999 32.0791 124.949C32.4321 124.902 32.5957 124.818 32.707 124.707C32.8183 124.596 32.9018 124.432 32.9492 124.079C32.9986 123.712 33 123.221 33 122.5V115.5C33 114.779 32.9986 114.288 32.9492 113.921C32.9018 113.568 32.8183 113.404 32.707 113.293C32.5957 113.182 32.4321 113.098 32.0791 113.051C31.7117 113.001 31.2212 113 30.5 113H26.5Z" fill="currentColor"/>
</svg>
