<svg xmlns="http://www.w3.org/2000/svg" width="16" height="16" viewBox="21.5 112.73 12.55 12.55" fill="none">
  <path d="M27.1465 114.146C27.3417 113.951 27.6583 113.951 27.8535 114.146C28.0488 114.342 28.0488 114.658 27.8535 114.853L23.707 119L27.8535 123.146C28.0487 123.342 28.0488 123.658 27.8535 123.853C27.6583 124.049 27.3417 124.049 27.1465 123.853L22.6465 119.353C22.5527 119.26 22.5 119.133 22.5 119C22.5 118.867 22.5527 118.74 22.6465 118.646L27.1465 114.146Z" fill="currentColor"/>
  <path d="M32.1465 114.146C32.3417 113.951 32.6583 113.951 32.8535 114.146C33.0488 114.342 33.0488 114.658 32.8535 114.853L28.707 119L32.8535 123.146C33.0487 123.342 33.0488 123.658 32.8535 123.853C32.6583 124.049 32.3417 124.049 32.1465 123.853L27.6465 119.353C27.5527 119.26 27.5 119.133 27.5 119C27.5 118.867 27.5527 118.74 27.6465 118.646L32.1465 114.146Z" fill="currentColor"/>
</svg>
