<svg xmlns="http://www.w3.org/2000/svg" width="16" height="16" viewBox="18.95 109.95 18.1 18.1" fill="none">
  <path d="M31.6464 114.646C31.8417 114.451 32.1582 114.451 32.3535 114.646C32.5487 114.842 32.5487 115.158 32.3535 115.353L24.3535 123.353C24.1582 123.549 23.8417 123.549 23.6464 123.353L20.1464 119.853C19.9512 119.658 19.9512 119.342 20.1464 119.146C20.3417 118.951 20.6582 118.951 20.8535 119.146L24 122.293L31.6464 114.646Z" fill="currentColor"/>
  <path d="M35.1464 114.646C35.3417 114.451 35.6582 114.451 35.8535 114.646C36.0486 114.842 36.0487 115.158 35.8535 115.353L27.8535 123.353C27.6582 123.549 27.3417 123.549 27.1464 123.353L26.457 122.664L27.164 121.957L27.5 122.293L35.1464 114.646Z" fill="currentColor"/>
  <path d="M23.6464 119.146C23.8417 118.951 24.1582 118.951 24.3535 119.146L25.0429 119.836L24.3359 120.543L23.6464 119.853C23.4512 119.658 23.4512 119.342 23.6464 119.146Z" fill="currentColor"/>
</svg>
