<svg xmlns="http://www.w3.org/2000/svg" width="16" height="16" viewBox="21.95 112.73 12.55 12.55" fill="none">
  <path d="M23.1464 114.146C23.3417 113.951 23.6582 113.951 23.8535 114.146L28.3535 118.646C28.4472 118.74 28.5 118.867 28.5 119C28.4999 119.133 28.4472 119.26 28.3535 119.353L23.8535 123.853C23.6582 124.049 23.3417 124.049 23.1464 123.853C22.9512 123.658 22.9512 123.342 23.1464 123.146L27.2929 119L23.1464 114.853C22.9512 114.658 22.9512 114.342 23.1464 114.146Z" fill="currentColor"/>
  <path d="M28.1464 114.146C28.3417 113.951 28.6582 113.951 28.8535 114.146L33.3535 118.646C33.4472 118.74 33.5 118.867 33.5 119C33.4999 119.133 33.4472 119.26 33.3535 119.353L28.8535 123.853C28.6582 124.049 28.3417 124.049 28.1464 123.853C27.9512 123.658 27.9512 123.342 28.1464 123.146L32.2929 119L28.1464 114.853C27.9512 114.658 27.9512 114.342 28.1464 114.146Z" fill="currentColor"/>
</svg>
