<svg xmlns="http://www.w3.org/2000/svg" width="16" height="16" viewBox="21.0 112.0 14.0 14.0" fill="none">
  <path d="M24.3879 124.68C24.3136 124.873 24.1281 125 23.9212 125H22.8491C22.4982 125 22.2565 124.648 22.3824 124.32L26.614 113.32C26.6882 113.127 26.8738 113 27.0806 113H28.1527C28.5036 113 28.7454 113.352 28.6194 113.68L24.3879 124.68Z" fill="currentColor"/>
  <path d="M29.3879 124.68C29.3136 124.873 29.1281 125 28.9212 125H27.8491C27.4982 125 27.2565 124.648 27.3824 124.32L31.614 113.32C31.6882 113.127 31.8738 113 32.0806 113H33.1527C33.5036 113 33.7454 113.352 33.6194 113.68L29.3879 124.68Z" fill="currentColor"/>
</svg>
