<svg xmlns="http://www.w3.org/2000/svg" width="16" height="16" viewBox="20.0 111.47 17.0 17.0" fill="none">
  <path d="M31.5 120C31.776 120 32 120.224 32 120.5V123.293L33.1465 122.146C33.3417 121.951 33.6583 121.951 33.8535 122.146C34.0486 122.342 34.0486 122.658 33.8535 122.853L31.8535 124.853C31.6827 125.024 31.4186 125.046 31.2246 124.918L31.1465 124.853L29.1465 122.853C28.9514 122.658 28.9515 122.342 29.1465 122.146C29.3417 121.951 29.6583 121.951 29.8535 122.146L31 123.293V120.5C31 120.224 31.224 120 31.5 120Z" fill="currentColor"/>
  <path d="M31.5 118C33.9853 118 36 120.015 36 122.5C36 124.985 33.9853 127 31.5 127C29.0147 127 27 124.985 27 122.5C27 120.015 29.0147 118 31.5 118ZM31.5 119C29.567 119 28 120.567 28 122.5C28 124.433 29.567 126 31.5 126C33.433 126 35 124.433 35 122.5C35 120.567 33.433 119 31.5 119Z" fill="currentColor"/>
  <path d="M25.1885 113.106C25.4058 112.936 25.7203 112.974 25.8906 113.191C26.0606 113.409 26.0226 113.723 25.8057 113.893L22.8477 116.213C22.4892 116.494 22.2635 116.672 22.1211 116.821C22.0546 116.891 22.0244 116.937 22.0107 116.964C22.0005 116.984 22 116.993 22 116.999C22 117.005 22.0003 117.014 22.0107 117.035C22.0245 117.062 22.0546 117.108 22.1211 117.178C22.2636 117.327 22.4892 117.505 22.8477 117.786L25.8057 120.106C26.0225 120.277 26.0607 120.591 25.8906 120.809C25.7203 121.025 25.4056 121.063 25.1885 120.893L22.2305 118.573C21.8965 118.311 21.6015 118.082 21.3975 117.868C21.1843 117.645 21.0001 117.367 21 116.999C21.0002 116.632 21.1845 116.354 21.3975 116.131C21.6015 115.917 21.8966 115.687 22.2305 115.426L25.1885 113.106Z" fill="currentColor"/>
  <path d="M30.1064 113.191C30.2768 112.974 30.5913 112.936 30.8086 113.106L33.7666 115.426C34.1005 115.687 34.3956 115.917 34.5996 116.131C34.8126 116.354 34.9969 116.632 34.9971 116.999C34.997 117.367 34.8127 117.645 34.5996 117.868C34.5826 117.886 34.5631 117.902 34.5449 117.92C34.2514 117.724 33.9379 117.557 33.6084 117.42C33.7202 117.327 33.8077 117.249 33.876 117.178C33.9425 117.108 33.9726 117.062 33.9863 117.035C33.9968 117.014 33.9971 117.005 33.9971 116.999C33.9971 116.993 33.9966 116.984 33.9863 116.964C33.9726 116.937 33.9425 116.891 33.876 116.821C33.7335 116.672 33.5078 116.494 33.1494 116.213L30.1914 113.893C29.9745 113.723 29.9364 113.409 30.1064 113.191Z" fill="currentColor"/>
</svg>
