<svg xmlns="http://www.w3.org/2000/svg" width="16" height="16" viewBox="19.95 110.95 16.1 16.1" fill="none">
  <path d="M34.1464 112.146C34.3417 111.951 34.6582 111.951 34.8535 112.146C35.0487 112.342 35.0487 112.658 34.8535 112.854L21.8535 125.854C21.6582 126.049 21.3417 126.049 21.1464 125.854C20.9512 125.658 20.9512 125.342 21.1464 125.146L22.414 123.878C22.1524 123.483 22 123.009 22 122.5C22 122.224 22.2238 122 22.5 122C22.7761 122 23 122.224 23 122.5C23 122.731 23.0541 122.949 23.1474 123.145L25.7929 120.5L24.1464 118.854C23.9512 118.658 23.9512 118.342 24.1464 118.146C24.3417 117.951 24.6582 117.951 24.8535 118.146L26.5 119.793L28 118.293V112.5C28 112.224 28.2238 112 28.5 112C28.7761 112 29 112.224 29 112.5V117.293L34.1464 112.146Z" fill="currentColor"/>
  <path d="M34.5 122C34.7761 122 35 122.224 35 122.5C35 123.881 33.8807 125 32.5 125H24.5C24.4918 125 24.4837 124.998 24.4755 124.998L25.4746 124H32.5C33.3284 124 34 123.328 34 122.5C34 122.224 34.2238 122 34.5 122Z" fill="currentColor"/>
  <path d="M32.1464 118.146C32.3417 117.951 32.6582 117.951 32.8535 118.146C33.0487 118.342 33.0487 118.658 32.8535 118.854L28.8535 122.854C28.6582 123.049 28.3417 123.049 28.1464 122.854L27.3838 122.091L29 120.475V121.293L32.1464 118.146Z" fill="currentColor"/>
</svg>
