<svg xmlns="http://www.w3.org/2000/svg" width="16" height="16" viewBox="21.0 111.0 15.0 15.0" fill="none">
  <path d="M34.5 122C34.7761 122 35 122.224 35 122.5C35 123.881 33.8807 125 32.5 125H24.5C23.1193 125 22 123.881 22 122.5C22 122.224 22.2239 122 22.5 122C22.7761 122 23 122.224 23 122.5C23 123.328 23.6716 124 24.5 124H32.5C33.3284 124 34 123.328 34 122.5C34 122.224 34.2239 122 34.5 122Z" fill="currentColor"/>
  <path d="M28.5 112C28.7761 112 29 112.224 29 112.5V121.293L32.1465 118.146C32.3417 117.951 32.6583 117.951 32.8535 118.146C33.0488 118.342 33.0488 118.658 32.8535 118.854L28.8535 122.854C28.6583 123.049 28.3417 123.049 28.1465 122.854L24.1465 118.854C23.9512 118.658 23.9512 118.342 24.1465 118.146C24.3417 117.951 24.6583 117.951 24.8535 118.146L28 121.293V112.5C28 112.224 28.2239 112 28.5 112Z" fill="currentColor"/>
</svg>
