<svg xmlns="http://www.w3.org/2000/svg" width="16" height="16" viewBox="19.97 110.72 16.31 16.31" fill="none">
  <path d="M30.551 112.74C31.5746 111.717 33.2344 111.717 34.258 112.74C35.2816 113.764 35.2815 115.424 34.258 116.447L26.2453 124.461C25.925 124.781 25.5237 125.009 25.0842 125.119L21.6213 125.984C21.4511 126.027 21.2708 125.978 21.1467 125.854C21.0226 125.729 20.9723 125.548 21.0149 125.378L21.8811 121.916C21.9909 121.477 22.2181 121.075 22.5383 120.755L30.551 112.74ZM23.2453 121.462C23.0533 121.654 22.9167 121.895 22.8508 122.158L22.1867 124.813L24.841 124.149C25.1048 124.083 25.3461 123.946 25.5383 123.754L32.2922 116.999L29.9992 114.706L23.2453 121.462ZM33.551 113.447C32.9179 112.814 31.8911 112.814 31.258 113.447L30.7063 113.999L32.9992 116.292L33.551 115.74C34.184 115.107 34.1841 114.08 33.551 113.447Z" fill="currentColor"/>
  <path d="M22.8791 119H21.5002C21.2242 119 21.0002 118.776 21.0002 118.5C21.0003 118.224 21.2242 118 21.5002 118H23.8782L22.8791 119Z" fill="currentColor"/>
  <path d="M25.8772 116H21.5002C21.2242 116 21.0002 115.776 21.0002 115.5C21.0003 115.224 21.2242 115 21.5002 115H26.8772L25.8772 116Z" fill="currentColor"/>
  <path d="M29.843 112.033L28.8762 113H21.5002C21.2242 113 21.0002 112.776 21.0002 112.5C21.0003 112.224 21.2242 112 21.5002 112H29.8782C29.8666 112.011 29.8544 112.022 29.843 112.033Z" fill="currentColor"/>
</svg>
