<svg xmlns="http://www.w3.org/2000/svg" width="16" height="16" viewBox="24.0 115.0 12.0 12.0" fill="none">
  <path d="M33.1464 117.147C33.3417 116.951 33.6582 116.951 33.8535 117.147C34.0487 117.342 34.0487 117.658 33.8535 117.854L26.8535 124.854C26.6582 125.049 26.3417 125.049 26.1464 124.854C25.9512 124.658 25.9512 124.342 26.1464 124.147L33.1464 117.147Z" fill="currentColor"/>
  <path d="M33.1464 121.147C33.3417 120.951 33.6582 120.951 33.8535 121.147C34.0487 121.342 34.0487 121.658 33.8535 121.854L30.8535 124.854C30.6582 125.049 30.3417 125.049 30.1464 124.854C29.9512 124.658 29.9512 124.342 30.1464 124.147L33.1464 121.147Z" fill="currentColor"/>
</svg>
