<svg xmlns="http://www.w3.org/2000/svg" width="16" height="16" viewBox="21.0 112.0 16.0 16.0" fill="none">
  <path d="M32.5 120C32.7762 120 33 120.224 33 120.5V123H35.5C35.7762 123 36 123.224 36 123.5C36 123.776 35.7762 124 35.5 124H33V126.5C33 126.776 32.7762 127 32.5 127C32.2239 127 32 126.776 32 126.5V124H29.5C29.2239 124 29 123.776 29 123.5C29.0001 123.224 29.2239 123 29.5 123H32V120.5C32.0001 120.224 32.2239 120 32.5 120Z" fill="currentColor"/>
  <path d="M22.5 121C22.7762 121 23 121.224 23 121.5C23 121.997 23.0045 122.148 23.0342 122.259C23.1267 122.604 23.3962 122.873 23.7413 122.966C23.8524 122.996 24.0029 123 24.5 123C24.7762 123 25 123.224 25 123.5C25 123.776 24.7762 124 24.5 124C24.0673 124 23.7528 124.004 23.4825 123.932C22.7923 123.747 22.2533 123.208 22.0684 122.518C21.996 122.247 22 121.933 22 121.5C22.0001 121.224 22.2239 121 22.5 121Z" fill="currentColor"/>
  <path d="M27.5 123C27.7762 123 28 123.224 28 123.5C28 123.776 27.7762 124 27.5 124H26.5C26.2239 124 26 123.776 26 123.5C26.0001 123.224 26.2239 123 26.5 123H27.5Z" fill="currentColor"/>
  <path d="M22.5 117C22.7762 117 23 117.224 23 117.5V119.5C23 119.776 22.7762 120 22.5 120C22.2239 120 22 119.776 22 119.5V117.5C22.0001 117.224 22.2239 117 22.5 117Z" fill="currentColor"/>
  <path d="M32.5 117C32.7762 117 33 117.224 33 117.5V118.5C33 118.776 32.7762 119 32.5 119C32.2239 119 32 118.776 32 118.5V117.5C32.0001 117.224 32.2239 117 32.5 117Z" fill="currentColor"/>
  <path d="M24.5 113C24.7762 113 25 113.224 25 113.5C25 113.776 24.7762 114 24.5 114C24.0029 114 23.8524 114.004 23.7413 114.034C23.3962 114.127 23.1267 114.396 23.0342 114.741C23.0044 114.852 23 115.003 23 115.5C23 115.776 22.7762 116 22.5 116C22.2239 116 22 115.776 22 115.5C22 115.067 21.996 114.753 22.0684 114.482C22.2533 113.792 22.7923 113.253 23.4825 113.068C23.7528 112.996 24.0673 113 24.5 113Z" fill="currentColor"/>
  <path d="M30.5 113C30.9328 113 31.2473 112.996 31.5176 113.068C32.2078 113.253 32.7467 113.792 32.9317 114.482C33.0041 114.753 33 115.067 33 115.5C33 115.776 32.7762 116 32.5 116C32.2239 116 32 115.776 32 115.5C32 115.003 31.9956 114.852 31.9659 114.741C31.8734 114.396 31.6039 114.127 31.2588 114.034C31.1477 114.004 30.9971 114 30.5 114C30.2239 114 30 113.776 30 113.5C30.0001 113.224 30.2239 113 30.5 113Z" fill="currentColor"/>
  <path d="M28.5 113C28.7762 113 29 113.224 29 113.5C29 113.776 28.7762 114 28.5 114H26.5C26.2239 114 26 113.776 26 113.5C26.0001 113.224 26.2239 113 26.5 113H28.5Z" fill="currentColor"/>
</svg>
