<svg xmlns="http://www.w3.org/2000/svg" width="16" height="16" viewBox="20.0 111.0 16.0 16.0" fill="none">
  <path d="M29.5 118C29.7762 118 30 118.224 30 118.5C30 118.776 29.7762 119 29.5 119H26.5C26.2239 119 26 118.776 26 118.5C26 118.224 26.2239 118 26.5 118H29.5Z" fill="currentColor"/>
  <path d="M31 115C31.6788 115 32.2887 114.998 32.7793 115.063C33.2986 115.133 33.8312 115.296 34.2676 115.732C34.704 116.169 34.8667 116.701 34.9365 117.221C35.0025 117.711 35 118.321 35 119V122C35 122.679 35.0025 123.289 34.9365 123.779C34.8667 124.299 34.704 124.831 34.2676 125.268C33.8312 125.704 33.2986 125.867 32.7793 125.937C32.2887 126.002 31.6788 126 31 126H25C24.3212 126 23.7113 126.002 23.2207 125.937C22.7014 125.867 22.1688 125.704 21.7324 125.268C21.296 124.831 21.1333 124.299 21.0635 123.779C20.9975 123.289 21 122.679 21 122V119C21 118.321 20.9975 117.711 21.0635 117.221C21.1333 116.701 21.296 116.169 21.7324 115.732C22.1688 115.296 22.7014 115.133 23.2207 115.063C23.7113 114.998 24.3212 115 25 115H31ZM25 116C23.5858 116 22.8788 116 22.4395 116.439L22.3623 116.525C22.0004 116.97 22 117.674 22 119V122L22.0068 122.935C22.0274 123.751 22.1099 124.231 22.4395 124.561C22.8788 125 23.5858 125 25 125H31C32.4142 125 33.1212 125 33.5606 124.561C33.9999 124.121 34 123.414 34 122V119C34 117.674 33.9996 116.97 33.6377 116.525L33.5606 116.439C33.1212 116 32.4142 116 31 116H25Z" fill="currentColor"/>
  <path d="M32.5 112C33.3284 112 34 112.672 34 113.5C34 113.776 33.7762 114 33.5 114C33.2583 114 33.0563 113.829 33.0098 113.601L32.9902 113.399C32.9437 113.171 32.7417 113 32.5 113H23.5C23.2583 113 23.0563 113.171 23.0098 113.399L22.9902 113.601C22.9437 113.829 22.7417 114 22.5 114C22.2239 114 22 113.776 22 113.5C22 112.672 22.6716 112 23.5 112H32.5Z" fill="currentColor"/>
</svg>
