<svg xmlns="http://www.w3.org/2000/svg" width="16" height="16" viewBox="20.0 111.0 16.0 16.0" fill="none">
  <path d="M31.1152 119.885C31.3913 119.885 31.6152 120.109 31.6152 120.385C31.6151 122.381 29.9966 124 28 124C27.7239 124 27.5 123.776 27.5 123.5C27.5 123.224 27.7239 123 28 123C29.4442 123 30.6152 121.829 30.6152 120.385C30.6152 120.109 30.8391 119.885 31.1152 119.885Z" fill="currentColor"/>
  <path d="M28 112C28.2109 112 28.3747 112.063 28.4502 112.096C28.5395 112.134 28.6152 112.179 28.6709 112.215C28.7828 112.287 28.8912 112.374 28.9873 112.458C29.1836 112.629 29.4112 112.858 29.6514 113.118C30.1353 113.644 30.7241 114.359 31.2939 115.153C31.8626 115.946 32.4286 116.839 32.8574 117.717C33.2738 118.569 33.6152 119.516 33.6152 120.385C33.6152 123.486 31.1012 126 28 126C24.8989 126 22.3848 123.486 22.3848 120.385C22.3848 119.516 22.7262 118.569 23.1426 117.717C23.5714 116.839 24.1383 115.946 24.707 115.153C25.2768 114.359 25.8647 113.643 26.3486 113.118C26.5887 112.858 26.8165 112.629 27.0127 112.458C27.1088 112.374 27.2182 112.287 27.3301 112.215C27.3858 112.179 27.4616 112.134 27.5508 112.096C27.6265 112.063 27.7895 112 28 112ZM28 113C27.5372 113.002 23.3848 117.836 23.3848 120.385L23.3906 120.622C23.5142 123.061 25.5307 125 28 125C30.4693 125 32.4858 123.061 32.6094 120.622L32.6152 120.385C32.6152 117.836 28.4623 113.001 28 113Z" fill="currentColor"/>
</svg>
