<svg xmlns="http://www.w3.org/2000/svg" width="16" height="16" viewBox="20.0 111.0 16.0 16.0" fill="none">
  <path d="M32.2285 118C32.672 118 32.894 118 32.9629 118.14C33.0315 118.28 32.8955 118.456 32.6231 118.807L31.8984 119.74C31.7167 119.974 31.6254 120.092 31.5029 120.092C31.3806 120.092 31.2889 119.975 31.1074 119.74L30.3848 118.807C30.1131 118.456 29.9764 118.28 30.0449 118.14C30.1136 118 30.336 118 30.7793 118H32.2285Z" fill="currentColor"/>
  <path d="M32 115C32.5751 115 33.057 114.999 33.4385 115.05C33.8342 115.103 34.1959 115.221 34.4873 115.513C34.7787 115.804 34.897 116.166 34.9502 116.562C35.0015 116.943 35 117.425 35 118V120C35 120.575 35.0015 121.057 34.9502 121.438C34.897 121.834 34.7787 122.196 34.4873 122.487C34.1959 122.779 33.8342 122.897 33.4385 122.95C33.057 123.001 32.5751 123 32 123H24C23.4249 123 22.943 123.001 22.5615 122.95C22.1658 122.897 21.8041 122.779 21.5127 122.487C21.2213 122.196 21.103 121.834 21.0498 121.438C20.9985 121.057 21 120.575 21 120V118C21 117.425 20.9985 116.943 21.0498 116.562C21.103 116.166 21.2213 115.804 21.5127 115.513C21.8041 115.221 22.1658 115.103 22.5615 115.05C22.943 114.999 23.4249 115 24 115H32ZM24 116C23.3968 116 22.9946 116.001 22.6953 116.041C22.4104 116.079 22.2944 116.145 22.2197 116.22C22.1451 116.294 22.0793 116.41 22.041 116.695C22.0008 116.995 22 117.397 22 118V120C22 120.603 22.0008 121.005 22.041 121.305C22.0793 121.59 22.1451 121.706 22.2197 121.78C22.2944 121.855 22.4104 121.921 22.6953 121.959C22.9946 121.999 23.3968 122 24 122H28V116H24ZM29 122H32C32.6032 122 33.0054 121.999 33.3047 121.959C33.5896 121.921 33.7056 121.855 33.7803 121.78C33.855 121.706 33.9207 121.59 33.959 121.305C33.9992 121.005 34 120.603 34 120V118C34 117.397 33.9992 116.995 33.959 116.695C33.9207 116.41 33.855 116.294 33.7803 116.22C33.7056 116.145 33.5896 116.079 33.3047 116.041C33.0054 116.001 32.6032 116 32 116H29V122Z" fill="currentColor"/>
</svg>
