<svg xmlns="http://www.w3.org/2000/svg" width="16" height="16" viewBox="20.0 111.0 16.0 16.0" fill="none">
  <path d="M23 115C23.2261 115 23.4207 115 23.5811 115.011C23.746 115.022 23.9113 115.047 24.0742 115.114C24.4416 115.266 24.7335 115.558 24.8857 115.926C24.9532 116.089 24.978 116.254 24.9893 116.419C25.0002 116.579 25 116.774 25 117V121C25 121.226 25.0002 121.421 24.9893 121.581C24.978 121.746 24.9532 121.911 24.8857 122.074C24.7335 122.442 24.4416 122.734 24.0742 122.886C23.9113 122.953 23.746 122.978 23.5811 122.989C23.4207 123 23.2261 123 23 123C22.7739 123 22.5793 123 22.4189 122.989C22.254 122.978 22.0887 122.953 21.9258 122.886C21.5584 122.734 21.2665 122.442 21.1143 122.074C21.0468 121.911 21.022 121.746 21.0107 121.581C20.9998 121.421 21 121.226 21 121V117C21 116.774 20.9998 116.579 21.0107 116.419C21.022 116.254 21.0468 116.089 21.1143 115.926C21.2665 115.558 21.5584 115.266 21.9258 115.114C22.0887 115.047 22.254 115.022 22.4189 115.011C22.5793 115 22.7739 115 23 115ZM23 116C22.7605 116 22.6057 116.001 22.4873 116.009C22.3733 116.017 22.3294 116.029 22.3086 116.038C22.1861 116.089 22.0888 116.186 22.0381 116.309C22.0295 116.329 22.0166 116.373 22.0088 116.487C22.0007 116.606 22 116.76 22 117V121C22 121.24 22.0007 121.394 22.0088 121.513C22.0166 121.627 22.0295 121.671 22.0381 121.691C22.0888 121.814 22.1861 121.911 22.3086 121.962C22.3294 121.971 22.3733 121.983 22.4873 121.991C22.6057 121.999 22.7605 122 23 122C23.2395 122 23.3943 121.999 23.5127 121.991C23.6267 121.983 23.6706 121.971 23.6914 121.962C23.8139 121.911 23.9112 121.814 23.9619 121.691C23.9705 121.671 23.9834 121.627 23.9912 121.513C23.9993 121.394 24 121.24 24 121V117C24 116.76 23.9993 116.606 23.9912 116.487C23.9834 116.373 23.9705 116.329 23.9619 116.309C23.9112 116.186 23.8139 116.089 23.6914 116.038C23.6706 116.029 23.6267 116.017 23.5127 116.009C23.3943 116.001 23.2395 116 23 116Z" fill="currentColor"/>
  <path d="M28 115C28.2261 115 28.4207 115 28.5811 115.011C28.746 115.022 28.9113 115.047 29.0742 115.114C29.4416 115.266 29.7335 115.558 29.8857 115.926C29.9532 116.089 29.978 116.254 29.9893 116.419C30.0002 116.579 30 116.774 30 117V121C30 121.226 30.0002 121.421 29.9893 121.581C29.978 121.746 29.9532 121.911 29.8857 122.074C29.7335 122.442 29.4416 122.734 29.0742 122.886C28.9113 122.953 28.746 122.978 28.5811 122.989C28.4207 123 28.2261 123 28 123C27.7739 123 27.5793 123 27.4189 122.989C27.254 122.978 27.0887 122.953 26.9258 122.886C26.5584 122.734 26.2665 122.442 26.1143 122.074C26.0468 121.911 26.022 121.746 26.0107 121.581C25.9998 121.421 26 121.226 26 121V117C26 116.774 25.9998 116.579 26.0107 116.419C26.022 116.254 26.0468 116.089 26.1143 115.926C26.2665 115.558 26.5584 115.266 26.9258 115.114C27.0887 115.047 27.254 115.022 27.4189 115.011C27.5793 115 27.7739 115 28 115ZM28 116C27.7605 116 27.6057 116.001 27.4873 116.009C27.3733 116.017 27.3294 116.029 27.3086 116.038C27.1861 116.089 27.0888 116.186 27.0381 116.309C27.0295 116.329 27.0166 116.373 27.0088 116.487C27.0007 116.606 27 116.76 27 117V121C27 121.24 27.0007 121.394 27.0088 121.513C27.0166 121.627 27.0295 121.671 27.0381 121.691C27.0888 121.814 27.1861 121.911 27.3086 121.962C27.3294 121.971 27.3733 121.983 27.4873 121.991C27.6057 121.999 27.7605 122 28 122C28.2395 122 28.3943 121.999 28.5127 121.991C28.6267 121.983 28.6706 121.971 28.6914 121.962C28.8139 121.911 28.9112 121.814 28.9619 121.691C28.9705 121.671 28.9834 121.627 28.9912 121.513C28.9993 121.394 29 121.24 29 121V117C29 116.76 28.9993 116.606 28.9912 116.487C28.9834 116.373 28.9705 116.329 28.9619 116.309C28.9112 116.186 28.8139 116.089 28.6914 116.038C28.6706 116.029 28.6267 116.017 28.5127 116.009C28.3943 116.001 28.2395 116 28 116Z" fill="currentColor"/>
  <path d="M33 115C33.2261 115 33.4207 115 33.5811 115.011C33.746 115.022 33.9113 115.047 34.0742 115.114C34.4416 115.266 34.7335 115.558 34.8857 115.926C34.9532 116.089 34.978 116.254 34.9893 116.419C35.0002 116.579 35 116.774 35 117V121C35 121.226 35.0002 121.421 34.9893 121.581C34.978 121.746 34.9532 121.911 34.8857 122.074C34.7335 122.442 34.4416 122.734 34.0742 122.886C33.9113 122.953 33.746 122.978 33.5811 122.989C33.4207 123 33.2261 123 33 123C32.7739 123 32.5793 123 32.4189 122.989C32.254 122.978 32.0887 122.953 31.9258 122.886C31.5584 122.734 31.2665 122.442 31.1143 122.074C31.0468 121.911 31.022 121.746 31.0107 121.581C30.9998 121.421 31 121.226 31 121V117C31 116.774 30.9998 116.579 31.0107 116.419C31.022 116.254 31.0468 116.089 31.1143 115.926C31.2665 115.558 31.5584 115.266 31.9258 115.114C32.0887 115.047 32.254 115.022 32.4189 115.011C32.5793 115 32.7739 115 33 115ZM33 116C32.7605 116 32.6057 116.001 32.4873 116.009C32.3733 116.017 32.3294 116.029 32.3086 116.038C32.1861 116.089 32.0888 116.186 32.0381 116.309C32.0295 116.329 32.0166 116.373 32.0088 116.487C32.0007 116.606 32 116.76 32 117V121C32 121.24 32.0007 121.394 32.0088 121.513C32.0166 121.627 32.0295 121.671 32.0381 121.691C32.0888 121.814 32.1861 121.911 32.3086 121.962C32.3294 121.971 32.3733 121.983 32.4873 121.991C32.6057 121.999 32.7605 122 33 122C33.2395 122 33.3943 121.999 33.5127 121.991C33.6267 121.983 33.6706 121.971 33.6914 121.962C33.8139 121.911 33.9112 121.814 33.9619 121.691C33.9705 121.671 33.9834 121.627 33.9912 121.513C33.9993 121.394 34 121.24 34 121V117C34 116.76 33.9993 116.606 33.9912 116.487C33.9834 116.373 33.9705 116.329 33.9619 116.309C33.9112 116.186 33.8139 116.089 33.6914 116.038C33.6706 116.029 33.6267 116.017 33.5127 116.009C33.3943 116.001 33.2395 116 33 116Z" fill="currentColor"/>
</svg>
