<svg xmlns="http://www.w3.org/2000/svg" width="16" height="16" viewBox="19.76 111.0 16.0 16.0" fill="none">
  <path d="M26.5 112C27.193 112 27.7634 111.999 28.2129 112.06C28.6767 112.122 29.0861 112.258 29.4141 112.586C29.742 112.914 29.878 113.323 29.9404 113.787C30.0009 114.237 30 114.807 30 115.5V122.5C30 123.193 30.0009 123.763 29.9404 124.213C29.878 124.677 29.742 125.086 29.4141 125.414C29.0861 125.742 28.6767 125.878 28.2129 125.94C27.7634 126.001 27.193 126 26.5 126H24.5C23.807 126 23.2366 126.001 22.7871 125.94C22.3234 125.878 21.9139 125.742 21.5859 125.414C21.258 125.086 21.122 124.677 21.0596 124.213C20.9991 123.763 21 123.193 21 122.5V115.5C21 114.807 20.9991 114.237 21.0596 113.787C21.122 113.323 21.258 112.914 21.5859 112.586C21.9139 112.258 22.3234 112.122 22.7871 112.06C23.2366 111.999 23.807 112 24.5 112H26.5ZM26 125H26.5C27.2212 125 27.7117 124.999 28.0791 124.949C28.4321 124.902 28.5957 124.818 28.707 124.707C28.8183 124.596 28.9018 124.432 28.9492 124.079C28.9986 123.712 29 123.221 29 122.5V115.5C29 114.779 28.9986 114.288 28.9492 113.921C28.9018 113.568 28.8183 113.404 28.707 113.293C28.5957 113.182 28.4321 113.098 28.0791 113.051C27.7117 113.001 27.2212 113 26.5 113H26V125ZM24.5 113C23.7788 113 23.2883 113.001 22.9209 113.051C22.5679 113.098 22.4043 113.182 22.293 113.293C22.1817 113.404 22.0982 113.568 22.0508 113.921C22.0014 114.288 22 114.779 22 115.5V122.5C22 123.221 22.0014 123.712 22.0508 124.079C22.0982 124.432 22.1817 124.596 22.293 124.707C22.4043 124.818 22.5679 124.902 22.9209 124.949C23.2883 124.999 23.7788 125 24.5 125H25V113H24.5Z" fill="currentColor"/>
  <path d="M34 119C34.1842 119 34.3533 119.101 34.4404 119.264C34.5274 119.426 34.5183 119.624 34.416 119.777L33.416 121.277C33.3233 121.416 33.1672 121.5 33 121.5C32.8539 121.5 32.7164 121.436 32.6221 121.327L32.584 121.277L31.584 119.777C31.4817 119.624 31.4726 119.426 31.5596 119.264C31.6467 119.101 31.8158 119 32 119H34Z" fill="currentColor"/>
  <path d="M33 115.5C33.1672 115.5 33.3233 115.584 33.416 115.723L34.416 117.223C34.5183 117.376 34.5274 117.574 34.4404 117.736C34.3533 117.899 34.1842 118 34 118H32C31.8158 118 31.6467 117.899 31.5596 117.736C31.4726 117.574 31.4817 117.376 31.584 117.223L32.584 115.723L32.6221 115.673C32.7164 115.564 32.8539 115.5 33 115.5Z" fill="currentColor"/>
</svg>
