<svg xmlns="http://www.w3.org/2000/svg" width="16" height="16" viewBox="21.0 112.0 14.0 14.0" fill="none">
  <path d="M28 122C28.8284 122 29.5 122.672 29.5 123.5C29.5 124.328 28.8284 125 28 125C27.1716 125 26.5 124.328 26.5 123.5C26.5 122.672 27.1716 122 28 122Z" fill="currentColor"/>
  <path d="M28 117.5C28.8284 117.5 29.5 118.172 29.5 119C29.5 119.828 28.8284 120.5 28 120.5C27.1716 120.5 26.5 119.828 26.5 119C26.5 118.172 27.1716 117.5 28 117.5Z" fill="currentColor"/>
  <path d="M28 113C28.8284 113 29.5 113.672 29.5 114.5C29.5 115.328 28.8284 116 28 116C27.1716 116 26.5 115.328 26.5 114.5C26.5 113.672 27.1716 113 28 113Z" fill="currentColor"/>
</svg>
