<svg xmlns="http://www.w3.org/2000/svg" width="16" height="16" viewBox="21.0 112.0 14.0 14.0" fill="none">
  <path d="M25 119C25 119.828 24.3284 120.5 23.5 120.5C22.6716 120.5 22 119.828 22 119C22 118.172 22.6716 117.5 23.5 117.5C24.3284 117.5 25 118.172 25 119Z" fill="currentColor"/>
  <path d="M29.5 119C29.5 119.828 28.8284 120.5 28 120.5C27.1716 120.5 26.5 119.828 26.5 119C26.5 118.172 27.1716 117.5 28 117.5C28.8284 117.5 29.5 118.172 29.5 119Z" fill="currentColor"/>
  <path d="M34 119C34 119.828 33.3284 120.5 32.5 120.5C31.6716 120.5 31 119.828 31 119C31 118.172 31.6716 117.5 32.5 117.5C33.3284 117.5 34 118.172 34 119Z" fill="currentColor"/>
</svg>
