<svg xmlns="http://www.w3.org/2000/svg" width="16" height="16" viewBox="20.0 111.0 16.0 16.0" fill="none">
  <path d="M28 119C28.4919 119 28.9791 119.096 29.4336 119.284C29.8881 119.472 30.3014 119.748 30.6494 120.095C30.9974 120.442 31.2735 120.855 31.4619 121.309C31.5676 121.564 31.4463 121.856 31.1914 121.962C30.9364 122.068 30.6439 121.946 30.5381 121.691C30.4001 121.359 30.1983 121.057 29.9434 120.803C29.6884 120.548 29.3851 120.347 29.0518 120.209C28.7184 120.071 28.3609 120 28 120C27.6391 120 27.2816 120.071 26.9482 120.209C26.6149 120.347 26.3116 120.548 26.0566 120.803C25.8017 121.057 25.5999 121.359 25.4619 121.691C25.3561 121.946 25.0636 122.068 24.8086 121.962C24.5537 121.856 24.4324 121.564 24.5381 121.309C24.7265 120.855 25.0026 120.442 25.3506 120.095C25.6986 119.748 26.1119 119.472 26.5664 119.284C27.0209 119.096 27.5081 119 28 119Z" fill="currentColor"/>
  <path d="M26.4023 116.098C26.6228 115.877 26.9998 116.033 27 116.345V117.5C27 117.776 26.7761 118 26.5 118C26.2239 118 26 117.776 26 117.5V116.914C26 116.649 26.1055 116.395 26.293 116.207L26.4023 116.098Z" fill="currentColor"/>
  <path d="M29 116.345C29.0002 116.033 29.3772 115.877 29.5977 116.098L29.707 116.207C29.8945 116.395 30 116.649 30 116.914V117.5C30 117.776 29.7761 118 29.5 118C29.2239 118 29 117.776 29 117.5V116.345Z" fill="currentColor"/>
  <path d="M28 112C31.866 112 35 115.134 35 119C35 122.866 31.866 126 28 126C24.134 126 21 122.866 21 119C21 115.134 24.134 112 28 112ZM28 113C24.6863 113 22 115.686 22 119C22 122.314 24.6863 125 28 125C31.3137 125 34 122.314 34 119C34 115.686 31.3137 113 28 113Z" fill="currentColor"/>
</svg>
