<svg xmlns="http://www.w3.org/2000/svg" width="16" height="16" viewBox="20.0 111.0 16.0 16.0" fill="none">
  <path d="M30.5 121C30.7761 121 31 121.224 31 121.5C31 121.776 30.7761 122 30.5 122H25.5C25.2239 122 25 121.776 25 121.5C25 121.224 25.2239 121 25.5 121H30.5Z" fill="currentColor"/>
  <path d="M26.5 116.5C26.7761 116.5 27 116.724 27 117V118C27 118.276 26.7761 118.5 26.5 118.5C26.2239 118.5 26 118.276 26 118V117C26 116.724 26.2239 116.5 26.5 116.5Z" fill="currentColor"/>
  <path d="M29.5 116.5C29.7761 116.5 30 116.724 30 117V118C30 118.276 29.7761 118.5 29.5 118.5C29.2239 118.5 29 118.276 29 118V117C29 116.724 29.2239 116.5 29.5 116.5Z" fill="currentColor"/>
  <path d="M28 112C31.866 112 35 115.134 35 119C35 122.866 31.866 126 28 126C24.134 126 21 122.866 21 119C21 115.134 24.134 112 28 112ZM28 113C24.6863 113 22 115.686 22 119C22 122.314 24.6863 125 28 125C31.3137 125 34 122.314 34 119C34 115.686 31.3137 113 28 113Z" fill="currentColor"/>
</svg>
