<svg xmlns="http://www.w3.org/2000/svg" width="16" height="16" viewBox="20.0 111.0 16.0 16.0" fill="none">
  <path d="M28 119C28.5027 119 28.9985 119.114 29.458 119.333C29.9172 119.552 30.3297 119.871 30.6738 120.267C30.9596 120.596 31.3233 121.147 31.4521 121.92C31.4671 122.01 31.491 122.14 31.4902 122.258C31.4891 122.407 31.4511 122.579 31.3193 122.734C31.1786 122.9 31.001 122.96 30.8594 122.982C30.7415 123.001 30.6044 123 30.5 123H25.5C25.3956 123 25.2585 123.001 25.1406 122.982C24.999 122.96 24.8214 122.9 24.6807 122.734C24.5489 122.579 24.5109 122.407 24.5098 122.258C24.509 122.14 24.5329 122.01 24.5479 121.92C24.6767 121.147 25.0404 120.596 25.3262 120.267C25.6703 119.871 26.0828 119.552 26.542 119.333C27.0015 119.114 27.4973 119 28 119ZM28 120C27.6498 120 27.301 120.08 26.9727 120.236C26.644 120.393 26.34 120.625 26.0811 120.923C25.8898 121.143 25.6532 121.502 25.5518 122H30.4482C30.3468 121.502 30.1102 121.143 29.9189 120.923C29.66 120.625 29.356 120.393 29.0273 120.236C28.699 120.08 28.3502 120 28 120Z" fill="currentColor"/>
  <path d="M26.5 116C26.7761 116 27 116.224 27 116.5V117.65C26.9998 117.843 26.8434 118 26.6504 118H26.3496C26.1566 118 26.0002 117.843 26 117.65V116.5C26 116.224 26.2239 116 26.5 116Z" fill="currentColor"/>
  <path d="M29.5 116C29.7761 116 30 116.224 30 116.5V117.65C29.9998 117.843 29.8434 118 29.6504 118H29.3496C29.1566 118 29.0002 117.843 29 117.65V116.5C29 116.224 29.2239 116 29.5 116Z" fill="currentColor"/>
  <path d="M28 112C31.866 112 35 115.134 35 119C35 122.866 31.866 126 28 126C24.134 126 21 122.866 21 119C21 115.134 24.134 112 28 112ZM28 113C24.6863 113 22 115.686 22 119C22 122.314 24.6863 125 28 125C31.3137 125 34 122.314 34 119C34 115.686 31.3137 113 28 113Z" fill="currentColor"/>
</svg>
