<svg xmlns="http://www.w3.org/2000/svg" width="16" height="16" viewBox="20.0 111.0 16.0 16.0" fill="none">
  <path d="M30.5 119C30.6044 119 30.7415 118.999 30.8594 119.018C31.001 119.04 31.1786 119.1 31.3193 119.266C31.4511 119.421 31.4891 119.593 31.4902 119.742C31.491 119.86 31.4671 119.99 31.4521 120.08C31.3233 120.853 30.9596 121.404 30.6738 121.733C30.3297 122.129 29.9172 122.448 29.458 122.667C28.9985 122.886 28.5027 123 28 123C27.4973 123 27.0015 122.886 26.542 122.667C26.0828 122.448 25.6703 122.129 25.3262 121.733C25.0404 121.404 24.6767 120.853 24.5479 120.08C24.5329 119.99 24.509 119.86 24.5098 119.742C24.5109 119.593 24.5489 119.421 24.6807 119.266C24.8214 119.1 24.999 119.04 25.1406 119.018C25.2585 118.999 25.3956 119 25.5 119H30.5ZM25.5518 120C25.6532 120.498 25.8898 120.857 26.0811 121.077C26.34 121.375 26.644 121.607 26.9727 121.764C27.301 121.92 27.6498 122 28 122C28.3502 122 28.699 121.92 29.0273 121.764C29.356 121.607 29.66 121.375 29.9189 121.077C30.1102 120.857 30.3468 120.498 30.4482 120H25.5518Z" fill="currentColor"/>
  <path d="M26.5 116C26.7761 116 27 116.224 27 116.5V117.65C26.9998 117.843 26.8434 118 26.6504 118H26.3496C26.1566 118 26.0002 117.843 26 117.65V116.5C26 116.224 26.2239 116 26.5 116Z" fill="currentColor"/>
  <path d="M29.5 116C29.7761 116 30 116.224 30 116.5V117.65C29.9998 117.843 29.8434 118 29.6504 118H29.3496C29.1566 118 29.0002 117.843 29 117.65V116.5C29 116.224 29.2239 116 29.5 116Z" fill="currentColor"/>
  <path d="M28 112C31.866 112 35 115.134 35 119C35 122.866 31.866 126 28 126C24.134 126 21 122.866 21 119C21 115.134 24.134 112 28 112ZM28 113C24.6863 113 22 115.686 22 119C22 122.314 24.6863 125 28 125C31.3137 125 34 122.314 34 119C34 115.686 31.3137 113 28 113Z" fill="currentColor"/>
</svg>
