<svg xmlns="http://www.w3.org/2000/svg" width="16" height="16" viewBox="20.0 110.0 16.0 16.0" fill="none">
  <path d="M30.5381 118.309C30.6439 118.054 30.9364 117.932 31.1914 118.038C31.4463 118.144 31.5676 118.436 31.4619 118.691C31.2735 119.145 30.9974 119.558 30.6494 119.905C30.3014 120.252 29.8881 120.528 29.4336 120.716C28.9791 120.904 28.4919 121 28 121C27.5081 121 27.0209 120.904 26.5664 120.716C26.1119 120.528 25.6986 120.252 25.3506 119.905C25.0026 119.558 24.7265 119.145 24.5381 118.691C24.4324 118.436 24.5537 118.144 24.8086 118.038C25.0636 117.932 25.3561 118.054 25.4619 118.309C25.5999 118.641 25.8017 118.943 26.0566 119.197C26.3116 119.452 26.6149 119.653 26.9482 119.791C27.2816 119.929 27.6391 120 28 120C28.3609 120 28.7184 119.929 29.0518 119.791C29.3851 119.653 29.6884 119.452 29.9434 119.197C30.1983 118.943 30.4001 118.641 30.5381 118.309Z" fill="currentColor"/>
  <path d="M26.5 115C26.7761 115 27 115.224 27 115.5V116.5C27 116.776 26.7761 117 26.5 117C26.2239 117 26 116.776 26 116.5V115.5C26 115.224 26.2239 115 26.5 115Z" fill="currentColor"/>
  <path d="M29.5 115C29.7761 115 30 115.224 30 115.5V116.5C30 116.776 29.7761 117 29.5 117C29.2239 117 29 116.776 29 116.5V115.5C29 115.224 29.2239 115 29.5 115Z" fill="currentColor"/>
  <path d="M28 111C31.866 111 35 114.134 35 118C35 121.866 31.866 125 28 125C24.134 125 21 121.866 21 118C21 114.134 24.134 111 28 111ZM28 112C24.6863 112 22 114.686 22 118C22 121.314 24.6863 124 28 124C31.3137 124 34 121.314 34 118C34 114.686 31.3137 112 28 112Z" fill="currentColor"/>
</svg>
