<svg xmlns="http://www.w3.org/2000/svg" width="16" height="16" viewBox="20.0 111.22 16.0 16.0" fill="none">
  <path d="M31.291 124.018C31.5218 123.867 31.8317 123.931 31.9834 124.162C32.1348 124.392 32.0713 124.703 31.8408 124.854C30.738 125.579 29.4172 126.001 28 126.001C26.5828 126.001 25.262 125.579 24.1592 124.854C23.9287 124.703 23.8652 124.392 24.0166 124.162C24.1683 123.931 24.4782 123.867 24.709 124.018C25.6537 124.639 26.7839 125.001 28 125.001C29.2161 125.001 30.3463 124.639 31.291 124.018Z" fill="currentColor"/>
  <path d="M28 118.001C28.5522 118.001 29 118.448 29 119.001C28.9999 119.553 28.5521 120.001 28 120.001C27.4478 120.001 27.0001 119.553 27 119.001C27 118.448 27.4477 118.001 28 118.001Z" fill="currentColor"/>
  <path d="M28.3398 115.002C28.9474 115.002 29.4454 115.484 29.4639 116.092L29.4668 116.195C29.4677 116.215 29.4846 116.266 29.5566 116.308C29.623 116.347 29.672 116.338 29.6904 116.328L29.7842 116.277C30.3218 115.989 30.9908 116.181 31.2959 116.709L31.6328 117.292C31.9374 117.819 31.7681 118.494 31.25 118.814L31.1621 118.869C31.1472 118.878 31.1113 118.915 31.1113 119.001L31.1162 119.054C31.1267 119.099 31.1489 119.121 31.1592 119.128L31.251 119.183C31.7692 119.504 31.9386 120.18 31.6338 120.708L31.2969 121.292C30.9924 121.819 30.3238 122.01 29.7871 121.722L29.6943 121.673C29.6752 121.663 29.6247 121.652 29.5566 121.692C29.4845 121.734 29.4676 121.786 29.4668 121.806L29.4639 121.91C29.4451 122.518 28.9469 123.001 28.3389 123.001H27.6602C27.0521 123.001 26.5533 122.518 26.5342 121.91L26.5312 121.806C26.5306 121.787 26.5142 121.735 26.4414 121.692C26.3734 121.652 26.3233 121.663 26.3047 121.673L26.2139 121.721C25.6783 122.009 25.0103 121.82 24.7061 121.294L24.3682 120.708C24.0635 120.18 24.2326 119.507 24.75 119.185L24.8398 119.13C24.8507 119.123 24.8723 119.1 24.8828 119.054L24.8887 119.001C24.8887 118.916 24.8531 118.878 24.8369 118.868L24.75 118.814C24.233 118.493 24.064 117.82 24.3682 117.293L24.7061 116.707C25.0106 116.18 25.6791 115.99 26.2158 116.277L26.3086 116.327C26.3265 116.336 26.3758 116.347 26.4424 116.308C26.5143 116.266 26.5305 116.214 26.5312 116.195L26.5342 116.092C26.5531 115.484 27.0516 115.002 27.6592 115.002H28.3398ZM27.6592 115.89C27.5318 115.89 27.427 115.992 27.4229 116.119L27.4199 116.223C27.4076 116.609 27.169 116.912 26.8916 117.075C26.6089 117.24 26.2277 117.292 25.8887 117.11L25.7959 117.06C25.6822 116.999 25.5411 117.04 25.4766 117.152L25.1377 117.737C25.0736 117.848 25.1097 117.991 25.2188 118.058L25.3057 118.112C25.6364 118.317 25.7783 118.677 25.7783 119.001C25.7782 119.322 25.6378 119.68 25.3086 119.884L25.2188 119.94C25.1091 120.008 25.0731 120.152 25.1377 120.263L25.4756 120.849C25.5396 120.96 25.6805 121 25.793 120.939L25.8838 120.89C26.2244 120.707 26.6068 120.759 26.8906 120.926C27.1688 121.088 27.4079 121.392 27.4199 121.779L27.4229 121.882C27.427 122.009 27.5322 122.112 27.6602 122.112H28.3389C28.4666 122.112 28.5712 122.01 28.5752 121.883L28.5781 121.78C28.5899 121.392 28.8295 121.088 29.1084 120.925C29.392 120.759 29.7746 120.707 30.1152 120.889L30.207 120.938C30.3207 120.999 30.4617 120.959 30.5264 120.847L30.8643 120.263C30.929 120.151 30.8924 120.007 30.7822 119.939L30.6914 119.883C30.3622 119.679 30.2218 119.322 30.2217 119.001C30.2217 118.678 30.3621 118.318 30.6943 118.112L30.7822 118.058C30.8918 117.991 30.9276 117.848 30.8633 117.736L30.5264 117.153C30.4612 117.041 30.3188 117 30.2041 117.061L30.1104 117.111C29.771 117.293 29.3894 117.241 29.1064 117.075C28.829 116.912 28.59 116.608 28.5781 116.221L28.5752 116.119C28.5713 115.992 28.467 115.89 28.3398 115.89H27.6592Z" fill="currentColor"/>
  <path d="M25.3027 112.54C25.5575 112.433 25.8506 112.554 25.957 112.808C26.063 113.063 25.9429 113.355 25.6885 113.462C23.5214 114.367 22 116.507 22 119.001C22 119.156 22.006 119.31 22.0176 119.463C22.0384 119.738 21.8319 119.979 21.5566 120C21.2816 120.021 21.0417 119.814 21.0205 119.539C21.007 119.361 21 119.182 21 119.001C21 116.09 22.7767 113.595 25.3027 112.54Z" fill="currentColor"/>
  <path d="M30.043 112.808C30.1494 112.554 30.4425 112.433 30.6973 112.54C33.2233 113.595 35 116.09 35 119.001C34.9999 119.277 34.7761 119.501 34.5 119.501C34.2239 119.501 34.0001 119.277 34 119.001C34 116.507 32.4786 114.367 30.3115 113.462C30.0571 113.355 29.937 113.063 30.043 112.808Z" fill="currentColor"/>
</svg>
