<svg xmlns="http://www.w3.org/2000/svg" width="16" height="16" viewBox="21.0 111.0 15.0 15.0" fill="none">
  <path d="M30.5 116C30.7761 116 31 116.224 31 116.5C31 116.776 30.7761 117 30.5 117H26.5C26.2239 117 26 116.776 26 116.5C26 116.224 26.2239 116 26.5 116H30.5Z" fill="currentColor"/>
  <path d="M28.5 112C29.4285 112 30.1751 111.999 30.7607 112.078C31.3608 112.159 31.8663 112.331 32.2676 112.732C32.6689 113.134 32.8412 113.639 32.9219 114.239C32.9567 114.498 32.9737 114.789 32.9844 115.113C33.4873 115.206 33.9172 115.382 34.2676 115.732C34.6688 116.134 34.8412 116.639 34.9219 117.239C35.0006 117.825 35 118.572 35 119.5V120.5C35 121.428 35.0006 122.175 34.9219 122.761C34.8412 123.361 34.6688 123.866 34.2676 124.268C33.8664 124.669 33.3607 124.841 32.7607 124.922C32.1752 125.001 31.4283 125 30.5 125H26.5C25.5717 125 24.8248 125.001 24.2393 124.922C23.6393 124.841 23.1336 124.669 22.7324 124.268C22.3312 123.866 22.1588 123.361 22.0781 122.761C21.9994 122.175 22 121.428 22 120.5V119.5C22 118.572 21.9994 117.825 22.0781 117.239C22.1588 116.639 22.3312 116.134 22.7324 115.732C23.0825 115.382 23.5122 115.206 24.0146 115.113C24.0253 114.789 24.0433 114.498 24.0781 114.239C24.1588 113.639 24.3311 113.134 24.7324 112.732C25.1337 112.331 25.6392 112.159 26.2393 112.078C26.8249 111.999 27.5715 112 28.5 112ZM31.2002 120.6C30.632 121.026 30.1718 121.373 29.7686 121.607C29.3539 121.849 28.9541 122 28.5 122C28.0459 122 27.6461 121.849 27.2314 121.607C26.8282 121.373 26.368 121.026 25.7998 120.6L23.0068 118.505C23.0027 118.798 23 119.127 23 119.5V120.5C23 121.457 23.0007 122.124 23.0684 122.628C23.1341 123.117 23.255 123.376 23.4395 123.561C23.6239 123.745 23.8831 123.866 24.3721 123.932C24.8756 123.999 25.5433 124 26.5 124H30.5C31.4567 124 32.1244 123.999 32.6279 123.932C33.1169 123.866 33.3761 123.745 33.5605 123.561C33.745 123.376 33.8659 123.117 33.9316 122.628C33.9993 122.124 34 121.457 34 120.5V119.5C34 119.127 33.9963 118.798 33.9922 118.505L31.2002 120.6ZM28.5 113C27.5431 113 26.8756 113.001 26.3721 113.068C25.8829 113.134 25.624 113.255 25.4395 113.439C25.2549 113.624 25.1341 113.883 25.0684 114.372C25.0007 114.876 25 115.543 25 116.5V118.749L26.4004 119.8C26.9876 120.24 27.3942 120.545 27.7354 120.743C28.0649 120.935 28.2875 121 28.5 121C28.7125 121 28.9351 120.935 29.2646 120.743C29.6058 120.545 30.0124 120.24 30.5996 119.8L32 118.748V116.5C32 115.543 31.9993 114.876 31.9316 114.372C31.8659 113.883 31.7451 113.624 31.5605 113.439C31.376 113.255 31.1171 113.134 30.6279 113.068C30.1244 113.001 29.4569 113 28.5 113ZM24 116.141C23.7389 116.21 23.5702 116.309 23.4395 116.439C23.2633 116.616 23.1457 116.86 23.0781 117.308L24 117.999V116.141ZM33 116.5V117.998L33.9209 117.308C33.8533 116.86 33.7367 116.616 33.5605 116.439C33.4296 116.308 33.2608 116.21 32.999 116.141C32.9992 116.257 33 116.377 33 116.5Z" fill="currentColor"/>
</svg>
