<svg xmlns="http://www.w3.org/2000/svg" width="16" height="16" viewBox="20.0 110.5 17.0 17.0" fill="none">
  <path d="M31.1465 119.146C31.3417 118.951 31.6583 118.951 31.8535 119.146L33.8535 121.146C34.0242 121.317 34.046 121.581 33.918 121.775L33.8535 121.854L31.8535 123.854C31.6583 124.049 31.3417 124.049 31.1465 123.854C30.9514 123.658 30.9514 123.342 31.1465 123.146L32.293 122H29.5C29.224 122 29.0002 121.776 29 121.5C29.0001 121.224 29.2239 121 29.5 121H32.293L31.1465 119.854C30.9514 119.658 30.9514 119.342 31.1465 119.146Z" fill="currentColor"/>
  <path d="M31.5 117C33.9853 117 36 119.015 36 121.5C36 123.985 33.9853 126 31.5 126C29.0147 126 27 123.985 27 121.5C27 119.015 29.0147 117 31.5 117ZM31.5 118C29.567 118 28 119.567 28 121.5C28 123.433 29.567 125 31.5 125C33.433 125 35 123.433 35 121.5C35 119.567 33.433 118 31.5 118Z" fill="currentColor"/>
  <path d="M30.5 112C31.4285 112 32.1751 111.999 32.7607 112.078C33.3608 112.159 33.8663 112.331 34.2676 112.732C34.6689 113.134 34.8412 113.639 34.9219 114.239C35.0006 114.825 35 115.572 35 116.5V117.257C34.693 117.003 34.3576 116.783 34 116.601V116.5C34 116.307 33.9967 116.126 33.9961 115.956L33.4277 116.349C33.0144 116.194 32.5777 116.087 32.124 116.036L33.9678 114.76C33.9584 114.62 33.9477 114.491 33.9316 114.372C33.8659 113.883 33.7451 113.624 33.5605 113.439C33.376 113.255 33.1171 113.134 32.6279 113.068C32.1244 113.001 31.4569 113 30.5 113H25.5C24.5431 113 23.8756 113.001 23.3721 113.068C22.8829 113.134 22.624 113.255 22.4395 113.439C22.2549 113.624 22.1341 113.883 22.0684 114.372C22.0523 114.492 22.0407 114.62 22.0313 114.76L27.0664 118.245C26.869 118.514 26.6946 118.8 26.5479 119.103L22.0029 115.956C22.0023 116.126 22 116.307 22 116.5V119.5C22 120.457 22.0007 121.124 22.0684 121.628C22.1341 122.117 22.2549 122.376 22.4395 122.561C22.624 122.745 22.8829 122.866 23.3721 122.932C23.8756 122.999 24.5431 123 25.5 123H26.208C26.3067 123.349 26.4395 123.683 26.6016 124H25.5C24.5715 124 23.8249 124.001 23.2393 123.922C22.6392 123.841 22.1337 123.669 21.7324 123.268C21.3311 122.866 21.1588 122.361 21.0781 121.761C20.9994 121.175 21 120.428 21 119.5V116.5C21 115.572 20.9994 114.825 21.0781 114.239C21.1588 113.639 21.3311 113.134 21.7324 112.732C22.1337 112.331 22.6392 112.159 23.2393 112.078C23.8249 111.999 24.5715 112 25.5 112H30.5Z" fill="currentColor"/>
</svg>
