<svg xmlns="http://www.w3.org/2000/svg" width="16" height="16" viewBox="20.0 111.5 17.0 17.0" fill="none">
  <path d="M31.5811 118.005C33.4298 118.099 34.9004 119.628 34.9004 121.5V122.793L35.5205 123.369C35.826 123.653 35.9999 124.051 36 124.468V124.5C36 125.328 35.3284 126 34.5 126H32.9121C32.8382 126.209 32.7201 126.401 32.5605 126.561C32.2792 126.842 31.8978 127 31.5 127C31.1022 127 30.7208 126.842 30.4395 126.561C30.2799 126.401 30.1618 126.209 30.0879 126H28.5C27.6716 126 27 125.328 27 124.5V124.468C27 124.051 27.1733 123.653 27.4785 123.369L27.9004 122.977V121.5C27.9004 119.567 29.4674 118 31.4004 118L31.5811 118.005ZM31.4004 119C30.0197 119 28.9004 120.119 28.9004 121.5V123.195L28.8896 123.298C28.8686 123.398 28.8174 123.491 28.7412 123.562L28.1592 124.102C28.0575 124.196 28 124.329 28 124.468V124.5C28 124.776 28.2239 125 28.5 125H34.5L34.6006 124.99C34.8286 124.944 35 124.742 35 124.5V124.468C34.9999 124.329 34.9416 124.196 34.8398 124.102L34.0605 123.377C33.9842 123.306 33.9322 123.214 33.9111 123.113L33.9004 123.011V121.5C33.9004 120.119 32.7809 119 31.4004 119Z" fill="currentColor"/>
  <path d="M30.5 113C31.4285 113 32.1751 112.999 32.7607 113.078C33.3608 113.159 33.8663 113.331 34.2676 113.732C34.6689 114.134 34.8412 114.639 34.9219 115.239C35.0006 115.825 35 116.572 35 117.5V118.801C34.719 118.427 34.382 118.097 34 117.826V117.5C34 117.307 33.9967 117.126 33.9961 116.956L33.3154 117.427C32.9356 117.248 32.5266 117.12 32.0977 117.054L33.9678 115.76C33.9584 115.62 33.9477 115.491 33.9316 115.372C33.8659 114.883 33.7451 114.624 33.5605 114.439C33.376 114.255 33.1171 114.134 32.6279 114.068C32.1244 114.001 31.4569 114 30.5 114H25.5C24.5431 114 23.8756 114.001 23.3721 114.068C22.8829 114.134 22.624 114.255 22.4395 114.439C22.2549 114.624 22.1341 114.883 22.0684 115.372C22.0523 115.492 22.0407 115.62 22.0313 115.76L27.3857 119.467C27.2313 119.771 27.1097 120.095 27.0273 120.435L22.0029 116.956C22.0023 117.126 22 117.307 22 117.5V120.5C22 121.457 22.0007 122.124 22.0684 122.628C22.1341 123.117 22.2549 123.376 22.4395 123.561C22.624 123.745 22.8829 123.866 23.3721 123.932C23.8756 123.999 24.5431 124 25.5 124H26.0459C26.0167 124.153 26 124.309 26 124.468V124.5C26 124.671 26.017 124.838 26.0498 125H25.5C24.5715 125 23.8249 125.001 23.2393 124.922C22.6392 124.841 22.1337 124.669 21.7324 124.268C21.3311 123.866 21.1588 123.361 21.0781 122.761C20.9994 122.175 21 121.428 21 120.5V117.5C21 116.572 20.9994 115.825 21.0781 115.239C21.1588 114.639 21.3311 114.134 21.7324 113.732C22.1337 113.331 22.6392 113.159 23.2393 113.078C23.8249 112.999 24.5715 113 25.5 113H30.5Z" fill="currentColor"/>
</svg>
