<svg xmlns="http://www.w3.org/2000/svg" width="16" height="16" viewBox="20.12 110.94 15.76 15.76" fill="none">
  <path d="M29.5 112.121C29.9638 112.121 30.3496 112.315 30.7217 112.599C31.0822 112.874 31.4847 113.278 31.9746 113.768L33.2324 115.025C33.7223 115.515 34.1263 115.918 34.4014 116.278C34.6852 116.65 34.8789 117.036 34.8789 117.5C34.8789 117.964 34.6852 118.35 34.4014 118.722C34.1263 119.082 33.7223 119.485 33.2324 119.975L28.707 124.5H33.5C33.7761 124.5 34 124.724 34 125C34 125.276 33.7761 125.5 33.5 125.5H26.3281C25.9603 125.5 25.6368 125.509 25.3398 125.386C25.1172 125.293 24.9361 125.139 24.75 124.957L22.7676 122.975C22.2776 122.485 21.8738 122.082 21.5986 121.722C21.3148 121.35 21.1212 120.964 21.1211 120.5C21.1211 120.036 21.3147 119.649 21.5986 119.277C21.8738 118.917 22.2776 118.514 22.7676 118.024L27.0254 113.768C27.5153 113.278 27.9178 112.874 28.2783 112.599C28.6504 112.315 29.0362 112.121 29.5 112.121ZM23.4746 118.731C22.9647 119.241 22.6184 119.589 22.3936 119.884C22.1775 120.167 22.1211 120.343 22.1211 120.5C22.1212 120.657 22.1777 120.832 22.3936 121.115C22.6184 121.41 22.9647 121.758 23.4746 122.268L25.2676 124.061C25.5853 124.378 25.6522 124.433 25.7227 124.462C25.7932 124.491 25.8788 124.5 26.3281 124.5H26.6719C27.1212 124.5 27.2068 124.491 27.2773 124.462C27.3478 124.433 27.4146 124.378 27.7324 124.061L28.293 123.5L23.499 118.706L23.4746 118.731ZM29.5 113.121C29.3427 113.121 29.1678 113.178 28.8848 113.394C28.5901 113.618 28.2423 113.965 27.7324 114.475L24.2061 117.999L29 122.793L32.5254 119.268C33.0353 118.758 33.3816 118.41 33.6064 118.115C33.8224 117.832 33.8789 117.657 33.8789 117.5C33.8789 117.343 33.8224 117.168 33.6064 116.885C33.3816 116.59 33.0352 116.242 32.5254 115.732L31.2676 114.475C30.7577 113.965 30.4099 113.618 30.1152 113.394C29.8322 113.178 29.6573 113.121 29.5 113.121Z" fill="currentColor"/>
</svg>
