<svg xmlns="http://www.w3.org/2000/svg" width="16" height="16" viewBox="19.95 110.95 16.1 16.1" fill="none">
  <path d="M34.1465 123.147C34.3417 122.951 34.6583 122.951 34.8535 123.147C35.0487 123.342 35.0488 123.658 34.8535 123.854L32.8535 125.854C32.6827 126.024 32.4187 126.046 32.2246 125.918L32.1465 125.854L30.1465 123.854C29.9512 123.658 29.9513 123.342 30.1465 123.147C30.3417 122.951 30.6583 122.951 30.8535 123.147L32.5 124.793L34.1465 123.147Z" fill="currentColor"/>
  <path d="M32.2422 114.001H33C34.1045 114.001 34.9999 114.897 35 116.001C34.9998 117.105 34.1045 118.001 33 118.001H32.2422C32.085 118.001 31.9673 118.002 31.8662 118.003C31.8529 118.003 31.84 118.004 31.8281 118.004C31.8202 118.012 31.8115 118.02 31.8027 118.028C31.7301 118.099 31.6465 118.183 31.5352 118.294L27.0146 122.815C26.6977 123.126 26.2642 123.508 25.7178 123.734C24.9894 124.036 24.2078 124.001 23.7578 124.001H23C21.8955 124.001 21.0002 123.105 21 122.001C21.0001 120.897 21.8955 120.001 23 120.001H23.7578C23.915 120.001 24.0327 120.001 24.1338 119.999C24.1467 119.999 24.1593 119.997 24.1709 119.997C24.1789 119.989 24.1885 119.982 24.1973 119.974C24.2699 119.903 24.3535 119.819 24.4648 119.708L28.707 115.466C29.0252 115.148 29.5537 114.569 30.2822 114.268L30.5566 114.169C31.2004 113.974 31.8484 114.001 32.2422 114.001ZM31.8428 115C31.442 115.005 31.0416 115.035 30.665 115.191C30.2885 115.346 29.984 115.609 29.6973 115.889L25.1719 120.414C24.6821 120.904 24.6194 120.942 24.5703 120.962C24.5212 120.982 24.4521 121 23.7578 121H23C22.4479 121 22.0003 121.448 22 122C22 122.552 22.4477 123 23 123H24.1572C24.5581 122.995 24.9583 122.966 25.335 122.81C25.7115 122.654 26.0159 122.391 26.3027 122.111L30.8281 117.586C31.3183 117.096 31.3806 117.059 31.4297 117.038C31.4788 117.018 31.5487 117 32.2422 117H33C33.5523 117 34 116.552 34 116C33.9997 115.448 33.5521 115 33 115H31.8428Z" fill="currentColor"/>
  <path d="M23.2246 112.082C23.4186 111.954 23.6827 111.976 23.8535 112.147L25.8535 114.147C26.0487 114.342 26.0486 114.658 25.8535 114.854C25.6583 115.049 25.3417 115.049 25.1465 114.854L23.5 113.207L21.8535 114.854C21.6583 115.049 21.3417 115.049 21.1465 114.854C20.9514 114.658 20.9513 114.342 21.1465 114.147L23.1465 112.147L23.2246 112.082Z" fill="currentColor"/>
</svg>
