<svg xmlns="http://www.w3.org/2000/svg" width="16" height="16" viewBox="21.0 112.0 14.0 14.0" fill="none">
  <path d="M28.0002 122C28.8286 122 29.5002 122.672 29.5002 123.5C29.5002 124.328 28.8286 125 28.0002 125C27.1717 125 26.5002 124.328 26.5002 123.5C26.5002 122.672 27.1717 122 28.0002 122ZM28.0002 123C27.724 123 27.5002 123.224 27.5002 123.5C27.5002 123.776 27.724 124 28.0002 124C28.2763 124 28.5002 123.776 28.5002 123.5C28.5002 123.224 28.2763 123 28.0002 123Z" fill="currentColor"/>
  <path d="M28.0002 113C29.3478 113 30.3528 114.243 30.0705 115.561L29.0939 120.116C28.9833 120.632 28.5274 121 28.0002 121C27.4729 121 27.0171 120.632 26.9064 120.116L25.9299 115.561C25.6475 114.243 26.6525 113 28.0002 113ZM28.0002 114C27.2892 114 26.7595 114.655 26.9084 115.351L27.884 119.906C27.8957 119.961 27.9443 120 28.0002 120C28.056 120 28.1047 119.961 28.1164 119.906L29.092 115.351C29.2408 114.655 28.7111 114 28.0002 114Z" fill="currentColor"/>
</svg>
