<svg xmlns="http://www.w3.org/2000/svg" width="16" height="16" viewBox="20.0 110.5 16.0 16.0" fill="none">
  <path d="M22.9531 113.653C23.1445 113.455 23.4611 113.448 23.6602 113.64C23.859 113.831 23.865 114.148 23.6738 114.347C22.6373 115.426 22 116.889 22 118.5C22 120.111 22.6373 121.574 23.6738 122.653C23.865 122.852 23.859 123.169 23.6602 123.36C23.4611 123.552 23.1445 123.545 22.9531 123.347C21.7453 122.089 21 120.381 21 118.5C21 116.619 21.7453 114.911 22.9531 113.653Z" fill="currentColor"/>
  <path d="M28 121.5C28.5523 121.5 29 121.948 29 122.5C29 123.052 28.5523 123.5 28 123.5C27.4477 123.5 27 123.052 27 122.5C27 121.948 27.4477 121.5 28 121.5Z" fill="currentColor"/>
  <path d="M32.3398 113.64C32.5389 113.448 32.8555 113.455 33.0469 113.653C34.2547 114.911 35 116.619 35 118.5C35 120.381 34.2547 122.089 33.0469 123.347C32.8555 123.545 32.5389 123.552 32.3398 123.36C32.141 123.169 32.135 122.852 32.3262 122.653C33.3627 121.574 34 120.111 34 118.5C34 116.889 33.3627 115.426 32.3262 114.347C32.135 114.148 32.141 113.831 32.3398 113.64Z" fill="currentColor"/>
  <path d="M24.2764 115.166C24.4607 114.961 24.7769 114.944 24.9824 115.128C25.1877 115.312 25.2047 115.628 25.0205 115.834C24.3858 116.542 24 117.476 24 118.5C24 119.524 24.3858 120.458 25.0205 121.166C25.2047 121.372 25.1877 121.688 24.9824 121.872C24.7769 122.056 24.4607 122.039 24.2764 121.834C23.484 120.95 23 119.78 23 118.5C23 117.22 23.484 116.05 24.2764 115.166Z" fill="currentColor"/>
  <path d="M31.0176 115.128C31.2231 114.944 31.5393 114.961 31.7236 115.166C32.516 116.05 33 117.22 33 118.5C33 119.78 32.516 120.95 31.7236 121.834C31.5393 122.039 31.2231 122.056 31.0176 121.872C30.8123 121.688 30.7953 121.372 30.9795 121.166C31.6142 120.458 32 119.524 32 118.5C32 117.476 31.6142 116.542 30.9795 115.834C30.7953 115.628 30.8123 115.312 31.0176 115.128Z" fill="currentColor"/>
  <path d="M28 113.5C29.0941 113.5 29.9267 114.482 29.7471 115.562L29.0752 119.589C28.9876 120.115 28.5329 120.5 28 120.5C27.4671 120.5 27.0124 120.115 26.9248 119.589L26.2529 115.562C26.0733 114.482 26.9059 113.5 28 113.5ZM28 114.5C27.5238 114.5 27.1619 114.928 27.2402 115.397L27.9111 119.425C27.9185 119.468 27.956 119.5 28 119.5C28.044 119.5 28.0815 119.468 28.0889 119.425L28.7598 115.397C28.8381 114.928 28.4762 114.5 28 114.5Z" fill="currentColor"/>
</svg>
