<svg xmlns="http://www.w3.org/2000/svg" width="16" height="16" viewBox="19.95 110.94 17.08 17.08" fill="none">
  <path d="M25.0449 112.844C26.2381 112.224 27.5758 111.937 28.918 112.012C30.2603 112.087 31.558 112.521 32.6748 113.269C32.9041 113.423 32.9652 113.733 32.8115 113.963C32.6579 114.192 32.3475 114.254 32.1182 114.101C31.1502 113.452 30.0257 113.075 28.8623 113.01C27.6992 112.945 26.5399 113.194 25.5059 113.73C24.4718 114.267 23.6008 115.073 22.9844 116.061C22.3681 117.05 22.0287 118.186 22.002 119.351C21.9753 120.515 22.2616 121.667 22.832 122.683C23.4025 123.698 24.2358 124.542 25.2442 125.126C26.2526 125.709 27.3994 126.011 28.5645 126C29.7295 125.988 30.8706 125.663 31.8672 125.059C32.1033 124.917 32.4108 124.992 32.5537 125.228C32.6967 125.465 32.6209 125.772 32.3848 125.915C31.2348 126.611 29.9185 126.987 28.5742 127C27.23 127.013 25.9067 126.664 24.7432 125.991C23.5797 125.318 22.6181 124.344 21.96 123.172C21.3019 122 20.9712 120.672 21.002 119.328C21.0328 117.984 21.4245 116.673 22.1358 115.532C22.847 114.391 23.8518 113.463 25.0449 112.844Z" fill="currentColor"/>
  <path d="M30.1465 116.146C30.3418 115.951 30.6583 115.951 30.8535 116.146C31.0488 116.342 31.0488 116.658 30.8535 116.853L28.707 119H35.5C35.7762 119 36 119.224 36 119.5C36 119.776 35.7761 120 35.5 120H28.707L30.8535 122.146C31.0488 122.342 31.0488 122.658 30.8535 122.853C30.6583 123.049 30.3418 123.049 30.1465 122.853L27.1465 119.853C27.0528 119.76 27 119.633 27 119.5C27 119.367 27.0528 119.24 27.1465 119.146L30.1465 116.146Z" fill="currentColor"/>
</svg>
