<svg xmlns="http://www.w3.org/2000/svg" width="16" height="16" viewBox="19.95 110.95 16.1 16.1" fill="none">
  <path d="M34.1465 112.147C34.3417 111.951 34.6583 111.951 34.8535 112.147C35.0488 112.342 35.0488 112.658 34.8535 112.854L21.8535 125.854C21.6583 126.049 21.3417 126.049 21.1465 125.854C20.9512 125.658 20.9512 125.342 21.1465 125.147L23.6885 122.604C23.4115 122.41 23.1532 122.208 22.918 121.999C22.3218 121.469 21.853 120.902 21.5303 120.393C21.3691 120.138 21.2403 119.891 21.1504 119.665C21.0637 119.447 21 119.216 21 119C21 118.785 21.0637 118.553 21.1504 118.335C21.2403 118.109 21.3691 117.862 21.5303 117.608C21.853 117.098 22.3218 116.531 22.918 116.001C24.1097 114.942 25.8482 114 28 114C29.307 114 30.4606 114.349 31.4326 114.859L34.1465 112.147ZM28 115C26.152 115 24.6403 115.808 23.582 116.749C23.0534 117.219 22.647 117.715 22.376 118.143C22.2405 118.357 22.1425 118.547 22.0801 118.704C22.0145 118.869 22 118.966 22 119C22 119.035 22.0145 119.131 22.0801 119.296C22.1425 119.453 22.2405 119.644 22.376 119.858C22.647 120.285 23.0534 120.781 23.582 121.251C23.8321 121.473 24.1097 121.685 24.4092 121.883L25.5566 120.735C25.2078 120.245 25 119.648 25 119C25 117.343 26.3431 116 28 116C28.6475 116 29.2452 116.208 29.7354 116.557L30.6846 115.608C29.9002 115.241 29.0003 115 28 115ZM28 117C26.8954 117 26 117.896 26 119C26 119.371 26.1027 119.716 26.2783 120.014L29.0137 117.278C28.7162 117.103 28.3705 117 28 117Z" fill="currentColor"/>
  <path d="M33.2852 116.189C33.7852 116.663 34.1847 117.157 34.4697 117.608C34.6309 117.862 34.7597 118.109 34.8496 118.335C34.9363 118.553 35 118.785 35 119C35 119.216 34.9363 119.447 34.8496 119.665C34.7597 119.891 34.6309 120.138 34.4697 120.393C34.147 120.902 33.6782 121.469 33.082 121.999C31.8903 123.058 30.1518 124 28 124C27.2133 124 26.4822 123.873 25.8125 123.661L26.627 122.847C27.0605 122.944 27.5188 123 28 123C29.848 123 31.3597 122.192 32.418 121.251C32.9466 120.781 33.353 120.285 33.624 119.858C33.7595 119.644 33.8575 119.453 33.9199 119.296C33.9855 119.131 34 119.035 34 119C34 118.966 33.9855 118.869 33.9199 118.704C33.8575 118.547 33.7595 118.357 33.624 118.143C33.381 117.759 33.0283 117.322 32.5771 116.897L33.2852 116.189Z" fill="currentColor"/>
  <path d="M30.96 118.514C30.9858 118.672 31 118.834 31 119C31 120.657 29.6568 122 28 122C27.8344 122 27.672 121.986 27.5137 121.96L28.5537 120.92C29.2126 120.73 29.7302 120.213 29.9199 119.554L30.96 118.514Z" fill="currentColor"/>
</svg>
