<svg xmlns="http://www.w3.org/2000/svg" width="16" height="16" viewBox="20.0 111.0 16.0 16.0" fill="none">
  <path d="M28 116C29.6569 116 31 117.343 31 119C31 120.657 29.6569 122 28 122C26.3431 122 25 120.657 25 119C25 117.343 26.3431 116 28 116ZM28 117C26.8954 117 26 117.895 26 119C26 120.105 26.8954 121 28 121C29.1046 121 30 120.105 30 119C30 117.895 29.1046 117 28 117Z" fill="currentColor"/>
  <path d="M28 114C30.1518 114 31.8903 114.942 33.082 116.001C33.6782 116.531 34.147 117.098 34.4697 117.607C34.631 117.862 34.7597 118.109 34.8496 118.335C34.9363 118.553 35 118.785 35 119C35 119.215 34.9363 119.447 34.8496 119.665C34.7597 119.891 34.631 120.138 34.4697 120.393C34.147 120.902 33.6782 121.469 33.082 121.999C31.8903 123.058 30.1518 124 28 124C25.8482 124 24.1097 123.058 22.918 121.999C22.3218 121.469 21.853 120.902 21.5303 120.393C21.369 120.138 21.2403 119.891 21.1504 119.665C21.0637 119.447 21 119.215 21 119C21 118.785 21.0637 118.553 21.1504 118.335C21.2403 118.109 21.369 117.862 21.5303 117.607C21.853 117.098 22.3218 116.531 22.918 116.001C24.1097 114.942 25.8482 114 28 114ZM28 115C26.152 115 24.6403 115.808 23.582 116.749C23.0534 117.219 22.647 117.715 22.376 118.143C22.2405 118.357 22.1425 118.547 22.0801 118.704C22.0145 118.869 22 118.966 22 119C22 119.034 22.0145 119.131 22.0801 119.296C22.1425 119.453 22.2405 119.643 22.376 119.857C22.647 120.285 23.0534 120.781 23.582 121.251C24.6403 122.192 26.152 123 28 123C29.848 123 31.3597 122.192 32.418 121.251C32.9466 120.781 33.353 120.285 33.624 119.857C33.7595 119.643 33.8575 119.453 33.9199 119.296C33.9855 119.131 34 119.034 34 119C34 118.966 33.9855 118.869 33.9199 118.704C33.8575 118.547 33.7595 118.357 33.624 118.143C33.353 117.715 32.9466 117.219 32.418 116.749C31.3597 115.808 29.848 115 28 115Z" fill="currentColor"/>
</svg>
