<svg xmlns="http://www.w3.org/2000/svg" width="16" height="16" viewBox="20.0 111.49 17.0 17.0" fill="none">
  <path d="M32 118.12C32.1893 118.12 32.3499 118.186 32.4727 118.249C32.5942 118.311 32.7352 118.4 32.8867 118.495C33.3557 118.788 34.0179 119.153 34.666 119.354C34.9199 119.432 35.1395 119.5 35.3057 119.566C35.4568 119.627 35.6658 119.722 35.8047 119.91C35.9342 120.086 35.9703 120.284 35.9854 120.44C36.0004 120.597 36 120.79 36 121V122.5C36 124.063 35.2734 125.126 34.4551 125.812C33.6504 126.488 32.7527 126.805 32.3467 126.925C32.2618 126.95 32.1532 126.984 32 126.984C31.8468 126.984 31.7382 126.95 31.6533 126.925C31.2473 126.805 30.3496 126.488 29.5449 125.812C28.7266 125.126 28 124.063 28 122.5V121C28 120.79 27.9996 120.597 28.0146 120.44C28.0297 120.284 28.0658 120.086 28.1953 119.91C28.3342 119.722 28.5432 119.627 28.6943 119.566C28.8605 119.5 29.0801 119.432 29.334 119.354C29.9821 119.153 30.6443 118.788 31.1133 118.495C31.2648 118.4 31.4059 118.311 31.5273 118.249C31.6501 118.186 31.8107 118.12 32 118.12ZM31.9824 119.14C31.9088 119.177 31.8106 119.238 31.6436 119.343C31.147 119.653 30.3995 120.07 29.6299 120.309C29.3592 120.392 29.1849 120.447 29.0645 120.495C29.0427 120.504 29.0256 120.512 29.0117 120.519C29.0111 120.524 29.0104 120.53 29.0098 120.536C29.0004 120.633 29 120.77 29 121V122.5C29 123.708 29.5461 124.508 30.1875 125.046C30.8424 125.595 31.5917 125.865 31.9355 125.966C31.9589 125.973 31.9745 125.977 31.9873 125.98C31.9928 125.982 31.997 125.983 32 125.983C32.003 125.983 32.0072 125.982 32.0127 125.98C32.0255 125.977 32.0411 125.973 32.0645 125.966C32.4083 125.865 33.1576 125.595 33.8125 125.046C34.4539 124.508 35 123.708 35 122.5V121C35 120.77 34.9996 120.633 34.9902 120.536C34.9896 120.53 34.9879 120.524 34.9873 120.519C34.9736 120.512 34.9569 120.504 34.9355 120.495C34.8151 120.447 34.6408 120.392 34.3701 120.309C33.6005 120.07 32.853 119.653 32.3564 119.343C32.1894 119.238 32.0912 119.177 32.0176 119.14C32.0112 119.136 32.0051 119.134 32 119.132C31.9949 119.134 31.9888 119.136 31.9824 119.14Z" fill="currentColor"/>
  <path d="M31.5 115C32.193 115 32.7634 114.999 33.2129 115.06C33.6767 115.122 34.0861 115.258 34.4141 115.586C34.742 115.914 34.878 116.323 34.9404 116.787C34.9982 117.217 34.999 117.758 34.999 118.41C34.9866 118.406 34.9742 118.402 34.9619 118.398C34.6441 118.3 34.3097 118.144 33.9961 117.978C33.9932 117.53 33.9856 117.192 33.9492 116.921C33.9018 116.568 33.8183 116.404 33.707 116.293C33.5957 116.182 33.4321 116.098 33.0791 116.051C32.7117 116.001 32.2212 116 31.5 116H24.5C23.7789 116 23.2883 116.001 22.9209 116.051C22.5679 116.098 22.4043 116.182 22.293 116.293C22.1817 116.404 22.0982 116.568 22.0508 116.921C22.0014 117.288 22 117.779 22 118.5V119.5C22 120.221 22.0014 120.712 22.0508 121.079C22.0982 121.432 22.1817 121.596 22.293 121.707C22.4043 121.818 22.5679 121.902 22.9209 121.949C23.2883 121.999 23.7789 122 24.5 122H27V122.5C27 122.671 27.0095 122.838 27.0234 123H24.5C23.807 123 23.2366 123.001 22.7871 122.94C22.3234 122.878 21.9139 122.742 21.5859 122.414C21.258 122.086 21.122 121.677 21.0596 121.213C20.9991 120.763 21 120.193 21 119.5V118.5C21 117.807 20.9991 117.237 21.0596 116.787C21.122 116.323 21.258 115.914 21.5859 115.586C21.9139 115.258 22.3234 115.122 22.7871 115.06C23.2366 114.999 23.807 115 24.5 115H31.5Z" fill="currentColor"/>
  <path d="M23.5 117C23.7761 117 24 117.224 24 117.5V120.5C24 120.776 23.7761 121 23.5 121C23.2239 121 23 120.776 23 120.5V117.5C23 117.224 23.2239 117 23.5 117Z" fill="currentColor"/>
  <path d="M29.5 113C29.7761 113 30 113.224 30 113.5C30 113.776 29.7761 114 29.5 114H21.5C21.2239 114 21 113.776 21 113.5C21 113.224 21.2239 113 21.5 113H29.5Z" fill="currentColor"/>
</svg>
