<svg xmlns="http://www.w3.org/2000/svg" width="16" height="16" viewBox="20.0 109.0 16.0 16.0" fill="none">
  <path d="M23.5 116C23.7761 116 24 116.224 24 116.5V119.5C24 119.776 23.7761 120 23.5 120C23.2239 120 23 119.776 23 119.5V116.5C23 116.224 23.2239 116 23.5 116Z" fill="currentColor"/>
  <path d="M31.5 114C32.193 114 32.7634 113.999 33.2129 114.06C33.6767 114.122 34.0861 114.258 34.4141 114.586C34.742 114.914 34.878 115.323 34.9404 115.787C35.0009 116.237 35 116.807 35 117.5V118.5C35 119.193 35.0009 119.763 34.9404 120.213C34.878 120.677 34.742 121.086 34.4141 121.414C34.0861 121.742 33.6767 121.878 33.2129 121.94C32.7634 122.001 32.193 122 31.5 122H24.5C23.807 122 23.2366 122.001 22.7871 121.94C22.3234 121.878 21.9139 121.742 21.5859 121.414C21.258 121.086 21.122 120.677 21.0596 120.213C20.9991 119.763 21 119.193 21 118.5V117.5C21 116.807 20.9991 116.237 21.0596 115.787C21.122 115.323 21.258 114.914 21.5859 114.586C21.9139 114.258 22.3234 114.122 22.7871 114.06C23.2366 113.999 23.807 114 24.5 114H31.5ZM24.5 115C23.7788 115 23.2883 115.001 22.9209 115.051C22.5679 115.098 22.4043 115.182 22.293 115.293C22.1817 115.404 22.0982 115.568 22.0508 115.921C22.0014 116.288 22 116.779 22 117.5V118.5C22 119.221 22.0014 119.712 22.0508 120.079C22.0982 120.432 22.1817 120.596 22.293 120.707C22.4043 120.818 22.5679 120.902 22.9209 120.949C23.2883 120.999 23.7788 121 24.5 121H31.5C32.2212 121 32.7117 120.999 33.0791 120.949C33.4321 120.902 33.5957 120.818 33.707 120.707C33.8183 120.596 33.9018 120.432 33.9492 120.079C33.9986 119.712 34 119.221 34 118.5V117.5C34 116.779 33.9986 116.288 33.9492 115.921C33.9018 115.568 33.8183 115.404 33.707 115.293C33.5957 115.182 33.4321 115.098 33.0791 115.051C32.7117 115.001 32.2212 115 31.5 115H24.5Z" fill="currentColor"/>
  <path d="M29.5 112C29.7761 112 30 112.224 30 112.5C30 112.776 29.7761 113 29.5 113H21.5C21.2239 113 21 112.776 21 112.5C21 112.224 21.2239 112 21.5 112H29.5Z" fill="currentColor"/>
</svg>
