<svg xmlns="http://www.w3.org/2000/svg" width="16" height="16" viewBox="19.95 111.48 16.05 16.05" fill="none">
  <path d="M33.4679 114C34.3138 114 35.0001 114.686 35.0001 115.532C35 115.974 34.8089 116.394 34.4766 116.685L31.171 119.577C31.081 119.656 31.036 119.697 31.0059 119.728L31.004 119.729V119.731C31.0005 119.774 31.0001 119.835 31.0001 119.954V123.5C31.0001 123.633 30.9474 123.76 30.8536 123.854L30.0606 124.646C29.8343 124.873 29.5272 125 29.2071 125C28.5405 125 28.0001 124.46 28.0001 123.793V119.954C28.0001 119.835 27.9997 119.774 27.9962 119.731L27.9952 119.729L27.9942 119.728C27.9641 119.697 27.9192 119.656 27.8292 119.577L24.5235 116.685C24.1912 116.394 24.0002 115.974 24.0001 115.532C24.0001 114.686 24.6863 114 25.5323 114H33.4679ZM25.5323 115C25.2386 115 25.0001 115.239 25.0001 115.532C25.0002 115.685 25.0665 115.831 25.1817 115.932L28.4874 118.825C28.6215 118.943 28.8104 119.094 28.9102 119.313C29.01 119.533 29.0001 119.776 29.0001 119.954V123.793C29.0001 123.907 29.0928 124 29.2071 124C29.262 124 29.3148 123.978 29.3536 123.939L30.0001 123.293V119.954C30.0001 119.776 29.9901 119.533 30.0899 119.313L30.1309 119.234C30.2358 119.056 30.3954 118.928 30.5128 118.825L33.8184 115.932C33.9336 115.831 34 115.685 34.0001 115.532C34.0001 115.239 33.7615 115 33.4679 115H25.5323Z" fill="currentColor"/>
  <path d="M23.1466 118.146C23.3418 117.951 23.6583 117.951 23.8536 118.146C24.0488 118.342 24.0488 118.658 23.8536 118.854L22.2071 120.5L23.8536 122.146C24.0488 122.342 24.0488 122.658 23.8536 122.854C23.6584 123.049 23.3418 123.049 23.1466 122.854L21.1466 120.854C20.9513 120.658 20.9513 120.342 21.1466 120.146L23.1466 118.146Z" fill="currentColor"/>
</svg>
