<svg xmlns="http://www.w3.org/2000/svg" width="16" height="16" viewBox="20.5 110.0 17.0 17.0" fill="none">
  <path d="M28.8789 113.136C28.5009 113.308 28.2204 113.624 28.0869 114H23.9141C23.4093 114 23.0001 114.409 23 114.914C23 115.156 23.0962 115.389 23.2676 115.561L26.457 118.75C26.6386 118.936 26.7934 119.117 26.8857 119.34C27.0087 119.637 27 119.96 27 120.328V124.793C27 124.907 27.0927 125 27.207 125C27.2619 125 27.3147 124.978 27.3535 124.939L29 123.293V120.328C29 119.96 28.9913 119.637 29.1143 119.34C29.2066 119.117 29.3614 118.936 29.543 118.75L30.8281 117.464C30.9021 117.618 31.0005 117.827 31.1357 118.124C31.1816 118.225 31.238 118.318 31.3027 118.404L30.4395 119.268C30.1219 119.585 30.0673 119.652 30.0381 119.723C30.0089 119.793 30 119.879 30 120.328V123.5C30 123.633 29.9473 123.76 29.8535 123.854L28.0605 125.646C27.8342 125.873 27.5271 126 27.207 126C26.5404 126 26 125.46 26 124.793V120.328C26 119.879 25.9911 119.793 25.9619 119.723C25.9327 119.652 25.8781 119.585 25.5605 119.268L22.5605 116.268C22.2017 115.909 22 115.422 22 114.914C22.0001 113.857 22.857 113 23.9141 113H29.1709L28.8789 113.136Z" fill="currentColor"/>
  <path d="M32.502 111C32.6978 111 32.876 111.115 32.957 111.293C33.2775 111.998 33.4135 112.293 33.5918 112.548C33.8268 112.884 34.1189 113.176 34.4551 113.411C34.7101 113.589 35.0049 113.725 35.71 114.046C35.8885 114.127 36.0029 114.306 36.0029 114.502C36.0027 114.698 35.8883 114.876 35.71 114.957C35.0049 115.278 34.7101 115.414 34.4551 115.592C34.1189 115.827 33.8268 116.119 33.5918 116.455C33.4135 116.71 33.2775 117.005 32.957 117.71C32.876 117.888 32.6978 118.003 32.502 118.003C32.3059 118.003 32.127 117.888 32.0459 117.71C31.7254 117.005 31.5894 116.71 31.4111 116.455C31.1762 116.119 30.884 115.827 30.5479 115.592C30.2928 115.414 29.998 115.278 29.293 114.957C29.1146 114.876 29.0002 114.698 29 114.502C29 114.306 29.1145 114.127 29.293 114.046C29.998 113.725 30.2928 113.589 30.5479 113.411C30.884 113.176 31.1762 112.884 31.4111 112.548C31.5894 112.293 31.7254 111.998 32.0459 111.293L32.0811 111.229C32.1721 111.088 32.3303 111 32.502 111ZM32.501 112.664C32.4123 112.833 32.3288 112.982 32.2314 113.121C31.9293 113.553 31.5534 113.929 31.1211 114.231C30.9818 114.329 30.8331 114.412 30.6641 114.501C30.8332 114.59 30.9817 114.674 31.1211 114.771C31.5534 115.074 31.9293 115.45 32.2314 115.882C32.3287 116.021 32.4125 116.169 32.501 116.338C32.5896 116.169 32.6742 116.021 32.7715 115.882C33.0736 115.45 33.4496 115.074 33.8818 114.771C34.0211 114.674 34.169 114.59 34.3379 114.501C34.1692 114.412 34.0209 114.329 33.8818 114.231C33.4496 113.929 33.0736 113.553 32.7715 113.121C32.674 112.982 32.5897 112.833 32.501 112.664Z" fill="currentColor"/>
</svg>
