<svg xmlns="http://www.w3.org/2000/svg" width="16" height="16" viewBox="20.5 112.0 15.0 15.0" fill="none">
  <path d="M29 120.328C29 119.96 28.9913 119.637 29.1143 119.34C29.2066 119.117 29.3614 118.936 29.543 118.75L32.7324 115.561C32.9038 115.389 33 115.156 33 114.914C32.9999 114.409 32.5907 114 32.0859 114H23.9141C23.4093 114 23.0001 114.409 23 114.914C23 115.156 23.0962 115.389 23.2676 115.561L26.457 118.75C26.6386 118.936 26.7934 119.117 26.8857 119.34C27.0087 119.637 27 119.96 27 120.328V124.793C27 124.907 27.0927 125 27.207 125C27.2619 125 27.3147 124.978 27.3535 124.939L29 123.293V120.328ZM34 114.914C34 115.422 33.7983 115.909 33.4395 116.268L30.4395 119.268C30.1219 119.585 30.0673 119.652 30.0381 119.723C30.0089 119.793 30 119.879 30 120.328V123.5C30 123.633 29.9473 123.76 29.8535 123.854L28.0605 125.646C27.8342 125.873 27.5271 126 27.207 126C26.5404 126 26 125.46 26 124.793V120.328C26 119.879 25.9911 119.793 25.9619 119.723C25.9327 119.652 25.8781 119.585 25.5605 119.268L22.5605 116.268C22.2017 115.909 22 115.422 22 114.914C22.0001 113.857 22.857 113 23.9141 113H32.0859C33.143 113 33.9999 113.857 34 114.914Z" fill="currentColor"/>
</svg>
