<svg xmlns="http://www.w3.org/2000/svg" width="16" height="16" viewBox="23.0 111.48 16.05 16.05" fill="none">
  <path d="M33.4678 114C34.3138 114 35 114.686 35 115.532C34.9999 115.974 34.8089 116.394 34.4766 116.685L31.1709 119.577C31.0809 119.656 31.0359 119.697 31.0059 119.728L31.0039 119.729V119.731C31.0004 119.774 31 119.835 31 119.954V123.5C31 123.633 30.9473 123.76 30.8535 123.854L30.0605 124.646C29.8342 124.873 29.5271 125 29.207 125C28.5404 125 28 124.46 28 123.793V119.954C28 119.835 27.9996 119.774 27.9961 119.731L27.9951 119.729L27.9941 119.728C27.9641 119.697 27.9191 119.656 27.8291 119.577L24.5234 116.685C24.1911 116.394 24.0001 115.974 24 115.532C24 114.686 24.6862 114 25.5322 114H33.4678ZM25.5322 115C25.2385 115 25 115.239 25 115.532C25.0001 115.685 25.0664 115.831 25.1816 115.932L28.4873 118.825C28.6214 118.943 28.8103 119.094 28.9102 119.313C29.01 119.533 29 119.776 29 119.954V123.793C29 123.907 29.0927 124 29.207 124C29.2619 124 29.3147 123.978 29.3535 123.939L30 123.293V119.954C30 119.776 29.99 119.533 30.0898 119.313L30.1309 119.234C30.2357 119.056 30.3953 118.928 30.5127 118.825L33.8184 115.932C33.9336 115.831 33.9999 115.685 34 115.532C34 115.239 33.7615 115 33.4678 115H25.5322Z" fill="currentColor"/>
  <path d="M35.1465 118.146C35.3417 117.951 35.6583 117.951 35.8535 118.146L37.8535 120.146C38.0488 120.342 38.0488 120.658 37.8535 120.854L35.8535 122.854C35.6583 123.049 35.3417 123.049 35.1465 122.854C34.9512 122.658 34.9512 122.342 35.1465 122.146L36.793 120.5L35.1465 118.854C34.9512 118.658 34.9512 118.342 35.1465 118.146Z" fill="currentColor"/>
</svg>
