<svg xmlns="http://www.w3.org/2000/svg" width="16" height="16" viewBox="19.98 111.01 16.04 16.04" fill="none">
  <path d="M33 120.347C33 119.653 32.882 119.102 32.5977 118.552C32.3068 117.989 31.8276 117.401 31.0576 116.656C29.8439 115.483 29.7358 113.934 29.7812 113.095C29.7819 113.082 29.7816 113.07 29.7822 113.058C29.1531 113.19 28.7238 113.551 28.4082 114.071C28.0747 114.621 27.875 115.341 27.7432 116.127C27.6743 116.537 27.622 116.924 27.584 117.245C27.4968 117.982 26.8769 118.568 26.1123 118.568C25.3658 118.568 24.7413 118.002 24.668 117.259L24.5879 116.455C23.7116 117.241 23 118.54 23 120.347C23 122.098 23.9738 123.64 25.4395 124.483C25.3268 124.114 25.25 123.667 25.25 123.131C25.2501 122.046 25.927 121.102 26.5098 120.48C26.811 120.158 27.1112 119.897 27.335 119.717C27.4472 119.626 27.5413 119.555 27.6084 119.506C27.6419 119.481 27.6685 119.462 27.6875 119.448C27.697 119.442 27.7045 119.436 27.71 119.433C27.7126 119.431 27.7151 119.43 27.7168 119.429L27.7188 119.427L27.7207 119.426C27.8895 119.312 28.1105 119.312 28.2793 119.426L28.3125 119.448L28.2803 119.427L28.2832 119.429C28.2849 119.43 28.2874 119.431 28.29 119.433C28.2955 119.436 28.303 119.442 28.3125 119.448C28.3315 119.462 28.3581 119.481 28.3916 119.506C28.4587 119.555 28.5528 119.626 28.665 119.717C28.8888 119.897 29.189 120.158 29.4902 120.48C30.073 121.102 30.7499 122.046 30.75 123.131C30.75 123.667 30.6723 124.114 30.5596 124.483C32.0256 123.64 33 122.098 33 120.347ZM26.9238 125.085C27.1249 125.22 27.2009 125.479 27.1035 125.701C27.0059 125.923 26.7622 126.043 26.5264 125.985C23.9361 125.351 22 123.077 22 120.347C22 118.173 22.8997 116.559 24.0557 115.592L24.1699 115.51C24.4447 115.341 24.7661 115.34 25.0293 115.465C25.2856 115.587 25.4822 115.824 25.5508 116.118L25.5723 116.248L25.6631 117.161C25.686 117.392 25.8801 117.568 26.1123 117.568C26.3473 117.568 26.5605 117.383 26.5908 117.127C26.6303 116.793 26.6847 116.391 26.7568 115.961C26.8959 115.132 27.1212 114.265 27.5527 113.553C27.9949 112.823 28.6586 112.253 29.6377 112.065C29.7515 112.044 29.8952 112.015 30.0205 112.011C30.1684 112.006 30.368 112.032 30.5439 112.186C30.7371 112.354 30.7763 112.576 30.7871 112.712C30.7975 112.843 30.7881 113.003 30.7803 113.148C30.7408 113.877 30.8481 115.064 31.752 115.938C32.5531 116.712 33.1215 117.389 33.4854 118.092C33.8556 118.808 34 119.522 34 120.347C34 123.077 32.0639 125.351 29.4736 125.985C29.2378 126.043 28.9941 125.923 28.8965 125.701C28.7992 125.48 28.8747 125.22 29.0752 125.085L29.0791 125.082C29.091 125.072 29.1128 125.053 29.1416 125.024C29.1994 124.967 29.2852 124.869 29.374 124.722C29.5497 124.431 29.75 123.928 29.75 123.131C29.7499 122.444 29.3018 121.742 28.7598 121.163C28.4987 120.884 28.2361 120.655 28.0381 120.495C28.0253 120.485 28.0122 120.475 28 120.465C27.9878 120.475 27.9747 120.485 27.9619 120.495C27.7639 120.655 27.5013 120.884 27.2402 121.163C26.6982 121.742 26.2501 122.444 26.25 123.131C26.25 123.928 26.4503 124.431 26.626 124.722C26.7148 124.869 26.8006 124.967 26.8584 125.024C26.8872 125.053 26.909 125.072 26.9209 125.082L26.9238 125.085Z" fill="currentColor"/>
</svg>
