<svg xmlns="http://www.w3.org/2000/svg" width="16" height="16" viewBox="20.51 112.0 15.0 15.0" fill="none">
  <path d="M30.9668 113C31.6772 113 32.2551 113 32.6797 113.048C33.0699 113.092 33.5369 113.194 33.7832 113.591C33.8787 113.745 33.9398 113.918 33.9619 114.098C34.0188 114.561 33.7186 114.934 33.4424 115.213C33.1419 115.517 32.6919 115.878 32.1387 116.323C31.8542 116.552 31.6758 116.697 31.5586 116.816C31.5035 116.873 31.4759 116.91 31.4619 116.934C31.4501 116.953 31.4492 116.961 31.4492 116.961C31.4451 116.987 31.4451 117.013 31.4492 117.039C31.4492 117.039 31.4501 117.047 31.4619 117.066C31.4759 117.09 31.5035 117.127 31.5586 117.184C31.6758 117.303 31.8542 117.448 32.1387 117.677C32.6919 118.122 33.1419 118.483 33.4424 118.787C33.7186 119.066 34.0188 119.439 33.9619 119.902C33.9398 120.082 33.8787 120.255 33.7832 120.409C33.5369 120.806 33.0699 120.908 32.6797 120.952C32.2551 121 31.6772 121 30.9668 121H23V125.5C23 125.776 22.7761 126 22.5 126C22.2239 126 22 125.776 22 125.5V116.5C22 115.807 21.9991 115.237 22.0596 114.787C22.122 114.323 22.258 113.914 22.5859 113.586C22.9139 113.258 23.3234 113.122 23.7871 113.06C24.2366 112.999 24.807 113 25.5 113H30.9668ZM25.5 114C24.7788 114 24.2883 114.001 23.9209 114.051C23.5679 114.098 23.4043 114.182 23.293 114.293C23.1817 114.404 23.0982 114.568 23.0508 114.921C23.0014 115.288 23 115.779 23 116.5V120H30.9668C31.7037 120 32.2122 119.999 32.5664 119.959C32.8297 119.929 32.9169 119.884 32.9375 119.872C32.9518 119.847 32.962 119.82 32.9668 119.791C32.959 119.77 32.92 119.681 32.7314 119.49C32.4807 119.237 32.0859 118.917 31.5117 118.455C31.247 118.242 31.0125 118.055 30.8438 117.883C30.6692 117.704 30.508 117.486 30.4619 117.195C30.4414 117.066 30.4414 116.934 30.4619 116.805C30.508 116.514 30.6692 116.296 30.8438 116.117C31.0125 115.945 31.247 115.758 31.5117 115.545C32.0859 115.083 32.4807 114.763 32.7314 114.51C32.9227 114.316 32.9598 114.227 32.9668 114.208C32.9619 114.179 32.9519 114.152 32.9375 114.127C32.9161 114.114 32.8279 114.071 32.5664 114.041C32.2122 114.001 31.7037 114 30.9668 114H25.5Z" fill="currentColor"/>
</svg>
