<svg xmlns="http://www.w3.org/2000/svg" width="16" height="16" viewBox="21.0 112.0 16.0 16.0" fill="none">
  <path d="M31.5 120C31.7761 120 32 120.224 32 120.5V122H33.5C33.7761 122 34 122.224 34 122.5C34 122.776 33.7761 123 33.5 123H32V124.5C32 124.776 31.7761 125 31.5 125C31.2239 125 31 124.776 31 124.5V123H29.5C29.2239 123 29 122.776 29 122.5C29 122.224 29.2239 122 29.5 122H31V120.5C31 120.224 31.2239 120 31.5 120Z" fill="currentColor"/>
  <path d="M31.5 118C33.9853 118 36 120.015 36 122.5C36 124.985 33.9853 127 31.5 127C29.0147 127 27 124.985 27 122.5C27 120.015 29.0147 118 31.5 118ZM31.5 119C29.567 119 28 120.567 28 122.5C28 124.433 29.567 126 31.5 126C33.433 126 35 124.433 35 122.5C35 120.567 33.433 119 31.5 119Z" fill="currentColor"/>
  <path d="M30.9668 113C31.6772 113 32.2551 113 32.6797 113.048C33.0699 113.092 33.5369 113.194 33.7832 113.591C33.8787 113.745 33.9398 113.918 33.9619 114.098C34.0188 114.561 33.7186 114.934 33.4424 115.213C33.1419 115.517 32.6919 115.878 32.1387 116.323C31.8542 116.552 31.6758 116.697 31.5586 116.816C31.5035 116.873 31.4759 116.91 31.4619 116.934C31.4501 116.953 31.4492 116.961 31.4492 116.961C31.4471 116.974 31.4492 116.988 31.4492 117.001C31.1079 117.004 30.774 117.038 30.4502 117.101C30.4422 117.002 30.4464 116.903 30.4619 116.805C30.508 116.514 30.6692 116.296 30.8438 116.117C31.0125 115.945 31.247 115.758 31.5117 115.545C32.0859 115.083 32.4807 114.763 32.7314 114.51C32.9227 114.316 32.9598 114.227 32.9668 114.208C32.9619 114.179 32.9519 114.152 32.9375 114.127C32.9161 114.114 32.8279 114.071 32.5664 114.041C32.2122 114.001 31.7037 114 30.9668 114H25.5C24.7788 114 24.2883 114.001 23.9209 114.051C23.5679 114.098 23.4043 114.182 23.293 114.293C23.1817 114.404 23.0982 114.568 23.0508 114.921C23.0014 115.288 23 115.779 23 116.5V120H26.6016C26.4395 120.317 26.3067 120.651 26.208 121H23V125.5C23 125.776 22.7761 126 22.5 126C22.2239 126 22 125.776 22 125.5V116.5C22 115.807 21.9991 115.237 22.0596 114.787C22.122 114.323 22.258 113.914 22.5859 113.586C22.9139 113.258 23.3234 113.122 23.7871 113.06C24.2366 112.999 24.807 113 25.5 113H30.9668Z" fill="currentColor"/>
</svg>
