<svg xmlns="http://www.w3.org/2000/svg" width="16" height="16" viewBox="20.01 110.0 16.0 16.0" fill="none">
  <path d="M26 111C27.2566 111 27.8805 111.702 28.375 112.245C28.8643 112.783 29.225 113.162 30.0098 113.162C30.4077 113.162 30.7836 113.09 31.1299 112.974C31.7195 112.776 32.1913 112.618 32.54 112.53C32.714 112.487 32.8847 112.453 33.04 112.447C33.1866 112.442 33.3982 112.456 33.584 112.59C33.7491 112.709 33.8361 112.873 33.8848 113.014C33.9329 113.153 33.9572 113.308 33.9717 113.46C34.0005 113.762 34 114.173 34 114.67V118.188C34 118.561 34.0108 118.9 33.832 119.245C33.6563 119.584 33.4198 119.742 33.1631 119.924C32.5073 120.387 31.3828 121 30 121C29.4071 121 28.9496 120.849 28.5693 120.611C28.2066 120.385 27.9277 120.086 27.6973 119.847C27.4539 119.594 27.2516 119.392 26.999 119.244C26.7592 119.103 26.4527 119 26 119C25.1422 119 24.3767 119.423 23.7988 119.889C23.5144 120.118 23.2871 120.349 23.1318 120.521C23.0788 120.581 23.0352 120.633 23 120.676V124.5C23 124.776 22.7761 125 22.5 125C22.2239 125 22 124.776 22 124.5V113C22 112.912 22.0238 112.83 22.0635 112.759C22.0694 112.748 22.0744 112.737 22.0811 112.727L22.085 112.721C22.0953 112.705 22.1081 112.692 22.1201 112.678C22.1274 112.669 22.1337 112.66 22.1416 112.651L22.166 112.627C22.18 112.613 22.2005 112.594 22.2256 112.57C22.2757 112.523 22.3475 112.459 22.4395 112.382C22.6235 112.228 22.8902 112.025 23.2256 111.822C23.8924 111.419 24.8574 111 26 111ZM26 112C25.101 112 24.316 112.331 23.7432 112.678C23.4589 112.85 23.2333 113.022 23.0801 113.149C23.0502 113.174 23.0241 113.199 23 113.22V119.255C23.0549 119.207 23.1116 119.159 23.1709 119.111C23.8326 118.578 24.8165 118 26 118C26.6231 118 27.1053 118.147 27.5049 118.381C27.8915 118.608 28.1803 118.906 28.418 119.153C28.6685 119.414 28.8606 119.615 29.0986 119.764C29.3195 119.901 29.5935 120 30 120C31.0915 120 32.0135 119.511 32.5859 119.106C32.8645 118.91 32.8962 118.878 32.9443 118.785C32.9895 118.698 33 118.628 33 118.188V114.67C33 114.151 32.9997 113.798 32.9766 113.555C32.9731 113.518 32.9678 113.487 32.9639 113.46C32.916 113.468 32.8566 113.482 32.7832 113.5C32.4815 113.576 32.0547 113.718 31.4473 113.922C31.0141 114.067 30.5309 114.162 30.0098 114.162C28.7532 114.162 28.1293 113.461 27.6348 112.918C27.1453 112.38 26.785 112 26 112Z" fill="currentColor"/>
</svg>
