<svg xmlns="http://www.w3.org/2000/svg" width="16" height="16" viewBox="20.31 110.93 15.76 15.76" fill="none">
  <path d="M28.6469 113.647C28.8422 113.452 29.1587 113.451 29.3539 113.647L33.3539 117.647C33.5488 117.842 33.5489 118.158 33.3539 118.354L31.8539 119.854L31.7748 119.918C31.773 119.919 31.7708 119.92 31.769 119.921C31.7585 119.928 31.7467 119.932 31.7357 119.938C31.7142 119.949 31.693 119.961 31.6703 119.969C31.6662 119.97 31.6627 119.973 31.6586 119.975L28.769 120.937L24.8529 124.854C24.6412 125.065 24.4518 125.257 24.2787 125.393C24.0967 125.536 23.8825 125.66 23.6117 125.685C23.5375 125.691 23.4623 125.691 23.3881 125.685C23.1176 125.66 22.903 125.536 22.7211 125.393C22.5481 125.257 22.3576 125.065 22.1459 124.854C21.9343 124.642 21.7439 124.452 21.6078 124.279C21.4647 124.097 21.3402 123.883 21.3158 123.612C21.3091 123.538 21.3091 123.462 21.3158 123.388C21.3403 123.117 21.4647 122.904 21.6078 122.722C21.7439 122.549 21.9342 122.358 22.1459 122.147L23.1459 121.146L22.6772 120.677C22.5795 120.579 22.5796 120.421 22.6772 120.323L24.3236 118.677C24.4213 118.579 24.5796 118.579 24.6772 118.677L25.1459 119.146L26.0629 118.23L27.0258 115.342C27.0272 115.338 27.0291 115.333 27.0307 115.329C27.0395 115.305 27.0512 115.282 27.0639 115.259C27.0687 115.25 27.0722 115.241 27.0775 115.233C27.0792 115.23 27.0807 115.227 27.0824 115.225L27.1469 115.147L28.6469 113.647ZM22.8529 122.854C22.6236 123.083 22.4835 123.225 22.393 123.34C22.3512 123.393 22.3307 123.427 22.3207 123.448C22.3124 123.466 22.3113 123.474 22.3109 123.478C22.3096 123.492 22.3106 123.508 22.3119 123.523C22.3122 123.526 22.3124 123.534 22.3207 123.552C22.3306 123.573 22.3513 123.607 22.393 123.66C22.4835 123.775 22.6237 123.917 22.8529 124.147C23.0822 124.376 23.2241 124.516 23.3393 124.607C23.3923 124.648 23.4266 124.669 23.4477 124.679C23.4656 124.687 23.4744 124.688 23.4779 124.689C23.4927 124.69 23.5081 124.69 23.5229 124.689C23.5265 124.688 23.5341 124.687 23.5512 124.679C23.5722 124.669 23.6073 124.649 23.6606 124.608C23.7757 124.517 23.9166 124.376 24.1459 124.147L27.7924 120.5L26.5004 119.207L22.8529 122.854ZM27.0717 118.364L28.6352 119.928L30.5746 119.281L27.7182 116.425L27.0717 118.364ZM28.2065 115.499L31.5004 118.793L32.2934 118L29.0004 114.707L28.2065 115.499Z" fill="currentColor"/>
  <path d="M34.2748 115.052C34.5215 114.928 34.8218 115.028 34.9457 115.275C35.0696 115.521 34.9706 115.822 34.724 115.946L33.724 116.447C33.4773 116.571 33.1771 116.471 33.0531 116.225C32.9296 115.978 33.0293 115.678 33.2758 115.554L34.2748 115.052Z" fill="currentColor"/>
  <path d="M33.1469 113.147C33.3422 112.952 33.6587 112.951 33.8539 113.147C34.049 113.342 34.0489 113.658 33.8539 113.854L32.8539 114.854C32.6587 115.049 32.3421 115.049 32.1469 114.854C31.9516 114.658 31.9516 114.342 32.1469 114.147L33.1469 113.147Z" fill="currentColor"/>
  <path d="M31.0531 112.276C31.1767 112.03 31.4771 111.929 31.724 112.053C31.9708 112.176 32.0709 112.477 31.9477 112.724L31.4477 113.724C31.3242 113.971 31.0237 114.071 30.7768 113.947C30.5298 113.824 30.4296 113.523 30.5531 113.276L31.0531 112.276Z" fill="currentColor"/>
</svg>
