<svg xmlns="http://www.w3.org/2000/svg" width="16" height="16" viewBox="20.0 111.0 16.0 16.0" fill="none">
  <path d="M31.5 122C31.5895 122 31.7571 121.998 31.9072 122.019C32.0638 122.04 32.3087 122.096 32.5371 122.279L32.6338 122.366L32.7207 122.463C32.9042 122.691 32.9604 122.936 32.9814 123.093C32.9915 123.168 32.997 123.247 32.999 123.319L33 123.5V124.5C33 124.59 33.0016 124.757 32.9814 124.907C32.9776 124.936 32.9705 124.967 32.9639 125H34.5C34.7761 125 35 125.224 35 125.5C35 125.776 34.7761 126 34.5 126H21.5C21.2239 126 21 125.776 21 125.5C21 125.224 21.2239 125 21.5 125H23.0361C23.0295 124.967 23.0224 124.936 23.0186 124.907C22.9984 124.757 23 124.59 23 124.5V123.5C23 123.41 22.9984 123.243 23.0186 123.093C23.0426 122.914 23.1128 122.62 23.3662 122.366L23.4629 122.279C23.6913 122.096 23.9362 122.04 24.0928 122.019C24.2429 121.998 24.4105 122 24.5 122H31.5ZM24.5 123C24.2643 123 24.1465 123 24.0732 123.073C24 123.146 24 123.264 24 123.5V124.5C24 124.736 24 124.854 24.0732 124.927C24.1465 125 24.2643 125 24.5 125H31.5C31.7357 125 31.8535 125 31.9268 124.927C32 124.854 32 124.736 32 124.5V123.5C32 123.264 32 123.146 31.9268 123.073C31.8535 123 31.7357 123 31.5 123H24.5Z" fill="currentColor"/>
  <path d="M34.5 112C34.7761 112 35 112.224 35 112.5C35 112.776 34.7761 113 34.5 113H32.9639C32.9705 113.033 32.9776 113.064 32.9814 113.093C33.0016 113.243 33 113.41 33 113.5V114.5C33 114.59 33.0016 114.757 32.9814 114.907C32.9574 115.086 32.8872 115.38 32.6338 115.634C32.3804 115.887 32.0862 115.957 31.9072 115.981C31.7571 116.002 31.5895 116 31.5 116H24.5C24.4105 116 24.2429 116.002 24.0928 115.981C23.9138 115.957 23.6196 115.887 23.3662 115.634C23.1128 115.38 23.0426 115.086 23.0186 114.907C22.9984 114.757 23 114.59 23 114.5V113.5C23 113.41 22.9984 113.243 23.0186 113.093C23.0224 113.064 23.0295 113.033 23.0361 113H21.5C21.2239 113 21 112.776 21 112.5C21 112.224 21.2239 112 21.5 112H34.5ZM24.3438 113.001C24.208 113.004 24.1281 113.018 24.0732 113.073C24 113.146 24 113.264 24 113.5V114.5C24 114.736 24 114.854 24.0732 114.927C24.1465 115 24.2643 115 24.5 115H31.5C31.7357 115 31.8535 115 31.9268 114.927C32 114.854 32 114.736 32 114.5V113.5C32 113.264 32 113.146 31.9268 113.073C31.8535 113 31.7357 113 31.5 113H24.5L24.3438 113.001Z" fill="currentColor"/>
</svg>
