<svg xmlns="http://www.w3.org/2000/svg" width="16" height="16" viewBox="20.0 116.0 16.0 16.0" fill="none">
  <path d="M21.5 117C21.7761 117 22 117.224 22 117.5V130.5C22 130.776 21.7761 131 21.5 131C21.2239 131 21 130.776 21 130.5V117.5C21 117.224 21.2239 117 21.5 117Z" fill="currentColor"/>
  <path d="M34.5 117C34.7761 117 35 117.224 35 117.5V130.5C35 130.776 34.7761 131 34.5 131C34.2239 131 34 130.776 34 130.5V117.5C34 117.224 34.2239 117 34.5 117Z" fill="currentColor"/>
  <path d="M25.7402 119C25.7736 119 25.8985 118.998 26.0156 119.014C26.1619 119.033 26.4331 119.095 26.6689 119.331C26.9047 119.567 26.9667 119.838 26.9863 119.984C27.0021 120.102 27 120.226 27 120.26V127.74C27 127.774 27.0021 127.898 26.9863 128.016C26.9667 128.162 26.9048 128.433 26.6689 128.669C26.4331 128.905 26.1619 128.967 26.0156 128.986C25.8985 129.002 25.7736 129 25.7402 129H24.2598C24.2264 129 24.1015 129.002 23.9844 128.986C23.8381 128.967 23.5669 128.905 23.3311 128.669C23.0952 128.433 23.0333 128.162 23.0137 128.016C22.9979 127.898 23 127.774 23 127.74V120.26C23 120.226 22.9979 120.102 23.0137 119.984C23.0333 119.838 23.0952 119.567 23.3311 119.331C23.5669 119.095 23.8381 119.033 23.9844 119.014C24.1015 118.998 24.2264 119 24.2598 119H25.7402ZM24.1172 120.005C24.0819 120.01 24.0571 120.019 24.0381 120.038C24.0191 120.057 24.0097 120.082 24.0049 120.117L24 120.26V127.74C24 127.863 24 127.924 24.0381 127.962C24.0571 127.981 24.0819 127.99 24.1172 127.995L24.2598 128H25.7402C25.8626 128 25.9239 128 25.9619 127.962C26 127.924 26 127.863 26 127.74V120.26L25.9951 120.117C25.9903 120.082 25.9809 120.057 25.9619 120.038C25.9239 120 25.8626 120 25.7402 120H24.2598L24.1172 120.005Z" fill="currentColor"/>
  <path d="M31.7402 119C31.7736 119 31.8985 118.998 32.0156 119.014C32.1619 119.033 32.4331 119.095 32.6689 119.331C32.9047 119.567 32.9667 119.838 32.9863 119.984C33.0021 120.102 33 120.226 33 120.26V127.74C33 127.774 33.0021 127.898 32.9863 128.016C32.9667 128.162 32.9048 128.433 32.6689 128.669C32.4331 128.905 32.1619 128.967 32.0156 128.986C31.8985 129.002 31.7736 129 31.7402 129H30.2598C30.2264 129 30.1015 129.002 29.9844 128.986C29.8381 128.967 29.5669 128.905 29.3311 128.669C29.0952 128.433 29.0333 128.162 29.0137 128.016C28.9979 127.898 29 127.774 29 127.74V120.26C29 120.226 28.9979 120.102 29.0137 119.984C29.0333 119.838 29.0953 119.567 29.3311 119.331C29.5669 119.095 29.8381 119.033 29.9844 119.014C30.1015 118.998 30.2264 119 30.2598 119H31.7402ZM30.1172 120.005C30.0819 120.01 30.0571 120.019 30.0381 120.038C30.0191 120.057 30.0097 120.082 30.0049 120.117L30 120.26V127.74C30 127.863 30 127.924 30.0381 127.962C30.0571 127.981 30.0819 127.99 30.1172 127.995L30.2598 128H31.7402C31.8626 128 31.9239 128 31.9619 127.962C32 127.924 32 127.863 32 127.74V120.26L31.9951 120.117C31.9903 120.082 31.9809 120.057 31.9619 120.038C31.9239 120 31.8626 120 31.7402 120H30.2598L30.1172 120.005Z" fill="currentColor"/>
</svg>
