<svg xmlns="http://www.w3.org/2000/svg" width="16" height="16" viewBox="20.0 111.0 16.0 16.0" fill="none">
  <path d="M34.5 125C34.7761 125 35 125.224 35 125.5C35 125.776 34.7761 126 34.5 126H21.5C21.2239 126 21 125.776 21 125.5C21 125.224 21.2239 125 21.5 125H34.5Z" fill="currentColor"/>
  <path d="M31.7402 120C31.7736 120 31.8985 119.998 32.0156 120.014C32.1436 120.031 32.3673 120.08 32.5791 120.25L32.6689 120.331L32.75 120.421C32.9199 120.633 32.9691 120.856 32.9863 120.984C33.0021 121.102 33 121.226 33 121.26V122.74C33 122.774 33.0021 122.898 32.9863 123.016C32.9667 123.162 32.9047 123.433 32.6689 123.669C32.4331 123.905 32.1619 123.967 32.0156 123.986C31.8985 124.002 31.7736 124 31.7402 124H24.2598C24.2264 124 24.1015 124.002 23.9844 123.986C23.8381 123.967 23.5669 123.905 23.3311 123.669C23.0952 123.433 23.0333 123.162 23.0137 123.016C22.9979 122.898 23 122.774 23 122.74V121.26C23 121.226 22.9979 121.102 23.0137 120.984C23.0333 120.838 23.0952 120.567 23.3311 120.331L23.4209 120.25C23.6327 120.08 23.8564 120.031 23.9844 120.014C24.1015 119.998 24.2264 120 24.2598 120H31.7402ZM24.2598 121C24.1374 121 24.0761 121 24.0381 121.038C24 121.076 24 121.137 24 121.26V122.74L24.0049 122.883C24.0097 122.918 24.0191 122.943 24.0381 122.962C24.0761 123 24.1374 123 24.2598 123H31.7402L31.8828 122.995C31.9181 122.99 31.9429 122.981 31.9619 122.962C31.9809 122.943 31.9903 122.918 31.9951 122.883L32 122.74V121.26C32 121.137 32 121.076 31.9619 121.038C31.9429 121.019 31.9181 121.01 31.8828 121.005L31.7402 121H24.2598Z" fill="currentColor"/>
  <path d="M31.7402 114C31.7736 114 31.8985 113.998 32.0156 114.014C32.1436 114.031 32.3673 114.08 32.5791 114.25L32.6689 114.331L32.75 114.421C32.9199 114.633 32.9691 114.856 32.9863 114.984C33.0021 115.102 33 115.226 33 115.26V116.74C33 116.774 33.0021 116.898 32.9863 117.016C32.9667 117.162 32.9048 117.433 32.6689 117.669C32.4331 117.905 32.1619 117.967 32.0156 117.986C31.8985 118.002 31.7736 118 31.7402 118H24.2598C24.2264 118 24.1015 118.002 23.9844 117.986C23.8381 117.967 23.5669 117.905 23.3311 117.669C23.0952 117.433 23.0333 117.162 23.0137 117.016C22.9979 116.898 23 116.774 23 116.74V115.26C23 115.226 22.9979 115.102 23.0137 114.984C23.0333 114.838 23.0952 114.567 23.3311 114.331L23.4209 114.25C23.6327 114.08 23.8564 114.031 23.9844 114.014C24.1015 113.998 24.2264 114 24.2598 114H31.7402ZM24.2598 115C24.1374 115 24.0761 115 24.0381 115.038C24 115.076 24 115.137 24 115.26V116.74L24.0049 116.883C24.0097 116.918 24.0191 116.943 24.0381 116.962C24.0761 117 24.1374 117 24.2598 117H31.7402L31.8828 116.995C31.9181 116.99 31.9429 116.981 31.9619 116.962C31.9809 116.943 31.9903 116.918 31.9951 116.883L32 116.74V115.26C32 115.137 32 115.076 31.9619 115.038C31.9429 115.019 31.9181 115.01 31.8828 115.005L31.7402 115H24.2598Z" fill="currentColor"/>
  <path d="M34.5 112C34.7761 112 35 112.224 35 112.5C35 112.776 34.7761 113 34.5 113H21.5C21.2239 113 21 112.776 21 112.5C21 112.224 21.2239 112 21.5 112H34.5Z" fill="currentColor"/>
</svg>
