<svg xmlns="http://www.w3.org/2000/svg" width="16" height="16" viewBox="20.0 111.5 16.0 16.0" fill="none">
  <path d="M31.7402 121C31.7736 121 31.8985 120.998 32.0156 121.014C32.1619 121.033 32.4331 121.095 32.6689 121.331C32.9047 121.567 32.9666 121.838 32.9863 121.984C33.002 122.102 33 122.226 33 122.26V123.74C33 123.774 33.002 123.899 32.9863 124.016C32.9667 124.162 32.9047 124.433 32.6689 124.669C32.4331 124.905 32.1619 124.967 32.0156 124.986C31.8985 125.002 31.7736 125 31.7402 125H24.2598C24.2264 125 24.1015 125.002 23.9844 124.986C23.8381 124.967 23.5669 124.905 23.3311 124.669C23.0953 124.433 23.0333 124.162 23.0137 124.016C22.998 123.899 23 123.774 23 123.74V122.26C23 122.226 22.998 122.102 23.0137 121.984C23.0334 121.838 23.0953 121.567 23.3311 121.331C23.5669 121.095 23.8381 121.033 23.9844 121.014C24.1015 120.998 24.2264 121 24.2598 121H31.7402ZM24 123.74C24 123.863 24.0001 123.924 24.0381 123.962C24.0761 124 24.1374 124 24.2598 124H31.7402L31.8828 123.995C31.9181 123.99 31.9429 123.981 31.9619 123.962C31.9999 123.924 32 123.863 32 123.74V122.26L31.9951 122.117C31.9903 122.082 31.9809 122.057 31.9619 122.038C31.9429 122.019 31.9181 122.01 31.8828 122.005L31.7402 122H24.2598C24.1374 122 24.0761 122 24.0381 122.038C24.0191 122.057 24.0097 122.082 24.0049 122.117L24 122.26V123.74Z" fill="currentColor"/>
  <path d="M34.5 119C34.7761 119 35 119.224 35 119.5C35 119.776 34.7761 120 34.5 120H21.5C21.2239 120 21 119.776 21 119.5C21 119.224 21.2239 119 21.5 119H34.5Z" fill="currentColor"/>
  <path d="M31.7402 114C31.7736 114 31.8985 113.998 32.0156 114.014C32.1619 114.033 32.4331 114.095 32.6689 114.331C32.9047 114.567 32.9666 114.838 32.9863 114.984C33.002 115.102 33 115.226 33 115.26V116.74C33 116.774 33.002 116.899 32.9863 117.016C32.9667 117.162 32.9047 117.433 32.6689 117.669C32.4331 117.905 32.1619 117.967 32.0156 117.986C31.8985 118.002 31.7736 118 31.7402 118H24.2598C24.2264 118 24.1015 118.002 23.9844 117.986C23.8381 117.967 23.5669 117.905 23.3311 117.669C23.0953 117.433 23.0333 117.162 23.0137 117.016C22.998 116.899 23 116.774 23 116.74V115.26C23 115.226 22.998 115.102 23.0137 114.984C23.0334 114.838 23.0953 114.567 23.3311 114.331C23.5669 114.095 23.8381 114.033 23.9844 114.014C24.1015 113.998 24.2264 114 24.2598 114H31.7402ZM24.2598 115C24.1374 115 24.0761 115 24.0381 115.038C24.0191 115.057 24.0097 115.082 24.0049 115.117L24 115.26V116.74C24 116.863 24.0001 116.924 24.0381 116.962C24.0761 117 24.1374 117 24.2598 117H31.7402L31.8828 116.995C31.9181 116.99 31.9429 116.981 31.9619 116.962C31.9999 116.924 32 116.863 32 116.74V115.26L31.9951 115.117C31.9903 115.082 31.9809 115.057 31.9619 115.038C31.9429 115.019 31.9181 115.01 31.8828 115.005L31.7402 115H24.2598Z" fill="currentColor"/>
</svg>
