<svg xmlns="http://www.w3.org/2000/svg" width="16" height="16" viewBox="20.0 116.0 16.0 16.0" fill="none">
  <path d="M21.5 117C21.7761 117 22 117.224 22 117.5V130.5C22 130.776 21.7761 131 21.5 131C21.2239 131 21 130.776 21 130.5V117.5C21 117.224 21.2239 117 21.5 117Z" fill="currentColor"/>
  <path d="M34.5 117C34.7761 117 35 117.224 35 117.5V130.5C35 130.776 34.7761 131 34.5 131C34.2239 131 34 130.776 34 130.5V117.5C34 117.224 34.2239 117 34.5 117Z" fill="currentColor"/>
  <path d="M30.7402 119C30.7736 119 30.8985 118.998 31.0156 119.014C31.1619 119.033 31.4331 119.095 31.6689 119.331C31.9047 119.567 31.9667 119.838 31.9863 119.984C32.0021 120.102 32 120.226 32 120.26V127.74C32 127.774 32.0021 127.898 31.9863 128.016C31.9667 128.162 31.9048 128.433 31.6689 128.669C31.4331 128.905 31.1619 128.967 31.0156 128.986C30.8985 129.002 30.7736 129 30.7402 129H30.2598C30.2264 129 30.1015 129.002 29.9844 128.986C29.8381 128.967 29.5669 128.905 29.3311 128.669C29.0952 128.433 29.0333 128.162 29.0137 128.016C28.9979 127.898 29 127.774 29 127.74V120.26C29 120.226 28.9979 120.102 29.0137 119.984C29.0333 119.838 29.0953 119.567 29.3311 119.331C29.5669 119.095 29.8381 119.033 29.9844 119.014C30.1015 118.998 30.2264 119 30.2598 119H30.7402ZM30.1172 120.005C30.0819 120.01 30.0571 120.019 30.0381 120.038C30.0191 120.057 30.0097 120.082 30.0049 120.117L30 120.26V127.74C30 127.863 30 127.924 30.0381 127.962C30.0571 127.981 30.0819 127.99 30.1172 127.995L30.2598 128H30.7402C30.8626 128 30.9239 128 30.9619 127.962C31 127.924 31 127.863 31 127.74V120.26L30.9951 120.117C30.9903 120.082 30.9809 120.057 30.9619 120.038C30.9239 120 30.8626 120 30.7402 120H30.2598L30.1172 120.005Z" fill="currentColor"/>
  <path d="M27 127.74C27 127.774 27.0021 127.898 26.9863 128.016C26.9667 128.162 26.9048 128.433 26.6689 128.669C26.4331 128.905 26.1619 128.967 26.0156 128.986C25.8985 129.002 25.7736 129 25.7402 129H25.2598C25.2264 129 25.1015 129.002 24.9844 128.986C24.8381 128.967 24.5669 128.905 24.3311 128.669C24.0952 128.433 24.0333 128.162 24.0137 128.016C23.9979 127.898 24 127.774 24 127.74V120.26C24 120.226 23.9979 120.102 24.0137 119.984C24.0333 119.838 24.0953 119.567 24.3311 119.331C24.5669 119.095 24.8381 119.033 24.9844 119.014C25.1015 118.998 25.2264 119 25.2598 119H25.7402C25.7736 119 25.8985 118.998 26.0156 119.014C26.1619 119.033 26.4331 119.095 26.6689 119.331C26.9047 119.567 26.9667 119.838 26.9863 119.984C27.0021 120.102 27 120.226 27 120.26V127.74ZM25.9951 120.117C25.9903 120.082 25.9809 120.057 25.9619 120.038C25.9239 120 25.8626 120 25.7402 120H25.2598L25.1172 120.005C25.0819 120.01 25.0571 120.019 25.0381 120.038C25.0191 120.057 25.0097 120.082 25.0049 120.117L25 120.26V127.74C25 127.863 25 127.924 25.0381 127.962C25.0571 127.981 25.0819 127.99 25.1172 127.995L25.2598 128H25.7402C25.8626 128 25.9239 128 25.9619 127.962C26 127.924 26 127.863 26 127.74V120.26L25.9951 120.117Z" fill="currentColor"/>
</svg>
