<svg xmlns="http://www.w3.org/2000/svg" width="16" height="16" viewBox="20.0 111.0 16.0 16.0" fill="none">
  <path d="M21.5 112C21.7761 112 22 112.224 22 112.5V114H23.5C23.5895 114 23.7571 113.998 23.9072 114.019C24.0862 114.043 24.3804 114.113 24.6338 114.366C24.8872 114.62 24.9574 114.914 24.9814 115.093C25.0016 115.243 25 115.41 25 115.5V122.5C25 122.59 25.0016 122.757 24.9814 122.907C24.9574 123.086 24.8872 123.38 24.6338 123.634C24.3804 123.887 24.0862 123.957 23.9072 123.981C23.7571 124.002 23.5895 124 23.5 124H22V125.5C22 125.776 21.7761 126 21.5 126C21.2239 126 21 125.776 21 125.5V112.5C21 112.224 21.2239 112 21.5 112ZM22 123H23.5C23.7357 123 23.8535 123 23.9268 122.927C24 122.854 24 122.736 24 122.5V115.5C24 115.264 24 115.146 23.9268 115.073C23.8535 115 23.7357 115 23.5 115H22V123Z" fill="currentColor"/>
  <path d="M34.5 112C34.7761 112 35 112.224 35 112.5V125.5C35 125.776 34.7761 126 34.5 126C34.2239 126 34 125.776 34 125.5V124H32.5C32.4105 124 32.2429 124.002 32.0928 123.981C31.9138 123.957 31.6196 123.887 31.3662 123.634C31.1128 123.38 31.0426 123.086 31.0186 122.907C30.9984 122.757 31 122.59 31 122.5V115.5C31 115.41 30.9984 115.243 31.0186 115.093C31.0426 114.914 31.1128 114.62 31.3662 114.366C31.6196 114.113 31.9138 114.043 32.0928 114.019C32.2429 113.998 32.4105 114 32.5 114H34V112.5C34 112.224 34.2239 112 34.5 112ZM32.5 115C32.2643 115 32.1465 115 32.0732 115.073C32 115.146 32 115.264 32 115.5V122.5C32 122.736 32 122.854 32.0732 122.927C32.1465 123 32.2643 123 32.5 123H34V115H32.5Z" fill="currentColor"/>
</svg>
