<svg xmlns="http://www.w3.org/2000/svg" width="16" height="16" viewBox="20.0 111.0 16.0 16.0" fill="none">
  <path d="M34.5 125C34.7761 125 35 125.224 35 125.5C35 125.776 34.7761 126 34.5 126H21.5C21.2239 126 21 125.776 21 125.5C21 125.224 21.2239 125 21.5 125H34.5Z" fill="currentColor"/>
  <path d="M30.7402 120C30.7736 120 30.8985 119.998 31.0156 120.014C31.1436 120.031 31.3673 120.08 31.5791 120.25L31.6689 120.331L31.75 120.421C31.9199 120.633 31.9691 120.856 31.9863 120.984C31.9942 121.043 31.9976 121.103 31.999 121.153L32 121.26V121.74C32 121.774 32.0021 121.898 31.9863 122.016C31.9667 122.162 31.9048 122.433 31.6689 122.669C31.4331 122.905 31.1619 122.967 31.0156 122.986C30.9571 122.994 30.8967 122.998 30.8467 122.999L30.7402 123H25.2598C25.2264 123 25.1015 123.002 24.9844 122.986C24.8381 122.967 24.5669 122.905 24.3311 122.669C24.0952 122.433 24.0333 122.162 24.0137 122.016C23.9979 121.898 24 121.774 24 121.74V121.26C24 121.226 23.9979 121.102 24.0137 120.984C24.0333 120.838 24.0952 120.567 24.3311 120.331L24.4209 120.25C24.6327 120.08 24.8564 120.031 24.9844 120.014C25.1015 119.998 25.2264 120 25.2598 120H30.7402ZM25.2598 121C25.1374 121 25.0761 121 25.0381 121.038C25 121.076 25 121.137 25 121.26V121.74L25.0049 121.883C25.0097 121.918 25.0191 121.943 25.0381 121.962C25.0761 122 25.1374 122 25.2598 122H30.7402L30.8828 121.995C30.9181 121.99 30.9429 121.981 30.9619 121.962C30.9809 121.943 30.9903 121.918 30.9951 121.883L31 121.74V121.26C31 121.137 31 121.076 30.9619 121.038C30.9429 121.019 30.9181 121.01 30.8828 121.005L30.7402 121H25.2598Z" fill="currentColor"/>
  <path d="M30.7402 115C30.7736 115 30.8985 114.998 31.0156 115.014C31.1436 115.031 31.3673 115.08 31.5791 115.25L31.6689 115.331L31.75 115.421C31.9199 115.633 31.9691 115.856 31.9863 115.984C31.9942 116.043 31.9976 116.103 31.999 116.153L32 116.26V116.74C32 116.774 32.0021 116.898 31.9863 117.016C31.9667 117.162 31.9048 117.433 31.6689 117.669C31.4331 117.905 31.1619 117.967 31.0156 117.986C30.9571 117.994 30.8967 117.998 30.8467 117.999L30.7402 118H25.2598C25.2264 118 25.1015 118.002 24.9844 117.986C24.8381 117.967 24.5669 117.905 24.3311 117.669C24.0952 117.433 24.0333 117.162 24.0137 117.016C23.9979 116.898 24 116.774 24 116.74V116.26C24 116.226 23.9979 116.102 24.0137 115.984C24.0333 115.838 24.0952 115.567 24.3311 115.331L24.4209 115.25C24.6327 115.08 24.8564 115.031 24.9844 115.014C25.1015 114.998 25.2264 115 25.2598 115H30.7402ZM25.2598 116L25.1172 116.005C25.0819 116.01 25.0571 116.019 25.0381 116.038C25 116.076 25 116.137 25 116.26V116.74L25.0049 116.883C25.0097 116.918 25.0191 116.943 25.0381 116.962C25.0761 117 25.1374 117 25.2598 117H30.7402L30.8828 116.995C30.9181 116.99 30.9429 116.981 30.9619 116.962C30.9809 116.943 30.9903 116.918 30.9951 116.883L31 116.74V116.26C31 116.137 31 116.076 30.9619 116.038C30.9429 116.019 30.9181 116.01 30.8828 116.005L30.7402 116H25.2598Z" fill="currentColor"/>
  <path d="M34.5 112C34.7761 112 35 112.224 35 112.5C35 112.776 34.7761 113 34.5 113H21.5C21.2239 113 21 112.776 21 112.5C21 112.224 21.2239 112 21.5 112H34.5Z" fill="currentColor"/>
</svg>
