<svg xmlns="http://www.w3.org/2000/svg" width="16" height="16" viewBox="18.5 111.0 16.0 16.0" fill="none">
  <path d="M21.5 112C21.7761 112 22 112.224 22 112.5V125.5C22 125.776 21.7761 126 21.5 126C21.2239 126 21 125.776 21 125.5V112.5C21 112.224 21.2239 112 21.5 112Z" fill="currentColor"/>
  <path d="M25.7402 114C25.7736 114 25.8985 113.998 26.0156 114.014C26.1619 114.033 26.4331 114.095 26.6689 114.331C26.9047 114.567 26.9667 114.838 26.9863 114.984C27.0021 115.102 27 115.226 27 115.26V122.74C27 122.774 27.0021 122.898 26.9863 123.016C26.9667 123.162 26.9048 123.433 26.6689 123.669C26.4331 123.905 26.1619 123.967 26.0156 123.986C25.8985 124.002 25.7736 124 25.7402 124H24.2598C24.2264 124 24.1015 124.002 23.9844 123.986C23.8381 123.967 23.5669 123.905 23.3311 123.669C23.0952 123.433 23.0333 123.162 23.0137 123.016C22.9979 122.898 23 122.774 23 122.74V115.26C23 115.226 22.9979 115.102 23.0137 114.984C23.0333 114.838 23.0952 114.567 23.3311 114.331C23.5669 114.095 23.8381 114.033 23.9844 114.014C24.1015 113.998 24.2264 114 24.2598 114H25.7402ZM24.1172 115.005C24.0819 115.01 24.0571 115.019 24.0381 115.038C24.0191 115.057 24.0097 115.082 24.0049 115.117L24 115.26V122.74C24 122.863 24 122.924 24.0381 122.962C24.0571 122.981 24.0819 122.99 24.1172 122.995L24.2598 123H25.7402C25.8626 123 25.9239 123 25.9619 122.962C26 122.924 26 122.863 26 122.74V115.26L25.9951 115.117C25.9903 115.082 25.9809 115.057 25.9619 115.038C25.9239 115 25.8626 115 25.7402 115H24.2598L24.1172 115.005Z" fill="currentColor"/>
  <path d="M30.7402 114C30.7736 114 30.8985 113.998 31.0156 114.014C31.1619 114.033 31.4331 114.095 31.6689 114.331C31.9047 114.567 31.9667 114.838 31.9863 114.984C32.0021 115.102 32 115.226 32 115.26V122.74C32 122.774 32.0021 122.898 31.9863 123.016C31.9667 123.162 31.9048 123.433 31.6689 123.669C31.4331 123.905 31.1619 123.967 31.0156 123.986C30.8985 124.002 30.7736 124 30.7402 124H29.2598C29.2264 124 29.1015 124.002 28.9844 123.986C28.8381 123.967 28.5669 123.905 28.3311 123.669C28.0952 123.433 28.0333 123.162 28.0137 123.016C27.9979 122.898 28 122.774 28 122.74V115.26C28 115.226 27.9979 115.102 28.0137 114.984C28.0333 114.838 28.0953 114.567 28.3311 114.331C28.5669 114.095 28.8381 114.033 28.9844 114.014C29.1015 113.998 29.2264 114 29.2598 114H30.7402ZM29.1172 115.005C29.0819 115.01 29.0571 115.019 29.0381 115.038C29.0191 115.057 29.0097 115.082 29.0049 115.117L29 115.26V122.74C29 122.863 29 122.924 29.0381 122.962C29.0571 122.981 29.0819 122.99 29.1172 122.995L29.2598 123H30.7402C30.8626 123 30.9239 123 30.9619 122.962C31 122.924 31 122.863 31 122.74V115.26L30.9951 115.117C30.9903 115.082 30.9809 115.057 30.9619 115.038C30.9239 115 30.8626 115 30.7402 115H29.2598L29.1172 115.005Z" fill="currentColor"/>
</svg>
