<svg xmlns="http://www.w3.org/2000/svg" width="16" height="16" viewBox="20.0 112.5 16.0 16.0" fill="none">
  <path d="M34.5 125C34.7761 125 35 125.224 35 125.5C35 125.776 34.7761 126 34.5 126H21.5C21.2239 126 21 125.776 21 125.5C21.0001 125.224 21.2239 125 21.5 125H34.5Z" fill="currentColor"/>
  <path d="M31.7402 120C31.7736 120 31.8985 119.998 32.0156 120.014C32.1619 120.033 32.4331 120.095 32.6689 120.331C32.9047 120.567 32.9666 120.838 32.9863 120.984C33.002 121.102 33 121.226 33 121.26V122.74C33 122.774 33.002 122.899 32.9863 123.016C32.9667 123.162 32.9047 123.433 32.6689 123.669C32.4331 123.905 32.1619 123.967 32.0156 123.986C31.8985 124.002 31.7736 124 31.7402 124H24.2598C24.2264 124 24.1015 124.002 23.9844 123.986C23.8381 123.967 23.5669 123.905 23.3311 123.669C23.0953 123.433 23.0333 123.162 23.0137 123.016C22.998 122.899 23 122.774 23 122.74V121.26C23 121.226 22.998 121.102 23.0137 120.984C23.0334 120.838 23.0953 120.567 23.3311 120.331C23.5669 120.095 23.8381 120.033 23.9844 120.014C24.1015 119.998 24.2264 120 24.2598 120H31.7402ZM24.2598 121C24.1374 121 24.0761 121 24.0381 121.038C24 121.076 24 121.138 24 121.26V122.74L24.0049 122.883C24.0096 122.918 24.0191 122.943 24.0381 122.962C24.0761 123 24.1374 123 24.2598 123H31.7402L31.8828 122.995C31.9181 122.99 31.9429 122.981 31.9619 122.962C31.9809 122.943 31.9904 122.918 31.9951 122.883L32 122.74V121.26C32 121.138 32 121.076 31.9619 121.038C31.9429 121.019 31.9181 121.01 31.8828 121.005L31.7402 121H24.2598Z" fill="currentColor"/>
  <path d="M31.7402 115C31.7736 115 31.8985 114.998 32.0156 115.014C32.1619 115.033 32.4331 115.095 32.6689 115.331C32.9047 115.567 32.9666 115.838 32.9863 115.984C33.002 116.102 33 116.226 33 116.26V117.74C33 117.774 33.002 117.899 32.9863 118.016C32.9667 118.162 32.9047 118.433 32.6689 118.669C32.4331 118.905 32.1619 118.967 32.0156 118.986C31.8985 119.002 31.7736 119 31.7402 119H24.2598C24.2264 119 24.1015 119.002 23.9844 118.986C23.8381 118.967 23.5669 118.905 23.3311 118.669C23.0953 118.433 23.0333 118.162 23.0137 118.016C22.998 117.899 23 117.774 23 117.74V116.26C23 116.226 22.998 116.102 23.0137 115.984C23.0334 115.838 23.0953 115.567 23.3311 115.331C23.5669 115.095 23.8381 115.033 23.9844 115.014C24.1015 114.998 24.2264 115 24.2598 115H31.7402ZM24 117.74L24.0049 117.883C24.0096 117.918 24.0191 117.943 24.0381 117.962C24.0761 118 24.1374 118 24.2598 118H31.7402L31.8828 117.995C31.9181 117.99 31.9429 117.981 31.9619 117.962C31.9809 117.943 31.9904 117.918 31.9951 117.883L32 117.74V116.26C32 116.138 32 116.076 31.9619 116.038C31.9429 116.019 31.9181 116.01 31.8828 116.005L31.7402 116H24.2598C24.1374 116 24.0761 116 24.0381 116.038C24 116.076 24 116.138 24 116.26V117.74Z" fill="currentColor"/>
</svg>
