<svg xmlns="http://www.w3.org/2000/svg" width="16" height="16" viewBox="20.0 109.5 16.0 16.0" fill="none">
  <path d="M31.7402 119C31.7736 119 31.8985 118.998 32.0156 119.014C32.1619 119.033 32.4331 119.095 32.6689 119.331C32.9048 119.567 32.9667 119.838 32.9863 119.984C33.0021 120.102 33 120.226 33 120.26V121.74C33 121.774 33.0021 121.898 32.9863 122.016C32.9667 122.162 32.9048 122.433 32.6689 122.669C32.4331 122.905 32.1619 122.967 32.0156 122.986C31.8985 123.002 31.7736 123 31.7402 123H24.2598C24.2264 123 24.1015 123.002 23.9844 122.986C23.8381 122.967 23.5669 122.905 23.3311 122.669C23.0952 122.433 23.0333 122.162 23.0137 122.016C22.9979 121.898 23 121.774 23 121.74V120.26C23 120.226 22.9979 120.102 23.0137 119.984C23.0333 119.838 23.0952 119.567 23.3311 119.331C23.5669 119.095 23.8381 119.033 23.9844 119.014C24.1015 118.998 24.2264 119 24.2598 119H31.7402ZM24 121.74C24 121.863 24 121.924 24.0381 121.962C24.0761 122 24.1374 122 24.2598 122H31.7402L31.8828 121.995C31.9181 121.99 31.9429 121.981 31.9619 121.962C32 121.924 32 121.863 32 121.74V120.26L31.9951 120.117C31.9903 120.082 31.9809 120.057 31.9619 120.038C31.9429 120.019 31.9181 120.01 31.8828 120.005L31.7402 120H24.2598C24.1374 120 24.0761 120 24.0381 120.038C24.0191 120.057 24.0097 120.082 24.0049 120.117L24 120.26V121.74Z" fill="currentColor"/>
  <path d="M31.7402 114C31.7736 114 31.8985 113.998 32.0156 114.014C32.1619 114.033 32.4331 114.095 32.6689 114.331C32.9048 114.567 32.9667 114.838 32.9863 114.984C33.0021 115.102 33 115.226 33 115.26V116.74C33 116.774 33.0021 116.898 32.9863 117.016C32.9667 117.162 32.9048 117.433 32.6689 117.669C32.4331 117.905 32.1619 117.967 32.0156 117.986C31.8985 118.002 31.7736 118 31.7402 118H24.2598C24.2264 118 24.1015 118.002 23.9844 117.986C23.8381 117.967 23.5669 117.905 23.3311 117.669C23.0952 117.433 23.0333 117.162 23.0137 117.016C22.9979 116.898 23 116.774 23 116.74V115.26C23 115.226 22.9979 115.102 23.0137 114.984C23.0333 114.838 23.0952 114.567 23.3311 114.331C23.5669 114.095 23.8381 114.033 23.9844 114.014C24.1015 113.998 24.2264 114 24.2598 114H31.7402ZM24.2598 115C24.1374 115 24.0761 115 24.0381 115.038C24.0191 115.057 24.0097 115.082 24.0049 115.117L24 115.26V116.74C24 116.863 24 116.924 24.0381 116.962C24.0761 117 24.1374 117 24.2598 117H31.7402L31.8828 116.995C31.9181 116.99 31.9429 116.981 31.9619 116.962C32 116.924 32 116.863 32 116.74V115.26L31.9951 115.117C31.9903 115.082 31.9809 115.057 31.9619 115.038C31.9429 115.019 31.9181 115.01 31.8828 115.005L31.7402 115H24.2598Z" fill="currentColor"/>
  <path d="M34.5 112C34.7761 112 35 112.224 35 112.5C35 112.776 34.7761 113 34.5 113H21.5C21.2239 113 21 112.776 21 112.5C21 112.224 21.2239 112 21.5 112H34.5Z" fill="currentColor"/>
</svg>
