<svg xmlns="http://www.w3.org/2000/svg" width="16" height="16" viewBox="21.5 111.0 16.0 16.0" fill="none">
  <path d="M34.4998 112C34.776 112 34.9998 112.224 34.9998 112.5V125.5C34.9998 125.776 34.776 126 34.4998 126C34.2237 126 33.9998 125.776 33.9998 125.5V112.5C33.9998 112.224 34.2237 112 34.4998 112Z" fill="currentColor"/>
  <path d="M26.7401 114C26.7734 114 26.8983 113.998 27.0155 114.014C27.1618 114.033 27.433 114.095 27.6688 114.331C27.9046 114.567 27.9665 114.838 27.9862 114.984C28.0019 115.102 27.9999 115.226 27.9998 115.26V122.74C27.9999 122.774 28.0019 122.898 27.9862 123.016C27.9665 123.162 27.9046 123.433 27.6688 123.669C27.433 123.905 27.1618 123.967 27.0155 123.986C26.8983 124.002 26.7734 124 26.7401 124H25.2596C25.2261 124 25.1013 124.002 24.9842 123.986C24.8379 123.967 24.5667 123.905 24.3309 123.669C24.0951 123.433 24.0332 123.162 24.0135 123.016C23.9978 122.898 23.9998 122.774 23.9998 122.74V115.26C23.9998 115.226 23.9978 115.102 24.0135 114.984C24.0332 114.838 24.0951 114.567 24.3309 114.331C24.5667 114.095 24.8379 114.033 24.9842 114.014C25.1013 113.998 25.2261 114 25.2596 114H26.7401ZM25.117 115.005C25.0818 115.01 25.0569 115.019 25.0379 115.038C25.019 115.057 25.0095 115.082 25.0047 115.117L24.9998 115.26V122.74C24.9998 122.863 24.9999 122.924 25.0379 122.962C25.0569 122.981 25.0818 122.99 25.117 122.995L25.2596 123H26.7401C26.8624 123 26.9237 123 26.9618 122.962C26.9998 122.924 26.9998 122.863 26.9998 122.74V115.26L26.995 115.117C26.9902 115.082 26.9808 115.057 26.9618 115.038C26.9237 115 26.8624 115 26.7401 115H25.2596L25.117 115.005Z" fill="currentColor"/>
  <path d="M31.7401 114C31.7734 114 31.8983 113.998 32.0155 114.014C32.1618 114.033 32.433 114.095 32.6688 114.331C32.9046 114.567 32.9665 114.838 32.9862 114.984C33.0019 115.102 32.9999 115.226 32.9998 115.26V122.74C32.9999 122.774 33.0019 122.898 32.9862 123.016C32.9665 123.162 32.9046 123.433 32.6688 123.669C32.433 123.905 32.1618 123.967 32.0155 123.986C31.8983 124.002 31.7734 124 31.7401 124H30.2596C30.2261 124 30.1013 124.002 29.9842 123.986C29.8379 123.967 29.5667 123.905 29.3309 123.669C29.0951 123.433 29.0332 123.162 29.0135 123.016C28.9978 122.898 28.9998 122.774 28.9998 122.74V115.26C28.9998 115.226 28.9978 115.102 29.0135 114.984C29.0332 114.838 29.0951 114.567 29.3309 114.331C29.5667 114.095 29.8379 114.033 29.9842 114.014C30.1013 113.998 30.2261 114 30.2596 114H31.7401ZM30.117 115.005C30.0818 115.01 30.0569 115.019 30.0379 115.038C30.019 115.057 30.0095 115.082 30.0047 115.117L29.9998 115.26V122.74C29.9998 122.863 29.9999 122.924 30.0379 122.962C30.0569 122.981 30.0818 122.99 30.117 122.995L30.2596 123H31.7401C31.8624 123 31.9237 123 31.9618 122.962C31.9998 122.924 31.9998 122.863 31.9998 122.74V115.26L31.995 115.117C31.9902 115.082 31.9808 115.057 31.9618 115.038C31.9237 115 31.8624 115 31.7401 115H30.2596L30.117 115.005Z" fill="currentColor"/>
</svg>
