<svg xmlns="http://www.w3.org/2000/svg" width="16" height="16" viewBox="20.5 111.0 16.0 16.0" fill="none">
  <path d="M28.4998 112C28.776 112 28.9998 112.224 28.9998 112.5V125.5C28.9998 125.776 28.776 126 28.4998 126C28.2237 126 27.9998 125.776 27.9998 125.5V112.5C27.9998 112.224 28.2237 112 28.4998 112Z" fill="currentColor"/>
  <path d="M25.7401 114C25.7734 114 25.8983 113.998 26.0155 114.014C26.1618 114.033 26.433 114.095 26.6688 114.331C26.9046 114.567 26.9665 114.838 26.9862 114.984C27.0019 115.102 26.9999 115.226 26.9998 115.26V122.74C26.9999 122.774 27.0019 122.898 26.9862 123.016C26.9665 123.162 26.9046 123.433 26.6688 123.669C26.433 123.905 26.1618 123.967 26.0155 123.986C25.8983 124.002 25.7734 124 25.7401 124H24.2596C24.2261 124 24.1013 124.002 23.9842 123.986C23.8379 123.967 23.5667 123.905 23.3309 123.669C23.0951 123.433 23.0332 123.162 23.0135 123.016C22.9978 122.898 22.9998 122.774 22.9998 122.74V115.26C22.9998 115.226 22.9978 115.102 23.0135 114.984C23.0332 114.838 23.0951 114.567 23.3309 114.331C23.5667 114.095 23.8379 114.033 23.9842 114.014C24.1013 113.998 24.2261 114 24.2596 114H25.7401ZM24.117 115.005C24.0818 115.01 24.0569 115.019 24.0379 115.038C24.019 115.057 24.0095 115.082 24.0047 115.117L23.9998 115.26V122.74C23.9998 122.863 23.9999 122.924 24.0379 122.962C24.0569 122.981 24.0818 122.99 24.117 122.995L24.2596 123H25.7401C25.8624 123 25.9237 123 25.9618 122.962C25.9998 122.924 25.9998 122.863 25.9998 122.74V115.26L25.995 115.117C25.9902 115.082 25.9808 115.057 25.9618 115.038C25.9237 115 25.8624 115 25.7401 115H24.2596L24.117 115.005Z" fill="currentColor"/>
  <path d="M32.7401 114C32.7734 114 32.8983 113.998 33.0155 114.014C33.1618 114.033 33.433 114.095 33.6688 114.331C33.9046 114.567 33.9665 114.838 33.9862 114.984C34.0019 115.102 33.9999 115.226 33.9998 115.26V122.74C33.9999 122.774 34.0019 122.898 33.9862 123.016C33.9665 123.162 33.9046 123.433 33.6688 123.669C33.433 123.905 33.1618 123.967 33.0155 123.986C32.8983 124.002 32.7734 124 32.7401 124H31.2596C31.2261 124 31.1013 124.002 30.9842 123.986C30.8379 123.967 30.5667 123.905 30.3309 123.669C30.0951 123.433 30.0332 123.162 30.0135 123.016C29.9978 122.898 29.9998 122.774 29.9998 122.74V115.26C29.9998 115.226 29.9978 115.102 30.0135 114.984C30.0332 114.838 30.0951 114.567 30.3309 114.331C30.5667 114.095 30.8379 114.033 30.9842 114.014C31.1013 113.998 31.2261 114 31.2596 114H32.7401ZM31.117 115.005C31.0818 115.01 31.0569 115.019 31.0379 115.038C31.019 115.057 31.0095 115.082 31.0047 115.117L30.9998 115.26V122.74C30.9998 122.863 30.9999 122.924 31.0379 122.962C31.0569 122.981 31.0818 122.99 31.117 122.995L31.2596 123H32.7401C32.8624 123 32.9237 123 32.9618 122.962C32.9998 122.924 32.9998 122.863 32.9998 122.74V115.26L32.995 115.117C32.9902 115.082 32.9808 115.057 32.9618 115.038C32.9237 115 32.8624 115 32.7401 115H31.2596L31.117 115.005Z" fill="currentColor"/>
</svg>
