<svg xmlns="http://www.w3.org/2000/svg" width="16" height="16" viewBox="20.0 111.0 16.0 16.0" fill="none">
  <path d="M30.5 114C31.4285 114 32.1751 113.999 32.7607 114.078C33.3608 114.159 33.8663 114.331 34.2676 114.732C34.6689 115.134 34.8412 115.639 34.9219 116.239C35.0006 116.825 35 117.572 35 118.5V119.5C35 120.428 35.0006 121.175 34.9219 121.761C34.8412 122.361 34.6689 122.866 34.2676 123.268C33.8663 123.669 33.3608 123.841 32.7607 123.922C32.1751 124.001 31.4285 124 30.5 124H27.5C27.2239 124 27 123.776 27 123.5C27 123.224 27.2239 123 27.5 123H30.5C31.4569 123 32.1244 122.999 32.6279 122.932C33.1171 122.866 33.376 122.745 33.5605 122.561C33.7451 122.376 33.8659 122.117 33.9316 121.628C33.9869 121.217 33.9941 120.697 33.9961 120H31V120.5C31 120.776 30.7761 121 30.5 121C30.2239 121 30 120.776 30 120.5V118.5C30 118.224 30.2239 118 30.5 118C30.7761 118 31 118.224 31 118.5V119H34V118.5C34 117.543 33.9993 116.876 33.9316 116.372C33.8659 115.883 33.7451 115.624 33.5605 115.439C33.376 115.255 33.1171 115.134 32.6279 115.068C32.1244 115.001 31.4569 115 30.5 115H27V115.5C27 115.776 26.7761 116 26.5 116C26.2239 116 26 115.776 26 115.5V115H25.5C24.5431 115 23.8756 115.001 23.3721 115.068C22.8829 115.134 22.624 115.255 22.4395 115.439C22.2549 115.624 22.1341 115.883 22.0684 116.372C22.0007 116.876 22 117.543 22 118.5V119H25.5C25.7417 119 25.9437 118.829 25.9902 118.601L26.0098 118.399C26.0563 118.171 26.2583 118 26.5 118C26.7761 118 27 118.224 27 118.5C27 119.328 26.3284 120 25.5 120H22V120.5C22 120.973 22 121.303 22.0176 121.561C22.0349 121.814 22.0676 121.962 22.1143 122.074C22.2665 122.442 22.5584 122.734 22.9258 122.886C23.0384 122.932 23.1862 122.965 23.4395 122.982C23.6974 123 24.0272 123 24.5 123C24.7761 123 25 123.224 25 123.5C25 123.776 24.7761 124 24.5 124C24.0411 124 23.6719 124 23.3721 123.979C23.0677 123.959 22.7978 123.915 22.543 123.81C21.9307 123.556 21.4442 123.069 21.1904 122.457C21.0849 122.202 21.0413 121.932 21.0205 121.628C21.0001 121.328 21 120.959 21 120.5V118.5C21 117.572 20.9994 116.825 21.0781 116.239C21.1588 115.639 21.3311 115.134 21.7324 114.732C22.1337 114.331 22.6392 114.159 23.2393 114.078C23.8249 113.999 24.5715 114 25.5 114H30.5Z" fill="currentColor"/>
</svg>
