<svg xmlns="http://www.w3.org/2000/svg" width="16" height="16" viewBox="20.0 110.0 17.0 17.0" fill="none">
  <path d="M23 112C24.1046 112 25 112.895 25 114C25 114.74 24.5971 115.384 24 115.729V118H27.0498C27.125 118.37 27.2848 118.709 27.5039 119H24V120.5C24 121.221 24.0014 121.712 24.0508 122.079C24.0982 122.432 24.1817 122.596 24.293 122.707C24.4043 122.818 24.5679 122.902 24.9209 122.949C25.2883 122.999 25.7788 123 26.5 123H30.2695C30.6155 122.403 31.2601 122 32 122C33.1046 122 34 122.895 34 124C34 125.105 33.1046 126 32 126C30.8954 126 30 125.105 30 124H26.5C25.807 124 25.2366 124.001 24.7871 123.94C24.3233 123.878 23.9139 123.742 23.5859 123.414C23.258 123.086 23.122 122.677 23.0596 122.213C22.9991 121.763 23 121.193 23 120.5V116C21.8954 116 21 115.105 21 114C21 112.895 21.8954 112 23 112ZM32 123C31.4477 123 31 123.448 31 124C31 124.552 31.4477 125 32 125C32.5523 125 33 124.552 33 124C33 123.448 32.5523 123 32 123ZM23 113C22.4477 113 22 113.448 22 114C22 114.552 22.4477 115 23 115C23.5523 115 24 114.552 24 114C24 113.448 23.5523 113 23 113Z" fill="currentColor"/>
  <path d="M33.7305 120C33.3845 120.597 32.7399 121 32 121C31.2601 121 30.6155 120.597 30.2695 120H33.7305Z" fill="currentColor"/>
  <path d="M33.5 113C33.7761 113 34 113.224 34 113.5V116.5C34 116.776 33.7761 117 33.5 117H30.5C30.2239 117 30 116.776 30 116.5C30 116.224 30.2239 116 30.5 116H32.293L30.1465 113.854C29.9512 113.658 29.9512 113.342 30.1465 113.146C30.3417 112.951 30.6583 112.951 30.8535 113.146L33 115.293V113.5C33 113.224 33.2239 113 33.5 113Z" fill="currentColor"/>
  <path d="M34.5 111C35.3284 111 36 111.672 36 112.5V117.5C36 118.328 35.3284 119 34.5 119H29.5C28.6716 119 28 118.328 28 117.5V112.5C28 111.672 28.6716 111 29.5 111H34.5ZM29.5 112C29.2239 112 29 112.224 29 112.5V117.5C29 117.776 29.2239 118 29.5 118H34.5C34.7761 118 35 117.776 35 117.5V112.5C35 112.224 34.7761 112 34.5 112H29.5Z" fill="currentColor"/>
</svg>
