<svg xmlns="http://www.w3.org/2000/svg" width="16" height="16" viewBox="20.0 111.44 17.0 17.0" fill="none">
  <path d="M31.5 121.25C32.1904 121.25 32.75 121.81 32.75 122.5C32.75 123.19 32.1904 123.75 31.5 123.75C30.8096 123.75 30.25 123.19 30.25 122.5C30.25 121.81 30.8096 121.25 31.5 121.25Z" fill="currentColor"/>
  <path d="M31.8574 118.88C32.1853 118.313 32.9113 118.119 33.4785 118.446L34.0205 118.76C34.5884 119.088 34.7834 119.814 34.4551 120.382C34.4223 120.439 34.4099 120.553 34.4902 120.686C34.5162 120.728 34.5423 120.772 34.5664 120.816C34.6415 120.953 34.7464 121 34.8125 121C35.4682 121 35.9998 121.532 36 122.188V122.813C35.9998 123.468 35.4683 124 34.8125 124C34.7464 124 34.6409 124.048 34.5654 124.185C34.5415 124.228 34.5169 124.271 34.4912 124.313C34.4104 124.447 34.4221 124.561 34.4551 124.618C34.7833 125.186 34.5886 125.913 34.0205 126.241L33.4785 126.554C32.9109 126.881 32.1852 126.687 31.8574 126.119C31.8246 126.063 31.732 125.996 31.5771 125.999C31.5515 126 31.5258 126 31.5 126C31.4739 126 31.4478 126 31.4219 125.999C31.2674 125.996 31.1753 126.063 31.1426 126.119C30.8153 126.687 30.0889 126.881 29.5215 126.554L28.9795 126.24C28.4117 125.912 28.2166 125.186 28.5439 124.618C28.5767 124.561 28.5884 124.446 28.5078 124.313C28.4823 124.27 28.4574 124.227 28.4336 124.184C28.3588 124.047 28.2536 124 28.1875 124C27.5317 124 27.0002 123.468 27 122.813V122.188C27.0002 121.532 27.5318 121 28.1875 121C28.2536 121 28.3581 120.953 28.4326 120.816C28.4566 120.773 28.4821 120.729 28.5078 120.687C28.5885 120.553 28.5768 120.438 28.5439 120.381C28.2166 119.813 28.4111 119.087 28.9785 118.76L29.5225 118.446C30.0894 118.119 30.8141 118.313 31.1416 118.88C31.1745 118.937 31.2677 119.004 31.4219 119.001C31.4479 119 31.4739 119 31.5 119C31.5257 119 31.5515 119 31.5771 119.001C31.7316 119.004 31.8244 118.937 31.8574 118.88ZM32.9785 119.313C32.8894 119.261 32.7752 119.292 32.7236 119.381C32.4659 119.827 31.9819 120.01 31.5557 120.001C31.5372 120.001 31.5186 120 31.5 120C31.4811 120 31.4621 120.001 31.4434 120.001C31.0169 120.01 30.5338 119.826 30.2764 119.38C30.2251 119.291 30.1112 119.261 30.0225 119.313L29.4785 119.626C29.3894 119.678 29.3589 119.792 29.4102 119.881C29.6679 120.328 29.5839 120.839 29.3643 121.203C29.3459 121.234 29.3276 121.266 29.3105 121.297C29.1054 121.672 28.7039 122 28.1875 122C28.0841 122 28.0002 122.084 28 122.188V122.813C28.0002 122.916 28.084 123 28.1875 123C28.704 123 29.1053 123.329 29.3105 123.703C29.3275 123.734 29.3451 123.765 29.3633 123.795C29.5836 124.159 29.6678 124.671 29.4102 125.118C29.3586 125.208 29.3898 125.322 29.4795 125.374L30.0215 125.688C30.1104 125.739 30.2241 125.708 30.2754 125.619C30.5332 125.172 31.0181 124.989 31.4443 124.999C31.4628 124.999 31.4814 125 31.5 125C31.5183 125 31.5365 124.999 31.5547 124.999C31.9808 124.989 32.4655 125.172 32.7236 125.619C32.7753 125.708 32.8892 125.739 32.9785 125.688L33.5205 125.375C33.61 125.323 33.6404 125.209 33.5889 125.119C33.3302 124.672 33.414 124.159 33.6357 123.794C33.6541 123.764 33.6724 123.733 33.6895 123.702C33.895 123.329 34.296 123 34.8125 123C34.916 123 34.9998 122.916 35 122.813V122.188C34.9998 122.084 34.9159 122 34.8125 122C34.2961 122 33.8949 121.672 33.6895 121.298C33.6722 121.267 33.6542 121.235 33.6357 121.204C33.4147 120.839 33.3304 120.328 33.5889 119.881C33.6402 119.792 33.6102 119.678 33.5215 119.626L32.9785 119.313Z" fill="currentColor"/>
  <path d="M25.8818 113C26.1161 113 26.3225 112.999 26.4951 113.014C26.6762 113.029 26.8542 113.063 27.0312 113.147C27.1266 113.193 27.2171 113.25 27.3008 113.314C27.4561 113.435 27.5655 113.579 27.6602 113.734C27.7503 113.882 27.8425 114.067 27.9473 114.276C28.0593 114.5 28.1301 114.641 28.1934 114.745C28.2522 114.842 28.2869 114.876 28.3115 114.896C28.3394 114.917 28.3696 114.936 28.4014 114.951C28.4295 114.965 28.4756 114.98 28.5879 114.989C28.7092 114.999 28.8674 115 29.1182 115H30.5C31.4285 115 32.1751 114.999 32.7607 115.078C33.3608 115.159 33.8663 115.331 34.2676 115.732C34.6689 116.134 34.8412 116.639 34.9219 117.239C34.9615 117.534 34.9806 117.87 34.9902 118.249C34.6716 117.987 34.3228 117.761 33.9502 117.575C33.9436 117.505 33.9403 117.437 33.9316 117.372C33.8659 116.883 33.7451 116.624 33.5605 116.439C33.376 116.255 33.1171 116.134 32.6279 116.068C32.1244 116.001 31.4569 116 30.5 116H29.1182C28.8839 116 28.6775 116.001 28.5049 115.986C28.3238 115.971 28.1458 115.938 27.9688 115.853C27.8734 115.807 27.7829 115.75 27.6992 115.686C27.5439 115.565 27.4345 115.421 27.3398 115.266C27.2497 115.118 27.1575 114.933 27.0527 114.724C26.9407 114.5 26.8699 114.359 26.8066 114.255C26.7478 114.158 26.7131 114.124 26.6885 114.105C26.6606 114.083 26.6304 114.064 26.5986 114.049C26.5705 114.035 26.5243 114.02 26.4121 114.011C26.2908 114.001 26.1326 114 25.8818 114H25.5C24.5431 114 23.8756 114.001 23.3721 114.068C22.8829 114.134 22.624 114.255 22.4395 114.439C22.2549 114.624 22.1341 114.883 22.0684 115.372C22.0007 115.876 22 116.543 22 117.5V120.5C22 121.457 22.0007 122.124 22.0684 122.628C22.1341 123.117 22.255 123.376 22.4395 123.561C22.624 123.745 22.8829 123.866 23.3721 123.932C23.8756 123.999 24.5431 124 25.5 124H26.208C26.3067 124.349 26.4395 124.683 26.6016 125H25.5C24.5715 125 23.8249 125.001 23.2393 124.922C22.6392 124.841 22.1337 124.669 21.7324 124.268C21.3312 123.866 21.1588 123.361 21.0781 122.761C20.9994 122.175 21 121.428 21 120.5V117.5C21 116.572 20.9994 115.825 21.0781 115.239C21.1588 114.639 21.3311 114.134 21.7324 113.732C22.1337 113.331 22.6392 113.159 23.2393 113.078C23.8249 112.999 24.5715 113 25.5 113H25.8818Z" fill="currentColor"/>
</svg>
