<svg xmlns="http://www.w3.org/2000/svg" width="16" height="16" viewBox="20.0 110.97 16.05 16.05" fill="none">
  <path d="M25.8818 113C26.1161 113 26.3225 112.999 26.4951 113.014C26.6762 113.029 26.8542 113.063 27.0312 113.147C27.1266 113.193 27.2171 113.25 27.3008 113.314C27.4561 113.435 27.5655 113.579 27.6602 113.734C27.7503 113.882 27.8425 114.067 27.9473 114.276L27.9717 114.326C28.1839 114.751 28.2338 114.83 28.292 114.88C28.3313 114.914 28.3761 114.941 28.4238 114.961C28.4946 114.991 28.5879 115 29.0625 115C29.725 115 30.2581 114.999 30.6855 115.041C31.1208 115.084 31.4995 115.173 31.8379 115.388C32.15 115.585 32.4146 115.85 32.6123 116.162C32.7784 116.424 32.8684 116.711 32.9209 117.029C33.0068 117.035 33.0888 117.041 33.167 117.05C33.6197 117.101 34.028 117.211 34.3535 117.496C34.5925 117.706 34.7777 117.969 34.8945 118.265C35.0537 118.667 35.0204 119.089 34.916 119.532C34.8126 119.971 34.6184 120.512 34.3799 121.18C34.1254 121.892 33.9247 122.456 33.7217 122.901C33.5153 123.354 33.2927 123.718 32.9766 124.022C32.7201 124.269 32.4271 124.475 32.1084 124.634C31.7155 124.829 31.2975 124.917 30.8018 124.959C30.3144 125 29.7162 125 28.96 125H25.2295C25.2003 125 25.1713 124.999 25.1426 124.999C24.9806 124.999 24.8248 124.997 24.6748 124.996C24.3135 124.994 23.9951 124.988 23.7178 124.968C23.5476 124.957 23.3882 124.942 23.2393 124.922C22.6392 124.841 22.1337 124.669 21.7324 124.268C21.3312 123.866 21.1588 123.361 21.0781 122.761C20.9994 122.175 21 121.428 21 120.5V117.5C21 116.572 20.9994 115.825 21.0781 115.239C21.1588 114.639 21.3312 114.134 21.7324 113.732C22.1337 113.331 22.6392 113.159 23.2393 113.078C23.8249 112.999 24.5715 113 25.5 113H25.8818ZM27.7041 118C26.9308 118 26.3816 118 25.9463 118.037C25.5194 118.073 25.2393 118.143 25.001 118.262C24.7734 118.375 24.564 118.522 24.3809 118.698C24.189 118.883 24.0294 119.124 23.8516 119.514C23.6703 119.911 23.4856 120.428 23.2256 121.156C22.9789 121.847 22.8082 122.326 22.7207 122.697C22.6342 123.065 22.65 123.246 22.6982 123.368C22.7567 123.516 22.8502 123.647 22.9697 123.752C23.0685 123.838 23.2335 123.915 23.6084 123.957C23.9877 124 24.496 124 25.2295 124H28.96C29.7328 124 30.2816 124 30.7168 123.963C31.1438 123.927 31.4247 123.857 31.6631 123.738C31.8907 123.625 32.1 123.478 32.2832 123.302C32.475 123.117 32.6347 122.876 32.8125 122.486C32.9938 122.089 33.1784 121.572 33.4385 120.844C33.6852 120.153 33.8549 119.674 33.9424 119.303C34.0288 118.935 34.0131 118.754 33.9648 118.632C33.9064 118.484 33.8137 118.353 33.6943 118.248C33.5956 118.162 33.4304 118.085 33.0557 118.043C32.6763 118 32.1681 118 31.4346 118H27.7041ZM25.5 114C24.5431 114 23.8756 114.001 23.3721 114.068C22.8829 114.134 22.624 114.255 22.4395 114.439C22.2549 114.624 22.1341 114.883 22.0684 115.372C22.0007 115.876 22 116.543 22 117.5V120.5C22 120.921 22.0019 121.287 22.0078 121.606C22.0897 121.366 22.1817 121.105 22.2832 120.82C22.5376 120.108 22.7384 119.544 22.9414 119.099C23.1478 118.646 23.3713 118.282 23.6875 117.978C23.9439 117.731 24.2371 117.525 24.5557 117.366C24.9483 117.171 25.3659 117.083 25.8613 117.041C26.3488 117 26.9476 117 27.7041 117H31.4346C31.5944 117 31.7473 117.001 31.8936 117.002C31.8597 116.875 31.819 116.778 31.7676 116.697C31.6489 116.51 31.49 116.351 31.3027 116.232C31.1511 116.136 30.9477 116.071 30.5879 116.036C30.2204 116 29.7447 116 29.0625 116C28.676 116 28.338 116.009 28.0371 115.883C27.8935 115.822 27.7598 115.74 27.6416 115.639C27.3939 115.426 27.251 115.119 27.0781 114.773L27.0527 114.724C26.9407 114.5 26.8699 114.359 26.8066 114.255C26.7478 114.158 26.7131 114.124 26.6885 114.105C26.6606 114.083 26.6304 114.064 26.5986 114.049C26.5705 114.035 26.5243 114.02 26.4121 114.011C26.2908 114.001 26.1326 114 25.8818 114H25.5Z" fill="currentColor"/>
</svg>
