<svg xmlns="http://www.w3.org/2000/svg" width="16" height="16" viewBox="20.0 111.0 17.0 17.0" fill="none">
  <path d="M33.1465 121.146C33.3417 120.951 33.6583 120.951 33.8535 121.146C34.0485 121.342 34.0486 121.658 33.8535 121.854L31.3535 124.354C31.1583 124.549 30.8418 124.549 30.6465 124.354L29.1465 122.854C28.9514 122.658 28.9513 122.342 29.1465 122.146C29.3417 121.951 29.6583 121.951 29.8535 122.146L31 123.293L33.1465 121.146Z" fill="currentColor"/>
  <path d="M31.5 118C33.9853 118 36 120.015 36 122.5C36 124.985 33.9853 127 31.5 127C29.0147 127 27 124.985 27 122.5C27 120.015 29.0147 118 31.5 118ZM31.5 119C29.567 119 28 120.567 28 122.5C28 124.433 29.567 126 31.5 126C33.433 126 35 124.433 35 122.5C35 120.567 33.433 119 31.5 119Z" fill="currentColor"/>
  <path d="M25.8818 112C26.1161 112 26.3225 111.999 26.4951 112.014C26.6762 112.029 26.8542 112.063 27.0312 112.147C27.1266 112.193 27.2171 112.25 27.3008 112.314C27.4561 112.435 27.5655 112.579 27.6602 112.734C27.7503 112.882 27.8425 113.067 27.9473 113.276L27.9717 113.326C28.1839 113.751 28.2338 113.83 28.292 113.88C28.3313 113.914 28.3761 113.941 28.4238 113.961C28.4946 113.991 28.5879 114 29.0625 114C29.725 114 30.2581 113.999 30.6855 114.041C31.1208 114.084 31.4995 114.173 31.8379 114.388C32.15 114.585 32.4146 114.85 32.6123 115.162C32.7784 115.424 32.8684 115.711 32.9209 116.029C33.0068 116.035 33.0888 116.041 33.167 116.05C33.6197 116.101 34.028 116.211 34.3535 116.496C34.5925 116.706 34.7777 116.969 34.8945 117.265C35.0179 117.577 35.025 117.9 34.9736 118.236C34.655 117.976 34.3068 117.751 33.9346 117.567C33.8763 117.446 33.7958 117.337 33.6943 117.248C33.5956 117.162 33.4304 117.085 33.0557 117.043C32.6917 117.002 32.209 117 31.5225 117H27.7041C26.9308 117 26.3816 117 25.9463 117.037C25.5194 117.073 25.2393 117.143 25.001 117.262C24.7734 117.375 24.564 117.522 24.3809 117.698C24.189 117.883 24.0294 118.124 23.8516 118.514C23.6703 118.911 23.4856 119.428 23.2256 120.156C22.9789 120.847 22.8082 121.326 22.7207 121.697C22.6343 122.065 22.65 122.246 22.6982 122.368C22.7567 122.516 22.8502 122.647 22.9697 122.752C23.0685 122.838 23.2335 122.915 23.6084 122.957C23.9877 123 24.496 123 25.2295 123H26.0234C26.0544 123.343 26.1168 123.678 26.208 124H25.2295C25.2003 124 25.1713 123.999 25.1426 123.999C24.9806 123.999 24.8248 123.997 24.6748 123.996C24.2495 123.994 23.8836 123.986 23.5742 123.956C23.4572 123.947 23.3455 123.936 23.2393 123.922C22.6392 123.841 22.1337 123.669 21.7324 123.268C21.3312 122.866 21.1588 122.361 21.0781 121.761C20.9994 121.175 21 120.428 21 119.5V116.5C21 115.572 20.9994 114.825 21.0781 114.239C21.1588 113.639 21.3312 113.134 21.7324 112.732C22.1337 112.331 22.6392 112.159 23.2393 112.078C23.8249 111.999 24.5715 112 25.5 112H25.8818ZM25.5 113C24.5431 113 23.8756 113.001 23.3721 113.068C22.8829 113.134 22.624 113.255 22.4395 113.439C22.2549 113.624 22.1341 113.883 22.0684 114.372C22.0007 114.876 22 115.543 22 116.5V119.5C22 119.921 22.0019 120.287 22.0078 120.606C22.0897 120.366 22.1817 120.105 22.2832 119.82C22.5376 119.108 22.7384 118.544 22.9414 118.099C23.1478 117.646 23.3713 117.282 23.6875 116.978C23.9439 116.731 24.2371 116.525 24.5557 116.366C24.9483 116.171 25.3659 116.083 25.8613 116.041C26.3488 116 26.9476 116 27.7041 116H31.4346C31.5944 116 31.7473 116.001 31.8936 116.002C31.8597 115.875 31.819 115.778 31.7676 115.697C31.6489 115.51 31.49 115.351 31.3027 115.232C31.1511 115.136 30.9477 115.071 30.5879 115.036C30.2204 115 29.7447 115 29.0625 115C28.676 115 28.338 115.009 28.0371 114.883C27.8935 114.822 27.7598 114.74 27.6416 114.639C27.3939 114.426 27.251 114.119 27.0781 113.773L27.0527 113.724C26.9407 113.5 26.8699 113.359 26.8066 113.255C26.7478 113.158 26.7131 113.124 26.6885 113.105C26.6606 113.083 26.6304 113.064 26.5986 113.049C26.5705 113.035 26.5243 113.02 26.4121 113.011C26.2908 113.001 26.1326 113 25.8818 113H25.5Z" fill="currentColor"/>
</svg>
