<svg xmlns="http://www.w3.org/2000/svg" width="16" height="16" viewBox="20.0 111.0 16.0 16.0" fill="none">
  <path d="M21 120.5V117.5C21 116.572 20.9994 115.825 21.0781 115.239C21.1588 114.639 21.3311 114.134 21.7324 113.732C22.1337 113.331 22.6392 113.159 23.2393 113.078C23.8249 112.999 24.5715 113 25.5 113H25.8818C26.1161 113 26.3225 112.999 26.4951 113.014C26.6762 113.029 26.8542 113.063 27.0312 113.147C27.1266 113.193 27.2171 113.25 27.3008 113.314C27.4561 113.435 27.5655 113.579 27.6602 113.734C27.7503 113.882 27.8425 114.067 27.9473 114.276C28.0593 114.5 28.1301 114.641 28.1934 114.745C28.2522 114.842 28.2869 114.876 28.3115 114.896C28.3394 114.917 28.3696 114.936 28.4014 114.951C28.4295 114.965 28.4756 114.98 28.5879 114.989C28.7092 114.999 28.8674 115 29.1182 115H30.5C31.4285 115 32.1751 114.999 32.7607 115.078C33.3608 115.159 33.8663 115.331 34.2676 115.732C34.6689 116.134 34.8412 116.639 34.9219 117.239C35.0006 117.825 35 118.572 35 119.5V120.5C35 121.428 35.0006 122.175 34.9219 122.761C34.8412 123.361 34.6689 123.866 34.2676 124.268C33.8663 124.669 33.3608 124.841 32.7607 124.922C32.1751 125.001 31.4285 125 30.5 125H25.5C24.5715 125 23.8249 125.001 23.2393 124.922C22.6392 124.841 22.1337 124.669 21.7324 124.268C21.3311 123.866 21.1588 123.361 21.0781 122.761C20.9994 122.175 21 121.428 21 120.5ZM22 120.5C22 121.457 22.0007 122.124 22.0684 122.628C22.1341 123.117 22.2549 123.376 22.4395 123.561C22.624 123.745 22.8829 123.866 23.3721 123.932C23.8756 123.999 24.5431 124 25.5 124H30.5C31.4569 124 32.1244 123.999 32.6279 123.932C33.1171 123.866 33.376 123.745 33.5605 123.561C33.7451 123.376 33.8659 123.117 33.9316 122.628C33.9993 122.124 34 121.457 34 120.5V119.5C34 118.543 33.9993 117.876 33.9316 117.372C33.8659 116.883 33.7451 116.624 33.5605 116.439C33.376 116.255 33.1171 116.134 32.6279 116.068C32.1244 116.001 31.4569 116 30.5 116H29.1182C28.8839 116 28.6775 116.001 28.5049 115.986C28.3238 115.971 28.1458 115.938 27.9688 115.853C27.8734 115.807 27.7829 115.75 27.6992 115.686C27.5439 115.565 27.4345 115.421 27.3398 115.266C27.2497 115.118 27.1575 114.933 27.0527 114.724C26.9407 114.5 26.8699 114.359 26.8066 114.255C26.7478 114.158 26.7131 114.124 26.6885 114.105C26.6606 114.083 26.6304 114.064 26.5986 114.049C26.5705 114.035 26.5244 114.02 26.4121 114.011C26.2908 114.001 26.1326 114 25.8818 114H25.5C24.5431 114 23.8756 114.001 23.3721 114.068C22.8829 114.134 22.624 114.255 22.4395 114.439C22.2549 114.624 22.1341 114.883 22.0684 115.372C22.0007 115.876 22 116.543 22 117.5V120.5Z" fill="currentColor"/>
</svg>
