<svg xmlns="http://www.w3.org/2000/svg" width="16" height="16" viewBox="19.5 111.0 16.0 16.0" fill="none">
  <path d="M26.3037 112C26.9515 112 27.5034 112.477 27.5908 113.123C27.7334 114.176 28 116.237 28 117C28 117.67 27.6615 118.314 27.3057 118.815C26.9404 119.331 26.5029 119.771 26.2021 120.05C26.1042 120.141 26.0498 120.192 26.0127 120.231C26.0096 120.235 26.0063 120.238 26.0039 120.24V120.246C26.0004 120.293 26 120.359 26 120.482V124.5C26 125.328 25.3284 126 24.5 126C23.6716 126 23 125.328 23 124.5V120.482C23 120.359 22.9996 120.293 22.9961 120.246L22.9951 120.24C22.9928 120.238 22.9902 120.235 22.9873 120.231C22.9502 120.192 22.8958 120.141 22.7979 120.05C22.4971 119.771 22.0596 119.331 21.6943 118.815C21.3385 118.314 21 117.67 21 117C21 116.237 21.2666 114.176 21.4092 113.123C21.4966 112.477 22.0485 112 22.6963 112C23.0286 112 23.3312 112.125 23.5615 112.33C23.8185 112.124 24.1448 112 24.5 112C24.855 112 25.1806 112.124 25.4375 112.33C25.6679 112.125 25.9711 112 26.3037 112ZM26.3037 113C26.1362 113 26 113.136 26 113.304V116.5C26 116.776 25.7761 117 25.5 117C25.2239 117 25 116.776 25 116.5V113.5C25 113.224 24.7761 113 24.5 113C24.2239 113 24 113.224 24 113.5V116.5C24 116.776 23.7761 117 23.5 117C23.2239 117 23 116.776 23 116.5V113.304C23 113.136 22.8638 113 22.6963 113C22.545 113 22.4202 113.111 22.4004 113.257C22.2528 114.348 22.0001 116.322 22 117C22 117.355 22.1919 117.787 22.5107 118.236C22.8201 118.673 23.2019 119.061 23.4775 119.316C23.5653 119.398 23.6505 119.476 23.7168 119.547C23.7682 119.602 23.8244 119.668 23.8721 119.75L23.916 119.838L23.9492 119.926C23.9765 120.013 23.9876 120.097 23.9932 120.172C24 120.265 24 120.374 24 120.482V124.5C24 124.776 24.2239 125 24.5 125C24.7761 125 25 124.776 25 124.5V120.482C25 120.373 24.9999 120.264 25.0068 120.171C25.0142 120.072 25.0319 119.957 25.084 119.838L25.1279 119.75C25.1756 119.668 25.2318 119.602 25.2832 119.547C25.3495 119.476 25.4347 119.398 25.5225 119.316C25.7981 119.061 26.1799 118.673 26.4893 118.236C26.8081 117.787 27 117.355 27 117C27 116.322 26.7473 114.348 26.5996 113.257C26.5798 113.111 26.455 113 26.3037 113Z" fill="currentColor"/>
  <path d="M33.5 112C33.7761 112 34 112.224 34 112.5V124.5C34 125.328 33.3284 126 32.5 126C31.6716 126 31 125.328 31 124.5V120C30.7739 120 30.5793 120 30.4189 119.989C30.254 119.978 30.0887 119.953 29.9258 119.886C29.5584 119.734 29.2665 119.442 29.1143 119.074C29.0468 118.911 29.022 118.746 29.0107 118.581C28.9998 118.421 29 118.226 29 118C29 116.259 29.7253 114.773 30.6201 113.726C31.0679 113.202 31.5658 112.778 32.0527 112.482C32.5297 112.193 33.0385 112 33.5 112ZM33 113.118C32.8702 113.171 32.7269 113.243 32.5723 113.337C32.1843 113.572 31.7653 113.924 31.3799 114.375C30.6082 115.278 30 116.541 30 118C30 118.24 30.0007 118.394 30.0088 118.513C30.0166 118.627 30.0295 118.671 30.0381 118.691C30.0888 118.814 30.1861 118.911 30.3086 118.962C30.3294 118.971 30.3733 118.983 30.4873 118.991C30.6057 118.999 30.7605 119 31 119H31.5C31.7761 119 32 119.224 32 119.5V124.5C32 124.776 32.2239 125 32.5 125C32.7761 125 33 124.776 33 124.5V113.118Z" fill="currentColor"/>
</svg>
