<svg xmlns="http://www.w3.org/2000/svg" width="16" height="16" viewBox="20.0 110.0 16.0 16.0" fill="none">
  <path d="M27.5 120C27.7761 120 28 120.224 28 120.5C28 120.776 27.7761 121 27.5 121H24.5C24.2239 121 24 120.776 24 120.5C24 120.224 24.2239 120 24.5 120H27.5Z" fill="currentColor"/>
  <path d="M27.5 117C27.7761 117 28 117.224 28 117.5C28 117.776 27.7761 118 27.5 118H24.5C24.2239 118 24 117.776 24 117.5C24 117.224 24.2239 117 24.5 117H27.5Z" fill="currentColor"/>
  <path d="M31.0107 111C32.1095 111 33.0027 111.887 33.0107 112.985L33.0117 113.119C33.5029 113.213 33.9236 113.388 34.2676 113.732C34.6689 114.134 34.8412 114.639 34.9219 115.239C35.0006 115.825 35 116.572 35 117.5V120.5C35 121.428 35.0006 122.175 34.9219 122.761C34.8412 123.361 34.6689 123.866 34.2676 124.268C33.8663 124.669 33.3608 124.841 32.7607 124.922C32.1751 125.001 31.4285 125 30.5 125H25.5C24.5715 125 23.8249 125.001 23.2393 124.922C22.6392 124.841 22.1337 124.669 21.7324 124.268C21.3311 123.866 21.1588 123.361 21.0781 122.761C20.9994 122.175 21 121.428 21 120.5V117.5C21 116.572 20.9994 115.825 21.0781 115.239C21.1588 114.639 21.3311 114.134 21.7324 113.732C22.1337 113.331 22.6392 113.159 23.2393 113.078C23.8249 112.999 24.5715 113 25.5 113H29.0117C29.0116 111.897 29.9056 111 31.0107 111ZM25.5 114C24.5431 114 23.8756 114.001 23.3721 114.068C22.8829 114.134 22.624 114.255 22.4395 114.439C22.2549 114.624 22.1341 114.883 22.0684 115.372C22.0007 115.876 22 116.543 22 117.5V120.5C22 121.457 22.0007 122.124 22.0684 122.628C22.1341 123.117 22.2549 123.376 22.4395 123.561C22.624 123.745 22.8829 123.866 23.3721 123.932C23.8756 123.999 24.5431 124 25.5 124H30.5C31.4569 124 32.1244 123.999 32.6279 123.932C33.1171 123.866 33.376 123.745 33.5605 123.561C33.7451 123.376 33.8659 123.117 33.9316 122.628C33.9993 122.124 34 121.457 34 120.5V117.5C34 116.543 33.9993 115.876 33.9316 115.372C33.8659 114.883 33.7451 114.624 33.5605 114.439C33.4328 114.312 33.2693 114.215 33.0186 114.146L33.0586 119.497C33.0592 119.597 33.03 119.695 32.9746 119.778L31.6318 121.79C31.3285 122.244 30.6571 122.232 30.3701 121.768L29.1328 119.763C29.085 119.685 29.0593 119.595 29.0586 119.504L29.0176 114H25.5ZM31.0107 112C30.456 112 30.0069 112.452 30.0107 113.007L30.0566 119.356L31.0156 120.91L32.0566 119.35L32.0107 112.992C32.0065 112.443 31.5599 112 31.0107 112Z" fill="currentColor"/>
</svg>
