<svg xmlns="http://www.w3.org/2000/svg" width="16" height="16" viewBox="19.55 111.0 16.0 16.0" fill="none">
  <path d="M27.5914 112C28.1133 112 28.6211 112.169 29.0387 112.482L29.8619 113.1C30.0827 113.265 30.1279 113.579 29.9625 113.8C29.7969 114.021 29.4832 114.066 29.2623 113.9L28.4391 113.282C28.1946 113.099 27.897 113 27.5914 113C26.8561 113 26.2436 113.564 26.1832 114.297L26.0436 116H27.5621C27.8383 116 28.0621 116.224 28.0621 116.5C28.0621 116.776 27.8383 117 27.5621 117H25.9615L25.3893 123.969C25.2951 125.116 24.3365 126 23.1852 126C22.5133 126 21.8773 125.695 21.4576 125.17L21.1715 124.812C20.9991 124.597 21.0341 124.282 21.2496 124.109C21.4652 123.937 21.7802 123.972 21.9527 124.188L22.2389 124.545C22.4688 124.832 22.8171 125 23.1852 125C23.8159 125 24.3416 124.515 24.3932 123.887L24.9576 117H23.5621C23.2861 117 23.0621 116.776 23.0621 116.5C23.0621 116.224 23.2861 116 23.5621 116H25.0397L25.1861 114.216C25.2889 112.964 26.3354 112 27.5914 112Z" fill="currentColor"/>
  <path d="M33.2086 118.146C33.4038 117.951 33.7204 117.951 33.9156 118.146C34.1109 118.342 34.1109 118.658 33.9156 118.854L31.1705 121.599L32.2418 123.741C32.3212 123.9 32.4834 124 32.6607 124C32.785 124 32.9049 123.95 32.9928 123.862L33.2086 123.646C33.4038 123.451 33.7204 123.451 33.9156 123.646C34.1109 123.842 34.1109 124.158 33.9156 124.354L33.6998 124.569C33.4244 124.845 33.0502 125 32.6607 125C32.1047 125 31.5961 124.686 31.3473 124.188L30.4244 122.344L27.9156 124.854C27.7204 125.049 27.4038 125.049 27.2086 124.854C27.0135 124.658 27.0135 124.342 27.2086 124.146L29.9537 121.401L28.8824 119.259C28.803 119.1 28.6408 119 28.4635 119C28.3392 119 28.2193 119.05 28.1314 119.138L27.9156 119.354C27.7204 119.549 27.4038 119.549 27.2086 119.354C27.0135 119.158 27.0135 118.842 27.2086 118.646L27.4244 118.431C27.6998 118.155 28.074 118 28.4635 118C29.0196 118 29.5281 118.314 29.777 118.812L30.6988 120.655L33.2086 118.146Z" fill="currentColor"/>
</svg>
