<svg xmlns="http://www.w3.org/2000/svg" width="16" height="16" viewBox="20.0 111.0 16.0 16.0" fill="none">
  <path d="M26.1465 120.146C26.3417 119.951 26.6583 119.951 26.8535 120.146C27.0488 120.342 27.0488 120.658 26.8535 120.854L22.707 125H25.5C25.7761 125 26 125.224 26 125.5C26 125.776 25.7761 126 25.5 126H21.5C21.2239 126 21 125.776 21 125.5V121.5C21 121.224 21.2239 121 21.5 121C21.7761 121 22 121.224 22 121.5V124.293L26.1465 120.146Z" fill="currentColor"/>
  <path d="M29.1465 120.146C29.3417 119.951 29.6583 119.951 29.8535 120.146L34 124.293V121.5C34 121.224 34.2239 121 34.5 121C34.7761 121 35 121.224 35 121.5V125.5C35 125.776 34.7761 126 34.5 126H30.5C30.2239 126 30 125.776 30 125.5C30 125.224 30.2239 125 30.5 125H33.293L29.1465 120.854C28.9512 120.658 28.9512 120.342 29.1465 120.146Z" fill="currentColor"/>
  <path d="M25.5 112C25.7761 112 26 112.224 26 112.5C26 112.776 25.7761 113 25.5 113H22.707L26.8535 117.146C27.0488 117.342 27.0488 117.658 26.8535 117.854C26.6583 118.049 26.3417 118.049 26.1465 117.854L22 113.707V116.5C22 116.776 21.7761 117 21.5 117C21.2239 117 21 116.776 21 116.5V112.5C21 112.224 21.2239 112 21.5 112H25.5Z" fill="currentColor"/>
  <path d="M34.5 112C34.7761 112 35 112.224 35 112.5V116.5C35 116.776 34.7761 117 34.5 117C34.2239 117 34 116.776 34 116.5V113.707L29.8535 117.854C29.6583 118.049 29.3417 118.049 29.1465 117.854C28.9512 117.658 28.9512 117.342 29.1465 117.146L33.293 113H30.5C30.2239 113 30 112.776 30 112.5C30 112.224 30.2239 112 30.5 112H34.5Z" fill="currentColor"/>
</svg>
