<svg xmlns="http://www.w3.org/2000/svg" width="16" height="16" viewBox="20.17 111.0 16.99 16.99" fill="none">
  <path d="M33.1463 121.146C33.3415 120.951 33.658 120.951 33.8533 121.146C34.0486 121.342 34.0486 121.658 33.8533 121.853L31.8533 123.853C31.658 124.049 31.3415 124.049 31.1463 123.853L30.1463 122.853C29.9512 122.658 29.9511 122.342 30.1463 122.146C30.3415 121.951 30.658 121.951 30.8533 122.146L31.4998 122.793L33.1463 121.146Z" fill="currentColor"/>
  <path d="M31.9998 118.12C32.189 118.12 32.3497 118.186 32.4724 118.249C32.5939 118.311 32.735 118.4 32.8865 118.495C33.3555 118.788 34.0177 119.153 34.6658 119.353C34.9195 119.432 35.1393 119.5 35.3054 119.566C35.4566 119.627 35.6656 119.722 35.8045 119.91C35.9339 120.086 35.97 120.284 35.9851 120.44C36.0002 120.597 35.9998 120.79 35.9998 121V122.5C35.9998 124.063 35.2732 125.126 34.4549 125.812C33.6502 126.487 32.7524 126.805 32.3465 126.925C32.2616 126.95 32.1529 126.984 31.9998 126.984C31.8467 126.984 31.738 126.95 31.6531 126.925C31.247 126.805 30.3492 126.487 29.5447 125.812C28.7265 125.126 27.9998 124.063 27.9998 122.5V121C27.9998 120.79 27.9994 120.597 28.0144 120.44C28.0295 120.284 28.0657 120.086 28.1951 119.91C28.3339 119.722 28.543 119.627 28.6941 119.566C28.8603 119.5 29.08 119.432 29.3338 119.353C29.9819 119.153 30.6441 118.788 31.1131 118.495C31.2645 118.4 31.4057 118.311 31.5271 118.249C31.6498 118.186 31.8106 118.12 31.9998 118.12ZM31.9822 119.14C31.9086 119.177 31.8103 119.238 31.6433 119.343C31.1468 119.653 30.3993 120.07 29.6297 120.309C29.3591 120.392 29.1847 120.447 29.0642 120.495C29.0426 120.504 29.0253 120.512 29.0115 120.518C29.0109 120.524 29.0102 120.53 29.0096 120.536C29.0002 120.633 28.9998 120.77 28.9998 121V122.5C28.9998 123.708 29.5459 124.508 30.1873 125.046C30.842 125.595 31.5914 125.864 31.9353 125.966C31.9586 125.973 31.9743 125.977 31.9871 125.98C31.9925 125.982 31.9968 125.983 31.9998 125.983C32.0027 125.983 32.007 125.982 32.0125 125.98C32.0253 125.977 32.041 125.973 32.0642 125.966C32.4081 125.864 33.1574 125.595 33.8123 125.046C34.4537 124.508 34.9998 123.708 34.9998 122.5V121C34.9998 120.77 34.9993 120.633 34.99 120.536C34.9894 120.53 34.9877 120.524 34.9871 120.518C34.9734 120.512 34.9566 120.504 34.9353 120.495C34.8149 120.447 34.6404 120.392 34.3699 120.309C33.6003 120.07 32.8528 119.653 32.3562 119.343C32.1893 119.238 32.091 119.177 32.0174 119.14C32.0111 119.136 32.0049 119.134 31.9998 119.132C31.9947 119.134 31.9885 119.136 31.9822 119.14Z" fill="currentColor"/>
  <path d="M28.3982 112C28.6037 112 28.7811 111.998 28.9412 112.03C29.45 112.134 29.8699 112.494 30.0496 112.981C30.106 113.135 30.1298 113.309 30.1609 113.513C30.1892 113.697 30.1974 113.741 30.2039 113.764C30.23 113.854 30.2505 113.892 30.2654 113.914C30.2803 113.936 30.3089 113.969 30.3846 114.025C30.3846 114.025 30.391 114.03 30.4012 114.036C30.4151 114.045 30.4357 114.057 30.4627 114.073C30.5181 114.106 30.5949 114.148 30.7019 114.209C30.7328 114.226 30.7643 114.245 30.7947 114.263C30.9011 114.325 30.9769 114.37 31.033 114.402C31.0601 114.418 31.0809 114.43 31.0955 114.437C31.1044 114.442 31.1107 114.445 31.1131 114.446C31.1991 114.483 31.2422 114.491 31.2683 114.493C31.2944 114.495 31.3381 114.494 31.4295 114.472C31.4526 114.466 31.4956 114.45 31.6697 114.383C31.8625 114.308 32.0281 114.241 32.1902 114.214C32.7 114.128 33.2189 114.311 33.5623 114.697C33.6716 114.82 33.7585 114.976 33.8621 115.155L34.2605 115.844C34.3632 116.021 34.4528 116.173 34.5047 116.328C34.6697 116.821 34.568 117.365 34.2351 117.765C34.1711 117.841 34.0926 117.911 34.0056 117.983C33.7959 117.872 33.5946 117.758 33.4168 117.646C33.3219 117.587 33.2021 117.514 33.0818 117.445C33.1201 117.414 33.1619 117.381 33.2058 117.346C33.4017 117.189 33.4423 117.153 33.4666 117.124C33.5773 116.991 33.6114 116.81 33.5564 116.645C33.5444 116.61 33.5199 116.561 33.3943 116.344L32.9959 115.655C32.8691 115.436 32.8396 115.389 32.8142 115.36C32.6998 115.232 32.5267 115.172 32.3572 115.2C32.3196 115.207 32.2666 115.224 32.031 115.315C31.8893 115.37 31.7709 115.418 31.6687 115.443C31.5149 115.481 31.3571 115.504 31.1873 115.49C31.0176 115.476 30.8661 115.427 30.7205 115.365C30.6226 115.323 30.4758 115.236 30.2859 115.124C30.261 115.109 30.2349 115.094 30.2097 115.08C30.0186 114.972 29.8706 114.889 29.7859 114.826C29.6585 114.731 29.5404 114.623 29.4431 114.482C29.3459 114.341 29.287 114.193 29.2429 114.04C29.2141 113.939 29.1956 113.815 29.1726 113.665C29.1344 113.416 29.1242 113.363 29.1111 113.327C29.0512 113.165 28.9112 113.044 28.742 113.01C28.7048 113.002 28.6491 113 28.3982 113H27.6023C27.3497 113 27.2941 113.002 27.2566 113.01C27.0883 113.044 26.9486 113.164 26.8885 113.325C26.8751 113.361 26.864 113.415 26.825 113.666C26.8016 113.817 26.784 113.943 26.7547 114.044C26.7105 114.196 26.6511 114.342 26.5545 114.482C26.4578 114.622 26.3409 114.729 26.2146 114.824C26.172 114.856 26.1129 114.893 26.0408 114.935L25.7127 115.123C25.5238 115.235 25.3786 115.322 25.281 115.364C25.135 115.427 24.9825 115.476 24.8123 115.49C24.6421 115.504 24.4841 115.48 24.3299 115.442C24.228 115.417 24.1097 115.37 23.9685 115.315C23.7335 115.224 23.6808 115.207 23.6433 115.2C23.4734 115.171 23.2998 115.232 23.1853 115.361C23.1601 115.39 23.1309 115.435 23.0047 115.654L22.6053 116.345C22.4793 116.563 22.4552 116.611 22.4431 116.647C22.3885 116.811 22.4221 116.992 22.532 117.125C22.5563 117.154 22.5973 117.191 22.7937 117.349C22.9119 117.443 23.0121 117.522 23.0847 117.598C23.1948 117.712 23.2939 117.837 23.367 117.991C23.4401 118.146 23.4741 118.302 23.4929 118.46C23.5054 118.565 23.503 118.734 23.5008 118.953C23.5006 118.969 23.4998 118.984 23.4998 119L23.5008 119.044C23.5029 119.263 23.5056 119.432 23.4929 119.538C23.474 119.695 23.4398 119.851 23.367 120.005C23.2941 120.159 23.1954 120.283 23.0857 120.397C23.0127 120.473 22.9133 120.553 22.7947 120.648C22.597 120.807 22.5554 120.844 22.531 120.873C22.4217 121.006 22.388 121.186 22.4422 121.35C22.4543 121.386 22.4797 121.434 22.6062 121.653L23.0056 122.345C23.1303 122.561 23.1595 122.606 23.1844 122.635C23.2991 122.764 23.4736 122.825 23.6443 122.796C23.6814 122.789 23.733 122.772 23.9656 122.682C24.1058 122.627 24.2232 122.581 24.324 122.556C24.4789 122.517 24.6383 122.493 24.8094 122.507C24.98 122.521 25.1327 122.57 25.2791 122.633C25.3756 122.674 25.5213 122.762 25.7097 122.873C25.736 122.888 25.7633 122.905 25.7898 122.92C25.9802 123.027 26.128 123.109 26.2127 123.172C26.3403 123.267 26.459 123.375 26.5564 123.516C26.6538 123.656 26.7124 123.805 26.7566 123.958C26.7856 124.058 26.8039 124.183 26.8269 124.333C26.8651 124.581 26.8755 124.634 26.8885 124.67C26.9484 124.832 27.0892 124.953 27.2586 124.987C27.2956 124.995 27.3508 124.997 27.6004 124.997H27.6072C27.808 125.372 28.0479 125.705 28.3074 125.997H27.6004C27.3953 125.997 27.2182 125.999 27.0584 125.967C26.5499 125.863 26.1308 125.503 25.951 125.017C25.8944 124.863 25.8699 124.688 25.8387 124.485C25.8103 124.301 25.8022 124.258 25.7957 124.235C25.7695 124.145 25.7491 124.107 25.7342 124.085C25.7191 124.063 25.6897 124.03 25.614 123.974C25.612 123.972 25.6067 123.968 25.5984 123.963C25.5845 123.954 25.5638 123.942 25.5369 123.927C25.4816 123.894 25.4055 123.851 25.2986 123.791C25.266 123.773 25.2322 123.753 25.2 123.734C25.0943 123.672 25.0193 123.626 24.9637 123.595C24.9366 123.579 24.9156 123.568 24.9012 123.56C24.8925 123.556 24.8868 123.553 24.8846 123.552C24.7974 123.514 24.7535 123.506 24.7273 123.504C24.701 123.502 24.6567 123.503 24.5652 123.525C24.5423 123.531 24.4993 123.547 24.3279 123.614C24.1379 123.688 23.975 123.753 23.8152 123.781C23.3023 123.87 22.779 123.687 22.4344 123.297C22.327 123.175 22.2416 123.022 22.1394 122.845L21.74 122.154C21.6363 121.975 21.545 121.821 21.4929 121.665C21.33 121.175 21.4313 120.634 21.7605 120.235C21.8656 120.108 22.0063 119.999 22.1678 119.869C22.3127 119.752 22.3474 119.723 22.364 119.706C22.4291 119.638 22.4514 119.601 22.4627 119.577C22.4739 119.553 22.4885 119.512 22.4998 119.419C22.5 119.417 22.5003 119.41 22.5008 119.399C22.5014 119.383 22.5016 119.36 22.5017 119.328C22.5021 119.264 22.5019 119.176 22.5008 119.053C22.5006 119.035 22.4998 119.017 22.4998 119C22.4998 118.981 22.5006 118.961 22.5008 118.942C22.502 118.82 22.502 118.733 22.5017 118.669C22.5016 118.637 22.5014 118.614 22.5008 118.598C22.5003 118.586 22.4998 118.578 22.4998 118.578C22.4887 118.485 22.4749 118.444 22.4637 118.42C22.4523 118.396 22.4291 118.359 22.364 118.291C22.3476 118.274 22.3127 118.244 22.1678 118.128C22.0074 117.999 21.868 117.89 21.7635 117.765C21.4322 117.366 21.3298 116.823 21.4939 116.331C21.5458 116.176 21.6371 116.024 21.74 115.846L22.1385 115.154C22.2416 114.975 22.3285 114.821 22.4373 114.698C22.781 114.311 23.3007 114.128 23.8113 114.215C23.9729 114.242 24.1377 114.309 24.3299 114.384C24.5026 114.451 24.546 114.466 24.5691 114.472C24.6601 114.494 24.7039 114.495 24.7303 114.493C24.7565 114.491 24.7999 114.482 24.8865 114.445C24.8888 114.444 24.8951 114.441 24.9041 114.436C24.9186 114.429 24.9396 114.418 24.9666 114.402C25.0224 114.37 25.0979 114.325 25.2039 114.263C25.234 114.245 25.2652 114.227 25.2957 114.21C25.4036 114.149 25.4801 114.105 25.5359 114.072C25.5631 114.056 25.5834 114.044 25.5974 114.035C25.6068 114.029 25.6124 114.025 25.614 114.024C25.6895 113.968 25.7175 113.935 25.7322 113.914C25.7469 113.893 25.7674 113.855 25.7937 113.765C25.8003 113.742 25.8089 113.698 25.8377 113.513C25.8695 113.308 25.8934 113.131 25.951 112.976C26.1313 112.492 26.5494 112.134 27.0554 112.03C27.2168 111.997 27.3953 112 27.6023 112H28.3982Z" fill="currentColor"/>
  <path d="M27.9998 116C29.1517 116 30.1506 116.651 30.6531 117.603C30.6294 117.618 30.6063 117.633 30.5847 117.646C30.347 117.795 30.0686 117.953 29.781 118.094C29.4504 117.445 28.7775 117 27.9998 117C26.8956 117 25.9999 117.896 25.9998 119C25.9998 119.74 26.4035 120.386 27.0017 120.731C27.0004 120.827 27.0008 120.919 27.0008 121V121.825C25.836 121.413 24.9998 120.306 24.9998 119C24.9999 117.343 26.3433 116 27.9998 116Z" fill="currentColor"/>
</svg>
