<svg xmlns="http://www.w3.org/2000/svg" width="16" height="16" viewBox="20.16 111.0 17.0 17.0" fill="none">
  <path d="M33.4996 122C33.7757 122 33.9995 122.224 33.9996 122.5C33.9996 122.776 33.7757 123 33.4996 123H29.4996C29.2236 123 28.9996 122.776 28.9996 122.5C28.9996 122.224 29.2236 122 29.4996 122H33.4996Z" fill="currentColor"/>
  <path d="M31.4996 118C33.9848 118 35.9995 120.015 35.9996 122.5C35.9996 124.985 33.9848 127 31.4996 127C29.0145 127 26.9996 124.985 26.9996 122.5C26.9996 120.015 29.0145 118 31.4996 118ZM31.4996 119C29.5668 119 27.9996 120.567 27.9996 122.5C27.9996 124.433 29.5668 126 31.4996 126C33.4326 126 34.9996 124.433 34.9996 122.5C34.9995 120.567 33.4326 119 31.4996 119Z" fill="currentColor"/>
  <path d="M28.5425 112.001C28.6884 112.002 28.8195 112.006 28.941 112.03C29.1588 112.075 29.3585 112.169 29.5318 112.297C29.6114 112.356 29.6869 112.42 29.7535 112.493C29.8806 112.633 29.9819 112.799 30.0494 112.981C30.0776 113.058 30.0979 113.14 30.1148 113.229C30.1317 113.317 30.1451 113.411 30.1607 113.513C30.1889 113.696 30.1972 113.74 30.2037 113.763C30.23 113.854 30.2504 113.892 30.2652 113.913C30.28 113.935 30.3078 113.967 30.3843 114.024C30.3843 114.024 30.3913 114.029 30.4009 114.035C30.4149 114.044 30.4343 114.056 30.4615 114.072C30.517 114.105 30.5933 114.147 30.7007 114.208C30.7118 114.214 30.7228 114.221 30.7339 114.228C30.7542 114.239 30.7745 114.251 30.7945 114.263C30.9011 114.326 30.9767 114.37 31.0328 114.402C31.0602 114.418 31.0806 114.43 31.0953 114.438C31.1046 114.442 31.1106 114.445 31.1128 114.446C31.1993 114.483 31.242 114.491 31.2681 114.493C31.2941 114.495 31.3373 114.494 31.4293 114.472C31.4523 114.466 31.4943 114.451 31.6695 114.383C31.8625 114.308 32.0277 114.241 32.19 114.214C32.4317 114.173 32.6749 114.194 32.9009 114.268C33.1516 114.348 33.3814 114.493 33.5621 114.696C33.6719 114.82 33.7589 114.975 33.8628 115.155L34.2603 115.843C34.3634 116.021 34.4535 116.174 34.5054 116.329C34.5876 116.575 34.6035 116.834 34.5572 117.081C34.5167 117.298 34.4253 117.503 34.2925 117.686C34.2794 117.704 34.2657 117.721 34.2525 117.739C33.9427 117.56 33.6143 117.409 33.2701 117.292C33.4105 117.179 33.4451 117.15 33.4664 117.124C33.5773 116.991 33.6112 116.81 33.5562 116.646C33.5441 116.61 33.5198 116.562 33.3941 116.344L32.9957 115.655C32.8686 115.435 32.8394 115.389 32.814 115.36C32.6995 115.232 32.5267 115.171 32.357 115.2C32.342 115.203 32.3248 115.208 32.2945 115.218C32.2486 115.233 32.1726 115.26 32.0308 115.315C31.8889 115.371 31.7708 115.418 31.6685 115.443C31.5526 115.472 31.4347 115.491 31.3111 115.493C31.2701 115.494 31.2285 115.494 31.1861 115.49C31.0162 115.476 30.8651 115.428 30.7193 115.365C30.673 115.345 30.6164 115.315 30.5494 115.277C30.4742 115.235 30.3859 115.183 30.2857 115.124C30.2607 115.109 30.2349 115.094 30.2095 115.08C30.0182 114.972 29.8703 114.889 29.7857 114.826C29.6839 114.75 29.5894 114.665 29.5054 114.563C29.484 114.536 29.4618 114.51 29.4419 114.481C29.3447 114.34 29.2858 114.192 29.2418 114.039C29.2129 113.939 29.1954 113.814 29.1724 113.664C29.1342 113.415 29.124 113.363 29.1109 113.327C29.1034 113.307 29.0944 113.287 29.0845 113.269C29.069 113.239 29.0506 113.211 29.0298 113.186C28.9919 113.139 28.9461 113.099 28.8941 113.068C28.8472 113.041 28.7955 113.021 28.7408 113.01C28.7222 113.006 28.6994 113.004 28.65 113.002C28.6001 113 28.5235 113 28.398 113H27.6021C27.3485 113 27.2939 113.002 27.2564 113.01C27.2355 113.014 27.2148 113.02 27.1949 113.026C27.0541 113.075 26.9409 113.185 26.8882 113.326C26.875 113.362 26.8644 113.415 26.8257 113.665C26.8079 113.781 26.7904 113.881 26.771 113.968C26.7652 113.994 26.7614 114.02 26.7544 114.044C26.731 114.125 26.7029 114.204 26.6675 114.281C26.6367 114.35 26.6004 114.417 26.5552 114.482C26.531 114.518 26.5056 114.551 26.4791 114.582C26.4525 114.613 26.4246 114.643 26.396 114.671C26.3389 114.727 26.2778 114.778 26.2144 114.825C26.1719 114.857 26.1132 114.893 26.0416 114.936L25.7134 115.123C25.5239 115.235 25.3785 115.322 25.2808 115.364C25.2079 115.396 25.1335 115.423 25.0562 115.445C24.9788 115.467 24.8983 115.483 24.813 115.49C24.7703 115.494 24.7283 115.495 24.6871 115.494C24.5635 115.492 24.4456 115.471 24.3296 115.442C24.2277 115.417 24.1097 115.37 23.9683 115.315C23.7324 115.224 23.6807 115.207 23.6431 115.2C23.622 115.197 23.6007 115.194 23.5796 115.193C23.4312 115.188 23.2862 115.249 23.1861 115.361C23.1734 115.376 23.1598 115.394 23.1334 115.437C23.1072 115.479 23.0677 115.545 23.0044 115.654L22.606 116.346C22.4809 116.563 22.456 116.611 22.4439 116.647C22.3889 116.811 22.423 116.993 22.5337 117.126C22.558 117.155 22.599 117.191 22.7945 117.348C22.9121 117.442 23.0111 117.52 23.0835 117.595C23.1943 117.71 23.2934 117.835 23.3668 117.99C23.3884 118.036 23.406 118.082 23.4214 118.128C23.4583 118.238 23.4794 118.348 23.4927 118.46C23.5052 118.565 23.5028 118.734 23.5005 118.953C23.5004 118.969 23.4996 118.984 23.4996 119L23.5005 119.044C23.5027 119.263 23.5053 119.432 23.4927 119.538C23.4738 119.696 23.4396 119.851 23.3668 120.005C23.2939 120.159 23.1952 120.283 23.0855 120.397C23.0124 120.474 22.9132 120.553 22.7945 120.648C22.5963 120.808 22.5552 120.844 22.5308 120.873C22.4214 121.006 22.3878 121.186 22.4419 121.35C22.4541 121.386 22.4794 121.434 22.606 121.653L23.0054 122.345C23.128 122.557 23.1586 122.604 23.1832 122.633C23.2012 122.653 23.2211 122.673 23.2418 122.689C23.2637 122.708 23.2876 122.722 23.3121 122.736C23.3301 122.747 23.3486 122.756 23.3677 122.764C23.4539 122.799 23.5492 122.812 23.6441 122.796C23.6687 122.792 23.699 122.782 23.7847 122.75C23.8282 122.734 23.8861 122.712 23.9644 122.682C24.105 122.627 24.2219 122.58 24.3228 122.555C24.4781 122.516 24.6366 122.492 24.8082 122.506C24.894 122.513 24.9752 122.529 25.0533 122.551C25.0923 122.562 25.1308 122.574 25.1685 122.588C25.2061 122.602 25.2431 122.617 25.2798 122.633C25.3247 122.652 25.3797 122.682 25.4449 122.719C25.5201 122.761 25.6087 122.813 25.7095 122.873C25.7198 122.879 25.7303 122.885 25.7408 122.892C25.7564 122.9 25.7721 122.909 25.7877 122.918C25.8781 122.969 25.9588 123.014 26.0279 123.055C26.1389 124.163 26.5785 125.175 27.2486 125.99C27.1816 125.986 27.1177 125.979 27.0562 125.967C26.5487 125.863 26.1309 125.504 25.9507 125.019C25.8937 124.865 25.869 124.689 25.8375 124.485C25.809 124.301 25.801 124.257 25.7945 124.234C25.7681 124.143 25.7469 124.106 25.732 124.084C25.7245 124.073 25.7138 124.06 25.6959 124.042C25.6773 124.024 25.6513 124.002 25.6138 123.974C25.6118 123.972 25.6068 123.968 25.5982 123.963C25.5842 123.954 25.5638 123.943 25.5367 123.927C25.4813 123.894 25.4055 123.851 25.2984 123.791C25.2657 123.773 25.2321 123.754 25.1998 123.734C25.0939 123.672 25.0191 123.627 24.9634 123.595C24.9362 123.579 24.9155 123.568 24.9009 123.561C24.8918 123.556 24.8864 123.553 24.8843 123.552C24.7967 123.514 24.7533 123.506 24.7271 123.504C24.7141 123.503 24.6966 123.501 24.6714 123.504C24.6458 123.507 24.6117 123.514 24.565 123.525C24.5421 123.531 24.4998 123.547 24.3277 123.614C24.2327 123.651 24.1444 123.686 24.0601 123.715C23.9761 123.744 23.8957 123.767 23.816 123.781C23.7516 123.792 23.6869 123.798 23.6226 123.801C23.174 123.82 22.7357 123.638 22.4341 123.297C22.42 123.281 22.4076 123.263 22.3941 123.246C22.305 123.133 22.2271 122.999 22.1382 122.845L21.7398 122.154C21.6361 121.975 21.5448 121.822 21.4927 121.665C21.4724 121.604 21.4561 121.542 21.4439 121.48C21.3951 121.229 21.4112 120.973 21.4878 120.733C21.5453 120.554 21.6369 120.385 21.7603 120.235C21.8654 120.108 22.0059 119.999 22.1675 119.869C22.3129 119.752 22.3472 119.723 22.3638 119.706C22.4291 119.638 22.4512 119.601 22.4625 119.577C22.4737 119.553 22.4883 119.513 22.4996 119.419C22.4997 119.417 22.5001 119.41 22.5005 119.399C22.5012 119.383 22.5013 119.36 22.5015 119.328C22.5019 119.264 22.5008 119.176 22.4996 119.053V118.941C22.5009 118.819 22.5018 118.732 22.5015 118.668C22.5014 118.637 22.5011 118.613 22.5005 118.597C22.5001 118.585 22.4996 118.577 22.4996 118.577C22.4884 118.483 22.4738 118.442 22.4625 118.418C22.4569 118.406 22.4485 118.392 22.4341 118.372C22.4188 118.351 22.3965 118.325 22.3638 118.291C22.3474 118.274 22.313 118.245 22.1675 118.128C22.0071 117.999 21.8678 117.89 21.7632 117.765C21.4319 117.366 21.3296 116.823 21.4937 116.331C21.5456 116.176 21.6368 116.024 21.7398 115.846L22.1382 115.154C22.2415 114.975 22.3282 114.821 22.4371 114.698C22.696 114.406 23.0547 114.23 23.4341 114.198C23.5588 114.188 23.6858 114.193 23.8121 114.215C23.974 114.243 24.138 114.309 24.3306 114.384C24.5052 114.452 24.5469 114.466 24.5699 114.472C24.6609 114.494 24.7037 114.494 24.73 114.492C24.7563 114.49 24.7992 114.483 24.8863 114.445C24.8884 114.444 24.8944 114.442 24.9039 114.437C24.9185 114.429 24.9391 114.418 24.9664 114.402C25.0223 114.37 25.0974 114.326 25.2037 114.263C25.2339 114.245 25.2648 114.227 25.2955 114.21C25.4036 114.149 25.4798 114.105 25.5357 114.072C25.5631 114.056 25.5831 114.044 25.5972 114.035C25.607 114.029 25.6138 114.024 25.6138 114.024C25.6895 113.968 25.7172 113.935 25.732 113.914C25.7467 113.893 25.7671 113.856 25.7935 113.765C25.8001 113.742 25.8087 113.698 25.8375 113.513C25.8692 113.308 25.8932 113.131 25.9507 112.977C26.1311 112.492 26.5491 112.134 27.0552 112.03C27.1358 112.014 27.2207 112.006 27.3111 112.003C27.4015 111.999 27.4976 112 27.6011 112H28.399L28.5425 112.001Z" fill="currentColor"/>
  <path d="M27.9996 116C28.9454 116 29.7876 116.439 30.3375 117.123C29.9708 117.202 29.6183 117.319 29.2828 117.467C28.9354 117.176 28.4881 117 27.9996 117C26.8953 117 25.9997 117.896 25.9996 119C25.9996 119.489 26.1753 119.936 26.4664 120.283C26.3183 120.619 26.2025 120.972 26.1236 121.339C25.4389 120.789 24.9996 119.946 24.9996 119C24.9997 117.343 26.343 116 27.9996 116Z" fill="currentColor"/>
</svg>
