<svg xmlns="http://www.w3.org/2000/svg" width="16" height="16" viewBox="20.0 111.0 16.0 16.0" fill="none">
  <path d="M27.9996 116C29.6565 116 30.9996 117.343 30.9996 119C30.9996 120.657 29.6565 122 27.9996 122C26.3429 122 24.9996 120.657 24.9996 119C24.9996 117.343 26.343 116 27.9996 116ZM27.9996 117C26.8952 117 25.9996 117.896 25.9996 119C25.9996 120.104 26.8952 121 27.9996 121C29.1042 121 29.9996 120.104 29.9996 119C29.9996 117.895 29.1042 117 27.9996 117Z" fill="currentColor"/>
  <path d="M28.399 112C28.6044 112 28.7801 111.998 28.94 112.03C29.4495 112.134 29.8697 112.494 30.0494 112.981C30.1058 113.135 30.1296 113.31 30.1608 113.513C30.189 113.696 30.1973 113.74 30.2037 113.763C30.23 113.854 30.2505 113.892 30.2652 113.913C30.2801 113.934 30.3078 113.967 30.3844 114.024C30.3844 114.024 30.3912 114.029 30.401 114.035C30.415 114.044 30.4343 114.056 30.4615 114.072C30.5171 114.105 30.5933 114.147 30.7008 114.208C30.7321 114.226 30.7637 114.244 30.7945 114.263C30.9013 114.326 30.9767 114.37 31.0328 114.402C31.0605 114.418 31.0806 114.43 31.0953 114.437C31.1056 114.443 31.1129 114.446 31.1129 114.446C31.1998 114.483 31.2419 114.491 31.2682 114.493C31.2944 114.495 31.3373 114.494 31.4293 114.472C31.4525 114.466 31.4943 114.451 31.6695 114.383C31.8633 114.307 32.029 114.241 32.192 114.214C32.7013 114.128 33.2189 114.31 33.5621 114.696C33.6719 114.82 33.7589 114.975 33.8629 115.155L34.2604 115.843C34.3635 116.021 34.4535 116.174 34.5055 116.329C34.67 116.822 34.5681 117.364 34.2359 117.764C34.1311 117.89 33.9916 117.998 33.8307 118.127C33.6855 118.243 33.6528 118.272 33.6363 118.289C33.5707 118.357 33.5472 118.394 33.5358 118.418C33.5244 118.442 33.5107 118.483 33.4996 118.577C33.4995 118.579 33.4991 118.586 33.4986 118.597C33.498 118.613 33.4978 118.636 33.4977 118.668C33.4974 118.732 33.4983 118.819 33.4996 118.942V119.054C33.4984 119.177 33.4973 119.265 33.4977 119.329C33.4978 119.361 33.498 119.384 33.4986 119.4C33.4991 119.412 33.4995 119.418 33.4996 119.42C33.5108 119.514 33.5254 119.554 33.5367 119.578C33.5481 119.602 33.57 119.639 33.6354 119.707C33.6518 119.724 33.6857 119.752 33.8316 119.869C33.9931 119.999 34.1328 120.108 34.2379 120.234C34.5686 120.633 34.67 121.174 34.5065 121.666C34.4544 121.822 34.3639 121.975 34.2604 122.154L33.8619 122.844C33.7592 123.022 33.6732 123.175 33.565 123.298C33.2209 123.687 32.6998 123.87 32.1881 123.782C32.0269 123.754 31.8632 123.689 31.6715 123.614C31.4978 123.547 31.4562 123.531 31.4332 123.525C31.3405 123.502 31.2972 123.502 31.2711 123.504C31.245 123.506 31.2033 123.514 31.1158 123.552C31.1158 123.552 31.1089 123.555 31.0983 123.56C31.0836 123.568 31.0632 123.579 31.0358 123.595C30.9798 123.627 30.9041 123.671 30.7975 123.734C30.7651 123.753 30.7326 123.772 30.6998 123.791C30.5928 123.851 30.5168 123.893 30.4615 123.926C30.4343 123.942 30.4149 123.954 30.401 123.963C30.3918 123.969 30.3863 123.971 30.3844 123.973C30.3079 124.03 30.2794 124.063 30.2643 124.085C30.2492 124.107 30.229 124.145 30.2027 124.236C30.1963 124.259 30.1889 124.301 30.1608 124.485C30.1298 124.687 30.1053 124.861 30.0494 125.014C29.87 125.503 29.4489 125.864 28.9381 125.968C28.779 126 28.6042 125.997 28.4 125.997H27.6012C27.3944 125.997 27.2173 126 27.0563 125.967C26.5487 125.863 26.1309 125.504 25.9508 125.018C25.8937 124.865 25.869 124.689 25.8375 124.485C25.809 124.301 25.8011 124.257 25.7945 124.234C25.7681 124.143 25.747 124.106 25.732 124.084C25.7171 124.062 25.6897 124.029 25.6139 123.973C25.6139 123.973 25.6071 123.968 25.5973 123.962C25.5832 123.953 25.5632 123.942 25.5358 123.926C25.4801 123.893 25.4042 123.85 25.2965 123.789C25.2642 123.771 25.2317 123.752 25.1998 123.733C25.0939 123.671 25.0192 123.626 24.9635 123.595C24.936 123.579 24.9156 123.567 24.901 123.56C24.8891 123.553 24.8834 123.551 24.8834 123.551C24.7957 123.513 24.7534 123.505 24.7272 123.503C24.7009 123.501 24.6579 123.502 24.565 123.525C24.5424 123.531 24.5013 123.546 24.3277 123.613C24.1376 123.687 23.9758 123.753 23.816 123.781C23.3023 123.871 22.7782 123.687 22.4332 123.296C22.3259 123.174 22.2404 123.021 22.1383 122.845L21.7399 122.154C21.6361 121.975 21.5449 121.821 21.4928 121.665C21.3298 121.174 21.431 120.634 21.7604 120.235C21.8655 120.108 22.0059 119.999 22.1676 119.869C22.3138 119.752 22.3474 119.723 22.3639 119.706C22.4292 119.638 22.4512 119.601 22.4625 119.577C22.4738 119.553 22.4884 119.512 22.4996 119.419C22.4998 119.416 22.5002 119.41 22.5006 119.399C22.5012 119.383 22.5014 119.36 22.5016 119.328C22.5019 119.264 22.5008 119.176 22.4996 119.053V118.941C22.5009 118.819 22.5018 118.732 22.5016 118.668C22.5014 118.636 22.5012 118.613 22.5006 118.597C22.5001 118.585 22.4996 118.577 22.4996 118.577C22.4885 118.483 22.4739 118.442 22.4625 118.418C22.451 118.394 22.4283 118.357 22.3629 118.289C22.3465 118.272 22.3131 118.244 22.1686 118.128C22.0085 117.999 21.8697 117.891 21.7652 117.766C21.4326 117.366 21.3307 116.822 21.4957 116.329C21.5476 116.174 21.6373 116.023 21.7399 115.846L22.1383 115.154C22.2415 114.975 22.3283 114.821 22.4371 114.698C22.781 114.31 23.3012 114.128 23.8121 114.215C23.9741 114.242 24.138 114.309 24.3307 114.384C24.5056 114.452 24.5469 114.466 24.5699 114.472C24.6621 114.494 24.7048 114.495 24.7311 114.493C24.7573 114.491 24.7991 114.483 24.8863 114.445C24.8863 114.445 24.8935 114.442 24.9039 114.436C24.9185 114.429 24.939 114.418 24.9664 114.402C25.0224 114.37 25.0982 114.326 25.2047 114.263C25.2349 114.245 25.2659 114.227 25.2965 114.21C25.4044 114.149 25.48 114.105 25.5358 114.072C25.563 114.056 25.5832 114.045 25.5973 114.036C25.6066 114.03 25.6121 114.027 25.6139 114.025C25.69 113.968 25.7182 113.935 25.733 113.914C25.7477 113.893 25.7683 113.855 25.7945 113.765C25.8011 113.742 25.8089 113.698 25.8375 113.513C25.8691 113.308 25.8936 113.133 25.9508 112.978C26.131 112.493 26.5491 112.134 27.0563 112.03C27.2173 111.997 27.3944 112 27.6012 112H28.399ZM27.6012 113C27.3475 113 27.2938 113.002 27.2565 113.01C27.0875 113.044 26.9484 113.164 26.8883 113.326C26.875 113.362 26.8645 113.415 26.8258 113.665C26.8026 113.815 26.7837 113.941 26.7545 114.042C26.7104 114.194 26.6521 114.342 26.5553 114.482C26.4583 114.623 26.3412 114.73 26.2145 114.825C26.172 114.857 26.1133 114.893 26.0416 114.935L25.7135 115.123C25.524 115.235 25.3785 115.322 25.2809 115.364C25.1347 115.427 24.9835 115.476 24.8131 115.49C24.6427 115.504 24.4851 115.48 24.3307 115.442C24.2285 115.417 24.1102 115.37 23.9684 115.315C23.7325 115.224 23.6817 115.207 23.6441 115.2C23.474 115.171 23.3008 115.232 23.1861 115.361C23.1609 115.39 23.1312 115.435 23.0045 115.654L22.6061 116.346C22.4809 116.562 22.4561 116.611 22.444 116.646C22.389 116.811 22.423 116.993 22.5338 117.126C22.5581 117.155 22.599 117.191 22.7945 117.348C22.9122 117.442 23.0111 117.519 23.0836 117.595C23.1944 117.71 23.2934 117.835 23.3668 117.99C23.4401 118.145 23.4741 118.301 23.4928 118.46C23.5051 118.565 23.502 118.734 23.4996 118.952V119.044C23.5017 119.263 23.5044 119.432 23.4918 119.538C23.4729 119.695 23.4396 119.851 23.3668 120.005C23.294 120.159 23.1952 120.283 23.0856 120.397C23.0125 120.474 22.9132 120.553 22.7945 120.648C22.5963 120.808 22.5553 120.844 22.5309 120.873C22.4212 121.006 22.3878 121.186 22.442 121.35C22.4541 121.386 22.4794 121.434 22.6061 121.653L23.0045 122.345C23.1291 122.56 23.1584 122.605 23.1832 122.634C23.2982 122.764 23.4729 122.826 23.6441 122.796C23.6812 122.789 23.7313 122.772 23.9645 122.682C24.1051 122.627 24.2219 122.58 24.3229 122.555C24.4782 122.516 24.6367 122.492 24.8082 122.506C24.9799 122.52 25.1328 122.569 25.2799 122.633C25.3763 122.674 25.5201 122.761 25.7086 122.873C25.7346 122.888 25.7614 122.903 25.7877 122.918C25.9791 123.026 26.1274 123.108 26.2125 123.172C26.3397 123.267 26.4581 123.374 26.5553 123.515C26.6524 123.655 26.7103 123.803 26.7545 123.956C26.7837 124.057 26.8026 124.182 26.8258 124.332C26.8644 124.582 26.8751 124.635 26.8883 124.671C26.9483 124.833 27.0874 124.953 27.2565 124.987C27.2938 124.995 27.3475 124.997 27.6012 124.997H28.4C28.6499 124.997 28.703 124.995 28.7399 124.987C28.9101 124.953 29.0502 124.832 29.11 124.669C29.1229 124.634 29.1336 124.581 29.1715 124.334C29.1943 124.185 29.2122 124.061 29.2408 123.961C29.285 123.807 29.3442 123.657 29.442 123.516C29.5398 123.374 29.6584 123.266 29.7867 123.171C29.8711 123.108 30.0182 123.027 30.2086 122.92C30.2355 122.905 30.2622 122.889 30.2887 122.873C30.4785 122.761 30.6241 122.674 30.7213 122.633C30.8677 122.57 31.0193 122.521 31.19 122.507C31.3608 122.493 31.5188 122.516 31.6734 122.555C31.7751 122.58 31.8924 122.627 32.0338 122.682C32.2692 122.773 32.3196 122.79 32.357 122.797C32.5275 122.826 32.7013 122.765 32.816 122.636C32.8411 122.607 32.8698 122.562 32.9957 122.344L33.3941 121.654C33.5209 121.435 33.5461 121.387 33.5582 121.351C33.6127 121.187 33.5785 121.006 33.4684 120.873C33.444 120.844 33.4034 120.808 33.2057 120.649C33.0874 120.554 32.9877 120.476 32.9147 120.4C32.8044 120.286 32.7056 120.16 32.6324 120.006C32.5595 119.852 32.5253 119.696 32.5065 119.538C32.4939 119.432 32.4974 119.263 32.4996 119.044V118.953C32.4972 118.734 32.4941 118.565 32.5065 118.46C32.5252 118.301 32.5592 118.145 32.6324 117.99C32.7058 117.835 32.8049 117.71 32.9156 117.595C32.9885 117.519 33.0878 117.441 33.2057 117.347C33.403 117.189 33.4431 117.153 33.4674 117.124C33.578 116.991 33.6121 116.81 33.5572 116.645C33.5451 116.609 33.52 116.561 33.3941 116.343L32.9967 115.655C32.8693 115.435 32.8405 115.389 32.815 115.36C32.7006 115.232 32.5277 115.171 32.358 115.199C32.3202 115.206 32.2688 115.223 32.0309 115.315C31.8885 115.371 31.7704 115.418 31.6676 115.443C31.5134 115.481 31.3562 115.504 31.1861 115.49C31.0162 115.476 30.8652 115.428 30.7193 115.365C30.621 115.323 30.475 115.236 30.2848 115.123C30.2596 115.108 30.2341 115.093 30.2086 115.079C30.017 114.971 29.8692 114.888 29.7848 114.825C29.6573 114.73 29.5393 114.622 29.442 114.481C29.3447 114.34 29.2858 114.192 29.2418 114.039C29.213 113.939 29.1954 113.814 29.1725 113.664C29.1343 113.415 29.124 113.363 29.1109 113.327C29.051 113.165 28.9106 113.044 28.7408 113.01C28.7037 113.002 28.6505 113 28.399 113H27.6012Z" fill="currentColor"/>
</svg>
