<svg xmlns="http://www.w3.org/2000/svg" width="16" height="16" viewBox="20.16 111.0 16.0 16.0" fill="none">
  <path d="M28.6872 112.003C28.7768 112.006 28.8611 112.014 28.9411 112.03C29.4501 112.134 29.8698 112.494 30.0495 112.982C30.106 113.135 30.1297 113.31 30.1608 113.513C30.1892 113.697 30.1973 113.741 30.2038 113.764C30.23 113.855 30.2504 113.892 30.2653 113.914C30.2802 113.936 30.3085 113.969 30.3845 114.025C30.3845 114.025 30.3897 114.029 30.4011 114.036C30.4151 114.045 30.4353 114.057 30.4626 114.073C30.5181 114.106 30.5945 114.148 30.7019 114.209C30.7329 114.227 30.764 114.245 30.7946 114.263C30.9013 114.326 30.9768 114.37 31.0329 114.402C31.0604 114.418 31.0807 114.43 31.0954 114.438C31.1049 114.443 31.1108 114.445 31.113 114.446C31.1995 114.483 31.2421 114.491 31.2683 114.493C31.2943 114.495 31.3375 114.494 31.4294 114.472C31.4524 114.466 31.4944 114.451 31.6696 114.383C31.8627 114.308 32.0278 114.242 32.1901 114.214C32.7001 114.128 33.2187 114.311 33.5622 114.697C33.6716 114.821 33.7584 114.976 33.862 115.155L34.2605 115.844C34.3632 116.022 34.4527 116.173 34.5046 116.328C34.6697 116.821 34.568 117.365 34.2351 117.765C34.1305 117.89 33.9911 117.999 33.8308 118.127C33.6861 118.243 33.6528 118.271 33.6364 118.288C33.5709 118.356 33.5483 118.393 33.5368 118.417C33.5254 118.441 33.5108 118.482 33.4997 118.576C33.4997 118.576 33.4992 118.584 33.4987 118.596C33.4981 118.612 33.4979 118.635 33.4978 118.667C33.4975 118.731 33.4983 118.818 33.4997 118.94V119.055C33.4985 119.178 33.4974 119.265 33.4978 119.329C33.4979 119.361 33.4981 119.384 33.4987 119.4C33.4992 119.412 33.5007 119.42 33.5007 119.42C33.5118 119.513 33.5255 119.554 33.5368 119.578C33.5482 119.602 33.571 119.639 33.6364 119.707C33.6529 119.724 33.6863 119.752 33.8317 119.869C33.9931 119.999 34.133 120.108 34.238 120.234C34.2527 120.252 34.2662 120.271 34.28 120.289C33.8915 120.105 33.458 120 32.9997 120C32.8784 120 32.7588 120.008 32.6413 120.022C32.6388 120.016 32.636 120.011 32.6335 120.006C32.5605 119.852 32.5264 119.696 32.5075 119.538C32.495 119.432 32.4975 119.264 32.4997 119.044V118.952C32.4973 118.733 32.4943 118.565 32.5065 118.46C32.5252 118.301 32.5591 118.145 32.6325 117.989C32.706 117.834 32.8057 117.709 32.9167 117.594C32.9894 117.519 33.0882 117.44 33.2058 117.346C33.402 117.189 33.4423 117.153 33.4665 117.124C33.5774 116.991 33.6114 116.81 33.5564 116.646C33.5443 116.61 33.5201 116.562 33.3942 116.344L32.9958 115.655C32.8686 115.435 32.8395 115.389 32.8142 115.36C32.6997 115.232 32.5269 115.171 32.3571 115.2C32.3195 115.207 32.2673 115.224 32.031 115.315C31.889 115.371 31.771 115.418 31.6687 115.443C31.5146 115.481 31.3572 115.504 31.1872 115.49C31.0173 115.476 30.8662 115.428 30.7204 115.365C30.6225 115.323 30.476 115.236 30.2858 115.124C30.2608 115.109 30.235 115.094 30.2097 115.08C30.0183 114.972 29.8705 114.89 29.7858 114.826C29.6583 114.731 29.5404 114.623 29.4431 114.482C29.3458 114.342 29.287 114.193 29.2429 114.04C29.214 113.94 29.1955 113.815 29.1726 113.665C29.1343 113.416 29.1241 113.363 29.111 113.327C29.0511 113.165 28.9114 113.044 28.7419 113.01C28.7234 113.006 28.7001 113.004 28.6511 113.002L28.3982 113H27.6023C27.3486 113 27.294 113.002 27.2566 113.01C27.088 113.045 26.9485 113.164 26.8884 113.325C26.875 113.361 26.8639 113.415 26.8249 113.666C26.8016 113.817 26.784 113.943 26.7546 114.044C26.7104 114.196 26.6511 114.343 26.5544 114.482C26.4577 114.622 26.341 114.729 26.2146 114.824C26.1293 114.888 25.9803 114.971 25.7878 115.08C25.7628 115.094 25.7373 115.108 25.7126 115.123C25.5234 115.235 25.3786 115.322 25.281 115.364C25.1348 115.427 24.9826 115.476 24.8122 115.49C24.6418 115.504 24.4842 115.481 24.3298 115.442C24.2278 115.417 24.1099 115.37 23.9685 115.315C23.7324 115.224 23.6808 115.207 23.6433 115.2C23.4731 115.171 23.2998 115.232 23.1853 115.361C23.16 115.39 23.131 115.435 23.0046 115.654L22.6052 116.345C22.4791 116.563 22.4551 116.612 22.4431 116.648C22.3884 116.811 22.4219 116.992 22.5319 117.125C22.5562 117.154 22.5966 117.191 22.7937 117.349C22.912 117.444 23.012 117.522 23.0847 117.598C23.1949 117.712 23.2937 117.837 23.3669 117.991C23.4401 118.146 23.4741 118.302 23.4929 118.46C23.5054 118.565 23.5029 118.734 23.5007 118.953C23.5005 118.969 23.4997 118.984 23.4997 119L23.5007 119.044C23.5028 119.263 23.5055 119.432 23.4929 119.538C23.474 119.696 23.4398 119.851 23.3669 120.005C23.294 120.159 23.1954 120.283 23.0857 120.398C23.0126 120.474 22.9133 120.553 22.7946 120.648C22.5964 120.808 22.5554 120.844 22.531 120.873C22.4215 121.006 22.3879 121.186 22.4421 121.35C22.4542 121.386 22.4795 121.434 22.6062 121.653L23.0056 122.345C23.1306 122.561 23.1594 122.607 23.1843 122.635C23.2991 122.765 23.4734 122.825 23.6442 122.796C23.6814 122.79 23.732 122.773 23.9655 122.682C24.106 122.627 24.223 122.581 24.3239 122.556C24.479 122.517 24.638 122.493 24.8093 122.507C24.9802 122.521 25.1325 122.57 25.279 122.633C25.3756 122.674 25.5209 122.761 25.7097 122.873C25.7361 122.889 25.763 122.905 25.7898 122.92C25.9804 123.027 26.1279 123.109 26.2126 123.172C26.3403 123.267 26.4589 123.375 26.5564 123.516C26.6538 123.657 26.7123 123.805 26.7566 123.958C26.7855 124.059 26.8038 124.184 26.8269 124.333C26.8651 124.581 26.8754 124.634 26.8884 124.67C26.9483 124.832 27.089 124.953 27.2585 124.987C27.2956 124.995 27.3497 124.997 27.6003 124.997H28.4001C28.6501 124.997 28.704 124.995 28.7409 124.987C28.911 124.953 29.0513 124.832 29.111 124.669C29.124 124.634 29.1347 124.581 29.1726 124.334C29.1954 124.185 29.2132 124.061 29.2419 123.961C29.286 123.807 29.3443 123.657 29.4421 123.516C29.5398 123.374 29.6586 123.267 29.7868 123.171C29.8369 123.134 29.9093 123.09 29.9997 123.038C30.0046 123.433 30.0865 123.81 30.2302 124.154C30.2219 124.176 30.2127 124.202 30.2028 124.236C30.1964 124.259 30.1889 124.302 30.1608 124.485C30.1299 124.688 30.1054 124.861 30.0495 125.014C29.8701 125.503 29.4498 125.864 28.9392 125.968C28.78 126 28.6044 125.997 28.4001 125.997H27.6003C27.3949 125.997 27.2183 125.999 27.0583 125.967C26.5497 125.863 26.1307 125.504 25.9509 125.017C25.8943 124.863 25.8699 124.689 25.8386 124.485C25.8101 124.301 25.8021 124.258 25.7956 124.235C25.7694 124.145 25.7491 124.107 25.7341 124.085C25.719 124.063 25.6901 124.031 25.614 123.974C25.612 123.972 25.6072 123.968 25.5983 123.963C25.5844 123.954 25.564 123.943 25.5368 123.927C25.4814 123.894 25.4057 123.851 25.2985 123.791C25.2658 123.773 25.2323 123.754 25.1999 123.734C25.094 123.672 25.0193 123.627 24.9636 123.595C24.9363 123.579 24.9156 123.568 24.9011 123.561C24.8919 123.556 24.8865 123.553 24.8845 123.552C24.7967 123.514 24.7535 123.506 24.7273 123.504C24.701 123.502 24.6572 123.503 24.5651 123.525C24.5423 123.531 24.5 123.547 24.3278 123.614C24.1376 123.688 23.9751 123.754 23.8151 123.781C23.3021 123.87 22.779 123.687 22.4343 123.297C22.3268 123.175 22.2416 123.022 22.1394 122.845L21.7399 122.154C21.6362 121.975 21.545 121.822 21.4929 121.665C21.3299 121.175 21.4312 120.634 21.7605 120.235C21.8656 120.108 22.0061 119.999 22.1677 119.869C22.3131 119.752 22.3474 119.723 22.364 119.706C22.4292 119.638 22.4513 119.601 22.4626 119.577C22.4739 119.553 22.4884 119.513 22.4997 119.419C22.4999 119.417 22.5003 119.411 22.5007 119.399C22.5013 119.383 22.5015 119.36 22.5017 119.328C22.502 119.264 22.5019 119.176 22.5007 119.053C22.5005 119.035 22.4997 119.018 22.4997 119C22.4997 118.981 22.5005 118.961 22.5007 118.942C22.5019 118.82 22.502 118.733 22.5017 118.669C22.5015 118.637 22.5013 118.614 22.5007 118.598C22.5002 118.586 22.4997 118.578 22.4997 118.578C22.4886 118.485 22.4749 118.444 22.4636 118.42C22.4522 118.396 22.4294 118.359 22.364 118.291C22.3475 118.274 22.3134 118.245 22.1677 118.128C22.0072 117.999 21.868 117.891 21.7634 117.765C21.432 117.366 21.3297 116.823 21.4939 116.331C21.5457 116.176 21.637 116.024 21.7399 115.846L22.1384 115.154C22.2416 114.976 22.3283 114.821 22.4372 114.698C22.781 114.311 23.3005 114.128 23.8112 114.215C23.973 114.243 24.1374 114.309 24.3298 114.384C24.5035 114.451 24.546 114.466 24.5691 114.472C24.6606 114.494 24.7039 114.495 24.7302 114.493C24.7564 114.491 24.7993 114.483 24.8864 114.445C24.8885 114.444 24.8946 114.442 24.904 114.437C24.9186 114.429 24.9393 114.418 24.9665 114.402C25.0224 114.37 25.0975 114.326 25.2038 114.263C25.2341 114.245 25.265 114.227 25.2956 114.21C25.4038 114.149 25.48 114.105 25.5358 114.072C25.5633 114.056 25.5833 114.044 25.5974 114.035C25.6072 114.029 25.614 114.024 25.614 114.024C25.6896 113.968 25.7174 113.935 25.7321 113.914C25.7469 113.893 25.7672 113.856 25.7937 113.765C25.8003 113.742 25.8088 113.699 25.8376 113.513C25.8694 113.308 25.8933 113.131 25.9509 112.977C26.1312 112.492 26.5492 112.134 27.0554 112.03C27.2169 111.997 27.395 112 27.6023 112H28.3982L28.6872 112.003Z" fill="currentColor"/>
  <path d="M32.9997 121C34.1043 121 34.9997 121.896 34.9997 123C34.9997 124.105 34.1043 125 32.9997 125C31.8953 125 30.9997 124.105 30.9997 123C30.9997 121.896 31.8953 121 32.9997 121Z" fill="currentColor"/>
  <path d="M27.9997 116C29.6565 116 30.9996 117.343 30.9997 119C30.9997 120.657 29.6565 122 27.9997 122C26.343 122 24.9997 120.657 24.9997 119C24.9998 117.343 26.3431 116 27.9997 116ZM27.9997 117C26.8954 117 25.9998 117.896 25.9997 119C25.9997 120.104 26.8953 121 27.9997 121C29.1043 121 29.9997 120.105 29.9997 119C29.9996 117.896 29.1042 117 27.9997 117Z" fill="currentColor"/>
</svg>
