<svg xmlns="http://www.w3.org/2000/svg" width="16" height="16" viewBox="20.24 111.08 15.52 15.52" fill="none">
  <path d="M23.7232 113.439C26.5397 112.813 29.4594 112.813 32.276 113.439C32.6247 113.516 32.9248 113.737 33.1021 114.047L34.2672 116.086C34.4678 116.437 34.6312 116.711 34.691 117.006C34.7598 117.347 34.7254 117.701 34.5924 118.023C34.4769 118.301 34.2646 118.538 34.0006 118.844L30.2701 123.164C29.8403 123.662 29.4839 124.077 29.1597 124.361C28.8249 124.653 28.4576 124.866 27.9996 124.866C27.5416 124.866 27.1743 124.653 26.8394 124.361C26.5152 124.077 26.159 123.662 25.7291 123.164L21.9986 118.844C21.7345 118.538 21.5222 118.301 21.4068 118.023C21.2738 117.701 21.2394 117.347 21.3082 117.006C21.3679 116.711 21.5315 116.437 21.732 116.086L22.897 114.047C23.0743 113.737 23.3746 113.516 23.7232 113.439ZM30.231 117.573C28.7442 117.48 27.253 117.48 25.7662 117.573L27.9996 123.154L30.231 117.573ZM24.7222 117.654C23.9899 117.721 23.2591 117.81 22.5308 117.922C22.5878 117.991 22.6592 118.079 22.7554 118.191L26.4859 122.511C26.6046 122.648 26.7148 122.772 26.815 122.887L24.7222 117.654ZM29.1832 122.887C29.2834 122.772 29.3946 122.649 29.5133 122.511L33.2437 118.191C33.3396 118.08 33.4105 117.991 33.4674 117.922C32.7391 117.81 32.0084 117.721 31.276 117.654L29.1832 122.887ZM25.692 114.113C25.1049 114.186 24.5199 114.285 23.94 114.414C23.8665 114.431 23.8027 114.478 23.7652 114.543L22.6002 116.582C22.5135 116.734 22.4529 116.846 22.4078 116.93C23.1361 116.819 23.8669 116.729 24.5992 116.661L25.692 114.113ZM31.399 116.661C32.1317 116.729 32.8627 116.819 33.5914 116.93C33.5462 116.846 33.4857 116.734 33.399 116.582L32.234 114.543C32.1964 114.478 32.1329 114.431 32.0592 114.414C31.479 114.285 30.8936 114.186 30.3062 114.113L31.399 116.661ZM29.1715 114.006C28.3908 113.957 27.6074 113.957 26.8267 114.006L25.7261 116.574C27.2397 116.48 28.7575 116.48 30.2711 116.574L29.1715 114.006Z" fill="currentColor"/>
</svg>
