<svg xmlns="http://www.w3.org/2000/svg" width="16" height="16" viewBox="19.96 111.46 16.08 16.08" fill="none">
  <path d="M25.9832 117.001C25.9887 117.001 25.9942 117 25.9998 117H26.6892C27.0206 117 27.3386 117.132 27.573 117.366L27.6336 117.427C27.6803 117.474 27.7441 117.5 27.8103 117.5H28.1892C28.2554 117.5 28.3191 117.474 28.366 117.427L28.4265 117.366C28.6609 117.132 28.9789 117 29.3103 117H29.9998C30.0049 117 30.0103 117.001 30.0154 117.001C30.0238 117.001 30.0323 117 30.0408 117H33.4099C34.3366 117 35.0418 117.833 34.8894 118.747L34.6257 120.329C34.4649 121.293 33.6305 122 32.6531 122H31.0808C30.0705 122 29.1663 121.393 28.7781 120.474C28.7736 120.464 28.7674 120.456 28.7634 120.446L28.2302 119.154C28.1918 119.061 28.1004 119.001 27.9998 119C27.8993 119.001 27.8087 119.061 27.7703 119.154L27.2371 120.446C27.233 120.456 27.226 120.464 27.2214 120.474C26.8331 121.393 25.9291 122 24.9187 122H23.3464C22.3692 122 21.5346 121.293 21.3738 120.329L21.1101 118.747C20.9578 117.833 21.663 117 22.5896 117H25.9587C25.9668 117 25.9751 117.001 25.9832 117.001ZM22.5896 118C22.281 118 22.0459 118.278 22.0964 118.582L22.3601 120.164C22.4404 120.646 22.8579 121 23.3464 121H24.9187L25.0388 120.995C25.5948 120.951 26.0816 120.6 26.2996 120.087L26.3416 119.975L26.6707 118.987C26.8325 118.502 26.4707 118 25.9587 118H22.5896ZM30.0408 118C29.529 118 29.1671 118.502 29.3289 118.987L29.658 119.975L29.7 120.087C29.9179 120.6 30.4048 120.951 30.9607 120.995L31.0808 121H32.6531C33.1417 121 33.5591 120.646 33.6394 120.164L33.9031 118.582C33.9537 118.277 33.7186 118 33.4099 118H30.0408Z" fill="currentColor"/>
</svg>
