<svg xmlns="http://www.w3.org/2000/svg" width="16" height="16" viewBox="20.0 111.0 16.0 16.0" fill="none">
  <path d="M28 112C31.866 112 35 115.134 35 119C35 122.866 31.866 126 28 126C24.134 126 21 122.866 21 119C21 115.134 24.134 112 28 112ZM26.292 122C26.4023 122.527 26.5403 123.004 26.6992 123.417C26.9124 123.971 27.1537 124.385 27.3965 124.652C27.6393 124.919 27.8442 125 28 125C28.1558 125 28.3607 124.919 28.6035 124.652C28.8463 124.385 29.0876 123.971 29.3008 123.417C29.4597 123.004 29.5977 122.527 29.708 122H26.292ZM22.8047 122C23.5536 123.294 24.7707 124.283 26.2256 124.732C26.0544 124.447 25.9001 124.125 25.7656 123.775C25.5651 123.254 25.4015 122.655 25.2754 122H22.8047ZM30.7246 122C30.5985 122.655 30.4349 123.254 30.2344 123.775C30.0998 124.125 29.9448 124.447 29.7734 124.732C31.2287 124.283 32.4463 123.294 33.1953 122H30.7246ZM22.3428 117C22.1216 117.626 22 118.299 22 119C22 119.701 22.1216 120.374 22.3428 121H25.1172C25.0409 120.365 25 119.693 25 119C25 118.307 25.0409 117.635 25.1172 117H22.3428ZM26.127 117C26.0465 117.625 26 118.297 26 119C26 119.703 26.0465 120.375 26.127 121H29.873C29.9535 120.375 30 119.703 30 119C30 118.297 29.9535 117.625 29.873 117H26.127ZM30.8828 117C30.9591 117.635 31 118.307 31 119C31 119.693 30.9591 120.365 30.8828 121H33.6572C33.8784 120.374 34 119.701 34 119C34 118.299 33.8784 117.626 33.6572 117H30.8828ZM26.2256 113.267C24.7705 113.716 23.5536 114.706 22.8047 116H25.2754C25.4015 115.345 25.5651 114.746 25.7656 114.225C25.9002 113.875 26.0542 113.552 26.2256 113.267ZM28 113C27.8442 113 27.6393 113.081 27.3965 113.348C27.1537 113.615 26.9124 114.029 26.6992 114.583C26.5403 114.996 26.4023 115.473 26.292 116H29.708C29.5977 115.473 29.4597 114.996 29.3008 114.583C29.0876 114.029 28.8463 113.615 28.6035 113.348C28.3607 113.081 28.1558 113 28 113ZM29.7734 113.267C29.9449 113.552 30.0997 113.874 30.2344 114.225C30.4349 114.746 30.5985 115.345 30.7246 116H33.1953C32.4462 114.706 31.2289 113.716 29.7734 113.267Z" fill="currentColor"/>
</svg>
