<svg xmlns="http://www.w3.org/2000/svg" width="16" height="16" viewBox="20.0 110.0 17.0 17.0" fill="none">
  <path d="M28 112C28.2477 112 28.4924 112.013 28.7334 112.038C28.5271 112.353 28.3601 112.695 28.2373 113.059C28.1489 113.017 28.0697 113 28 113C27.8442 113 27.6393 113.081 27.3965 113.348C27.1537 113.615 26.9124 114.029 26.6992 114.583C26.5403 114.996 26.4023 115.473 26.292 116H28.3096C28.4187 116.268 28.5479 116.516 28.6826 116.74C28.7357 116.829 28.7918 116.915 28.8486 117H26.127C26.0465 117.625 26 118.297 26 119C26 119.703 26.0465 120.375 26.127 121H29.873C29.9535 120.375 30 119.703 30 119C30 118.782 29.993 118.566 29.9844 118.354C30.3494 118.715 30.7083 119.019 30.9961 119.248C30.9875 119.854 30.95 120.441 30.8828 121H33.6572C33.8514 120.451 33.9683 119.865 33.9941 119.256C34.2725 119.035 34.6172 118.741 34.9717 118.395C34.9888 118.594 35 118.796 35 119C35 122.866 31.866 126 28 126C24.134 126 21 122.866 21 119C21 115.134 24.134 112 28 112ZM26.292 122C26.4023 122.527 26.5403 123.004 26.6992 123.417C26.9124 123.971 27.1537 124.385 27.3965 124.652C27.6393 124.919 27.8442 125 28 125C28.1558 125 28.3607 124.919 28.6035 124.652C28.8463 124.385 29.0876 123.971 29.3008 123.417C29.4597 123.004 29.5977 122.527 29.708 122H26.292ZM22.8047 122C23.5536 123.294 24.7707 124.283 26.2256 124.732C26.0544 124.447 25.9001 124.125 25.7656 123.775C25.5651 123.254 25.4015 122.655 25.2754 122H22.8047ZM30.7246 122C30.5985 122.655 30.4349 123.254 30.2344 123.775C30.0998 124.125 29.9448 124.447 29.7734 124.732C31.2287 124.283 32.4463 123.294 33.1953 122H30.7246ZM22.3428 117C22.1216 117.626 22 118.299 22 119C22 119.701 22.1216 120.374 22.3428 121H25.1172C25.0409 120.365 25 119.693 25 119C25 118.307 25.0409 117.635 25.1172 117H22.3428ZM26.2256 113.267C24.7705 113.716 23.5536 114.706 22.8047 116H25.2754C25.4015 115.345 25.5651 114.746 25.7656 114.225C25.9002 113.875 26.0542 113.552 26.2256 113.267Z" fill="currentColor"/>
  <path d="M32.5 113.5C33.0523 113.5 33.5 113.948 33.5 114.5C33.5 115.052 33.0523 115.5 32.5 115.5C31.9477 115.5 31.5 115.052 31.5 114.5C31.5 113.948 31.9477 113.5 32.5 113.5Z" fill="currentColor"/>
  <path d="M32.5 111C34.433 111 36 112.567 36 114.5C36 115.123 35.7677 115.713 35.46 116.226C35.1505 116.741 34.7456 117.211 34.3535 117.604C33.9599 117.997 33.5678 118.323 33.2754 118.551C33.1289 118.665 33.0067 118.755 32.9199 118.817C32.8765 118.848 32.8416 118.872 32.8174 118.889C32.8053 118.897 32.7958 118.904 32.7891 118.908C32.7859 118.91 32.7832 118.912 32.7812 118.913L32.7783 118.915L32.7773 118.916C32.6305 119.014 32.4447 119.026 32.2881 118.953L32.2227 118.916L32.2217 118.915L32.2188 118.913C32.2168 118.912 32.2141 118.91 32.2109 118.908C32.2042 118.904 32.1947 118.897 32.1826 118.889C32.1584 118.872 32.1235 118.848 32.0801 118.817C31.9933 118.755 31.8711 118.665 31.7246 118.551C31.4322 118.323 31.0401 117.997 30.6465 117.604C30.2544 117.211 29.8495 116.741 29.54 116.226C29.2323 115.713 29 115.123 29 114.5C29 112.567 30.567 111 32.5 111ZM32.5 112C31.1193 112 30 113.119 30 114.5C30 114.877 30.1428 115.287 30.3975 115.712C30.6505 116.134 30.9957 116.539 31.3535 116.896C31.7098 117.253 32.0679 117.552 32.3379 117.762C32.3959 117.807 32.4514 117.846 32.5 117.882C32.5486 117.846 32.6041 117.807 32.6621 117.762C32.9321 117.552 33.2902 117.253 33.6465 116.896C34.0043 116.539 34.3495 116.134 34.6025 115.712C34.8572 115.287 35 114.877 35 114.5C35 113.119 33.8807 112 32.5 112Z" fill="currentColor"/>
</svg>
