<svg xmlns="http://www.w3.org/2000/svg" width="16" height="16" viewBox="20.0 111.0 17.0 17.0" fill="none">
  <path d="M31.5 120C31.7761 120 32 120.224 32 120.5V122H33.5C33.7761 122 34 122.224 34 122.5C34 122.776 33.7761 123 33.5 123H31.5C31.2239 123 31 122.776 31 122.5V120.5C31 120.224 31.2239 120 31.5 120Z" fill="currentColor"/>
  <path d="M31.5 118C33.9853 118 36 120.015 36 122.5C36 124.985 33.9853 127 31.5 127C29.0147 127 27 124.985 27 122.5C27 120.015 29.0147 118 31.5 118ZM31.5 119C29.567 119 28 120.567 28 122.5C28 124.433 29.567 126 31.5 126C33.433 126 35 124.433 35 122.5C35 120.567 33.433 119 31.5 119Z" fill="currentColor"/>
  <path d="M28 112C31.6032 112 34.5683 114.723 34.9551 118.223C34.6061 117.94 34.2224 117.7 33.8105 117.509C33.7663 117.336 33.716 117.166 33.6572 117H30.8828C30.8842 117.011 30.8844 117.023 30.8857 117.034C30.5467 117.072 30.217 117.14 29.8994 117.236C29.8905 117.157 29.8831 117.078 29.873 117H26.127C26.0465 117.625 26 118.297 26 119C26 119.703 26.0465 120.375 26.127 121H26.208C26.0731 121.477 26 121.98 26 122.5C26 123.809 26.4588 125.011 27.2227 125.955C23.7226 125.568 21 122.603 21 119C21 115.134 24.134 112 28 112ZM22.8047 122C23.5536 123.294 24.7707 124.283 26.2256 124.732C26.0544 124.447 25.9001 124.125 25.7656 123.775C25.5651 123.254 25.4015 122.655 25.2754 122H22.8047ZM22.3428 117C22.1216 117.626 22 118.299 22 119C22 119.701 22.1216 120.374 22.3428 121H25.1172C25.0409 120.365 25 119.693 25 119C25 118.307 25.0409 117.635 25.1172 117H22.3428ZM26.2256 113.267C24.7705 113.716 23.5536 114.706 22.8047 116H25.2754C25.4015 115.345 25.5651 114.746 25.7656 114.225C25.9002 113.875 26.0542 113.552 26.2256 113.267ZM28 113C27.8442 113 27.6393 113.081 27.3965 113.348C27.1537 113.615 26.9124 114.029 26.6992 114.583C26.5403 114.996 26.4023 115.473 26.292 116H29.708C29.5977 115.473 29.4597 114.996 29.3008 114.583C29.0876 114.029 28.8463 113.615 28.6035 113.348C28.3607 113.081 28.1558 113 28 113ZM29.7734 113.267C29.9449 113.552 30.0997 113.874 30.2344 114.225C30.4349 114.746 30.5985 115.345 30.7246 116H33.1953C32.4462 114.706 31.2289 113.716 29.7734 113.267Z" fill="currentColor"/>
</svg>
