<svg xmlns="http://www.w3.org/2000/svg" width="16" height="16" viewBox="18.98 111.0 17.05 17.05" fill="none">
  <path d="M23.5 118C25.433 118 27 119.567 27 121.5C27 122.286 26.7403 123.011 26.3027 123.596L28.8535 126.146C29.0488 126.342 29.0488 126.658 28.8535 126.854C28.6583 127.049 28.3417 127.049 28.1465 126.854L25.5957 124.303C25.0114 124.74 24.2862 125 23.5 125C21.567 125 20 123.433 20 121.5C20 119.567 21.567 118 23.5 118ZM23.5 119C22.1193 119 21 120.119 21 121.5C21 122.881 22.1193 124 23.5 124C24.8807 124 26 122.881 26 121.5C26 120.119 24.8807 119 23.5 119Z" fill="currentColor"/>
  <path d="M28 112C31.866 112 35 115.134 35 119C35 122.242 32.7957 124.967 29.8047 125.763C29.7394 125.647 29.6589 125.538 29.5605 125.439L28.6807 124.56C28.8967 124.293 29.1107 123.911 29.3008 123.417C29.4597 123.004 29.5977 122.527 29.708 122H27.9717C27.9899 121.836 28 121.669 28 121.5C28 121.331 27.9898 121.164 27.9717 121H29.873C29.9535 120.375 30 119.703 30 119C30 118.297 29.9535 117.625 29.873 117H26.127C26.094 117.256 26.0676 117.52 26.0469 117.791C25.7502 117.587 25.4282 117.417 25.0859 117.288C25.0958 117.191 25.1057 117.095 25.1172 117H22.3428C22.3233 117.055 22.305 117.11 22.2871 117.166C21.8729 117.282 21.4827 117.455 21.126 117.677C21.7446 114.444 24.5865 112 28 112ZM30.7246 122C30.5985 122.655 30.4349 123.254 30.2344 123.775C30.0998 124.125 29.9448 124.447 29.7734 124.732C31.2287 124.283 32.4463 123.294 33.1953 122H30.7246ZM30.8828 117C30.9591 117.635 31 118.307 31 119C31 119.693 30.9591 120.365 30.8828 121H33.6572C33.8784 120.374 34 119.701 34 119C34 118.299 33.8784 117.626 33.6572 117H30.8828ZM26.2256 113.267C24.7705 113.716 23.5536 114.706 22.8047 116H25.2754C25.4015 115.345 25.5651 114.746 25.7656 114.225C25.9002 113.875 26.0542 113.552 26.2256 113.267ZM28 113C27.8442 113 27.6393 113.081 27.3965 113.348C27.1537 113.615 26.9124 114.029 26.6992 114.583C26.5403 114.996 26.4023 115.473 26.292 116H29.708C29.5977 115.473 29.4597 114.996 29.3008 114.583C29.0876 114.029 28.8463 113.615 28.6035 113.348C28.3607 113.081 28.1558 113 28 113ZM29.7734 113.267C29.9449 113.552 30.0997 113.874 30.2344 114.225C30.4349 114.746 30.5985 115.345 30.7246 116H33.1953C32.4462 114.706 31.2289 113.716 29.7734 113.267Z" fill="currentColor"/>
</svg>
