<svg xmlns="http://www.w3.org/2000/svg" width="16" height="16" viewBox="20.0 111.01 16.0 16.0" fill="none">
  <path d="M28 113.016C28.8443 113.016 29.6183 113.411 30.8779 114.033L32.3467 114.759C33.1226 115.142 33.7565 115.453 34.1895 115.752C34.6187 116.048 34.999 116.431 34.999 117L35 121.463C34.9999 121.739 34.7761 121.963 34.5 121.963C34.2239 121.963 34.0001 121.739 34 121.463V118.37C33.7247 118.542 33.388 118.72 33 118.916V122C33 122.954 32.3096 123.714 31.4248 124.205C30.5231 124.706 29.3112 125 28 125C26.6888 125 25.4769 124.706 24.5752 124.205C23.6904 123.714 23 122.954 23 122V118.916C22.5183 118.673 22.1146 118.458 21.8105 118.248C21.3813 117.952 21.001 117.569 21.001 117C21.001 116.431 21.3813 116.048 21.8105 115.752C22.2435 115.453 22.8775 115.142 23.6533 114.759L25.1221 114.033C26.3817 113.411 27.1557 113.016 28 113.016ZM30.8779 119.967C29.6183 120.589 28.8443 120.984 28 120.984C27.1557 120.984 26.3817 120.589 25.1221 119.967L24 119.413V122C24 122.426 24.3167 122.918 25.0605 123.331C25.7875 123.735 26.826 124 28 124C29.174 124 30.2125 123.735 30.9395 123.331C31.6833 122.918 32 122.426 32 122V119.413L30.8779 119.967ZM28 114.016C27.4439 114.016 26.9136 114.264 25.5654 114.93L24.0957 115.655C23.2895 116.053 22.737 116.328 22.3789 116.575C22.0172 116.825 22.001 116.947 22.001 117C22.001 117.053 22.0171 117.176 22.3789 117.426C22.737 117.673 23.2899 117.947 24.0957 118.345L25.5654 119.07C26.9137 119.736 27.4439 119.984 28 119.984C28.5561 119.984 29.0863 119.736 30.4346 119.07L31.9043 118.345C32.7101 117.947 33.263 117.673 33.6211 117.426C33.9829 117.176 33.999 117.053 33.999 117C33.999 116.947 33.9828 116.825 33.6211 116.575C33.263 116.328 32.7105 116.053 31.9043 115.655L30.4346 114.93C29.0864 114.264 28.5561 114.016 28 114.016Z" fill="currentColor"/>
</svg>
