<svg xmlns="http://www.w3.org/2000/svg" width="16" height="16" viewBox="20.0 111.0 16.0 16.0" fill="none">
  <path d="M21.5 112C21.7761 112 22 112.224 22 112.5V115H23.7402C23.7736 115 23.8985 114.998 24.0156 115.014C24.1619 115.033 24.4331 115.095 24.6689 115.331C24.9048 115.567 24.9667 115.838 24.9863 115.984C25.0021 116.102 25 116.226 25 116.26V116.74C25 116.774 25.0021 116.898 24.9863 117.016C24.9667 117.162 24.9048 117.433 24.6689 117.669C24.4331 117.905 24.1619 117.967 24.0156 117.986C23.8985 118.002 23.7736 118 23.7402 118H22V120H23.7402C23.7736 120 23.8985 119.998 24.0156 120.014C24.1619 120.033 24.4331 120.095 24.6689 120.331C24.9048 120.567 24.9667 120.838 24.9863 120.984C25.0021 121.102 25 121.226 25 121.26V121.74C25 121.774 25.0021 121.898 24.9863 122.016C24.9667 122.162 24.9048 122.433 24.6689 122.669C24.4331 122.905 24.1619 122.967 24.0156 122.986C23.8985 123.002 23.7736 123 23.7402 123H22V125.5C22 125.776 21.7761 126 21.5 126C21.2239 126 21 125.776 21 125.5V112.5C21 112.224 21.2239 112 21.5 112ZM22 122H23.7402C23.8626 122 23.9239 122 23.9619 121.962C23.9809 121.943 23.9903 121.918 23.9951 121.883L24 121.74V121.26C24 121.137 24 121.076 23.9619 121.038C23.9239 121 23.8626 121 23.7402 121H22V122ZM22 117H23.7402C23.8626 117 23.9239 117 23.9619 116.962C23.9809 116.943 23.9903 116.918 23.9951 116.883L24 116.74V116.26C24 116.137 24 116.076 23.9619 116.038C23.9239 116 23.8626 116 23.7402 116H22V117Z" fill="currentColor"/>
  <path d="M34.5 112C34.7761 112 35 112.224 35 112.5V125.5C35 125.776 34.7761 126 34.5 126C34.2239 126 34 125.776 34 125.5V123H32.2598C32.2264 123 32.1015 123.002 31.9844 122.986C31.8381 122.967 31.5669 122.905 31.3311 122.669C31.0952 122.433 31.0333 122.162 31.0137 122.016C30.9979 121.898 31 121.774 31 121.74V121.26C31 121.226 30.9979 121.102 31.0137 120.984C31.0333 120.838 31.0952 120.567 31.3311 120.331C31.5669 120.095 31.8381 120.033 31.9844 120.014C32.1015 119.998 32.2264 120 32.2598 120H34V118H32.2598C32.2264 118 32.1015 118.002 31.9844 117.986C31.8381 117.967 31.5669 117.905 31.3311 117.669C31.0952 117.433 31.0333 117.162 31.0137 117.016C30.9979 116.898 31 116.774 31 116.74V116.26C31 116.226 30.9979 116.102 31.0137 115.984C31.0333 115.838 31.0952 115.567 31.3311 115.331C31.5669 115.095 31.8381 115.033 31.9844 115.014C32.1015 114.998 32.2264 115 32.2598 115H34V112.5C34 112.224 34.2239 112 34.5 112ZM32.2598 121C32.1374 121 32.0761 121 32.0381 121.038C32.0191 121.057 32.0097 121.082 32.0049 121.117L32 121.26V121.74C32 121.863 32 121.924 32.0381 121.962C32.0761 122 32.1374 122 32.2598 122H34V121H32.2598ZM32 116.74C32 116.863 32 116.924 32.0381 116.962C32.0761 117 32.1374 117 32.2598 117H34V116H32.2598C32.1374 116 32.0761 116 32.0381 116.038C32.0191 116.057 32.0097 116.082 32.0049 116.117L32 116.26V116.74Z" fill="currentColor"/>
</svg>
