<svg xmlns="http://www.w3.org/2000/svg" width="16" height="16" viewBox="21.0 110.0 15.0 15.0" fill="none">
  <path d="M26.7402 119C26.7736 119 26.8985 118.998 27.0156 119.014C27.1619 119.033 27.4331 119.095 27.6689 119.331C27.9048 119.567 27.9667 119.838 27.9863 119.984C28.0021 120.102 28 120.226 28 120.26V121.74C28 121.774 28.0021 121.898 27.9863 122.016C27.9667 122.162 27.9048 122.433 27.6689 122.669C27.4331 122.905 27.1619 122.967 27.0156 122.986C26.8985 123.002 26.7736 123 26.7402 123H25.2598C25.2264 123 25.1015 123.002 24.9844 122.986C24.8381 122.967 24.5669 122.905 24.3311 122.669C24.0952 122.433 24.0333 122.162 24.0137 122.016C23.9979 121.898 24 121.774 24 121.74V120.26C24 120.226 23.9979 120.102 24.0137 119.984C24.0333 119.838 24.0952 119.567 24.3311 119.331C24.5669 119.095 24.8381 119.033 24.9844 119.014C25.1015 118.998 25.2264 119 25.2598 119H26.7402ZM25.2598 120C25.1374 120 25.0761 120 25.0381 120.038C25 120.076 25 120.137 25 120.26V121.74L25.0049 121.883C25.0097 121.918 25.0191 121.943 25.0381 121.962C25.0761 122 25.1374 122 25.2598 122H26.7402L26.8828 121.995C26.9181 121.99 26.9429 121.981 26.9619 121.962C26.9809 121.943 26.9903 121.918 26.9951 121.883L27 121.74V120.26C27 120.137 27 120.076 26.9619 120.038C26.9429 120.019 26.9181 120.01 26.8828 120.005L26.7402 120H25.2598Z" fill="currentColor"/>
  <path d="M31.7402 119C31.7736 119 31.8985 118.998 32.0156 119.014C32.1619 119.033 32.4331 119.095 32.6689 119.331C32.9048 119.567 32.9667 119.838 32.9863 119.984C33.0021 120.102 33 120.226 33 120.26V121.74C33 121.774 33.0021 121.898 32.9863 122.016C32.9667 122.162 32.9048 122.433 32.6689 122.669C32.4331 122.905 32.1619 122.967 32.0156 122.986C31.8985 123.002 31.7736 123 31.7402 123H30.2598C30.2264 123 30.1015 123.002 29.9844 122.986C29.8381 122.967 29.5669 122.905 29.3311 122.669C29.0952 122.433 29.0333 122.162 29.0137 122.016C28.9979 121.898 29 121.774 29 121.74V120.26C29 120.226 28.9979 120.102 29.0137 119.984C29.0333 119.838 29.0952 119.567 29.3311 119.331C29.5669 119.095 29.8381 119.033 29.9844 119.014C30.1015 118.998 30.2264 119 30.2598 119H31.7402ZM30.2598 120C30.1374 120 30.0761 120 30.0381 120.038C30 120.076 30 120.137 30 120.26V121.74L30.0049 121.883C30.0097 121.918 30.0191 121.943 30.0381 121.962C30.0761 122 30.1374 122 30.2598 122H31.7402L31.8828 121.995C31.9181 121.99 31.9429 121.981 31.9619 121.962C31.9809 121.943 31.9903 121.918 31.9951 121.883L32 121.74V120.26C32 120.137 32 120.076 31.9619 120.038C31.9429 120.019 31.9181 120.01 31.8828 120.005L31.7402 120H30.2598Z" fill="currentColor"/>
  <path d="M26.7402 114C26.7736 114 26.8985 113.998 27.0156 114.014C27.1619 114.033 27.4331 114.095 27.6689 114.331C27.9048 114.567 27.9667 114.838 27.9863 114.984C28.0021 115.102 28 115.226 28 115.26V116.74C28 116.774 28.0021 116.898 27.9863 117.016C27.9667 117.162 27.9048 117.433 27.6689 117.669C27.4331 117.905 27.1619 117.967 27.0156 117.986C26.8985 118.002 26.7736 118 26.7402 118H25.2598C25.2264 118 25.1015 118.002 24.9844 117.986C24.8381 117.967 24.5669 117.905 24.3311 117.669C24.0952 117.433 24.0333 117.162 24.0137 117.016C23.9979 116.898 24 116.774 24 116.74V115.26C24 115.226 23.9979 115.102 24.0137 114.984C24.0333 114.838 24.0952 114.567 24.3311 114.331C24.5669 114.095 24.8381 114.033 24.9844 114.014C25.1015 113.998 25.2264 114 25.2598 114H26.7402ZM25.2598 115C25.1374 115 25.0761 115 25.0381 115.038C25 115.076 25 115.137 25 115.26V116.74L25.0049 116.883C25.0097 116.918 25.0191 116.943 25.0381 116.962C25.0761 117 25.1374 117 25.2598 117H26.7402L26.8828 116.995C26.9181 116.99 26.9429 116.981 26.9619 116.962C26.9809 116.943 26.9903 116.918 26.9951 116.883L27 116.74V115.26C27 115.137 27 115.076 26.9619 115.038C26.9429 115.019 26.9181 115.01 26.8828 115.005L26.7402 115H25.2598Z" fill="currentColor"/>
  <path d="M31.7402 114C31.7736 114 31.8985 113.998 32.0156 114.014C32.1619 114.033 32.4331 114.095 32.6689 114.331C32.9048 114.567 32.9667 114.838 32.9863 114.984C33.0021 115.102 33 115.226 33 115.26V116.74C33 116.774 33.0021 116.898 32.9863 117.016C32.9667 117.162 32.9048 117.433 32.6689 117.669C32.4331 117.905 32.1619 117.967 32.0156 117.986C31.8985 118.002 31.7736 118 31.7402 118H30.2598C30.2264 118 30.1015 118.002 29.9844 117.986C29.8381 117.967 29.5669 117.905 29.3311 117.669C29.0952 117.433 29.0333 117.162 29.0137 117.016C28.9979 116.898 29 116.774 29 116.74V115.26C29 115.226 28.9979 115.102 29.0137 114.984C29.0333 114.838 29.0952 114.567 29.3311 114.331C29.5669 114.095 29.8381 114.033 29.9844 114.014C30.1015 113.998 30.2264 114 30.2598 114H31.7402ZM30.2598 115C30.1374 115 30.0761 115 30.0381 115.038C30 115.076 30 115.137 30 115.26V116.74L30.0049 116.883C30.0097 116.918 30.0191 116.943 30.0381 116.962C30.0761 117 30.1374 117 30.2598 117H31.7402L31.8828 116.995C31.9181 116.99 31.9429 116.981 31.9619 116.962C31.9809 116.943 31.9903 116.918 31.9951 116.883L32 116.74V115.26C32 115.137 32 115.076 31.9619 115.038C31.9429 115.019 31.9181 115.01 31.8828 115.005L31.7402 115H30.2598Z" fill="currentColor"/>
  <path d="M34.5 112C34.7761 112 35 112.224 35 112.5C35 112.776 34.7761 113 34.5 113H22.5C22.2239 113 22 112.776 22 112.5C22 112.224 22.2239 112 22.5 112H34.5Z" fill="currentColor"/>
</svg>
