<svg xmlns="http://www.w3.org/2000/svg" width="16" height="16" viewBox="20.5 111.0 16.0 16.0" fill="none">
  <path d="M34.5 125C34.7761 125 35 125.224 35 125.5C35 125.776 34.7761 126 34.5 126H22.5C22.2239 126 22 125.776 22 125.5C22 125.224 22.2239 125 22.5 125H34.5Z" fill="currentColor"/>
  <path d="M26.75 120C26.7807 120 26.9043 119.998 27.0205 120.014C27.1473 120.031 27.37 120.08 27.5811 120.249L27.6709 120.329L27.751 120.419C27.9204 120.63 27.9693 120.853 27.9863 120.979C28.0019 121.096 28 121.219 28 121.25V122.75C28 122.781 28.0019 122.904 27.9863 123.021C27.9668 123.165 27.9059 123.436 27.6709 123.671C27.4359 123.906 27.1655 123.967 27.0205 123.986C26.9043 124.002 26.7807 124 26.75 124H25.25C25.2193 124 25.0957 124.002 24.9795 123.986C24.8345 123.967 24.5641 123.906 24.3291 123.671C24.0941 123.436 24.0332 123.165 24.0137 123.021C23.9981 122.904 24 122.781 24 122.75V121.25C24 121.219 23.9981 121.096 24.0137 120.979C24.0332 120.835 24.0941 120.564 24.3291 120.329L24.4189 120.249C24.63 120.08 24.8527 120.031 24.9795 120.014C25.0957 119.998 25.2193 120 25.25 120H26.75ZM25.25 121C25.1321 121 25.0727 121 25.0361 121.036C24.9995 121.073 25 121.132 25 121.25V122.75C25 122.868 24.9995 122.927 25.0361 122.964C25.0727 123 25.1321 123 25.25 123H26.75C26.8388 123 26.8941 123 26.9316 122.984L26.9639 122.964C27.0005 122.927 27 122.868 27 122.75V121.25C27 121.132 27.0005 121.073 26.9639 121.036C26.9273 121 26.8679 121 26.75 121H25.25Z" fill="currentColor"/>
  <path d="M31.75 120C31.7807 120 31.9043 119.998 32.0205 120.014C32.1473 120.031 32.37 120.08 32.5811 120.249L32.6709 120.329L32.751 120.419C32.9204 120.63 32.9693 120.853 32.9863 120.979C33.0019 121.096 33 121.219 33 121.25V122.75C33 122.781 33.0019 122.904 32.9863 123.021C32.9668 123.165 32.9059 123.436 32.6709 123.671C32.4359 123.906 32.1655 123.967 32.0205 123.986C31.9043 124.002 31.7807 124 31.75 124H30.25C30.2193 124 30.0957 124.002 29.9795 123.986C29.8345 123.967 29.5641 123.906 29.3291 123.671C29.0941 123.436 29.0332 123.165 29.0137 123.021C28.9981 122.904 29 122.781 29 122.75V121.25C29 121.219 28.9981 121.096 29.0137 120.979C29.0332 120.835 29.0941 120.564 29.3291 120.329L29.4189 120.249C29.63 120.08 29.8527 120.031 29.9795 120.014C30.0957 119.998 30.2193 120 30.25 120H31.75ZM30.25 121C30.1321 121 30.0727 121 30.0361 121.036C29.9995 121.073 30 121.132 30 121.25V122.75C30 122.868 29.9995 122.927 30.0361 122.964C30.0727 123 30.1321 123 30.25 123H31.75C31.8388 123 31.8941 123 31.9316 122.984L31.9639 122.964C32.0005 122.927 32 122.868 32 122.75V121.25C32 121.132 32.0005 121.073 31.9639 121.036C31.9273 121 31.8679 121 31.75 121H30.25Z" fill="currentColor"/>
  <path d="M26.75 114C26.7807 114 26.9043 113.998 27.0205 114.014C27.1473 114.031 27.37 114.08 27.5811 114.249L27.6709 114.329L27.751 114.419C27.9204 114.63 27.9693 114.853 27.9863 114.979C28.0019 115.096 28 115.219 28 115.25V116.75C28 116.781 28.0019 116.904 27.9863 117.021C27.9668 117.165 27.9059 117.436 27.6709 117.671C27.4359 117.906 27.1655 117.967 27.0205 117.986C26.9043 118.002 26.7807 118 26.75 118H25.25C25.2193 118 25.0957 118.002 24.9795 117.986C24.8345 117.967 24.5641 117.906 24.3291 117.671C24.0941 117.436 24.0332 117.165 24.0137 117.021C23.9981 116.904 24 116.781 24 116.75V115.25C24 115.219 23.9981 115.096 24.0137 114.979C24.0332 114.835 24.0941 114.564 24.3291 114.329L24.4189 114.249C24.63 114.08 24.8527 114.031 24.9795 114.014C25.0957 113.998 25.2193 114 25.25 114H26.75ZM25.25 115C25.1321 115 25.0727 115 25.0361 115.036C24.9995 115.073 25 115.132 25 115.25V116.75C25 116.868 24.9995 116.927 25.0361 116.964C25.0727 117 25.1321 117 25.25 117H26.75C26.8388 117 26.8941 117 26.9316 116.984L26.9639 116.964C27.0005 116.927 27 116.868 27 116.75V115.25C27 115.132 27.0005 115.073 26.9639 115.036C26.9273 115 26.8679 115 26.75 115H25.25Z" fill="currentColor"/>
  <path d="M31.75 114C31.7807 114 31.9043 113.998 32.0205 114.014C32.1473 114.031 32.37 114.08 32.5811 114.249L32.6709 114.329L32.751 114.419C32.9204 114.63 32.9693 114.853 32.9863 114.979C33.0019 115.096 33 115.219 33 115.25V116.75C33 116.781 33.0019 116.904 32.9863 117.021C32.9668 117.165 32.9059 117.436 32.6709 117.671C32.4359 117.906 32.1655 117.967 32.0205 117.986C31.9043 118.002 31.7807 118 31.75 118H30.25C30.2193 118 30.0957 118.002 29.9795 117.986C29.8345 117.967 29.5641 117.906 29.3291 117.671C29.0941 117.436 29.0332 117.165 29.0137 117.021C28.9981 116.904 29 116.781 29 116.75V115.25C29 115.219 28.9981 115.096 29.0137 114.979C29.0332 114.835 29.0941 114.564 29.3291 114.329L29.4189 114.249C29.63 114.08 29.8527 114.031 29.9795 114.014C30.0957 113.998 30.2193 114 30.25 114H31.75ZM30.25 115C30.1321 115 30.0727 115 30.0361 115.036C29.9995 115.073 30 115.132 30 115.25V116.75C30 116.868 29.9995 116.927 30.0361 116.964C30.0727 117 30.1321 117 30.25 117H31.75C31.8388 117 31.8941 117 31.9316 116.984L31.9639 116.964C32.0005 116.927 32 116.868 32 116.75V115.25C32 115.132 32.0005 115.073 31.9639 115.036C31.9273 115 31.8679 115 31.75 115H30.25Z" fill="currentColor"/>
  <path d="M34.5 112C34.7761 112 35 112.224 35 112.5C35 112.776 34.7761 113 34.5 113H22.5C22.2239 113 22 112.776 22 112.5C22 112.224 22.2239 112 22.5 112H34.5Z" fill="currentColor"/>
</svg>
