<svg xmlns="http://www.w3.org/2000/svg" width="16" height="16" viewBox="20.5 111.0 16.0 16.0" fill="none">
  <path d="M28.5 112C28.7762 112 29 112.224 29 112.5V114H31C31.2074 114 31.4634 113.998 31.6817 114.027C31.9287 114.061 32.2706 114.149 32.5606 114.439C32.8506 114.729 32.9395 115.071 32.9727 115.318C33.002 115.537 33 115.793 33 116C33 116.207 33.002 116.463 32.9727 116.682C32.9395 116.929 32.8506 117.271 32.5606 117.561C32.2706 117.851 31.9287 117.939 31.6817 117.973C31.4634 118.002 31.2074 118 31 118H29V120H30C30.2074 120 30.4634 119.998 30.6817 120.027C30.9287 120.061 31.2706 120.149 31.5606 120.439C31.8506 120.729 31.9395 121.071 31.9727 121.318C32.002 121.537 32 121.793 32 122C32 122.207 32.002 122.463 31.9727 122.682C31.9395 122.929 31.8506 123.271 31.5606 123.561C31.2706 123.851 30.9287 123.939 30.6817 123.973C30.4634 124.002 30.2074 124 30 124H29V125.5C29 125.776 28.7762 126 28.5 126C28.2239 126 28 125.776 28 125.5V124H27C26.7927 124 26.5366 124.002 26.3184 123.973C26.0713 123.939 25.7295 123.851 25.4395 123.561C25.1495 123.271 25.0606 122.929 25.0274 122.682C24.9981 122.463 25 122.207 25 122C25 121.793 24.9981 121.537 25.0274 121.318C25.0606 121.071 25.1495 120.729 25.4395 120.439C25.7295 120.149 26.0713 120.061 26.3184 120.027C26.5366 119.998 26.7927 120 27 120H28V118H26C25.7927 118 25.5366 118.002 25.3184 117.973C25.0713 117.939 24.7295 117.851 24.4395 117.561C24.1495 117.271 24.0606 116.929 24.0274 116.682C23.9981 116.463 24 116.207 24 116C24 115.793 23.9981 115.537 24.0274 115.318C24.0606 115.071 24.1495 114.729 24.4395 114.439C24.7295 114.149 25.0713 114.061 25.3184 114.027C25.5366 113.998 25.7927 114 26 114H28V112.5C28 112.224 28.2239 112 28.5 112ZM27 121C26.5286 121 26.293 121 26.1465 121.146C26.0001 121.293 26 121.529 26 122C26 122.471 26.0001 122.707 26.1465 122.854C26.293 123 26.5286 123 27 123H30C30.4714 123 30.7071 123 30.8535 122.854C31 122.707 31 122.471 31 122C31 121.529 31 121.293 30.8535 121.146C30.7071 121 30.4714 121 30 121H27ZM25.6885 115.002C25.4164 115.009 25.2564 115.037 25.1465 115.146C25.0001 115.293 25 115.529 25 116C25 116.471 25.0001 116.707 25.1465 116.854C25.293 117 25.5286 117 26 117H31C31.4714 117 31.7071 117 31.8535 116.854C32 116.707 32 116.471 32 116C32 115.529 32 115.293 31.8535 115.146C31.7071 115 31.4714 115 31 115H26L25.6885 115.002Z" fill="currentColor"/>
</svg>
