<svg xmlns="http://www.w3.org/2000/svg" width="16" height="16" viewBox="20.0 110.0 16.0 16.0" fill="none">
  <path d="M23 121C23.3394 121 23.6444 120.999 23.8896 121.032C24.1493 121.067 24.4156 121.148 24.6338 121.366C24.852 121.584 24.9329 121.851 24.9678 122.11C25.0008 122.356 25 122.661 25 123C25 123.339 25.0008 123.644 24.9678 123.89C24.9329 124.149 24.852 124.416 24.6338 124.634C24.4156 124.852 24.1493 124.933 23.8896 124.968C23.6444 125.001 23.3394 125 23 125C22.6606 125 22.3556 125.001 22.1104 124.968C21.8507 124.933 21.5844 124.852 21.3662 124.634C21.148 124.416 21.0671 124.149 21.0322 123.89C20.9992 123.644 21 123.339 21 123C21 122.661 20.9992 122.356 21.0322 122.11C21.0671 121.851 21.148 121.584 21.3662 121.366C21.5844 121.148 21.8507 121.067 22.1104 121.032C22.3556 120.999 22.6606 121 23 121ZM23 122C22.6326 122 22.4073 122.002 22.2441 122.023C22.0954 122.043 22.0747 122.072 22.0732 122.073C22.0718 122.075 22.0434 122.095 22.0234 122.244C22.0016 122.407 22 122.633 22 123C22 123.367 22.0016 123.593 22.0234 123.756C22.0434 123.905 22.0718 123.925 22.0732 123.927C22.0747 123.928 22.0954 123.957 22.2441 123.977C22.4073 123.998 22.6326 124 23 124C23.3674 124 23.5927 123.998 23.7559 123.977C23.9047 123.957 23.9253 123.928 23.9268 123.927C23.9282 123.925 23.9566 123.905 23.9766 123.756C23.9984 123.593 24 123.367 24 123C24 122.633 23.9984 122.407 23.9766 122.244C23.9566 122.095 23.9282 122.075 23.9268 122.073C23.9253 122.072 23.9045 122.043 23.7559 122.023C23.5927 122.002 23.3674 122 23 122Z" fill="currentColor"/>
  <path d="M28 121C28.3394 121 28.6444 120.999 28.8896 121.032C29.1493 121.067 29.4156 121.148 29.6338 121.366C29.852 121.584 29.9329 121.851 29.9678 122.11C30.0008 122.356 30 122.661 30 123C30 123.339 30.0008 123.644 29.9678 123.89C29.9329 124.149 29.852 124.416 29.6338 124.634C29.4156 124.852 29.1493 124.933 28.8896 124.968C28.6444 125.001 28.3394 125 28 125C27.6606 125 27.3556 125.001 27.1104 124.968C26.8507 124.933 26.5844 124.852 26.3662 124.634C26.148 124.416 26.0671 124.149 26.0322 123.89C25.9992 123.644 26 123.339 26 123C26 122.661 25.9992 122.356 26.0322 122.11C26.0671 121.851 26.148 121.584 26.3662 121.366C26.5844 121.148 26.8507 121.067 27.1104 121.032C27.3556 120.999 27.6606 121 28 121ZM28 122C27.6326 122 27.4073 122.002 27.2441 122.023C27.0954 122.043 27.0747 122.072 27.0732 122.073C27.0718 122.075 27.0434 122.095 27.0234 122.244C27.0016 122.407 27 122.633 27 123C27 123.367 27.0016 123.593 27.0234 123.756C27.0434 123.905 27.0718 123.925 27.0732 123.927C27.0747 123.928 27.0954 123.957 27.2441 123.977C27.4073 123.998 27.6326 124 28 124C28.3674 124 28.5927 123.998 28.7559 123.977C28.9047 123.957 28.9253 123.928 28.9268 123.927C28.9282 123.925 28.9566 123.905 28.9766 123.756C28.9984 123.593 29 123.367 29 123C29 122.633 28.9984 122.407 28.9766 122.244C28.9566 122.095 28.9282 122.075 28.9268 122.073C28.9253 122.072 28.9045 122.043 28.7559 122.023C28.5927 122.002 28.3674 122 28 122Z" fill="currentColor"/>
  <path d="M33 121C33.3394 121 33.6444 120.999 33.8897 121.032C34.1493 121.067 34.4156 121.148 34.6338 121.366C34.852 121.584 34.9329 121.851 34.9678 122.11C35.0008 122.356 35 122.661 35 123C35 123.339 35.0008 123.644 34.9678 123.89C34.9329 124.149 34.852 124.416 34.6338 124.634C34.4156 124.852 34.1493 124.933 33.8897 124.968C33.6444 125.001 33.3394 125 33 125C32.6606 125 32.3556 125.001 32.1104 124.968C31.8507 124.933 31.5844 124.852 31.3662 124.634C31.148 124.416 31.0671 124.149 31.0322 123.89C30.9992 123.644 31 123.339 31 123C31 122.661 30.9992 122.356 31.0322 122.11C31.0672 121.851 31.148 121.584 31.3662 121.366C31.5844 121.148 31.8507 121.067 32.1104 121.032C32.3556 120.999 32.6606 121 33 121ZM33 122C32.6326 122 32.4073 122.002 32.2441 122.023C32.0954 122.043 32.0747 122.072 32.0732 122.073C32.0718 122.075 32.0434 122.095 32.0234 122.244C32.0016 122.407 32 122.633 32 123C32 123.367 32.0016 123.593 32.0234 123.756C32.0434 123.905 32.0718 123.925 32.0732 123.927C32.0747 123.928 32.0954 123.957 32.2441 123.977C32.4073 123.998 32.6326 124 33 124C33.3674 124 33.5927 123.998 33.7559 123.977C33.9047 123.957 33.9253 123.928 33.9268 123.927C33.9282 123.925 33.9566 123.905 33.9766 123.756C33.9984 123.593 34 123.367 34 123C34 122.633 33.9985 122.407 33.9766 122.244C33.9566 122.095 33.9282 122.075 33.9268 122.073C33.9253 122.072 33.9045 122.043 33.7559 122.023C33.5927 122.002 33.3674 122 33 122Z" fill="currentColor"/>
  <path d="M23 116C23.3394 116 23.6444 115.999 23.8896 116.032C24.1493 116.067 24.4156 116.148 24.6338 116.366C24.852 116.584 24.9329 116.851 24.9678 117.11C25.0008 117.356 25 117.661 25 118C25 118.339 25.0008 118.644 24.9678 118.89C24.9329 119.149 24.852 119.416 24.6338 119.634C24.4156 119.852 24.1493 119.933 23.8896 119.968C23.6444 120.001 23.3394 120 23 120C22.6606 120 22.3556 120.001 22.1104 119.968C21.8507 119.933 21.5844 119.852 21.3662 119.634C21.148 119.416 21.0671 119.149 21.0322 118.89C20.9992 118.644 21 118.339 21 118C21 117.661 20.9992 117.356 21.0322 117.11C21.0671 116.851 21.148 116.584 21.3662 116.366C21.5844 116.148 21.8507 116.067 22.1104 116.032C22.3556 115.999 22.6606 116 23 116ZM23 117C22.6326 117 22.4073 117.002 22.2441 117.023C22.0954 117.043 22.0747 117.072 22.0732 117.073C22.0718 117.075 22.0434 117.095 22.0234 117.244C22.0016 117.407 22 117.633 22 118C22 118.367 22.0016 118.593 22.0234 118.756C22.0434 118.905 22.0718 118.925 22.0732 118.927C22.0747 118.928 22.0954 118.957 22.2441 118.977C22.4073 118.998 22.6326 119 23 119C23.3674 119 23.5927 118.998 23.7559 118.977C23.9047 118.957 23.9253 118.928 23.9268 118.927C23.9282 118.925 23.9566 118.905 23.9766 118.756C23.9984 118.593 24 118.367 24 118C24 117.633 23.9984 117.407 23.9766 117.244C23.9566 117.095 23.9282 117.075 23.9268 117.073C23.9253 117.072 23.9046 117.043 23.7559 117.023C23.5927 117.002 23.3674 117 23 117Z" fill="currentColor"/>
  <path d="M28 116C28.3394 116 28.6444 115.999 28.8896 116.032C29.1493 116.067 29.4156 116.148 29.6338 116.366C29.852 116.584 29.9329 116.851 29.9678 117.11C30.0008 117.356 30 117.661 30 118C30 118.339 30.0008 118.644 29.9678 118.89C29.9329 119.149 29.852 119.416 29.6338 119.634C29.4156 119.852 29.1493 119.933 28.8896 119.968C28.6444 120.001 28.3394 120 28 120C27.6606 120 27.3556 120.001 27.1104 119.968C26.8507 119.933 26.5844 119.852 26.3662 119.634C26.148 119.416 26.0671 119.149 26.0322 118.89C25.9992 118.644 26 118.339 26 118C26 117.661 25.9992 117.356 26.0322 117.11C26.0671 116.851 26.148 116.584 26.3662 116.366C26.5844 116.148 26.8507 116.067 27.1104 116.032C27.3556 115.999 27.6606 116 28 116ZM28 117C27.6326 117 27.4073 117.002 27.2441 117.023C27.0954 117.043 27.0747 117.072 27.0732 117.073C27.0718 117.075 27.0434 117.095 27.0234 117.244C27.0016 117.407 27 117.633 27 118C27 118.367 27.0016 118.593 27.0234 118.756C27.0434 118.905 27.0718 118.925 27.0732 118.927C27.0747 118.928 27.0954 118.957 27.2441 118.977C27.4073 118.998 27.6326 119 28 119C28.3674 119 28.5927 118.998 28.7559 118.977C28.9047 118.957 28.9253 118.928 28.9268 118.927C28.9282 118.925 28.9566 118.905 28.9766 118.756C28.9984 118.593 29 118.367 29 118C29 117.633 28.9984 117.407 28.9766 117.244C28.9566 117.095 28.9282 117.075 28.9268 117.073C28.9253 117.072 28.9046 117.043 28.7559 117.023C28.5927 117.002 28.3674 117 28 117Z" fill="currentColor"/>
  <path d="M33 116C33.3394 116 33.6444 115.999 33.8897 116.032C34.1493 116.067 34.4156 116.148 34.6338 116.366C34.852 116.584 34.9329 116.851 34.9678 117.11C35.0008 117.356 35 117.661 35 118C35 118.339 35.0008 118.644 34.9678 118.89C34.9329 119.149 34.852 119.416 34.6338 119.634C34.4156 119.852 34.1493 119.933 33.8897 119.968C33.6444 120.001 33.3394 120 33 120C32.6606 120 32.3556 120.001 32.1104 119.968C31.8507 119.933 31.5844 119.852 31.3662 119.634C31.148 119.416 31.0671 119.149 31.0322 118.89C30.9992 118.644 31 118.339 31 118C31 117.661 30.9992 117.356 31.0322 117.11C31.0672 116.851 31.148 116.584 31.3662 116.366C31.5844 116.148 31.8507 116.067 32.1104 116.032C32.3556 115.999 32.6606 116 33 116ZM33 117C32.6326 117 32.4073 117.002 32.2441 117.023C32.0954 117.043 32.0747 117.072 32.0732 117.073C32.0718 117.075 32.0434 117.095 32.0234 117.244C32.0016 117.407 32 117.633 32 118C32 118.367 32.0016 118.593 32.0234 118.756C32.0434 118.905 32.0718 118.925 32.0732 118.927C32.0747 118.928 32.0954 118.957 32.2441 118.977C32.4073 118.998 32.6326 119 33 119C33.3674 119 33.5927 118.998 33.7559 118.977C33.9046 118.957 33.9253 118.928 33.9268 118.927C33.9282 118.925 33.9566 118.905 33.9766 118.756C33.9984 118.593 34 118.367 34 118C34 117.633 33.9985 117.407 33.9766 117.244C33.9566 117.095 33.9282 117.075 33.9268 117.073C33.9253 117.072 33.9045 117.043 33.7559 117.023C33.5927 117.002 33.3674 117 33 117Z" fill="currentColor"/>
  <path d="M23 111C23.3394 111 23.6444 110.999 23.8896 111.032C24.1493 111.067 24.4156 111.148 24.6338 111.366C24.852 111.584 24.9329 111.851 24.9678 112.11C25.0008 112.356 25 112.661 25 113C25 113.339 25.0008 113.644 24.9678 113.89C24.9329 114.149 24.852 114.416 24.6338 114.634C24.4156 114.852 24.1493 114.933 23.8896 114.968C23.6444 115.001 23.3394 115 23 115C22.6606 115 22.3556 115.001 22.1104 114.968C21.8507 114.933 21.5844 114.852 21.3662 114.634C21.148 114.416 21.0671 114.149 21.0322 113.89C20.9992 113.644 21 113.339 21 113C21 112.661 20.9992 112.356 21.0322 112.11C21.0671 111.851 21.148 111.584 21.3662 111.366C21.5844 111.148 21.8507 111.067 22.1104 111.032C22.3556 110.999 22.6606 111 23 111ZM23 112C22.6326 112 22.4073 112.002 22.2441 112.023C22.0954 112.043 22.0747 112.072 22.0732 112.073C22.0718 112.075 22.0434 112.095 22.0234 112.244C22.0016 112.407 22 112.633 22 113C22 113.367 22.0016 113.593 22.0234 113.756C22.0434 113.905 22.0718 113.925 22.0732 113.927C22.0747 113.928 22.0954 113.957 22.2441 113.977C22.4073 113.998 22.6326 114 23 114C23.3674 114 23.5927 113.998 23.7559 113.977C23.9047 113.957 23.9253 113.928 23.9268 113.927C23.9282 113.925 23.9566 113.905 23.9766 113.756C23.9984 113.593 24 113.367 24 113C24 112.633 23.9984 112.407 23.9766 112.244C23.9566 112.095 23.9282 112.075 23.9268 112.073C23.9253 112.072 23.9046 112.043 23.7559 112.023C23.5927 112.002 23.3674 112 23 112Z" fill="currentColor"/>
  <path d="M28 111C28.3394 111 28.6444 110.999 28.8896 111.032C29.1493 111.067 29.4156 111.148 29.6338 111.366C29.852 111.584 29.9329 111.851 29.9678 112.11C30.0008 112.356 30 112.661 30 113C30 113.339 30.0008 113.644 29.9678 113.89C29.9329 114.149 29.852 114.416 29.6338 114.634C29.4156 114.852 29.1493 114.933 28.8896 114.968C28.6444 115.001 28.3394 115 28 115C27.6606 115 27.3556 115.001 27.1104 114.968C26.8507 114.933 26.5844 114.852 26.3662 114.634C26.148 114.416 26.0671 114.149 26.0322 113.89C25.9992 113.644 26 113.339 26 113C26 112.661 25.9992 112.356 26.0322 112.11C26.0671 111.851 26.148 111.584 26.3662 111.366C26.5844 111.148 26.8507 111.067 27.1104 111.032C27.3556 110.999 27.6606 111 28 111ZM28 112C27.6326 112 27.4073 112.002 27.2441 112.023C27.0954 112.043 27.0747 112.072 27.0732 112.073C27.0718 112.075 27.0434 112.095 27.0234 112.244C27.0016 112.407 27 112.633 27 113C27 113.367 27.0016 113.593 27.0234 113.756C27.0434 113.905 27.0718 113.925 27.0732 113.927C27.0747 113.928 27.0954 113.957 27.2441 113.977C27.4073 113.998 27.6326 114 28 114C28.3674 114 28.5927 113.998 28.7559 113.977C28.9047 113.957 28.9253 113.928 28.9268 113.927C28.9282 113.925 28.9566 113.905 28.9766 113.756C28.9984 113.593 29 113.367 29 113C29 112.633 28.9984 112.407 28.9766 112.244C28.9566 112.095 28.9282 112.075 28.9268 112.073C28.9253 112.072 28.9046 112.043 28.7559 112.023C28.5927 112.002 28.3674 112 28 112Z" fill="currentColor"/>
  <path d="M33 111C33.3394 111 33.6444 110.999 33.8897 111.032C34.1493 111.067 34.4156 111.148 34.6338 111.366C34.852 111.584 34.9329 111.851 34.9678 112.11C35.0008 112.356 35 112.661 35 113C35 113.339 35.0008 113.644 34.9678 113.89C34.9329 114.149 34.852 114.416 34.6338 114.634C34.4156 114.852 34.1493 114.933 33.8897 114.968C33.6444 115.001 33.3394 115 33 115C32.6606 115 32.3556 115.001 32.1104 114.968C31.8507 114.933 31.5844 114.852 31.3662 114.634C31.148 114.416 31.0671 114.149 31.0322 113.89C30.9992 113.644 31 113.339 31 113C31 112.661 30.9992 112.356 31.0322 112.11C31.0672 111.851 31.148 111.584 31.3662 111.366C31.5844 111.148 31.8507 111.067 32.1104 111.032C32.3556 110.999 32.6606 111 33 111ZM33 112C32.6326 112 32.4073 112.002 32.2441 112.023C32.0954 112.043 32.0747 112.072 32.0732 112.073C32.0718 112.075 32.0434 112.095 32.0234 112.244C32.0016 112.407 32 112.633 32 113C32 113.367 32.0016 113.593 32.0234 113.756C32.0434 113.905 32.0718 113.925 32.0732 113.927C32.0747 113.928 32.0954 113.957 32.2441 113.977C32.4073 113.998 32.6326 114 33 114C33.3674 114 33.5927 113.998 33.7559 113.977C33.9046 113.957 33.9253 113.928 33.9268 113.927C33.9282 113.925 33.9566 113.905 33.9766 113.756C33.9984 113.593 34 113.367 34 113C34 112.633 33.9985 112.407 33.9766 112.244C33.9566 112.095 33.9282 112.075 33.9268 112.073C33.9253 112.072 33.9045 112.043 33.7559 112.023C33.5927 112.002 33.3674 112 33 112Z" fill="currentColor"/>
</svg>
