<svg xmlns="http://www.w3.org/2000/svg" width="16" height="16" viewBox="20.0 111.0 16.0 16.0" fill="none">
  <path d="M25.7402 122C25.7736 122 25.8985 121.998 26.0156 122.014C26.1619 122.033 26.4331 122.095 26.6689 122.331C26.9048 122.567 26.9667 122.838 26.9863 122.984C27.0021 123.102 27 123.226 27 123.26V125H29V123.26C29 123.226 28.9979 123.102 29.0137 122.984C29.0333 122.838 29.0953 122.567 29.3311 122.331C29.5669 122.095 29.8381 122.033 29.9844 122.014C30.1015 121.998 30.2264 122 30.2598 122H30.7402C30.7736 122 30.8985 121.998 31.0156 122.014C31.1619 122.033 31.4331 122.095 31.6689 122.331C31.9048 122.567 31.9667 122.838 31.9863 122.984C32.0021 123.102 32 123.226 32 123.26V125H34.5C34.7761 125 35 125.224 35 125.5C35 125.776 34.7761 126 34.5 126H21.5C21.2239 126 21 125.776 21 125.5C21 125.224 21.2239 125 21.5 125H24V123.26C24 123.226 23.9979 123.102 24.0137 122.984C24.0333 122.838 24.0953 122.567 24.3311 122.331C24.5669 122.095 24.8381 122.033 24.9844 122.014C25.1015 121.998 25.2264 122 25.2598 122H25.7402ZM25.2598 123C25.1374 123 25.0761 123 25.0381 123.038C25 123.076 25 123.137 25 123.26V125H26V123.26C26 123.137 26 123.076 25.9619 123.038C25.9429 123.019 25.9181 123.01 25.8828 123.005L25.7402 123H25.2598ZM30.2598 123C30.1374 123 30.0761 123 30.0381 123.038C30 123.076 30 123.137 30 123.26V125H31V123.26C31 123.137 31 123.076 30.9619 123.038C30.9429 123.019 30.9181 123.01 30.8828 123.005L30.7402 123H30.2598Z" fill="currentColor"/>
  <path d="M34.5 112C34.7761 112 35 112.224 35 112.5C35 112.776 34.7761 113 34.5 113H32V114.74C32 114.774 32.0021 114.898 31.9863 115.016C31.9667 115.162 31.9047 115.433 31.6689 115.669C31.4331 115.905 31.1619 115.967 31.0156 115.986C30.8985 116.002 30.7736 116 30.7402 116H30.2598C30.2264 116 30.1015 116.002 29.9844 115.986C29.8381 115.967 29.5669 115.905 29.3311 115.669C29.0952 115.433 29.0333 115.162 29.0137 115.016C28.9979 114.898 29 114.774 29 114.74V113H27V114.74C27 114.774 27.0021 114.898 26.9863 115.016C26.9667 115.162 26.9047 115.433 26.6689 115.669C26.4331 115.905 26.1619 115.967 26.0156 115.986C25.8985 116.002 25.7736 116 25.7402 116H25.2598C25.2264 116 25.1015 116.002 24.9844 115.986C24.8381 115.967 24.5669 115.905 24.3311 115.669C24.0952 115.433 24.0333 115.162 24.0137 115.016C23.9979 114.898 24 114.774 24 114.74V113H21.5C21.2239 113 21 112.776 21 112.5C21 112.224 21.2239 112 21.5 112H34.5ZM25 114.74C25 114.863 25 114.924 25.0381 114.962C25.0571 114.981 25.0819 114.99 25.1172 114.995L25.2598 115H25.7402C25.8626 115 25.9239 115 25.9619 114.962C26 114.924 26 114.863 26 114.74V113H25V114.74ZM30 114.74C30 114.863 30 114.924 30.0381 114.962C30.0571 114.981 30.0819 114.99 30.1172 114.995L30.2598 115H30.7402C30.8626 115 30.9239 115 30.9619 114.962C31 114.924 31 114.863 31 114.74V113H30V114.74Z" fill="currentColor"/>
</svg>
