<svg xmlns="http://www.w3.org/2000/svg" width="16" height="16" viewBox="22.0 112.0 15.0 15.0" fill="none">
  <path d="M34.4998 113C34.776 113 34.9998 113.224 34.9998 113.5V125.5C34.9998 125.776 34.776 126 34.4998 126C34.2237 126 33.9998 125.776 33.9998 125.5V113.5C33.9998 113.224 34.2237 113 34.4998 113Z" fill="currentColor"/>
  <path d="M26.7401 120C26.7734 120 26.8983 119.998 27.0155 120.014C27.1618 120.033 27.433 120.095 27.6688 120.331C27.9046 120.567 27.9665 120.838 27.9862 120.984C28.0019 121.102 27.9999 121.226 27.9998 121.26V122.74C27.9999 122.774 28.0019 122.898 27.9862 123.016C27.9665 123.162 27.9046 123.433 27.6688 123.669C27.433 123.905 27.1618 123.967 27.0155 123.986C26.8983 124.002 26.7734 124 26.7401 124H25.2596C25.2261 124 25.1013 124.002 24.9842 123.986C24.8379 123.967 24.5667 123.905 24.3309 123.669C24.0951 123.433 24.0332 123.162 24.0135 123.016C23.9978 122.898 23.9998 122.774 23.9998 122.74V121.26C23.9998 121.226 23.9978 121.102 24.0135 120.984C24.0332 120.838 24.0951 120.567 24.3309 120.331C24.5667 120.095 24.8379 120.033 24.9842 120.014C25.1013 119.998 25.2261 120 25.2596 120H26.7401ZM25.2596 121C25.1373 121 25.076 121 25.0379 121.038C24.9999 121.076 24.9998 121.137 24.9998 121.26V122.74L25.0047 122.883C25.0095 122.918 25.019 122.943 25.0379 122.962C25.076 123 25.1373 123 25.2596 123H26.7401L26.8827 122.995C26.9179 122.99 26.9428 122.981 26.9618 122.962C26.9808 122.943 26.9902 122.918 26.995 122.883L26.9998 122.74V121.26C26.9998 121.137 26.9998 121.076 26.9618 121.038C26.9428 121.019 26.9179 121.01 26.8827 121.005L26.7401 121H25.2596Z" fill="currentColor"/>
  <path d="M31.7401 120C31.7734 120 31.8983 119.998 32.0155 120.014C32.1618 120.033 32.433 120.095 32.6688 120.331C32.9046 120.567 32.9665 120.838 32.9862 120.984C33.0019 121.102 32.9999 121.226 32.9998 121.26V122.74C32.9999 122.774 33.0019 122.898 32.9862 123.016C32.9665 123.162 32.9046 123.433 32.6688 123.669C32.433 123.905 32.1618 123.967 32.0155 123.986C31.8983 124.002 31.7734 124 31.7401 124H30.2596C30.2261 124 30.1013 124.002 29.9842 123.986C29.8379 123.967 29.5667 123.905 29.3309 123.669C29.0951 123.433 29.0332 123.162 29.0135 123.016C28.9978 122.898 28.9998 122.774 28.9998 122.74V121.26C28.9998 121.226 28.9978 121.102 29.0135 120.984C29.0332 120.838 29.0951 120.567 29.3309 120.331C29.5667 120.095 29.8379 120.033 29.9842 120.014C30.1013 119.998 30.2261 120 30.2596 120H31.7401ZM30.2596 121C30.1373 121 30.076 121 30.0379 121.038C29.9999 121.076 29.9998 121.137 29.9998 121.26V122.74L30.0047 122.883C30.0095 122.918 30.019 122.943 30.0379 122.962C30.076 123 30.1373 123 30.2596 123H31.7401L31.8827 122.995C31.9179 122.99 31.9428 122.981 31.9618 122.962C31.9808 122.943 31.9902 122.918 31.995 122.883L31.9998 122.74V121.26C31.9998 121.137 31.9998 121.076 31.9618 121.038C31.9428 121.019 31.9179 121.01 31.8827 121.005L31.7401 121H30.2596Z" fill="currentColor"/>
  <path d="M26.7401 115C26.7734 115 26.8983 114.998 27.0155 115.014C27.1618 115.033 27.433 115.095 27.6688 115.331C27.9046 115.567 27.9665 115.838 27.9862 115.984C28.0019 116.102 27.9999 116.226 27.9998 116.26V117.74C27.9999 117.774 28.0019 117.898 27.9862 118.016C27.9665 118.162 27.9046 118.433 27.6688 118.669C27.433 118.905 27.1618 118.967 27.0155 118.986C26.8983 119.002 26.7734 119 26.7401 119H25.2596C25.2261 119 25.1013 119.002 24.9842 118.986C24.8379 118.967 24.5667 118.905 24.3309 118.669C24.0951 118.433 24.0332 118.162 24.0135 118.016C23.9978 117.898 23.9998 117.774 23.9998 117.74V116.26C23.9998 116.226 23.9978 116.102 24.0135 115.984C24.0332 115.838 24.0951 115.567 24.3309 115.331C24.5667 115.095 24.8379 115.033 24.9842 115.014C25.1013 114.998 25.2261 115 25.2596 115H26.7401ZM25.2596 116C25.1373 116 25.076 116 25.0379 116.038C24.9999 116.076 24.9998 116.137 24.9998 116.26V117.74L25.0047 117.883C25.0095 117.918 25.019 117.943 25.0379 117.962C25.076 118 25.1373 118 25.2596 118H26.7401L26.8827 117.995C26.9179 117.99 26.9428 117.981 26.9618 117.962C26.9808 117.943 26.9902 117.918 26.995 117.883L26.9998 117.74V116.26C26.9998 116.137 26.9998 116.076 26.9618 116.038C26.9428 116.019 26.9179 116.01 26.8827 116.005L26.7401 116H25.2596Z" fill="currentColor"/>
  <path d="M31.7401 115C31.7734 115 31.8983 114.998 32.0155 115.014C32.1618 115.033 32.433 115.095 32.6688 115.331C32.9046 115.567 32.9665 115.838 32.9862 115.984C33.0019 116.102 32.9999 116.226 32.9998 116.26V117.74C32.9999 117.774 33.0019 117.898 32.9862 118.016C32.9665 118.162 32.9046 118.433 32.6688 118.669C32.433 118.905 32.1618 118.967 32.0155 118.986C31.8983 119.002 31.7734 119 31.7401 119H30.2596C30.2261 119 30.1013 119.002 29.9842 118.986C29.8379 118.967 29.5667 118.905 29.3309 118.669C29.0951 118.433 29.0332 118.162 29.0135 118.016C28.9978 117.898 28.9998 117.774 28.9998 117.74V116.26C28.9998 116.226 28.9978 116.102 29.0135 115.984C29.0332 115.838 29.0951 115.567 29.3309 115.331C29.5667 115.095 29.8379 115.033 29.9842 115.014C30.1013 114.998 30.2261 115 30.2596 115H31.7401ZM30.2596 116C30.1373 116 30.076 116 30.0379 116.038C29.9999 116.076 29.9998 116.137 29.9998 116.26V117.74L30.0047 117.883C30.0095 117.918 30.019 117.943 30.0379 117.962C30.076 118 30.1373 118 30.2596 118H31.7401L31.8827 117.995C31.9179 117.99 31.9428 117.981 31.9618 117.962C31.9808 117.943 31.9902 117.918 31.995 117.883L31.9998 117.74V116.26C31.9998 116.137 31.9998 116.076 31.9618 116.038C31.9428 116.019 31.9179 116.01 31.8827 116.005L31.7401 116H30.2596Z" fill="currentColor"/>
</svg>
