<svg xmlns="http://www.w3.org/2000/svg" width="16" height="16" viewBox="20.0 111.0 16.0 16.0" fill="none">
  <path d="M34.5 125C34.7761 125 35 125.224 35 125.5C35 125.776 34.7761 126 34.5 126H21.5C21.2239 126 21 125.776 21 125.5C21 125.224 21.2239 125 21.5 125H34.5Z" fill="currentColor"/>
  <path d="M25 114C25.2074 114 25.4634 113.998 25.6816 114.027C25.9287 114.061 26.2706 114.149 26.5605 114.439C26.8505 114.729 26.9394 115.071 26.9727 115.318C27.002 115.537 27 115.793 27 116V122C27 122.207 27.002 122.463 26.9727 122.682C26.9394 122.929 26.8505 123.271 26.5605 123.561C26.2706 123.851 25.9287 123.939 25.6816 123.973C25.4634 124.002 25.2074 124 25 124C24.7926 124 24.5366 124.002 24.3184 123.973C24.0713 123.939 23.7294 123.851 23.4395 123.561C23.1495 123.271 23.0606 122.929 23.0273 122.682C22.998 122.463 23 122.207 23 122V116C23 115.793 22.998 115.537 23.0273 115.318C23.0606 115.071 23.1495 114.729 23.4395 114.439C23.7294 114.149 24.0713 114.061 24.3184 114.027C24.5366 113.998 24.7926 114 25 114ZM25 115C24.5286 115 24.2929 115 24.1465 115.146C24 115.293 24 115.529 24 116V122C24 122.471 24 122.707 24.1465 122.854C24.2929 123 24.5286 123 25 123C25.4714 123 25.7071 123 25.8535 122.854C26 122.707 26 122.471 26 122V116C26 115.529 26 115.293 25.8535 115.146C25.7071 115 25.4714 115 25 115Z" fill="currentColor"/>
  <path d="M31 114C31.2074 114 31.4634 113.998 31.6816 114.027C31.9287 114.061 32.2706 114.149 32.5605 114.439C32.8505 114.729 32.9394 115.071 32.9727 115.318C33.002 115.537 33 115.793 33 116V122C33 122.207 33.002 122.463 32.9727 122.682C32.9394 122.929 32.8505 123.271 32.5605 123.561C32.2706 123.851 31.9287 123.939 31.6816 123.973C31.4634 124.002 31.2074 124 31 124C30.7926 124 30.5366 124.002 30.3184 123.973C30.0713 123.939 29.7294 123.851 29.4395 123.561C29.1495 123.271 29.0606 122.929 29.0273 122.682C28.998 122.463 29 122.207 29 122V116C29 115.793 28.998 115.537 29.0273 115.318C29.0606 115.071 29.1495 114.729 29.4395 114.439C29.7294 114.149 30.0713 114.061 30.3184 114.027C30.5366 113.998 30.7926 114 31 114ZM31 115C30.5286 115 30.2929 115 30.1465 115.146C30 115.293 30 115.529 30 116V122C30 122.471 30 122.707 30.1465 122.854C30.2929 123 30.5286 123 31 123C31.4714 123 31.7071 123 31.8535 122.854C32 122.707 32 122.471 32 122V116C32 115.529 32 115.293 31.8535 115.146C31.7071 115 31.4714 115 31 115Z" fill="currentColor"/>
  <path d="M34.5 112C34.7761 112 35 112.224 35 112.5C35 112.776 34.7761 113 34.5 113H21.5C21.2239 113 21 112.776 21 112.5C21 112.224 21.2239 112 21.5 112H34.5Z" fill="currentColor"/>
</svg>
