<svg xmlns="http://www.w3.org/2000/svg" width="16" height="16" viewBox="20.0 111.5 16.0 16.0" fill="none">
  <path d="M31 115C31.2074 115 31.4634 114.998 31.6816 115.027C31.9287 115.061 32.2706 115.149 32.5605 115.439C32.8505 115.729 32.9394 116.071 32.9727 116.318C33.002 116.537 33 116.793 33 117V119H34.5C34.7761 119 35 119.224 35 119.5C35 119.776 34.7761 120 34.5 120H33C33 120.207 33.002 120.463 32.9727 120.682C32.9394 120.929 32.8505 121.271 32.5605 121.561C32.2706 121.851 31.9287 121.939 31.6816 121.973C31.4634 122.002 31.2074 122 31 122C30.7926 122 30.5366 122.002 30.3184 121.973C30.0713 121.939 29.7294 121.851 29.4395 121.561C29.1495 121.271 29.0606 120.929 29.0273 120.682C28.998 120.463 29 120.207 29 120H27V122C27 122.207 27.002 122.463 26.9727 122.682C26.9394 122.929 26.8505 123.271 26.5605 123.561C26.2706 123.851 25.9287 123.939 25.6816 123.973C25.4634 124.002 25.2074 124 25 124C24.7926 124 24.5366 124.002 24.3184 123.973C24.0713 123.939 23.7294 123.851 23.4395 123.561C23.1495 123.271 23.0606 122.929 23.0273 122.682C22.998 122.463 23 122.207 23 122V120H21.5C21.2239 120 21 119.776 21 119.5C21 119.224 21.2239 119 21.5 119H23V117C23 116.793 22.998 116.537 23.0273 116.318C23.0606 116.071 23.1495 115.729 23.4395 115.439C23.7294 115.149 24.0713 115.061 24.3184 115.027C24.5366 114.998 24.7926 115 25 115C25.2074 115 25.4634 114.998 25.6816 115.027C25.9287 115.061 26.2706 115.149 26.5605 115.439C26.8505 115.729 26.9394 116.071 26.9727 116.318C27.002 116.537 27 116.793 27 117V119H29V117C29 116.793 28.998 116.537 29.0273 116.318C29.0606 116.071 29.1495 115.729 29.4395 115.439C29.7294 115.149 30.0713 115.061 30.3184 115.027C30.5366 114.998 30.7926 115 31 115ZM31 116C30.5286 116 30.2929 116 30.1465 116.147C30 116.293 30 116.529 30 117V119H32V117C32 116.529 32 116.293 31.8535 116.147C31.7071 116 31.4714 116 31 116ZM25 116C24.5286 116 24.2929 116 24.1465 116.147C24 116.293 24 116.529 24 117V119H26V117C26 116.529 26 116.293 25.8535 116.147C25.7071 116 25.4714 116 25 116Z" fill="currentColor"/>
</svg>
