<svg xmlns="http://www.w3.org/2000/svg" width="16" height="16" viewBox="21.0 112.0 15.0 15.0" fill="none">
  <path d="M28.4998 113C28.776 113 28.9998 113.224 28.9998 113.5V125.5C28.9998 125.776 28.776 126 28.4998 126C28.2237 126 27.9998 125.776 27.9998 125.5V113.5C27.9998 113.224 28.2237 113 28.4998 113Z" fill="currentColor"/>
  <path d="M25.7401 120C25.7734 120 25.8983 119.998 26.0155 120.014C26.1618 120.033 26.433 120.095 26.6688 120.331C26.9046 120.567 26.9665 120.838 26.9862 120.984C27.0019 121.102 26.9999 121.226 26.9998 121.26V122.74C26.9999 122.774 27.0019 122.898 26.9862 123.016C26.9665 123.162 26.9046 123.433 26.6688 123.669C26.433 123.905 26.1618 123.967 26.0155 123.986C25.8983 124.002 25.7734 124 25.7401 124H24.2596C24.2261 124 24.1013 124.002 23.9842 123.986C23.8379 123.967 23.5667 123.905 23.3309 123.669C23.0951 123.433 23.0332 123.162 23.0135 123.016C22.9978 122.898 22.9998 122.774 22.9998 122.74V121.26C22.9998 121.226 22.9978 121.102 23.0135 120.984C23.0332 120.838 23.0951 120.567 23.3309 120.331C23.5667 120.095 23.8379 120.033 23.9842 120.014C24.1013 119.998 24.2261 120 24.2596 120H25.7401ZM24.2596 121C24.1373 121 24.076 121 24.0379 121.038C24.019 121.057 24.0095 121.082 24.0047 121.117L23.9998 121.26V122.74C23.9998 122.863 23.9999 122.924 24.0379 122.962C24.076 123 24.1373 123 24.2596 123H25.7401L25.8827 122.995C25.9179 122.99 25.9428 122.981 25.9618 122.962C25.9998 122.924 25.9998 122.863 25.9998 122.74V121.26L25.995 121.117C25.9902 121.082 25.9808 121.057 25.9618 121.038C25.9428 121.019 25.9179 121.01 25.8827 121.005L25.7401 121H24.2596Z" fill="currentColor"/>
  <path d="M32.7401 120C32.7734 120 32.8983 119.998 33.0155 120.014C33.1618 120.033 33.433 120.095 33.6688 120.331C33.9046 120.567 33.9665 120.838 33.9862 120.984C34.0019 121.102 33.9999 121.226 33.9998 121.26V122.74C33.9999 122.774 34.0019 122.898 33.9862 123.016C33.9665 123.162 33.9046 123.433 33.6688 123.669C33.433 123.905 33.1618 123.967 33.0155 123.986C32.8983 124.002 32.7734 124 32.7401 124H31.2596C31.2261 124 31.1013 124.002 30.9842 123.986C30.8379 123.967 30.5667 123.905 30.3309 123.669C30.0951 123.433 30.0332 123.162 30.0135 123.016C29.9978 122.898 29.9998 122.774 29.9998 122.74V121.26C29.9998 121.226 29.9978 121.102 30.0135 120.984C30.0332 120.838 30.0951 120.567 30.3309 120.331C30.5667 120.095 30.8379 120.033 30.9842 120.014C31.1013 119.998 31.2261 120 31.2596 120H32.7401ZM30.9998 122.74C30.9998 122.863 30.9999 122.924 31.0379 122.962C31.076 123 31.1373 123 31.2596 123H32.7401L32.8827 122.995C32.9179 122.99 32.9428 122.981 32.9618 122.962C32.9998 122.924 32.9998 122.863 32.9998 122.74V121.26L32.995 121.117C32.9902 121.082 32.9808 121.057 32.9618 121.038C32.9428 121.019 32.9179 121.01 32.8827 121.005L32.7401 121H31.2596C31.1373 121 31.076 121 31.0379 121.038C31.019 121.057 31.0095 121.082 31.0047 121.117L30.9998 121.26V122.74Z" fill="currentColor"/>
  <path d="M25.7401 115C25.7734 115 25.8983 114.998 26.0155 115.014C26.1618 115.033 26.433 115.095 26.6688 115.331C26.9046 115.567 26.9665 115.838 26.9862 115.984C27.0019 116.102 26.9999 116.226 26.9998 116.26V117.74C26.9999 117.774 27.0019 117.898 26.9862 118.016C26.9665 118.162 26.9046 118.433 26.6688 118.669C26.433 118.905 26.1618 118.967 26.0155 118.986C25.8983 119.002 25.7734 119 25.7401 119H24.2596C24.2261 119 24.1013 119.002 23.9842 118.986C23.8379 118.967 23.5667 118.905 23.3309 118.669C23.0951 118.433 23.0332 118.162 23.0135 118.016C22.9978 117.898 22.9998 117.774 22.9998 117.74V116.26C22.9998 116.226 22.9978 116.102 23.0135 115.984C23.0332 115.838 23.0951 115.567 23.3309 115.331C23.5667 115.095 23.8379 115.033 23.9842 115.014C24.1013 114.998 24.2261 115 24.2596 115H25.7401ZM24.2596 116C24.1373 116 24.076 116 24.0379 116.038C24.019 116.057 24.0095 116.082 24.0047 116.117L23.9998 116.26V117.74C23.9998 117.863 23.9999 117.924 24.0379 117.962C24.076 118 24.1373 118 24.2596 118H25.7401L25.8827 117.995C25.9179 117.99 25.9428 117.981 25.9618 117.962C25.9998 117.924 25.9998 117.863 25.9998 117.74V116.26L25.995 116.117C25.9902 116.082 25.9808 116.057 25.9618 116.038C25.9428 116.019 25.9179 116.01 25.8827 116.005L25.7401 116H24.2596Z" fill="currentColor"/>
  <path d="M32.7401 115C32.7734 115 32.8983 114.998 33.0155 115.014C33.1618 115.033 33.433 115.095 33.6688 115.331C33.9046 115.567 33.9665 115.838 33.9862 115.984C34.0019 116.102 33.9999 116.226 33.9998 116.26V117.74C33.9999 117.774 34.0019 117.898 33.9862 118.016C33.9665 118.162 33.9046 118.433 33.6688 118.669C33.433 118.905 33.1618 118.967 33.0155 118.986C32.8983 119.002 32.7734 119 32.7401 119H31.2596C31.2261 119 31.1013 119.002 30.9842 118.986C30.8379 118.967 30.5667 118.905 30.3309 118.669C30.0951 118.433 30.0332 118.162 30.0135 118.016C29.9978 117.898 29.9998 117.774 29.9998 117.74V116.26C29.9998 116.226 29.9978 116.102 30.0135 115.984C30.0332 115.838 30.0951 115.567 30.3309 115.331C30.5667 115.095 30.8379 115.033 30.9842 115.014C31.1013 114.998 31.2261 115 31.2596 115H32.7401ZM31.2596 116C31.1373 116 31.076 116 31.0379 116.038C31.019 116.057 31.0095 116.082 31.0047 116.117L30.9998 116.26V117.74C30.9998 117.863 30.9999 117.924 31.0379 117.962C31.076 118 31.1373 118 31.2596 118H32.7401L32.8827 117.995C32.9179 117.99 32.9428 117.981 32.9618 117.962C32.9998 117.924 32.9998 117.863 32.9998 117.74V116.26L32.995 116.117C32.9902 116.082 32.9808 116.057 32.9618 116.038C32.9428 116.019 32.9179 116.01 32.8827 116.005L32.7401 116H31.2596Z" fill="currentColor"/>
</svg>
