<svg xmlns="http://www.w3.org/2000/svg" width="16" height="16" viewBox="20.0 111.0 16.0 16.0" fill="none">
  <path d="M34.5 125C34.7761 125 35 125.224 35 125.5C35 125.776 34.7761 126 34.5 126H21.5C21.2239 126 21 125.776 21 125.5C21 125.224 21.2239 125 21.5 125H34.5Z" fill="currentColor"/>
  <path d="M25.75 120C25.7807 120 25.9043 119.998 26.0205 120.014C26.1473 120.031 26.37 120.08 26.5811 120.249L26.6709 120.329L26.751 120.419C26.9204 120.63 26.9693 120.853 26.9863 120.979C27.0019 121.096 27 121.219 27 121.25V121.75C27 121.781 27.0019 121.904 26.9863 122.021C26.9668 122.165 26.9059 122.436 26.6709 122.671C26.4359 122.906 26.1655 122.967 26.0205 122.986C25.9043 123.002 25.7807 123 25.75 123H25.25C25.2193 123 25.0957 123.002 24.9795 122.986C24.8345 122.967 24.5641 122.906 24.3291 122.671C24.0941 122.436 24.0332 122.165 24.0137 122.021C23.9981 121.904 24 121.781 24 121.75V121.25C24 121.219 23.9981 121.096 24.0137 120.979C24.0332 120.835 24.0941 120.564 24.3291 120.329L24.4189 120.249C24.63 120.08 24.8527 120.031 24.9795 120.014C25.0957 119.998 25.2193 120 25.25 120H25.75ZM25 121.75C25 121.868 24.9995 121.927 25.0361 121.964C25.0727 122 25.1321 122 25.25 122H25.75C25.8388 122 25.8941 122 25.9316 121.984L25.9639 121.964C26.0005 121.927 26 121.868 26 121.75V121.25C26 121.132 26.0005 121.073 25.9639 121.036C25.9273 121 25.8679 121 25.75 121H25.25C25.1321 121 25.0727 121 25.0361 121.036C24.9995 121.073 25 121.132 25 121.25V121.75Z" fill="currentColor"/>
  <path d="M30.75 120C30.7807 120 30.9043 119.998 31.0205 120.014C31.1473 120.031 31.37 120.08 31.5811 120.249L31.6709 120.329L31.751 120.419C31.9204 120.63 31.9693 120.853 31.9863 120.979C32.0019 121.096 32 121.219 32 121.25V121.75C32 121.781 32.0019 121.904 31.9863 122.021C31.9668 122.165 31.9059 122.436 31.6709 122.671C31.4359 122.906 31.1655 122.967 31.0205 122.986C30.9043 123.002 30.7807 123 30.75 123H30.25C30.2193 123 30.0957 123.002 29.9795 122.986C29.8345 122.967 29.5641 122.906 29.3291 122.671C29.0941 122.436 29.0332 122.165 29.0137 122.021C28.9981 121.904 29 121.781 29 121.75V121.25C29 121.219 28.9981 121.096 29.0137 120.979C29.0332 120.835 29.0941 120.564 29.3291 120.329L29.4189 120.249C29.63 120.08 29.8527 120.031 29.9795 120.014C30.0957 119.998 30.2193 120 30.25 120H30.75ZM30.25 121C30.1321 121 30.0727 121 30.0361 121.036C29.9995 121.073 30 121.132 30 121.25V121.75C30 121.868 29.9995 121.927 30.0361 121.964C30.0727 122 30.1321 122 30.25 122H30.75C30.8388 122 30.8941 122 30.9316 121.984L30.9639 121.964C31.0005 121.927 31 121.868 31 121.75V121.25C31 121.132 31.0005 121.073 30.9639 121.036C30.9273 121 30.8679 121 30.75 121H30.25Z" fill="currentColor"/>
  <path d="M25.75 115C25.7807 115 25.9043 114.998 26.0205 115.014C26.1473 115.031 26.37 115.08 26.5811 115.249L26.6709 115.329L26.751 115.419C26.9204 115.63 26.9693 115.853 26.9863 115.979C27.0019 116.096 27 116.219 27 116.25V116.75C27 116.781 27.0019 116.904 26.9863 117.021C26.9668 117.165 26.9059 117.436 26.6709 117.671C26.4359 117.906 26.1655 117.967 26.0205 117.986C25.9043 118.002 25.7807 118 25.75 118H25.25C25.2193 118 25.0957 118.002 24.9795 117.986C24.8345 117.967 24.5641 117.906 24.3291 117.671C24.0941 117.436 24.0332 117.165 24.0137 117.021C23.9981 116.904 24 116.781 24 116.75V116.25C24 116.219 23.9981 116.096 24.0137 115.979C24.0332 115.835 24.0941 115.564 24.3291 115.329L24.4189 115.249C24.63 115.08 24.8527 115.031 24.9795 115.014C25.0957 114.998 25.2193 115 25.25 115H25.75ZM25.25 116C25.1321 116 25.0727 116 25.0361 116.036C24.9995 116.073 25 116.132 25 116.25V116.75C25 116.868 24.9995 116.927 25.0361 116.964C25.0727 117 25.1321 117 25.25 117H25.75C25.8388 117 25.8941 117 25.9316 116.984L25.9639 116.964C26.0005 116.927 26 116.868 26 116.75V116.25C26 116.132 26.0005 116.073 25.9639 116.036C25.9273 116 25.8679 116 25.75 116H25.25Z" fill="currentColor"/>
  <path d="M30.75 115C30.7807 115 30.9043 114.998 31.0205 115.014C31.1473 115.031 31.37 115.08 31.5811 115.249L31.6709 115.329L31.751 115.419C31.9204 115.63 31.9693 115.853 31.9863 115.979C32.0019 116.096 32 116.219 32 116.25V116.75C32 116.781 32.0019 116.904 31.9863 117.021C31.9668 117.165 31.9059 117.436 31.6709 117.671C31.4359 117.906 31.1655 117.967 31.0205 117.986C30.9043 118.002 30.7807 118 30.75 118H30.25C30.2193 118 30.0957 118.002 29.9795 117.986C29.8345 117.967 29.5641 117.906 29.3291 117.671C29.0941 117.436 29.0332 117.165 29.0137 117.021C28.9981 116.904 29 116.781 29 116.75V116.25C29 116.219 28.9981 116.096 29.0137 115.979C29.0332 115.835 29.0941 115.564 29.3291 115.329L29.4189 115.249C29.63 115.08 29.8527 115.031 29.9795 115.014C30.0957 114.998 30.2193 115 30.25 115H30.75ZM30.25 116C30.1321 116 30.0727 116 30.0361 116.036C29.9995 116.073 30 116.132 30 116.25V116.75C30 116.868 29.9995 116.927 30.0361 116.964C30.0727 117 30.1321 117 30.25 117H30.75C30.8388 117 30.8941 117 30.9316 116.984L30.9639 116.964C31.0005 116.927 31 116.868 31 116.75V116.25C31 116.132 31.0005 116.073 30.9639 116.036C30.9273 116 30.8679 116 30.75 116H30.25Z" fill="currentColor"/>
  <path d="M34.5 112C34.7761 112 35 112.224 35 112.5C35 112.776 34.7761 113 34.5 113H21.5C21.2239 113 21 112.776 21 112.5C21 112.224 21.2239 112 21.5 112H34.5Z" fill="currentColor"/>
</svg>
