<svg xmlns="http://www.w3.org/2000/svg" width="16" height="16" viewBox="18.5 111.0 16.0 16.0" fill="none">
  <path d="M21.5 112C21.7761 112 22 112.224 22 112.5V125.5C22 125.776 21.7761 126 21.5 126C21.2239 126 21 125.776 21 125.5V112.5C21 112.224 21.2239 112 21.5 112Z" fill="currentColor"/>
  <path d="M28 120C28.2074 120 28.4634 119.998 28.6816 120.027C28.9287 120.061 29.2706 120.149 29.5605 120.439C29.8505 120.729 29.9394 121.071 29.9727 121.318C30.002 121.537 30 121.793 30 122C30 122.207 30.002 122.463 29.9727 122.682C29.9394 122.929 29.8505 123.271 29.5605 123.561C29.2706 123.851 28.9287 123.939 28.6816 123.973C28.4634 124.002 28.2074 124 28 124H25C24.7926 124 24.5366 124.002 24.3184 123.973C24.0713 123.939 23.7294 123.851 23.4395 123.561C23.1495 123.271 23.0606 122.929 23.0273 122.682C22.998 122.463 23 122.207 23 122C23 121.793 22.998 121.537 23.0273 121.318C23.0606 121.071 23.1495 120.729 23.4395 120.439C23.7294 120.149 24.0713 120.061 24.3184 120.027C24.5366 119.998 24.7926 120 25 120H28ZM25 121C24.5286 121 24.2929 121 24.1465 121.146C24 121.293 24 121.529 24 122C24 122.471 24 122.707 24.1465 122.854C24.2929 123 24.5286 123 25 123H28C28.4714 123 28.7071 123 28.8535 122.854C29 122.707 29 122.471 29 122C29 121.529 29 121.293 28.8535 121.146C28.7071 121 28.4714 121 28 121H25Z" fill="currentColor"/>
  <path d="M30 114C30.2074 114 30.4634 113.998 30.6816 114.027C30.9287 114.061 31.2706 114.149 31.5605 114.439C31.8505 114.729 31.9394 115.071 31.9727 115.318C32.002 115.537 32 115.793 32 116C32 116.207 32.002 116.463 31.9727 116.682C31.9394 116.929 31.8505 117.271 31.5605 117.561C31.2706 117.851 30.9287 117.939 30.6816 117.973C30.4634 118.002 30.2074 118 30 118H25C24.7926 118 24.5366 118.002 24.3184 117.973C24.0713 117.939 23.7294 117.851 23.4395 117.561C23.1495 117.271 23.0606 116.929 23.0273 116.682C22.998 116.463 23 116.207 23 116C23 115.793 22.998 115.537 23.0273 115.318C23.0606 115.071 23.1495 114.729 23.4395 114.439C23.7294 114.149 24.0713 114.061 24.3184 114.027C24.5366 113.998 24.7926 114 25 114H30ZM25 115C24.5286 115 24.2929 115 24.1465 115.146C24 115.293 24 115.529 24 116C24 116.471 24 116.707 24.1465 116.854C24.2929 117 24.5286 117 25 117H30L30.3115 116.998C30.5836 116.991 30.7437 116.963 30.8535 116.854C31 116.707 31 116.471 31 116C31 115.529 31 115.293 30.8535 115.146C30.7071 115 30.4714 115 30 115H25Z" fill="currentColor"/>
</svg>
