<svg xmlns="http://www.w3.org/2000/svg" width="16" height="16" viewBox="20.0 111.0 16.0 16.0" fill="none">
  <path d="M25.5 120C25.5895 120 25.7571 119.998 25.9072 120.019C26.0862 120.043 26.3804 120.113 26.6338 120.366C26.8872 120.62 26.9574 120.914 26.9814 121.093C27.0016 121.243 27 121.41 27 121.5V125H29V121.5C29 121.41 28.9984 121.243 29.0186 121.093C29.0426 120.914 29.1128 120.62 29.3662 120.366C29.6196 120.113 29.9138 120.043 30.0928 120.019C30.2429 119.998 30.4105 120 30.5 120H31.5C31.5895 120 31.7571 119.998 31.9072 120.019C32.0862 120.043 32.3804 120.113 32.6338 120.366C32.8872 120.62 32.9574 120.914 32.9814 121.093C33.0016 121.243 33 121.41 33 121.5V125H34.5C34.7761 125 35 125.224 35 125.5C35 125.776 34.7761 126 34.5 126H21.5C21.2239 126 21 125.776 21 125.5C21 125.224 21.2239 125 21.5 125H23V121.5C23 121.41 22.9984 121.243 23.0186 121.093C23.0426 120.914 23.1128 120.62 23.3662 120.366C23.6196 120.113 23.9138 120.043 24.0928 120.019C24.2429 119.998 24.4105 120 24.5 120H25.5ZM24.5 121C24.2643 121 24.1465 121 24.0732 121.073C24 121.146 24 121.264 24 121.5V125H26V121.5C26 121.264 26 121.146 25.9268 121.073C25.8535 121 25.7357 121 25.5 121H24.5ZM30.5 121C30.2643 121 30.1465 121 30.0732 121.073C30 121.146 30 121.264 30 121.5V125H32V121.5C32 121.264 32 121.146 31.9268 121.073C31.8535 121 31.7357 121 31.5 121H30.5Z" fill="currentColor"/>
  <path d="M34.5 112C34.7761 112 35 112.224 35 112.5C35 112.776 34.7761 113 34.5 113H33V116.5C33 116.59 33.0016 116.757 32.9814 116.907C32.9574 117.086 32.8872 117.38 32.6338 117.634C32.3804 117.887 32.0862 117.957 31.9072 117.981C31.7571 118.002 31.5895 118 31.5 118H30.5C30.4105 118 30.2429 118.002 30.0928 117.981C29.9138 117.957 29.6196 117.887 29.3662 117.634C29.1128 117.38 29.0426 117.086 29.0186 116.907C28.9984 116.757 29 116.59 29 116.5V113H27V116.5C27 116.59 27.0016 116.757 26.9814 116.907C26.9574 117.086 26.8872 117.38 26.6338 117.634C26.3804 117.887 26.0862 117.957 25.9072 117.981C25.7571 118.002 25.5895 118 25.5 118H24.5C24.4105 118 24.2429 118.002 24.0928 117.981C23.9138 117.957 23.6196 117.887 23.3662 117.634C23.1128 117.38 23.0426 117.086 23.0186 116.907C22.9984 116.757 23 116.59 23 116.5V113H21.5C21.2239 113 21 112.776 21 112.5C21 112.224 21.2239 112 21.5 112H34.5ZM24 116.5C24 116.736 24 116.854 24.0732 116.927C24.1465 117 24.2643 117 24.5 117H25.5C25.7357 117 25.8535 117 25.9268 116.927C26 116.854 26 116.736 26 116.5V113H24V116.5ZM30 116.5C30 116.736 30 116.854 30.0732 116.927C30.1465 117 30.2643 117 30.5 117H31.5C31.7357 117 31.8535 117 31.9268 116.927C32 116.854 32 116.736 32 116.5V113H30V116.5Z" fill="currentColor"/>
</svg>
