<svg xmlns="http://www.w3.org/2000/svg" width="16" height="16" viewBox="21.0 112.0 15.0 15.0" fill="none">
  <path d="M26.7402 121C26.7736 121 26.8985 120.998 27.0156 121.014C27.1619 121.033 27.4331 121.095 27.6689 121.331C27.9047 121.567 27.9666 121.838 27.9863 121.984C28.002 122.101 28 122.226 28 122.26V123.74C28 123.773 28.002 123.898 27.9863 124.015C27.9667 124.162 27.9047 124.433 27.6689 124.669C27.4331 124.905 27.1619 124.967 27.0156 124.986C26.8985 125.002 26.7736 125 26.7402 125H25.2598C25.2264 125 25.1015 125.002 24.9844 124.986C24.8381 124.967 24.5669 124.905 24.3311 124.669C24.0953 124.433 24.0333 124.162 24.0137 124.015C23.998 123.898 24 123.773 24 123.74V122.26C24 122.226 23.998 122.101 24.0137 121.984C24.0334 121.838 24.0953 121.567 24.3311 121.331C24.5669 121.095 24.8381 121.033 24.9844 121.014C25.1015 120.998 25.2264 121 25.2598 121H26.7402ZM25.2598 122C25.1374 122 25.0761 122 25.0381 122.038C25 122.076 25 122.137 25 122.26V123.74L25.0049 123.883C25.0096 123.918 25.0191 123.943 25.0381 123.962C25.0761 124 25.1374 124 25.2598 124H26.7402L26.8828 123.995C26.9181 123.99 26.9429 123.981 26.9619 123.962C26.9809 123.943 26.9904 123.918 26.9951 123.883L27 123.74V122.26C27 122.137 27 122.076 26.9619 122.038C26.9429 122.019 26.9181 122.009 26.8828 122.005L26.7402 122H25.2598Z" fill="currentColor"/>
  <path d="M31.7402 121C31.7736 121 31.8985 120.998 32.0156 121.014C32.1619 121.033 32.4331 121.095 32.6689 121.331C32.9047 121.567 32.9666 121.838 32.9863 121.984C33.002 122.101 33 122.226 33 122.26V123.74C33 123.773 33.002 123.898 32.9863 124.015C32.9667 124.162 32.9047 124.433 32.6689 124.669C32.4331 124.905 32.1619 124.967 32.0156 124.986C31.8985 125.002 31.7736 125 31.7402 125H30.2598C30.2264 125 30.1015 125.002 29.9844 124.986C29.8381 124.967 29.5669 124.905 29.3311 124.669C29.0953 124.433 29.0333 124.162 29.0137 124.015C28.998 123.898 29 123.773 29 123.74V122.26C29 122.226 28.998 122.101 29.0137 121.984C29.0334 121.838 29.0953 121.567 29.3311 121.331C29.5669 121.095 29.8381 121.033 29.9844 121.014C30.1015 120.998 30.2264 121 30.2598 121H31.7402ZM30.2598 122C30.1374 122 30.0761 122 30.0381 122.038C30 122.076 30 122.137 30 122.26V123.74L30.0049 123.883C30.0096 123.918 30.0191 123.943 30.0381 123.962C30.0761 124 30.1374 124 30.2598 124H31.7402L31.8828 123.995C31.9181 123.99 31.9429 123.981 31.9619 123.962C31.9809 123.943 31.9904 123.918 31.9951 123.883L32 123.74V122.26C32 122.137 32 122.076 31.9619 122.038C31.9429 122.019 31.9181 122.009 31.8828 122.005L31.7402 122H30.2598Z" fill="currentColor"/>
  <path d="M34.5 119C34.7761 119 35 119.224 35 119.5C35 119.776 34.7761 120 34.5 120H22.5C22.2239 120 22 119.776 22 119.5C22 119.224 22.2239 119 22.5 119H34.5Z" fill="currentColor"/>
  <path d="M26.7402 114C26.7736 114 26.8985 113.998 27.0156 114.014C27.1619 114.033 27.4331 114.095 27.6689 114.331C27.9047 114.567 27.9666 114.838 27.9863 114.984C28.002 115.101 28 115.226 28 115.26V116.74C28 116.773 28.002 116.898 27.9863 117.015C27.9667 117.162 27.9047 117.433 27.6689 117.669C27.4331 117.905 27.1619 117.967 27.0156 117.986C26.8985 118.002 26.7736 118 26.7402 118H25.2598C25.2264 118 25.1015 118.002 24.9844 117.986C24.8381 117.967 24.5669 117.905 24.3311 117.669C24.0953 117.433 24.0333 117.162 24.0137 117.015C23.998 116.898 24 116.773 24 116.74V115.26C24 115.226 23.998 115.101 24.0137 114.984C24.0334 114.838 24.0953 114.567 24.3311 114.331C24.5669 114.095 24.8381 114.033 24.9844 114.014C25.1015 113.998 25.2264 114 25.2598 114H26.7402ZM25.2598 115C25.1374 115 25.0761 115 25.0381 115.038C25 115.076 25 115.137 25 115.26V116.74L25.0049 116.883C25.0096 116.918 25.0191 116.943 25.0381 116.962C25.0761 117 25.1374 117 25.2598 117H26.7402L26.8828 116.995C26.9181 116.99 26.9429 116.981 26.9619 116.962C26.9809 116.943 26.9904 116.918 26.9951 116.883L27 116.74V115.26C27 115.137 27 115.076 26.9619 115.038C26.9429 115.019 26.9181 115.009 26.8828 115.005L26.7402 115H25.2598Z" fill="currentColor"/>
  <path d="M31.7402 114C31.7736 114 31.8985 113.998 32.0156 114.014C32.1619 114.033 32.4331 114.095 32.6689 114.331C32.9047 114.567 32.9666 114.838 32.9863 114.984C33.002 115.101 33 115.226 33 115.26V116.74C33 116.773 33.002 116.898 32.9863 117.015C32.9667 117.162 32.9047 117.433 32.6689 117.669C32.4331 117.905 32.1619 117.967 32.0156 117.986C31.8985 118.002 31.7736 118 31.7402 118H30.2598C30.2264 118 30.1015 118.002 29.9844 117.986C29.8381 117.967 29.5669 117.905 29.3311 117.669C29.0953 117.433 29.0333 117.162 29.0137 117.015C28.998 116.898 29 116.773 29 116.74V115.26C29 115.226 28.998 115.101 29.0137 114.984C29.0334 114.838 29.0953 114.567 29.3311 114.331C29.5669 114.095 29.8381 114.033 29.9844 114.014C30.1015 113.998 30.2264 114 30.2598 114H31.7402ZM30.2598 115C30.1374 115 30.0761 115 30.0381 115.038C30 115.076 30 115.137 30 115.26V116.74L30.0049 116.883C30.0096 116.918 30.0191 116.943 30.0381 116.962C30.0761 117 30.1374 117 30.2598 117H31.7402L31.8828 116.995C31.9181 116.99 31.9429 116.981 31.9619 116.962C31.9809 116.943 31.9904 116.918 31.9951 116.883L32 116.74V115.26C32 115.137 32 115.076 31.9619 115.038C31.9429 115.019 31.9181 115.009 31.8828 115.005L31.7402 115H30.2598Z" fill="currentColor"/>
</svg>
