<svg xmlns="http://www.w3.org/2000/svg" width="16" height="16" viewBox="21.0 113.0 15.0 15.0" fill="none">
  <path d="M34.5 125C34.7761 125 35 125.224 35 125.5C35 125.776 34.7761 126 34.5 126H22.5C22.2239 126 22 125.776 22 125.5C22 125.224 22.2239 125 22.5 125H34.5Z" fill="currentColor"/>
  <path d="M26.7402 120C26.7736 120 26.8985 119.998 27.0156 120.014C27.1619 120.033 27.4331 120.095 27.6689 120.331C27.9047 120.567 27.9666 120.838 27.9863 120.984C28.002 121.101 28 121.226 28 121.26V122.74C28 122.773 28.002 122.898 27.9863 123.015C27.9667 123.162 27.9047 123.433 27.6689 123.669C27.4331 123.905 27.1619 123.967 27.0156 123.986C26.8985 124.002 26.7736 124 26.7402 124H25.2598C25.2264 124 25.1015 124.002 24.9844 123.986C24.8381 123.967 24.5669 123.905 24.3311 123.669C24.0953 123.433 24.0333 123.162 24.0137 123.015C23.998 122.898 24 122.773 24 122.74V121.26C24 121.226 23.998 121.101 24.0137 120.984C24.0334 120.838 24.0953 120.567 24.3311 120.331C24.5669 120.095 24.8381 120.033 24.9844 120.014C25.1015 119.998 25.2264 120 25.2598 120H26.7402ZM25.2598 121C25.1374 121 25.0761 121 25.0381 121.038C25 121.076 25 121.137 25 121.26V122.74L25.0049 122.883C25.0096 122.918 25.0191 122.943 25.0381 122.962C25.0761 123 25.1374 123 25.2598 123H26.7402L26.8828 122.995C26.9181 122.99 26.9429 122.981 26.9619 122.962C26.9809 122.943 26.9904 122.918 26.9951 122.883L27 122.74V121.26C27 121.137 27 121.076 26.9619 121.038C26.9429 121.019 26.9181 121.009 26.8828 121.005L26.7402 121H25.2598Z" fill="currentColor"/>
  <path d="M31.7402 120C31.7736 120 31.8985 119.998 32.0156 120.014C32.1619 120.033 32.4331 120.095 32.6689 120.331C32.9047 120.567 32.9666 120.838 32.9863 120.984C33.002 121.101 33 121.226 33 121.26V122.74C33 122.773 33.002 122.898 32.9863 123.015C32.9667 123.162 32.9047 123.433 32.6689 123.669C32.4331 123.905 32.1619 123.967 32.0156 123.986C31.8985 124.002 31.7736 124 31.7402 124H30.2598C30.2264 124 30.1015 124.002 29.9844 123.986C29.8381 123.967 29.5669 123.905 29.3311 123.669C29.0953 123.433 29.0333 123.162 29.0137 123.015C28.998 122.898 29 122.773 29 122.74V121.26C29 121.226 28.998 121.101 29.0137 120.984C29.0334 120.838 29.0953 120.567 29.3311 120.331C29.5669 120.095 29.8381 120.033 29.9844 120.014C30.1015 119.998 30.2264 120 30.2598 120H31.7402ZM30.2598 121C30.1374 121 30.0761 121 30.0381 121.038C30 121.076 30 121.137 30 121.26V122.74L30.0049 122.883C30.0096 122.918 30.0191 122.943 30.0381 122.962C30.0761 123 30.1374 123 30.2598 123H31.7402L31.8828 122.995C31.9181 122.99 31.9429 122.981 31.9619 122.962C31.9809 122.943 31.9904 122.918 31.9951 122.883L32 122.74V121.26C32 121.137 32 121.076 31.9619 121.038C31.9429 121.019 31.9181 121.009 31.8828 121.005L31.7402 121H30.2598Z" fill="currentColor"/>
  <path d="M26.7402 115C26.7736 115 26.8985 114.998 27.0156 115.014C27.1619 115.033 27.4331 115.095 27.6689 115.331C27.9047 115.567 27.9666 115.838 27.9863 115.984C28.002 116.101 28 116.226 28 116.26V117.74C28 117.773 28.002 117.898 27.9863 118.015C27.9667 118.162 27.9047 118.433 27.6689 118.669C27.4331 118.905 27.1619 118.967 27.0156 118.986C26.8985 119.002 26.7736 119 26.7402 119H25.2598C25.2264 119 25.1015 119.002 24.9844 118.986C24.8381 118.967 24.5669 118.905 24.3311 118.669C24.0953 118.433 24.0333 118.162 24.0137 118.015C23.998 117.898 24 117.773 24 117.74V116.26C24 116.226 23.998 116.101 24.0137 115.984C24.0334 115.838 24.0953 115.567 24.3311 115.331C24.5669 115.095 24.8381 115.033 24.9844 115.014C25.1015 114.998 25.2264 115 25.2598 115H26.7402ZM25.2598 116C25.1374 116 25.0761 116 25.0381 116.038C25 116.076 25 116.137 25 116.26V117.74L25.0049 117.883C25.0096 117.918 25.0191 117.943 25.0381 117.962C25.0761 118 25.1374 118 25.2598 118H26.7402L26.8828 117.995C26.9181 117.99 26.9429 117.981 26.9619 117.962C26.9809 117.943 26.9904 117.918 26.9951 117.883L27 117.74V116.26C27 116.137 27 116.076 26.9619 116.038C26.9429 116.019 26.9181 116.009 26.8828 116.005L26.7402 116H25.2598Z" fill="currentColor"/>
  <path d="M31.7402 115C31.7736 115 31.8985 114.998 32.0156 115.014C32.1619 115.033 32.4331 115.095 32.6689 115.331C32.9047 115.567 32.9666 115.838 32.9863 115.984C33.002 116.101 33 116.226 33 116.26V117.74C33 117.773 33.002 117.898 32.9863 118.015C32.9667 118.162 32.9047 118.433 32.6689 118.669C32.4331 118.905 32.1619 118.967 32.0156 118.986C31.8985 119.002 31.7736 119 31.7402 119H30.2598C30.2264 119 30.1015 119.002 29.9844 118.986C29.8381 118.967 29.5669 118.905 29.3311 118.669C29.0953 118.433 29.0333 118.162 29.0137 118.015C28.998 117.898 29 117.773 29 117.74V116.26C29 116.226 28.998 116.101 29.0137 115.984C29.0334 115.838 29.0953 115.567 29.3311 115.331C29.5669 115.095 29.8381 115.033 29.9844 115.014C30.1015 114.998 30.2264 115 30.2598 115H31.7402ZM30.2598 116C30.1374 116 30.0761 116 30.0381 116.038C30 116.076 30 116.137 30 116.26V117.74L30.0049 117.883C30.0096 117.918 30.0191 117.943 30.0381 117.962C30.0761 118 30.1374 118 30.2598 118H31.7402L31.8828 117.995C31.9181 117.99 31.9429 117.981 31.9619 117.962C31.9809 117.943 31.9904 117.918 31.9951 117.883L32 117.74V116.26C32 116.137 32 116.076 31.9619 116.038C31.9429 116.019 31.9181 116.009 31.8828 116.005L31.7402 116H30.2598Z" fill="currentColor"/>
</svg>
