<svg xmlns="http://www.w3.org/2000/svg" width="16" height="16" viewBox="20.5 111.0 16.0 16.0" fill="none">
  <path d="M28.5 112C28.7762 112 29 112.224 29 112.5V114H31C31.2074 114 31.4634 113.998 31.6817 114.027C31.9287 114.061 32.2706 114.149 32.5606 114.439C32.8506 114.729 32.9395 115.071 32.9727 115.318C33.002 115.537 33 115.793 33 116C33 116.207 33.002 116.463 32.9727 116.682C32.9395 116.929 32.8506 117.271 32.5606 117.561C32.2706 117.851 31.9287 117.939 31.6817 117.973C31.4634 118.002 31.2074 118 31 118H29V120C29.2074 120 29.4634 119.998 29.6817 120.027C29.9287 120.061 30.2706 120.149 30.5606 120.439C30.8506 120.729 30.9395 121.071 30.9727 121.318C31.002 121.537 31 121.793 31 122C31 122.207 31.002 122.463 30.9727 122.682C30.9395 122.929 30.8506 123.271 30.5606 123.561C30.2706 123.851 29.9287 123.939 29.6817 123.973C29.4634 124.002 29.2074 124 29 124V125.5C29 125.776 28.7762 126 28.5 126C28.2239 126 28 125.776 28 125.5V124H26C25.7927 124 25.5366 124.002 25.3184 123.973C25.0713 123.939 24.7295 123.851 24.4395 123.561C24.1495 123.271 24.0606 122.929 24.0274 122.682C23.9981 122.463 24 122.207 24 122C24 121.793 23.9981 121.537 24.0274 121.318C24.0606 121.071 24.1495 120.729 24.4395 120.439C24.7295 120.149 25.0713 120.061 25.3184 120.027C25.5366 119.998 25.7927 120 26 120H28V118H26C25.7927 118 25.5366 118.002 25.3184 117.973C25.0713 117.939 24.7295 117.851 24.4395 117.561C24.1495 117.271 24.0606 116.929 24.0274 116.682C23.9981 116.463 24 116.207 24 116C24 115.793 23.9981 115.537 24.0274 115.318C24.0606 115.071 24.1495 114.729 24.4395 114.439C24.7295 114.149 25.0713 114.061 25.3184 114.027C25.5366 113.998 25.7927 114 26 114H28V112.5C28 112.224 28.2239 112 28.5 112ZM26 121C25.5286 121 25.293 121 25.1465 121.146C25.0001 121.293 25 121.529 25 122C25 122.471 25.0001 122.707 25.1465 122.854C25.293 123 25.5286 123 26 123H28V121H26ZM26 115C25.5286 115 25.293 115 25.1465 115.146C25.0001 115.293 25 115.529 25 116C25 116.471 25.0001 116.707 25.1465 116.854C25.293 117 25.5286 117 26 117H28V115H26Z" fill="currentColor"/>
</svg>
