<svg xmlns="http://www.w3.org/2000/svg" width="16" height="16" viewBox="20.0 111.0 16.0 16.0" fill="none">
  <path d="M21.5 112C21.7761 112 22 112.224 22 112.5V114H25.5C25.5895 114 25.7571 113.998 25.9072 114.019C26.0862 114.043 26.3804 114.113 26.6338 114.366C26.8872 114.62 26.9574 114.914 26.9814 115.093C27.0016 115.243 27 115.41 27 115.5V116.5C27 116.59 27.0016 116.757 26.9814 116.907C26.9574 117.086 26.8872 117.38 26.6338 117.634C26.3804 117.887 26.0862 117.957 25.9072 117.981C25.7571 118.002 25.5895 118 25.5 118H22V120H25.5C25.5895 120 25.7571 119.998 25.9072 120.019C26.0862 120.043 26.3804 120.113 26.6338 120.366C26.8872 120.62 26.9574 120.914 26.9814 121.093C27.0016 121.243 27 121.41 27 121.5V122.5C27 122.59 27.0016 122.757 26.9814 122.907C26.9574 123.086 26.8872 123.38 26.6338 123.634C26.3804 123.887 26.0862 123.957 25.9072 123.981C25.7571 124.002 25.5895 124 25.5 124H22V125.5C22 125.776 21.7761 126 21.5 126C21.2239 126 21 125.776 21 125.5V112.5C21 112.224 21.2239 112 21.5 112ZM22 123H25.5C25.7357 123 25.8535 123 25.9268 122.927C26 122.854 26 122.736 26 122.5V121.5C26 121.264 26 121.146 25.9268 121.073C25.8535 121 25.7357 121 25.5 121H22V123ZM22 117H25.5C25.7357 117 25.8535 117 25.9268 116.927C26 116.854 26 116.736 26 116.5V115.5C26 115.264 26 115.146 25.9268 115.073C25.8535 115 25.7357 115 25.5 115H22V117Z" fill="currentColor"/>
  <path d="M34.5 112C34.7761 112 35 112.224 35 112.5V125.5C35 125.776 34.7761 126 34.5 126C34.2239 126 34 125.776 34 125.5V124H30.5C30.4105 124 30.2429 124.002 30.0928 123.981C29.9138 123.957 29.6196 123.887 29.3662 123.634C29.1128 123.38 29.0426 123.086 29.0186 122.907C28.9984 122.757 29 122.59 29 122.5V121.5C29 121.41 28.9984 121.243 29.0186 121.093C29.0426 120.914 29.1128 120.62 29.3662 120.366C29.6196 120.113 29.9138 120.043 30.0928 120.019C30.2429 119.998 30.4105 120 30.5 120H34V118H30.5C30.4105 118 30.2429 118.002 30.0928 117.981C29.9138 117.957 29.6196 117.887 29.3662 117.634C29.1128 117.38 29.0426 117.086 29.0186 116.907C28.9984 116.757 29 116.59 29 116.5V115.5C29 115.41 28.9984 115.243 29.0186 115.093C29.0426 114.914 29.1128 114.62 29.3662 114.366C29.6196 114.113 29.9138 114.043 30.0928 114.019C30.2429 113.998 30.4105 114 30.5 114H34V112.5C34 112.224 34.2239 112 34.5 112ZM30.5 121C30.2643 121 30.1465 121 30.0732 121.073C30 121.146 30 121.264 30 121.5V122.5C30 122.736 30 122.854 30.0732 122.927C30.1465 123 30.2643 123 30.5 123H34V121H30.5ZM30 116.5C30 116.736 30 116.854 30.0732 116.927C30.1465 117 30.2643 117 30.5 117H34V115H30.5C30.2643 115 30.1465 115 30.0732 115.073C30 115.146 30 115.264 30 115.5V116.5Z" fill="currentColor"/>
</svg>
