<svg xmlns="http://www.w3.org/2000/svg" width="16" height="16" viewBox="21.5 111.0 16.0 16.0" fill="none">
  <path d="M34.5 112C34.7762 112 35 112.224 35 112.5V125.5C35 125.776 34.7762 126 34.5 126C34.2239 126 34 125.776 34 125.5V112.5C34 112.224 34.2239 112 34.5 112Z" fill="currentColor"/>
  <path d="M31 120C31.2074 120 31.4634 119.998 31.6817 120.027C31.9287 120.061 32.2706 120.149 32.5606 120.439C32.8506 120.729 32.9395 121.071 32.9727 121.318C33.002 121.537 33 121.793 33 122C33 122.207 33.002 122.463 32.9727 122.682C32.9395 122.929 32.8506 123.271 32.5606 123.561C32.2706 123.851 31.9287 123.939 31.6817 123.973C31.4634 124.002 31.2074 124 31 124H28C27.7927 124 27.5366 124.002 27.3184 123.973C27.0713 123.939 26.7295 123.851 26.4395 123.561C26.1495 123.271 26.0606 122.929 26.0274 122.682C25.9981 122.463 26 122.207 26 122C26 121.793 25.9981 121.537 26.0274 121.318C26.0606 121.071 26.1495 120.729 26.4395 120.439C26.7295 120.149 27.0713 120.061 27.3184 120.027C27.5366 119.998 27.7927 120 28 120H31ZM28 121C27.5286 121 27.293 121 27.1465 121.146C27.0001 121.293 27 121.529 27 122C27 122.471 27.0001 122.707 27.1465 122.854C27.293 123 27.5286 123 28 123H31C31.4714 123 31.7071 123 31.8535 122.854C32 122.707 32 122.471 32 122C32 121.529 32 121.293 31.8535 121.146C31.7071 121 31.4714 121 31 121H28Z" fill="currentColor"/>
  <path d="M31 114C31.2074 114 31.4634 113.998 31.6817 114.027C31.9287 114.061 32.2706 114.149 32.5606 114.439C32.8506 114.729 32.9395 115.071 32.9727 115.318C33.002 115.537 33 115.793 33 116C33 116.207 33.002 116.463 32.9727 116.682C32.9395 116.929 32.8506 117.271 32.5606 117.561C32.2706 117.851 31.9287 117.939 31.6817 117.973C31.4634 118.002 31.2074 118 31 118H26C25.7927 118 25.5366 118.002 25.3184 117.973C25.0713 117.939 24.7295 117.851 24.4395 117.561C24.1495 117.271 24.0606 116.929 24.0274 116.682C23.9981 116.463 24 116.207 24 116C24 115.793 23.9981 115.537 24.0274 115.318C24.0606 115.071 24.1495 114.729 24.4395 114.439C24.7295 114.149 25.0713 114.061 25.3184 114.027C25.5366 113.998 25.7927 114 26 114H31ZM26 115C25.5286 115 25.293 115 25.1465 115.146C25.0001 115.293 25 115.529 25 116C25 116.471 25.0001 116.707 25.1465 116.854C25.293 117 25.5286 117 26 117H31L31.3116 116.998C31.5836 116.991 31.7437 116.963 31.8535 116.854C32 116.707 32 116.471 32 116C32 115.529 32 115.293 31.8535 115.146C31.7071 115 31.4714 115 31 115H26Z" fill="currentColor"/>
</svg>
