<svg xmlns="http://www.w3.org/2000/svg" width="16" height="16" viewBox="20.0 111.0 16.0 16.0" fill="none">
  <path d="M21.5 112C21.7761 112 22 112.224 22 112.5V125.5C22 125.776 21.7761 126 21.5 126C21.2239 126 21 125.776 21 125.5V112.5C21 112.224 21.2239 112 21.5 112Z" fill="currentColor"/>
  <path d="M34.5 112C34.7761 112 35 112.224 35 112.5V125.5C35 125.776 34.7761 126 34.5 126C34.2239 126 34 125.776 34 125.5V112.5C34 112.224 34.2239 112 34.5 112Z" fill="currentColor"/>
  <path d="M25.75 120C25.7807 120 25.9043 119.998 26.0205 120.014C26.1655 120.033 26.4359 120.094 26.6709 120.329L26.751 120.419C26.9204 120.63 26.9693 120.853 26.9863 120.979C27.0019 121.096 27 121.219 27 121.25V121.75C27 121.781 27.0019 121.904 26.9863 122.021C26.9693 122.147 26.9204 122.37 26.751 122.581L26.6709 122.671L26.5811 122.751C26.37 122.92 26.1473 122.969 26.0205 122.986C25.9043 123.002 25.7807 123 25.75 123H25.25C25.2193 123 25.0957 123.002 24.9795 122.986C24.8345 122.967 24.5641 122.906 24.3291 122.671C24.0941 122.436 24.0332 122.165 24.0137 122.021C23.9981 121.904 24 121.781 24 121.75V121.25C24 121.219 23.9981 121.096 24.0137 120.979C24.0332 120.835 24.0941 120.564 24.3291 120.329C24.5641 120.094 24.8345 120.033 24.9795 120.014C25.0957 119.998 25.2193 120 25.25 120H25.75ZM25.25 121C25.1321 121 25.0727 121 25.0361 121.036C24.9995 121.073 25 121.132 25 121.25V121.75C25 121.839 25 121.894 25.0156 121.932L25.0361 121.964C25.0727 122 25.1321 122 25.25 122H25.75C25.8679 122 25.9273 122 25.9639 121.964C26.0005 121.927 26 121.868 26 121.75V121.25C26 121.132 26.0005 121.073 25.9639 121.036C25.9273 121 25.8679 121 25.75 121H25.25Z" fill="currentColor"/>
  <path d="M30.75 120C30.7807 120 30.9043 119.998 31.0205 120.014C31.1655 120.033 31.4359 120.094 31.6709 120.329L31.751 120.419C31.9204 120.63 31.9693 120.853 31.9863 120.979C32.0019 121.096 32 121.219 32 121.25V121.75C32 121.781 32.0019 121.904 31.9863 122.021C31.9693 122.147 31.9204 122.37 31.751 122.581L31.6709 122.671L31.5811 122.751C31.37 122.92 31.1473 122.969 31.0205 122.986C30.9043 123.002 30.7807 123 30.75 123H30.25C30.2193 123 30.0957 123.002 29.9795 122.986C29.8345 122.967 29.5641 122.906 29.3291 122.671C29.0941 122.436 29.0332 122.165 29.0137 122.021C28.9981 121.904 29 121.781 29 121.75V121.25C29 121.219 28.9981 121.096 29.0137 120.979C29.0332 120.835 29.0941 120.564 29.3291 120.329C29.5641 120.094 29.8345 120.033 29.9795 120.014C30.0957 119.998 30.2193 120 30.25 120H30.75ZM30.25 121C30.1321 121 30.0727 121 30.0361 121.036C29.9995 121.073 30 121.132 30 121.25V121.75C30 121.839 30 121.894 30.0156 121.932L30.0361 121.964C30.0727 122 30.1321 122 30.25 122H30.75C30.8679 122 30.9273 122 30.9639 121.964C31.0005 121.927 31 121.868 31 121.75V121.25C31 121.132 31.0005 121.073 30.9639 121.036C30.9273 121 30.8679 121 30.75 121H30.25Z" fill="currentColor"/>
  <path d="M30.75 115C30.7807 115 30.9043 114.998 31.0205 115.014C31.1655 115.033 31.4359 115.094 31.6709 115.329L31.751 115.419C31.9204 115.63 31.9693 115.853 31.9863 115.979C32.0019 116.096 32 116.219 32 116.25V116.75C32 116.781 32.0019 116.904 31.9863 117.021C31.9693 117.147 31.9204 117.37 31.751 117.581L31.6709 117.671L31.5811 117.751C31.37 117.92 31.1473 117.969 31.0205 117.986C30.9043 118.002 30.7807 118 30.75 118H30.25C30.2193 118 30.0957 118.002 29.9795 117.986C29.8345 117.967 29.5641 117.906 29.3291 117.671C29.0941 117.436 29.0332 117.165 29.0137 117.021C28.9981 116.904 29 116.781 29 116.75V116.25C29 116.219 28.9981 116.096 29.0137 115.979C29.0332 115.835 29.0941 115.564 29.3291 115.329C29.5641 115.094 29.8345 115.033 29.9795 115.014C30.0957 114.998 30.2193 115 30.25 115H30.75ZM30.25 116C30.1321 116 30.0727 116 30.0361 116.036C29.9995 116.073 30 116.132 30 116.25V116.75C30 116.839 30 116.894 30.0156 116.932L30.0361 116.964C30.0727 117 30.1321 117 30.25 117H30.75C30.8679 117 30.9273 117 30.9639 116.964C31.0005 116.927 31 116.868 31 116.75V116.25C31 116.132 31.0005 116.073 30.9639 116.036C30.9273 116 30.8679 116 30.75 116H30.25Z" fill="currentColor"/>
  <path d="M27 116.75C27 116.781 27.0019 116.904 26.9863 117.021C26.9693 117.147 26.9204 117.37 26.751 117.581L26.6709 117.671L26.5811 117.751C26.37 117.92 26.1473 117.969 26.0205 117.986C25.9043 118.002 25.7807 118 25.75 118H25.25C25.2193 118 25.0957 118.002 24.9795 117.986C24.8345 117.967 24.5641 117.906 24.3291 117.671C24.0941 117.436 24.0332 117.165 24.0137 117.021C23.9981 116.904 24 116.781 24 116.75V116.25C24 116.219 23.9981 116.096 24.0137 115.979C24.0332 115.835 24.0941 115.564 24.3291 115.329C24.5641 115.094 24.8345 115.033 24.9795 115.014C25.0957 114.998 25.2193 115 25.25 115H25.75C25.7807 115 25.9043 114.998 26.0205 115.014C26.1655 115.033 26.4359 115.094 26.6709 115.329L26.751 115.419C26.9204 115.63 26.9693 115.853 26.9863 115.979C27.0019 116.096 27 116.219 27 116.25V116.75ZM26 116.25C26 116.132 26.0005 116.073 25.9639 116.036C25.9273 116 25.8679 116 25.75 116H25.25C25.1321 116 25.0727 116 25.0361 116.036C24.9995 116.073 25 116.132 25 116.25V116.75C25 116.839 25 116.894 25.0156 116.932L25.0361 116.964C25.0727 117 25.1321 117 25.25 117H25.75C25.8679 117 25.9273 117 25.9639 116.964C26.0005 116.927 26 116.868 26 116.75V116.25Z" fill="currentColor"/>
</svg>
