<svg xmlns="http://www.w3.org/2000/svg" width="16" height="16" viewBox="20.0 112.5 16.0 16.0" fill="none">
  <path d="M34.5 125C34.7761 125 35 125.224 35 125.5C35 125.776 34.7761 126 34.5 126H21.5C21.2239 126 21 125.776 21 125.5C21 125.224 21.2239 125 21.5 125H34.5Z" fill="currentColor"/>
  <path d="M25 115C25.2074 115 25.4634 114.998 25.6816 115.027C25.9287 115.061 26.2706 115.149 26.5605 115.439C26.8505 115.729 26.9394 116.071 26.9727 116.318C27.002 116.537 27 116.793 27 117V122C27 122.207 27.002 122.463 26.9727 122.682C26.9394 122.929 26.8505 123.271 26.5605 123.561C26.2706 123.851 25.9287 123.939 25.6816 123.973C25.4634 124.002 25.2074 124 25 124C24.7926 124 24.5366 124.002 24.3184 123.973C24.0713 123.939 23.7294 123.851 23.4395 123.561C23.1495 123.271 23.0606 122.929 23.0273 122.682C22.998 122.463 23 122.207 23 122V117C23 116.793 22.998 116.537 23.0273 116.318C23.0606 116.071 23.1495 115.729 23.4395 115.439C23.7294 115.149 24.0713 115.061 24.3184 115.027C24.5366 114.998 24.7926 115 25 115ZM25 116C24.5286 116 24.2929 116 24.1465 116.147C24 116.293 24 116.529 24 117V122L24.002 122.312C24.0088 122.584 24.0366 122.744 24.1465 122.854C24.2929 123 24.5286 123 25 123C25.4714 123 25.7071 123 25.8535 122.854C25.9999 122.707 26 122.471 26 122V117C26 116.529 26 116.293 25.8535 116.147C25.7071 116 25.4714 116 25 116Z" fill="currentColor"/>
  <path d="M31 117C31.2074 117 31.4634 116.998 31.6816 117.027C31.9287 117.061 32.2706 117.149 32.5605 117.439C32.8505 117.729 32.9394 118.071 32.9727 118.318C33.002 118.537 33 118.793 33 119V122C33 122.207 33.002 122.463 32.9727 122.682C32.9394 122.929 32.8505 123.271 32.5605 123.561C32.2706 123.851 31.9287 123.939 31.6816 123.973C31.4634 124.002 31.2074 124 31 124C30.7926 124 30.5366 124.002 30.3184 123.973C30.0713 123.939 29.7294 123.851 29.4395 123.561C29.1495 123.271 29.0606 122.929 29.0273 122.682C28.998 122.463 29 122.207 29 122V119C29 118.793 28.998 118.537 29.0273 118.318C29.0606 118.071 29.1495 117.729 29.4395 117.439C29.7294 117.149 30.0713 117.061 30.3184 117.027C30.5366 116.998 30.7926 117 31 117ZM31 118C30.5286 118 30.2929 118 30.1465 118.147C30 118.293 30 118.529 30 119V122C30 122.471 30.0001 122.707 30.1465 122.854C30.2929 123 30.5286 123 31 123C31.4714 123 31.7071 123 31.8535 122.854C31.9999 122.707 32 122.471 32 122V119C32 118.529 32 118.293 31.8535 118.147C31.7071 118 31.4714 118 31 118Z" fill="currentColor"/>
</svg>
