<svg xmlns="http://www.w3.org/2000/svg" width="16" height="16" viewBox="22.0 113.0 12.0 12.0" fill="none">
  <path d="M26 122C26.5523 122 27 122.448 27 123C27 123.552 26.5523 124 26 124C25.4477 124 25 123.552 25 123C25 122.448 25.4477 122 26 122Z" fill="currentColor"/>
  <path d="M30 122C30.5523 122 31 122.448 31 123C31 123.552 30.5523 124 30 124C29.4477 124 29 123.552 29 123C29 122.448 29.4477 122 30 122Z" fill="currentColor"/>
  <path d="M26 118C26.5523 118 27 118.448 27 119C27 119.552 26.5523 120 26 120C25.4477 120 25 119.552 25 119C25 118.448 25.4477 118 26 118Z" fill="currentColor"/>
  <path d="M30 118C30.5523 118 31 118.448 31 119C31 119.552 30.5523 120 30 120C29.4477 120 29 119.552 29 119C29 118.448 29.4477 118 30 118Z" fill="currentColor"/>
  <path d="M26 114C26.5523 114 27 114.448 27 115C27 115.552 26.5523 116 26 116C25.4477 116 25 115.552 25 115C25 114.448 25.4477 114 26 114Z" fill="currentColor"/>
  <path d="M30 114C30.5523 114 31 114.448 31 115C31 115.552 30.5523 116 30 116C29.4477 116 29 115.552 29 115C29 114.448 29.4477 114 30 114Z" fill="currentColor"/>
</svg>
