<svg xmlns="http://www.w3.org/2000/svg" width="16" height="16" viewBox="20.0 111.5 16.0 16.0" fill="none">
  <path d="M21.5 113C21.7761 113 22 113.224 22 113.5V125.5C22 125.776 21.7761 126 21.5 126C21.2239 126 21 125.776 21 125.5V113.5C21 113.224 21.2239 113 21.5 113Z" fill="currentColor"/>
  <path d="M34.5 113C34.7761 113 35 113.224 35 113.5V125.5C35 125.776 34.7761 126 34.5 126C34.2239 126 34 125.776 34 125.5V113.5C34 113.224 34.2239 113 34.5 113Z" fill="currentColor"/>
  <path d="M25.75 120C25.7807 120 25.9043 119.998 26.0205 120.014C26.1655 120.033 26.4359 120.094 26.6709 120.329L26.751 120.419C26.9204 120.63 26.9693 120.853 26.9863 120.979C27.0019 121.096 27 121.219 27 121.25V122.75C27 122.781 27.0019 122.904 26.9863 123.021C26.9693 123.147 26.9204 123.37 26.751 123.581L26.6709 123.671L26.5811 123.751C26.37 123.92 26.1473 123.969 26.0205 123.986C25.9043 124.002 25.7807 124 25.75 124H24.25C24.2193 124 24.0957 124.002 23.9795 123.986C23.8345 123.967 23.5641 123.906 23.3291 123.671C23.0941 123.436 23.0332 123.165 23.0137 123.021C22.9981 122.904 23 122.781 23 122.75V121.25C23 121.219 22.9981 121.096 23.0137 120.979C23.0332 120.835 23.0941 120.564 23.3291 120.329C23.5641 120.094 23.8345 120.033 23.9795 120.014C24.0957 119.998 24.2193 120 24.25 120H25.75ZM24.25 121C24.1321 121 24.0727 121 24.0361 121.036C23.9995 121.073 24 121.132 24 121.25V122.75C24 122.839 24 122.894 24.0156 122.932L24.0361 122.964C24.0727 123 24.1321 123 24.25 123H25.75C25.8679 123 25.9273 123 25.9639 122.964C26.0005 122.927 26 122.868 26 122.75V121.25C26 121.132 26.0005 121.073 25.9639 121.036C25.9273 121 25.8679 121 25.75 121H24.25Z" fill="currentColor"/>
  <path d="M25.75 115C25.7807 115 25.9043 114.998 26.0205 115.014C26.1655 115.033 26.4359 115.094 26.6709 115.329L26.751 115.419C26.9204 115.63 26.9693 115.853 26.9863 115.979C27.0019 116.096 27 116.219 27 116.25V117.75C27 117.781 27.0019 117.904 26.9863 118.021C26.9693 118.147 26.9204 118.37 26.751 118.581L26.6709 118.671L26.5811 118.751C26.37 118.92 26.1473 118.969 26.0205 118.986C25.9043 119.002 25.7807 119 25.75 119H24.25C24.2193 119 24.0957 119.002 23.9795 118.986C23.8345 118.967 23.5641 118.906 23.3291 118.671C23.0941 118.436 23.0332 118.165 23.0137 118.021C22.9981 117.904 23 117.781 23 117.75V116.25C23 116.219 22.9981 116.096 23.0137 115.979C23.0332 115.835 23.0941 115.564 23.3291 115.329C23.5641 115.094 23.8345 115.033 23.9795 115.014C24.0957 114.998 24.2193 115 24.25 115H25.75ZM24.25 116C24.1321 116 24.0727 116 24.0361 116.036C23.9995 116.073 24 116.132 24 116.25V117.75C24 117.839 24 117.894 24.0156 117.932L24.0361 117.964C24.0727 118 24.1321 118 24.25 118H25.75C25.8679 118 25.9273 118 25.9639 117.964C26.0005 117.927 26 117.868 26 117.75V116.25C26 116.132 26.0005 116.073 25.9639 116.036C25.9273 116 25.8679 116 25.75 116H24.25Z" fill="currentColor"/>
  <path d="M31.75 115C31.7807 115 31.9043 114.998 32.0205 115.014C32.1655 115.033 32.4359 115.094 32.6709 115.329L32.751 115.419C32.9204 115.63 32.9693 115.853 32.9863 115.979C33.0019 116.096 33 116.219 33 116.25V117.75C33 117.781 33.0019 117.904 32.9863 118.021C32.9693 118.147 32.9204 118.37 32.751 118.581L32.6709 118.671L32.5811 118.751C32.37 118.92 32.1473 118.969 32.0205 118.986C31.9043 119.002 31.7807 119 31.75 119H30.25C30.2193 119 30.0957 119.002 29.9795 118.986C29.8345 118.967 29.5641 118.906 29.3291 118.671C29.0941 118.436 29.0332 118.165 29.0137 118.021C28.9981 117.904 29 117.781 29 117.75V116.25C29 116.219 28.9981 116.096 29.0137 115.979C29.0332 115.835 29.0941 115.564 29.3291 115.329C29.5641 115.094 29.8345 115.033 29.9795 115.014C30.0957 114.998 30.2193 115 30.25 115H31.75ZM30.25 116C30.1321 116 30.0727 116 30.0361 116.036C29.9995 116.073 30 116.132 30 116.25V117.75C30 117.839 30 117.894 30.0156 117.932L30.0361 117.964C30.0727 118 30.1321 118 30.25 118H31.75C31.8679 118 31.9273 118 31.9639 117.964C32.0005 117.927 32 117.868 32 117.75V116.25C32 116.132 32.0005 116.073 31.9639 116.036C31.9273 116 31.8679 116 31.75 116H30.25Z" fill="currentColor"/>
  <path d="M33 122.75C33 122.781 33.0019 122.904 32.9863 123.021C32.9693 123.147 32.9204 123.37 32.751 123.581L32.6709 123.671L32.5811 123.751C32.37 123.92 32.1473 123.969 32.0205 123.986C31.9043 124.002 31.7807 124 31.75 124H30.25C30.2193 124 30.0957 124.002 29.9795 123.986C29.8345 123.967 29.5641 123.906 29.3291 123.671C29.0941 123.436 29.0332 123.165 29.0137 123.021C28.9981 122.904 29 122.781 29 122.75V121.25C29 121.219 28.9981 121.096 29.0137 120.979C29.0332 120.835 29.0941 120.564 29.3291 120.329C29.5641 120.094 29.8345 120.033 29.9795 120.014C30.0957 119.998 30.2193 120 30.25 120H31.75C31.7807 120 31.9043 119.998 32.0205 120.014C32.1655 120.033 32.4359 120.094 32.6709 120.329L32.751 120.419C32.9204 120.63 32.9693 120.853 32.9863 120.979C33.0019 121.096 33 121.219 33 121.25V122.75ZM32 121.25C32 121.132 32.0005 121.073 31.9639 121.036C31.9273 121 31.8679 121 31.75 121H30.25C30.1321 121 30.0727 121 30.0361 121.036C29.9995 121.073 30 121.132 30 121.25V122.75C30 122.839 30 122.894 30.0156 122.932L30.0361 122.964C30.0727 123 30.1321 123 30.25 123H31.75C31.8679 123 31.9273 123 31.9639 122.964C32.0005 122.927 32 122.868 32 122.75V121.25Z" fill="currentColor"/>
</svg>
