<svg xmlns="http://www.w3.org/2000/svg" width="16" height="16" viewBox="19.0 112.0 15.0 15.0" fill="none">
  <path d="M21.5 113C21.7761 113 22 113.224 22 113.5V125.5C22 125.776 21.7761 126 21.5 126C21.2239 126 21 125.776 21 125.5V113.5C21 113.224 21.2239 113 21.5 113Z" fill="currentColor"/>
  <path d="M25.7402 120C25.7736 120 25.8985 119.998 26.0156 120.014C26.1619 120.033 26.4331 120.095 26.6689 120.331C26.9048 120.567 26.9667 120.838 26.9863 120.984C27.0021 121.102 27 121.226 27 121.26V122.74C27 122.774 27.0021 122.898 26.9863 123.016C26.9667 123.162 26.9048 123.433 26.6689 123.669C26.4331 123.905 26.1619 123.967 26.0156 123.986C25.8985 124.002 25.7736 124 25.7402 124H24.2598C24.2264 124 24.1015 124.002 23.9844 123.986C23.8381 123.967 23.5669 123.905 23.3311 123.669C23.0952 123.433 23.0333 123.162 23.0137 123.016C22.9979 122.898 23 122.774 23 122.74V121.26C23 121.226 22.9979 121.102 23.0137 120.984C23.0333 120.838 23.0952 120.567 23.3311 120.331C23.5669 120.095 23.8381 120.033 23.9844 120.014C24.1015 119.998 24.2264 120 24.2598 120H25.7402ZM24.2598 121C24.1374 121 24.0761 121 24.0381 121.038C24 121.076 24 121.137 24 121.26V122.74L24.0049 122.883C24.0097 122.918 24.0191 122.943 24.0381 122.962C24.0761 123 24.1374 123 24.2598 123H25.7402L25.8828 122.995C25.9181 122.99 25.9429 122.981 25.9619 122.962C25.9809 122.943 25.9903 122.918 25.9951 122.883L26 122.74V121.26C26 121.137 26 121.076 25.9619 121.038C25.9429 121.019 25.9181 121.01 25.8828 121.005L25.7402 121H24.2598Z" fill="currentColor"/>
  <path d="M30.7402 120C30.7736 120 30.8985 119.998 31.0156 120.014C31.1619 120.033 31.4331 120.095 31.6689 120.331C31.9048 120.567 31.9667 120.838 31.9863 120.984C32.0021 121.102 32 121.226 32 121.26V122.74C32 122.774 32.0021 122.898 31.9863 123.016C31.9667 123.162 31.9048 123.433 31.6689 123.669C31.4331 123.905 31.1619 123.967 31.0156 123.986C30.8985 124.002 30.7736 124 30.7402 124H29.2598C29.2264 124 29.1015 124.002 28.9844 123.986C28.8381 123.967 28.5669 123.905 28.3311 123.669C28.0952 123.433 28.0333 123.162 28.0137 123.016C27.9979 122.898 28 122.774 28 122.74V121.26C28 121.226 27.9979 121.102 28.0137 120.984C28.0333 120.838 28.0952 120.567 28.3311 120.331C28.5669 120.095 28.8381 120.033 28.9844 120.014C29.1015 119.998 29.2264 120 29.2598 120H30.7402ZM29.2598 121C29.1374 121 29.0761 121 29.0381 121.038C29 121.076 29 121.137 29 121.26V122.74L29.0049 122.883C29.0097 122.918 29.0191 122.943 29.0381 122.962C29.0761 123 29.1374 123 29.2598 123H30.7402L30.8828 122.995C30.9181 122.99 30.9429 122.981 30.9619 122.962C30.9809 122.943 30.9903 122.918 30.9951 122.883L31 122.74V121.26C31 121.137 31 121.076 30.9619 121.038C30.9429 121.019 30.9181 121.01 30.8828 121.005L30.7402 121H29.2598Z" fill="currentColor"/>
  <path d="M25.7402 115C25.7736 115 25.8985 114.998 26.0156 115.014C26.1619 115.033 26.4331 115.095 26.6689 115.331C26.9048 115.567 26.9667 115.838 26.9863 115.984C27.0021 116.102 27 116.226 27 116.26V117.74C27 117.774 27.0021 117.898 26.9863 118.016C26.9667 118.162 26.9048 118.433 26.6689 118.669C26.4331 118.905 26.1619 118.967 26.0156 118.986C25.8985 119.002 25.7736 119 25.7402 119H24.2598C24.2264 119 24.1015 119.002 23.9844 118.986C23.8381 118.967 23.5669 118.905 23.3311 118.669C23.0952 118.433 23.0333 118.162 23.0137 118.016C22.9979 117.898 23 117.774 23 117.74V116.26C23 116.226 22.9979 116.102 23.0137 115.984C23.0333 115.838 23.0952 115.567 23.3311 115.331C23.5669 115.095 23.8381 115.033 23.9844 115.014C24.1015 114.998 24.2264 115 24.2598 115H25.7402ZM24.2598 116C24.1374 116 24.0761 116 24.0381 116.038C24 116.076 24 116.137 24 116.26V117.74L24.0049 117.883C24.0097 117.918 24.0191 117.943 24.0381 117.962C24.0761 118 24.1374 118 24.2598 118H25.7402L25.8828 117.995C25.9181 117.99 25.9429 117.981 25.9619 117.962C25.9809 117.943 25.9903 117.918 25.9951 117.883L26 117.74V116.26C26 116.137 26 116.076 25.9619 116.038C25.9429 116.019 25.9181 116.01 25.8828 116.005L25.7402 116H24.2598Z" fill="currentColor"/>
  <path d="M30.7402 115C30.7736 115 30.8985 114.998 31.0156 115.014C31.1619 115.033 31.4331 115.095 31.6689 115.331C31.9048 115.567 31.9667 115.838 31.9863 115.984C32.0021 116.102 32 116.226 32 116.26V117.74C32 117.774 32.0021 117.898 31.9863 118.016C31.9667 118.162 31.9048 118.433 31.6689 118.669C31.4331 118.905 31.1619 118.967 31.0156 118.986C30.8985 119.002 30.7736 119 30.7402 119H29.2598C29.2264 119 29.1015 119.002 28.9844 118.986C28.8381 118.967 28.5669 118.905 28.3311 118.669C28.0952 118.433 28.0333 118.162 28.0137 118.016C27.9979 117.898 28 117.774 28 117.74V116.26C28 116.226 27.9979 116.102 28.0137 115.984C28.0333 115.838 28.0952 115.567 28.3311 115.331C28.5669 115.095 28.8381 115.033 28.9844 115.014C29.1015 114.998 29.2264 115 29.2598 115H30.7402ZM29.2598 116C29.1374 116 29.0761 116 29.0381 116.038C29 116.076 29 116.137 29 116.26V117.74L29.0049 117.883C29.0097 117.918 29.0191 117.943 29.0381 117.962C29.0761 118 29.1374 118 29.2598 118H30.7402L30.8828 117.995C30.9181 117.99 30.9429 117.981 30.9619 117.962C30.9809 117.943 30.9903 117.918 30.9951 117.883L31 117.74V116.26C31 116.137 31 116.076 30.9619 116.038C30.9429 116.019 30.9181 116.01 30.8828 116.005L30.7402 116H29.2598Z" fill="currentColor"/>
</svg>
