<svg xmlns="http://www.w3.org/2000/svg" width="16" height="16" viewBox="20.0 111.0 16.0 16.0" fill="none">
  <path d="M21.5 112C21.7761 112 22 112.224 22 112.5V125.5C22 125.776 21.7761 126 21.5 126C21.2239 126 21 125.776 21 125.5V112.5C21 112.224 21.2239 112 21.5 112Z" fill="currentColor"/>
  <path d="M34.5 112C34.7761 112 35 112.224 35 112.5V125.5C35 125.776 34.7761 126 34.5 126C34.2239 126 34 125.776 34 125.5V112.5C34 112.224 34.2239 112 34.5 112Z" fill="currentColor"/>
  <path d="M31 120C31.2074 120 31.4634 119.998 31.6816 120.027C31.9287 120.061 32.2706 120.149 32.5605 120.439C32.8505 120.729 32.9394 121.071 32.9727 121.318C33.002 121.537 33 121.793 33 122C33 122.207 33.002 122.463 32.9727 122.682C32.9394 122.929 32.8505 123.271 32.5605 123.561C32.2706 123.851 31.9287 123.939 31.6816 123.973C31.4634 124.002 31.2074 124 31 124H25C24.7926 124 24.5366 124.002 24.3184 123.973C24.0713 123.939 23.7294 123.851 23.4395 123.561C23.1495 123.271 23.0606 122.929 23.0273 122.682C22.998 122.463 23 122.207 23 122C23 121.793 22.998 121.537 23.0273 121.318C23.0606 121.071 23.1495 120.729 23.4395 120.439C23.7294 120.149 24.0713 120.061 24.3184 120.027C24.5366 119.998 24.7926 120 25 120H31ZM25 121C24.5286 121 24.2929 121 24.1465 121.146C24 121.293 24 121.529 24 122C24 122.471 24 122.707 24.1465 122.854C24.2929 123 24.5286 123 25 123H31C31.4714 123 31.7071 123 31.8535 122.854C32 122.707 32 122.471 32 122C32 121.529 32 121.293 31.8535 121.146C31.7071 121 31.4714 121 31 121H25Z" fill="currentColor"/>
  <path d="M31 114C31.2074 114 31.4634 113.998 31.6816 114.027C31.9287 114.061 32.2706 114.149 32.5605 114.439C32.8505 114.729 32.9394 115.071 32.9727 115.318C33.002 115.537 33 115.793 33 116C33 116.207 33.002 116.463 32.9727 116.682C32.9394 116.929 32.8505 117.271 32.5605 117.561C32.2706 117.851 31.9287 117.939 31.6816 117.973C31.4634 118.002 31.2074 118 31 118H25C24.7926 118 24.5366 118.002 24.3184 117.973C24.0713 117.939 23.7294 117.851 23.4395 117.561C23.1495 117.271 23.0606 116.929 23.0273 116.682C22.998 116.463 23 116.207 23 116C23 115.793 22.998 115.537 23.0273 115.318C23.0606 115.071 23.1495 114.729 23.4395 114.439C23.7294 114.149 24.0713 114.061 24.3184 114.027C24.5366 113.998 24.7926 114 25 114H31ZM25 115C24.5286 115 24.2929 115 24.1465 115.146C24 115.293 24 115.529 24 116C24 116.471 24 116.707 24.1465 116.854C24.2929 117 24.5286 117 25 117H31C31.4714 117 31.7071 117 31.8535 116.854C32 116.707 32 116.471 32 116C32 115.529 32 115.293 31.8535 115.146C31.7071 115 31.4714 115 31 115H25Z" fill="currentColor"/>
</svg>
