<svg xmlns="http://www.w3.org/2000/svg" width="16" height="16" viewBox="21.0 112.0 14.0 14.0" fill="none">
  <path d="M24.5 120C24.7761 120 25 120.224 25 120.5C25 120.776 24.7761 121 24.5 121H24.4697C23.9994 121 23.6954 121.001 23.4707 121.03C23.2595 121.058 23.1925 121.103 23.1553 121.139C23.1496 121.144 23.1441 121.15 23.1387 121.155C23.1031 121.193 23.0579 121.259 23.0303 121.471C23.0009 121.695 23 121.999 23 122.47V122.53C23 123.001 23.0009 123.305 23.0303 123.529C23.0579 123.741 23.1031 123.807 23.1387 123.845C23.1441 123.85 23.1496 123.856 23.1553 123.861C23.1925 123.897 23.2595 123.942 23.4707 123.97C23.6954 123.999 23.9994 124 24.4697 124H24.5C24.7761 124 25 124.224 25 124.5C25 124.776 24.7761 125 24.5 125H24.4697C24.0267 125 23.6453 125.001 23.3408 124.961C23.0229 124.919 22.7173 124.826 22.4648 124.585C22.4479 124.569 22.4313 124.552 22.415 124.535C22.1743 124.283 22.0806 123.977 22.0391 123.659C21.9993 123.355 22 122.973 22 122.53V122.47C22 122.027 21.9993 121.645 22.0391 121.341C22.0806 121.023 22.1743 120.717 22.415 120.465C22.4313 120.448 22.4479 120.431 22.4648 120.415C22.7173 120.174 23.0229 120.081 23.3408 120.039C23.6453 119.999 24.0267 120 24.4697 120H24.5Z" fill="currentColor"/>
  <path d="M33.5 124C33.7761 124 34 124.224 34 124.5C34 124.776 33.7761 125 33.5 125H26.5C26.2239 125 26 124.776 26 124.5C26 124.224 26.2239 124 26.5 124H33.5Z" fill="currentColor"/>
  <path d="M33.5 120C33.7761 120 34 120.224 34 120.5C34 120.776 33.7761 121 33.5 121H26.5C26.2239 121 26 120.776 26 120.5C26 120.224 26.2239 120 26.5 120H33.5Z" fill="currentColor"/>
  <path d="M24.5 113C24.7761 113 25 113.224 25 113.5C25 113.776 24.7761 114 24.5 114H24.4697C23.9994 114 23.6954 114.001 23.4707 114.03C23.2595 114.058 23.1925 114.103 23.1553 114.139C23.1496 114.144 23.1441 114.15 23.1387 114.155C23.1031 114.193 23.0579 114.259 23.0303 114.471C23.0009 114.695 23 114.999 23 115.47V115.53C23 116.001 23.0009 116.305 23.0303 116.529C23.0579 116.741 23.1031 116.807 23.1387 116.845C23.1441 116.85 23.1496 116.856 23.1553 116.861C23.1925 116.897 23.2595 116.942 23.4707 116.97C23.6954 116.999 23.9994 117 24.4697 117H24.5C24.7761 117 25 117.224 25 117.5C25 117.776 24.7761 118 24.5 118H24.4697C24.0267 118 23.6453 118.001 23.3408 117.961C23.0229 117.919 22.7173 117.826 22.4648 117.585C22.4479 117.569 22.4313 117.552 22.415 117.535C22.1743 117.283 22.0806 116.977 22.0391 116.659C21.9993 116.355 22 115.973 22 115.53V115.47C22 115.027 21.9993 114.645 22.0391 114.341C22.0806 114.023 22.1743 113.717 22.415 113.465C22.4313 113.448 22.4479 113.431 22.4648 113.415C22.7173 113.174 23.0229 113.081 23.3408 113.039C23.6453 112.999 24.0267 113 24.4697 113H24.5Z" fill="currentColor"/>
  <path d="M33.5 117C33.7761 117 34 117.224 34 117.5C34 117.776 33.7761 118 33.5 118H26.5C26.2239 118 26 117.776 26 117.5C26 117.224 26.2239 117 26.5 117H33.5Z" fill="currentColor"/>
  <path d="M33.5 113C33.7761 113 34 113.224 34 113.5C34 113.776 33.7761 114 33.5 114H26.5C26.2239 114 26 113.776 26 113.5C26 113.224 26.2239 113 26.5 113H33.5Z" fill="currentColor"/>
</svg>
