<svg xmlns="http://www.w3.org/2000/svg" width="16" height="16" viewBox="19.75 111.0 17.05 17.05" fill="none">
  <path d="M30.1465 121.146C30.3417 120.951 30.6583 120.951 30.8535 121.146C31.0488 121.342 31.0488 121.658 30.8535 121.854L28.707 124L30.8535 126.146C31.0488 126.342 31.0488 126.658 30.8535 126.854C30.6583 127.049 30.3417 127.049 30.1465 126.854L27.6465 124.354C27.4512 124.158 27.4512 123.842 27.6465 123.646L30.1465 121.146Z" fill="currentColor"/>
  <path d="M32.1465 121.146C32.3417 120.951 32.6583 120.951 32.8535 121.146L35.3535 123.646C35.5488 123.842 35.5488 124.158 35.3535 124.354L32.8535 126.854C32.6583 127.049 32.3417 127.049 32.1465 126.854C31.9512 126.658 31.9512 126.342 32.1465 126.146L34.293 124L32.1465 121.854C31.9512 121.658 31.9512 121.342 32.1465 121.146Z" fill="currentColor"/>
  <path d="M22.2637 112C22.4965 112 22.7263 112.054 22.9346 112.158L23.2764 112.329C23.4171 112.399 23.5829 112.399 23.7236 112.329L24.0654 112.158C24.2737 112.054 24.5035 112 24.7363 112H27.5C29.3115 112 30.4364 113.505 31.0723 114.776C31.4016 115.435 31.6295 116.089 31.7754 116.575C31.8486 116.819 31.9025 117.023 31.9375 117.167C31.9549 117.239 31.9678 117.296 31.9766 117.336C31.9809 117.356 31.984 117.372 31.9863 117.383C31.9875 117.388 31.9886 117.393 31.9893 117.396L31.9902 117.4V117.402C32.0275 117.589 31.9553 117.782 31.8037 117.897C31.6709 117.999 31.4974 118.027 31.3418 117.975L31.2764 117.947L31.2734 117.945C31.2705 117.944 31.2652 117.942 31.2588 117.938C31.2457 117.932 31.225 117.923 31.1982 117.91C31.144 117.885 31.0629 117.848 30.959 117.804C30.7505 117.714 30.4513 117.594 30.0918 117.475C29.4974 117.276 28.7568 117.086 28 117.023V121.879L27 122.879V117H25V124.5C25 124.776 25.2239 125 25.5 125H26.5C26.6133 125 26.716 124.96 26.7998 124.896C26.8423 124.953 26.8878 125.009 26.9395 125.061L27.4971 125.618C27.2319 125.855 26.8834 126 26.5 126H25.5C24.6716 126 24 125.328 24 124.5V116.809L23.7236 116.671C23.5829 116.601 23.4171 116.601 23.2764 116.671L22.9346 116.842C22.7263 116.946 22.4965 117 22.2637 117H22.25C21.5596 117 21 116.44 21 115.75V113.25C21 112.56 21.5596 112 22.25 112H22.2637ZM24.7363 113C24.6588 113 24.5821 113.018 24.5127 113.053L24.1709 113.224C24.1153 113.251 24.0579 113.274 24 113.295V115.704C24.058 115.725 24.1152 115.748 24.1709 115.776L24.5127 115.947C24.5821 115.982 24.6588 116 24.7363 116H27.5C28.5756 116 29.6332 116.267 30.4082 116.525C30.5286 116.566 30.6419 116.608 30.749 116.647C30.615 116.23 30.4284 115.725 30.1777 115.224C29.5636 113.995 28.6885 113 27.5 113H24.7363ZM22.25 113C22.1119 113 22 113.112 22 113.25V115.75C22 115.888 22.1119 116 22.25 116H22.2637C22.3412 116 22.4179 115.982 22.4873 115.947L22.8291 115.776C22.8848 115.748 22.942 115.725 23 115.704V113.295C22.9421 113.274 22.8847 113.251 22.8291 113.224L22.4873 113.053C22.4179 113.018 22.3412 113 22.2637 113H22.25Z" fill="currentColor"/>
</svg>
