<svg xmlns="http://www.w3.org/2000/svg" width="16" height="16" viewBox="20.0 110.75 17.0 17.0" fill="none">
  <path d="M31.6787 117.52C32.0892 117.563 32.4553 117.747 32.7393 117.876L34.8262 118.823C34.9493 118.879 35.1135 118.951 35.251 119.032C35.3894 119.114 35.5577 119.234 35.7012 119.424L35.7607 119.51L35.8145 119.599C35.9278 119.808 35.9674 120.011 35.9844 120.171C36.0013 120.33 36 120.509 36 120.645V123.357C36 123.492 36.0012 123.671 35.9844 123.829C35.9651 124.011 35.9154 124.25 35.7617 124.489C35.608 124.728 35.4113 124.873 35.2539 124.966C35.1172 125.047 34.9545 125.12 34.832 125.176L32.7471 126.129C32.4205 126.278 31.9863 126.5 31.5 126.5C31.0137 126.5 30.5795 126.278 30.2529 126.129L28.168 125.176C28.0455 125.12 27.8828 125.047 27.7461 124.966C27.5887 124.873 27.392 124.728 27.2383 124.489C27.0846 124.25 27.0349 124.011 27.0156 123.829C26.9988 123.671 27 123.492 27 123.357V120.645C27 120.509 26.9987 120.33 27.0156 120.171C27.035 119.989 27.0849 119.749 27.2393 119.51L27.2988 119.424C27.4423 119.234 27.6106 119.114 27.749 119.032C27.8865 118.951 28.0507 118.879 28.1738 118.823L30.2607 117.876C30.5853 117.729 31.0171 117.51 31.5 117.51L31.6787 117.52ZM32 121.593V125.367C32.0191 125.359 32.0393 125.352 32.0596 125.343L32.332 125.22L34.416 124.267C34.6642 124.153 34.8036 124.089 34.8877 123.992L34.9209 123.948C34.9801 123.856 34.9953 123.745 34.999 123.564L35 123.357V120.645C35 120.569 35.0002 120.502 34.999 120.442L32 121.593ZM28 123.357L28.001 123.564C28.0047 123.745 28.0199 123.856 28.0791 123.948C28.1584 124.072 28.3004 124.137 28.584 124.267L30.668 125.22C30.7962 125.278 30.9052 125.326 31 125.366V121.593L28 120.442V123.357ZM31.5 118.51C31.2838 118.51 31.0805 118.603 30.6738 118.787L28.749 119.659L31.5 120.714L34.25 119.659L32.3262 118.787C31.9195 118.603 31.7162 118.51 31.5 118.51Z" fill="currentColor"/>
  <path d="M22.2637 112C22.4965 112 22.7263 112.054 22.9346 112.158L23.2764 112.329C23.4171 112.399 23.5829 112.399 23.7236 112.329L24.0654 112.158C24.2737 112.054 24.5035 112 24.7363 112H27.5C29.3115 112 30.4364 113.505 31.0723 114.776C31.3902 115.412 31.6125 116.044 31.7588 116.524L31.5 116.51C31.2296 116.51 30.971 116.555 30.7393 116.618C30.6059 116.207 30.4226 115.713 30.1777 115.224C29.5636 113.995 28.6885 113 27.5 113H24.7363C24.6588 113 24.5821 113.018 24.5127 113.053L24.1709 113.224C24.1153 113.251 24.0579 113.274 24 113.295V115.704C24.058 115.725 24.1152 115.748 24.1709 115.776L24.5127 115.947C24.5821 115.982 24.6588 116 24.7363 116H27.5C28.5756 116 29.6332 116.267 30.4082 116.525C30.5094 116.559 30.6055 116.595 30.6973 116.629C30.3063 116.74 29.9974 116.898 29.8477 116.966L29.2529 117.235C28.8564 117.139 28.4311 117.059 28 117.023V117.803L27.7607 117.912C27.6569 117.959 27.4361 118.057 27.2422 118.171C27.1692 118.214 27.0878 118.269 27 118.334V117H25V124.5C25 124.776 25.2239 125 25.5 125H26.3789C26.3849 125.01 26.3903 125.02 26.3965 125.029C26.6579 125.436 26.9865 125.675 27.2197 125.815C27.006 125.933 26.761 126 26.5 126H25.5C24.6716 126 24 125.328 24 124.5V116.809L23.7236 116.671C23.5829 116.601 23.4171 116.601 23.2764 116.671L22.9346 116.842C22.7263 116.946 22.4965 117 22.2637 117H22.25C21.5596 117 21 116.44 21 115.75V113.25C21 112.56 21.5596 112 22.25 112H22.2637ZM22.25 113C22.1119 113 22 113.112 22 113.25V115.75C22 115.888 22.1119 116 22.25 116H22.2637C22.3412 116 22.4179 115.982 22.4873 115.947L22.8291 115.776C22.8848 115.748 22.942 115.725 23 115.704V113.295C22.9421 113.274 22.8847 113.251 22.8291 113.224L22.4873 113.053C22.4179 113.018 22.3412 113 22.2637 113H22.25Z" fill="currentColor"/>
</svg>
