<svg xmlns="http://www.w3.org/2000/svg" width="16" height="16" viewBox="20.0 111.5 16.01 16.01" fill="none">
  <path d="M30.1717 114C30.8346 114 31.4705 114.264 31.9393 114.732L32.4784 115.271C32.6112 115.166 32.766 115.087 32.9354 115.042C33.1084 114.996 33.3048 115 33.5028 115C33.7007 115 33.8971 114.996 34.0702 115.042C34.504 115.157 34.8428 115.496 34.9578 115.93C35.0037 116.103 34.9998 116.299 34.9998 116.497V121.5C34.9998 121.7 35.0046 121.899 34.9578 122.073C34.8423 122.505 34.5047 122.842 34.0731 122.958C33.8984 123.005 33.6997 123 33.4998 123C33.3 123 33.1021 123.004 32.9276 122.957C32.7603 122.912 32.6079 122.833 32.4764 122.729L31.9393 123.268C31.4705 123.736 30.8346 124 30.1717 124H28.7069L28.3836 124.323C27.9503 124.757 27.3626 125 26.7498 125C26.1371 125 25.5494 124.757 25.1161 124.323L23.5233 122.73C23.3916 122.835 23.2385 122.913 23.0711 122.958C22.8967 123.004 22.6984 123 22.4989 123C22.2995 123 22.1018 123.004 21.9276 122.958C21.4956 122.842 21.1572 122.504 21.0418 122.072C20.9953 121.898 20.9998 121.7 20.9998 121.5L21.0018 116.498C21.0019 116.299 20.9976 116.102 21.0438 115.929C21.1591 115.496 21.4976 115.157 21.9305 115.042C22.1042 114.996 22.3012 115 22.4998 115C22.6985 115 22.8955 114.996 23.0692 115.042C23.2882 115.1 23.4826 115.216 23.6366 115.372L23.8543 115.264C24.2013 115.09 24.5846 115 24.9725 115H26.7928L27.0604 114.732C27.5291 114.264 28.1651 114 28.828 114H30.1717ZM24.9715 116C24.739 116 24.5096 116.054 24.3016 116.158L23.9959 116.311C23.9968 116.372 23.9979 116.435 23.9979 116.498L23.9989 121.5C23.9989 121.598 24.0003 121.695 23.9959 121.789L25.8231 123.616C26.0688 123.862 26.4023 124 26.7498 124C27.0974 124 27.4308 123.862 27.6766 123.616L29.2323 122.061C29.8178 121.475 29.8178 120.525 29.2323 119.939L28.244 118.951C27.4919 119.597 26.359 119.566 25.6463 118.854C24.8989 118.106 24.8989 116.894 25.6463 116.146L25.7928 116H24.9715ZM28.828 115C28.4303 115 28.0486 115.158 27.7674 115.439L26.3534 116.854C25.9965 117.211 25.9964 117.789 26.3534 118.146C26.7103 118.503 27.2893 118.503 27.6463 118.146L28.6463 117.146C28.8416 116.951 29.1581 116.951 29.3534 117.146C29.5486 117.342 29.5486 117.658 29.3534 117.854L28.9569 118.25L29.9393 119.232C30.9154 120.209 30.9154 121.791 29.9393 122.768L29.7069 123H30.1717C30.5694 123 30.951 122.842 31.2323 122.561L32.0037 121.788C31.9994 121.694 32.0007 121.597 32.0008 121.499L32.0047 116.496C32.0048 116.401 32.0036 116.307 32.0077 116.215L31.2323 115.439C30.951 115.158 30.5694 115 30.1717 115H28.828ZM22.2508 116.003C22.2016 116.005 22.1873 116.009 22.1873 116.009C22.1011 116.032 22.0336 116.099 22.0106 116.186C22.0106 116.186 22.0069 116.201 22.0047 116.249C22.0022 116.305 22.0018 116.378 22.0018 116.498L21.9998 121.5C21.9998 121.62 22.0002 121.695 22.0028 121.751C22.0049 121.797 22.0086 121.814 22.0086 121.814C22.0317 121.901 22.0991 121.968 22.1854 121.991C22.1854 121.991 22.1995 121.995 22.2489 121.997C22.3046 122 22.3788 122 22.4989 122C22.6191 122 22.694 122 22.7498 121.997C22.7951 121.995 22.8109 121.992 22.8133 121.991C22.8997 121.968 22.967 121.901 22.9901 121.814C22.9901 121.814 22.9935 121.804 22.9959 121.751C22.9985 121.695 22.9989 121.621 22.9989 121.501L22.9979 116.498C22.9979 116.378 22.9985 116.305 22.9959 116.249C22.9938 116.202 22.9901 116.186 22.9901 116.186C22.967 116.099 22.8989 116.032 22.8123 116.009C22.8096 116.008 22.7934 116.005 22.7489 116.003C22.6933 116 22.6195 116 22.4998 116C22.3802 116 22.3064 116 22.2508 116.003ZM33.2547 116.003C33.2054 116.005 33.1912 116.009 33.1912 116.009C33.1047 116.032 33.0366 116.099 33.0135 116.186C33.0135 116.186 33.0098 116.202 33.0077 116.249C33.0051 116.304 33.0048 116.378 33.0047 116.497L33.0008 121.5L33.0028 121.75C33.0048 121.796 33.0081 121.812 33.0086 121.814C33.0316 121.901 33.0993 121.968 33.1854 121.991C33.1854 121.991 33.2 121.995 33.2498 121.997C33.3057 122 33.3796 122 33.4998 122C33.6202 122 33.6949 122 33.7508 121.997C33.7955 121.995 33.8116 121.992 33.8143 121.991C33.9006 121.968 33.9679 121.901 33.9911 121.814C33.9915 121.812 33.9948 121.797 33.9969 121.751C33.9995 121.695 33.9998 121.621 33.9998 121.5V116.497C33.9998 116.378 33.9994 116.304 33.9969 116.249C33.9947 116.2 33.9911 116.186 33.9911 116.186C33.9679 116.099 33.9 116.032 33.8133 116.009C33.8099 116.008 33.7936 116.005 33.7508 116.003C33.6955 116 33.6219 116 33.5028 116C33.3836 116 33.31 116 33.2547 116.003Z" fill="currentColor"/>
</svg>
