<svg xmlns="http://www.w3.org/2000/svg" width="16" height="16" viewBox="20.0 110.89 16.23 16.23" fill="none">
  <path d="M22.5 119C22.7215 119 22.938 118.999 23.1152 119.022C23.3068 119.048 23.5254 119.111 23.707 119.293C23.8887 119.475 23.9518 119.693 23.9776 119.885C23.9825 119.922 23.9863 119.96 23.9893 120H29.5C30.303 120 30.9569 120.632 30.9961 121.425L32.6768 120.741C33.4931 120.409 34.4281 120.761 34.8223 121.55C35.226 122.358 34.9216 123.341 34.1319 123.779L30.9219 125.561C30.4023 125.849 29.8179 126 29.2236 126H28.0772C27.6322 126 27.1915 125.915 26.7783 125.75L25.3506 125.18C25.0555 125.062 24.7406 125.001 24.4229 125.001H23.9883C23.9853 125.041 23.9825 125.079 23.9776 125.115C23.9518 125.307 23.8887 125.525 23.707 125.707C23.5254 125.889 23.3068 125.952 23.1152 125.978C22.938 126.001 22.7215 126 22.5 126C22.2785 126 22.062 126.001 21.8848 125.978C21.6932 125.952 21.4746 125.889 21.293 125.707C21.1114 125.525 21.0482 125.307 21.0225 125.115C21.0106 125.027 21.0057 124.928 21.0029 124.824L21 124.5V120.5C21 120.278 20.9987 120.062 21.0225 119.885C21.0482 119.693 21.1114 119.475 21.293 119.293C21.4746 119.111 21.6932 119.048 21.8848 119.022C22.062 118.999 22.2785 119 22.5 119ZM22.5 120C22.2502 120 22.1127 120.001 22.0176 120.014H22.0137V120.018C22.0009 120.113 22 120.25 22 120.5V124.5L22.002 124.799C22.0038 124.876 22.0073 124.935 22.0137 124.982V124.985L22.0176 124.986C22.1127 124.999 22.2502 125 22.5 125C22.7498 125 22.8873 124.999 22.9824 124.986L22.9854 124.985L22.9863 124.982C22.9991 124.887 23 124.75 23 124.5V120.5C23 120.25 22.9991 120.113 22.9863 120.018L22.9854 120.014H22.9824C22.8873 120.001 22.7498 120 22.5 120ZM24 124.001H24.4229C24.8678 124.001 25.3086 124.086 25.7217 124.251L27.1494 124.822C27.4445 124.94 27.7594 125 28.0772 125H29.2236C29.648 125 30.0655 124.892 30.4365 124.687L33.6465 122.904C33.9678 122.726 34.0919 122.326 33.9277 121.997C33.7672 121.676 33.3862 121.533 33.0537 121.668L30.1885 122.834C30.1842 122.836 30.1791 122.835 30.1748 122.837C29.9718 122.94 29.743 123 29.5 123H27.5C27.2241 123 27 122.776 27 122.5C27 122.224 27.2241 122 27.5 122H29.5C29.7759 122 30 121.776 30 121.5C30 121.224 29.7759 121 29.5 121H24V124.001Z" fill="currentColor"/>
  <path d="M29.1406 112.005C29.614 112.051 29.9962 112.428 30.0401 112.91L30.1309 113.911C30.1309 113.911 30.1322 113.914 30.1338 113.916C30.1382 113.922 30.1475 113.931 30.1611 113.938C30.2567 113.988 30.3503 114.042 30.4414 114.099C30.4535 114.106 30.4649 114.109 30.4717 114.109C30.4737 114.11 30.4766 114.109 30.4766 114.109L31.3897 113.688L31.4785 113.652C31.9277 113.495 32.4327 113.677 32.6748 114.097L33.7188 115.903L33.7627 115.988C33.9602 116.421 33.8256 116.941 33.4297 117.221L33.4287 117.222L32.5947 117.808C32.5947 117.808 32.5937 117.81 32.5928 117.812C32.59 117.817 32.5867 117.829 32.5869 117.843C32.5876 117.873 32.5879 117.903 32.5879 117.934L32.583 118.152C32.5823 118.167 32.5851 118.177 32.5879 118.184L32.5899 118.188L33.4287 118.78C33.7952 119.039 33.9386 119.505 33.7988 119.917C33.4231 119.84 33.0264 119.851 32.6406 119.962L32.8526 119.597L32.0127 119.005C31.7065 118.789 31.5668 118.435 31.584 118.101C31.5869 118.045 31.5879 117.989 31.5879 117.934C31.5879 117.911 31.5884 117.888 31.5879 117.865C31.5808 117.54 31.7214 117.2 32.0195 116.99L32.8526 116.403L31.8086 114.597L30.8955 115.018C30.5627 115.171 30.1949 115.121 29.916 114.949C29.845 114.905 29.7721 114.864 29.6983 114.825C29.4035 114.671 29.1685 114.374 29.1348 114.001L29.0449 113H26.957L26.8565 114.104C26.824 114.458 26.609 114.744 26.335 114.903C26.2898 114.93 26.245 114.957 26.2012 114.985C25.9204 115.165 25.5452 115.221 25.2051 115.064L24.1924 114.597L23.1485 116.403L24.1807 117.131C24.4557 117.325 24.5879 117.635 24.5879 117.934C24.5879 117.958 24.5883 117.983 24.5889 118.008C24.5951 118.29 24.4884 118.583 24.2656 118.793C24.0092 118.524 23.6683 118.337 23.2852 118.274L23.5811 118.066C23.5811 118.066 23.5828 118.064 23.584 118.062C23.5868 118.055 23.5901 118.044 23.5899 118.03C23.5892 117.999 23.5879 117.968 23.5879 117.937L22.5733 117.222L22.5723 117.221C22.1509 116.923 22.0245 116.353 22.2822 115.905L23.3262 114.097C23.5846 113.649 24.1417 113.472 24.6113 113.688L25.624 114.156C25.624 114.156 25.6273 114.156 25.6299 114.156C25.6372 114.155 25.6488 114.151 25.6611 114.144C25.7176 114.107 25.7758 114.073 25.834 114.039C25.8461 114.032 25.8537 114.023 25.8574 114.018C25.8606 114.013 25.8606 114.012 25.8604 114.014L25.9619 112.909C26.009 112.395 26.44 112 26.957 112H29.0449L29.1406 112.005Z" fill="currentColor"/>
  <path d="M28.001 116C29.1051 116.001 30.001 116.896 30.001 118C30.001 118.474 29.8345 118.909 29.5586 119.252C29.5392 119.251 29.5195 119.25 29.5 119.25H26.4404C26.1657 118.908 26.001 118.473 26.001 118C26.001 116.895 26.8964 116 28.001 116ZM28.001 117C27.4487 117 27.001 117.448 27.001 118C27.001 118.552 27.4487 119 28.001 119C28.5528 118.999 29.001 118.552 29.001 118C29.001 117.448 28.5528 117.001 28.001 117Z" fill="currentColor"/>
</svg>
