<svg xmlns="http://www.w3.org/2000/svg" width="16" height="16" viewBox="20.0 111.0 16.01 16.01" fill="none">
  <path d="M29.5 123C29.7761 123 30 123.224 30 123.5C30 123.776 29.7761 124 29.5 124H24.5C24.2239 124 24 123.776 24 123.5C24 123.224 24.2239 123 24.5 123H29.5Z" fill="currentColor"/>
  <path d="M31.75 123C31.8881 123 32 123.112 32 123.25V123.75C32 123.888 31.8881 124 31.75 124H31.25C31.1119 124 31 123.888 31 123.75V123.25C31 123.112 31.1119 123 31.25 123H31.75Z" fill="currentColor"/>
  <path d="M30.5 112C31.1929 112 31.7633 111.999 32.2129 112.06C32.6766 112.122 33.0861 112.258 33.414 112.586C33.742 112.914 33.878 113.323 33.9404 113.787C34.0008 114.237 34 114.807 34 115.5V123H33.9941C33.9991 123.149 34 123.313 34 123.5C34 123.933 34.0041 124.247 33.9316 124.518C33.7467 125.208 33.2077 125.747 32.5176 125.932C32.2472 126.004 31.9328 126 31.5 126H24.5C24.0672 126 23.7528 126.004 23.4824 125.932C22.7922 125.747 22.2533 125.208 22.0683 124.518C21.9959 124.247 22 123.933 22 123.5C22 123.313 22.0009 123.149 22.0058 123H22V115.5C22 114.807 21.9991 114.237 22.0596 113.787C22.1219 113.323 22.258 112.914 22.5859 112.586C22.9139 112.258 23.3233 112.122 23.7871 112.06C24.2366 111.999 24.807 112 25.5 112H30.5ZM24.5 122C24.0028 122 23.8523 122.004 23.7412 122.034C23.3961 122.127 23.1266 122.396 23.0342 122.741C23.0044 122.852 23 123.003 23 123.5C23 123.997 23.0044 124.148 23.0342 124.259C23.1266 124.604 23.3961 124.873 23.7412 124.966C23.8523 124.996 24.0028 125 24.5 125H31.5C31.9971 125 32.1476 124.996 32.2588 124.966C32.6039 124.873 32.8733 124.604 32.9658 124.259C32.9956 124.148 33 123.997 33 123.5C33 123.003 32.9956 122.852 32.9658 122.741C32.8733 122.396 32.6038 122.127 32.2588 122.034C32.1476 122.004 31.9971 122 31.5 122H24.5ZM25.5 113C24.7789 113 24.2883 113.001 23.9209 113.051C23.5679 113.098 23.4042 113.182 23.2929 113.293C23.1817 113.404 23.0982 113.568 23.0508 113.921C23.0014 114.288 23 114.779 23 115.5V121.268C23.1494 121.181 23.3114 121.114 23.4824 121.068C23.7528 120.996 24.0672 121 24.5 121H31.5C31.9327 121 32.2472 120.996 32.5176 121.068C32.6886 121.114 32.8506 121.181 33 121.268V115.5C33 114.779 32.9986 114.288 32.9492 113.921C32.9017 113.568 32.8183 113.404 32.707 113.293C32.5957 113.182 32.4321 113.098 32.0791 113.051C31.7117 113.001 31.2211 113 30.5 113H25.5Z" fill="currentColor"/>
</svg>
