<svg xmlns="http://www.w3.org/2000/svg" width="16" height="16" viewBox="20.0 111.0 16.0 16.0" fill="none">
  <path d="M28 113C28.5523 113 29 113.448 29 114V124C29 124.552 28.5523 125 28 125C27.4477 125 27 124.552 27 124V120H23V124C23 124.552 22.5523 125 22 125C21.4477 125 21 124.552 21 124V114C21 113.448 21.4477 113 22 113C22.5523 113 23 113.448 23 114V118H27V114C27 113.448 27.4477 113 28 113Z" fill="currentColor"/>
  <path d="M32.5 116.5C33.8807 116.5 35 117.619 35 119V119.268C35 120.002 34.7084 120.706 34.1895 121.225L32.4141 123H34C34.5522 123 34.9999 123.448 35 124C35 124.552 34.5523 125 34 125H31C30.4477 125 30 124.552 30 124C30.0001 123.095 30.3598 122.226 31 121.586L32.7754 119.811C32.9193 119.667 33 119.471 33 119.268V119C33 118.724 32.7761 118.5 32.5 118.5C32.2239 118.5 32 118.724 32 119C32 119.552 31.5523 120 31 120C30.4477 120 30 119.552 30 119C30 117.619 31.1193 116.5 32.5 116.5Z" fill="currentColor"/>
</svg>
