<svg xmlns="http://www.w3.org/2000/svg" width="16" height="16" viewBox="20.0 111.0 16.0 16.0" fill="none">
  <path d="M28 113C28.5523 113 29 113.448 29 114V124C29 124.552 28.5523 125 28 125C27.4477 125 27 124.552 27 124V120H23V124C23 124.552 22.5523 125 22 125C21.4477 125 21 124.552 21 124V114C21 113.448 21.4477 113 22 113C22.5523 113 23 113.448 23 114V118H27V114C27 113.448 27.4477 113 28 113Z" fill="currentColor"/>
  <path d="M32.5 116C33.8807 116 35 117.119 35 118.5V119.312C35 119.751 34.8694 120.158 34.6475 120.5C34.8694 120.842 35 121.249 35 121.688V122.5C35 123.881 33.8807 125 32.5 125H32.1621C30.9681 125 30 124.032 30 122.838C30.0001 122.286 30.4478 121.838 31 121.838C31.5522 121.838 31.9999 122.286 32 122.838C32 122.927 32.0727 123 32.1621 123H32.5C32.7761 123 33 122.776 33 122.5V121.688C32.9999 121.584 32.916 121.5 32.8125 121.5C32.2602 121.5 31.8125 121.052 31.8125 120.5C31.8125 119.948 32.2602 119.5 32.8125 119.5C32.916 119.5 32.9999 119.416 33 119.312V118.5C33 118.224 32.7761 118 32.5 118H32.2031C32.0911 118 32 118.091 32 118.203C31.9999 118.755 31.5522 119.203 31 119.203C30.4478 119.203 30.0001 118.755 30 118.203C30 116.987 30.9865 116 32.2031 116H32.5Z" fill="currentColor"/>
</svg>
