<svg xmlns="http://www.w3.org/2000/svg" width="16" height="16" viewBox="20.0 111.5 15.0 15.0" fill="none">
  <path d="M28 113C28.5523 113 29 113.448 29 114V124C29 124.552 28.5523 125 28 125C27.4477 125 27 124.552 27 124V120H23V124C23 124.552 22.5523 125 22 125C21.4477 125 21 124.552 21 124V114C21 113.448 21.4477 113 22 113C22.5523 113 23 113.448 23 114V118H27V114C27 113.448 27.4477 113 28 113Z" fill="currentColor"/>
  <path d="M32.5039 116.632C32.8134 116.455 33.1937 116.456 33.502 116.635C33.8102 116.814 34 117.144 34 117.5V124C34 124.552 33.5523 125 33 125C32.4477 125 32 124.552 32 124V119.223L31.9961 119.226C31.5166 119.499 30.9058 119.332 30.6318 118.853C30.3581 118.373 30.5244 117.762 31.0039 117.488L32.5039 116.632Z" fill="currentColor"/>
</svg>
