<svg xmlns="http://www.w3.org/2000/svg" width="16" height="16" viewBox="20.0 110.5 17.0 17.0" fill="none">
  <path d="M28 113C28.5523 113 29 113.448 29 114V124C29 124.552 28.5523 125 28 125C27.4477 125 27 124.552 27 124V120H23V124C23 124.552 22.5523 125 22 125C21.4477 125 21 124.552 21 124V114C21 113.448 21.4477 113 22 113C22.5523 113 23 113.448 23 114V118H27V114C27 113.448 27.4477 113 28 113Z" fill="currentColor"/>
  <path d="M33.2197 116.01C34.2196 116.111 34.9999 116.956 35 117.982V121C35.5523 121 36 121.448 36 122C36 122.552 35.5523 123 35 123V124C35 124.552 34.5523 125 34 125C33.4477 125 33 124.552 33 124V123H31C30.6921 123 30.4014 122.858 30.2119 122.615C30.0225 122.373 29.9557 122.056 30.0303 121.758L31.0938 117.502L31.1416 117.34C31.4138 116.544 32.1645 116 33.0176 116L33.2197 116.01ZM32.2803 121H33V118.123L32.2803 121Z" fill="currentColor"/>
</svg>
