<svg xmlns="http://www.w3.org/2000/svg" width="16" height="16" viewBox="20.0 111.0 16.0 16.0" fill="none">
  <path d="M28 112C30.5518 112 32.7378 113.746 32.9766 116.076C34.1369 116.355 34.9999 117.397 35 118.643V119.357L34.9863 119.627C34.873 120.745 34.0625 121.654 32.9971 121.919C32.9956 122.191 32.9933 122.425 32.9795 122.628C32.9587 122.932 32.9151 123.202 32.8096 123.457C32.5558 124.069 32.0693 124.556 31.457 124.81C31.2022 124.915 30.9323 124.959 30.6279 124.979C30.4239 124.993 30.1878 124.997 29.9131 124.998C29.7075 125.581 29.1536 126 28.5 126C27.6716 126 27 125.328 27 124.5C27 123.672 27.6716 123 28.5 123C29.1522 123 29.7055 123.417 29.9121 123.998C30.1764 123.997 30.3851 123.994 30.5605 123.982C30.8138 123.965 30.9616 123.932 31.0742 123.886C31.4416 123.734 31.7335 123.442 31.8857 123.074C31.9324 122.962 31.9651 122.814 31.9824 122.561C31.9938 122.393 31.9966 122.196 31.998 121.949C31.4232 121.791 31 121.267 31 120.643V117.357C31 116.744 31.4072 116.226 31.9658 116.058C31.719 114.374 30.086 113 28 113C25.914 113 24.2799 114.373 24.0332 116.058C24.5923 116.225 25 116.744 25 117.357V120.643C25 121.392 24.3921 122 23.6426 122C22.2742 122 21.1488 120.96 21.0137 119.627L21 119.357V118.643C21.0001 117.397 21.8626 116.356 23.0225 116.076C23.2612 113.746 25.4481 112 28 112ZM23.6426 117C22.7355 117 22.0002 117.735 22 118.643V119.357L22.0088 119.525C22.0931 120.354 22.7922 121 23.6426 121C23.8398 121 24 120.84 24 120.643V117.357C24 117.16 23.8398 117 23.6426 117ZM32.3574 117C32.1602 117 32 117.16 32 117.357V120.643C32 120.84 32.1602 121 32.3574 121C33.2078 121 33.9069 120.354 33.9912 119.525L34 119.357V118.643C33.9998 117.735 33.2645 117 32.3574 117Z" fill="currentColor"/>
</svg>
