<svg xmlns="http://www.w3.org/2000/svg" width="16" height="16" viewBox="20.0 110.54 16.0 16.0" fill="none">
  <path d="M23.6016 120C23.8399 120.317 24.095 120.626 24.3613 120.924C25.6092 122.318 27.027 123.399 27.7686 123.924C27.9111 124.024 28.0889 124.024 28.2314 123.924C28.973 123.399 30.3911 122.318 31.6387 120.924C31.905 120.626 32.1602 120.317 32.3984 120H33.6211C33.2446 120.569 32.8201 121.103 32.3838 121.591C31.0656 123.064 29.5807 124.195 28.8096 124.74C28.3209 125.086 27.6792 125.086 27.1904 124.74C26.4194 124.195 24.9347 123.064 23.6162 121.591C23.1798 121.103 22.7555 120.569 22.3789 120H23.6016Z" fill="currentColor"/>
  <path d="M29.123 115.388C29.4081 115.426 29.5794 115.639 29.6602 115.756C29.7615 115.902 29.8632 116.109 29.9668 116.316L30.8086 118H34.5C34.7761 118 35 118.224 35 118.5C35 118.776 34.7761 119 34.5 119H30.8086C30.7438 119 30.6576 119.001 30.5811 118.993C30.4928 118.984 30.3767 118.96 30.2598 118.888C30.1433 118.816 30.071 118.723 30.0234 118.648C29.9821 118.583 29.9441 118.505 29.915 118.447L29.0723 116.764L27.8281 120.185C27.7562 120.382 27.6844 120.585 27.6045 120.733C27.528 120.876 27.3577 121.135 27.0166 121.168C26.6752 121.201 26.4577 120.979 26.3555 120.854C26.2487 120.723 26.1395 120.538 26.0312 120.357L25.2168 119H21.5C21.2239 119 21 118.776 21 118.5C21 118.224 21.2239 118 21.5 118H25.2168C25.2763 118 25.3563 118 25.4277 118.007C25.4893 118.013 25.565 118.025 25.6455 118.058L25.7275 118.098L25.8037 118.147C25.8731 118.2 25.9231 118.258 25.96 118.308C26.0026 118.365 26.0436 118.434 26.0742 118.485L26.8887 119.843L28.1328 116.422C28.212 116.204 28.2892 115.987 28.373 115.83C28.4494 115.687 28.6292 115.404 28.9932 115.383L29.123 115.388Z" fill="currentColor"/>
  <path d="M31 112C33.2091 112 35 113.791 35 116C35 116.091 34.9945 116.178 34.9902 116.248L34.9893 116.247C34.9776 116.501 34.9482 116.752 34.9033 117H33.8828C33.941 116.733 33.9802 116.465 33.9922 116.195V116.188C33.9967 116.114 34 116.056 34 116C34 114.343 32.6569 113 31 113C29.9093 113 28.9545 113.582 28.4287 114.455C28.3383 114.605 28.1753 114.697 28 114.697C27.8247 114.697 27.6617 114.605 27.5713 114.455C27.0455 113.582 26.0907 113 25 113C23.3431 113 22 114.343 22 116L22.0068 116.188L22.0078 116.195C22.0198 116.465 22.058 116.733 22.1162 117H21.0957C21.0509 116.752 21.0214 116.501 21.0098 116.247L21.0088 116.248C21.0041 116.172 21 116.088 21 116C21 113.791 22.7909 112 25 112C26.1956 112 27.2677 112.525 28 113.355C28.7323 112.525 29.8044 112 31 112Z" fill="currentColor"/>
</svg>
