<svg xmlns="http://www.w3.org/2000/svg" width="16" height="16" viewBox="19.83 111.0 16.0 16.0" fill="none">
  <path d="M27.9995 112C28.4283 112 28.7929 112.27 28.9351 112.649C30.4162 113.139 31.3291 114.758 30.8276 116.354L29.8159 119.572C29.561 120.383 29.0174 121.072 28.2886 121.51C27.8869 121.751 27.4479 121.902 26.9995 121.967V122.5C26.9995 123.881 28.119 125 29.4995 125C30.8802 125 31.9995 123.881 31.9995 122.5V120.912C31.4175 120.706 30.9995 120.153 30.9995 119.5C30.9995 118.672 31.6713 118 32.4995 118C33.328 118 33.9995 118.672 33.9995 119.5C33.9995 120.153 33.5819 120.706 32.9995 120.912V122.5C32.9995 124.433 31.4325 126 29.4995 126C27.5667 126 25.9995 124.433 25.9995 122.5V121.967C25.551 121.902 25.1122 121.75 24.7105 121.509C23.9838 121.073 23.4391 120.386 23.1821 119.578L22.1646 116.378C21.6543 114.773 22.5716 113.142 24.063 112.649C24.2051 112.27 24.5708 112 24.9995 112C25.5518 112 25.9995 112.448 25.9995 113C25.9995 113.552 25.5518 114 24.9995 114C24.6964 114 24.4251 113.864 24.2417 113.651C23.3333 114.029 22.7949 115.059 23.1177 116.074L24.1353 119.275C24.3183 119.851 24.7061 120.34 25.2241 120.651C26.0085 121.122 26.9903 121.123 27.7739 120.652C28.293 120.341 28.6802 119.85 28.8618 119.272L29.8735 116.054C30.1901 115.046 29.6553 114.026 28.7554 113.651C28.572 113.864 28.3023 114 27.9995 114C27.4474 114 26.9995 113.552 26.9995 113C26.9995 112.448 27.4474 112 27.9995 112ZM32.4995 119C32.2236 119 31.9995 119.224 31.9995 119.5C31.9995 119.776 32.2236 120 32.4995 120C32.7757 120 32.9995 119.776 32.9995 119.5C32.9995 119.224 32.7757 119 32.4995 119Z" fill="currentColor"/>
</svg>
