<svg xmlns="http://www.w3.org/2000/svg" width="16" height="16" viewBox="20.0 111.0 17.0 17.0" fill="none">
  <path d="M28.5 112C32.6421 112 36 115.358 36 119.5C36 123.642 32.6421 127 28.5 127C24.3579 127 21 123.642 21 119.5C21 115.358 24.3579 112 28.5 112ZM30.0645 116.235C29.9626 116.407 29.8498 116.678 29.6719 117.11L27.7988 121.659C27.6252 122.081 27.4743 122.45 27.3213 122.709C27.1736 122.959 26.9249 123.277 26.4922 123.293C26.0596 123.309 25.7885 123.01 25.623 122.771C25.4514 122.524 25.2744 122.167 25.0703 121.759L24.3291 120.276C24.2575 120.133 24.2201 120.06 24.1885 120.01L24.1865 120.007H24.1836C24.1249 120.001 24.0422 120 23.8818 120H22.0215C22.2769 123.356 25.0785 126 28.5 126C31.9215 126 34.7231 123.356 34.9785 120H33.0889C32.9553 120 32.8181 120.001 32.7012 119.989C32.5732 119.976 32.4298 119.946 32.2871 119.862C32.1443 119.778 32.048 119.667 31.9746 119.562C31.9077 119.465 31.8422 119.345 31.7773 119.229L30.5713 117.058C30.3442 116.649 30.2002 116.393 30.0791 116.234C30.0767 116.231 30.0736 116.229 30.0713 116.226C30.0694 116.229 30.0664 116.232 30.0645 116.235ZM28.5 113C25.0784 113 22.2759 115.644 22.0205 119H23.8818C24.0219 119 24.1652 118.999 24.2871 119.012C24.3872 119.022 24.4961 119.044 24.6064 119.092L24.7168 119.149L24.8184 119.223C24.9106 119.3 24.9783 119.388 25.0322 119.473C25.0979 119.576 25.1611 119.704 25.2236 119.829L25.9648 121.312C26.1841 121.75 26.3239 122.028 26.4443 122.201C26.4468 122.205 26.4498 122.208 26.4521 122.211C26.4544 122.207 26.4577 122.204 26.46 122.2C26.5674 122.019 26.6874 121.732 26.874 121.278L28.7471 116.729C28.9122 116.328 29.0569 115.974 29.2051 115.725C29.35 115.48 29.5904 115.177 30.0088 115.152L30.1592 115.156C30.4943 115.195 30.7233 115.43 30.874 115.627C31.0502 115.858 31.2347 116.193 31.4453 116.572L32.6514 118.743C32.7257 118.877 32.7649 118.945 32.7969 118.991L32.7979 118.993L32.8008 118.994C32.8566 119 32.9357 119 33.0889 119H34.9795C34.7241 115.644 31.9216 113 28.5 113Z" fill="currentColor"/>
</svg>
