<svg xmlns="http://www.w3.org/2000/svg" width="16" height="16" viewBox="20.0 110.54 16.0 16.0" fill="none">
  <path d="M34 116C34 114.343 32.6569 113 31 113C29.9093 113 28.9545 113.582 28.4287 114.455C28.3383 114.605 28.1753 114.697 28 114.697C27.8247 114.697 27.6617 114.605 27.5713 114.455C27.0455 113.582 26.0907 113 25 113C23.3431 113 22 114.343 22 116L22.0068 116.188L22.0078 116.195C22.0824 117.865 23.102 119.517 24.3613 120.924C25.6092 122.318 27.027 123.399 27.7686 123.924C27.9111 124.024 28.0889 124.024 28.2314 123.924C28.973 123.399 30.3911 122.318 31.6387 120.924C32.8977 119.517 33.9176 117.865 33.9922 116.195V116.188C33.9967 116.114 34 116.056 34 116ZM34.9902 116.248L34.9893 116.247C34.8965 118.265 33.6891 120.132 32.3838 121.591C31.0656 123.064 29.5807 124.195 28.8096 124.74C28.3209 125.086 27.6792 125.086 27.1904 124.74C26.4194 124.195 24.9347 123.064 23.6162 121.591C22.3106 120.132 21.1025 118.265 21.0098 116.247L21.0088 116.248C21.0041 116.172 21 116.088 21 116C21 113.791 22.7909 112 25 112C26.1956 112 27.2677 112.525 28 113.355C28.7323 112.525 29.8044 112 31 112C33.2091 112 35 113.791 35 116C35 116.091 34.9945 116.178 34.9902 116.248Z" fill="currentColor"/>
</svg>
