<svg xmlns="http://www.w3.org/2000/svg" width="16" height="16" viewBox="20.0 111.0 17.0 17.0" fill="none">
  <path d="M28.5049 122.88C28.8501 122.88 29.1299 123.16 29.1299 123.505C29.1299 123.85 28.8501 124.13 28.5049 124.13C28.1597 124.13 27.8799 123.85 27.8799 123.505C27.8799 123.16 28.1597 122.88 28.5049 122.88Z" fill="currentColor"/>
  <path d="M29 121.5C29 121.776 28.7761 122 28.5 122C28.2239 122 28 121.776 28 121.5V115H29V121.5Z" fill="currentColor"/>
  <path d="M31.0859 112C31.4837 112 31.8652 112.158 32.1465 112.439L35.5605 115.854C35.8418 116.135 36 116.516 36 116.914V122.086C36 122.484 35.8418 122.865 35.5605 123.146L32.1465 126.561C31.8652 126.842 31.4837 127 31.0859 127H25.9141C25.5163 127 25.1348 126.842 24.8535 126.561L21.4395 123.146C21.1582 122.865 21 122.484 21 122.086V116.914C21 116.516 21.1582 116.135 21.4395 115.854L24.8535 112.439C25.1348 112.158 25.5163 112 25.9141 112H31.0859ZM25.9141 113C25.7815 113 25.6543 113.053 25.5605 113.146L22.1465 116.561C22.0528 116.654 22 116.782 22 116.914V122.086C22 122.218 22.0528 122.346 22.1465 122.439L25.5605 125.854C25.6543 125.947 25.7815 126 25.9141 126H31.0859C31.2185 126 31.3457 125.947 31.4395 125.854L34.8535 122.439C34.9472 122.346 35 122.218 35 122.086V116.914C35 116.782 34.9472 116.654 34.8535 116.561L31.4395 113.146C31.3457 113.053 31.2185 113 31.0859 113H25.9141Z" fill="currentColor" fill-rule="evenodd" clip-rule="evenodd"/>
</svg>
