<svg xmlns="http://www.w3.org/2000/svg" width="16" height="16" viewBox="20.7 111.4 14.6 14.6" fill="none">
  <path d="M27.9998 112.399C28.5582 112.399 29.0319 112.627 29.5086 112.983C29.9737 113.331 30.4967 113.845 31.1473 114.481L32.6473 115.948C33.2107 116.5 33.5998 116.868 33.8045 117.354C34.0092 117.841 33.9998 118.377 33.9998 119.165V120.5C33.9998 121.428 34.0004 122.175 33.9217 122.761C33.841 123.361 33.6687 123.866 33.2674 124.268C32.8661 124.669 32.3606 124.841 31.7606 124.922C31.1749 125.001 30.4283 125 29.4998 125H26.4998C25.5714 125 24.8247 125.001 24.2391 124.922C23.639 124.841 23.1335 124.669 22.7322 124.268C22.331 123.866 22.1586 123.361 22.0779 122.761C21.9993 122.175 21.9998 121.428 21.9998 120.5V119.165C21.9998 118.377 21.9905 117.841 22.1951 117.354C22.3998 116.868 22.7889 116.5 23.3524 115.948L24.8524 114.481C25.5029 113.845 26.0259 113.331 26.491 112.983C26.9677 112.627 27.4414 112.399 27.9998 112.399ZM27.9998 120C27.4476 120 26.9998 120.448 26.9998 121V124H28.9998V121C28.9998 120.448 28.5521 120 27.9998 120ZM27.9998 113.399C27.7426 113.399 27.4774 113.495 27.0897 113.785C26.6904 114.084 26.2228 114.54 25.5526 115.196L24.0526 116.663C23.4299 117.272 23.2253 117.485 23.117 117.742C23.0088 117.999 22.9998 118.294 22.9998 119.165V120.5C22.9998 121.457 23.0005 122.124 23.0682 122.628C23.1339 123.117 23.2548 123.376 23.4393 123.561C23.6238 123.745 23.8828 123.866 24.3719 123.932C24.7829 123.987 25.3032 123.994 26.0008 123.996C26.0006 123.978 25.9998 123.96 25.9998 123.944V121C25.9998 119.895 26.8953 119 27.9998 119C29.1044 119 29.9998 119.895 29.9998 121V123.944C29.9998 123.96 29.998 123.978 29.9979 123.996C30.696 123.994 31.2165 123.987 31.6278 123.932C32.1169 123.866 32.3759 123.745 32.5604 123.561C32.7449 123.376 32.8657 123.117 32.9315 122.628C32.9992 122.124 32.9998 121.457 32.9998 120.5V119.165C32.9998 118.294 32.9909 117.999 32.8826 117.742C32.7744 117.485 32.5698 117.272 31.9471 116.663L30.4471 115.196C29.7768 114.54 29.3092 114.084 28.91 113.785C28.5223 113.495 28.257 113.399 27.9998 113.399Z" fill="currentColor"/>
</svg>
