<svg xmlns="http://www.w3.org/2000/svg" width="16" height="16" viewBox="20.0 110.89 16.23 16.23" fill="none">
  <path d="M22.5 119C22.7215 119 22.938 118.999 23.1152 119.022C23.3068 119.048 23.5254 119.111 23.707 119.293C23.8887 119.475 23.9518 119.693 23.9776 119.885C23.9825 119.922 23.9863 119.96 23.9893 120H29.5C30.303 120 30.9569 120.632 30.9961 121.425L32.6768 120.741C33.4931 120.409 34.4281 120.761 34.8223 121.55C35.226 122.358 34.9216 123.341 34.1319 123.779L30.9219 125.561C30.4023 125.849 29.8179 126 29.2236 126H28.0772C27.6322 126 27.1915 125.915 26.7783 125.75L25.3506 125.18C25.0555 125.062 24.7406 125.001 24.4229 125.001H23.9883C23.9853 125.041 23.9825 125.079 23.9776 125.115C23.9518 125.307 23.8887 125.525 23.707 125.707C23.5254 125.889 23.3068 125.952 23.1152 125.978C22.938 126.001 22.7215 126 22.5 126C22.2785 126 22.062 126.001 21.8848 125.978C21.6932 125.952 21.4746 125.889 21.293 125.707C21.1114 125.525 21.0482 125.307 21.0225 125.115C21.0106 125.027 21.0057 124.928 21.0029 124.824L21 124.5V120.5C21 120.278 20.9987 120.062 21.0225 119.885C21.0482 119.693 21.1114 119.475 21.293 119.293C21.4746 119.111 21.6932 119.048 21.8848 119.022C22.062 118.999 22.2785 119 22.5 119ZM22.5 120C22.2502 120 22.1127 120.001 22.0176 120.014H22.0137V120.018C22.0009 120.113 22 120.25 22 120.5V124.5L22.002 124.799C22.0038 124.876 22.0073 124.935 22.0137 124.982V124.985L22.0176 124.986C22.1127 124.999 22.2502 125 22.5 125C22.7498 125 22.8873 124.999 22.9824 124.986L22.9854 124.985L22.9863 124.982C22.9991 124.887 23 124.75 23 124.5V120.5C23 120.25 22.9991 120.113 22.9863 120.018L22.9854 120.014H22.9824C22.8873 120.001 22.7498 120 22.5 120ZM24 124.001H24.4229C24.8678 124.001 25.3086 124.086 25.7217 124.251L27.1494 124.822C27.4445 124.94 27.7594 125 28.0772 125H29.2236C29.648 125 30.0655 124.892 30.4365 124.687L33.6465 122.904C33.9678 122.726 34.0919 122.326 33.9277 121.997C33.7672 121.676 33.3862 121.533 33.0537 121.668L30.1885 122.834C30.1842 122.836 30.1791 122.835 30.1748 122.837C29.9718 122.94 29.743 123 29.5 123H27.5C27.2241 123 27 122.776 27 122.5C27 122.224 27.2241 122 27.5 122H29.5C29.7759 122 30 121.776 30 121.5C30 121.224 29.7759 121 29.5 121H24V124.001Z" fill="currentColor"/>
  <path d="M28 117.5C29.8163 117.5 31.1998 118.093 32.0069 118.559C32.5303 118.861 32.831 119.362 32.9453 119.896C32.7638 119.924 32.5825 119.972 32.4053 120.043L31.9854 120.208C31.9386 119.857 31.7668 119.575 31.5069 119.425C30.8066 119.021 29.595 118.5 28 118.5C26.629 118.5 25.5416 118.885 24.8184 119.25H24.5791C24.4465 118.971 24.2442 118.732 23.9922 118.559C24.7993 118.093 26.1837 117.5 28 117.5Z" fill="currentColor"/>
  <path d="M28 112C29.3807 112 30.5 113.119 30.5 114.5C30.5 115.881 29.3807 117 28 117C26.6193 117 25.5 115.881 25.5 114.5C25.5 113.119 26.6193 112 28 112ZM28 113C27.1716 113 26.5 113.672 26.5 114.5C26.5 115.328 27.1716 116 28 116C28.8284 116 29.5 115.328 29.5 114.5C29.5 113.672 28.8284 113 28 113Z" fill="currentColor"/>
</svg>
