<svg xmlns="http://www.w3.org/2000/svg" width="16" height="16" viewBox="20.0 111.0 16.0 16.0" fill="none">
  <path d="M28 121C29.5163 121 30.1807 121.893 30.4053 122.301C30.4757 122.429 30.5 122.575 30.5 122.721C30.5 123.427 29.9271 124 29.2207 124H26.7793C26.0729 124 25.5 123.427 25.5 122.721C25.5 122.575 25.5243 122.429 25.5947 122.301C25.8193 121.893 26.4837 121 28 121Z" fill="currentColor"/>
  <path d="M28 117C28.8284 117 29.5 117.672 29.5 118.5C29.5 119.328 28.8284 120 28 120C27.1716 120 26.5 119.328 26.5 118.5C26.5 117.672 27.1716 117 28 117Z" fill="currentColor"/>
  <path d="M29 114C29.2761 114 29.5 114.224 29.5 114.5C29.5 114.776 29.2761 115 29 115H27C26.7239 115 26.5 114.776 26.5 114.5C26.5 114.224 26.7239 114 27 114H29Z" fill="currentColor"/>
  <path d="M28.5 112C29.4285 112 30.1751 111.999 30.7607 112.078C31.3608 112.159 31.8663 112.331 32.2676 112.732C32.6689 113.134 32.8412 113.639 32.9219 114.239C33.0006 114.825 33 115.572 33 116.5V121.5C33 122.428 33.0006 123.175 32.9219 123.761C32.8412 124.361 32.6689 124.866 32.2676 125.268C31.8663 125.669 31.3608 125.841 30.7607 125.922C30.1751 126.001 29.4285 126 28.5 126H27.5C26.5715 126 25.8249 126.001 25.2393 125.922C24.6392 125.841 24.1337 125.669 23.7324 125.268C23.3311 124.866 23.1588 124.361 23.0781 123.761C22.9994 123.175 23 122.428 23 121.5V116.5C23 115.572 22.9994 114.825 23.0781 114.239C23.1588 113.639 23.3311 113.134 23.7324 112.732C24.1337 112.331 24.6392 112.159 25.2393 112.078C25.8249 111.999 26.5715 112 27.5 112H28.5ZM27.5 113C26.5431 113 25.8756 113.001 25.3721 113.068C24.8829 113.134 24.624 113.255 24.4395 113.439C24.2549 113.624 24.1341 113.883 24.0684 114.372C24.0007 114.876 24 115.543 24 116.5V121.5C24 122.457 24.0007 123.124 24.0684 123.628C24.1341 124.117 24.2549 124.376 24.4395 124.561C24.624 124.745 24.8829 124.866 25.3721 124.932C25.8756 124.999 26.5431 125 27.5 125H28.5C29.4569 125 30.1244 124.999 30.6279 124.932C31.1171 124.866 31.376 124.745 31.5605 124.561C31.7451 124.376 31.8659 124.117 31.9316 123.628C31.9993 123.124 32 122.457 32 121.5V116.5C32 115.543 31.9993 114.876 31.9316 114.372C31.8659 113.883 31.7451 113.624 31.5605 113.439C31.376 113.255 31.1171 113.134 30.6279 113.068C30.1244 113.001 29.4569 113 28.5 113H27.5Z" fill="currentColor"/>
</svg>
