<svg xmlns="http://www.w3.org/2000/svg" width="16" height="16" viewBox="19.95 110.95 16.1 16.1" fill="none">
  <path d="M25 116C25.5523 116 26 116.448 26 117C26 117.552 25.5523 118 25 118C24.4477 118 24 117.552 24 117C24 116.448 24.4477 116 25 116Z" fill="currentColor"/>
  <path d="M34.1465 112.146C34.3417 111.951 34.6583 111.951 34.8535 112.146C35.0487 112.342 35.0488 112.658 34.8535 112.853L21.8535 125.853C21.6583 126.049 21.3417 126.049 21.1465 125.853C20.9512 125.658 20.9513 125.342 21.1465 125.146L21.8867 124.405C21.8338 124.363 21.7821 124.317 21.7324 124.268C21.3312 123.866 21.1588 123.361 21.0781 122.761C20.9994 122.175 21 121.428 21 120.5V117.5C21 116.571 20.9994 115.825 21.0781 115.239C21.1588 114.639 21.3312 114.134 21.7324 113.732C22.1337 113.331 22.6392 113.159 23.2393 113.078C23.8249 112.999 24.5715 113 25.5 113H30.5C31.4285 113 32.1751 112.999 32.7607 113.078C32.8932 113.096 33.0206 113.12 33.1436 113.148L34.1465 112.146ZM25.5 114C24.5431 114 23.8756 114.001 23.3721 114.068C22.8829 114.134 22.624 114.255 22.4395 114.439C22.255 114.624 22.1341 114.883 22.0684 115.372C22.0007 115.876 22 116.543 22 117.5V120.5C22 121.457 22.0007 122.124 22.0684 122.628C22.1341 123.117 22.2549 123.376 22.4395 123.561C22.4875 123.609 22.5426 123.649 22.6035 123.688L32.2588 114.033C31.8069 114.002 31.2401 114 30.5 114H25.5Z" fill="currentColor"/>
  <path d="M34.8037 114.67C34.8563 114.849 34.8949 115.039 34.9219 115.239C35.0006 115.825 35 116.571 35 117.5V120.5C35 121.428 35.0006 122.175 34.9219 122.761C34.8412 123.361 34.6688 123.866 34.2676 124.268C33.8663 124.669 33.3608 124.841 32.7607 124.922C32.1751 125.001 31.4285 125 30.5 125H25.5C25.132 125 24.7926 124.998 24.4805 124.993L25.4746 123.999C25.4831 123.999 25.4915 124 25.5 124H29.293L27.3838 122.091L28.0908 121.384L30.7051 123.998C31.5535 123.998 32.1611 123.994 32.6279 123.932C33.1171 123.866 33.376 123.745 33.5605 123.561C33.7451 123.376 33.8659 123.117 33.9316 122.628C33.9666 122.368 33.9829 122.063 33.9912 121.698L31.5605 119.268C31.2519 118.959 31.0395 118.75 30.8652 118.608L31.5752 117.898C31.7834 118.078 32.0116 118.305 32.2676 118.561L34 120.293V117.5C34 116.638 33.9959 116.011 33.9463 115.527L34.8037 114.67Z" fill="currentColor"/>
</svg>
