<svg xmlns="http://www.w3.org/2000/svg" width="16" height="16" viewBox="20.0 111.5 17.0 17.0" fill="none">
  <path d="M31.5 120C31.7761 120 32 120.224 32 120.5V122H33.5C33.7761 122 34 122.224 34 122.5C34 122.776 33.7761 123 33.5 123H32V124.5C32 124.776 31.7761 125 31.5 125C31.2239 125 31 124.776 31 124.5V123H29.5C29.2239 123 29 122.776 29 122.5C29 122.224 29.2239 122 29.5 122H31V120.5C31 120.224 31.2239 120 31.5 120Z" fill="currentColor"/>
  <path d="M31.5 118C33.9853 118 36 120.015 36 122.5C36 124.985 33.9853 127 31.5 127C29.0147 127 27 124.985 27 122.5C27 120.015 29.0147 118 31.5 118ZM31.5 119C29.567 119 28 120.567 28 122.5C28 124.433 29.567 126 31.5 126C33.433 126 35 124.433 35 122.5C35 120.567 33.433 119 31.5 119Z" fill="currentColor"/>
  <path d="M30.5 113C31.4285 113 32.1751 112.999 32.7607 113.078C33.3608 113.159 33.8663 113.331 34.2676 113.732C34.6689 114.134 34.8412 114.639 34.9219 115.239C35.0006 115.825 35 116.572 35 117.5V118.257C34.693 118.003 34.3576 117.783 34 117.601V117.5C34 116.543 33.9993 115.876 33.9316 115.372C33.8659 114.883 33.7451 114.624 33.5605 114.439C33.376 114.255 33.1171 114.134 32.6279 114.068C32.1244 114.001 31.4569 114 30.5 114H25.5C24.5431 114 23.8756 114.001 23.3721 114.068C22.8829 114.134 22.624 114.255 22.4395 114.439C22.2549 114.624 22.1341 114.883 22.0684 115.372C22.0007 115.876 22 116.543 22 117.5V120.5C22 121.457 22.0007 122.124 22.0684 122.628C22.0948 122.825 22.131 122.984 22.1758 123.116L24.2324 121.061C24.5556 120.737 24.8327 120.458 25.084 120.267C25.3469 120.066 25.6396 119.914 26 119.914C26.2124 119.914 26.4011 119.967 26.5742 120.052C26.4253 120.351 26.303 120.665 26.21 120.992C26.1017 120.924 26.0424 120.914 26 120.914C25.9462 120.914 25.8644 120.929 25.6904 121.062C25.505 121.203 25.2826 121.424 24.9395 121.768L22.8828 123.823C23.0154 123.868 23.1748 123.905 23.3721 123.932C23.8756 123.999 24.5431 124 25.5 124H26.208C26.3067 124.349 26.4395 124.683 26.6016 125H25.5C24.5715 125 23.8249 125.001 23.2393 124.922C22.6392 124.841 22.1337 124.669 21.7324 124.268C21.3311 123.866 21.1588 123.361 21.0781 122.761C20.9994 122.175 21 121.428 21 120.5V117.5C21 116.572 20.9994 115.825 21.0781 115.239C21.1588 114.639 21.3311 114.134 21.7324 113.732C22.1337 113.331 22.6392 113.159 23.2393 113.078C23.8249 112.999 24.5715 113 25.5 113H30.5Z" fill="currentColor"/>
  <path d="M25 116C25.5523 116 26 116.448 26 117C26 117.552 25.5523 118 25 118C24.4477 118 24 117.552 24 117C24 116.448 24.4477 116 25 116Z" fill="currentColor"/>
</svg>
