<svg xmlns="http://www.w3.org/2000/svg" width="16" height="16" viewBox="20.0 111.0 16.0 16.0" fill="none">
  <path d="M25 116C25.5523 116 26 116.448 26 117C26 117.552 25.5523 118 25 118C24.4477 118 24 117.552 24 117C24 116.448 24.4477 116 25 116Z" fill="currentColor"/>
  <path d="M30.5 113C31.4285 113 32.1751 112.999 32.7607 113.078C33.3608 113.159 33.8663 113.331 34.2676 113.732C34.6689 114.134 34.8412 114.639 34.9219 115.239C35.0006 115.825 35 116.572 35 117.5V120.5C35 121.428 35.0006 122.175 34.9219 122.761C34.8412 123.361 34.6689 123.866 34.2676 124.268C33.8663 124.669 33.3608 124.841 32.7607 124.922C32.1751 125.001 31.4285 125 30.5 125H25.5C24.5715 125 23.8249 125.001 23.2393 124.922C22.6392 124.841 22.1337 124.669 21.7324 124.268C21.3311 123.866 21.1588 123.361 21.0781 122.761C20.9994 122.175 21 121.428 21 120.5V117.5C21 116.572 20.9994 115.825 21.0781 115.239C21.1588 114.639 21.3311 114.134 21.7324 113.732C22.1337 113.331 22.6392 113.159 23.2393 113.078C23.8249 112.999 24.5715 113 25.5 113H30.5ZM26 120.914C25.9462 120.914 25.8644 120.929 25.6904 121.062C25.505 121.203 25.2826 121.424 24.9395 121.768L22.8828 123.823C23.0154 123.868 23.1748 123.905 23.3721 123.932C23.8756 123.999 24.5431 124 25.5 124H29.293L27.0605 121.768C26.7174 121.424 26.495 121.203 26.3096 121.062C26.1356 120.929 26.0538 120.914 26 120.914ZM31 118.914C30.9462 118.914 30.8644 118.929 30.6904 119.062C30.505 119.203 30.2826 119.424 29.9395 119.768L28.207 121.5L30.7051 123.998C31.5535 123.998 32.1611 123.994 32.6279 123.932C33.1171 123.866 33.376 123.745 33.5605 123.561C33.7451 123.376 33.8659 123.117 33.9316 122.628C33.9666 122.368 33.9829 122.063 33.9912 121.698L32.0605 119.768C31.7174 119.424 31.495 119.203 31.3096 119.062C31.1356 118.929 31.0538 118.914 31 118.914ZM25.5 114C24.5431 114 23.8756 114.001 23.3721 114.068C22.8829 114.134 22.624 114.255 22.4395 114.439C22.2549 114.624 22.1341 114.883 22.0684 115.372C22.0007 115.876 22 116.543 22 117.5V120.5C22 121.457 22.0007 122.124 22.0684 122.628C22.0948 122.825 22.131 122.984 22.1758 123.116L24.2324 121.061C24.5556 120.737 24.8327 120.458 25.084 120.267C25.3469 120.066 25.6396 119.914 26 119.914C26.3604 119.914 26.6531 120.066 26.916 120.267C27.0948 120.403 27.2848 120.586 27.4971 120.795L29.2324 119.061C29.5556 118.737 29.8327 118.458 30.084 118.267C30.3469 118.066 30.6396 117.914 31 117.914C31.3604 117.914 31.6531 118.066 31.916 118.267C32.1673 118.458 32.4444 118.737 32.7676 119.061L34 120.293V117.5C34 116.543 33.9993 115.876 33.9316 115.372C33.8659 114.883 33.7451 114.624 33.5605 114.439C33.376 114.255 33.1171 114.134 32.6279 114.068C32.1244 114.001 31.4569 114 30.5 114H25.5Z" fill="currentColor"/>
</svg>
