<svg xmlns="http://www.w3.org/2000/svg" width="16" height="16" viewBox="20.0 111.0 16.0 16.0" fill="none">
  <path d="M27.5 114.75C27.9142 114.75 28.25 115.086 28.25 115.5C28.25 115.914 27.9142 116.25 27.5 116.25C27.0858 116.25 26.75 115.914 26.75 115.5C26.75 115.086 27.0858 114.75 27.5 114.75Z" fill="currentColor"/>
  <path d="M30.5 113C31.4285 113 32.1751 112.999 32.7607 113.078C33.3608 113.159 33.8663 113.331 34.2676 113.732C34.6689 114.134 34.8412 114.639 34.9219 115.239C35.0006 115.825 35 116.572 35 117.5V118.5C35 119.428 35.0006 120.175 34.9219 120.761C34.8412 121.361 34.6689 121.866 34.2676 122.268C33.8977 122.637 33.4389 122.811 32.8994 122.899C32.8111 123.439 32.6375 123.898 32.2676 124.268C31.8663 124.669 31.3608 124.841 30.7607 124.922C30.1751 125.001 29.4285 125 28.5 125H25.5C24.5715 125 23.8249 125.001 23.2393 124.922C22.6392 124.841 22.1337 124.669 21.7324 124.268C21.3311 123.866 21.1588 123.361 21.0781 122.761C20.9994 122.175 21 121.428 21 120.5V119.5C21 118.572 20.9994 117.825 21.0781 117.239C21.1588 116.639 21.3311 116.134 21.7324 115.732C22.1022 115.363 22.5605 115.188 23.0996 115.1C23.188 114.56 23.3627 114.102 23.7324 113.732C24.1337 113.331 24.6392 113.159 25.2393 113.078C25.8249 112.999 26.5715 113 27.5 113H30.5ZM23.0137 116.137C22.7445 116.207 22.5726 116.306 22.4395 116.439C22.2549 116.624 22.1341 116.883 22.0684 117.372C22.0007 117.876 22 118.543 22 119.5V120.5C22 121.457 22.0007 122.124 22.0684 122.628C22.1341 123.117 22.2549 123.376 22.4395 123.561C22.624 123.745 22.8829 123.866 23.3721 123.932C23.8756 123.999 24.5431 124 25.5 124H28.5C29.4569 124 30.1244 123.999 30.6279 123.932C31.1171 123.866 31.376 123.745 31.5605 123.561C31.6938 123.427 31.7922 123.255 31.8623 122.985C31.4602 122.998 31.0073 123 30.5 123H27.5C26.5715 123 25.8249 123.001 25.2393 122.922C24.6392 122.841 24.1337 122.669 23.7324 122.268C23.4208 121.956 23.2482 121.581 23.1484 121.148L23.1465 121.146L23.1475 121.145C23.1192 121.021 23.096 120.893 23.0781 120.761C22.9994 120.175 23 119.428 23 118.5V117.5C23 116.992 23.001 116.539 23.0137 116.137ZM26.5 119.414C26.4462 119.414 26.3644 119.429 26.1904 119.562C26.005 119.703 25.7826 119.924 25.4395 120.268L24.3076 121.398C24.3472 121.459 24.3913 121.512 24.4395 121.561C24.624 121.745 24.8829 121.866 25.3721 121.932C25.8756 121.999 26.5431 122 27.5 122H29.293L27.5605 120.268C27.2174 119.924 26.995 119.703 26.8096 119.562C26.6356 119.429 26.5538 119.414 26.5 119.414ZM31.0049 117.856C30.9508 117.857 30.8686 117.872 30.6943 118.008C30.5086 118.153 30.2861 118.379 29.9434 118.729L28.7031 119.996L30.7051 121.998C31.5535 121.998 32.1611 121.994 32.6279 121.932C33.1171 121.866 33.376 121.745 33.5605 121.561C33.7451 121.376 33.8659 121.117 33.9316 120.628C33.9339 120.611 33.9335 120.594 33.9355 120.577L32.0762 118.718C31.7299 118.371 31.5047 118.148 31.3174 118.005C31.1415 117.871 31.059 117.856 31.0049 117.856ZM27.5 114C26.5431 114 25.8756 114.001 25.3721 114.068C24.8829 114.134 24.624 114.255 24.4395 114.439C24.2549 114.624 24.1341 114.883 24.0684 115.372C24.0007 115.876 24 116.543 24 117.5V118.5C24 119.24 24.0017 119.807 24.0332 120.259L24.7324 119.561C25.0556 119.237 25.3327 118.958 25.584 118.767C25.8469 118.566 26.1396 118.414 26.5 118.414C26.8604 118.414 27.1531 118.566 27.416 118.767C27.5939 118.902 27.7832 119.083 27.9941 119.291L29.2285 118.03C29.5514 117.7 29.8287 117.416 30.0801 117.22C30.343 117.015 30.6367 116.858 31 116.856C31.363 116.855 31.6579 117.007 31.9229 117.209C32.1764 117.402 32.4567 117.684 32.7832 118.011L33.9941 119.222C33.9956 119.001 34 118.761 34 118.5V117.5C34 116.543 33.9993 115.876 33.9316 115.372C33.8659 114.883 33.7451 114.624 33.5605 114.439C33.376 114.255 33.1171 114.134 32.6279 114.068C32.1244 114.001 31.4569 114 30.5 114H27.5Z" fill="currentColor"/>
</svg>
