<svg xmlns="http://www.w3.org/2000/svg" width="16" height="16" viewBox="20.0 111.0 16.0 16.0" fill="none">
  <path d="M31.5 116C31.7761 116 32 116.224 32 116.5C32 116.776 31.7761 117 31.5 117H24.5C24.2239 117 24 116.776 24 116.5C24 116.224 24.2239 116 24.5 116H31.5Z" fill="currentColor"/>
  <path d="M31.5 114C31.7761 114 32 114.224 32 114.5C32 114.776 31.7761 115 31.5 115H24.5C24.2239 115 24 114.776 24 114.5C24 114.224 24.2239 114 24.5 114H31.5Z" fill="currentColor"/>
  <path d="M30.3291 112.001C31.1136 112.005 31.7683 112.023 32.3096 112.096C33.0458 112.195 33.6466 112.404 34.1211 112.879C34.5956 113.353 34.8053 113.954 34.9043 114.69C35.0013 115.412 35 116.336 35 117.5V120.5C35 121.664 35.0013 122.588 34.9043 123.31C34.8053 124.046 34.5956 124.647 34.1211 125.121C33.6466 125.596 33.0458 125.805 32.3096 125.904C31.5878 126.001 30.6642 126 29.5 126H26.5C25.3358 126 24.4122 126.001 23.6904 125.904C22.9542 125.805 22.3534 125.596 21.8789 125.121C21.4044 124.647 21.1947 124.046 21.0957 123.31C21.023 122.768 21.0052 122.114 21.001 121.329L21 120.5V117.5C21 116.336 20.9987 115.412 21.0957 114.69C21.1947 113.954 21.4044 113.353 21.8789 112.879C22.3534 112.404 22.9542 112.195 23.6904 112.096C24.4122 111.999 25.3358 112 26.5 112H29.5L30.3291 112.001ZM22 120.5L22.002 121.331C22.0063 122.102 22.0224 122.697 22.0869 123.177C22.171 123.802 22.3282 124.156 22.5859 124.414C22.8436 124.672 23.198 124.829 23.8232 124.913C24.463 124.999 25.3074 125 26.5 125H29.5C30.6926 125 31.537 124.999 32.1768 124.913C32.802 124.829 33.1564 124.672 33.4141 124.414C33.6718 124.156 33.829 123.802 33.9131 123.177C33.9991 122.537 34 121.693 34 120.5V119H32.5205C31.8875 119 31.3473 119.458 31.2432 120.082C31.0587 121.189 30.1014 122 28.9795 122H27.0205C25.8986 122 24.9413 121.189 24.7568 120.082C24.6527 119.458 24.1125 119 23.4795 119H22V120.5ZM26.5 113C25.3074 113 24.463 113.001 23.8232 113.087C23.198 113.171 22.8436 113.328 22.5859 113.586C22.3282 113.844 22.171 114.198 22.0869 114.823C22.0009 115.463 22 116.307 22 117.5V118H23.4795C24.6014 118 25.5587 118.811 25.7432 119.918C25.8473 120.542 26.3875 121 27.0205 121H28.9795C29.6125 121 30.1527 120.542 30.2568 119.918C30.4413 118.811 31.3986 118 32.5205 118H34V117.5C34 116.307 33.9991 115.463 33.9131 114.823C33.829 114.198 33.6718 113.844 33.4141 113.586C33.1564 113.328 32.802 113.171 32.1768 113.087C31.6969 113.022 31.1018 113.006 30.3311 113.002L29.5 113H26.5Z" fill="currentColor"/>
</svg>
