<svg xmlns="http://www.w3.org/2000/svg" width="16" height="16" viewBox="20.0 110.0 17.0 17.0" fill="none">
  <path d="M27.2578 112C27.0043 112.307 26.7844 112.642 26.6016 113H26.5C25.3074 113 24.463 113.001 23.8232 113.087C23.198 113.171 22.8436 113.328 22.5859 113.586C22.3282 113.844 22.171 114.198 22.0869 114.823C22.0009 115.463 22 116.307 22 117.5V118H23.4795C24.6014 118 25.5587 118.811 25.7432 119.918C25.8473 120.542 26.3875 121 27.0205 121H28.9795C29.2786 121 29.5559 120.896 29.7773 120.723C30.1351 120.841 30.5085 120.924 30.8945 120.966C30.4807 121.594 29.7721 122 28.9795 122H27.0205C25.8986 122 24.9413 121.189 24.7568 120.082C24.6527 119.458 24.1125 119 23.4795 119H22V120.5L22.002 121.331C22.0063 122.102 22.0224 122.697 22.0869 123.177C22.171 123.802 22.3282 124.156 22.5859 124.414C22.8436 124.672 23.198 124.829 23.8232 124.913C24.463 124.999 25.3074 125 26.5 125H29.5C30.6926 125 31.537 124.999 32.1768 124.913C32.802 124.829 33.1564 124.672 33.4141 124.414C33.6718 124.156 33.829 123.802 33.9131 123.177C33.9991 122.537 34 121.693 34 120.5V120.398C34.3576 120.216 34.693 119.996 35 119.742V120.5C35 121.664 35.0013 122.588 34.9043 123.31C34.8053 124.046 34.5956 124.647 34.1211 125.121C33.6466 125.596 33.0458 125.805 32.3096 125.904C31.5878 126.001 30.6642 126 29.5 126H26.5C25.3358 126 24.4122 126.001 23.6904 125.904C22.9542 125.805 22.3534 125.596 21.8789 125.121C21.4044 124.647 21.1947 124.046 21.0957 123.31C21.023 122.768 21.0052 122.114 21.001 121.329L21 120.5V117.5C21 116.336 20.9987 115.412 21.0957 114.69C21.1947 113.954 21.4044 113.353 21.8789 112.879C22.3534 112.404 22.9542 112.195 23.6904 112.096C24.4122 111.999 25.3358 112 26.5 112H27.2578Z" fill="currentColor"/>
  <path d="M31.5 113C31.776 113 32 113.224 32 113.5V116.293L33.1465 115.146C33.3417 114.951 33.6583 114.951 33.8535 115.146C34.0486 115.342 34.0486 115.658 33.8535 115.854L31.8535 117.854C31.6827 118.024 31.4186 118.046 31.2246 117.918L31.1465 117.854L29.1465 115.854C28.9514 115.658 28.9514 115.342 29.1465 115.146C29.3417 114.951 29.6583 114.951 29.8535 115.146L31 116.293V113.5C31 113.224 31.224 113 31.5 113Z" fill="currentColor"/>
  <path d="M31.5 111C33.9853 111 36 113.015 36 115.5C36 117.985 33.9853 120 31.5 120C29.0147 120 27 117.985 27 115.5C27 113.015 29.0147 111 31.5 111ZM31.5 112C29.567 112 28 113.567 28 115.5C28 117.433 29.567 119 31.5 119C33.433 119 35 117.433 35 115.5C35 113.567 33.433 112 31.5 112Z" fill="currentColor"/>
</svg>
