<svg xmlns="http://www.w3.org/2000/svg" width="16" height="16" viewBox="20.02 111.02 15.96 15.96" fill="none">
  <path d="M28 115C28.8406 115 29.6654 115.152 30.4385 115.439L29.6465 116.231C29.1156 116.08 28.562 116 28 116C26.4088 116 24.883 116.633 23.7578 117.758L23.5948 117.927C22.7987 118.788 22.2758 119.859 22.083 121.005L22.0381 121.288C22.0047 121.537 22.0128 121.69 22.125 121.823C22.2374 121.956 22.4018 121.989 22.6807 121.997L23 122H33C33.4229 122 33.6612 122 33.8145 121.882L33.875 121.823C33.9873 121.69 33.9953 121.537 33.9619 121.288L33.917 121.005C33.7243 119.859 33.2014 118.788 32.4053 117.927L32.3008 117.819L33.0088 117.111C34.011 118.138 34.6681 119.441 34.9033 120.839C34.9334 121.018 34.9809 121.278 34.9795 121.514C34.9778 121.812 34.9022 122.157 34.6387 122.469C34.3577 122.801 34.0026 122.921 33.7188 122.966C33.483 123.003 33.2084 123 33 123H23C22.7917 123 22.517 123.003 22.2813 122.966C21.9975 122.921 21.6423 122.801 21.3614 122.469C21.0979 122.157 21.0223 121.812 21.0205 121.514C21.0192 121.278 21.0666 121.018 21.0967 120.839C21.3366 119.413 22.0141 118.086 23.0498 117.05C24.3626 115.737 26.1436 115 28 115Z" fill="currentColor"/>
  <path d="M31.1465 116.146C31.3417 115.951 31.6583 115.951 31.8535 116.146C32.0487 116.342 32.0487 116.658 31.8535 116.854L27.8535 120.854C27.6583 121.049 27.3417 121.049 27.1465 120.854L25.1465 118.854C24.9513 118.658 24.9514 118.342 25.1465 118.146C25.3418 117.951 25.6583 117.951 25.8535 118.146L27.5 119.793L31.1465 116.146Z" fill="currentColor"/>
</svg>
