<svg xmlns="http://www.w3.org/2000/svg" width="16" height="16" viewBox="20.07 111.23 15.86 15.86" fill="none">
  <path d="M26.952 112.67C28.2257 112.228 29.6642 112.297 31.0214 113.235C31.6875 113.696 32.2284 114.293 32.4999 115.059C32.7736 115.832 32.704 116.582 32.5057 117.214C32.1446 118.364 31.2508 119.42 30.5848 120.178C29.7978 121.075 29.2118 121.686 28.8778 122.237C28.8686 122.252 28.8604 122.267 28.8524 122.281C29.3198 122.577 29.901 122.586 30.6141 122.372C31.0198 122.25 31.3895 122.073 31.6639 121.921C31.7983 121.846 31.9042 121.781 31.9716 121.738C32.0046 121.717 32.028 121.7 32.0409 121.691C32.0469 121.687 32.0526 121.683 32.0526 121.683C32.7791 121.163 33.7907 121.327 34.3153 122.051C34.8414 122.778 34.678 123.795 33.9511 124.321C33.9511 124.321 33.9983 124.281 33.9501 124.322L33.9491 124.323L33.9471 124.324C33.9471 124.324 33.9432 124.326 33.9413 124.328C33.9372 124.331 33.9322 124.335 33.9266 124.339C33.915 124.347 33.8995 124.358 33.8817 124.37C33.8456 124.395 33.7963 124.428 33.7362 124.466C33.6158 124.544 33.4471 124.649 33.2401 124.763C32.8308 124.99 32.242 125.276 31.5507 125.484C30.1981 125.891 28.1051 126.083 26.3807 124.459C25.7739 123.887 25.4617 123.143 25.4969 122.335C25.5281 121.623 25.8235 121.006 26.0985 120.552C26.628 119.679 27.5329 118.728 28.1425 118.034C28.8728 117.202 29.2809 116.636 29.4052 116.241C29.4221 116.187 29.4258 116.152 29.4276 116.133C29.4022 116.098 29.3337 116.019 29.1727 115.908C28.7479 115.614 28.4075 115.606 28.0165 115.741C27.5344 115.908 26.9708 116.316 26.3846 116.926C25.8165 117.519 25.3255 118.197 24.9706 118.744C24.7958 119.013 24.6595 119.243 24.5682 119.402C24.5228 119.481 24.4882 119.543 24.4667 119.583C24.4561 119.602 24.4486 119.617 24.4442 119.625L24.4393 119.631C24.024 120.426 23.0434 120.735 22.2479 120.32C21.4525 119.905 21.1446 118.923 21.5594 118.128L21.5604 118.126L21.5614 118.123C21.5614 118.123 21.564 118.118 21.5653 118.116C21.5681 118.111 21.5717 118.104 21.5761 118.095C21.5852 118.078 21.5982 118.054 21.6141 118.025C21.646 117.967 21.692 117.885 21.7499 117.784C21.8656 117.582 22.0324 117.302 22.244 116.975C22.6627 116.33 23.2787 115.469 24.0389 114.676C24.7813 113.903 25.7696 113.079 26.952 112.67Z" fill="currentColor"/>
</svg>
