<svg xmlns="http://www.w3.org/2000/svg" width="16" height="16" viewBox="20.46 111.12 15.06 15.06" fill="none">
  <path d="M27.075 112.524C28.2468 112.118 29.5577 112.18 30.8074 113.044C31.4278 113.472 31.9078 114.011 32.1463 114.684C32.3863 115.362 32.3286 116.026 32.1482 116.601C31.8143 117.665 30.976 118.664 30.3025 119.431C29.5361 120.304 28.913 120.953 28.5564 121.542C28.4773 121.672 28.4279 121.775 28.3992 121.852C28.3932 121.868 28.3903 121.884 28.3865 121.896C29.026 122.473 29.837 122.498 30.7224 122.231C31.1611 122.099 31.5565 121.909 31.8465 121.749C31.989 121.67 32.1012 121.6 32.1746 121.552C32.2109 121.529 32.2381 121.511 32.2537 121.501C32.2611 121.495 32.2661 121.491 32.2683 121.49C32.8274 121.088 33.6074 121.214 34.0115 121.772C34.4157 122.331 34.2902 123.113 33.7312 123.517L33.7283 123.52L33.7234 123.523C33.7198 123.526 33.7148 123.529 33.7097 123.533C33.6993 123.54 33.6852 123.55 33.6687 123.561C33.6353 123.584 33.589 123.615 33.532 123.652C33.4178 123.726 33.2568 123.825 33.0584 123.935C32.6647 124.153 32.1013 124.426 31.4431 124.625C30.1495 125.014 28.2211 125.178 26.6375 123.686C26.1065 123.186 25.8416 122.546 25.8718 121.851C25.899 121.231 26.1574 120.678 26.4187 120.247C26.9256 119.41 27.7945 118.499 28.4246 117.782C29.1475 116.959 29.6109 116.336 29.7625 115.853C29.8244 115.656 29.8057 115.564 29.7898 115.519C29.7721 115.469 29.7009 115.318 29.3865 115.1C28.8539 114.732 28.3864 114.716 27.8933 114.886C27.3305 115.081 26.7181 115.537 26.114 116.167C25.5237 116.782 25.0183 117.481 24.656 118.04C24.4769 118.316 24.337 118.552 24.2429 118.715C24.1961 118.797 24.1602 118.861 24.1375 118.903C24.1263 118.923 24.118 118.939 24.1131 118.948C24.1107 118.952 24.1082 118.958 24.1082 118.958C23.7887 119.569 23.0335 119.806 22.4217 119.487C21.8099 119.168 21.5727 118.413 21.8914 117.801L21.8924 117.8L21.8933 117.797C21.8933 117.797 21.8951 117.793 21.8963 117.791C21.8988 117.786 21.9028 117.779 21.907 117.771C21.9156 117.755 21.928 117.733 21.9431 117.705C21.9738 117.648 22.0185 117.569 22.075 117.47C22.1879 117.274 22.3511 116.999 22.5584 116.679C22.9697 116.045 23.5713 115.205 24.3093 114.436C25.0337 113.681 25.9732 112.906 27.075 112.524Z" fill="currentColor"/>
</svg>
