<svg xmlns="http://www.w3.org/2000/svg" width="16" height="16" viewBox="19.67 110.84 16.65 16.65" fill="none">
  <path d="M26.8306 112.315C28.2059 111.839 29.7704 111.914 31.2349 112.926C31.9468 113.419 32.5494 114.074 32.854 114.934C33.1612 115.802 33.0807 116.637 32.8648 117.326C32.4762 118.564 31.5253 119.676 30.8667 120.426C30.2225 121.16 29.7433 121.672 29.4175 122.11C29.7056 122.173 30.0584 122.147 30.5064 122.012C30.8792 121.9 31.2241 121.736 31.4829 121.592C31.609 121.523 31.7069 121.462 31.7681 121.422C31.796 121.404 31.8158 121.391 31.8267 121.383C32.7213 120.737 33.9723 120.937 34.6196 121.832C35.2668 122.726 35.0666 123.977 34.1724 124.625L34.1704 124.626L34.1694 124.627L34.1665 124.628C34.1646 124.63 34.162 124.632 34.1597 124.633C34.155 124.637 34.1493 124.641 34.1431 124.645C34.1301 124.654 34.1136 124.666 34.0942 124.679C34.0554 124.706 34.0033 124.741 33.94 124.782C33.8134 124.864 33.6378 124.972 33.4224 125.091C32.9976 125.327 32.3838 125.624 31.6597 125.842C30.2484 126.267 27.9899 126.489 26.1245 124.732C25.4417 124.089 25.0833 123.24 25.1235 122.318C25.1587 121.515 25.4892 120.834 25.7778 120.358C26.33 119.447 27.2728 118.458 27.8618 117.787C28.5115 117.047 28.861 116.563 29.0015 116.248C28.9889 116.238 28.9754 116.227 28.9605 116.216C28.6431 115.997 28.4284 115.995 28.1392 116.095C27.7379 116.234 27.2238 116.594 26.6558 117.186C26.1096 117.755 25.6333 118.412 25.2857 118.948C25.1151 119.211 24.9825 119.434 24.8941 119.588C24.85 119.665 24.8167 119.725 24.7964 119.762C24.7864 119.781 24.7797 119.794 24.7759 119.801L24.773 119.805L24.772 119.807L24.6704 119.981C24.1132 120.828 22.9937 121.13 22.0757 120.652C21.0964 120.141 20.7162 118.933 21.2271 117.954L21.228 117.953L21.23 117.949C21.2311 117.947 21.2324 117.944 21.2339 117.941C21.237 117.935 21.2408 117.928 21.2456 117.919C21.2553 117.9 21.2691 117.876 21.2857 117.845C21.3188 117.785 21.3659 117.701 21.4253 117.597C21.5439 117.391 21.7141 117.104 21.9302 116.771C22.3563 116.114 22.9865 115.232 23.7691 114.417C24.5295 113.624 25.5671 112.753 26.8306 112.315Z" fill="currentColor"/>
</svg>
