<svg xmlns="http://www.w3.org/2000/svg" width="16" height="16" viewBox="20.85 111.51 14.26 14.26" fill="none">
  <path d="M27.198 112.878C28.2679 112.507 29.4525 112.561 30.5945 113.35C31.1689 113.747 31.5874 114.229 31.7927 114.808C31.9991 115.391 31.9534 115.969 31.7908 116.488C31.4843 117.465 30.7022 118.408 30.0212 119.183C29.2753 120.033 28.6153 120.721 28.2361 121.346C28.0521 121.65 27.9994 121.841 27.9949 121.943C27.9927 121.993 27.9933 122.043 28.0945 122.138C28.8798 122.878 29.8701 122.877 30.8298 122.589C31.3016 122.447 31.7225 122.245 32.0281 122.076C32.1793 121.992 32.2991 121.918 32.3787 121.867C32.4182 121.841 32.4474 121.821 32.4656 121.808C32.4744 121.802 32.4807 121.798 32.4841 121.796L32.4851 121.795C32.8766 121.511 33.4244 121.6 33.7078 121.991C33.9728 122.358 33.9124 122.861 33.5818 123.156L33.5115 123.213L33.5105 123.214L33.5085 123.215L33.5046 123.218C33.5018 123.22 33.4982 123.222 33.4939 123.225C33.4848 123.232 33.4721 123.24 33.4568 123.251C33.426 123.272 33.383 123.302 33.3289 123.337C33.2206 123.407 33.0662 123.501 32.8757 123.606C32.4976 123.816 31.9601 124.076 31.3347 124.264C30.1 124.636 28.3381 124.771 26.8953 123.412C26.44 122.983 26.2206 122.448 26.2459 121.867C26.269 121.338 26.4914 120.849 26.739 120.44C27.2235 119.641 28.0553 118.769 28.7058 118.028C29.4215 117.213 29.942 116.534 30.1209 115.965C30.2006 115.71 30.1928 115.533 30.1433 115.393C30.0925 115.25 29.9598 115.04 29.5994 114.791C28.9592 114.348 28.3651 114.325 27.7703 114.531C27.1265 114.754 26.4648 115.257 25.8425 115.906C25.23 116.544 24.7112 117.265 24.3416 117.835C24.1581 118.118 24.0147 118.359 23.9177 118.528C23.8693 118.612 23.8323 118.679 23.8084 118.722C23.7966 118.744 23.7875 118.76 23.782 118.77L23.7752 118.784C23.5514 119.212 23.0235 119.377 22.5955 119.154C22.167 118.931 22.0009 118.402 22.2244 117.973L22.2253 117.97C22.2253 117.97 22.2272 117.968 22.2283 117.966C22.2306 117.961 22.234 117.955 22.238 117.947C22.2461 117.932 22.2575 117.911 22.2722 117.884C22.3018 117.829 22.345 117.752 22.4002 117.656C22.5103 117.464 22.6706 117.196 22.8738 116.883C23.2778 116.26 23.864 115.441 24.5798 114.695C25.2862 113.959 26.177 113.231 27.198 112.878Z" fill="currentColor"/>
</svg>
