<svg xmlns="http://www.w3.org/2000/svg" width="16" height="16" viewBox="21.25 111.9 13.47 13.47" fill="none">
  <path d="M27.3202 113.232C28.2884 112.897 29.3472 112.944 30.3817 113.659C30.9105 114.024 31.2672 114.448 31.4394 114.934C31.6121 115.422 31.5774 115.914 31.4325 116.376C31.1534 117.265 30.4275 118.151 29.7392 118.935C29.0136 119.762 28.3167 120.489 27.915 121.152C27.7174 121.478 27.6285 121.733 27.62 121.927C27.6129 122.091 27.6604 122.245 27.8378 122.412C28.764 123.284 29.9197 123.255 30.9384 122.948C31.4431 122.796 31.8888 122.582 32.2099 122.404C32.3695 122.316 32.4962 122.237 32.5819 122.181C32.6246 122.154 32.6577 122.132 32.6786 122.118C32.6889 122.111 32.6965 122.106 32.7011 122.102C32.7032 122.101 32.706 122.098 32.706 122.098C32.9296 121.937 33.2424 121.987 33.4042 122.211C33.5457 122.407 33.5245 122.67 33.3671 122.842L33.2919 122.909L33.29 122.91L33.287 122.912C33.2846 122.914 33.2811 122.916 33.2773 122.919C33.2693 122.924 33.258 122.933 33.2441 122.942C33.216 122.961 33.1757 122.988 33.1249 123.021C33.0228 123.087 32.8762 123.178 32.6942 123.279C32.3317 123.48 31.8188 123.727 31.2265 123.905C30.0506 124.259 28.4542 124.366 27.1523 123.139C26.7727 122.782 26.6006 122.35 26.621 121.883C26.6402 121.445 26.8265 121.021 27.0605 120.635C27.5223 119.873 28.3172 119.04 28.9882 118.276C29.6964 117.47 30.2722 116.734 30.4784 116.077C30.576 115.766 30.58 115.503 30.497 115.268C30.4131 115.032 30.219 114.763 29.8124 114.482C29.0649 113.966 28.3449 113.935 27.6484 114.177C26.9237 114.428 26.2125 114.98 25.5722 115.647C24.9377 116.309 24.4042 117.05 24.0273 117.631C23.8395 117.92 23.6925 118.168 23.5927 118.342C23.5429 118.428 23.5045 118.497 23.4794 118.543C23.4669 118.566 23.4571 118.583 23.4511 118.595C23.4484 118.6 23.4466 118.604 23.4452 118.606L23.4433 118.609C23.3154 118.854 23.0131 118.95 22.7685 118.822C22.5238 118.694 22.4291 118.392 22.5566 118.147L22.5575 118.145C22.5575 118.145 22.5595 118.142 22.5605 118.14C22.5625 118.137 22.5655 118.131 22.5692 118.124C22.5768 118.11 22.5874 118.089 22.6015 118.063C22.6298 118.011 22.6719 117.937 22.7255 117.844C22.8328 117.657 22.9893 117.394 23.1884 117.087C23.585 116.475 24.1569 115.678 24.8505 114.955C25.5387 114.238 26.3803 113.558 27.3202 113.232Z" fill="currentColor"/>
</svg>
