<svg xmlns="http://www.w3.org/2000/svg" width="16" height="16" viewBox="18.0 110.0 17.0 17.0" fill="none">
  <path d="M24.5 119C24.7761 119 25 119.224 25 119.5V121H26.5C26.7761 121 27 121.224 27 121.5C27 121.776 26.7761 122 26.5 122H25V123.5C25 123.776 24.7761 124 24.5 124C24.2239 124 24 123.776 24 123.5V122H22.5C22.2239 122 22 121.776 22 121.5C22 121.224 22.2239 121 22.5 121H24V119.5C24 119.224 24.2239 119 24.5 119Z" fill="currentColor"/>
  <path d="M24.5 117C26.9853 117 29 119.015 29 121.5C29 123.985 26.9853 126 24.5 126C22.0147 126 20 123.985 20 121.5C20 119.015 22.0147 117 24.5 117ZM24.5 118C22.567 118 21 119.567 21 121.5C21 123.433 22.567 125 24.5 125C26.433 125 28 123.433 28 121.5C28 119.567 26.433 118 24.5 118Z" fill="currentColor"/>
  <path d="M29.5 111C30.193 111 30.7634 110.999 31.2129 111.06C31.6766 111.122 32.0861 111.258 32.4141 111.586C32.742 111.914 32.878 112.323 32.9404 112.787C33.0009 113.237 33 113.807 33 114.5V121.5C33 122.193 33.0009 122.763 32.9404 123.213C32.878 123.677 32.742 124.086 32.4141 124.414C32.0861 124.742 31.6767 124.878 31.2129 124.94C30.7634 125.001 30.193 125 29.5 125C29.2301 125 28.9789 124.998 28.7461 124.994C28.998 124.688 29.2165 124.355 29.3984 123.999C29.4318 123.999 29.4656 124 29.5 124C30.2212 124 30.7117 123.999 31.0791 123.949C31.4321 123.902 31.5957 123.818 31.707 123.707C31.8183 123.596 31.9018 123.432 31.9492 123.079C31.9986 122.712 32 122.221 32 121.5V114.5C32 113.779 31.9986 113.288 31.9492 112.921C31.9018 112.568 31.8183 112.404 31.707 112.293C31.5957 112.182 31.4321 112.098 31.0791 112.051C30.7117 112.001 30.2212 112 29.5 112C28.7788 112 28.2883 112.001 27.9209 112.051C27.5679 112.098 27.4043 112.182 27.293 112.293C27.1817 112.404 27.0982 112.568 27.0508 112.921C27.0014 113.288 27 113.779 27 114.5V116.601C26.6832 116.439 26.3487 116.307 26 116.208V114.5C26 113.807 25.9991 113.237 26.0596 112.787C26.122 112.323 26.258 111.914 26.5859 111.586C26.9139 111.258 27.3234 111.122 27.7871 111.06C28.2366 110.999 28.807 111 29.5 111Z" fill="currentColor"/>
</svg>
