<svg xmlns="http://www.w3.org/2000/svg" width="16" height="16" viewBox="21.0 110.0 17.0 17.0" fill="none">
  <path d="M31.5 119C31.7761 119 32 119.224 32 119.5V121H33.5C33.7761 121 34 121.224 34 121.5C34 121.776 33.7761 122 33.5 122H32V123.5C32 123.776 31.7761 124 31.5 124C31.2239 124 31 123.776 31 123.5V122H29.5C29.2239 122 29 121.776 29 121.5C29 121.224 29.2239 121 29.5 121H31V119.5C31 119.224 31.2239 119 31.5 119Z" fill="currentColor"/>
  <path d="M31.5 117C33.9853 117 36 119.015 36 121.5C36 123.985 33.9853 126 31.5 126C29.0147 126 27 123.985 27 121.5C27 119.015 29.0147 117 31.5 117ZM31.5 118C29.567 118 28 119.567 28 121.5C28 123.433 29.567 125 31.5 125C33.433 125 35 123.433 35 121.5C35 119.567 33.433 118 31.5 118Z" fill="currentColor"/>
  <path d="M26.5 111C27.193 111 27.7634 110.999 28.2129 111.06C28.6766 111.122 29.0861 111.258 29.4141 111.586C29.742 111.914 29.878 112.323 29.9404 112.787C30.0009 113.237 30 113.807 30 114.5V116.208C29.6513 116.307 29.3168 116.439 29 116.601V114.5C29 113.779 28.9986 113.288 28.9492 112.921C28.9018 112.568 28.8183 112.404 28.707 112.293C28.5957 112.182 28.4321 112.098 28.0791 112.051C27.7117 112.001 27.2212 112 26.5 112C25.7788 112 25.2883 112.001 24.9209 112.051C24.5679 112.098 24.4043 112.182 24.293 112.293C24.1817 112.404 24.0982 112.568 24.0508 112.921C24.0014 113.288 24 113.779 24 114.5V121.5C24 122.221 24.0014 122.712 24.0508 123.079C24.0982 123.432 24.1817 123.596 24.293 123.707C24.4043 123.818 24.5679 123.902 24.9209 123.949C25.2883 123.999 25.7788 124 26.5 124C26.534 124 26.5676 123.999 26.6006 123.999C26.7824 124.355 27.0011 124.688 27.2529 124.994C27.0204 124.998 26.7695 125 26.5 125C25.807 125 25.2366 125.001 24.7871 124.94C24.3234 124.878 23.9139 124.742 23.5859 124.414C23.258 124.086 23.122 123.677 23.0596 123.213C22.9991 122.763 23 122.193 23 121.5V114.5C23 113.807 22.9991 113.237 23.0596 112.787C23.122 112.323 23.258 111.914 23.5859 111.586C23.9139 111.258 24.3234 111.122 24.7871 111.06C25.2366 110.999 25.807 111 26.5 111Z" fill="currentColor"/>
</svg>
