<svg xmlns="http://www.w3.org/2000/svg" width="16" height="16" viewBox="20.0 111.0 16.0 16.0" fill="none">
  <path d="M28 115.406C26.0145 115.406 24.4055 117.015 24.4055 119C24.4055 120.985 26.0145 122.594 28 122.594C29.9855 122.594 31.5945 120.985 31.5945 119C31.5945 117.015 29.9855 115.406 28 115.406ZM28 121.333C26.7115 121.333 25.6665 120.289 25.6665 119C25.6665 117.711 26.7115 116.667 28 116.667C29.2885 116.667 30.3335 117.711 30.3335 119C30.3335 120.289 29.2885 121.333 28 121.333Z" fill="currentColor"/>
  <path d="M31.7367 116.103C32.2007 116.103 32.5767 115.727 32.5767 115.263C32.5767 114.799 32.2007 114.423 31.7367 114.423C31.2727 114.423 30.8967 114.799 30.8967 115.263C30.8967 115.727 31.2727 116.103 31.7367 116.103Z" fill="currentColor"/>
  <path d="M28 112C26.099 112 25.8605 112.008 25.114 112.042C24.3685 112.076 23.86 112.195 23.4145 112.368C22.9545 112.547 22.564 112.785 22.175 113.175C21.7855 113.564 21.5465 113.954 21.3675 114.415C21.1945 114.86 21.076 115.369 21.042 116.114C21.008 116.86 21 117.099 21 119C21 120.901 21.008 121.139 21.042 121.886C21.076 122.631 21.1945 123.14 21.3675 123.585C21.5465 124.045 21.7855 124.436 22.175 124.825C22.564 125.214 22.9545 125.453 23.4145 125.632C23.86 125.806 24.3685 125.924 25.114 125.958C25.8605 125.992 26.099 126 28 126C29.901 126 30.1395 125.992 30.886 125.958C31.6315 125.924 32.14 125.806 32.5855 125.632C33.0455 125.453 33.436 125.214 33.825 124.825C34.2145 124.436 34.4535 124.045 34.6325 123.585C34.8055 123.14 34.924 122.631 34.958 121.886C34.992 121.139 35 120.901 35 119C35 117.099 34.992 116.86 34.958 116.114C34.924 115.369 34.8055 114.86 34.6325 114.415C34.4535 113.954 34.2145 113.564 33.825 113.175C33.436 112.785 33.0455 112.547 32.5855 112.368C32.14 112.195 31.6315 112.076 30.886 112.042C30.1395 112.008 29.901 112 28 112ZM28 113.261C29.869 113.261 30.0905 113.269 30.8285 113.302C31.511 113.334 31.882 113.447 32.1285 113.543C32.455 113.67 32.6885 113.822 32.933 114.066C33.178 114.312 33.33 114.545 33.457 114.872C33.5525 115.118 33.667 115.489 33.698 116.172C33.7315 116.91 33.739 117.131 33.739 119C33.739 120.869 33.7315 121.09 33.698 121.828C33.667 122.511 33.5525 122.882 33.457 123.128C33.33 123.455 33.178 123.688 32.933 123.933C32.6885 124.178 32.455 124.33 32.1285 124.457C31.882 124.552 31.511 124.667 30.8285 124.698C30.0905 124.732 29.869 124.739 28 124.739C26.131 124.739 25.9095 124.732 25.1715 124.698C24.489 124.667 24.118 124.552 23.8715 124.457C23.545 124.33 23.3115 124.178 23.067 123.933C22.822 123.688 22.67 123.455 22.543 123.128C22.4475 122.882 22.333 122.511 22.302 121.828C22.2685 121.09 22.261 120.869 22.261 119C22.261 117.131 22.2685 116.91 22.302 116.172C22.333 115.489 22.4475 115.118 22.543 114.872C22.67 114.545 22.822 114.312 23.067 114.066C23.3115 113.822 23.545 113.67 23.8715 113.543C24.118 113.447 24.489 113.334 25.1715 113.302C25.9095 113.269 26.131 113.261 28 113.261Z" fill="currentColor"/>
</svg>
