<svg xmlns="http://www.w3.org/2000/svg" width="16" height="16" viewBox="20.43 110.2 14.57 14.57" fill="none">
  <path d="M23.2227 114.084C23.3761 113.982 23.5738 113.973 23.7364 114.06C23.8987 114.147 24 114.316 24 114.5V120.5C24 120.776 23.7762 121 23.5 121C23.2239 121 23 120.776 23 120.5V115.434L22.2774 115.916C22.0476 116.069 21.7372 116.007 21.584 115.777C21.4309 115.548 21.4929 115.237 21.7227 115.084L23.2227 114.084Z" fill="currentColor"/>
  <path d="M27 114C28.1046 114 29 114.895 29 116V116.202C29 116.856 28.7092 117.476 28.2071 117.895L26.5889 119.244C26.3481 119.445 26.174 119.708 26.0801 120H28.5C28.7761 120 28.9999 120.224 29 120.5C29 120.776 28.7762 121 28.5 121H25.5C25.2239 121 25 120.776 25 120.5C25.0001 119.718 25.3475 118.976 25.9483 118.476L27.5674 117.126C27.8414 116.898 28 116.559 28 116.202V116C28 115.448 27.5523 115 27 115C26.4478 115 26 115.448 26 116C26 116.276 25.7762 116.5 25.5 116.5C25.2239 116.5 25 116.276 25 116C25 114.895 25.8955 114 27 114Z" fill="currentColor"/>
  <path d="M32 114C33.1046 114 34 114.895 34 116C34 116.598 33.7357 117.133 33.3194 117.5C33.7358 117.866 33.9999 118.402 34 119C34 120.105 33.1046 121 32 121H31.7862C30.8 121 30 120.2 30 119.214C30.0004 118.938 30.2242 118.714 30.5 118.714C30.7759 118.714 30.9996 118.938 31 119.214C31 119.648 31.3522 120 31.7862 120H32C32.5523 120 33 119.552 33 119C32.9999 118.448 32.5522 118 32 118C31.9656 118 31.9319 117.997 31.8994 117.99C31.8344 117.977 31.7739 117.951 31.7207 117.915C31.5876 117.825 31.5 117.673 31.5 117.5C31.5001 117.362 31.556 117.237 31.6465 117.146C31.737 117.056 31.862 117 32 117C32.5523 117 33 116.552 33 116C33 115.448 32.5523 115 32 115C31.4478 115 31.0001 115.448 31 116C31 116.276 30.7762 116.5 30.5 116.5C30.2239 116.5 30 116.276 30 116C30.0001 114.895 30.8955 114 32 114Z" fill="currentColor"/>
</svg>
