<svg xmlns="http://www.w3.org/2000/svg" width="16" height="16" viewBox="20.0 116.0 17.0 17.0" fill="none">
  <path d="M31.5 125C31.7762 125 32 125.224 32 125.5V127H33.5C33.7762 127 34 127.224 34 127.5C34 127.776 33.7762 128 33.5 128H32V129.5C32 129.776 31.7762 130 31.5 130C31.2239 130 31 129.776 31 129.5V128H29.5C29.2239 128 29 127.776 29 127.5C29 127.224 29.2239 127 29.5 127H31V125.5C31 125.224 31.2239 125 31.5 125Z" fill="currentColor"/>
  <path d="M31.5 123C33.9853 123 36 125.015 36 127.5C36 129.985 33.9853 132 31.5 132C29.0147 132 27 129.985 27 127.5C27 125.015 29.0147 123 31.5 123ZM31.5 124C29.567 124 28 125.567 28 127.5C28 129.433 29.567 131 31.5 131C33.433 131 35 129.433 35 127.5C35 125.567 33.433 124 31.5 124Z" fill="currentColor"/>
  <path d="M33.5 117C33.7215 117 33.9381 116.999 34.1152 117.022C34.3068 117.048 34.5255 117.111 34.707 117.293C34.8886 117.475 34.9518 117.693 34.9776 117.885C35.0014 118.062 35 118.278 35 118.5V119.5C35 119.722 35.0014 119.938 34.9776 120.115C34.9518 120.307 34.8887 120.525 34.707 120.707C34.5254 120.889 34.3068 120.952 34.1152 120.978C34.0785 120.982 34.0399 120.985 34 120.988V122.601C33.6832 122.439 33.3487 122.307 33 122.208V121H23V125.5C23 126.221 23.0014 126.712 23.0508 127.079C23.0982 127.432 23.1817 127.596 23.293 127.707C23.4043 127.818 23.5679 127.902 23.9209 127.949C24.2883 127.999 24.7789 128 25.5 128H26.0235C26.0544 128.343 26.1168 128.678 26.208 129H25.5C24.8071 129 24.2366 129.001 23.7871 128.94C23.3234 128.878 22.9139 128.742 22.586 128.414C22.258 128.086 22.122 127.677 22.0596 127.213C21.9992 126.763 22 126.193 22 125.5V120.988C21.9602 120.985 21.9215 120.982 21.8848 120.978C21.6932 120.952 21.4746 120.889 21.293 120.707C21.1114 120.525 21.0482 120.307 21.0225 120.115C20.9987 119.938 21 119.722 21 119.5V118.5C21 118.278 20.9987 118.062 21.0225 117.885C21.0482 117.693 21.1114 117.475 21.293 117.293C21.4746 117.111 21.6932 117.048 21.8848 117.022C22.062 116.999 22.2785 117 22.5 117H33.5ZM22.5 118C22.2502 118 22.1127 118.001 22.0176 118.014H22.0137V118.018C22.0009 118.113 22 118.25 22 118.5V119.5C22 119.75 22.0009 119.887 22.0137 119.982V119.985L22.0176 119.986C22.1127 119.999 22.2502 120 22.5 120H33.5C33.7498 120 33.8873 119.999 33.9824 119.986L33.9854 119.985L33.9863 119.982C33.9991 119.887 34 119.75 34 119.5V118.5C34 118.25 33.9991 118.113 33.9863 118.018L33.9854 118.014H33.9824C33.8873 118.001 33.7498 118 33.5 118H22.5Z" fill="currentColor"/>
  <path d="M28.3399 123C27.9361 123.284 27.5716 123.62 27.2578 124H25.5C25.2239 124 25 123.776 25 123.5C25.0001 123.224 25.2239 123 25.5 123H28.3399Z" fill="currentColor"/>
</svg>
