<svg xmlns="http://www.w3.org/2000/svg" width="16" height="16" viewBox="20.0 111.0 16.0 16.0" fill="none">
  <path d="M30.5 119C30.7762 119 31 119.224 31 119.5C31 119.776 30.7762 120 30.5 120H25.5C25.2239 120 25 119.776 25 119.5C25 119.224 25.2239 119 25.5 119H30.5Z" fill="currentColor"/>
  <path d="M33.5 113C33.7215 113 33.938 112.999 34.1152 113.022C34.3068 113.048 34.5254 113.111 34.707 113.293C34.8886 113.475 34.9518 113.693 34.9776 113.885C35.0014 114.062 35 114.278 35 114.5V115.5C35 115.722 35.0014 115.938 34.9776 116.115C34.9518 116.307 34.8887 116.525 34.707 116.707C34.5254 116.889 34.3068 116.952 34.1152 116.978C34.0785 116.982 34.0399 116.985 34 116.988V121.5C34 122.193 34.0009 122.763 33.9404 123.213C33.878 123.677 33.742 124.086 33.4141 124.414C33.0861 124.742 32.6767 124.878 32.2129 124.94C31.7634 125.001 31.193 125 30.5 125H25.5C24.807 125 24.2367 125.001 23.7871 124.94C23.3234 124.878 22.9139 124.742 22.586 124.414C22.258 124.086 22.122 123.677 22.0596 123.213C21.9991 122.763 22 122.193 22 121.5V116.988C21.9602 116.985 21.9216 116.982 21.8848 116.978C21.6932 116.952 21.4746 116.889 21.293 116.707C21.1114 116.525 21.0482 116.307 21.0225 116.115C20.9987 115.938 21 115.722 21 115.5V114.5C21 114.278 20.9987 114.062 21.0225 113.885C21.0482 113.693 21.1114 113.475 21.293 113.293C21.4746 113.111 21.6932 113.048 21.8848 113.022C22.062 112.999 22.2785 113 22.5 113H33.5ZM23 121.5C23 122.221 23.0014 122.712 23.0508 123.079C23.0983 123.432 23.1817 123.596 23.293 123.707C23.4043 123.818 23.5679 123.902 23.9209 123.949C24.2883 123.999 24.7789 124 25.5 124H30.5C31.2212 124 31.7117 123.999 32.0791 123.949C32.4321 123.902 32.5958 123.818 32.707 123.707C32.8183 123.596 32.9018 123.432 32.9492 123.079C32.9986 122.712 33 122.221 33 121.5V117H23V121.5ZM22.5 114C22.2502 114 22.1127 114.001 22.0176 114.014H22.0137V114.018C22.0009 114.113 22 114.25 22 114.5V115.5C22 115.75 22.0009 115.887 22.0137 115.982V115.985L22.0176 115.986C22.1127 115.999 22.2502 116 22.5 116H33.5C33.7498 116 33.8873 115.999 33.9824 115.986L33.9854 115.985L33.9863 115.982C33.9991 115.887 34 115.75 34 115.5V114.5C34 114.25 33.9991 114.113 33.9863 114.018L33.9854 114.014H33.9824C33.8873 114.001 33.7498 114 33.5 114H22.5Z" fill="currentColor"/>
</svg>
