<svg xmlns="http://www.w3.org/2000/svg" width="16" height="16" viewBox="21.0 112.0 14.0 14.0" fill="none">
  <path d="M22.5 122C22.7761 122 23 122.224 23 122.5C23 123.328 23.6716 124 24.5 124C24.7761 124 25 124.224 25 124.5C25 124.776 24.7761 125 24.5 125C23.1193 125 22 123.881 22 122.5C22 122.224 22.2239 122 22.5 122Z" fill="currentColor"/>
  <path d="M29 124C29.2761 124 29.5 124.224 29.5 124.5C29.5 124.776 29.2761 125 29 125H27C26.7239 125 26.5 124.776 26.5 124.5C26.5 124.224 26.7239 124 27 124H29Z" fill="currentColor"/>
  <path d="M33.5 122C33.7761 122 34 122.224 34 122.5C34 123.881 32.8807 125 31.5 125C31.2239 125 31 124.776 31 124.5C31 124.224 31.2239 124 31.5 124C32.3284 124 33 123.328 33 122.5C33 122.224 33.2239 122 33.5 122Z" fill="currentColor"/>
  <path d="M26 119C26.9428 119 27.4141 119 27.707 119.293C27.9999 119.586 28 120.057 28 121C28 121.943 27.9999 122.414 27.707 122.707C27.4141 123 26.9428 123 26 123C25.0572 123 24.5859 123 24.293 122.707C24.0001 122.414 24 121.943 24 121C24 120.057 24.0001 119.586 24.293 119.293C24.5859 119 25.0572 119 26 119Z" fill="currentColor"/>
  <path d="M22.5 117.5C22.7761 117.5 23 117.724 23 118V120C23 120.276 22.7761 120.5 22.5 120.5C22.2239 120.5 22 120.276 22 120V118C22 117.724 22.2239 117.5 22.5 117.5Z" fill="currentColor"/>
  <path d="M33.5 117.5C33.7761 117.5 34 117.724 34 118V120C34 120.276 33.7761 120.5 33.5 120.5C33.2239 120.5 33 120.276 33 120V118C33 117.724 33.2239 117.5 33.5 117.5Z" fill="currentColor"/>
  <path d="M24.5 113C24.7761 113 25 113.224 25 113.5C25 113.776 24.7761 114 24.5 114C23.6716 114 23 114.672 23 115.5C23 115.776 22.7761 116 22.5 116C22.2239 116 22 115.776 22 115.5C22 114.119 23.1193 113 24.5 113Z" fill="currentColor"/>
  <path d="M31.5 113C32.8807 113 34 114.119 34 115.5C34 115.776 33.7761 116 33.5 116C33.2239 116 33 115.776 33 115.5C33 114.672 32.3284 114 31.5 114C31.2239 114 31 113.776 31 113.5C31 113.224 31.2239 113 31.5 113Z" fill="currentColor"/>
  <path d="M29 113C29.2761 113 29.5 113.224 29.5 113.5C29.5 113.776 29.2761 114 29 114H27C26.7239 114 26.5 113.776 26.5 113.5C26.5 113.224 26.7239 113 27 113H29Z" fill="currentColor"/>
</svg>
