<svg xmlns="http://www.w3.org/2000/svg" width="16" height="16" viewBox="19.95 111.48 16.05 16.05" fill="none">
  <path d="M30.5 123C30.7761 123 31 123.224 31 123.5C31 123.776 30.7761 124 30.5 124H26.5C26.2238 124 26 123.776 26 123.5C26 123.224 26.2238 123 26.5 123H30.5Z" fill="currentColor"/>
  <path d="M23.1464 117.146C23.3417 116.951 23.6582 116.951 23.8535 117.146C24.0487 117.342 24.0487 117.658 23.8535 117.854L22.207 119.5L23.8535 121.146C24.0487 121.342 24.0487 121.658 23.8535 121.854C23.6582 122.049 23.3417 122.049 23.1464 121.854L21.1464 119.854C20.9512 119.658 20.9512 119.342 21.1464 119.146L23.1464 117.146Z" fill="currentColor"/>
  <path d="M34.5 119C34.7761 119 35 119.224 35 119.5C35 119.776 34.7761 120 34.5 120H26.5C26.2238 120 26 119.776 26 119.5C26 119.224 26.2238 119 26.5 119H34.5Z" fill="currentColor"/>
  <path d="M32.5 115C32.7761 115 33 115.224 33 115.5C33 115.776 32.7761 116 32.5 116H26.5C26.2238 116 26 115.776 26 115.5C26 115.224 26.2238 115 26.5 115H32.5Z" fill="currentColor"/>
</svg>
