<svg xmlns="http://www.w3.org/2000/svg" width="16" height="16" viewBox="20.0 110.5 17.0 17.0" fill="none">
  <path d="M29.5 112C30.4285 112 31.1751 111.999 31.7607 112.078C32.3608 112.159 32.8663 112.331 33.2676 112.732C33.6689 113.134 33.8412 113.639 33.9219 114.239C34.0006 114.825 34 115.572 34 116.5V121.5C34 121.673 33.9995 121.84 33.999 122H32.9961C32.9966 121.843 33 121.676 33 121.5V116.5C33 115.543 32.9993 114.876 32.9316 114.372C32.8659 113.883 32.7451 113.624 32.5605 113.439C32.376 113.255 32.1171 113.134 31.6279 113.068C31.1244 113.001 30.4569 113 29.5 113H26.5C25.5431 113 24.8756 113.001 24.3721 113.068C23.8829 113.134 23.624 113.255 23.4395 113.439C23.3086 113.57 23.2105 113.739 23.1406 114H23.5C23.7761 114 24 114.224 24 114.5C24 114.776 23.7761 115 23.5 115H23.0205C23.0032 115.405 23 115.895 23 116.5V117H23.5C23.7761 117 24 117.224 24 117.5C24 117.776 23.7761 118 23.5 118H23V120H23.5C23.7761 120 24 120.224 24 120.5C24 120.776 23.7761 121 23.5 121H23V121.5C23 122.105 23.0032 122.595 23.0205 123H23.5C23.7761 123 24 123.224 24 123.5C24 123.776 23.7761 124 23.5 124H23.1406C23.2105 124.261 23.3086 124.43 23.4395 124.561C23.624 124.745 23.8829 124.866 24.3721 124.932C24.8756 124.999 25.5431 125 26.5 125H28.0879C28.032 125.156 28 125.324 28 125.5C28 125.676 28.0315 125.843 28.0869 126H26.5C25.5715 126 24.8249 126.001 24.2393 125.922C23.6392 125.841 23.1337 125.669 22.7324 125.268C22.3857 124.921 22.2106 124.496 22.1172 124H21.5C21.2239 124 21 123.776 21 123.5C21 123.224 21.2239 123 21.5 123H22.0205C22.0028 122.564 22 122.066 22 121.5V121H21.5C21.2239 121 21 120.776 21 120.5C21 120.224 21.2239 120 21.5 120H22V118H21.5C21.2239 118 21 117.776 21 117.5C21 117.224 21.2239 117 21.5 117H22V116.5C22 115.934 22.0028 115.436 22.0205 115H21.5C21.2239 115 21 114.776 21 114.5C21 114.224 21.2239 114 21.5 114H22.1172C22.2106 113.504 22.3857 113.079 22.7324 112.732C23.1337 112.331 23.6392 112.159 24.2393 112.078C24.8249 111.999 25.5715 112 26.5 112H29.5Z" fill="currentColor"/>
  <path d="M29.5 125C29.7761 125 30 125.224 30 125.5C30 125.776 29.7761 126 29.5 126C29.2239 126 29 125.776 29 125.5C29 125.224 29.2239 125 29.5 125Z" fill="currentColor"/>
  <path d="M35.5 125C35.7761 125 36 125.224 36 125.5C36 125.776 35.7761 126 35.5 126H31.5C31.4134 126 31.3328 125.976 31.2617 125.938C31.2558 125.934 31.2499 125.931 31.2441 125.928C31.2284 125.918 31.2138 125.908 31.1992 125.896C31.1905 125.89 31.1821 125.883 31.1738 125.876C31.1336 125.841 31.0987 125.801 31.0713 125.755C31.0622 125.74 31.0543 125.724 31.0469 125.708C31.0417 125.697 31.0366 125.686 31.0322 125.674C31.0257 125.656 31.0202 125.638 31.0156 125.62C31.0131 125.61 31.0097 125.6 31.0078 125.59C31.0025 125.561 31 125.531 31 125.5C31 125.224 31.2239 125 31.5 125H35.5Z" fill="currentColor"/>
  <path d="M29.5 123C29.7761 123 30 123.224 30 123.5C30 123.776 29.7761 124 29.5 124C29.2239 124 29 123.776 29 123.5C29 123.224 29.2239 123 29.5 123Z" fill="currentColor"/>
  <path d="M35.5 123C35.7761 123 36 123.224 36 123.5C36 123.776 35.7761 124 35.5 124H31.5C31.2239 124 31 123.776 31 123.5C31 123.224 31.2239 123 31.5 123H35.5Z" fill="currentColor"/>
  <path d="M29.5 117C29.7761 117 30 117.224 30 117.5C30 117.776 29.7761 118 29.5 118H26.5C26.2239 118 26 117.776 26 117.5C26 117.224 26.2239 117 26.5 117H29.5Z" fill="currentColor"/>
  <path d="M30.5 115C30.7761 115 31 115.224 31 115.5C31 115.776 30.7761 116 30.5 116H25.5C25.2239 116 25 115.776 25 115.5C25 115.224 25.2239 115 25.5 115H30.5Z" fill="currentColor"/>
</svg>
