<svg xmlns="http://www.w3.org/2000/svg" width="16" height="16" viewBox="20.0 110.94 17.15 17.15" fill="none">
  <path d="M33.4395 119.439C34.0252 118.854 34.9748 118.854 35.5605 119.439C36.1463 120.025 36.1463 120.975 35.5605 121.561L31.0605 126.061C31.0084 126.113 30.9453 126.153 30.876 126.178L28.6689 126.971C28.4868 127.036 28.2833 126.99 28.1465 126.854C28.0097 126.717 27.9639 126.513 28.0293 126.331L28.8223 124.124C28.8472 124.055 28.8873 123.992 28.9395 123.939L33.4395 119.439ZM29.7256 124.567L29.3291 125.671L30.4326 125.274L33.8555 121.852L33.1484 121.145L29.7256 124.567ZM34.8535 120.146C34.6583 119.951 34.3417 119.951 34.1465 120.146L33.8555 120.438L34.5625 121.145L34.8535 120.854C35.0488 120.658 35.0488 120.342 34.8535 120.146Z" fill="currentColor"/>
  <path d="M29.5 112C30.4285 112 31.1751 111.999 31.7607 112.078C32.3608 112.159 32.8663 112.331 33.2676 112.732C33.6689 113.134 33.8412 113.639 33.9219 114.239C34.0006 114.825 34 115.572 34 116.5V118.051C33.6444 118.123 33.3029 118.275 33 118.503V116.5C33 115.543 32.9993 114.876 32.9316 114.372C32.8659 113.883 32.7451 113.624 32.5605 113.439C32.376 113.255 32.1171 113.134 31.6279 113.068C31.1244 113.001 30.4569 113 29.5 113H26.5C25.5431 113 24.8756 113.001 24.3721 113.068C23.8829 113.134 23.624 113.255 23.4395 113.439C23.3086 113.57 23.2105 113.739 23.1406 114H23.5C23.7761 114 24 114.224 24 114.5C24 114.776 23.7761 115 23.5 115H23.0205C23.0032 115.405 23 115.895 23 116.5V117H23.5C23.7761 117 24 117.224 24 117.5C24 117.776 23.7761 118 23.5 118H23V120H23.5C23.7761 120 24 120.224 24 120.5C24 120.776 23.7761 121 23.5 121H23V121.5C23 122.105 23.0032 122.595 23.0205 123H23.5C23.7761 123 24 123.224 24 123.5C24 123.776 23.7761 124 23.5 124H23.1406C23.2105 124.261 23.3086 124.43 23.4395 124.561C23.624 124.745 23.8829 124.866 24.3721 124.932C24.8756 124.999 25.5431 125 26.5 125H27.4443L27.0879 125.993C27.0871 125.995 27.0867 125.998 27.0859 126H26.5C25.5715 126 24.8249 126.001 24.2393 125.922C23.6392 125.841 23.1337 125.669 22.7324 125.268C22.3857 124.921 22.2106 124.496 22.1172 124H21.5C21.2239 124 21 123.776 21 123.5C21 123.224 21.2239 123 21.5 123H22.0205C22.0028 122.564 22 122.066 22 121.5V121H21.5C21.2239 121 21 120.776 21 120.5C21 120.224 21.2239 120 21.5 120H22V118H21.5C21.2239 118 21 117.776 21 117.5C21 117.224 21.2239 117 21.5 117H22V116.5C22 115.934 22.0028 115.436 22.0205 115H21.5C21.2239 115 21 114.776 21 114.5C21 114.224 21.2239 114 21.5 114H22.1172C22.2106 113.504 22.3857 113.079 22.7324 112.732C23.1337 112.331 23.6392 112.159 24.2393 112.078C24.8249 111.999 25.5715 112 26.5 112H29.5Z" fill="currentColor"/>
  <path d="M29.5 117C29.7761 117 30 117.224 30 117.5C30 117.776 29.7761 118 29.5 118H26.5C26.2239 118 26 117.776 26 117.5C26 117.224 26.2239 117 26.5 117H29.5Z" fill="currentColor"/>
  <path d="M30.5 115C30.7761 115 31 115.224 31 115.5C31 115.776 30.7761 116 30.5 116H25.5C25.2239 116 25 115.776 25 115.5C25 115.224 25.2239 115 25.5 115H30.5Z" fill="currentColor"/>
</svg>
