<svg xmlns="http://www.w3.org/2000/svg" width="16" height="16" viewBox="20.0 111.0 16.0 16.0" fill="none">
  <path d="M25 115C25.5523 115 26 115.448 26 116C26 116.552 25.5523 117 25 117C24.4477 117 24 116.552 24 116C24 115.448 24.4477 115 25 115Z" fill="currentColor"/>
  <path d="M26 112C28.7614 112 31 114.239 31 117C31 117.504 30.9223 117.99 30.7832 118.448L34.8164 123.103C34.9323 123.236 34.9996 123.409 35 123.592V125.25C35 125.664 34.6642 126 34.25 126H31.75C31.3358 126 31 125.664 31 125.25V124H29.75C29.3358 124 29 123.664 29 123.25V121.749L28.4648 121.349C27.7374 121.762 26.8964 122 26 122C23.2386 122 21 119.761 21 117C21 114.239 23.2386 112 26 112ZM26 113C23.7909 113 22 114.791 22 117C22 119.209 23.7909 121 26 121C26.8202 121 27.5811 120.752 28.2158 120.329L28.2842 120.291C28.4489 120.215 28.6445 120.234 28.793 120.345L29.7002 121.024L29.7012 121.025C29.8908 121.168 30 121.391 30 121.625V123H31.25C31.6642 123 32 123.336 32 123.75V125H34V123.687L29.8418 118.889C29.7224 118.751 29.6877 118.559 29.751 118.388C29.9112 117.955 30 117.488 30 117C30 114.791 28.2091 113 26 113Z" fill="currentColor"/>
</svg>
