<svg xmlns="http://www.w3.org/2000/svg" width="16" height="16" viewBox="20.0 111.5 16.0 16.0" fill="none">
  <path d="M31.5 121C31.7761 121 32 121.224 32 121.5C32 121.776 31.7761 122 31.5 122H24.5C24.2239 122 24 121.776 24 121.5C24 121.224 24.2239 121 24.5 121H31.5Z" fill="currentColor"/>
  <path d="M24.5 119C24.7761 119 25 119.224 25 119.5C25 119.776 24.7761 120 24.5 120C24.2239 120 24 119.776 24 119.5C24 119.224 24.2239 119 24.5 119Z" fill="currentColor"/>
  <path d="M26.5 119C26.7761 119 27 119.224 27 119.5C27 119.776 26.7761 120 26.5 120C26.2239 120 26 119.776 26 119.5C26 119.224 26.2239 119 26.5 119Z" fill="currentColor"/>
  <path d="M28.5 119C28.7761 119 29 119.224 29 119.5C29 119.776 28.7761 120 28.5 120C28.2239 120 28 119.776 28 119.5C28 119.224 28.2239 119 28.5 119Z" fill="currentColor"/>
  <path d="M30.5 119C30.7761 119 31 119.224 31 119.5C31 119.776 30.7761 120 30.5 120C30.2239 120 30 119.776 30 119.5C30 119.224 30.2239 119 30.5 119Z" fill="currentColor"/>
  <path d="M23.5 117C23.7761 117 24 117.224 24 117.5C24 117.776 23.7761 118 23.5 118C23.2239 118 23 117.776 23 117.5C23 117.224 23.2239 117 23.5 117Z" fill="currentColor"/>
  <path d="M25.5 117C25.7761 117 26 117.224 26 117.5C26 117.776 25.7761 118 25.5 118C25.2239 118 25 117.776 25 117.5C25 117.224 25.2239 117 25.5 117Z" fill="currentColor"/>
  <path d="M27.5 117C27.7761 117 28 117.224 28 117.5C28 117.776 27.7761 118 27.5 118C27.2239 118 27 117.776 27 117.5C27 117.224 27.2239 117 27.5 117Z" fill="currentColor"/>
  <path d="M29.5 117C29.7761 117 30 117.224 30 117.5C30 117.776 29.7761 118 29.5 118C29.2239 118 29 117.776 29 117.5C29 117.224 29.2239 117 29.5 117Z" fill="currentColor"/>
  <path d="M32.5 117C32.7761 117 33 117.224 33 117.5C33 117.776 32.7761 118 32.5 118H31.5C31.2239 118 31 117.776 31 117.5C31 117.224 31.2239 117 31.5 117H32.5Z" fill="currentColor"/>
  <path d="M31.5 115C32.193 115 32.7634 114.999 33.2129 115.06C33.6767 115.122 34.0861 115.258 34.4141 115.586C34.742 115.914 34.878 116.323 34.9404 116.787C35.0009 117.237 35 117.807 35 118.5V120.5C35 121.193 35.0009 121.763 34.9404 122.213C34.878 122.677 34.742 123.086 34.4141 123.414C34.0861 123.742 33.6767 123.878 33.2129 123.94C32.7634 124.001 32.193 124 31.5 124H24.5C23.807 124 23.2366 124.001 22.7871 123.94C22.3234 123.878 21.9139 123.742 21.5859 123.414C21.258 123.086 21.122 122.677 21.0596 122.213C20.9991 121.763 21 121.193 21 120.5V118.5C21 117.807 20.9991 117.237 21.0596 116.787C21.122 116.323 21.258 115.914 21.5859 115.586C21.9139 115.258 22.3234 115.122 22.7871 115.06C23.2366 114.999 23.807 115 24.5 115H31.5ZM24.5 116C23.7788 116 23.2883 116.001 22.9209 116.051C22.5679 116.098 22.4043 116.182 22.293 116.293C22.1817 116.404 22.0982 116.568 22.0508 116.921C22.0014 117.288 22 117.779 22 118.5V120.5C22 121.221 22.0014 121.712 22.0508 122.079C22.0982 122.432 22.1817 122.596 22.293 122.707C22.4043 122.818 22.5679 122.902 22.9209 122.949C23.2883 122.999 23.7788 123 24.5 123H31.5C32.2212 123 32.7117 122.999 33.0791 122.949C33.4321 122.902 33.5957 122.818 33.707 122.707C33.8183 122.596 33.9018 122.432 33.9492 122.079C33.9986 121.712 34 121.221 34 120.5V118.5C34 117.779 33.9986 117.288 33.9492 116.921C33.9018 116.568 33.8183 116.404 33.707 116.293C33.5957 116.182 33.4321 116.098 33.0791 116.051C32.7117 116.001 32.2212 116 31.5 116H24.5Z" fill="currentColor"/>
</svg>
