<svg xmlns="http://www.w3.org/2000/svg" width="16" height="16" viewBox="20.0 110.0 16.0 16.0" fill="none">
  <path d="M26.25 113.5C26.6642 113.5 27 113.836 27 114.25C27 114.664 26.6642 115 26.25 115C25.8358 115 25.5 114.664 25.5 114.25C25.5 113.836 25.8358 113.5 26.25 113.5Z" fill="currentColor"/>
  <path d="M27.5 111C29.9853 111 32 113.015 32 115.5C32 115.75 31.9778 115.994 31.9385 116.231L34.8535 119.146C34.9473 119.24 35 119.367 35 119.5V122.5C35 122.776 34.7761 123 34.5 123H33V124.5C33 124.776 32.7761 125 32.5 125H29.5C29.2239 125 29 124.776 29 124.5V123H27.5C27.2239 123 27 122.776 27 122.5V121.74C26.5308 121.907 26.0264 122 25.5 122C23.0147 122 21 119.985 21 117.5C21 115.743 22.0081 114.223 23.4766 113.482C24.2162 112.01 25.7401 111 27.5 111ZM23.0244 115.027C22.3919 115.661 22 116.534 22 117.5C22 119.433 23.567 121 25.5 121C26.0309 121 26.5332 120.881 26.9844 120.669L27.0645 120.639C27.2544 120.586 27.4615 120.651 27.5879 120.809L27.8906 121.188C27.9614 121.276 28 121.387 28 121.5V122H29.5C29.7761 122 30 122.224 30 122.5V124H32V123H31.5C31.2239 123 31 122.776 31 122.5V121H29.5C29.2239 121 29 120.776 29 120.5V119.74C28.5308 119.907 28.0264 120 27.5 120C25.0147 120 23 117.985 23 115.5C23 115.34 23.0082 115.183 23.0244 115.027ZM27.5 112C25.567 112 24 113.567 24 115.5C24 117.433 25.567 119 27.5 119C28.0309 119 28.5332 118.881 28.9844 118.669L29.0645 118.639C29.2544 118.586 29.4615 118.651 29.5879 118.809L29.8906 119.188C29.9614 119.276 30 119.387 30 119.5V120H31.5C31.7761 120 32 120.224 32 120.5V122H34V119.707L31.0439 116.751C30.9223 116.629 30.8718 116.454 30.9102 116.286C30.9683 116.032 31 115.769 31 115.5C31 113.567 29.433 112 27.5 112Z" fill="currentColor"/>
</svg>
