<svg xmlns="http://www.w3.org/2000/svg" width="16" height="16" viewBox="19.5 110.44 17.0 17.0" fill="none">
  <path d="M28 116C28.2074 116 28.4634 115.998 28.6816 116.027C28.9287 116.061 29.2706 116.149 29.5605 116.439C29.8505 116.729 29.9394 117.071 29.9727 117.318C30.002 117.537 30 117.793 30 118V125H31V122C31 121.793 30.998 121.537 31.0273 121.318C31.0606 121.071 31.1495 120.729 31.4395 120.439C31.7294 120.149 32.0713 120.061 32.3184 120.027C32.5366 119.998 32.7926 120 33 120C33.2074 120 33.4634 119.998 33.6816 120.027C33.9287 120.061 34.2706 120.149 34.5605 120.439C34.8505 120.729 34.9394 121.071 34.9727 121.318C35.002 121.537 35 121.793 35 122V125L35.1006 125.01C35.3285 125.056 35.5 125.258 35.5 125.5C35.5 125.776 35.2761 126 35 126H21C20.7239 126 20.5 125.776 20.5 125.5C20.5 125.258 20.6715 125.056 20.8994 125.01L21 125V120C21 119.793 20.998 119.537 21.0273 119.318C21.0606 119.071 21.1495 118.729 21.4395 118.439C21.7294 118.149 22.0713 118.061 22.3184 118.027C22.5366 117.998 22.7926 118 23 118C23.2074 118 23.4634 117.998 23.6816 118.027C23.9287 118.061 24.2706 118.149 24.5605 118.439C24.8505 118.729 24.9394 119.071 24.9727 119.318C25.002 119.537 25 119.793 25 120V125H26V118C26 117.793 25.998 117.537 26.0273 117.318C26.0606 117.071 26.1495 116.729 26.4395 116.439C26.7294 116.149 27.0713 116.061 27.3184 116.027C27.5366 115.998 27.7926 116 28 116ZM23 119C22.5286 119 22.2929 119 22.1465 119.146C22.0001 119.293 22 119.529 22 120V125H24V120C24 119.529 23.9999 119.293 23.8535 119.146C23.7071 119 23.4714 119 23 119ZM28 117C27.5286 117 27.2929 117 27.1465 117.146C27.0001 117.293 27 117.529 27 118V125H29V118C29 117.529 28.9999 117.293 28.8535 117.146C28.7071 117 28.4714 117 28 117ZM33 121C32.5286 121 32.2929 121 32.1465 121.146C32.0001 121.293 32 121.529 32 122V125H34V122C34 121.529 33.9999 121.293 33.8535 121.146C33.7071 121 33.4714 121 33 121Z" fill="currentColor"/>
  <path d="M27.2568 112.604C27.9233 111.887 29.0873 111.99 29.6172 112.813L32.75 117.686C32.9224 117.954 33.2979 117.995 33.5234 117.77L34.1465 117.146C34.3417 116.951 34.6583 116.951 34.8535 117.146C35.0488 117.342 35.0488 117.658 34.8535 117.853L34.2305 118.477C33.5539 119.153 32.4255 119.031 31.9082 118.227L28.7764 113.354C28.5998 113.08 28.2114 113.046 27.9893 113.285L24.9375 116.571C24.4423 117.105 23.6357 117.205 23.0244 116.811L21.2285 115.65C20.9968 115.5 20.9303 115.191 21.0801 114.959C21.23 114.727 21.5397 114.661 21.7715 114.811L23.5664 115.971C23.77 116.102 24.039 116.069 24.2041 115.892L27.2568 112.604Z" fill="currentColor"/>
</svg>
