<svg xmlns="http://www.w3.org/2000/svg" width="16" height="16" viewBox="20.0 111.07 15.87 15.87" fill="none">
  <path d="M29.0439 114C29.9554 114 30.5761 113.988 31.1201 114.254C31.6643 114.52 32.036 115.018 32.5957 115.737L34.417 118.079C34.5242 118.217 34.6327 118.355 34.709 118.482C34.7921 118.62 34.8662 118.79 34.8662 119C34.8662 119.21 34.7921 119.381 34.709 119.519C34.6327 119.645 34.5242 119.783 34.417 119.921L32.5957 122.263C32.036 122.982 31.6643 123.48 31.1201 123.746C30.5761 124.012 29.9554 124 29.0439 124H25.5C24.5715 124 23.8249 124.001 23.2393 123.922C22.6392 123.841 22.1337 123.669 21.7324 123.268C21.3312 122.866 21.1588 122.361 21.0781 121.761C20.9994 121.175 21 120.429 21 119.5V118.5C21 117.572 20.9994 116.825 21.0781 116.239C21.1588 115.639 21.3312 115.134 21.7324 114.733C22.1337 114.331 22.6392 114.159 23.2393 114.078C23.8249 114 24.5715 114 25.5 114H29.0439ZM25.5 115C24.5431 115 23.8756 115.001 23.3721 115.068C22.8829 115.134 22.624 115.255 22.4395 115.44C22.255 115.624 22.1341 115.883 22.0684 116.372C22.0007 116.876 22 117.543 22 118.5V119.5C22 120.457 22.0007 121.124 22.0684 121.628C22.1341 122.117 22.255 122.376 22.4395 122.561C22.624 122.745 22.8829 122.866 23.3721 122.932C23.8756 122.999 24.5431 123 25.5 123H29.0439C30.0531 123 30.3933 122.988 30.6807 122.848C30.9681 122.707 31.1868 122.445 31.8066 121.649L33.6279 119.307C33.7499 119.15 33.8142 119.067 33.8525 119.003L33.8535 119L33.8525 118.997C33.8141 118.933 33.7499 118.85 33.6279 118.693L31.8066 116.352C31.1868 115.555 30.9681 115.293 30.6807 115.152C30.3933 115.012 30.0531 115 29.0439 115H25.5Z" fill="currentColor"/>
</svg>
