<svg xmlns="http://www.w3.org/2000/svg" width="16" height="16" viewBox="20.0 110.5 16.0 16.0" fill="none">
  <path d="M34.5 123C34.7761 123 35 123.224 35 123.5C35 123.776 34.7761 124 34.5 124H21.5C21.2239 124 21 123.776 21 123.5C21 123.224 21.2239 123 21.5 123H34.5Z" fill="currentColor"/>
  <path d="M29.5 113C30.4285 113 31.1751 112.999 31.7607 113.078C32.3608 113.159 32.8663 113.331 33.2676 113.732C33.6689 114.134 33.8412 114.639 33.9219 115.239C34.0006 115.825 34 116.572 34 117.5C34 118.428 34.0006 119.175 33.9219 119.761C33.8412 120.361 33.6689 120.866 33.2676 121.268C32.8663 121.669 32.3608 121.841 31.7607 121.922C31.1751 122.001 30.4285 122 29.5 122H26.5C25.5715 122 24.8249 122.001 24.2393 121.922C23.6392 121.841 23.1337 121.669 22.7324 121.268C22.3311 120.866 22.1588 120.361 22.0781 119.761C21.9994 119.175 22 118.428 22 117.5C22 116.572 21.9994 115.825 22.0781 115.239C22.1588 114.639 22.3311 114.134 22.7324 113.732C23.1337 113.331 23.6392 113.159 24.2393 113.078C24.8249 112.999 25.5715 113 26.5 113H29.5ZM26.5 114C25.5431 114 24.8756 114.001 24.3721 114.068C23.8829 114.134 23.624 114.255 23.4395 114.439C23.2549 114.624 23.1341 114.883 23.0684 115.372C23.0007 115.876 23 116.543 23 117.5C23 118.457 23.0007 119.124 23.0684 119.628C23.1341 120.117 23.2549 120.376 23.4395 120.561C23.624 120.745 23.8829 120.866 24.3721 120.932C24.8756 120.999 25.5431 121 26.5 121H29.5C30.4569 121 31.1244 120.999 31.6279 120.932C32.1171 120.866 32.376 120.745 32.5605 120.561C32.7451 120.376 32.8659 120.117 32.9316 119.628C32.9993 119.124 33 118.457 33 117.5C33 116.543 32.9993 115.876 32.9316 115.372C32.8659 114.883 32.7451 114.624 32.5605 114.439C32.376 114.255 32.1171 114.134 31.6279 114.068C31.1244 114.001 30.4569 114 29.5 114H26.5Z" fill="currentColor"/>
</svg>
