<svg xmlns="http://www.w3.org/2000/svg" width="16" height="16" viewBox="20.0 111.5 17.0 17.0" fill="none">
  <path d="M32.5 123C33.5272 123 34.5215 123.409 35.1191 123.71C35.7013 124.003 36 124.602 36 125.197C36 126.193 35.1929 127 34.1973 127H30.8027C29.8071 127 29 126.193 29 125.197C29 124.602 29.2987 124.003 29.8809 123.71C30.4785 123.409 31.4728 123 32.5 123ZM32.5 124C31.7085 124 30.8837 124.325 30.3311 124.604C30.135 124.702 30 124.922 30 125.197C30 125.641 30.3594 126 30.8027 126H34.1973C34.6406 126 35 125.641 35 125.197C35 124.922 34.865 124.702 34.6689 124.604C34.1163 124.325 33.2915 124 32.5 124Z" fill="currentColor"/>
  <path d="M29.124 123C28.7416 123.264 28.4604 123.614 28.2744 124H21.5C21.2239 124 21 123.776 21 123.5C21 123.224 21.2239 123 21.5 123H29.124Z" fill="currentColor"/>
  <path d="M29.5 113C30.4285 113 31.1751 112.999 31.7607 113.078C32.3608 113.159 32.8663 113.331 33.2676 113.732C33.6689 114.134 33.8412 114.639 33.9219 115.239C33.9978 115.805 33.999 116.52 33.999 117.404C33.6941 117.228 33.3567 117.101 32.9961 117.041C32.9943 116.323 32.9879 115.791 32.9316 115.372C32.8659 114.883 32.7451 114.624 32.5605 114.439C32.376 114.255 32.1171 114.134 31.6279 114.068C31.1244 114.001 30.4569 114 29.5 114H26.5C25.5431 114 24.8756 114.001 24.3721 114.068C23.8829 114.134 23.624 114.255 23.4395 114.439C23.2549 114.624 23.1341 114.883 23.0684 115.372C23.0007 115.876 23 116.543 23 117.5C23 118.457 23.0007 119.124 23.0684 119.628C23.1341 120.117 23.2549 120.376 23.4395 120.561C23.624 120.745 23.8829 120.866 24.3721 120.932C24.8756 120.999 25.5431 121 26.5 121H29.5C29.5587 121 29.6163 120.998 29.6729 120.998C29.8044 121.371 30.0074 121.708 30.2656 121.997C30.0255 121.999 29.7705 122 29.5 122H26.5C25.5715 122 24.8249 122.001 24.2393 121.922C23.6392 121.841 23.1337 121.669 22.7324 121.268C22.3311 120.866 22.1588 120.361 22.0781 119.761C21.9994 119.175 22 118.428 22 117.5C22 116.572 21.9994 115.825 22.0781 115.239C22.1588 114.639 22.3311 114.134 22.7324 113.732C23.1337 113.331 23.6392 113.159 24.2393 113.078C24.8249 112.999 25.5715 113 26.5 113H29.5Z" fill="currentColor"/>
  <path d="M32.5 118C33.6046 118 34.5 118.895 34.5 120C34.5 121.105 33.6046 122 32.5 122C31.3954 122 30.5 121.105 30.5 120C30.5 118.895 31.3954 118 32.5 118ZM32.5 119C31.9477 119 31.5 119.448 31.5 120C31.5 120.552 31.9477 121 32.5 121C33.0523 121 33.5 120.552 33.5 120C33.5 119.448 33.0523 119 32.5 119Z" fill="currentColor"/>
  <path d="M30.1465 115.646C30.3417 115.451 30.6583 115.451 30.8535 115.646C31.0488 115.842 31.0488 116.158 30.8535 116.354L27.8535 119.354C27.6583 119.549 27.3417 119.549 27.1465 119.354L25.6465 117.854C25.4512 117.658 25.4512 117.342 25.6465 117.146C25.8417 116.951 26.1583 116.951 26.3535 117.146L27.5 118.293L30.1465 115.646Z" fill="currentColor"/>
</svg>
