<svg xmlns="http://www.w3.org/2000/svg" width="16" height="16" viewBox="20.09 111.09 15.82 15.82" fill="none">
  <path d="M23.7871 121.748L24.0059 121.844C23.403 122.111 22.9833 122.305 22.6953 122.483C22.6865 122.489 22.6781 122.495 22.6699 122.5C22.6781 122.505 22.6865 122.511 22.6953 122.517C23.0685 122.748 23.6604 123.01 24.5889 123.416L27.5996 124.733C27.8109 124.826 27.9174 124.871 27.9961 124.898L28 124.899L28.0039 124.898C28.0826 124.871 28.1891 124.826 28.4004 124.733L31.4111 123.416C32.3396 123.01 32.9315 122.748 33.3047 122.517C33.3132 122.511 33.3211 122.505 33.3291 122.5C33.3211 122.495 33.3132 122.489 33.3047 122.483C33.0165 122.305 32.5965 122.111 31.9932 121.844L32.2129 121.748C32.5684 121.593 32.9043 121.444 33.2139 121.303C34.0739 121.722 34.5049 122.047 34.5049 122.5C34.5049 123.154 33.607 123.546 31.8115 124.332L28.8018 125.649L28.5391 125.763C28.3071 125.86 28.1569 125.908 28 125.908L27.9219 125.904C27.7909 125.891 27.6543 125.844 27.4609 125.763L27.1982 125.649L24.1885 124.332C22.393 123.546 21.4951 123.154 21.4951 122.5C21.4951 122.047 21.9254 121.721 22.7852 121.302C23.0951 121.443 23.4312 121.592 23.7871 121.748Z" fill="currentColor"/>
  <path d="M33.2139 117.803C34.074 118.222 34.5049 118.547 34.5049 119C34.5049 119.654 33.607 120.046 31.8115 120.832L28.8018 122.149C28.4068 122.322 28.2092 122.408 28 122.408C27.7908 122.408 27.5932 122.322 27.1982 122.149L24.1885 120.832C22.393 120.046 21.4951 119.654 21.4951 119C21.4951 118.547 21.9255 118.222 22.7852 117.803C23.095 117.944 23.4313 118.092 23.7871 118.248L26.7979 119.565C27.1134 119.704 27.533 119.908 28 119.908C28.467 119.908 28.8866 119.704 29.2021 119.565L32.2129 118.248C32.5684 118.093 32.9043 117.944 33.2139 117.803Z" fill="currentColor"/>
  <path d="M28 112.092C28.2092 112.092 28.4068 112.178 28.8018 112.351L31.8115 113.668C33.607 114.454 34.5049 114.846 34.5049 115.5C34.5049 116.154 33.607 116.546 31.8115 117.332L28.8018 118.649L28.5391 118.763C28.3071 118.86 28.1569 118.908 28 118.908L27.9219 118.904C27.7909 118.891 27.6543 118.844 27.4609 118.763L27.1982 118.649L24.1885 117.332C22.393 116.546 21.4951 116.154 21.4951 115.5C21.4951 114.928 22.1822 114.556 23.5566 113.945L24.1885 113.668L27.1982 112.351C27.5932 112.178 27.7908 112.092 28 112.092ZM27.9961 113.102C27.9174 113.129 27.8109 113.174 27.5996 113.267L24.5889 114.584C23.6604 114.99 23.0685 115.252 22.6953 115.483C22.6865 115.489 22.6781 115.495 22.6699 115.5C22.6781 115.505 22.6865 115.511 22.6953 115.517C23.0685 115.748 23.6604 116.01 24.5889 116.416L27.5996 117.733C27.8109 117.826 27.9174 117.871 27.9961 117.898L28 117.899L28.0039 117.898C28.0826 117.871 28.1891 117.826 28.4004 117.733L31.4111 116.416C32.3396 116.01 32.9315 115.748 33.3047 115.517C33.3132 115.511 33.3211 115.505 33.3291 115.5C33.3211 115.495 33.3132 115.489 33.3047 115.483C32.9315 115.252 32.3396 114.99 31.4111 114.584L28.4004 113.267C28.1891 113.174 28.0826 113.129 28.0039 113.102L28 113.1L27.9961 113.102Z" fill="currentColor"/>
</svg>
