<svg xmlns="http://www.w3.org/2000/svg" width="16" height="16" viewBox="19.93 110.96 16.07 16.07" fill="none">
  <path d="M23.5 120C24.8807 120 26 121.119 26 122.5C26 123.881 24.8807 125 23.5 125C22.1193 125 21 123.881 21 122.5C21 121.119 22.1193 120 23.5 120ZM23.5 121C22.6715 121 22 121.672 22 122.5C22 123.328 22.6715 124 23.5 124C24.3284 124 25 123.328 25 122.5C25 121.672 24.3284 121 23.5 121Z" fill="currentColor"/>
  <path d="M34.5 122C34.7761 122 35 122.224 35 122.5C35 122.776 34.7761 123 34.5 123H27.5C27.2238 123 27 122.776 27 122.5C27 122.224 27.2238 122 27.5 122H34.5Z" fill="currentColor"/>
  <path d="M23.499 113C23.9802 113 24.2987 113.317 24.5273 113.639C24.7572 113.962 24.9948 114.432 25.2793 114.988L25.333 115.094C25.5749 115.567 25.7844 115.973 25.8964 116.306C26.0106 116.645 26.0693 117.038 25.8437 117.406C25.618 117.775 25.2416 117.901 24.8877 117.953C24.5406 118.005 24.0842 118.004 23.5527 118.004H23.4453C22.9135 118.004 22.4565 118.005 22.1093 117.953C21.7554 117.9 21.3789 117.775 21.1533 117.406C20.9276 117.038 20.9873 116.645 21.1015 116.306C21.2135 115.973 21.4221 115.567 21.664 115.094L21.7177 114.988C22.0021 114.432 22.2408 113.962 22.4707 113.639C22.6993 113.317 23.0178 113 23.499 113ZM23.4931 114.001C23.4912 114.002 23.4822 114.005 23.4668 114.016C23.4303 114.042 23.3705 114.099 23.2851 114.219C23.1081 114.468 22.9082 114.856 22.6084 115.443L22.5546 115.549C22.2975 116.052 22.1315 116.38 22.0488 116.625C22.0094 116.742 22.0001 116.81 22 116.848C21.9999 116.874 22.0038 116.881 22.0058 116.884C22.0078 116.887 22.0113 116.894 22.0361 116.906C22.0694 116.923 22.1347 116.946 22.2568 116.964C22.513 117.002 22.8801 117.004 23.4453 117.004H23.5527C24.1174 117.004 24.4841 117.002 24.7402 116.964C24.8625 116.946 24.9286 116.923 24.9619 116.906C24.9861 116.894 24.9892 116.887 24.9912 116.884C24.9932 116.881 24.9971 116.875 24.997 116.848C24.9969 116.81 24.9876 116.742 24.9482 116.625C24.8655 116.38 24.6995 116.052 24.4423 115.549L24.3886 115.443C24.0887 114.856 23.8889 114.468 23.7119 114.219C23.6263 114.099 23.5667 114.041 23.5302 114.016C23.5142 114.004 23.5039 114.001 23.5039 114.001C23.5039 114.001 23.5022 114 23.499 114C23.4951 114 23.4931 114.001 23.4931 114.001Z" fill="currentColor"/>
  <path d="M34.5 115C34.7761 115 35 115.224 35 115.5C35 115.776 34.7761 116 34.5 116H27.5C27.2238 116 27 115.776 27 115.5C27 115.224 27.2238 115 27.5 115H34.5Z" fill="currentColor"/>
</svg>
