<svg xmlns="http://www.w3.org/2000/svg" width="16" height="16" viewBox="19.93 111.0 16.07 16.07" fill="none">
  <path d="M24.4995 115C24.6994 115 24.8806 115.119 24.9595 115.303L27.9595 122.303C28.0682 122.557 27.9505 122.851 27.6968 122.96C27.4431 123.068 27.1483 122.951 27.0395 122.697L26.312 121H22.687L21.9595 122.697C21.8506 122.951 21.556 123.069 21.3022 122.96C21.0488 122.851 20.931 122.556 21.0395 122.303L24.0395 115.303L24.0737 115.237C24.1637 115.091 24.3246 115 24.4995 115ZM23.1157 120H25.8833L24.4995 116.771L23.1157 120Z" fill="currentColor"/>
  <path d="M31.7505 115.001C32.9926 115.001 33.9993 116.008 33.9995 117.25C33.9995 117.774 33.8185 118.255 33.5181 118.638C34.3817 118.952 34.9995 119.778 34.9995 120.75C34.9995 121.993 33.9921 123 32.7495 123H29.4995C29.2236 123 28.9996 122.776 28.9995 122.5V115.5C28.9995 115.368 29.0524 115.24 29.146 115.146C29.2396 115.053 29.3671 115 29.4995 115L31.7505 115.001ZM29.9995 122H32.7495C33.4398 122 33.9995 121.44 33.9995 120.75C33.9995 120.06 33.4398 119.5 32.7495 119.5H29.9995V122ZM29.9995 118.5H31.7495C32.4397 118.5 32.9995 117.94 32.9995 117.25C32.9993 116.56 32.4403 116.001 31.7505 116.001L29.9995 116V118.5Z" fill="currentColor"/>
</svg>
