<svg xmlns="http://www.w3.org/2000/svg" width="16" height="16" viewBox="19.93 110.91 17.22 17.22" fill="none">
  <path d="M33.4394 119.439C34.0252 118.854 34.9747 118.854 35.5605 119.439C36.1463 120.025 36.1463 120.975 35.5605 121.561L31.0605 126.061C31.0084 126.113 30.9453 126.153 30.8759 126.178L28.6689 126.971C28.4868 127.036 28.2832 126.99 28.1464 126.854C28.0096 126.717 27.9639 126.513 28.0292 126.331L28.8222 124.124C28.8471 124.055 28.8873 123.992 28.9394 123.939L33.4394 119.439ZM29.7255 124.567L29.329 125.671L30.4326 125.274L33.8554 121.852L33.1484 121.145L29.7255 124.567ZM34.8535 120.146C34.6582 119.951 34.3417 119.951 34.1464 120.146L33.8554 120.438L34.5624 121.145L34.8535 120.854C35.0487 120.658 35.0487 120.342 34.8535 120.146Z" fill="currentColor"/>
  <path d="M25.9999 112C26.1967 112 26.3752 112.116 26.456 112.295L30.4013 121.062L29.6454 121.818L28.8271 120H23.1728L21.956 122.705C21.8427 122.957 21.5466 123.069 21.2949 122.956C21.0433 122.843 20.9308 122.547 21.0439 122.295L25.5439 112.295C25.6246 112.116 25.8033 112 25.9999 112ZM23.623 119H28.3769L25.9999 113.718L23.623 119Z" fill="currentColor"/>
</svg>
