<svg xmlns="http://www.w3.org/2000/svg" width="16" height="16" viewBox="20.0 111.0 16.0 16.0" fill="none">
  <path d="M34.5 122.5C34.7761 122.5 35 122.724 35 123V123.5C35 124.328 34.3284 125 33.5 125H22.5C21.6716 125 21 124.328 21 123.5V123C21 122.724 21.2239 122.5 21.5 122.5C21.7761 122.5 22 122.724 22 123V123.5C22 123.776 22.2239 124 22.5 124H33.5C33.7761 124 34 123.776 34 123.5V123C34 122.724 34.2239 122.5 34.5 122.5Z" fill="currentColor"/>
  <path d="M24.793 115.5C25.3781 115.5 25.9397 115.733 26.3535 116.146C26.7673 116.56 27 117.122 27 117.707V121.5C27 121.776 26.776 122 26.5 122C26.224 122 26 121.776 26 121.5V121.496C25.5826 121.812 25.064 122 24.5 122H24C22.8954 122 22 121.105 22 120C22 118.895 22.8954 118 24 118H25.3574C25.5855 118 25.8028 118.046 26 118.13V117.707C26 117.387 25.8727 117.08 25.6465 116.854C25.4202 116.627 25.1129 116.5 24.793 116.5H24.3457C23.9764 116.5 23.6792 116.519 23.4238 116.616C23.2124 116.697 23.0924 116.783 23.0547 116.838C22.8985 117.066 22.5871 117.124 22.3594 116.968C22.1322 116.812 22.0745 116.5 22.2305 116.272C22.4502 115.952 22.8203 115.776 23.0684 115.682C23.5098 115.514 23.9693 115.5 24.3457 115.5H24.793ZM24 119C23.4477 119 23 119.448 23 120C23 120.552 23.4477 121 24 121H24.5C25.2969 121 25.9467 120.378 25.9951 119.594C25.9699 119.262 25.6957 119 25.3574 119H24Z" fill="currentColor"/>
  <path d="M29.5 113C29.7761 113 30 113.224 30 113.5V116.703C30.4181 116.389 30.9365 116.2 31.5 116.2C32.8807 116.2 34 117.319 34 118.7V119.5C33.9999 120.881 32.8806 122 31.5 122C30.9364 122 30.4181 121.811 30 121.496V121.5C30 121.776 29.7761 122 29.5 122C29.2239 122 29 121.776 29 121.5V113.5C29 113.224 29.2239 113 29.5 113ZM31.5 117.2C30.6716 117.2 30 117.872 30 118.7V119.5C30.0001 120.328 30.6716 121 31.5 121C32.3284 121 32.9999 120.328 33 119.5V118.7C33 117.872 32.3284 117.2 31.5 117.2Z" fill="currentColor"/>
</svg>
