<svg xmlns="http://www.w3.org/2000/svg" width="16" height="16" viewBox="19.93 110.5 16.07 16.07" fill="none">
  <path d="M25 114C25.1986 114 25.3784 114.118 25.458 114.3L28.958 122.3C29.0685 122.553 28.9531 122.847 28.7002 122.958C28.4472 123.069 28.1526 122.953 28.042 122.7L26.8603 120H23.1396L21.958 122.7C21.8473 122.953 21.5527 123.069 21.2998 122.958C21.0468 122.847 20.9314 122.553 21.042 122.3L24.542 114.3L24.5761 114.234C24.6666 114.09 24.8262 114 25 114ZM23.5771 119H26.4228L25 115.747L23.5771 119Z" fill="currentColor"/>
  <path d="M32.7929 116.5C33.3781 116.5 33.9397 116.733 34.3535 117.146C34.7673 117.56 34.9999 118.122 35 118.707V122.5C34.9999 122.776 34.776 123 34.5 123C34.224 123 34 122.776 34 122.5V122.496C33.5826 122.812 33.064 123 32.5 123H32C30.8954 123 30 122.105 30 121C30 119.895 30.8954 119 32 119H33.3574C33.5854 119 33.8028 119.046 34 119.13V118.707C33.9999 118.387 33.8727 118.08 33.6465 117.854C33.4202 117.627 33.1129 117.5 32.7929 117.5H32.3457C31.9764 117.5 31.6792 117.519 31.4238 117.616C31.2124 117.697 31.0924 117.783 31.0547 117.838C30.8985 118.066 30.5871 118.124 30.3594 117.968C30.1321 117.812 30.0745 117.5 30.2304 117.272C30.4502 116.952 30.8203 116.776 31.0683 116.682C31.5098 116.514 31.9693 116.5 32.3457 116.5H32.7929ZM32 120C31.4477 120 31 120.448 31 121C31 121.552 31.4477 122 32 122H32.5C33.2969 122 33.9466 121.378 33.9951 120.594C33.9699 120.262 33.6957 120 33.3574 120H32Z" fill="currentColor"/>
</svg>
