<svg xmlns="http://www.w3.org/2000/svg" width="16" height="16" viewBox="20.0 111.0 16.0 16.0" fill="none">
  <path d="M23 120C23.465 120 23.6979 120 23.8887 120.051C24.406 120.19 24.8105 120.594 24.9492 121.111C25.0003 121.302 25 121.535 25 122V123C25 123.465 25.0003 123.698 24.9492 123.889C24.8105 124.406 24.406 124.81 23.8887 124.949C23.6979 125 23.465 125 23 125C22.535 125 22.3021 125 22.1113 124.949C21.594 124.81 21.1895 124.406 21.0508 123.889C20.9997 123.698 21 123.465 21 123V122C21 121.535 20.9997 121.302 21.0508 121.111C21.1895 120.594 21.594 120.19 22.1113 120.051C22.3021 120 22.535 120 23 120Z" fill="currentColor"/>
  <path d="M28 117C28.465 117 28.6979 117 28.8887 117.051C29.406 117.19 29.8105 117.594 29.9492 118.111C30.0003 118.302 30 118.535 30 119V123C30 123.465 30.0003 123.698 29.9492 123.889C29.8105 124.406 29.406 124.81 28.8887 124.949C28.6979 125 28.465 125 28 125C27.535 125 27.3021 125 27.1113 124.949C26.594 124.81 26.1895 124.406 26.0508 123.889C25.9997 123.698 26 123.465 26 123V119C26 118.535 25.9997 118.302 26.0508 118.111C26.1895 117.594 26.594 117.19 27.1113 117.051C27.3021 117 27.535 117 28 117Z" fill="currentColor"/>
  <path d="M33 113C33.465 113 33.6979 113 33.8887 113.051C34.406 113.19 34.8105 113.594 34.9492 114.111C35.0003 114.302 35 114.535 35 115V123C35 123.465 35.0003 123.698 34.9492 123.889C34.8105 124.406 34.406 124.81 33.8887 124.949C33.6979 125 33.465 125 33 125C32.535 125 32.3021 125 32.1113 124.949C31.594 124.81 31.1895 124.406 31.0508 123.889C30.9997 123.698 31 123.465 31 123V115C31 114.535 30.9997 114.302 31.0508 114.111C31.1895 113.594 31.594 113.19 32.1113 113.051C32.3021 113 32.535 113 33 113Z" fill="currentColor"/>
</svg>
