<svg xmlns="http://www.w3.org/2000/svg" width="16" height="16" viewBox="20.0 111.0 16.0 16.0" fill="none">
  <path d="M23 120C23.465 120 23.6979 120 23.8887 120.051C24.406 120.19 24.8105 120.594 24.9492 121.111C25.0003 121.302 25 121.535 25 122V123C25 123.465 25.0003 123.698 24.9492 123.889C24.8105 124.406 24.406 124.81 23.8887 124.949C23.6979 125 23.465 125 23 125C22.535 125 22.3021 125 22.1113 124.949C21.594 124.81 21.1895 124.406 21.0508 123.889C20.9997 123.698 21 123.465 21 123V122C21 121.535 20.9997 121.302 21.0508 121.111C21.1895 120.594 21.594 120.19 22.1113 120.051C22.3021 120 22.535 120 23 120Z" fill="currentColor"/>
  <path d="M28 117C28.465 117 28.6979 117 28.8887 117.051C29.406 117.19 29.8105 117.594 29.9492 118.111C30.0003 118.302 30 118.535 30 119V123C30 123.465 30.0003 123.698 29.9492 123.889C29.8105 124.406 29.406 124.81 28.8887 124.949C28.6979 125 28.465 125 28 125C27.535 125 27.3021 125 27.1113 124.949C26.594 124.81 26.1895 124.406 26.0508 123.889C25.9997 123.698 26 123.465 26 123V119C26 118.535 25.9997 118.302 26.0508 118.111C26.1895 117.594 26.594 117.19 27.1113 117.051C27.3021 117 27.535 117 28 117Z" fill="currentColor"/>
  <path d="M33 113C33.465 113 33.6979 113 33.8887 113.051C34.406 113.19 34.8105 113.594 34.9492 114.111C35.0003 114.302 35 114.535 35 115V123C35 123.465 35.0003 123.698 34.9492 123.889L34.8848 124.077C34.7074 124.503 34.3413 124.828 33.8887 124.949L33.7344 124.979C33.5667 125 33.3487 125 33 125C32.6513 125 32.4333 125 32.2656 124.979L32.1113 124.949C31.6587 124.828 31.2926 124.503 31.1152 124.077L31.0508 123.889C30.9997 123.698 31 123.465 31 123V115C31 114.535 30.9997 114.302 31.0508 114.111C31.1895 113.594 31.594 113.19 32.1113 113.051C32.3021 113 32.535 113 33 113ZM32.499 114.005C32.4006 114.009 32.3701 114.017 32.3701 114.017C32.1978 114.063 32.0629 114.198 32.0166 114.37C32.0166 114.37 32.0094 114.401 32.0049 114.499C31.9998 114.611 32 114.759 32 115V123C32 123.241 31.9998 123.389 32.0049 123.501C32.0094 123.599 32.0166 123.63 32.0166 123.63C32.0629 123.802 32.1978 123.937 32.3701 123.983C32.3701 123.983 32.4006 123.991 32.499 123.995C32.611 124 32.7588 124 33 124C33.2412 124 33.389 124 33.501 123.995C33.5994 123.991 33.6299 123.983 33.6299 123.983C33.8022 123.937 33.9371 123.802 33.9834 123.63C33.9834 123.63 33.9906 123.599 33.9951 123.501C34.0002 123.389 34 123.241 34 123V115C34 114.759 34.0002 114.611 33.9951 114.499C33.9906 114.401 33.9834 114.37 33.9834 114.37C33.9371 114.198 33.8022 114.063 33.6299 114.017C33.6299 114.017 33.5994 114.009 33.501 114.005C33.389 114 33.2412 114 33 114C32.7588 114 32.611 114 32.499 114.005Z" fill="currentColor"/>
</svg>
