<svg xmlns="http://www.w3.org/2000/svg" width="16" height="16" viewBox="20.0 115.0 16.0 16.0" fill="none">
  <path d="M28 116C31.866 116 35 119.134 35 123C35 126.866 31.866 130 28 130C24.134 130 21 126.866 21 123C21 119.134 24.134 116 28 116ZM29.1299 126.837C28.7715 126.942 28.3925 127 28 127C27.6068 127 27.2271 126.943 26.8682 126.837L25.332 128.374C26.1358 128.774 27.0413 129 28 129C28.9584 129 29.8634 128.774 30.667 128.374L29.1299 126.837ZM23.1602 126.546C23.5227 127.04 23.9591 127.476 24.4531 127.839L25.8916 126.399C25.3675 126.074 24.925 125.63 24.5996 125.105L23.1602 126.546ZM31.3994 125.106C31.0738 125.631 30.6308 126.074 30.1064 126.399L31.5459 127.839C32.04 127.476 32.4762 127.04 32.8389 126.546L31.3994 125.106ZM28 120C26.3431 120 25 121.343 25 123C25 124.657 26.3431 126 28 126C29.6569 126 31 124.657 31 123C31 121.343 29.6569 120 28 120ZM22.625 120.332C22.2253 121.136 22 122.041 22 123C22 123.958 22.2255 124.863 22.625 125.667L24.1621 124.129C24.057 123.771 24 123.392 24 123C24 122.607 24.0566 122.228 24.1621 121.869L22.625 120.332ZM31.8369 121.868C31.9426 122.227 32 122.607 32 123C32 123.393 31.9423 123.771 31.8369 124.13L33.374 125.667C33.7736 124.863 34 123.958 34 123C34 122.041 33.7738 121.136 33.374 120.332L31.8369 121.868ZM24.4531 118.16C23.9592 118.523 23.5228 118.959 23.1602 119.453L24.5996 120.893C24.9251 120.368 25.3684 119.925 25.8926 119.6L24.4531 118.16ZM30.1055 119.6C30.6298 119.925 31.0737 120.367 31.3994 120.892L32.8389 119.453C32.4762 118.959 32.04 118.523 31.5459 118.16L30.1055 119.6ZM28 117C27.0415 117 26.1357 117.225 25.332 117.625L26.8691 119.162C27.2277 119.057 27.6073 119 28 119C28.3921 119 28.7708 119.057 29.1289 119.162L30.667 117.625C29.8635 117.226 28.9582 117 28 117Z" fill="currentColor"/>
</svg>
