<svg xmlns="http://www.w3.org/2000/svg" width="16" height="16" viewBox="20.0 111.0 16.0 16.0" fill="none">
  <path d="M28 112C30.4686 112 32.5 113.798 32.5 116.5C32.5 117.41 32.3206 118.19 31.9414 118.85C31.4775 119.656 31.1322 120.256 30.8955 120.683C30.7771 120.896 30.6885 121.061 30.627 121.184C30.5595 121.318 30.542 121.367 30.542 121.367C30.5032 121.512 30.5 121.648 30.5 122.084V124.079C30.4976 124.279 30.4832 124.48 30.4053 124.668C30.3273 124.856 30.1957 125.008 30.0557 125.151L29.6514 125.556C29.508 125.696 29.3562 125.827 29.168 125.905C28.9798 125.983 28.7794 125.998 28.5791 126H27.4209C27.2206 125.998 27.0202 125.983 26.832 125.905C26.6438 125.827 26.492 125.696 26.3486 125.556L25.9443 125.151C25.8043 125.008 25.6727 124.856 25.5947 124.668C25.5168 124.48 25.5024 124.279 25.5 124.079V122.084C25.5 121.648 25.4968 121.512 25.458 121.367C25.458 121.367 25.4405 121.318 25.373 121.184C25.3115 121.061 25.2229 120.896 25.1045 120.683C24.8678 120.256 24.5225 119.656 24.0586 118.85C23.6794 118.19 23.5 117.41 23.5 116.5C23.5 113.798 25.5314 112 28 112ZM26.502 124C26.5038 124.235 26.5097 124.264 26.5186 124.285C26.5287 124.31 26.5473 124.34 26.793 124.586L26.9141 124.707C27.1597 124.953 27.1903 124.971 27.2148 124.981C27.2394 124.992 27.2742 125 27.6211 125H28.3789C28.7258 125 28.7606 124.992 28.7852 124.981C28.8097 124.971 28.8403 124.953 29.0859 124.707L29.207 124.586C29.4527 124.34 29.4713 124.31 29.4814 124.285C29.4903 124.264 29.4962 124.235 29.498 124H26.502ZM26.5 122.084V123H29.5V122.084C29.5 122.055 29.501 122.027 29.501 122H26.499C26.499 122.027 26.5 122.055 26.5 122.084ZM28 113C26.0503 113 24.5 114.384 24.5 116.5C24.5 117.278 24.6527 117.877 24.9258 118.352C25.3879 119.155 25.7373 119.763 25.9785 120.197C26.099 120.414 26.1957 120.593 26.2666 120.734C26.3109 120.823 26.3521 120.915 26.3848 121H29.6152C29.6479 120.915 29.6891 120.823 29.7334 120.734C29.8043 120.593 29.901 120.414 30.0215 120.197C30.2627 119.763 30.6121 119.155 31.0742 118.352C31.3473 117.877 31.5 117.278 31.5 116.5C31.5 114.384 29.9497 113 28 113Z" fill="currentColor"/>
</svg>
