<svg xmlns="http://www.w3.org/2000/svg" width="16" height="16" viewBox="20.0 111.0 16.0 16.0" fill="none">
  <path d="M23 118.257C23.0003 117.563 23.5628 117 24.2568 117H26.8906L26.1475 113.288C26.0142 112.622 26.5238 112 27.2031 112C27.5508 112 27.877 112.168 28.0791 112.451L32.7656 119.012C32.9179 119.225 33 119.481 33 119.743C32.9997 120.437 32.4372 121 31.7432 121H29.1094L29.8525 124.712C29.9858 125.378 29.4762 126 28.7969 126C28.4492 126 28.123 125.832 27.9209 125.549L23.2344 118.988C23.0821 118.775 23 118.519 23 118.257Z" fill="currentColor"/>
</svg>
