<svg xmlns="http://www.w3.org/2000/svg" width="16" height="16" viewBox="19.95 110.95 16.1 16.1" fill="none">
  <path d="M34.1464 112.146C34.3417 111.951 34.6582 111.951 34.8535 112.146C35.0487 112.342 35.0487 112.658 34.8535 112.854L21.8535 125.854C21.6582 126.049 21.3417 126.049 21.1464 125.854C20.9512 125.658 20.9512 125.342 21.1464 125.146L24.9296 121.362L23.2343 118.988C23.082 118.775 23 118.519 23 118.257C23.0002 117.563 23.5628 117 24.2568 117H26.8906L26.1474 113.288C26.0142 112.622 26.5238 112 27.2031 112C27.5507 112 27.877 112.168 28.0791 112.451L30.4795 115.812L34.1464 112.146ZM27.2031 113C27.1549 113 27.1184 113.044 27.1279 113.092L27.9902 117.402C28.0194 117.549 27.9816 117.702 27.8867 117.817C27.7917 117.933 27.6497 118 27.5 118H24.2568C24.1151 118 24.0002 118.115 24 118.257C24 118.31 24.0166 118.364 24.0478 118.407L25.6464 120.646L29.7627 116.529L27.2656 113.032C27.2512 113.012 27.2278 113 27.2031 113Z" fill="currentColor"/>
  <path d="M32.7656 119.012C32.9179 119.225 33 119.481 33 119.743C32.9997 120.437 32.4371 121 31.7431 121H29.1093L29.8525 124.712C29.9857 125.378 29.4761 126 28.7968 126C28.4492 126 28.1229 125.832 27.9209 125.549L26.2558 123.218L26.9726 122.501L28.7343 124.968C28.7487 124.988 28.7721 125 28.7968 125C28.845 125 28.8815 124.956 28.872 124.908L28.1543 121.319L29.4746 120H31.7431C31.8848 120 31.9997 119.885 32 119.743C32 119.69 31.9833 119.636 31.9521 119.593L31.0888 118.385L31.8056 117.668L32.7656 119.012Z" fill="currentColor"/>
</svg>
