<svg xmlns="http://www.w3.org/2000/svg" width="16" height="16" viewBox="20.0 111.0 16.0 16.0" fill="none">
  <path d="M23 118.257C23.0003 117.563 23.5628 117 24.2568 117H26.8906L26.1475 113.288C26.0142 112.622 26.5238 112 27.2031 112C27.5508 112 27.877 112.168 28.0791 112.451L32.7656 119.012C32.9179 119.225 33 119.481 33 119.743C32.9997 120.437 32.4372 121 31.7432 121H29.1094L29.8525 124.712C29.9858 125.378 29.4762 126 28.7969 126C28.4492 126 28.123 125.832 27.9209 125.549L23.2344 118.988C23.0821 118.775 23 118.519 23 118.257ZM24 118.257C24 118.31 24.0167 118.364 24.0479 118.407L28.7344 124.968C28.7487 124.988 28.7722 125 28.7969 125C28.8451 125 28.8815 124.956 28.8721 124.908L28.0098 120.598C27.9805 120.451 28.0184 120.298 28.1133 120.183C28.2083 120.067 28.3503 120 28.5 120H31.7432C31.8849 120 31.9997 119.885 32 119.743C32 119.69 31.9833 119.636 31.9521 119.593L27.2656 113.032C27.2513 113.012 27.2278 113 27.2031 113C27.1549 113 27.1185 113.044 27.1279 113.092L27.9902 117.402C28.0195 117.549 27.9816 117.702 27.8867 117.817C27.7917 117.933 27.6497 118 27.5 118H24.2568C24.1151 118 24.0003 118.115 24 118.257Z" fill="currentColor"/>
</svg>
