<svg xmlns="http://www.w3.org/2000/svg" width="16" height="16" viewBox="19.69 110.67 16.66 16.66" fill="none">
  <path d="M25.1528 117.156C26.4472 115.852 28.5539 115.848 29.853 117.147C30.0481 117.342 30.0482 117.659 29.853 117.854C29.6578 118.049 29.3412 118.049 29.146 117.854C28.2385 116.946 26.7671 116.949 25.8628 117.86L22.7085 121.035C21.8074 121.943 21.8109 123.409 22.7153 124.314C23.6273 125.225 25.1069 125.219 26.0112 124.3L27.1441 123.15C27.3375 122.953 27.6533 122.95 27.8501 123.143C28.0469 123.336 28.0504 123.654 27.8569 123.851L26.7241 125.001C25.4301 126.317 23.3121 126.325 22.0073 125.021C20.7136 123.727 20.7096 121.63 21.9985 120.331L25.1528 117.156Z" fill="currentColor"/>
  <path d="M29.3247 112.968C30.6245 111.669 32.732 111.669 34.0317 112.968C35.3313 114.268 35.3313 116.375 34.0317 117.675L30.854 120.854C29.5542 122.153 27.4458 122.153 26.146 120.853C25.9513 120.658 25.9509 120.341 26.146 120.146C26.3411 119.951 26.6578 119.951 26.853 120.146C27.7622 121.055 29.2367 121.056 30.146 120.147L33.3247 116.968C34.2337 116.059 34.2338 114.584 33.3247 113.675C32.4155 112.766 30.941 112.766 30.0317 113.675L28.854 114.853C28.6588 115.048 28.3422 115.048 28.147 114.853C27.9518 114.658 27.9517 114.341 28.147 114.146L29.3247 112.968Z" fill="currentColor"/>
</svg>
