<svg xmlns="http://www.w3.org/2000/svg" width="16" height="16" viewBox="20.0 111.0 16.0 16.0" fill="none">
  <path d="M22.0332 112H33.9637C34.5347 112 35.0002 112.452 35.0002 113.009V124.99C35.0002 125.547 34.5347 126 33.9637 126H22.0332C21.4632 126 21.0002 125.547 21.0002 124.99V113.009C21.0002 112.452 21.4632 112 22.0332 112ZM30.8547 123.93H32.9297V120.265C32.9297 118.466 32.5417 117.082 30.4392 117.082C29.4287 117.082 28.7517 117.636 28.4742 118.161H28.4462V117.249H26.4547V123.93H28.5292V120.625C28.5292 119.753 28.6952 118.91 29.7752 118.91C30.8402 118.91 30.8547 119.906 30.8547 120.681V123.93ZM24.1142 116.335C24.7782 116.335 25.3177 115.796 25.3177 115.131C25.3177 114.467 24.7782 113.928 24.1142 113.928C23.4487 113.928 22.9102 114.467 22.9102 115.131C22.9102 115.796 23.4487 116.335 24.1142 116.335ZM25.1522 123.93V117.249H23.0757V123.93H25.1522Z" fill="currentColor"/>
</svg>
