<svg xmlns="http://www.w3.org/2000/svg" width="16" height="16" viewBox="20.0 112.0 17.0 17.0" fill="none">
  <path d="M33.375 120C33.7202 120 34 120.28 34 120.625C34 120.97 33.7202 121.25 33.375 121.25C33.0298 121.25 32.75 120.97 32.75 120.625C32.75 120.28 33.0298 120 33.375 120Z" fill="currentColor"/>
  <path d="M33 118C34.6569 118 36 119.343 36 121C36 122.657 34.6569 124 33 124C32.6889 124 32.3894 123.95 32.1074 123.862L31.5 124.268V125C31.5 125.276 31.2761 125.5 31 125.5H30V126.5C30 126.776 29.7761 127 29.5 127H27.5C27.2239 127 27 126.776 27 126.5V124.5C27 124.367 27.0527 124.24 27.1465 124.146L30.0146 121.278C30.0057 121.188 30 121.095 30 121C30 119.343 31.3431 118 33 118ZM33 119C31.8954 119 31 119.895 31 121C31 121.12 31.0133 121.242 31.0361 121.365C31.066 121.527 31.0138 121.693 30.8975 121.81L28 124.707V126H29V125C29 124.724 29.2239 124.5 29.5 124.5H30.5V124C30.5 123.833 30.5836 123.677 30.7227 123.584L31.7617 122.892C31.8835 122.81 32.0338 122.788 32.1729 122.826L32.2314 122.846C32.4684 122.944 32.7275 123 33 123C34.1046 123 35 122.105 35 121C35 119.895 34.1046 119 33 119Z" fill="currentColor"/>
  <path d="M23 121C24.1046 121 25 121.895 25 123C25 124.105 24.1046 125 23 125C21.8954 125 21 124.105 21 123C21 121.895 21.8954 121 23 121ZM23 122C22.4477 122 22 122.448 22 123C22 123.552 22.4477 124 23 124C23.5523 124 24 123.552 24 123C24 122.448 23.5523 122 23 122Z" fill="currentColor"/>
  <path d="M26.8789 123H26.5C26.2239 123 26 122.776 26 122.5C26 122.224 26.2239 122 26.5 122H27.8789L26.8789 123Z" fill="currentColor"/>
  <path d="M23 114C24.1046 114 25 114.895 25 116C25 117.105 24.1046 118 23 118C21.8954 118 21 117.105 21 116C21 114.895 21.8954 114 23 114ZM23 115C22.4477 115 22 115.448 22 116C22 116.552 22.4477 117 23 117C23.5523 117 24 116.552 24 116C24 115.448 23.5523 115 23 115Z" fill="currentColor"/>
  <path d="M34.5 115C34.7761 115 35 115.224 35 115.5C35 115.776 34.7761 116 34.5 116H26.5C26.2239 116 26 115.776 26 115.5C26 115.224 26.2239 115 26.5 115H34.5Z" fill="currentColor"/>
</svg>
