<svg xmlns="http://www.w3.org/2000/svg" width="16" height="16" viewBox="18.5 113.02 16.0 16.0" fill="none">
  <path d="M23 118C24.933 118 26.5 119.567 26.5 121.5C26.5 122.286 26.2403 123.011 25.8027 123.596L28.3535 126.146C28.5488 126.342 28.5488 126.658 28.3535 126.854C28.1583 127.049 27.8417 127.049 27.6465 126.854L25.0957 124.303C24.5114 124.74 23.7862 125 23 125C21.067 125 19.5 123.433 19.5 121.5C19.5 119.567 21.067 118 23 118ZM23 119C21.6193 119 20.5 120.119 20.5 121.5C20.5 122.881 21.6193 124 23 124C24.3807 124 25.5 122.881 25.5 121.5C25.5 120.119 24.3807 119 23 119Z" fill="currentColor"/>
  <path d="M29 123C29.2761 123 29.5 123.224 29.5 123.5C29.5 123.776 29.2761 124 29 124H27.6211L27.0605 123.439C27.1288 123.297 27.1899 123.15 27.2432 123H29Z" fill="currentColor"/>
  <path d="M33 119C33.2761 119 33.5 119.224 33.5 119.5C33.5 119.776 33.2761 120 33 120H27.2422C27.1163 119.644 26.9478 119.308 26.7412 119H33Z" fill="currentColor"/>
  <path d="M33 115C33.2761 115 33.5 115.224 33.5 115.5C33.5 115.776 33.2761 116 33 116H22C21.7239 116 21.5 115.776 21.5 115.5C21.5 115.224 21.7239 115 22 115H33Z" fill="currentColor"/>
</svg>
