<svg xmlns="http://www.w3.org/2000/svg" width="16" height="16" viewBox="20.0 111.5 16.0 16.0" fill="none">
  <path d="M23 121C24.1046 121 25 121.895 25 123C25 124.105 24.1046 125 23 125C21.8954 125 21 124.105 21 123C21 121.895 21.8954 121 23 121ZM23 122C22.4477 122 22 122.448 22 123C22 123.552 22.4477 124 23 124C23.5523 124 24 123.552 24 123C24 122.448 23.5523 122 23 122Z" fill="currentColor"/>
  <path d="M34.5 122C34.7761 122 35 122.224 35 122.5C35 122.776 34.7761 123 34.5 123H26.5C26.2239 123 26 122.776 26 122.5C26 122.224 26.2239 122 26.5 122H34.5Z" fill="currentColor"/>
  <path d="M23 114C24.1046 114 25 114.895 25 116C25 117.105 24.1046 118 23 118C21.8954 118 21 117.105 21 116C21 114.895 21.8954 114 23 114ZM23 115C22.4477 115 22 115.448 22 116C22 116.552 22.4477 117 23 117C23.5523 117 24 116.552 24 116C24 115.448 23.5523 115 23 115Z" fill="currentColor"/>
  <path d="M34.5 115C34.7761 115 35 115.224 35 115.5C35 115.776 34.7761 116 34.5 116H26.5C26.2239 116 26 115.776 26 115.5C26 115.224 26.2239 115 26.5 115H34.5Z" fill="currentColor"/>
</svg>
