<svg xmlns="http://www.w3.org/2000/svg" width="16" height="16" viewBox="20.0 111.48 16.05 16.05" fill="none">
  <path d="M29.5 123C29.7761 123 30 123.224 30 123.5C30 123.776 29.7761 124 29.5 124H21.5C21.2239 124 21 123.776 21 123.5C21 123.224 21.2239 123 21.5 123H29.5Z" fill="currentColor"/>
  <path d="M32.1465 117.146C32.3417 116.951 32.6583 116.951 32.8535 117.146L34.8535 119.146C35.0488 119.342 35.0488 119.658 34.8535 119.854L32.8535 121.854C32.6583 122.049 32.3417 122.049 32.1465 121.854C31.9512 121.658 31.9512 121.342 32.1465 121.146L33.793 119.5L32.1465 117.854C31.9512 117.658 31.9512 117.342 32.1465 117.146Z" fill="currentColor"/>
  <path d="M29.5 119C29.7761 119 30 119.224 30 119.5C30 119.776 29.7761 120 29.5 120H21.5C21.2239 120 21 119.776 21 119.5C21 119.224 21.2239 119 21.5 119H29.5Z" fill="currentColor"/>
  <path d="M29.5 115C29.7761 115 30 115.224 30 115.5C30 115.776 29.7761 116 29.5 116H21.5C21.2239 116 21 115.776 21 115.5C21 115.224 21.2239 115 21.5 115H29.5Z" fill="currentColor"/>
</svg>
