<svg xmlns="http://www.w3.org/2000/svg" width="16" height="16" viewBox="19.81 110.9 16.19 16.19" fill="none">
  <path d="M31.5001 121C31.7761 121 32.0001 121.224 32.0001 121.5C32.0001 121.776 31.7761 122 31.5001 122H27.5001C27.2239 122 27.0001 121.776 27.0001 121.5C27.0001 121.224 27.2239 121 27.5001 121H31.5001Z" fill="currentColor"/>
  <path d="M31.5001 118C31.7761 118 32.0001 118.224 32.0001 118.5C32.0001 118.776 31.7761 119 31.5001 119H27.5001C27.2239 119 27.0001 118.776 27.0001 118.5C27.0001 118.224 27.2239 118 27.5001 118H31.5001Z" fill="currentColor"/>
  <path d="M31.5001 115C31.7761 115 32.0001 115.224 32.0001 115.5C32.0001 115.776 31.7761 116 31.5001 116H27.5001C27.2239 116 27.0001 115.776 27.0001 115.5C27.0001 115.224 27.2239 115 27.5001 115H31.5001Z" fill="currentColor"/>
  <path d="M30.5001 112C31.4285 112 32.1752 111.999 32.7608 112.078C33.3608 112.159 33.8664 112.331 34.2677 112.732C34.6688 113.134 34.8412 113.639 34.922 114.239C35.0007 114.825 35.0001 115.571 35.0001 116.5V121.5C35.0001 122.429 35.0007 123.175 34.922 123.761C34.8412 124.361 34.6688 124.866 34.2677 125.268C33.8664 125.669 33.3608 125.841 32.7608 125.922C32.1752 126.001 31.4285 126 30.5001 126H28.5001C27.5716 126 26.8249 126.001 26.2393 125.922C25.6393 125.841 25.1337 125.669 24.7325 125.268C24.3313 124.866 24.1589 124.361 24.0782 123.761C23.9995 123.175 24.0001 122.429 24.0001 121.5V119.053L21.5723 117.902C20.81 117.541 20.8094 116.457 21.5714 116.096L24.0167 114.937L24.0177 114.936C24.0187 114.934 24.0194 114.931 24.0196 114.927C24.0615 114.01 24.191 113.274 24.7325 112.732C25.1337 112.331 25.6393 112.159 26.2393 112.078C26.8249 111.999 27.5716 112 28.5001 112H30.5001ZM28.5001 113C27.5433 113 26.8756 113.001 26.3722 113.068C25.8831 113.134 25.6241 113.255 25.4395 113.439C25.1876 113.691 25.0596 114.076 25.0186 114.972C25.0019 115.338 24.7886 115.678 24.4454 115.841L22.0001 116.999L24.4278 118.149C24.777 118.315 25.0001 118.666 25.0001 119.053V121.5C25.0001 122.457 25.0007 123.124 25.0684 123.628C25.1342 124.117 25.255 124.376 25.4395 124.561C25.6241 124.745 25.8831 124.866 26.3722 124.932C26.8756 124.999 27.5433 125 28.5001 125H30.5001C31.4569 125 32.1245 124.999 32.628 124.932C33.117 124.866 33.3761 124.745 33.5606 124.561C33.7451 124.376 33.8659 124.117 33.9317 123.628C33.9995 123.124 34.0001 122.457 34.0001 121.5V116.5C34.0001 115.543 33.9995 114.876 33.9317 114.372C33.8659 113.883 33.7451 113.624 33.5606 113.439C33.3761 113.255 33.117 113.134 32.628 113.068C32.1245 113.001 31.4569 113 30.5001 113H28.5001Z" fill="currentColor"/>
</svg>
