<svg xmlns="http://www.w3.org/2000/svg" width="16" height="16" viewBox="20.0 111.0 16.0 16.0" fill="none">
  <path d="M28 112C29.1472 112 30.2297 112.276 31.1851 112.765C31.743 113.051 31.7947 113.79 31.3516 114.233C31.0055 114.579 30.4675 114.623 30.0199 114.425C29.4022 114.152 28.7188 114 28 114C25.2386 114 23 116.239 23 119C23 121.761 25.2386 124 28 124C30.7614 124 33 121.761 33 119C33 118.281 32.848 117.597 32.5745 116.979C32.3764 116.532 32.4197 115.993 32.7658 115.647C33.2089 115.204 33.9481 115.256 34.2338 115.814C34.7235 116.769 35 117.852 35 119C35 122.866 31.866 126 28 126C24.134 126 21 122.866 21 119C21 115.134 24.134 112 28 112Z" fill="currentColor"/>
</svg>
