<svg xmlns="http://www.w3.org/2000/svg" width="16" height="16" viewBox="20.5 111.0 15.0 15.0" fill="none">
  <path d="M28 120C28.5523 120 29 120.448 29 121C29 121.552 28.5523 122 28 122C27.4477 122 27 121.552 27 121C27 120.448 27.4477 120 28 120Z" fill="currentColor"/>
  <path d="M28 112C30.2091 112 32 113.791 32 116V117.087C32.3274 117.144 32.6216 117.243 32.8887 117.421C33.1616 117.603 33.3967 117.838 33.5791 118.111C33.8115 118.459 33.9089 118.853 33.9551 119.307C34.0004 119.752 34 120.308 34 121C34 121.692 34.0003 122.248 33.9551 122.693C33.9089 123.147 33.8115 123.541 33.5791 123.889C33.3967 124.162 33.1616 124.397 32.8887 124.579C32.5407 124.812 32.1469 124.909 31.6934 124.955C31.2481 125 30.6917 125 30 125H26C25.3083 125 24.7519 125 24.3066 124.955C23.8531 124.909 23.4593 124.812 23.1113 124.579C22.8384 124.397 22.6033 124.162 22.4209 123.889C22.1885 123.541 22.0911 123.147 22.0449 122.693C21.9997 122.248 22 121.692 22 121C22 120.308 21.9996 119.752 22.0449 119.307C22.0911 118.853 22.1885 118.459 22.4209 118.111C22.6033 117.838 22.8384 117.603 23.1113 117.421C23.3784 117.243 23.6726 117.144 24 117.087V116C24 113.791 25.7909 112 28 112ZM26 118C25.2874 118 24.7902 118.001 24.4072 118.04C24.033 118.078 23.8233 118.149 23.667 118.253C23.5032 118.362 23.3624 118.503 23.2529 118.667C23.1485 118.823 23.0781 119.033 23.04 119.407C23.0011 119.79 23 120.287 23 121C23 121.713 23.0011 122.21 23.04 122.593C23.0781 122.967 23.1486 123.177 23.2529 123.333C23.3624 123.497 23.5032 123.638 23.667 123.747C23.8233 123.851 24.0329 123.923 24.4072 123.961C24.7902 124 25.2874 124 26 124H30C30.7126 124 31.2098 124 31.5928 123.961C31.9671 123.923 32.1767 123.851 32.333 123.747C32.4968 123.638 32.6376 123.497 32.7471 123.333C32.8514 123.177 32.9219 122.967 32.96 122.593C32.9989 122.21 33 121.713 33 121C33 120.287 32.9989 119.79 32.96 119.407C32.9219 119.033 32.8515 118.823 32.7471 118.667C32.6376 118.503 32.4968 118.362 32.333 118.253C32.1767 118.149 31.967 118.078 31.5928 118.04C31.2098 118.001 30.7126 118 30 118H26ZM28 113C26.3431 113 25 114.343 25 116V117.007C25.2969 117 25.629 117 26 117H30C30.371 117 30.7031 117 31 117.007V116C31 114.343 29.6569 113 28 113Z" fill="currentColor"/>
</svg>
