<svg xmlns="http://www.w3.org/2000/svg" width="16" height="16" viewBox="20.0 111.5 16.0 16.0" fill="none">
  <path d="M24.1465 116.146C24.3417 115.951 24.6583 115.951 24.8535 116.146C25.0488 116.342 25.0488 116.658 24.8535 116.853L22.707 119H34.5C34.7761 119 35 119.224 35 119.5C35 119.776 34.7761 120 34.5 120H22.707L24.8535 122.146C25.0488 122.342 25.0488 122.658 24.8535 122.853C24.6583 123.049 24.3417 123.049 24.1465 122.853L21.1465 119.853C21.1251 119.832 21.1065 119.809 21.0898 119.785C21.0812 119.773 21.0739 119.759 21.0664 119.746C21.0578 119.731 21.0489 119.716 21.042 119.7C21.0373 119.689 21.0342 119.678 21.0303 119.667C21.0244 119.65 21.0187 119.634 21.0146 119.617C21.0115 119.604 21.0089 119.591 21.0068 119.577C21.0036 119.557 21.0016 119.536 21.001 119.516C21.0008 119.51 21 119.505 21 119.5C21 119.495 21.0009 119.491 21.001 119.486C21.0016 119.463 21.0041 119.441 21.0078 119.418C21.0092 119.409 21.0099 119.401 21.0117 119.393C21.0245 119.334 21.0477 119.277 21.082 119.225L21.1465 119.146L24.1465 116.146Z" fill="currentColor"/>
</svg>
