<svg xmlns="http://www.w3.org/2000/svg" width="16" height="16" viewBox="20.0 111.5 16.0 16.0" fill="none">
  <path d="M31.1465 116.146C31.3417 115.951 31.6583 115.951 31.8535 116.146L34.8535 119.146L34.918 119.225C34.9523 119.277 34.9745 119.334 34.9873 119.393C34.9891 119.401 34.9898 119.409 34.9912 119.418C34.995 119.441 34.9974 119.463 34.998 119.486C34.9982 119.491 35 119.495 35 119.5C35 119.505 34.9982 119.51 34.998 119.516C34.9974 119.536 34.9954 119.557 34.9922 119.577C34.9901 119.591 34.9876 119.604 34.9844 119.617C34.9803 119.634 34.9746 119.65 34.9688 119.667C34.9648 119.678 34.9617 119.689 34.957 119.7C34.9501 119.716 34.9413 119.731 34.9326 119.746C34.9251 119.759 34.9179 119.773 34.9092 119.785C34.8926 119.809 34.8747 119.832 34.8535 119.853L31.8535 122.853C31.6583 123.049 31.3417 123.049 31.1465 122.853C30.9512 122.658 30.9512 122.342 31.1465 122.146L33.293 120H21.5C21.2239 120 21 119.776 21 119.5C21 119.224 21.2239 119 21.5 119H33.293L31.1465 116.853C30.9512 116.658 30.9512 116.342 31.1465 116.146Z" fill="currentColor"/>
</svg>
