<svg xmlns="http://www.w3.org/2000/svg" width="16" height="16" viewBox="19.86 111.0 16.14 16.14" fill="none">
  <path d="M29.8343 114.57C30.2539 114.362 30.7467 114.362 31.1663 114.57C31.4053 114.689 31.6098 114.902 31.8538 115.146C32.0978 115.39 32.3115 115.595 32.43 115.834C32.6379 116.254 32.6379 116.746 32.43 117.166C32.3115 117.405 32.0978 117.61 31.8538 117.854L24.3538 125.354C24.1098 125.598 23.9053 125.811 23.6663 125.93C23.2467 126.138 22.7539 126.138 22.3343 125.93C22.0952 125.811 21.8908 125.598 21.6468 125.354C21.4027 125.109 21.1891 124.905 21.0706 124.666C20.8626 124.246 20.8626 123.754 21.0706 123.334C21.1891 123.095 21.4027 122.891 21.6468 122.646L29.1468 115.146C29.3908 114.902 29.5952 114.689 29.8343 114.57ZM22.3538 123.354C22.0528 123.654 21.9934 123.723 21.9661 123.778C21.8971 123.918 21.8971 124.082 21.9661 124.222C21.9934 124.277 22.0528 124.346 22.3538 124.646C22.6549 124.948 22.7236 125.007 22.7786 125.034C22.9182 125.103 23.0824 125.103 23.222 125.034C23.2769 125.007 23.346 124.947 23.6468 124.646L29.7933 118.5L28.5003 117.207L22.3538 123.354ZM30.722 115.466C30.5824 115.397 30.4182 115.397 30.2786 115.466C30.2236 115.493 30.1549 115.552 29.8538 115.854L29.2073 116.5L30.5003 117.793L31.1468 117.146C31.4478 116.845 31.5072 116.777 31.5345 116.722C31.6034 116.582 31.6034 116.418 31.5345 116.278C31.5072 116.223 31.4478 116.155 31.1468 115.854C30.846 115.553 30.7769 115.493 30.722 115.466Z" fill="currentColor"/>
  <path d="M33.5003 118C33.7763 118 34.0003 118.224 34.0003 118.5V119H34.5003C34.7763 119 35.0003 119.224 35.0003 119.5C35.0003 119.776 34.7763 120 34.5003 120H34.0003V120.5C34.0003 120.776 33.7763 121 33.5003 121C33.2241 121 33.0003 120.776 33.0003 120.5V120H32.5003C32.2241 120 32.0003 119.776 32.0003 119.5C32.0003 119.224 32.2241 119 32.5003 119H33.0003V118.5C33.0003 118.224 33.2241 118 33.5003 118Z" fill="currentColor"/>
  <path d="M27.5003 112C27.7763 112 28.0003 112.224 28.0003 112.5V113H28.5003C28.7763 113 29.0003 113.224 29.0003 113.5C29.0003 113.776 28.7763 114 28.5003 114H28.0003V114.5C28.0003 114.776 27.7763 115 27.5003 115C27.2241 115 27.0003 114.776 27.0003 114.5V114H26.5003C26.2241 114 26.0003 113.776 26.0003 113.5C26.0003 113.224 26.2241 113 26.5003 113H27.0003V112.5C27.0003 112.224 27.2241 112 27.5003 112Z" fill="currentColor"/>
  <path d="M33.5003 112C33.7763 112 34.0003 112.224 34.0003 112.5V113H34.5003C34.7763 113 35.0003 113.224 35.0003 113.5C35.0003 113.776 34.7763 114 34.5003 114H34.0003V114.5C34.0003 114.776 33.7763 115 33.5003 115C33.2241 115 33.0003 114.776 33.0003 114.5V114H32.5003C32.2241 114 32.0003 113.776 32.0003 113.5C32.0003 113.224 32.2241 113 32.5003 113H33.0003V112.5C33.0003 112.224 33.2241 112 33.5003 112Z" fill="currentColor"/>
</svg>
