<svg xmlns="http://www.w3.org/2000/svg" width="16" height="16" viewBox="19.86 110.95 16.2 16.2" fill="none">
  <path d="M26.1224 119.584L22.3539 123.354C22.0528 123.655 21.9934 123.723 21.9662 123.778C21.8972 123.918 21.8972 124.082 21.9662 124.222C21.9935 124.277 22.0534 124.346 22.3539 124.646C22.6548 124.947 22.7237 125.007 22.7787 125.034C22.9183 125.103 23.0825 125.103 23.222 125.034C23.277 125.007 23.346 124.947 23.6468 124.646L27.4154 120.877L28.1224 121.584L24.3539 125.354C24.1099 125.598 23.9054 125.811 23.6664 125.93C23.2469 126.138 22.7539 126.137 22.3343 125.93C22.0954 125.811 21.8908 125.597 21.6468 125.354C21.4029 125.11 21.1892 124.905 21.0707 124.666C20.8627 124.246 20.8628 123.754 21.0707 123.334C21.1892 123.095 21.4028 122.891 21.6468 122.646L25.4154 118.877L26.1224 119.584Z" fill="currentColor"/>
  <path d="M21.1595 112.146C21.3548 111.951 21.6714 111.951 21.8666 112.146L27.0062 117.286L29.1468 115.146C29.3909 114.902 29.5953 114.689 29.8343 114.57C30.254 114.362 30.7468 114.362 31.1664 114.57C31.4053 114.689 31.61 114.903 31.8539 115.146C32.0978 115.39 32.3116 115.595 32.4301 115.834C32.6378 116.254 32.6379 116.746 32.4301 117.166C32.3116 117.405 32.0979 117.61 31.8539 117.854L29.7133 119.993L34.8666 125.146C35.0615 125.342 35.0615 125.658 34.8666 125.854C34.6714 126.049 34.3548 126.049 34.1595 125.854L21.1595 112.854C20.9643 112.658 20.9643 112.342 21.1595 112.146ZM27.7123 117.992L29.0052 119.285L29.7924 118.499L28.4994 117.206L27.7123 117.992ZM30.722 115.466C30.5824 115.397 30.4183 115.397 30.2787 115.466C30.2237 115.493 30.155 115.552 29.8539 115.854L29.2064 116.499L30.4994 117.792L31.1468 117.146C31.4478 116.846 31.5073 116.777 31.5345 116.722C31.6035 116.582 31.6034 116.418 31.5345 116.278C31.5073 116.223 31.4477 116.154 31.1468 115.854C30.8464 115.553 30.777 115.493 30.722 115.466Z" fill="currentColor"/>
  <path d="M33.5004 118C33.7763 118 34.0004 118.224 34.0004 118.5V119H34.5004C34.7763 119 35.0004 119.224 35.0004 119.5C35.0004 119.776 34.7763 120 34.5004 120H34.0004V120.5C34.0004 120.776 33.7763 121 33.5004 121C33.2242 121 33.0004 120.776 33.0004 120.5V120H32.5004C32.2242 120 32.0004 119.776 32.0004 119.5C32.0004 119.224 32.2242 119 32.5004 119H33.0004V118.5C33.0004 118.224 33.2242 118 33.5004 118Z" fill="currentColor"/>
  <path d="M27.5004 112C27.7763 112 28.0004 112.224 28.0004 112.5V113H28.5004C28.7763 113 29.0004 113.224 29.0004 113.5C29.0004 113.776 28.7763 114 28.5004 114H28.0004V114.5C28.0004 114.776 27.7763 115 27.5004 115C27.2242 115 27.0004 114.776 27.0004 114.5V114H26.5004C26.2242 114 26.0004 113.776 26.0004 113.5C26.0004 113.224 26.2242 113 26.5004 113H27.0004V112.5C27.0004 112.224 27.2242 112 27.5004 112Z" fill="currentColor"/>
  <path d="M33.5004 112C33.7763 112 34.0004 112.224 34.0004 112.5V113H34.5004C34.7763 113 35.0004 113.224 35.0004 113.5C35.0004 113.776 34.7763 114 34.5004 114H34.0004V114.5C34.0004 114.776 33.7763 115 33.5004 115C33.2242 115 33.0004 114.776 33.0004 114.5V114H32.5004C32.2242 114 32.0004 113.776 32.0004 113.5C32.0004 113.224 32.2242 113 32.5004 113H33.0004V112.5C33.0004 112.224 33.2242 112 33.5004 112Z" fill="currentColor"/>
</svg>
