<svg xmlns="http://www.w3.org/2000/svg" width="16" height="16" viewBox="19.0 110.98 17.05 17.05" fill="none">
  <path d="M27.0859 118C28.143 118 28.9999 118.857 29 119.914C29 120.422 28.7983 120.909 28.4395 121.268L26.1465 123.561C26.069 123.638 26.0306 123.677 26.0049 123.707L26.0029 123.709V123.711C26 123.75 26 123.805 26 123.914V125.5C26 125.633 25.9473 125.76 25.8535 125.854L25.0605 126.646C24.8342 126.873 24.5271 127 24.207 127C23.5404 127 23 126.46 23 125.793V123.864C23 123.781 22.9998 123.74 22.998 123.71L22.9971 123.707C22.9771 123.685 22.9472 123.655 22.8887 123.597L20.5605 121.268C20.2017 120.909 20 120.422 20 119.914C20.0001 118.857 20.857 118 21.9141 118H27.0859ZM21.9141 119C21.4093 119 21.0001 119.409 21 119.914C21 120.156 21.0962 120.389 21.2676 120.561L23.5967 122.889C23.6845 122.976 23.8044 123.091 23.8828 123.238C23.8977 123.266 23.9117 123.295 23.9238 123.324L23.9561 123.414L23.9834 123.534C24.0027 123.654 24 123.771 24 123.864V125.793C24 125.907 24.0927 126 24.207 126C24.2619 126 24.3147 125.978 24.3535 125.939L25 125.293V123.914C25 123.75 24.9912 123.529 25.0762 123.324L25.1523 123.181C25.2393 123.046 25.3527 122.94 25.4395 122.854L27.7324 120.561C27.9038 120.389 28 120.156 28 119.914C27.9999 119.409 27.5907 119 27.0859 119H21.9141Z" fill="currentColor"/>
  <path d="M26.5 112C29.5376 112 32 114.462 32 117.5C32 118.839 31.5206 120.065 30.7256 121.019L34.8535 125.146C35.0488 125.342 35.0488 125.658 34.8535 125.854C34.6583 126.049 34.3417 126.049 34.1465 125.854L30.0186 121.726C29.5667 122.102 29.0532 122.406 28.4961 122.624L29.1465 121.975C29.5824 121.539 29.8621 120.978 29.959 120.377C30.6085 119.597 31 118.594 31 117.5C31 115.015 28.9853 113 26.5 113C24.1838 113 22.2771 114.75 22.0283 117H21.9141C21.599 117 21.2959 117.051 21.0117 117.144C21.1954 114.272 23.5822 112 26.5 112Z" fill="currentColor"/>
</svg>
