<svg xmlns="http://www.w3.org/2000/svg" width="16" height="16" viewBox="18.0 110.98 17.05 17.05" fill="none">
  <path d="M22.502 120C22.6978 120 22.876 120.115 22.957 120.293C23.2775 120.998 23.4135 121.293 23.5918 121.548C23.8268 121.884 24.1189 122.176 24.4551 122.411C24.7101 122.589 25.0049 122.725 25.71 123.046C25.8885 123.127 26.0029 123.306 26.0029 123.502C26.0027 123.698 25.8883 123.876 25.71 123.957C25.0049 124.278 24.7101 124.414 24.4551 124.592C24.1189 124.827 23.8268 125.119 23.5918 125.455C23.4135 125.71 23.2775 126.005 22.957 126.71C22.876 126.888 22.6978 127.003 22.502 127.003C22.3059 127.003 22.127 126.888 22.0459 126.71C21.7254 126.005 21.5894 125.71 21.4111 125.455C21.1762 125.119 20.884 124.827 20.5479 124.592C20.2928 124.414 19.998 124.278 19.293 123.957C19.1146 123.876 19.0002 123.698 19 123.502C19 123.306 19.1145 123.127 19.293 123.046C19.998 122.725 20.2928 122.589 20.5479 122.411C20.884 122.176 21.1762 121.884 21.4111 121.548C21.5894 121.293 21.7254 120.998 22.0459 120.293L22.0811 120.229C22.1721 120.088 22.3303 120 22.502 120ZM22.501 121.664C22.4123 121.833 22.3288 121.982 22.2314 122.121C21.9293 122.553 21.5534 122.929 21.1211 123.231C20.9818 123.329 20.8331 123.412 20.6641 123.501C20.8332 123.59 20.9817 123.674 21.1211 123.771C21.5534 124.074 21.9293 124.45 22.2314 124.882C22.3287 125.021 22.4125 125.169 22.501 125.338C22.5896 125.169 22.6742 125.021 22.7715 124.882C23.0736 124.45 23.4496 124.074 23.8818 123.771C24.0211 123.674 24.169 123.59 24.3379 123.501C24.1692 123.412 24.0209 123.329 23.8818 123.231C23.4496 122.929 23.0736 122.553 22.7715 122.121C22.674 121.982 22.5897 121.833 22.501 121.664Z" fill="currentColor"/>
  <path d="M25.5 112C28.5376 112 31 114.462 31 117.5C31 118.839 30.5206 120.065 29.7256 121.019L33.8535 125.146C34.0488 125.342 34.0488 125.658 33.8535 125.854C33.6583 126.049 33.3417 126.049 33.1465 125.854L29.0186 121.726C28.3947 122.246 27.654 122.629 26.8418 122.833C26.6915 122.532 26.4441 122.281 26.124 122.136C26.0044 122.081 25.8999 122.031 25.8066 121.988C28.1489 121.831 30 119.882 30 117.5C30 115.015 27.9853 113 25.5 113C23.0147 113 21 115.015 21 117.5C21 118.196 21.1574 118.855 21.4395 119.443C21.3656 119.518 21.2979 119.599 21.2402 119.688C21.2284 119.707 21.2167 119.726 21.2061 119.745L21.1709 119.809L21.1357 119.879C21.0223 120.129 20.9337 120.315 20.8652 120.46C20.3183 119.605 20 118.59 20 117.5C20 114.462 22.4624 112 25.5 112Z" fill="currentColor"/>
</svg>
