<svg xmlns="http://www.w3.org/2000/svg" width="16" height="16" viewBox="20.0 111.0 16.05 16.05" fill="none">
  <path d="M26.5 115C26.7761 115 27 115.224 27 115.5V117H28.5C28.7761 117 29 117.224 29 117.5C29 117.776 28.7761 118 28.5 118H27V119.5C27 119.776 26.7761 120 26.5 120C26.2239 120 26 119.776 26 119.5V118H24.5C24.2239 118 24 117.776 24 117.5C24 117.224 24.2239 117 24.5 117H26V115.5C26 115.224 26.2239 115 26.5 115Z" fill="currentColor"/>
  <path d="M26.5 112C29.5376 112 32 114.462 32 117.5C32 118.839 31.5206 120.065 30.7256 121.019L34.8535 125.146C35.0488 125.342 35.0488 125.658 34.8535 125.854C34.6583 126.049 34.3417 126.049 34.1465 125.854L30.0186 121.726C29.0648 122.521 27.8387 123 26.5 123C23.4624 123 21 120.538 21 117.5C21 114.462 23.4624 112 26.5 112ZM26.5 113C24.0147 113 22 115.015 22 117.5C22 119.985 24.0147 122 26.5 122C28.9853 122 31 119.985 31 117.5C31 115.015 28.9853 113 26.5 113Z" fill="currentColor"/>
</svg>
