<svg xmlns="http://www.w3.org/2000/svg" width="16" height="16" viewBox="20.0 111.0 16.05 16.05" fill="none">
  <path d="M28.6465 115.646C28.8417 115.451 29.1583 115.451 29.3535 115.646C29.5488 115.842 29.5488 116.158 29.3535 116.354L25.8535 119.854C25.6583 120.049 25.3417 120.049 25.1465 119.854L23.6465 118.354C23.4512 118.158 23.4512 117.842 23.6465 117.646C23.8417 117.451 24.1583 117.451 24.3535 117.646L25.5 118.793L28.6465 115.646Z" fill="currentColor"/>
  <path d="M26.5 112C29.5376 112 32 114.462 32 117.5C32 118.839 31.5206 120.065 30.7256 121.019L34.8535 125.146C35.0488 125.342 35.0488 125.658 34.8535 125.854C34.6583 126.049 34.3417 126.049 34.1465 125.854L30.0186 121.726C29.0648 122.521 27.8387 123 26.5 123C23.4624 123 21 120.538 21 117.5C21 114.462 23.4624 112 26.5 112ZM26.5 113C24.0147 113 22 115.015 22 117.5C22 119.985 24.0147 122 26.5 122C28.9853 122 31 119.985 31 117.5C31 115.015 28.9853 113 26.5 113Z" fill="currentColor"/>
</svg>
