<svg xmlns="http://www.w3.org/2000/svg" width="16" height="16" viewBox="19.39 110.89 16.17 16.17" fill="none">
  <path d="M33.5173 112.255C33.056 111.893 32.4998 111.972 31.9889 112.144C31.4693 112.319 30.8081 112.656 29.9948 113.068L24.3718 115.917C23.3248 116.448 22.4906 116.869 21.9372 117.249C21.4169 117.607 20.9214 118.077 21.0104 118.746C21.0998 119.416 21.7015 119.74 22.2975 119.949C22.9314 120.171 23.8464 120.359 24.9958 120.596L25.8483 120.772C26.3676 120.879 26.4647 120.911 26.5348 120.965C26.605 121.02 26.6592 121.106 26.8923 121.582L27.4108 122.643C27.9169 123.679 28.3197 124.505 28.6872 125.055C29.0341 125.575 29.4916 126.068 30.1569 125.994C30.8225 125.919 31.1585 125.336 31.3815 124.752C31.6178 124.134 31.8278 123.24 32.0915 122.118L33.5593 115.87C33.7678 114.982 33.9385 114.261 33.986 113.714C34.0326 113.177 33.9786 112.618 33.5173 112.255ZM32.3083 113.092C32.7494 112.944 32.859 113.01 32.8991 113.041C32.9389 113.073 33.0302 113.163 32.9899 113.627C32.9502 114.084 32.8019 114.72 32.5856 115.641L31.1178 121.888C30.8467 123.042 30.6542 123.856 30.4479 124.396C30.2287 124.97 30.0809 124.996 30.0456 125C30.0099 125.004 29.8595 125.01 29.5192 124.5C29.1984 124.02 28.8296 123.269 28.3093 122.205L27.7917 121.143C27.6017 120.754 27.4437 120.405 27.1471 120.175C26.8506 119.946 26.474 119.88 26.0505 119.792L25.1979 119.617C24.0168 119.373 23.1826 119.199 22.6276 119.004C22.0367 118.797 22.0062 118.648 22.0016 118.615C21.9972 118.58 21.9882 118.428 22.5036 118.074C22.9881 117.74 23.7471 117.354 24.8229 116.809L30.4469 113.959C31.2905 113.532 31.874 113.239 32.3083 113.092Z" fill="currentColor"/>
</svg>
