<svg xmlns="http://www.w3.org/2000/svg" width="16" height="16" viewBox="20.19 111.0 15.62 15.62" fill="none">
  <path d="M29 115C30.1046 115 31 115.895 31 117C31 118.105 30.1046 119 29 119C27.8954 119 27 118.105 27 117C27 115.895 27.8954 115 29 115ZM29 116C28.4477 116 28 116.448 28 117C28 117.552 28.4477 118 29 118C29.5523 118 30 117.552 30 117C30 116.448 29.5523 116 29 116Z" fill="currentColor"/>
  <path d="M29 112C31.7614 112 34 114.239 34 117C34 118.344 33.2271 119.662 32.3779 120.72C31.6578 121.617 30.831 122.386 30.2188 122.91C29.3929 123.899 28.4654 124.719 27.8848 125.193C27.3669 125.617 26.6331 125.617 26.1152 125.193C25.4975 124.688 24.4847 123.795 23.6221 122.72C22.7729 121.662 22 120.344 22 119C22 117.105 23.054 115.458 24.6074 114.609C25.4553 113.055 27.1045 112 29 112ZM24.0488 116.303C23.3981 117.014 23 117.96 23 119C23 119.989 23.5883 121.079 24.4023 122.094C25.2029 123.091 26.1556 123.935 26.748 124.419C26.8977 124.541 27.1023 124.541 27.252 124.419C27.5646 124.163 27.9755 123.806 28.4131 123.38C28.3086 123.331 28.2083 123.269 28.1152 123.193C27.4975 122.688 26.4847 121.795 25.6221 120.72C24.7729 119.662 24 118.344 24 117C24 116.763 24.017 116.531 24.0488 116.303ZM29 113C26.7909 113 25 114.791 25 117C25 117.989 25.5883 119.079 26.4023 120.094C27.2029 121.091 28.1556 121.935 28.748 122.419C28.8977 122.541 29.1023 122.541 29.252 122.419C29.8444 121.935 30.7971 121.091 31.5977 120.094C32.4117 119.079 33 117.989 33 117C33 114.791 31.2091 113 29 113Z" fill="currentColor"/>
</svg>
