<svg xmlns="http://www.w3.org/2000/svg" width="16" height="16" viewBox="19.97 111.0 16.07 16.07" fill="none">
  <path d="M28 115C29.6569 115 31 116.343 31 118C31 119.657 29.6569 121 28 121C26.3431 121 25 119.657 25 118C25 116.343 26.3431 115 28 115ZM28 116C26.8954 116 26 116.895 26 118C26 119.105 26.8954 120 28 120C29.1046 120 30 119.105 30 118C30 116.895 29.1046 116 28 116Z" fill="currentColor"/>
  <path d="M28 112C31.3159 112 34 114.726 34 118C34 119.332 33.3984 120.66 32.6338 121.822C31.8636 122.993 30.8917 124.048 30.0713 124.844C29.3764 125.518 28.8515 126.066 28 126.066C27.1485 126.066 26.6236 125.518 25.9287 124.844C25.1083 124.048 24.1364 122.993 23.3662 121.822C22.6016 120.66 22 119.332 22 118C22 114.726 24.6841 112 28 112ZM28 113C25.2408 113 23 115.274 23 118C23 119.046 23.4807 120.178 24.2012 121.272C24.9161 122.359 25.8324 123.357 26.625 124.126C27.4167 124.894 27.6355 125.066 28 125.066C28.3645 125.066 28.5833 124.894 29.375 124.126C30.1676 123.357 31.0839 122.359 31.7988 121.272C32.5193 120.178 33 119.046 33 118C33 115.274 30.7592 113 28 113Z" fill="currentColor"/>
</svg>
