<svg xmlns="http://www.w3.org/2000/svg" width="16" height="16" viewBox="20.0 111.0 16.0 16.0" fill="none">
  <path d="M25.5049 112.072C25.8069 112.076 26.0851 112.195 26.4053 112.323L29.9658 113.748C30.3559 113.904 30.4342 113.927 30.5059 113.928C30.5777 113.929 30.6559 113.908 31.0498 113.76L31.6221 113.545C32.2205 113.321 32.7218 113.131 33.127 113.044C33.5428 112.954 33.9723 112.945 34.3545 113.21C34.7366 113.475 34.8784 113.88 34.9404 114.301C35.0009 114.711 35 115.247 35 115.886V122.614C35 122.938 35.0007 123.222 34.9746 123.456C34.9472 123.702 34.8856 123.94 34.7324 124.161C34.5792 124.382 34.3781 124.524 34.1572 124.636C33.9475 124.742 33.6813 124.841 33.3779 124.955L31.4014 125.696C31.0783 125.817 30.7972 125.931 30.4951 125.928C30.1931 125.924 29.915 125.805 29.5947 125.677L26.0342 124.252C25.6441 124.096 25.5658 124.073 25.4941 124.072C25.4224 124.072 25.3441 124.093 24.9502 124.24L24.3779 124.455C23.7795 124.68 23.2783 124.869 22.873 124.956C22.4572 125.046 22.0277 125.055 21.6455 124.79C21.2634 124.525 21.1216 124.12 21.0596 123.699C20.9991 123.289 21 122.753 21 122.114V115.386C21 115.062 20.9993 114.778 21.0254 114.544C21.0529 114.298 21.1144 114.06 21.2676 113.839C21.4208 113.618 21.6219 113.476 21.8428 113.364C22.0525 113.258 22.3187 113.159 22.6221 113.045L24.5986 112.304C24.9216 112.183 25.2028 112.069 25.5049 112.072ZM33.7852 114.032C33.7369 113.999 33.6433 113.956 33.3379 114.022C33.0218 114.09 32.6025 114.246 31.9736 114.482L31.4014 114.696C31.2617 114.749 31.1291 114.797 31 114.838V124.777C31.0159 124.771 31.0327 124.766 31.0498 124.76L33.0264 124.019C33.3505 123.897 33.5555 123.82 33.7041 123.744C33.8415 123.674 33.8863 123.628 33.9111 123.592C33.9359 123.556 33.9634 123.498 33.9805 123.345C33.9989 123.179 34 122.96 34 122.614V115.886C34 115.214 33.9983 114.766 33.9512 114.446C33.9057 114.138 33.8334 114.066 33.7852 114.032ZM26 123.169C26.1306 123.213 26.264 123.267 26.4053 123.323L29.9658 124.748C29.9774 124.753 29.989 124.756 30 124.761V114.83C29.8695 114.786 29.7359 114.733 29.5947 114.677L26.0342 113.252C26.0225 113.247 26.0111 113.243 26 113.238V123.169ZM24.9502 113.24L22.9736 113.982C22.6495 114.103 22.4445 114.181 22.2959 114.256C22.1585 114.326 22.1137 114.372 22.0889 114.408C22.0641 114.444 22.0366 114.502 22.0195 114.655C22.0011 114.821 22 115.04 22 115.386V122.114C22 122.786 22.0017 123.234 22.0488 123.554C22.0943 123.862 22.1666 123.934 22.2148 123.968C22.2631 124.001 22.3566 124.044 22.6621 123.979C22.9782 123.91 23.3975 123.754 24.0264 123.519L24.5986 123.304C24.7384 123.251 24.8708 123.202 25 123.161V113.222C24.984 113.228 24.9674 113.234 24.9502 113.24Z" fill="currentColor"/>
</svg>
