<svg xmlns="http://www.w3.org/2000/svg" width="16" height="16" viewBox="19.62 110.98 16.46 16.46" fill="none">
  <path d="M27.4998 112.414C27.8601 112.414 28.1529 112.566 28.4158 112.767C28.6671 112.958 28.9442 113.237 29.2674 113.561L33.9393 118.232C34.2624 118.556 34.5414 118.833 34.7332 119.084C34.9338 119.347 35.0857 119.64 35.0857 120C35.0857 120.36 34.9337 120.653 34.7332 120.916C34.5414 121.167 34.2624 121.444 33.9393 121.768L32.2498 123.457C32.0637 123.638 31.8825 123.794 31.66 123.886C31.363 124.009 31.0396 123.999 30.6717 123.999L30.3289 124C29.8794 124 29.793 124.009 29.7225 124.038C29.6521 124.067 29.5847 124.122 29.2674 124.439C28.9442 124.763 28.6671 125.042 28.4158 125.233C28.1529 125.434 27.8601 125.586 27.4998 125.586C27.1397 125.586 26.8475 125.434 26.5848 125.233C26.4864 125.158 26.3847 125.069 26.2772 124.97L25.5613 125.615C25.544 125.631 25.3557 125.819 25.1014 125.917C24.8472 126.014 24.5818 126 24.5584 126H23.6063C23.0907 126 22.5936 126.002 22.2186 125.95C21.899 125.906 21.1811 125.764 20.9022 125.037C20.6236 124.311 21.0613 123.725 21.2693 123.479C21.5134 123.189 21.8842 122.859 22.2674 122.514L23.0818 121.779C22.9613 121.651 22.8544 121.53 22.7664 121.415C22.5661 121.152 22.4139 120.86 22.4139 120.5C22.4139 120.14 22.5659 119.847 22.7664 119.584C22.9582 119.333 23.2372 119.056 23.5604 118.732C23.8778 118.415 23.9325 118.348 23.9617 118.277C23.9909 118.207 23.9998 118.121 23.9998 117.672L24.0008 116.328C24.0008 115.96 23.9911 115.637 24.1141 115.34C24.2371 115.043 24.4721 114.821 24.7322 114.561L25.7322 113.561C26.0555 113.237 26.3334 112.958 26.5848 112.767C26.8475 112.566 27.1397 112.414 27.4998 112.414ZM22.9363 123.257L22.4031 123.743C21.9503 124.171 21.7439 124.438 21.8357 124.679C21.9282 124.919 22.2605 124.98 22.8836 124.995L23.6063 125H24.5584C24.6524 125 24.7 125 24.743 124.983C24.7644 124.975 24.7846 124.963 24.8074 124.945L24.8924 124.872L25.5613 124.269L23.785 122.492L22.9363 123.257ZM24.9998 117.672C24.9998 118.039 25.0083 118.362 24.8856 118.659C24.7625 118.956 24.5276 119.179 24.2674 119.439C23.9245 119.782 23.7038 120.005 23.5623 120.19C23.4297 120.364 23.4139 120.446 23.4139 120.5C23.4139 120.554 23.4297 120.636 23.5623 120.81C23.7038 120.995 23.9245 121.218 24.2674 121.561L26.4393 123.732C26.7821 124.075 27.0049 124.296 27.1902 124.438C27.364 124.57 27.446 124.586 27.4998 124.586C27.5536 124.586 27.6354 124.57 27.8094 124.438C27.9947 124.296 28.2175 124.075 28.5604 123.732C28.8205 123.472 29.0436 123.237 29.3406 123.114C29.6376 122.991 29.9611 123 30.3289 123H30.6717C31.0856 123 31.1904 122.991 31.2596 122.967L24.9998 116.707V117.672ZM27.4998 113.414C27.446 113.414 27.364 113.43 27.1902 113.562C27.0049 113.704 26.7821 113.925 26.4393 114.268L25.4393 115.268C25.3386 115.368 25.2661 115.445 25.2107 115.504L31.9998 122.293L33.2322 121.061C33.5754 120.717 33.7967 120.495 33.9383 120.31C34.0709 120.136 34.0857 120.054 34.0857 120C34.0857 119.946 34.0707 119.865 33.9383 119.691C33.7968 119.506 33.5755 119.283 33.2322 118.939L28.5604 114.268C28.2175 113.925 27.9947 113.704 27.8094 113.562C27.6354 113.43 27.5536 113.414 27.4998 113.414Z" fill="currentColor"/>
</svg>
