<svg xmlns="http://www.w3.org/2000/svg" width="16" height="16" viewBox="20.0 111.0 16.0 16.0" fill="none">
  <path d="M31.0789 112C31.5569 112 31.9545 112 32.2791 112.034C32.6151 112.07 32.9183 112.147 33.1991 112.328C33.4804 112.51 33.6737 112.755 33.8407 113.047C34.0014 113.327 34.1575 113.687 34.3455 114.118L34.662 114.844C34.7586 115.065 34.8511 115.273 34.912 115.497C34.976 115.733 35.0024 115.973 34.9989 116.276C34.9958 116.546 34.9868 116.731 34.9637 116.872C34.9362 117.04 34.8891 117.141 34.8514 117.222C34.6556 117.643 34.3612 118.01 33.9998 118.301V120.5C33.9998 121.664 34.0012 122.588 33.9041 123.31C33.8052 124.046 33.5954 124.647 33.1209 125.121C32.6464 125.596 32.0456 125.805 31.3094 125.904C30.6862 125.988 29.9127 125.998 28.9637 125.999C28.957 125.999 28.9504 126 28.9442 126H27.0555C27.049 126 27.0421 125.999 27.035 125.999C26.0865 125.998 25.3132 125.988 24.6903 125.904C23.9541 125.805 23.3532 125.596 22.8788 125.121C22.4043 124.647 22.1945 124.046 22.0955 123.31C21.9985 122.588 21.9998 121.664 21.9998 120.5V118.319C21.635 118.025 21.3391 117.65 21.1444 117.22C21.1066 117.136 21.0611 117.034 21.034 116.866C21.011 116.723 21.0025 116.539 21.0008 116.271C20.9989 115.971 21.027 115.733 21.0916 115.498C21.1531 115.275 21.2449 115.066 21.3426 114.843L21.66 114.117L21.9227 113.525C22.0053 113.347 22.0846 113.187 22.1649 113.047C22.3319 112.756 22.5252 112.51 22.8065 112.328C23.0872 112.147 23.3905 112.07 23.7264 112.034C24.0509 112 24.448 112 24.9256 112H31.0789ZM27.9998 121C27.4476 121 26.9998 121.448 26.9998 122V124.998C27.1594 124.998 27.3259 125 27.4998 125H28.4998C28.6737 125 28.8403 124.998 28.9998 124.998V122C28.9998 121.448 28.5521 121 27.9998 121ZM29.9442 118.073C29.5675 118.524 28.9391 119 28.0018 119C27.0625 119 26.4327 118.522 26.0555 118.07C26.0348 118.046 26.0162 118.02 25.9969 117.995C25.9751 118.022 25.9541 118.052 25.9305 118.079C25.5402 118.533 24.8939 119 23.9286 119C23.6049 119 23.293 118.949 22.9998 118.856V120.5C22.9998 121.693 23.0008 122.537 23.0868 123.177C23.1708 123.802 23.3281 124.156 23.5858 124.414C23.8435 124.672 24.1979 124.829 24.8231 124.913C25.1542 124.958 25.5402 124.979 26.0008 124.989C26.0007 124.973 25.9998 124.958 25.9998 124.944V122C25.9998 120.895 26.8953 120 27.9998 120C29.1044 120 29.9998 120.895 29.9998 122V124.944C29.9998 124.958 29.998 124.973 29.9979 124.989C30.459 124.979 30.8453 124.958 31.1766 124.913C31.8018 124.829 32.1562 124.672 32.4139 124.414C32.6716 124.156 32.8289 123.802 32.9129 123.177C32.9989 122.537 32.9998 121.693 32.9998 120.5V118.841C32.6869 118.943 32.3532 119 32.0067 119C31.0923 119 30.4635 118.518 30.0838 118.075C30.0584 118.046 30.0351 118.015 30.0116 117.985C29.9893 118.014 29.9682 118.044 29.9442 118.073ZM24.2889 113.004C24.1104 113.008 23.9616 113.015 23.8319 113.028C23.5839 113.055 23.4511 113.102 23.3495 113.168C23.2486 113.233 23.154 113.333 23.033 113.544C22.9694 113.655 22.9045 113.786 22.8309 113.945L22.576 114.518L22.2586 115.243C22.154 115.483 22.0942 115.623 22.0555 115.764C22.0201 115.893 21.9994 116.036 22.0008 116.266C22.0025 116.529 22.0115 116.646 22.0213 116.707C22.0271 116.743 22.0298 116.749 22.0565 116.808C22.3729 117.507 23.0896 118 23.9286 118C24.5305 118 24.9189 117.721 25.1717 117.427C25.4112 117.148 25.5157 116.868 25.5252 116.842L25.5565 116.769C25.6415 116.606 25.8117 116.5 25.9998 116.5C26.2142 116.5 26.4048 116.637 26.4735 116.84L26.4745 116.844C26.4767 116.85 26.481 116.861 26.4872 116.876C26.4995 116.906 26.52 116.953 26.5487 117.01C26.6068 117.125 26.6969 117.279 26.8231 117.43C27.0725 117.728 27.4439 118 28.0018 118C28.5584 118 28.9284 117.73 29.1766 117.433C29.4117 117.151 29.5162 116.867 29.5252 116.842L29.5565 116.77C29.6399 116.609 29.8051 116.504 29.9901 116.5C30.2008 116.496 30.3913 116.625 30.4666 116.821L30.4696 116.827C30.4722 116.834 30.4764 116.845 30.4832 116.86C30.4972 116.892 30.5203 116.939 30.5516 116.997C30.6149 117.115 30.7108 117.271 30.8426 117.425C31.1065 117.732 31.4815 118 32.0067 118C32.8786 118 33.6208 117.498 33.9452 116.8C33.9702 116.746 33.971 116.743 33.9764 116.71C33.9863 116.649 33.9958 116.531 33.9989 116.265C34.0015 116.032 33.9809 115.888 33.9461 115.76C33.9082 115.62 33.8498 115.482 33.7459 115.244L33.4295 114.519C33.2328 114.068 33.0999 113.766 32.9725 113.544C32.8516 113.333 32.7568 113.233 32.6561 113.168C32.5545 113.102 32.4217 113.055 32.1737 113.028C31.9139 113.001 31.5777 113 31.0789 113H24.9256L24.2889 113.004Z" fill="currentColor"/>
</svg>
