<svg xmlns="http://www.w3.org/2000/svg" width="16" height="16" viewBox="20.0 110.97 16.0 16.0" fill="none">
  <path d="M29.0986 111.966C29.754 111.966 30.3838 112.222 30.8535 112.679C31.1252 112.943 31.3301 113.268 31.4521 113.627C31.5742 113.986 31.6099 114.369 31.5557 114.744C31.9358 114.69 32.3235 114.723 32.6885 114.843C33.0534 114.962 33.3864 115.163 33.6611 115.432L33.6895 115.461C33.9195 115.685 34.1027 115.952 34.2275 116.248C34.3523 116.543 34.4169 116.861 34.417 117.182C34.417 117.502 34.3524 117.821 34.2275 118.116C34.1027 118.412 33.9194 118.68 33.6895 118.903L28.6113 123.883C28.596 123.898 28.5835 123.916 28.5752 123.936C28.567 123.955 28.5625 123.976 28.5625 123.997C28.5625 124.018 28.5669 124.04 28.5752 124.06C28.5835 124.079 28.596 124.097 28.6113 124.112L29.6543 125.135C29.7003 125.18 29.7367 125.234 29.7617 125.293C29.7866 125.352 29.7998 125.415 29.7998 125.479C29.7998 125.544 29.7867 125.607 29.7617 125.666C29.7368 125.725 29.7003 125.779 29.6543 125.823C29.5604 125.915 29.4347 125.966 29.3037 125.966C29.1727 125.966 29.0461 125.915 28.9521 125.823L27.9092 124.801C27.8019 124.696 27.7165 124.571 27.6582 124.434C27.6 124.296 27.5704 124.148 27.5703 123.998C27.5703 123.848 27.5999 123.699 27.6582 123.562C27.7165 123.424 27.8018 123.299 27.9092 123.194L32.9883 118.214C33.1261 118.08 33.2357 117.919 33.3105 117.742C33.3854 117.565 33.4238 117.374 33.4238 117.182C33.4238 116.989 33.3854 116.798 33.3105 116.621C33.2357 116.444 33.1261 116.284 32.9883 116.149L32.959 116.12C32.6775 115.846 32.3001 115.693 31.9072 115.692C31.5144 115.692 31.1365 115.845 30.8545 116.118L26.6709 120.222L26.6133 120.279C26.5193 120.371 26.3929 120.422 26.2617 120.422C26.1305 120.422 26.0041 120.371 25.9102 120.279C25.8643 120.235 25.8276 120.181 25.8027 120.122C25.7778 120.063 25.7657 120 25.7656 119.936C25.7656 119.872 25.7779 119.808 25.8027 119.749C25.8277 119.69 25.8642 119.636 25.9102 119.591L30.1533 115.431C30.2909 115.296 30.4001 115.135 30.4746 114.958C30.5491 114.781 30.5871 114.591 30.5869 114.398C30.5868 114.206 30.5484 114.016 30.4736 113.839C30.3988 113.662 30.2891 113.501 30.1514 113.367C29.8696 113.093 29.4919 112.939 29.0986 112.939C28.7054 112.939 28.3277 113.093 28.0459 113.367L22.4307 118.874C22.3367 118.965 22.2101 119.017 22.0791 119.017C21.9483 119.016 21.8224 118.965 21.7285 118.874C21.6826 118.829 21.6461 118.776 21.6211 118.717C21.5961 118.658 21.583 118.593 21.583 118.529C21.583 118.465 21.5962 118.402 21.6211 118.343C21.646 118.284 21.6826 118.23 21.7285 118.186L27.3438 112.679C27.8135 112.222 28.4432 111.966 29.0986 111.966Z" fill="currentColor"/>
  <path d="M29.0986 113.912C29.2296 113.912 29.3553 113.963 29.4492 114.055C29.4952 114.099 29.5326 114.153 29.5576 114.212C29.5826 114.271 29.5947 114.335 29.5947 114.399C29.5947 114.463 29.5825 114.527 29.5576 114.586C29.5326 114.645 29.4952 114.698 29.4492 114.743L25.2959 118.816C25.1582 118.951 25.0484 119.111 24.9736 119.288C24.8988 119.465 24.8604 119.656 24.8604 119.849C24.8604 120.041 24.8988 120.232 24.9736 120.409C25.0484 120.586 25.1581 120.747 25.2959 120.881C25.5777 121.155 25.9563 121.309 26.3496 121.309C26.7428 121.308 27.1206 121.155 27.4023 120.881L31.5547 116.809C31.6487 116.717 31.7751 116.665 31.9062 116.665C32.0374 116.665 32.1629 116.717 32.2568 116.809C32.3028 116.853 32.3403 116.907 32.3652 116.966C32.3901 117.025 32.4023 117.088 32.4023 117.152C32.4023 117.216 32.3901 117.28 32.3652 117.339C32.3403 117.398 32.3028 117.451 32.2568 117.496L28.1035 121.569C27.6339 122.026 27.0047 122.282 26.3496 122.282C25.6943 122.282 25.0645 122.026 24.5947 121.569C24.3647 121.346 24.1815 121.078 24.0566 120.782C23.9319 120.487 23.8682 120.169 23.8682 119.849C23.8682 119.528 23.9318 119.21 24.0566 118.914C24.1815 118.619 24.3648 118.352 24.5947 118.128L28.7471 114.055C28.8411 113.963 28.9675 113.912 29.0986 113.912Z" fill="currentColor"/>
</svg>
