<svg xmlns="http://www.w3.org/2000/svg" width="16" height="16" viewBox="20.36 111.86 14.29 14.29" fill="none">
  <path d="M30.1064 113.251C30.753 112.976 31.3864 112.856 31.9766 113.186C32.5665 113.516 32.7953 114.119 32.8984 114.814C33.001 115.506 33 116.442 33 117.611V120.39C33 121.559 33.0011 122.495 32.8984 123.187C32.7953 123.882 32.5665 124.485 31.9766 124.815C31.3865 125.145 30.7529 125.025 30.1064 124.75C29.4626 124.475 28.6667 123.984 27.6699 123.373L25.4053 121.984C24.4867 121.42 23.7478 120.968 23.2461 120.547C23.1592 120.474 23.0777 120.398 23 120.322V124.501C22.9998 124.776 22.776 125.001 22.5 125.001C22.224 125.001 22.0002 124.776 22 124.501V113.501C22 113.224 22.2239 113.001 22.5 113.001C22.7761 113.001 23 113.224 23 113.501V117.678C23.0776 117.602 23.1594 117.526 23.2461 117.454C23.7478 117.033 24.4867 116.581 25.4053 116.017L27.6699 114.628C28.6667 114.017 29.4626 113.526 30.1064 113.251ZM31.4883 114.058C31.3111 113.959 31.0552 113.934 30.499 114.171C29.9397 114.41 29.218 114.851 28.1924 115.48L25.9287 116.87C24.9816 117.451 24.3199 117.858 23.8887 118.219C23.4631 118.576 23.3682 118.803 23.3682 119.001C23.3683 119.198 23.4632 119.425 23.8887 119.782C24.3199 120.143 24.9817 120.55 25.9287 121.131L28.1924 122.521C29.218 123.15 29.9397 123.591 30.499 123.83C31.055 124.067 31.3111 124.042 31.4883 123.943C31.6654 123.844 31.8204 123.638 31.9092 123.04C31.9983 122.438 32 121.593 32 120.39V117.611C32 116.408 31.9982 115.563 31.9092 114.961C31.8205 114.363 31.6654 114.157 31.4883 114.058Z" fill="currentColor"/>
</svg>
