<svg xmlns="http://www.w3.org/2000/svg" width="16" height="16" viewBox="21.35 111.86 14.29 14.29" fill="none">
  <path d="M24.0234 113.186C24.6136 112.856 25.247 112.976 25.8936 113.251C26.5374 113.526 27.3333 114.017 28.3301 114.628L30.5947 116.017C31.5133 116.581 32.2522 117.033 32.7539 117.454C32.8406 117.526 32.9224 117.602 33 117.678V113.501C33 113.224 33.2239 113.001 33.5 113.001C33.7761 113.001 34 113.224 34 113.501V124.501C33.9998 124.776 33.776 125.001 33.5 125.001C33.224 125.001 33.0002 124.776 33 124.501V120.322C32.9223 120.398 32.8408 120.474 32.7539 120.547C32.2522 120.968 31.5133 121.42 30.5947 121.984L28.3301 123.373C27.3333 123.984 26.5374 124.475 25.8936 124.75C25.2471 125.025 24.6135 125.145 24.0234 124.815C23.4335 124.485 23.2047 123.882 23.1016 123.187C22.9989 122.495 23 121.559 23 120.39V117.611C23 116.442 22.999 115.506 23.1016 114.814C23.2047 114.119 23.4335 113.516 24.0234 113.186ZM25.501 114.171C24.9448 113.934 24.6889 113.959 24.5117 114.058C24.3346 114.157 24.1795 114.363 24.0908 114.961C24.0018 115.563 24 116.408 24 117.611V120.39C24 121.593 24.0017 122.438 24.0908 123.04C24.1796 123.638 24.3346 123.844 24.5117 123.943C24.6889 124.042 24.945 124.067 25.501 123.83C26.0603 123.591 26.782 123.15 27.8076 122.521L30.0713 121.131C31.0183 120.55 31.6801 120.143 32.1113 119.782C32.5368 119.425 32.6317 119.198 32.6318 119.001C32.6318 118.803 32.5369 118.576 32.1113 118.219C31.6801 117.858 31.0184 117.451 30.0713 116.87L27.8076 115.48C26.782 114.851 26.0603 114.41 25.501 114.171Z" fill="currentColor"/>
</svg>
