<svg xmlns="http://www.w3.org/2000/svg" width="16" height="16" viewBox="20.0 111.5 16.0 16.0" fill="none">
  <path d="M31.0859 113C32.143 113 32.9999 113.857 33 114.914V116.19L33.3818 116.382C34.3735 116.878 35 117.891 35 119C35 120.109 34.3735 121.122 33.3818 121.618L33 121.809V122.938C32.9999 124.077 32.0766 125 30.9375 125C30.3593 125 29.8077 124.757 29.417 124.331L27.2803 122H26.7217L27.4199 123.861C27.4533 123.95 27.4811 124.024 27.499 124.087C27.76 124.998 27.1213 125.919 26.1768 125.995C26.1118 126 26.0324 126 25.9375 126C25.8745 126 25.825 126 25.7783 125.998C25.1134 125.965 24.5254 125.556 24.2607 124.945C24.2422 124.902 24.2242 124.857 24.2021 124.798L23.1025 121.863C21.8841 121.482 21 120.344 21 119C21 117.343 22.3432 116 24 116H27.293L29.7324 113.561C30.0914 113.202 30.5783 113 31.0859 113ZM25.1387 124.446C25.1644 124.515 25.1715 124.533 25.1777 124.548C25.2912 124.81 25.5441 124.985 25.8291 124.999C25.8448 125 25.8643 125 25.9375 125C26.0544 125 26.0821 124.999 26.0967 124.998C26.4116 124.973 26.625 124.666 26.5381 124.362C26.5341 124.348 26.5245 124.323 26.4834 124.213L25.6533 122H24.2217L25.1387 124.446ZM31.0859 114C30.8435 114 30.6109 114.096 30.4395 114.268L28 116.707V121.306L30.1543 123.655C30.3556 123.875 30.6397 124 30.9375 124C31.5243 124 31.9999 123.524 32 122.938V114.914C31.9999 114.409 31.5907 114 31.0859 114ZM24 117C22.8954 117 22 117.895 22 119C22 120.105 22.8954 121 24 121H27V117H24ZM33 120.688C33.6145 120.35 34 119.705 34 119C34 118.295 33.6147 117.649 33 117.312V120.688Z" fill="currentColor"/>
</svg>
