<svg xmlns="http://www.w3.org/2000/svg" width="16" height="16" viewBox="20.0 111.0 16.01 16.01" fill="none">
  <path d="M28 112C31.866 112 35 115.134 35 119V119.5C35 120.881 33.8807 122 32.5 122C31.672 122 30.9403 121.596 30.4854 120.976C29.8804 122.089 28.7932 122.857 27.5 122.857C25.5064 122.857 24.0001 121.034 24 118.929C24 116.824 25.5064 115 27.5 115C28.4978 115 29.3741 115.456 30 116.177V115.5C30 115.224 30.2239 115 30.5 115C30.7761 115 31 115.224 31 115.5V119.5C31 120.328 31.6716 121 32.5 121C33.3284 121 34 120.328 34 119.5V119C34 115.686 31.3137 113 28 113C24.6863 113 22 115.686 22 119C22 122.314 24.6863 125 28 125C28.4868 125 29.6672 124.991 30.6113 124.361C30.841 124.208 31.1514 124.271 31.3047 124.5C31.4579 124.73 31.3957 125.04 31.166 125.193C29.9435 126.008 28.4762 126 28 126C24.134 126 21 122.866 21 119C21 115.134 24.134 112 28 112ZM27.5 116C26.1799 116 25 117.247 25 118.929C25.0001 120.611 26.18 121.857 27.5 121.857C28.82 121.857 29.9999 120.611 30 118.929C30 117.247 28.8201 116 27.5 116Z" fill="currentColor"/>
</svg>
