<svg xmlns="http://www.w3.org/2000/svg" width="16" height="16" viewBox="21.0 112.48 14.05 14.05" fill="none">
  <path d="M30.5 123C30.7761 123 31 123.224 31 123.5C31 123.776 30.7761 124 30.5 124H22.5C22.2239 124 22 123.776 22 123.5C22 123.224 22.2239 123 22.5 123H30.5Z" fill="currentColor"/>
  <path d="M33.1465 116.146C33.3417 115.951 33.6583 115.951 33.8535 116.146C34.0488 116.342 34.0488 116.658 33.8535 116.854L31.207 119.5L33.8535 122.146C34.0488 122.342 34.0488 122.658 33.8535 122.854C33.6583 123.049 33.3417 123.049 33.1465 122.854L30.1465 119.854C29.9512 119.658 29.9512 119.342 30.1465 119.146L33.1465 116.146Z" fill="currentColor"/>
  <path d="M27.5 119C27.7761 119 28 119.224 28 119.5C28 119.776 27.7761 120 27.5 120H22.5C22.2239 120 22 119.776 22 119.5C22 119.224 22.2239 119 22.5 119H27.5Z" fill="currentColor"/>
  <path d="M30.5 115C30.7761 115 31 115.224 31 115.5C31 115.776 30.7761 116 30.5 116H22.5C22.2239 116 22 115.776 22 115.5C22 115.224 22.2239 115 22.5 115H30.5Z" fill="currentColor"/>
</svg>
