<svg xmlns="http://www.w3.org/2000/svg" width="16" height="16" viewBox="21.5 110.0 17.0 17.0" fill="none">
  <path d="M24.5 118C24.7761 118 25 118.224 25 118.5V119.5C25 121.433 26.567 123 28.5 123C30.433 123 32 121.433 32 119.5V118.915C32.1589 118.971 32.328 119.003 32.502 119.003C32.6742 119.003 32.8428 118.972 33 118.917V119.5C33 121.816 31.2499 123.722 29 123.971V125H30.5C30.7761 125 31 125.224 31 125.5C31 125.776 30.7761 126 30.5 126H26.5C26.2239 126 26 125.776 26 125.5C26 125.224 26.2239 125 26.5 125H28V123.971C25.7501 123.722 24 121.816 24 119.5V118.5C24 118.224 24.2239 118 24.5 118Z" fill="currentColor"/>
  <path d="M28.499 112.001C29.0826 112.001 29.6184 112.202 30.0439 112.537C30.0204 112.555 29.9987 112.575 29.9746 112.592C29.8937 112.648 29.8048 112.7 29.6436 112.78L28.9893 113.084C28.8355 113.031 28.6708 113.001 28.499 113.001C27.671 113.002 27.0001 113.673 27 114.501V119.5C27 120.328 27.6716 121 28.5 121C29.3284 121 30 120.328 30 119.5V116.431C30.2292 116.595 30.4301 116.797 30.5918 117.028C30.6881 117.166 30.7696 117.329 31 117.831V119.5C31 120.881 29.8807 122 28.5 122C27.1193 122 26 120.881 26 119.5V114.501C26.0001 113.121 27.1189 112.002 28.499 112.001Z" fill="currentColor"/>
  <path d="M32.502 111C32.6978 111 32.876 111.115 32.957 111.293C33.2775 111.998 33.4135 112.293 33.5918 112.548C33.8268 112.884 34.1189 113.176 34.4551 113.411C34.7101 113.589 35.0049 113.725 35.71 114.046C35.8885 114.127 36.0029 114.306 36.0029 114.502C36.0027 114.698 35.8883 114.876 35.71 114.957C35.0049 115.278 34.7101 115.414 34.4551 115.592C34.1189 115.827 33.8268 116.119 33.5918 116.455C33.4135 116.71 33.2775 117.005 32.957 117.71C32.876 117.888 32.6978 118.003 32.502 118.003C32.3059 118.003 32.127 117.888 32.0459 117.71C31.7254 117.005 31.5894 116.71 31.4111 116.455C31.1762 116.119 30.884 115.827 30.5479 115.592C30.2928 115.414 29.998 115.278 29.293 114.957C29.1146 114.876 29.0002 114.698 29 114.502C29 114.306 29.1145 114.127 29.293 114.046C29.998 113.725 30.2928 113.589 30.5479 113.411C30.884 113.176 31.1762 112.884 31.4111 112.548C31.5894 112.293 31.7254 111.998 32.0459 111.293L32.0811 111.229C32.1721 111.088 32.3303 111 32.502 111ZM32.501 112.664C32.4123 112.833 32.3288 112.982 32.2314 113.121C31.9293 113.553 31.5534 113.929 31.1211 114.231C30.9818 114.329 30.8331 114.412 30.6641 114.501C30.8332 114.59 30.9817 114.674 31.1211 114.771C31.5534 115.074 31.9293 115.45 32.2314 115.882C32.3287 116.021 32.4125 116.169 32.501 116.338C32.5896 116.169 32.6742 116.021 32.7715 115.882C33.0736 115.45 33.4496 115.074 33.8818 114.771C34.0211 114.674 34.169 114.59 34.3379 114.501C34.1692 114.412 34.0209 114.329 33.8818 114.231C33.4496 113.929 33.0736 113.553 32.7715 113.121C32.674 112.982 32.5897 112.833 32.501 112.664Z" fill="currentColor"/>
</svg>
