<svg xmlns="http://www.w3.org/2000/svg" width="16" height="16" viewBox="19.95 110.95 16.1 16.1" fill="none">
  <path d="M34.1464 112.146C34.3417 111.951 34.6582 111.951 34.8535 112.146C35.0487 112.342 35.0487 112.658 34.8535 112.853L21.8535 125.853C21.6582 126.049 21.3417 126.049 21.1464 125.853C20.9512 125.658 20.9512 125.342 21.1464 125.146L24.583 121.709C24.2137 121.056 24 120.304 24 119.5V118.5C24 118.224 24.2238 118 24.5 118C24.7761 118 25 118.224 25 118.5V119.5C25 120.025 25.1171 120.521 25.3242 120.968L26.0976 120.194C26.034 119.974 26 119.741 26 119.5V114.501C26.0001 113.121 27.1189 112.002 28.499 112.001C29.88 112 30.9999 113.12 31 114.501V115.293L34.1464 112.146ZM28.499 113.001C27.671 113.001 27.0001 113.673 27 114.501V119.293L30 116.293V114.501C29.9999 113.672 29.3277 113 28.499 113.001Z" fill="currentColor"/>
  <path d="M32.5 118C32.7761 118 33 118.224 33 118.5V119.5C32.9999 121.816 31.2498 123.722 29 123.971V125H30.5C30.7761 125 31 125.224 31 125.5C30.9999 125.776 30.7761 126 30.5 126H26.5C26.2238 126 26 125.776 26 125.5C26 125.224 26.2238 125 26.5 125H28V123.971C27.3243 123.896 26.6942 123.671 26.1425 123.331L26.875 122.599C27.3608 122.854 27.9131 123 28.5 123C30.4329 123 31.9999 121.433 32 119.5V118.5C32 118.224 32.2238 118 32.5 118Z" fill="currentColor"/>
  <path d="M31 119.5C30.9999 120.881 29.8806 122 28.5 122C28.1943 122 27.9025 121.942 27.6318 121.842L28.4755 120.998C28.4837 120.998 28.4918 121 28.5 121C29.3284 121 29.9999 120.328 30 119.5V119.475L31 118.475V119.5Z" fill="currentColor"/>
</svg>
