<svg xmlns="http://www.w3.org/2000/svg" width="16" height="16" viewBox="20.0 110.29 16.0 16.0" fill="none">
  <path d="M28.1765 116.706H34.4045C34.7335 116.706 35.0005 116.973 35.0005 117.302V120.454C35.0005 121.666 34.0185 122.647 32.8075 122.647H32.7805C32.4325 122.647 32.1035 122.566 31.8115 122.422C31.2535 123.698 29.9955 124.588 28.5295 124.588C26.8655 124.588 25.4655 123.44 25.0595 121.882H21.5985C21.2675 121.882 21.0005 121.614 21.0005 121.284V115.304C21.0005 114.974 21.2675 114.706 21.5985 114.706H26.7455C26.6445 114.471 26.5885 114.213 26.5885 113.942C26.5885 112.868 27.4575 112 28.5295 112C29.6015 112 30.4705 112.868 30.4705 113.942C30.4705 115.014 29.6015 115.882 28.5295 115.882C28.4095 115.882 28.2915 115.871 28.1765 115.851V116.706ZM27.0585 113.942C27.0585 113.13 27.7175 112.471 28.5295 112.471C29.3405 112.471 30.0005 113.13 30.0005 113.942C30.0005 114.752 29.3405 115.411 28.5295 115.411C28.4075 115.411 28.2895 115.397 28.1765 115.369V115.304C28.1765 114.974 27.9095 114.706 27.5785 114.706H27.2735C27.1375 114.484 27.0585 114.221 27.0585 113.942ZM34.1765 114.471C34.1765 115.25 33.5445 115.882 32.7645 115.882C31.9855 115.882 31.3525 115.25 31.3525 114.471C31.3525 113.692 31.9855 113.059 32.7645 113.059C33.5445 113.059 34.1765 113.692 34.1765 114.471ZM32.7645 113.529C33.2835 113.529 33.7065 113.951 33.7065 114.471C33.7065 114.989 33.2835 115.411 32.7645 115.411C32.2465 115.411 31.8235 114.989 31.8235 114.471C31.8235 113.951 32.2465 113.529 32.7645 113.529ZM24.1905 120.255V116.999H23.0005V116.338H26.1765V116.999H24.9815V120.255H24.1905ZM34.5295 120.454C34.5295 121.404 33.7565 122.177 32.8075 122.177H32.7805C32.4895 122.177 32.2135 122.104 31.9735 121.975C32.0675 121.65 32.1175 121.306 32.1175 120.95V117.313C32.1175 117.266 32.1125 117.22 32.1025 117.177H34.4045C34.4735 117.177 34.5295 117.233 34.5295 117.302V120.454ZM25.5495 121.882C25.9425 123.175 27.1295 124.117 28.5295 124.117C29.8245 124.117 30.9385 123.31 31.4095 122.164C31.4735 122.007 31.5255 121.842 31.5655 121.673C31.6195 121.441 31.6475 121.198 31.6475 120.95V117.313C31.6475 117.237 31.5895 117.177 31.5195 117.177H28.1765V121.284C28.1765 121.614 27.9095 121.882 27.5785 121.882H25.5495Z" fill="currentColor" fill-rule="evenodd" clip-rule="evenodd"/>
</svg>
