<svg xmlns="http://www.w3.org/2000/svg" width="16" height="16" viewBox="20.5 111.0 16.0 16.0" fill="none">
  <path d="M32.5 118C32.7761 118 33 118.224 33 118.5V119.5C33 121.816 31.2499 123.722 29 123.971V125H30.5C30.7761 125 31 125.224 31 125.5C31 125.776 30.7761 126 30.5 126H26.5C26.2239 126 26 125.776 26 125.5C26 125.224 26.2239 125 26.5 125H28V123.971C25.7501 123.722 24 121.816 24 119.5V118.5C24 118.224 24.2239 118 24.5 118C24.7761 118 25 118.224 25 118.5V119.5C25 121.433 26.567 123 28.5 123C30.433 123 32 121.433 32 119.5V118.5C32 118.224 32.2239 118 32.5 118Z" fill="currentColor"/>
  <path d="M28.499 112.001C29.88 112 30.9999 113.12 31 114.501V119.5C31 120.881 29.8807 122 28.5 122C27.1193 122 26 120.881 26 119.5V114.501C26.0001 113.121 27.1189 112.002 28.499 112.001ZM28.499 113.001C27.671 113.002 27.0001 113.673 27 114.501V119.5C27 120.328 27.6716 121 28.5 121C29.3284 121 30 120.328 30 119.5V114.501C29.9999 113.672 29.3277 113 28.499 113.001Z" fill="currentColor"/>
</svg>
