<svg xmlns="http://www.w3.org/2000/svg" width="16" height="16" viewBox="21.0 112.0 14.0 14.0" fill="none">
  <path d="M30 118C30.9428 118 31.4141 118 31.707 118.293C31.9999 118.586 32 119.057 32 120V121C32 121.943 31.9999 122.414 31.707 122.707C31.4141 123 30.9428 123 30 123H29C28.0572 123 27.5859 123 27.293 122.707C27.0001 122.414 27 121.943 27 121V120C27 119.057 27.0001 118.586 27.293 118.293C27.5859 118 28.0572 118 29 118H30Z" fill="currentColor"/>
  <path d="M29.5 113C30.4285 113 31.1751 112.999 31.7607 113.078C32.3608 113.159 32.8663 113.331 33.2676 113.732C33.6689 114.134 33.8412 114.639 33.9219 115.239C34.0006 115.825 34 116.572 34 117.5V120.5C34 121.428 34.0006 122.175 33.9219 122.761C33.8412 123.361 33.6689 123.866 33.2676 124.268C32.8663 124.669 32.3608 124.841 31.7607 124.922C31.1751 125.001 30.4285 125 29.5 125H26.5C25.5715 125 24.8249 125.001 24.2393 124.922C23.6392 124.841 23.1337 124.669 22.7324 124.268C22.3311 123.866 22.1588 123.361 22.0781 122.761C21.9994 122.175 22 121.428 22 120.5V117.5C22 116.572 21.9994 115.825 22.0781 115.239C22.1588 114.639 22.3311 114.134 22.7324 113.732C23.1337 113.331 23.6392 113.159 24.2393 113.078C24.8249 112.999 25.5715 113 26.5 113H29.5ZM26.5 114C25.5431 114 24.8756 114.001 24.3721 114.068C23.8829 114.134 23.624 114.255 23.4395 114.439C23.2549 114.624 23.1341 114.883 23.0684 115.372C23.0007 115.876 23 116.543 23 117.5V120.5C23 121.457 23.0007 122.124 23.0684 122.628C23.1341 123.117 23.2549 123.376 23.4395 123.561C23.624 123.745 23.8829 123.866 24.3721 123.932C24.8756 123.999 25.5431 124 26.5 124H29.5C30.4569 124 31.1244 123.999 31.6279 123.932C32.1171 123.866 32.376 123.745 32.5605 123.561C32.7451 123.376 32.8659 123.117 32.9316 122.628C32.9993 122.124 33 121.457 33 120.5V117.5C33 116.543 32.9993 115.876 32.9316 115.372C32.8659 114.883 32.7451 114.624 32.5605 114.439C32.376 114.255 32.1171 114.134 31.6279 114.068C31.1244 114.001 30.4569 114 29.5 114H26.5Z" fill="currentColor"/>
</svg>
