<svg xmlns="http://www.w3.org/2000/svg" width="16" height="16" viewBox="20.0 110.5 16.0 16.0" fill="none">
  <path d="M29.123 114.388C29.4081 114.426 29.5794 114.639 29.6602 114.756C29.7615 114.902 29.8632 115.109 29.9668 115.316L30.8086 117H32.5C32.7761 117 33 117.224 33 117.5C33 117.776 32.7761 118 32.5 118H30.8086C30.7438 118 30.6576 118.001 30.5811 117.993C30.4928 117.984 30.3767 117.96 30.2598 117.888C30.1433 117.816 30.071 117.723 30.0234 117.648C29.9821 117.583 29.9441 117.505 29.915 117.447L29.0723 115.764L27.8281 119.185C27.7562 119.382 27.6844 119.585 27.6045 119.733C27.528 119.876 27.3577 120.135 27.0166 120.168C26.6752 120.201 26.4577 119.979 26.3555 119.854C26.2487 119.723 26.1395 119.538 26.0312 119.357L25.2168 118H23.5C23.2239 118 23 117.776 23 117.5C23 117.224 23.2239 117 23.5 117H25.2168C25.2763 117 25.3563 117 25.4277 117.007C25.4893 117.013 25.565 117.025 25.6455 117.058L25.7275 117.098L25.8037 117.147C25.8731 117.2 25.9231 117.258 25.96 117.308C26.0026 117.365 26.0436 117.434 26.0742 117.485L26.8887 118.843L28.1328 115.422C28.212 115.204 28.2892 114.987 28.373 114.83C28.4494 114.687 28.6292 114.404 28.9932 114.383L29.123 114.388Z" fill="currentColor"/>
  <path d="M30.5 112C31.4285 112 32.1751 111.999 32.7607 112.078C33.3608 112.159 33.8663 112.331 34.2676 112.732C34.6689 113.134 34.8412 113.639 34.9219 114.239C35.0006 114.825 35 115.572 35 116.5V118.5C35 119.428 35.0006 120.175 34.9219 120.761C34.8412 121.361 34.6689 121.866 34.2676 122.268C33.8663 122.669 33.3608 122.841 32.7607 122.922C32.1751 123.001 31.4285 123 30.5 123H30.0078C30.0485 123.449 30.3157 123.849 30.7236 124.053C30.7339 124.058 30.7432 124.065 30.7529 124.07C30.7648 124.077 30.7769 124.084 30.7881 124.092C30.8056 124.104 30.8213 124.118 30.8369 124.133C30.8422 124.138 30.8485 124.141 30.8535 124.146L30.8594 124.152C30.8788 124.172 30.8965 124.194 30.9121 124.217C30.917 124.224 30.9203 124.232 30.9248 124.239C30.9362 124.258 30.9472 124.277 30.9561 124.297C30.9608 124.308 30.9637 124.319 30.9678 124.33C30.9739 124.347 30.9801 124.363 30.9844 124.381C30.9877 124.394 30.99 124.408 30.9922 124.422C30.9951 124.44 30.9962 124.458 30.9971 124.477C30.9974 124.484 31 124.492 31 124.5C31 124.505 30.9982 124.509 30.998 124.514C30.9976 124.532 30.9956 124.549 30.9932 124.567C30.9912 124.582 30.9895 124.596 30.9863 124.61V124.615C30.9821 124.633 30.9748 124.65 30.9688 124.667C30.9507 124.718 30.9251 124.764 30.8926 124.806C30.8823 124.819 30.8719 124.832 30.8604 124.844C30.8519 124.853 30.8431 124.861 30.834 124.869C30.8211 124.881 30.808 124.892 30.7939 124.902C30.782 124.911 30.7696 124.919 30.7568 124.927C30.7445 124.934 30.7318 124.941 30.7188 124.947C30.7056 124.954 30.6924 124.96 30.6787 124.965C30.6615 124.971 30.644 124.977 30.626 124.981C30.6149 124.984 30.6041 124.988 30.5928 124.99C30.5626 124.996 30.5317 125 30.5 125H25.5C25.468 125 25.4368 124.996 25.4062 124.99C25.3949 124.988 25.3841 124.984 25.373 124.981C25.3551 124.977 25.3375 124.971 25.3203 124.965C25.3066 124.96 25.2934 124.954 25.2803 124.947C25.2673 124.941 25.2545 124.934 25.2422 124.927C25.2295 124.919 25.217 124.911 25.2051 124.902C25.1911 124.892 25.1779 124.881 25.165 124.869C25.156 124.861 25.1471 124.853 25.1387 124.844C25.1272 124.832 25.1167 124.819 25.1064 124.806C25.0741 124.764 25.0483 124.718 25.0303 124.667C25.0243 124.65 25.0179 124.633 25.0137 124.615L25.0127 124.61C25.0095 124.596 25.0078 124.582 25.0059 124.567C25.0034 124.549 25.0015 124.532 25.001 124.514C25.0009 124.509 25 124.505 25 124.5C25 124.492 25.0016 124.484 25.002 124.477C25.0028 124.458 25.004 124.44 25.0068 124.422C25.009 124.408 25.0114 124.394 25.0146 124.381C25.0189 124.364 25.0252 124.347 25.0312 124.33C25.0342 124.322 25.0357 124.314 25.0391 124.306L25.0469 124.288C25.0548 124.271 25.0645 124.255 25.0742 124.239C25.0788 124.232 25.0829 124.224 25.0879 124.217C25.1044 124.193 25.1228 124.17 25.1436 124.148C25.1492 124.143 25.1562 124.138 25.1621 124.133C25.1777 124.118 25.1934 124.104 25.2109 124.092C25.2221 124.084 25.2342 124.077 25.2461 124.07C25.2561 124.064 25.2659 124.058 25.2764 124.053C25.6843 123.849 25.9515 123.449 25.9922 123H25.5C24.5715 123 23.8249 123.001 23.2393 122.922C22.6392 122.841 22.1337 122.669 21.7324 122.268C21.3311 121.866 21.1588 121.361 21.0781 120.761C20.9994 120.175 21 119.428 21 118.5V116.5C21 115.572 20.9994 114.825 21.0781 114.239C21.1588 113.639 21.3311 113.134 21.7324 112.732C22.1337 112.331 22.6392 112.159 23.2393 112.078C23.8249 111.999 24.5715 112 25.5 112H30.5ZM26.9961 123C26.9779 123.356 26.8777 123.697 26.71 124H29.29C29.1223 123.697 29.0221 123.356 29.0039 123H26.9961ZM25.5 113C24.5431 113 23.8756 113.001 23.3721 113.068C22.8829 113.134 22.624 113.255 22.4395 113.439C22.2549 113.624 22.1341 113.883 22.0684 114.372C22.0007 114.876 22 115.543 22 116.5V118.5C22 119.457 22.0007 120.124 22.0684 120.628C22.1341 121.117 22.2549 121.376 22.4395 121.561C22.624 121.745 22.8829 121.866 23.3721 121.932C23.8756 121.999 24.5431 122 25.5 122H30.5C31.4569 122 32.1244 121.999 32.6279 121.932C33.1171 121.866 33.376 121.745 33.5605 121.561C33.7451 121.376 33.8659 121.117 33.9316 120.628C33.9993 120.124 34 119.457 34 118.5V116.5C34 115.543 33.9993 114.876 33.9316 114.372C33.8659 113.883 33.7451 113.624 33.5605 113.439C33.376 113.255 33.1171 113.134 32.6279 113.068C32.1244 113.001 31.4569 113 30.5 113H25.5Z" fill="currentColor"/>
</svg>
