<svg xmlns="http://www.w3.org/2000/svg" width="16" height="16" viewBox="21.0 111.0 15.0 15.0" fill="none">
  <path d="M28.5 118.875C28.8452 118.875 29.125 119.155 29.125 119.5C29.125 119.845 28.8452 120.125 28.5 120.125C28.1548 120.125 27.875 119.845 27.875 119.5C27.875 119.155 28.1548 118.875 28.5 118.875Z" fill="currentColor"/>
  <path d="M28.5 114C28.7761 114 29 114.224 29 114.5V117.5C29 117.776 28.7761 118 28.5 118C28.2239 118 28 117.776 28 117.5V114.5C28 114.224 28.2239 114 28.5 114Z" fill="currentColor"/>
  <path d="M30.5 112C31.4285 112 32.1751 111.999 32.7607 112.078C33.3608 112.159 33.8663 112.331 34.2676 112.732C34.6689 113.134 34.8412 113.639 34.9219 114.239C35.0006 114.825 35 115.572 35 116.5V118.5C35 119.428 35.0006 120.175 34.9219 120.761C34.8412 121.361 34.6689 121.866 34.2676 122.268C33.8663 122.669 33.3608 122.841 32.7607 122.922C32.1768 123 31.4327 122.999 30.5078 122.999C30.5482 123.448 30.8154 123.849 31.2236 124.053L31.2227 124.054C31.3867 124.136 31.5 124.304 31.5 124.5C31.5 124.776 31.2761 125 31 125H26C25.7239 125 25.5 124.776 25.5 124.5C25.5 124.304 25.6133 124.136 25.7773 124.054L25.7764 124.053C26.1845 123.849 26.4508 123.448 26.4912 122.999C25.5668 122.999 24.823 123 24.2393 122.922C23.6392 122.841 23.1337 122.669 22.7324 122.268C22.3311 121.866 22.1588 121.361 22.0781 120.761C21.9994 120.175 22 119.428 22 118.5V116.5C22 115.572 21.9994 114.825 22.0781 114.239C22.1588 113.639 22.3311 113.134 22.7324 112.732C23.1337 112.331 23.6392 112.159 24.2393 112.078C24.8249 111.999 25.5715 112 26.5 112H30.5ZM27.4961 123C27.4779 123.356 27.3777 123.697 27.21 124H29.79C29.6223 123.697 29.5221 123.356 29.5039 123H27.4961ZM26.5 113C25.5431 113 24.8756 113.001 24.3721 113.068C23.8829 113.134 23.624 113.255 23.4395 113.439C23.2549 113.624 23.1341 113.883 23.0684 114.372C23.0007 114.876 23 115.543 23 116.5V118.5C23 119.457 23.0007 120.124 23.0684 120.628C23.1341 121.117 23.2549 121.376 23.4395 121.561C23.624 121.745 23.8829 121.866 24.3721 121.932C24.8756 121.999 25.5431 122 26.5 122H30.5C31.4569 122 32.1244 121.999 32.6279 121.932C33.1171 121.866 33.376 121.745 33.5605 121.561C33.7451 121.376 33.8659 121.117 33.9316 120.628C33.9993 120.124 34 119.457 34 118.5V116.5C34 115.543 33.9993 114.876 33.9316 114.372C33.8659 113.883 33.7451 113.624 33.5605 113.439C33.376 113.255 33.1171 113.134 32.6279 113.068C32.1244 113.001 31.4569 113 30.5 113H26.5Z" fill="currentColor"/>
</svg>
