<svg xmlns="http://www.w3.org/2000/svg" width="16" height="16" viewBox="20.0 110.5 16.0 16.0" fill="none">
  <path d="M30.5 112C31.4285 112 32.1751 111.999 32.7607 112.078C33.3608 112.159 33.8663 112.331 34.2676 112.732C34.6689 113.134 34.8412 113.639 34.9219 114.239C35.0006 114.825 35 115.572 35 116.5V118.5C35 119.428 35.0006 120.175 34.9219 120.761C34.8412 121.361 34.6689 121.866 34.2676 122.268C33.8663 122.669 33.3608 122.841 32.7607 122.922C32.1751 123.001 31.4285 123 30.5 123H30.0078C30.0485 123.449 30.3157 123.849 30.7236 124.053L30.7227 124.054C30.8867 124.136 31 124.304 31 124.5C31 124.776 30.7761 125 30.5 125H25.5C25.2239 125 25 124.776 25 124.5C25 124.47 25.0026 124.44 25.0078 124.411C25.0097 124.401 25.0131 124.39 25.0156 124.38C25.0199 124.363 25.0253 124.346 25.0312 124.33C25.0487 124.282 25.0729 124.237 25.1035 124.197C25.1114 124.187 25.1192 124.177 25.1279 124.167C25.167 124.123 25.2136 124.087 25.2656 124.06C25.2695 124.058 25.2734 124.056 25.2773 124.054L25.2764 124.053C25.6843 123.849 25.9515 123.449 25.9922 123H25.5C24.5715 123 23.8249 123.001 23.2393 122.922C22.6392 122.841 22.1337 122.669 21.7324 122.268C21.3311 121.866 21.1588 121.361 21.0781 120.761C20.9994 120.175 21 119.428 21 118.5V116.5C21 115.572 20.9994 114.825 21.0781 114.239C21.1588 113.639 21.3311 113.134 21.7324 112.732C22.1337 112.331 22.6392 112.159 23.2393 112.078C23.8249 111.999 24.5715 112 25.5 112H30.5ZM26.9961 123C26.9779 123.356 26.8777 123.697 26.71 124H29.29C29.1223 123.697 29.0221 123.356 29.0039 123H26.9961ZM25.5 113C24.5431 113 23.8756 113.001 23.3721 113.068C22.8829 113.134 22.624 113.255 22.4395 113.439C22.2549 113.624 22.1341 113.883 22.0684 114.372C22.0007 114.876 22 115.543 22 116.5V118.5C22 119.457 22.0007 120.124 22.0684 120.628C22.1341 121.117 22.2549 121.376 22.4395 121.561C22.624 121.745 22.8829 121.866 23.3721 121.932C23.8756 121.999 24.5431 122 25.5 122H30.5C31.4569 122 32.1244 121.999 32.6279 121.932C33.1171 121.866 33.376 121.745 33.5605 121.561C33.7451 121.376 33.8659 121.117 33.9316 120.628C33.9993 120.124 34 119.457 34 118.5V116.5C34 115.543 33.9993 114.876 33.9316 114.372C33.8659 113.883 33.7451 113.624 33.5605 113.439C33.376 113.255 33.1171 113.134 32.6279 113.068C32.1244 113.001 31.4569 113 30.5 113H25.5Z" fill="currentColor"/>
</svg>
