<svg xmlns="http://www.w3.org/2000/svg" width="16" height="16" viewBox="20.26 112.0 14.0 14.0" fill="none">
  <path d="M27.3093 113.007C30.4793 113.168 32.9999 115.79 33 119L32.9928 119.31C32.8318 122.479 30.2101 124.999 27.0003 124.999C24.6853 124.999 22.6791 123.688 21.6792 121.771C21.514 121.454 21.576 121.116 21.7485 120.879C21.9151 120.65 22.1915 120.5 22.4997 120.5L22.7057 120.495C24.7511 120.391 26.3908 118.751 26.4945 116.706L26.5002 116.5C26.5002 115.857 26.348 115.25 26.079 114.712C25.9061 114.367 25.9014 113.964 26.0471 113.633C26.199 113.288 26.5321 113 27 113L27.3093 113.007ZM32.0007 119.001C32.0007 116.325 29.8991 114.139 27.2573 114.006L27.0004 113.999C26.9914 113.999 26.9858 114.001 26.9858 114.001C26.9858 114.001 26.9735 114.011 26.9623 114.036C26.9373 114.093 26.9332 114.184 26.9735 114.265C27.3104 114.938 27.4995 115.698 27.4995 116.5L27.4928 116.758C27.3615 119.343 25.2674 121.407 22.671 121.494C23.5353 122.992 25.1486 124 26.9999 124C29.6751 124 31.8605 121.899 31.9945 119.257L32.0007 119.001Z" fill="currentColor"/>
</svg>
