<svg xmlns="http://www.w3.org/2000/svg" width="16" height="16" viewBox="20.0 111.0 17.0 17.0" fill="none">
  <path d="M31.5 119C31.776 119 32 119.224 32 119.5V122.293L33.1465 121.146C33.3417 120.951 33.6583 120.951 33.8535 121.146C34.0486 121.342 34.0486 121.658 33.8535 121.854L31.8535 123.854C31.6827 124.024 31.4186 124.046 31.2246 123.918L31.1465 123.854L29.1465 121.854C28.9514 121.658 28.9515 121.342 29.1465 121.146C29.3417 120.951 29.6583 120.951 29.8535 121.146L31 122.293V119.5C31 119.224 31.224 119 31.5 119Z" fill="currentColor"/>
  <path d="M31.5 117C33.9853 117 36 119.015 36 121.5C36 123.985 33.9853 126 31.5 126C29.0147 126 27 123.985 27 121.5C27 119.015 29.0147 117 31.5 117ZM31.5 118C29.567 118 28 119.567 28 121.5C28 123.433 29.567 125 31.5 125C33.433 125 35 123.433 35 121.5C35 119.567 33.433 118 31.5 118Z" fill="currentColor"/>
  <path d="M31.5 113C32.193 113 32.7634 112.999 33.2129 113.06C33.6767 113.122 34.0861 113.258 34.4141 113.586C34.742 113.914 34.878 114.323 34.9404 114.787C35.0009 115.237 35 115.807 35 116.5C35 116.769 34.9975 117.02 34.9941 117.253C34.6884 117.001 34.3548 116.782 33.999 116.601C33.999 116.568 34 116.534 34 116.5C34 115.779 33.9986 115.288 33.9492 114.921C33.9018 114.568 33.8183 114.404 33.707 114.293C33.5957 114.182 33.4321 114.098 33.0791 114.051C32.7117 114.001 32.2212 114 31.5 114H24.5C23.7788 114 23.2883 114.001 22.9209 114.051C22.5679 114.098 22.4043 114.182 22.293 114.293C22.1817 114.404 22.0982 114.568 22.0508 114.921C22.0014 115.288 22 115.779 22 116.5C22 117.221 22.0014 117.712 22.0508 118.079C22.0982 118.432 22.1817 118.596 22.293 118.707C22.4043 118.818 22.5679 118.902 22.9209 118.949C23.2883 118.999 23.7788 119 24.5 119H26.6016C26.4395 119.317 26.3067 119.651 26.208 120H24.5C23.807 120 23.2366 120.001 22.7871 119.94C22.3234 119.878 21.9139 119.742 21.5859 119.414C21.258 119.086 21.122 118.677 21.0596 118.213C20.9991 117.763 21 117.193 21 116.5C21 115.807 20.9991 115.237 21.0596 114.787C21.122 114.323 21.258 113.914 21.5859 113.586C21.9139 113.258 22.3234 113.122 22.7871 113.06C23.2366 112.999 23.807 113 24.5 113H31.5Z" fill="currentColor"/>
</svg>
