<svg xmlns="http://www.w3.org/2000/svg" width="16" height="16" viewBox="20.0 111.0 16.0 16.0" fill="none">
  <path d="M28.5 112C29.9001 112 31.0004 111.999 31.8584 112.114C32.7308 112.232 33.4269 112.478 33.9746 113.025C34.5223 113.573 34.7685 114.269 34.8857 115.142C35.0011 116 35 117.1 35 118.5V119.5C35 119.776 34.7761 120 34.5 120C34.2239 120 34 119.776 34 119.5V118.5C34 117.072 33.9988 116.05 33.8945 115.274C33.7921 114.513 33.5985 114.063 33.2676 113.732C32.9367 113.402 32.4868 113.208 31.7256 113.105C30.9497 113.001 29.9283 113 28.5 113H27.5C26.0717 113 25.0503 113.001 24.2744 113.105C23.5132 113.208 23.0633 113.402 22.7324 113.732C22.4015 114.063 22.2079 114.513 22.1055 115.274C22.0012 116.05 22 117.072 22 118.5V119.5C22 120.928 22.0012 121.95 22.1055 122.726C22.2079 123.487 22.4015 123.937 22.7324 124.268C23.0633 124.598 23.5132 124.792 24.2744 124.895C25.0503 124.999 26.0717 125 27.5 125H28.5C28.7761 125 29 125.224 29 125.5C29 125.776 28.7761 126 28.5 126H27.5C26.0999 126 24.9996 126.001 24.1416 125.886C23.2692 125.768 22.5731 125.522 22.0254 124.975C21.4777 124.427 21.2315 123.731 21.1143 122.858C20.9989 122 21 120.9 21 119.5V118.5C21 117.1 20.9989 116 21.1143 115.142C21.2315 114.269 21.4777 113.573 22.0254 113.025C22.5731 112.478 23.2692 112.232 24.1416 112.114C24.9996 111.999 26.0999 112 27.5 112H28.5Z" fill="currentColor"/>
  <path d="M31.5 117C31.7761 117 32 117.224 32 117.5C32 117.776 31.7761 118 31.5 118H27.707L33.8535 124.146C34.0488 124.342 34.0488 124.658 33.8535 124.854C33.6583 125.049 33.3417 125.049 33.1465 124.854L27 118.707V122.5C27 122.776 26.7761 123 26.5 123C26.2239 123 26 122.776 26 122.5V117.5C26 117.224 26.2239 117 26.5 117H31.5Z" fill="currentColor"/>
</svg>
