<svg xmlns="http://www.w3.org/2000/svg" width="16" height="16" viewBox="18.0 111.0 17.0 17.0" fill="none">
  <path d="M24.1465 120.146C24.3417 119.951 24.6583 119.951 24.8535 120.146C25.0487 120.342 25.0486 120.658 24.8535 120.854L23.707 122H26.5C26.7761 122 26.9999 122.224 27 122.5C26.9998 122.776 26.776 123 26.5 123H23.707L24.8535 124.146C25.0487 124.342 25.0486 124.658 24.8535 124.854C24.6583 125.048 24.3417 125.049 24.1465 124.854L22.1465 122.854L22.082 122.775C21.954 122.581 21.9759 122.317 22.1465 122.146L24.1465 120.146Z" fill="currentColor"/>
  <path d="M24.5 118C26.9853 118 29 120.015 29 122.5C29 124.985 26.9853 127 24.5 127C22.0147 127 20 124.985 20 122.5C20 120.015 22.0147 118 24.5 118ZM24.5 119C22.567 119 21 120.567 21 122.5C21 124.433 22.567 126 24.5 126C26.433 126 28 124.433 28 122.5C28 120.567 26.433 119 24.5 119Z" fill="currentColor"/>
  <path d="M29.5 112C30.193 112 30.7634 111.999 31.2129 112.06C31.6766 112.122 32.0861 112.258 32.4141 112.586C32.742 112.914 32.878 113.323 32.9404 113.787C33.0009 114.237 33 114.807 33 115.5V122.5C33 123.193 33.0009 123.763 32.9404 124.213C32.878 124.677 32.742 125.086 32.4141 125.414C32.0861 125.742 31.6767 125.878 31.2129 125.94C30.7634 126.001 30.193 126 29.5 126C29.2301 126 28.9789 125.998 28.7461 125.994C28.998 125.688 29.2165 125.355 29.3984 124.999C29.4318 124.999 29.4656 125 29.5 125C30.2212 125 30.7117 124.999 31.0791 124.949C31.4321 124.902 31.5957 124.818 31.707 124.707C31.8183 124.596 31.9018 124.432 31.9492 124.079C31.9986 123.712 32 123.221 32 122.5V115.5C32 114.779 31.9986 114.288 31.9492 113.921C31.9018 113.568 31.8183 113.404 31.707 113.293C31.5957 113.182 31.4321 113.098 31.0791 113.051C30.7117 113.001 30.2212 113 29.5 113C28.7788 113 28.2883 113.001 27.9209 113.051C27.5679 113.098 27.4043 113.182 27.293 113.293C27.1817 113.404 27.0982 113.568 27.0508 113.921C27.0014 114.288 27 114.779 27 115.5V117.601C26.6832 117.439 26.3487 117.307 26 117.208V115.5C26 114.807 25.9991 114.237 26.0596 113.787C26.122 113.323 26.258 112.914 26.5859 112.586C26.9139 112.258 27.3234 112.122 27.7871 112.06C28.2366 111.999 28.807 112 29.5 112Z" fill="currentColor"/>
</svg>
