<svg xmlns="http://www.w3.org/2000/svg" width="16" height="16" viewBox="15.25 109.0 26.5 26.5" fill="none">
  <path d="M26.208 116C26.3067 116.349 26.4395 116.683 26.6016 117H24.5C23.7788 117 23.2883 117.001 22.9209 117.051C22.5679 117.098 22.4043 117.182 22.293 117.293C22.1817 117.404 22.0982 117.568 22.0508 117.921C22.0014 118.288 22 118.779 22 119.5C22 120.221 22.0014 120.712 22.0508 121.079C22.0982 121.432 22.1817 121.596 22.293 121.707C22.4043 121.818 22.5679 121.902 22.9209 121.949C23.2883 121.999 23.7788 122 24.5 122H31.5C32.2212 122 32.7117 121.999 33.0791 121.949C33.4321 121.902 33.5957 121.818 33.707 121.707C33.8183 121.596 33.9018 121.432 33.9492 121.079C33.9986 120.712 34 120.221 34 119.5C34 119.466 33.999 119.432 33.999 119.398C34.3548 119.217 34.6884 118.998 34.9941 118.746C34.9976 118.979 35 119.23 35 119.5C35 120.193 35.0009 120.763 34.9404 121.213C34.878 121.677 34.742 122.086 34.4141 122.414C34.0861 122.742 33.6767 122.878 33.2129 122.94C32.7634 123.001 32.193 123 31.5 123H24.5C23.807 123 23.2366 123.001 22.7871 122.94C22.3234 122.878 21.9139 122.742 21.5859 122.414C21.258 122.086 21.122 121.677 21.0596 121.213C20.9991 120.763 21 120.193 21 119.5C21 118.807 20.9991 118.237 21.0596 117.787C21.122 117.323 21.258 116.914 21.5859 116.586C21.9139 116.258 22.3234 116.122 22.7871 116.06C23.2366 115.999 23.807 116 24.5 116H26.208Z" fill="currentColor"/>
  <path d="M31.2246 112.082C31.4186 111.954 31.6827 111.976 31.8535 112.146L33.8535 114.146C34.0486 114.342 34.0486 114.658 33.8535 114.854C33.6583 115.049 33.3417 115.049 33.1465 114.854L32 113.707V116.5C32 116.776 31.776 117 31.5 117C31.224 117 31 116.776 31 116.5V113.707L29.8535 114.854C29.6583 115.049 29.3417 115.049 29.1465 114.854C28.9514 114.658 28.9514 114.342 29.1465 114.146L31.1465 112.146L31.2246 112.082Z" fill="currentColor"/>
  <path d="M31.5 110C33.9853 110 36 112.015 36 114.5C36 116.985 33.9853 119 31.5 119C29.0147 119 27 116.985 27 114.5C27 112.015 29.0147 110 31.5 110ZM31.5 111C29.567 111 28 112.567 28 114.5C28 116.433 29.567 118 31.5 118C33.433 118 35 116.433 35 114.5C35 112.567 33.433 111 31.5 111Z" fill="currentColor"/>
  <path d="M28.5 131C30.433 131 32 132.567 32 134.5C32 136.433 30.433 138 28.5 138C26.567 138 25 136.433 25 134.5C25 132.567 26.567 131 28.5 131ZM28.5 132C27.1193 132 26 133.119 26 134.5C26 135.881 27.1193 137 28.5 137C29.8807 137 31 135.881 31 134.5C31 133.119 29.8807 132 28.5 132Z" fill="currentColor"/>
</svg>
