<svg xmlns="http://www.w3.org/2000/svg" width="16" height="16" viewBox="20.0 111.0 16.0 16.0" fill="none">
  <path d="M28.5 112C29.9001 112 31.0004 111.999 31.8584 112.114C32.7308 112.232 33.4269 112.478 33.9746 113.025C34.5223 113.573 34.7685 114.269 34.8857 115.142C35.0011 116 35 117.1 35 118.5V119.5C35 120.9 35.0011 122 34.8857 122.858C34.7685 123.731 34.5223 124.427 33.9746 124.975C33.4269 125.522 32.7308 125.768 31.8584 125.886C31.0004 126.001 29.9001 126 28.5 126H27.5C27.2239 126 27 125.776 27 125.5C27 125.224 27.2239 125 27.5 125H28.5C29.9283 125 30.9497 124.999 31.7256 124.895C32.4868 124.792 32.9367 124.598 33.2676 124.268C33.5985 123.937 33.7921 123.487 33.8945 122.726C33.9988 121.95 34 120.928 34 119.5V118.5C34 117.072 33.9988 116.05 33.8945 115.274C33.7921 114.513 33.5985 114.063 33.2676 113.732C32.9367 113.402 32.4868 113.208 31.7256 113.105C30.9497 113.001 29.9283 113 28.5 113H27.5C26.0717 113 25.0503 113.001 24.2744 113.105C23.5132 113.208 23.0633 113.402 22.7324 113.732C22.4015 114.063 22.2079 114.513 22.1055 115.274C22.0012 116.05 22 117.072 22 118.5V119.5C22 119.776 21.7761 120 21.5 120C21.2239 120 21 119.776 21 119.5V118.5C21 117.1 20.9989 116 21.1143 115.142C21.2315 114.269 21.4777 113.573 22.0254 113.025C22.5731 112.478 23.2692 112.232 24.1416 112.114C24.9996 111.999 26.0999 112 27.5 112H28.5Z" fill="currentColor"/>
  <path d="M29.5 117C29.7761 117 30 117.224 30 117.5V122.5C30 122.776 29.7761 123 29.5 123C29.2239 123 29 122.776 29 122.5V118.707L22.8535 124.854C22.6583 125.049 22.3417 125.049 22.1465 124.854C21.9512 124.658 21.9512 124.342 22.1465 124.146L28.293 118H24.5C24.2239 118 24 117.776 24 117.5C24 117.224 24.2239 117 24.5 117H29.5Z" fill="currentColor"/>
</svg>
