<svg xmlns="http://www.w3.org/2000/svg" width="16" height="16" viewBox="20.0 111.0 15.0 15.0" fill="none">
  <path d="M29.5 124C29.7761 124 30 124.224 30 124.5C30 124.776 29.7761 125 29.5 125H21.5C21.2239 125 21 124.776 21 124.5C21 124.224 21.2239 124 21.5 124H29.5Z" fill="currentColor"/>
  <path d="M24.1465 115.146C24.3417 114.951 24.6583 114.951 24.8535 115.146L30.8535 121.146C31.0488 121.342 31.0488 121.658 30.8535 121.854C30.6583 122.049 30.3417 122.049 30.1465 121.854L24.1465 115.854C23.9512 115.658 23.9512 115.342 24.1465 115.146Z" fill="currentColor"/>
  <path d="M33.5 112C33.7761 112 34 112.224 34 112.5V120.5C34 120.776 33.7761 121 33.5 121C33.2239 121 33 120.776 33 120.5V112.5C33 112.224 33.2239 112 33.5 112Z" fill="currentColor"/>
</svg>
