<svg xmlns="http://www.w3.org/2000/svg" width="16" height="16" viewBox="19.99 111.0 16.01 16.01" fill="none">
  <path d="M32.4999 121C32.7761 121 32.9999 121.224 32.9999 121.5C32.9999 121.776 32.7761 122 32.4999 122H25.4999C25.2238 122 24.9999 121.776 24.9999 121.5C24.9999 121.224 25.2238 121 25.4999 121H32.4999Z" fill="currentColor"/>
  <path d="M32.4999 119C32.7761 119 32.9999 119.224 32.9999 119.5C32.9999 119.776 32.7761 120 32.4999 120H25.4999C25.2238 120 24.9999 119.776 24.9999 119.5C24.9999 119.224 25.2238 119 25.4999 119H32.4999Z" fill="currentColor"/>
  <path d="M31.9999 115C32.2324 115 32.3489 115 32.4443 115.025C32.703 115.095 32.9052 115.297 32.9745 115.556C33.0001 115.651 32.9999 115.768 32.9999 116C32.9999 116.232 33.0001 116.349 32.9745 116.444C32.9052 116.703 32.703 116.905 32.4443 116.975C32.3489 117 32.2324 117 31.9999 117H25.9999C25.7675 117 25.651 117 25.5556 116.975C25.2969 116.905 25.0947 116.703 25.0253 116.444C24.9998 116.349 24.9999 116.232 24.9999 116C24.9999 115.768 24.9998 115.651 25.0253 115.556C25.0947 115.297 25.2969 115.095 25.5556 115.025C25.651 115 25.7675 115 25.9999 115H31.9999Z" fill="currentColor"/>
  <path d="M30.9999 113C31.8107 113 32.4696 112.999 32.9872 113.068C33.519 113.14 33.9762 113.295 34.3408 113.659C34.7053 114.024 34.86 114.481 34.9316 115.013C35.0012 115.53 34.9999 116.189 34.9999 117V121C34.9999 121.811 35.0012 122.47 34.9316 122.987C34.86 123.519 34.7053 123.976 34.3408 124.341C33.9762 124.705 33.519 124.86 32.9872 124.932C32.4696 125.001 31.8107 125 30.9999 125H22.4999C21.6715 125 20.9999 124.328 20.9999 123.5V119.944C20.9999 119.337 20.9939 118.915 21.1083 118.56C21.3304 117.871 21.8706 117.331 22.5595 117.108C22.6945 117.065 22.8391 117.038 22.9999 117.022V117C22.9999 116.189 22.9987 115.53 23.0683 115.013C23.1398 114.481 23.2946 114.024 23.6591 113.659C24.0237 113.295 24.4808 113.14 25.0126 113.068C25.5302 112.999 26.1891 113 26.9999 113H30.9999ZM26.9999 114C26.1609 114 25.5819 114.001 25.1464 114.06C24.7253 114.116 24.514 114.218 24.3661 114.366C24.2183 114.514 24.1161 114.725 24.0595 115.146C24.001 115.582 23.9999 116.161 23.9999 117V123.5C23.9999 123.676 23.9684 123.843 23.913 124H30.9999C31.8389 124 32.418 123.999 32.8534 123.94C33.2745 123.884 33.4858 123.782 33.6337 123.634C33.7816 123.486 33.8837 123.275 33.9404 122.854C33.9989 122.418 33.9999 121.839 33.9999 121V117C33.9999 116.161 33.9989 115.582 33.9404 115.146C33.8837 114.725 33.7816 114.514 33.6337 114.366C33.4858 114.218 33.2745 114.116 32.8534 114.06C32.418 114.001 31.8389 114 30.9999 114H26.9999ZM22.8661 118.061C22.4837 118.184 22.1839 118.484 22.0605 118.866C22.0063 119.034 21.9999 119.26 21.9999 119.944V123.5C21.9999 123.776 22.2238 124 22.4999 124C22.7761 124 22.9999 123.776 22.9999 123.5V118.03C22.9487 118.038 22.9058 118.048 22.8661 118.061Z" fill="currentColor"/>
</svg>
