<svg xmlns="http://www.w3.org/2000/svg" width="16" height="16" viewBox="21.0 112.0 14.01 14.01" fill="none">
  <path d="M29.5 113C30.4285 113 31.1751 112.999 31.7607 113.078C32.3608 113.159 32.8663 113.331 33.2676 113.732C33.6689 114.134 33.8412 114.639 33.9219 115.239C34.0006 115.825 34 116.572 34 117.5V119.004C34 119.812 34.0092 120.362 33.7949 120.858C33.5806 121.355 33.1742 121.725 32.5859 122.279L30.998 123.775C30.4561 124.286 30.0935 124.639 29.6289 124.823C29.164 125.008 28.6573 125 27.9121 125H26.5C25.5715 125 24.8249 125.001 24.2393 124.922C23.6392 124.841 23.1337 124.669 22.7324 124.268C22.3311 123.866 22.1588 123.361 22.0781 122.761C21.9994 122.175 22 121.428 22 120.5V117.5C22 116.572 21.9994 115.825 22.0781 115.239C22.1588 114.639 22.3311 114.134 22.7324 113.732C23.1337 113.331 23.6392 113.159 24.2393 113.078C24.8249 112.999 25.5715 113 26.5 113H29.5ZM26.5 114C25.5431 114 24.8756 114.001 24.3721 114.068C23.8829 114.134 23.624 114.255 23.4395 114.439C23.2549 114.624 23.1341 114.883 23.0684 115.372C23.0007 115.876 23 116.543 23 117.5V120.5C23 121.457 23.0007 122.124 23.0684 122.628C23.1341 123.117 23.2549 123.376 23.4395 123.561C23.624 123.745 23.8829 123.866 24.3721 123.932C24.8756 123.999 25.5431 124 26.5 124H27.9121C28.4748 124 28.7827 123.994 29 123.961V122.5C29 122.043 28.9989 121.649 29.041 121.336C29.0851 121.008 29.1847 120.694 29.4395 120.439C29.6942 120.185 30.0082 120.085 30.3359 120.041C30.6493 119.999 31.0427 120 31.5 120H32.9785C32.9973 119.777 33 119.472 33 119.004V117.5C33 116.543 32.9993 115.876 32.9316 115.372C32.8659 114.883 32.7451 114.624 32.5605 114.439C32.376 114.255 32.1171 114.134 31.6279 114.068C31.1244 114.001 30.4569 114 29.5 114H26.5ZM31.5 121C31.0147 121 30.7009 121.001 30.4697 121.032C30.2529 121.061 30.1845 121.108 30.1465 121.146C30.1084 121.185 30.0614 121.253 30.0322 121.47C30.0012 121.701 30 122.015 30 122.5V123.337C30.0908 123.253 30.1947 123.158 30.3125 123.047L31.9004 121.551C32.1468 121.319 32.3286 121.142 32.4678 121H31.5Z" fill="currentColor"/>
</svg>
