<svg xmlns="http://www.w3.org/2000/svg" width="16" height="16" viewBox="19.93 110.95 16.07 16.07" fill="none">
  <path d="M22.4998 120C23.3282 120 23.9998 120.671 23.9998 121.5C23.9998 121.972 23.7778 122.417 23.4002 122.7L22.5994 123.3C22.3599 123.479 22.1832 123.724 22.0858 124H23.4998C23.7759 124 23.9998 124.224 23.9998 124.5C23.9998 124.776 23.776 125 23.4998 125H21.4998C21.2238 125 20.9998 124.776 20.9998 124.5C20.9999 123.713 21.3704 122.972 21.9998 122.5L22.7996 121.9C22.9255 121.806 22.9998 121.657 22.9998 121.5C22.9998 121.224 22.7759 121 22.4998 121C22.2582 121 22.0562 121.171 22.0096 121.399L21.9901 121.6C21.9435 121.828 21.7415 122 21.4998 122C21.2238 122 20.9998 121.776 20.9998 121.5C20.9999 120.672 21.6715 120 22.4998 120Z" fill="currentColor"/>
  <path d="M34.4998 122C34.7759 122 34.9998 122.224 34.9998 122.5C34.9998 122.776 34.776 123 34.4998 123H25.4998C25.2238 123 24.9998 122.776 24.9998 122.5C24.9999 122.224 25.2238 122 25.4998 122H34.4998Z" fill="currentColor"/>
  <path d="M22.2762 113.053C22.431 112.975 22.6152 112.983 22.7625 113.074C22.9099 113.165 22.9998 113.327 22.9998 113.5V117.5C22.9998 117.776 22.776 118 22.4998 118C22.2238 118 21.9998 117.776 21.9998 117.5V114.308L21.7235 114.447C21.4765 114.571 21.176 114.47 21.0526 114.223C20.9292 113.977 21.0293 113.676 21.2762 113.553L22.2762 113.053Z" fill="currentColor"/>
  <path d="M34.4998 115C34.7759 115 34.9998 115.224 34.9998 115.5C34.9998 115.776 34.776 116 34.4998 116H25.4998C25.2238 116 24.9998 115.776 24.9998 115.5C24.9999 115.224 25.2238 115 25.4998 115H34.4998Z" fill="currentColor"/>
</svg>
