<svg xmlns="http://www.w3.org/2000/svg" width="16" height="16" viewBox="20.96 111.96 14.08 14.08" fill="none">
  <path d="M31.5898 113.008C31.8612 113.058 32.0414 113.319 31.9922 113.59L31.5537 116H33.5C33.7761 116 33.9999 116.224 34 116.5C34 116.776 33.7761 117 33.5 117H31.3721L30.6445 121H32.5C32.776 121 32.9997 121.224 33 121.5C33 121.776 32.7761 122 32.5 122H30.4629L29.9922 124.59C29.9426 124.862 29.6817 125.042 29.4102 124.992C29.1387 124.943 28.9584 124.682 29.0078 124.41L29.4463 122H25.4922L25.0303 124.588C24.9817 124.86 24.722 125.041 24.4502 124.992C24.1786 124.944 23.9975 124.684 24.0459 124.412L24.4766 122H22.5C22.2239 122 22 121.776 22 121.5C22.0003 121.224 22.224 121 22.5 121H24.6543L25.3682 117H23.5C23.2239 117 23 116.776 23 116.5C23.0001 116.224 23.2239 116 23.5 116H25.5459L26.0078 113.412C26.0565 113.141 26.3163 112.96 26.5879 113.008C26.8594 113.057 27.0405 113.317 26.9922 113.588L26.5615 116H30.5371L31.0078 113.41C31.0575 113.139 31.3184 112.959 31.5898 113.008ZM25.6699 121H29.6279L30.3555 117H26.3838L25.6699 121Z" fill="currentColor"/>
</svg>
