<svg xmlns="http://www.w3.org/2000/svg" width="16" height="16" viewBox="20.76 111.76 14.49 14.49" fill="none">
  <path d="M30.1465 117.146C30.3417 116.951 30.6583 116.951 30.8535 117.146C31.0488 117.342 31.0488 117.658 30.8535 117.854L27.3535 121.354C27.1583 121.549 26.8417 121.549 26.6465 121.354L25.1465 119.854C24.9512 119.658 24.9512 119.342 25.1465 119.146C25.3417 118.951 25.6583 118.951 25.8535 119.146L27 120.293L30.1465 117.146Z" fill="currentColor"/>
  <path d="M28 112.758C28.5136 112.758 28.9114 112.978 29.2188 113.213C29.4875 113.418 29.7741 113.705 30.0693 114C30.4882 114 30.8945 114.001 31.2305 114.046C31.5658 114.091 31.9422 114.193 32.2744 114.461L32.4141 114.586L32.5391 114.726C32.8071 115.058 32.909 115.434 32.9541 115.77C32.9992 116.105 32.9991 116.511 32.999 116.929C33.295 117.225 33.5826 117.512 33.7881 117.781C34.0225 118.089 34.2432 118.486 34.2432 119C34.2432 119.514 34.0225 119.911 33.7881 120.219C33.5827 120.488 33.2948 120.775 32.999 121.07C32.9991 121.489 32.9993 121.895 32.9541 122.23C32.9025 122.614 32.7772 123.051 32.4141 123.414C32.0509 123.777 31.6137 123.903 31.2305 123.954C30.8945 123.999 30.4882 123.999 30.0693 123.999C29.7739 124.295 29.4876 124.582 29.2188 124.787C28.9114 125.022 28.5136 125.242 28 125.242C27.4865 125.242 27.0886 125.022 26.7812 124.787C26.5122 124.582 26.2253 124.295 25.9297 123.999C25.5112 123.999 25.1052 123.999 24.7695 123.954C24.3863 123.903 23.9491 123.777 23.5859 123.414C23.2228 123.051 23.0975 122.614 23.0459 122.23C23.0007 121.895 22.9999 121.488 23 121.069C22.7046 120.774 22.418 120.487 22.2129 120.219C21.9784 119.911 21.7578 119.514 21.7578 119C21.7578 118.486 21.9784 118.089 22.2129 117.781C22.4181 117.512 22.7045 117.225 23 116.93C22.9999 116.511 23.0007 116.105 23.0459 115.77C23.0975 115.386 23.2228 114.949 23.5859 114.586L23.7256 114.461C24.0578 114.193 24.4342 114.091 24.7695 114.046C25.1052 114.001 25.5112 114 25.9297 114C26.2251 113.704 26.5124 113.418 26.7812 113.213C27.0886 112.978 27.4865 112.758 28 112.758ZM28 113.758C27.5858 113.758 27.2525 114.091 26.5859 114.758C26.4309 114.913 26.2193 115 26 115C25.0572 115 24.5859 115 24.293 115.293C24.0001 115.586 24 116.057 24 117C24 117.219 23.9129 117.431 23.7578 117.586C23.0911 118.253 22.7578 118.586 22.7578 119C22.7578 119.414 23.0911 119.747 23.7578 120.414C23.9129 120.569 24 120.781 24 121C24 121.943 24.0001 122.414 24.293 122.707C24.5859 123 25.0572 123 26 123C26.2193 123 26.4309 123.087 26.5859 123.242C27.2525 123.909 27.5858 124.242 28 124.242C28.4142 124.242 28.7474 123.909 29.4141 123.242C29.5691 123.087 29.7807 123 30 123C30.9428 123 31.4141 123 31.707 122.707C31.9999 122.414 32 121.943 32 121C32 120.78 32.0875 120.569 32.2432 120.414C32.9096 119.748 33.2432 119.414 33.2432 119C33.2432 118.586 32.9096 118.252 32.2432 117.586C32.088 117.431 32 117.219 32 117C32 116.057 31.9999 115.586 31.707 115.293C31.4141 115 30.9428 115 30 115C29.7807 115 29.5691 114.913 29.4141 114.758C28.7474 114.091 28.4142 113.758 28 113.758Z" fill="currentColor"/>
</svg>
