<svg xmlns="http://www.w3.org/2000/svg" width="16" height="16" viewBox="20.0 110.68 16.0 16.0" fill="none">
  <path d="M25.7879 116.298C25.7754 116.291 25.7634 116.283 25.7514 116.275H25.0749C24.9759 116.311 24.9584 116.388 24.9584 116.485C24.9603 117.6 24.9602 118.716 24.96 119.831L24.9599 120.788C24.9599 120.804 24.9599 120.82 24.9604 120.836C24.9624 120.906 25.0039 120.954 25.0739 120.966C25.1039 120.971 25.1349 120.973 25.1654 120.973C25.3259 120.973 25.4874 120.973 25.6484 120.973L25.6647 120.973C25.6783 120.973 25.6918 120.973 25.7054 120.972C25.7859 120.965 25.8624 120.926 25.8604 120.805C25.8579 120.584 25.8584 120.364 25.859 120.144C25.8592 120.052 25.8594 119.96 25.8594 119.869L25.8595 119.862C25.8599 119.835 25.8604 119.808 25.8659 119.782C25.8899 119.672 26.0124 119.627 26.1029 119.695C26.1206 119.709 26.1356 119.725 26.1507 119.742L26.1644 119.757L26.3685 119.969C26.6696 120.282 26.9712 120.595 27.2709 120.91C27.3164 120.957 27.3659 120.976 27.4299 120.976C27.6889 120.974 27.9484 120.974 28.2069 120.976C28.2824 120.976 28.3404 120.952 28.3674 120.88C28.3944 120.81 28.3784 120.749 28.3244 120.696C28.2684 120.639 28.2134 120.582 28.1583 120.524L28.1109 120.475C27.8664 120.225 27.6219 119.974 27.3779 119.724L27.2852 119.629C27.182 119.524 27.0788 119.419 26.9769 119.312C26.9439 119.278 26.9154 119.238 26.8904 119.197C26.8449 119.12 26.8604 119.039 26.9404 118.949C27.0918 118.779 27.2438 118.611 27.3959 118.442L27.5859 118.231C27.6866 118.12 27.7868 118.008 27.887 117.896L28.0374 117.729C28.0849 117.676 28.0929 117.617 28.0639 117.554C28.0354 117.493 27.9849 117.468 27.9184 117.468C27.6744 117.468 27.4294 117.468 27.1854 117.468C27.1324 117.467 27.0889 117.484 27.0529 117.523C27.0023 117.577 26.9516 117.631 26.9009 117.685C26.8495 117.74 26.798 117.795 26.7469 117.85C26.7034 117.896 26.6604 117.943 26.6174 117.99C26.5833 118.027 26.5491 118.064 26.5149 118.101C26.3859 118.241 26.2564 118.381 26.1264 118.519C26.0804 118.569 26.0234 118.579 25.9614 118.558C25.9019 118.538 25.8694 118.493 25.8644 118.431C25.8619 118.403 25.8594 118.375 25.8594 118.347V116.459L25.8595 116.446C25.8596 116.433 25.8596 116.42 25.8589 116.407C25.8559 116.357 25.8309 116.322 25.7879 116.298Z" fill="currentColor"/>
  <path d="M34.7311 120.979C34.8347 120.972 34.9391 120.953 35.0001 120.851V120.157C34.9601 120.075 34.8886 120.064 34.8081 120.067C34.7661 120.069 34.7232 120.063 34.6817 120.056C34.5041 120.029 34.3966 119.926 34.3631 119.751C34.3431 119.647 34.3277 119.54 34.3266 119.434C34.3239 119.032 34.3237 118.629 34.3236 118.227C34.3235 118.044 34.3235 117.861 34.3231 117.678C34.3231 117.647 34.3211 117.616 34.3156 117.586C34.3017 117.516 34.2436 117.468 34.1721 117.468C33.9732 117.467 33.7741 117.467 33.5751 117.468C33.4851 117.468 33.4216 117.533 33.4186 117.624C33.4179 117.637 33.4164 117.65 33.4146 117.667L33.4131 117.68C33.0047 117.464 32.5821 117.402 32.1396 117.51C31.6957 117.619 31.3461 117.867 31.0891 118.245C30.6697 118.864 30.6986 119.706 31.1601 120.298C31.3956 120.601 31.6961 120.813 32.0661 120.915C32.6671 121.081 33.2111 120.956 33.6996 120.571C33.7111 120.586 33.7191 120.596 33.7271 120.606C33.8417 120.759 33.9881 120.867 34.1706 120.929C34.3541 120.99 34.5421 120.992 34.7311 120.979ZM33.4326 119.222C33.4331 119.743 33.0026 120.106 32.5552 120.095C32.1157 120.103 31.6821 119.745 31.6837 119.221C31.6856 118.714 32.0926 118.346 32.5631 118.348C33.0306 118.351 33.4321 118.72 33.4326 119.222Z" fill="currentColor"/>
  <path d="M21.031 118.913C21.0205 118.976 21.01 119.04 21 119.103V119.349L21.0085 119.397C21.0138 119.427 21.0191 119.457 21.024 119.486C21.0935 119.932 21.3015 120.3 21.65 120.585C22.029 120.897 22.4675 121.023 22.9555 120.975C23.335 120.937 23.6695 120.79 23.9475 120.531C24.3965 120.115 24.5905 119.598 24.514 118.989C24.457 118.533 24.2445 118.156 23.8905 117.865C23.4955 117.54 23.0385 117.412 22.53 117.476C21.7795 117.571 21.161 118.165 21.031 118.913ZM22.751 120.097C22.2775 120.087 21.892 119.7 21.8935 119.221C21.895 118.734 22.286 118.347 22.7725 118.348C23.2595 118.35 23.6465 118.744 23.641 119.24C23.636 119.728 23.222 120.106 22.751 120.097Z" fill="currentColor"/>
  <path d="M29.3128 116.279C29.3115 116.278 29.3101 116.276 29.3085 116.275H28.6321C28.5356 116.32 28.5251 116.402 28.5255 116.498C28.5266 116.981 28.5267 117.465 28.5268 117.949C28.5268 118.364 28.5269 118.778 28.5275 119.193C28.5275 119.301 28.536 119.41 28.5521 119.516C28.6581 120.225 29.2261 120.819 29.9276 120.958C29.9849 120.969 30.0427 120.978 30.1004 120.987C30.1293 120.991 30.1582 120.995 30.187 121H30.3981C30.4047 120.999 30.4113 120.998 30.418 120.997C30.4485 120.992 30.4792 120.987 30.5096 120.983C30.6145 120.972 30.673 120.895 30.659 120.79C30.6533 120.746 30.6486 120.702 30.6439 120.658C30.6412 120.632 30.6385 120.607 30.6355 120.581C30.6324 120.551 30.6294 120.521 30.6264 120.491C30.6177 120.405 30.6089 120.318 30.5985 120.233C30.5865 120.137 30.5135 120.09 30.418 120.097C30.3251 120.103 30.2295 120.107 30.1385 120.092C29.719 120.019 29.423 119.659 29.4235 119.234C29.4239 119.078 29.4238 118.923 29.4237 118.768C29.4236 118.69 29.4235 118.613 29.4235 118.535C29.4235 118.41 29.4851 118.349 29.609 118.349C29.6921 118.349 29.775 118.349 29.858 118.349C30.0238 118.349 30.1896 118.349 30.3555 118.349C30.4455 118.349 30.5096 118.294 30.5111 118.205C30.5146 118.011 30.515 117.816 30.5111 117.621C30.5091 117.519 30.4486 117.468 30.3475 117.468C30.223 117.468 30.0987 117.468 29.9743 117.468C29.8499 117.468 29.7255 117.468 29.601 117.468C29.484 117.467 29.4235 117.405 29.423 117.288V116.459C29.423 116.381 29.4016 116.317 29.3216 116.286C29.3182 116.285 29.3156 116.282 29.3128 116.279Z" fill="currentColor"/>
</svg>
