<svg xmlns="http://www.w3.org/2000/svg" width="16" height="16" viewBox="20.0 111.64 16.0 16.0" fill="none">
  <path d="M27 113C28.8638 113 30.43 114.275 30.874 116H31C33.2091 116 34.9999 117.791 35 120C35 121.014 34.6208 121.939 34 122.643V124.978C34 125.81 33.0436 126.277 32.3867 125.767L30.1152 124H29C27.3096 124 25.8678 122.95 25.2822 121.468L23.6133 122.767C22.9564 123.277 22 122.81 22 121.978V119.643C21.3792 118.939 21 118.014 21 117C21.0001 114.791 22.7909 113 25 113H27ZM31 117C31 119.209 29.2091 121 27 121H26.1719C26.5837 122.165 27.6939 123 29 123H30.2861C30.3695 123 30.4508 123.021 30.5234 123.061L30.5928 123.105L33 124.978V122.447C33 122.317 33.0512 122.191 33.1426 122.098C33.6731 121.556 34 120.817 34 120C34 118.343 32.6568 117 31 117ZM25 114C23.3432 114 22 115.343 22 117C22 117.817 22.3269 118.556 22.8574 119.098C22.9488 119.191 23 119.317 23 119.447V121.978L25.4072 120.105L25.4766 120.061C25.5492 120.021 25.6305 120 25.7139 120H27C28.6569 120 30 118.657 30 117C30 115.343 28.6568 114 27 114H25Z" fill="currentColor"/>
</svg>
