<svg xmlns="http://www.w3.org/2000/svg" width="16" height="16" viewBox="20.0 111.0 16.0 16.0" fill="none">
  <path d="M30.5 114C31.4285 114 32.1751 113.999 32.7607 114.078C33.3608 114.159 33.8663 114.331 34.2676 114.732C34.6689 115.134 34.8412 115.639 34.9219 116.239C35.0006 116.825 35 117.572 35 118.5V121.5C35 122.428 35.0006 123.175 34.9219 123.761C34.8412 124.361 34.6689 124.866 34.2676 125.268C33.8663 125.669 33.3608 125.841 32.7607 125.922C32.1751 126.001 31.4285 126 30.5 126H27.5C26.5715 126 25.8249 126.001 25.2393 125.922C24.6392 125.841 24.1337 125.669 23.7324 125.268C23.3311 124.866 23.1588 124.361 23.0781 123.761C22.9994 123.175 23 122.428 23 121.5V119.5C23 119.224 23.2239 119 23.5 119C23.7761 119 24 119.224 24 119.5V121.5C24 122.457 24.0007 123.124 24.0684 123.628C24.1341 124.117 24.2549 124.376 24.4395 124.561C24.624 124.745 24.8829 124.866 25.3721 124.932C25.8756 124.999 26.5431 125 27.5 125H30.5C31.4569 125 32.1244 124.999 32.6279 124.932C33.1171 124.866 33.376 124.745 33.5605 124.561C33.7451 124.376 33.8659 124.117 33.9316 123.628C33.9993 123.124 34 122.457 34 121.5V118.5C34 117.543 33.9993 116.876 33.9316 116.372C33.8659 115.883 33.7451 115.624 33.5605 115.439C33.376 115.255 33.1171 115.134 32.6279 115.068C32.1244 115.001 31.4569 115 30.5 115H28.5C28.2239 115 28 114.776 28 114.5C28 114.224 28.2239 114 28.5 114H30.5Z" fill="currentColor"/>
  <path d="M26.5 112C26.7761 112 27 112.224 27 112.5C27 112.776 26.7761 113 26.5 113H22.707L28.8535 119.146C29.0488 119.342 29.0488 119.658 28.8535 119.854C28.6583 120.049 28.3417 120.049 28.1465 119.854L22 113.707V117.5C22 117.776 21.7761 118 21.5 118C21.2239 118 21 117.776 21 117.5V112.5C21 112.224 21.2239 112 21.5 112H26.5Z" fill="currentColor"/>
</svg>
