<svg xmlns="http://www.w3.org/2000/svg" width="16" height="16" viewBox="20.0 111.0 16.0 16.0" fill="none">
  <path d="M27.5 114C27.7761 114 28 114.224 28 114.5C28 114.776 27.7761 115 27.5 115H27C25.8157 115 24.9693 115.001 24.3164 115.074C23.6738 115.147 23.2809 115.285 22.9785 115.517C22.8052 115.65 22.6496 115.805 22.5166 115.979C22.2847 116.281 22.1467 116.674 22.0742 117.316C22.0006 117.969 22 118.816 22 120C22 121.184 22.0006 122.031 22.0742 122.684C22.1467 123.326 22.2847 123.719 22.5166 124.021C22.6496 124.195 22.8052 124.35 22.9785 124.483C23.2809 124.715 23.6738 124.853 24.3164 124.926C24.9693 124.999 25.8157 125 27 125C28.1843 125 29.0307 124.999 29.6836 124.926C30.3262 124.853 30.7191 124.715 31.0215 124.483C31.1948 124.35 31.3504 124.195 31.4834 124.021C31.7153 123.719 31.8533 123.326 31.9258 122.684C31.9994 122.031 32 121.184 32 120V119.5C32 119.224 32.2239 119 32.5 119C32.7761 119 33 119.224 33 119.5V120C33 121.161 33.0003 122.074 32.9189 122.796C32.8364 123.528 32.6642 124.125 32.2764 124.631C32.0903 124.873 31.8733 125.09 31.6309 125.276C31.1254 125.664 30.5278 125.836 29.7959 125.919C29.074 126 28.1612 126 27 126C25.8388 126 24.926 126 24.2041 125.919C23.4722 125.836 22.8746 125.664 22.3691 125.276C22.1267 125.09 21.9097 124.873 21.7236 124.631C21.3358 124.125 21.1636 123.528 21.0811 122.796C20.9997 122.074 21 121.161 21 120C21 118.839 20.9997 117.926 21.0811 117.204C21.1636 116.472 21.3358 115.875 21.7236 115.369C21.9097 115.127 22.1267 114.91 22.3691 114.724C22.8746 114.336 23.4722 114.164 24.2041 114.081C24.926 114 25.8388 114 27 114H27.5Z" fill="currentColor"/>
  <path d="M34.5 112C34.7761 112 35 112.224 35 112.5V117.5C35 117.776 34.7761 118 34.5 118C34.2239 118 34 117.776 34 117.5V113.707L27.8535 119.854C27.6583 120.049 27.3417 120.049 27.1465 119.854C26.9512 119.658 26.9512 119.342 27.1465 119.146L33.293 113H29.5C29.2239 113 29 112.776 29 112.5C29 112.224 29.2239 112 29.5 112H34.5Z" fill="currentColor"/>
</svg>
