<svg xmlns="http://www.w3.org/2000/svg" width="16" height="16" viewBox="21.0 111.5 14.0 14.0" fill="none">
  <path d="M26.5 112.5C26.7254 112.5 26.923 112.651 26.9824 112.868L29.8818 123.5H33.5C33.7761 123.5 34 123.724 34 124C34 124.276 33.7761 124.5 33.5 124.5H29.5C29.2746 124.5 29.077 124.349 29.0176 124.132L26.1182 113.5H22.5C22.2239 113.5 22 113.276 22 113C22 112.724 22.2239 112.5 22.5 112.5H26.5Z" fill="currentColor"/>
  <path d="M33.5 112.5C33.7761 112.5 34 112.724 34 113C34 113.276 33.7761 113.5 33.5 113.5H29.5C29.2239 113.5 29 113.276 29 113C29 112.724 29.2239 112.5 29.5 112.5H33.5Z" fill="currentColor"/>
</svg>
