<svg xmlns="http://www.w3.org/2000/svg" width="16" height="16" viewBox="19.95 110.98 16.05 16.05" fill="none">
  <path d="M29.7735 112C30.1204 112 30.4431 112.178 30.629 112.471L34.8018 119.042C34.9315 119.246 35.0001 119.484 35.0001 119.726C34.9999 120.429 34.4294 121 33.7257 121H31.503L31.9239 124.791C31.9954 125.436 31.4909 126 30.8419 126C30.4511 126 30.0905 125.79 29.8966 125.451L26.17 118.931C26.0586 118.736 26.0001 118.515 26.0001 118.29C26.0002 117.578 26.5777 117 27.2901 117H29.4102L28.7735 113.181C28.6705 112.563 29.1471 112 29.7735 112ZM29.7677 113.001C29.7677 113.001 29.7646 113.003 29.7628 113.005C29.761 113.007 29.7598 113.011 29.7598 113.011C29.7598 113.011 29.7594 113.013 29.7598 113.016L30.4932 117.418C30.5173 117.563 30.4768 117.711 30.3819 117.823C30.2869 117.935 30.147 118 30.0001 118H27.2901C27.13 118 27.0002 118.13 27.0001 118.29C27.0001 118.341 27.0131 118.391 27.0382 118.435L30.7647 124.955C30.7806 124.983 30.81 125 30.8419 125C30.8948 125 30.9364 124.954 30.9307 124.901L30.4473 120.556C30.4316 120.414 30.4775 120.273 30.5723 120.167C30.6672 120.061 30.8022 120 30.9444 120H33.7257C33.8771 120 33.9999 119.877 34.0001 119.726C34.0001 119.673 33.985 119.622 33.9571 119.578L29.7852 113.007C29.7828 113.003 29.7781 113 29.7735 113C29.7701 113 29.7677 113.001 29.7677 113.001Z" fill="currentColor"/>
  <path d="M23.1466 117.146C23.3418 116.951 23.6583 116.951 23.8536 117.146C24.0488 117.342 24.0488 117.658 23.8536 117.854L22.2071 119.5L23.8536 121.146C24.0488 121.342 24.0488 121.658 23.8536 121.854C23.6583 122.049 23.3418 122.049 23.1466 121.854L21.1466 119.854C20.9513 119.658 20.9513 119.342 21.1466 119.146L23.1466 117.146Z" fill="currentColor"/>
</svg>
