<svg xmlns="http://www.w3.org/2000/svg" width="16" height="16" viewBox="20.0 110.98 16.05 16.05" fill="none">
  <path d="M25.8418 112C26.4908 112 26.9953 112.564 26.9238 113.209L26.5029 117H28.7256C29.4293 117 29.9998 117.571 30 118.274C30 118.516 29.9314 118.754 29.8018 118.958L25.6289 125.529C25.443 125.822 25.1203 126 24.7734 126C24.147 126 23.6704 125.437 23.7734 124.819L24.4102 121H22.29C21.5776 121 21.0001 120.422 21 119.71C21 119.485 21.0585 119.264 21.1699 119.069L24.8965 112.549C25.0904 112.21 25.451 112 25.8418 112ZM25.8418 113C25.8099 113 25.7805 113.017 25.7646 113.045L22.0381 119.565C22.013 119.609 22 119.659 22 119.71C22.0001 119.87 22.1299 120 22.29 120H25C25.147 120 25.2868 120.065 25.3818 120.177C25.4767 120.289 25.5173 120.437 25.4932 120.582L24.7598 124.984C24.7593 124.987 24.7598 124.989 24.7598 124.989C24.7598 124.989 24.7609 124.993 24.7627 124.995C24.7645 124.997 24.7676 124.999 24.7676 124.999C24.7676 124.999 24.7699 125 24.7734 125C24.7781 125 24.7827 124.997 24.7852 124.993L28.957 118.422C28.985 118.378 29 118.327 29 118.274C28.9998 118.123 28.877 118 28.7256 118H25.9443C25.8022 118 25.6671 117.939 25.5723 117.833C25.4775 117.727 25.4316 117.586 25.4473 117.444L25.9307 113.099C25.9363 113.046 25.8948 113 25.8418 113Z" fill="currentColor"/>
  <path d="M32.1465 117.146C32.3417 116.951 32.6583 116.951 32.8535 117.146L34.8535 119.146C35.0488 119.342 35.0488 119.658 34.8535 119.854L32.8535 121.854C32.6583 122.049 32.3417 122.049 32.1465 121.854C31.9512 121.658 31.9512 121.342 32.1465 121.146L33.793 119.5L32.1465 117.854C31.9512 117.658 31.9512 117.342 32.1465 117.146Z" fill="currentColor"/>
</svg>
