<svg xmlns="http://www.w3.org/2000/svg" width="16" height="16" viewBox="19.94 110.97 17.11 17.11" fill="none">
  <path d="M30.5 118C32.433 118 34 119.567 34 121.5C34 122.286 33.7404 123.011 33.3028 123.596L35.8536 126.146C36.0488 126.342 36.0488 126.658 35.8536 126.854C35.6583 127.049 35.3418 127.049 35.1465 126.854L32.5958 124.303C32.0115 124.74 31.2862 125 30.5 125C28.5671 125 27 123.433 27 121.5C27.0001 119.567 28.5671 118 30.5 118ZM30.5 119C29.1193 119 28.0001 120.119 28 121.5C28 122.881 29.1193 124 30.5 124C31.8807 124 33 122.881 33 121.5C33 120.119 31.8807 119 30.5 119Z" fill="currentColor"/>
  <path d="M32.3614 112C32.5715 112 32.7672 111.999 32.9307 112.016C33.1054 112.033 33.2854 112.074 33.46 112.18C33.6347 112.285 33.7544 112.426 33.8516 112.572C33.9425 112.709 34.033 112.882 34.1309 113.068L34.5166 113.801C34.6813 114.113 34.8328 114.398 34.9161 114.636C35.0014 114.879 35.0628 115.204 34.8741 115.517C34.6853 115.829 34.3695 115.927 34.1143 115.965C34.0779 115.97 34.0395 115.973 34 115.977V118.672C33.7149 118.319 33.3778 118.011 33 117.758V116H32.6182C32.4783 116 32.3347 116.001 32.2129 115.988C32.0797 115.974 31.9303 115.941 31.7833 115.851C31.6362 115.76 31.5398 115.64 31.4678 115.527C31.4021 115.424 31.339 115.296 31.2764 115.171L31 114.618V117.028C30.8359 117.01 30.669 117 30.5 117C30.3311 117 30.1642 117.01 30 117.028V114.618L29.7237 115.171C29.6611 115.296 29.597 115.424 29.5313 115.527C29.4594 115.64 29.3637 115.76 29.2168 115.851C29.0698 115.941 28.9195 115.974 28.7862 115.988C28.6645 116.001 28.5216 116 28.3819 116H23V122.5C23 123.221 23.0015 123.712 23.0508 124.079C23.0983 124.432 23.1817 124.596 23.293 124.707C23.4043 124.818 23.568 124.902 23.9209 124.949C24.2883 124.999 24.7791 125 25.5 125H27.6729C28.4456 125.625 29.4289 126 30.5 126H25.5C24.8072 126 24.2366 126.001 23.7872 125.94C23.3234 125.878 22.9139 125.742 22.586 125.414C22.258 125.086 22.122 124.677 22.0596 124.213C21.9992 123.763 22 123.193 22 122.5V115.977C21.9606 115.973 21.9222 115.97 21.8858 115.965C21.6306 115.927 21.3149 115.829 21.126 115.517C20.9372 115.204 20.9987 114.879 21.084 114.636C21.1673 114.398 21.3188 114.113 21.4834 113.801L21.8692 113.068C21.9671 112.882 22.0576 112.709 22.1485 112.572C22.2457 112.426 22.3654 112.285 22.5401 112.18C22.7147 112.074 22.8946 112.033 23.0694 112.016C23.233 111.999 23.4285 112 23.6387 112H32.3614ZM23.6387 113C23.4086 113 23.2724 113 23.1709 113.011C23.0827 113.02 23.0612 113.033 23.0567 113.036C23.0521 113.039 23.0304 113.051 22.9815 113.125C22.9251 113.21 22.8613 113.33 22.754 113.534L22.3682 114.267C22.188 114.609 22.0802 114.816 22.0274 114.967C22.0266 114.969 22.0262 114.972 22.0254 114.974C22.0276 114.974 22.03 114.975 22.0323 114.976C22.1901 114.999 22.4239 115 22.8106 115H28.3819C28.542 115 28.625 114.999 28.6836 114.993L28.6856 114.992L28.6875 114.99C28.7192 114.94 28.7575 114.867 28.8291 114.724L29.6905 113H23.6387ZM32.1709 114.724C32.2425 114.867 32.28 114.941 32.3116 114.99L32.3125 114.992L32.3155 114.993C32.3741 114.999 32.458 115 32.6182 115H33.1895C33.5762 115 33.81 114.999 33.9678 114.976L33.9737 114.974C33.973 114.972 33.9735 114.969 33.9727 114.967C33.9199 114.816 33.8122 114.609 33.6319 114.267L33.2461 113.534C33.1388 113.33 33.075 113.21 33.0186 113.125C32.9704 113.052 32.9485 113.039 32.9434 113.036C32.9392 113.034 32.9181 113.02 32.8291 113.011C32.7277 113 32.5915 113 32.3614 113H31.3096L32.1709 114.724Z" fill="currentColor"/>
</svg>
