<svg xmlns="http://www.w3.org/2000/svg" width="16" height="16" viewBox="20.5 111.5 15.0 15.0" fill="none">
  <path d="M24.6465 116.646C24.8417 116.451 25.1583 116.451 25.3535 116.646L27.3535 118.646C27.5488 118.842 27.5488 119.158 27.3535 119.354L25.3535 121.354C25.1583 121.549 24.8417 121.549 24.6465 121.354C24.4512 121.158 24.4512 120.842 24.6465 120.646L26.293 119L24.6465 117.354C24.4512 117.158 24.4512 116.842 24.6465 116.646Z" fill="currentColor"/>
  <path d="M30 112.5C30.9285 112.5 31.6751 112.499 32.2607 112.578C32.8608 112.659 33.3663 112.831 33.7676 113.232C34.1689 113.634 34.3412 114.139 34.4219 114.739C34.5006 115.325 34.5 116.072 34.5 117V121C34.5 121.928 34.5006 122.675 34.4219 123.261C34.3412 123.861 34.1689 124.366 33.7676 124.768C33.3663 125.169 32.8608 125.341 32.2607 125.422C31.6751 125.501 30.9285 125.5 30 125.5H26C25.0715 125.5 24.3249 125.501 23.7393 125.422C23.1392 125.341 22.6337 125.169 22.2324 124.768C21.8311 124.366 21.6588 123.861 21.5781 123.261C21.4994 122.675 21.5 121.928 21.5 121V117C21.5 116.072 21.4994 115.325 21.5781 114.739C21.6588 114.139 21.8311 113.634 22.2324 113.232C22.6337 112.831 23.1392 112.659 23.7393 112.578C24.3249 112.499 25.0715 112.5 26 112.5H30ZM26 113.5C25.0431 113.5 24.3756 113.501 23.8721 113.568C23.3829 113.634 23.124 113.755 22.9395 113.939C22.7549 114.124 22.6341 114.383 22.5684 114.872C22.5007 115.376 22.5 116.043 22.5 117V121C22.5 121.957 22.5007 122.624 22.5684 123.128C22.6341 123.617 22.7549 123.876 22.9395 124.061C23.124 124.245 23.3829 124.366 23.8721 124.432C24.3756 124.499 25.0431 124.5 26 124.5H29.5V113.5H26ZM30.5 124.496C31.1972 124.494 31.7171 124.487 32.1279 124.432C32.6171 124.366 32.876 124.245 33.0605 124.061C33.2451 123.876 33.3659 123.617 33.4316 123.128C33.4993 122.624 33.5 121.957 33.5 121V117C33.5 116.043 33.4993 115.376 33.4316 114.872C33.3659 114.383 33.2451 114.124 33.0605 113.939C32.876 113.755 32.6171 113.634 32.1279 113.568C31.7171 113.513 31.1972 113.505 30.5 113.503V124.496Z" fill="currentColor"/>
</svg>
