<svg xmlns="http://www.w3.org/2000/svg" width="16" height="16" viewBox="19.5 111.5 15.0 15.0" fill="none">
  <path d="M25.6465 116.646C25.8417 116.451 26.1583 116.451 26.3535 116.646C26.5488 116.842 26.5488 117.158 26.3535 117.354L24.707 119L26.3535 120.646C26.5488 120.842 26.5488 121.158 26.3535 121.354C26.1583 121.549 25.8417 121.549 25.6465 121.354L23.6465 119.354C23.4512 119.158 23.4512 118.842 23.6465 118.646L25.6465 116.646Z" fill="currentColor"/>
  <path d="M29 112.5C29.9285 112.5 30.6751 112.499 31.2607 112.578C31.8608 112.659 32.3663 112.831 32.7676 113.232C33.1689 113.634 33.3412 114.139 33.4219 114.739C33.5006 115.325 33.5 116.072 33.5 117V121C33.5 121.928 33.5006 122.675 33.4219 123.261C33.3412 123.861 33.1689 124.366 32.7676 124.768C32.3663 125.169 31.8608 125.341 31.2607 125.422C30.6751 125.501 29.9285 125.5 29 125.5H25C24.0715 125.5 23.3249 125.501 22.7393 125.422C22.1392 125.341 21.6337 125.169 21.2324 124.768C20.8311 124.366 20.6588 123.861 20.5781 123.261C20.4994 122.675 20.5 121.928 20.5 121V117C20.5 116.072 20.4994 115.325 20.5781 114.739C20.6588 114.139 20.8311 113.634 21.2324 113.232C21.6337 112.831 22.1392 112.659 22.7393 112.578C23.3249 112.499 24.0715 112.5 25 112.5H29ZM25 113.5C24.0431 113.5 23.3756 113.501 22.8721 113.568C22.3829 113.634 22.124 113.755 21.9395 113.939C21.7549 114.124 21.6341 114.383 21.5684 114.872C21.5007 115.376 21.5 116.043 21.5 117V121C21.5 121.957 21.5007 122.624 21.5684 123.128C21.6341 123.617 21.7549 123.876 21.9395 124.061C22.124 124.245 22.3829 124.366 22.8721 124.432C23.3756 124.499 24.0431 124.5 25 124.5H28.5V113.5H25ZM29.5 124.496C30.1972 124.494 30.7171 124.487 31.1279 124.432C31.6171 124.366 31.876 124.245 32.0605 124.061C32.2451 123.876 32.3659 123.617 32.4316 123.128C32.4993 122.624 32.5 121.957 32.5 121V117C32.5 116.043 32.4993 115.376 32.4316 114.872C32.3659 114.383 32.2451 114.124 32.0605 113.939C31.876 113.755 31.6171 113.634 31.1279 113.568C30.7171 113.513 30.1972 113.505 29.5 113.503V124.496Z" fill="currentColor"/>
</svg>
