<svg xmlns="http://www.w3.org/2000/svg" width="16" height="16" viewBox="21.0 112.0 15.0 15.0" fill="none">
  <path d="M30.5 113C31.4285 113 32.1751 112.999 32.7607 113.078C33.3608 113.159 33.8663 113.331 34.2676 113.732C34.6689 114.134 34.8412 114.639 34.9219 115.239C35.0006 115.825 35 116.572 35 117.5V121.5C35 122.428 35.0006 123.175 34.9219 123.761C34.8412 124.361 34.6689 124.866 34.2676 125.268C33.8663 125.669 33.3608 125.841 32.7607 125.922C32.1751 126.001 31.4285 126 30.5 126H26.5C25.5715 126 24.8249 126.001 24.2393 125.922C23.6392 125.841 23.1337 125.669 22.7324 125.268C22.3311 124.866 22.1588 124.361 22.0781 123.761C21.9994 123.175 22 122.428 22 121.5V117.5C22 116.572 21.9994 115.825 22.0781 115.239C22.1588 114.639 22.3311 114.134 22.7324 113.732C23.1337 113.331 23.6392 113.159 24.2393 113.078C24.8249 112.999 25.5715 113 26.5 113H30.5ZM23.0039 122C23.0059 122.697 23.0131 123.217 23.0684 123.628C23.1341 124.117 23.2549 124.376 23.4395 124.561C23.624 124.745 23.8829 124.866 24.3721 124.932C24.8756 124.999 25.5431 125 26.5 125H30.5C31.4569 125 32.1244 124.999 32.6279 124.932C33.1171 124.866 33.376 124.745 33.5605 124.561C33.7451 124.376 33.8659 124.117 33.9316 123.628C33.9869 123.217 33.9941 122.697 33.9961 122H23.0039ZM26.5 114C25.5431 114 24.8756 114.001 24.3721 114.068C23.8829 114.134 23.624 114.255 23.4395 114.439C23.2549 114.624 23.1341 114.883 23.0684 115.372C23.0007 115.876 23 116.543 23 117.5V121H34V117.5C34 116.543 33.9993 115.876 33.9316 115.372C33.8659 114.883 33.7451 114.624 33.5605 114.439C33.376 114.255 33.1171 114.134 32.6279 114.068C32.1244 114.001 31.4569 114 30.5 114H26.5Z" fill="currentColor"/>
</svg>
