<svg xmlns="http://www.w3.org/2000/svg" width="16" height="16" viewBox="19.56 110.66 16.8 16.8" fill="none">
  <path d="M28.4876 113.032C29.7442 111.656 31.9117 111.656 33.1682 113.032C34.2952 114.267 34.2695 116.165 33.1096 117.368L27.8567 122.818C27.1201 123.582 25.9003 123.595 25.1467 122.848C24.3987 122.106 24.3958 120.897 25.1409 120.152L30.1467 115.147C30.342 114.952 30.6586 114.951 30.8538 115.147C31.0488 115.342 31.0488 115.658 30.8538 115.854L25.8479 120.859C25.4945 121.212 25.496 121.786 25.8508 122.138C26.2082 122.492 26.7865 122.486 27.136 122.124L32.3889 116.675C33.1828 115.851 33.2009 114.552 32.4299 113.707C31.5699 112.765 30.0859 112.765 29.2258 113.707L23.8401 119.607C22.7177 120.836 22.7176 122.718 23.8401 123.947C25.1064 125.334 27.2859 125.347 28.5686 123.976L32.135 120.162C32.3236 119.961 32.6395 119.951 32.8411 120.139C33.0426 120.327 33.054 120.644 32.8655 120.846L29.2991 124.659C27.6179 126.457 24.7604 126.44 23.1008 124.622C21.6298 123.011 21.6298 120.543 23.1008 118.932L28.4876 113.032Z" fill="currentColor"/>
</svg>
