<svg xmlns="http://www.w3.org/2000/svg" width="16" height="16" viewBox="19.0 111.0 17.0 17.0" fill="none">
  <path d="M23.502 120C23.6978 120 23.876 120.115 23.957 120.293C24.2775 120.998 24.4135 121.293 24.5918 121.548C24.8268 121.884 25.1189 122.176 25.4551 122.411C25.7101 122.589 26.0049 122.725 26.71 123.046C26.8884 123.127 27.0029 123.306 27.0029 123.502C27.0027 123.698 26.8883 123.876 26.71 123.957C26.0049 124.278 25.7101 124.414 25.4551 124.592C25.1189 124.827 24.8268 125.119 24.5918 125.455C24.4135 125.71 24.2775 126.005 23.957 126.71C23.876 126.888 23.6978 127.003 23.502 127.003C23.3059 127.003 23.127 126.888 23.0459 126.71C22.7254 126.005 22.5894 125.71 22.4111 125.455C22.1762 125.119 21.884 124.827 21.5479 124.592C21.2928 124.414 20.998 124.278 20.293 123.957C20.1146 123.876 20.0002 123.698 20 123.502C20 123.306 20.1145 123.127 20.293 123.046C20.998 122.725 21.2928 122.589 21.5479 122.411C21.884 122.176 22.1762 121.884 22.4111 121.548C22.5894 121.293 22.7254 120.998 23.0459 120.293L23.0811 120.229C23.1721 120.088 23.3303 120 23.502 120ZM23.501 121.664C23.4123 121.833 23.3288 121.982 23.2314 122.121C22.9293 122.553 22.5534 122.929 22.1211 123.231C21.9818 123.329 21.8331 123.412 21.6641 123.501C21.8332 123.59 21.9817 123.674 22.1211 123.771C22.5534 124.074 22.9293 124.45 23.2314 124.882C23.3287 125.021 23.4125 125.169 23.501 125.338C23.5896 125.169 23.6742 125.021 23.7715 124.882C24.0736 124.45 24.4496 124.074 24.8818 123.771C25.0211 123.674 25.169 123.59 25.3379 123.501C25.1692 123.412 25.0209 123.329 24.8818 123.231C24.4496 122.929 24.0736 122.553 23.7715 122.121C23.674 121.982 23.5897 121.833 23.501 121.664Z" fill="currentColor"/>
  <path d="M26.5 112C27.193 112 27.7634 111.999 28.2129 112.06C28.6766 112.122 29.0861 112.258 29.4141 112.586C29.742 112.914 29.878 113.323 29.9404 113.787C30.0009 114.237 30 114.807 30 115.5V117H31.5C32.193 117 32.7634 116.999 33.2129 117.06C33.6766 117.122 34.0861 117.258 34.4141 117.586C34.742 117.914 34.878 118.323 34.9404 118.787C35.0009 119.237 35 119.807 35 120.5V122.5C35 123.193 35.0009 123.763 34.9404 124.213C34.878 124.677 34.742 125.086 34.4141 125.414C34.0861 125.742 33.6767 125.878 33.2129 125.94C32.7634 126.001 32.193 126 31.5 126H29.5C28.807 126 28.2366 126.001 27.7871 125.94C27.3234 125.878 26.9139 125.742 26.5859 125.414C26.518 125.346 26.4597 125.274 26.4072 125.199C26.5662 125.122 26.7893 125.019 27.124 124.867C27.2003 124.833 27.2719 124.791 27.3398 124.745C27.4505 124.836 27.6123 124.908 27.9209 124.949C28.2883 124.999 28.7789 125 29.5 125H31.5C32.2211 125 32.7117 124.999 33.0791 124.949C33.4321 124.902 33.5957 124.818 33.707 124.707C33.8183 124.596 33.9018 124.432 33.9492 124.079C33.9986 123.712 34 123.221 34 122.5V120.5C34 119.779 33.9986 119.288 33.9492 118.921C33.9018 118.568 33.8183 118.404 33.707 118.293C33.5957 118.182 33.4321 118.098 33.0791 118.051C32.7117 118.001 32.2211 118 31.5 118H29.9961C29.9935 118.472 29.9857 118.877 29.9404 119.213C29.9018 119.5 29.8338 119.765 29.7109 120.004L30.5 120.793L32.1465 119.146C32.3417 118.951 32.6583 118.951 32.8535 119.146C33.0488 119.342 33.0488 119.658 32.8535 119.854L31.207 121.5L32.8535 123.146C33.0488 123.342 33.0488 123.658 32.8535 123.854C32.6583 124.049 32.3417 124.049 32.1465 123.854L30.5 122.207L28.8535 123.854C28.6583 124.049 28.3417 124.049 28.1465 123.854C28.0548 123.762 28.0076 123.643 28.002 123.523C28.0021 123.517 28.0029 123.51 28.0029 123.503C28.0029 123.495 28.0021 123.486 28.002 123.478C28.0073 123.357 28.0546 123.238 28.1465 123.146L29.793 121.5L29.0039 120.711C28.7651 120.834 28.4997 120.902 28.2129 120.94C27.8765 120.986 27.4724 120.993 27 120.996V122.077C26.3628 121.787 26.1806 121.698 26.0283 121.592C26.0185 121.585 26.0098 121.576 26 121.569V121H25.4307C25.4244 120.991 25.4172 120.983 25.4111 120.975C25.3546 120.894 25.3025 120.805 25.2227 120.644L24.9238 120H26.5C27.2212 120 27.7117 119.999 28.0791 119.949C28.4321 119.902 28.5957 119.818 28.707 119.707C28.8183 119.596 28.9018 119.432 28.9492 119.079C28.9986 118.712 29 118.221 29 117.5V115.5C29 114.779 28.9986 114.288 28.9492 113.921C28.9018 113.568 28.8183 113.404 28.707 113.293C28.5957 113.182 28.4321 113.098 28.0791 113.051C27.7117 113.001 27.2212 113 26.5 113H24.5C23.7788 113 23.2883 113.001 22.9209 113.051C22.5679 113.098 22.4043 113.182 22.293 113.293C22.1817 113.404 22.0982 113.568 22.0508 113.921C22.0014 114.288 22 114.779 22 115.5V117.5C22 118.221 22.0014 118.712 22.0508 119.079C22.0927 119.391 22.1652 119.553 22.2578 119.664C22.2522 119.672 22.2457 119.68 22.2402 119.688C22.2284 119.707 22.2167 119.726 22.2061 119.745L22.1709 119.809L22.1357 119.879C21.984 120.213 21.88 120.435 21.8027 120.594C21.7275 120.541 21.6544 120.482 21.5859 120.414C21.258 120.086 21.122 119.677 21.0596 119.213C20.9991 118.763 21 118.193 21 117.5V115.5C21 114.807 20.9991 114.237 21.0596 113.787C21.122 113.323 21.258 112.914 21.5859 112.586C21.9139 112.258 22.3234 112.122 22.7871 112.06C23.2366 111.999 23.807 112 24.5 112H26.5Z" fill="currentColor"/>
  <path d="M27.1465 115.146C27.3417 114.951 27.6583 114.951 27.8535 115.146C28.0488 115.342 28.0488 115.658 27.8535 115.854L25.3535 118.354C25.1583 118.549 24.8417 118.549 24.6465 118.354L23.1465 116.854C22.9512 116.658 22.9512 116.342 23.1465 116.146C23.3417 115.951 23.6583 115.951 23.8535 116.146L25 117.293L27.1465 115.146Z" fill="currentColor"/>
</svg>
