<svg xmlns="http://www.w3.org/2000/svg" width="16" height="16" viewBox="21.0 112.0 14.0 14.0" fill="none">
  <path d="M24.5 113C24.9573 113 25.3507 112.999 25.6641 113.041C25.9918 113.085 26.3058 113.185 26.5605 113.439C26.8153 113.694 26.9149 114.008 26.959 114.336C27.0011 114.649 27 115.043 27 115.5V122.5C27 122.957 27.0011 123.351 26.959 123.664C26.9149 123.992 26.8153 124.306 26.5605 124.561C26.3058 124.815 25.9918 124.915 25.6641 124.959C25.3507 125.001 24.9573 125 24.5 125C24.0427 125 23.6493 125.001 23.3359 124.959C23.0082 124.915 22.6942 124.815 22.4395 124.561C22.1847 124.306 22.0851 123.992 22.041 123.664C21.9989 123.351 22 122.957 22 122.5V115.5C22 115.043 21.9989 114.649 22.041 114.336C22.0851 114.008 22.1847 113.694 22.4395 113.439C22.6942 113.185 23.0082 113.085 23.3359 113.041C23.6493 112.999 24.0427 113 24.5 113ZM24.5 114C24.0147 114 23.7009 114.001 23.4697 114.032C23.2529 114.061 23.1845 114.108 23.1465 114.146C23.1084 114.185 23.0614 114.253 23.0322 114.47C23.0012 114.701 23 115.015 23 115.5V122.5C23 122.985 23.0012 123.299 23.0322 123.53C23.0614 123.747 23.1084 123.815 23.1465 123.854C23.1845 123.892 23.2529 123.939 23.4697 123.968C23.7009 123.999 24.0147 124 24.5 124C24.9853 124 25.2991 123.999 25.5303 123.968C25.7471 123.939 25.8155 123.892 25.8535 123.854C25.8916 123.815 25.9386 123.747 25.9678 123.53C25.9988 123.299 26 122.985 26 122.5V115.5C26 115.015 25.9988 114.701 25.9678 114.47C25.9386 114.253 25.8916 114.185 25.8535 114.146C25.8155 114.108 25.7471 114.061 25.5303 114.032C25.2991 114.001 24.9853 114 24.5 114Z" fill="currentColor"/>
  <path d="M31.5 113C31.9573 113 32.3507 112.999 32.6641 113.041C32.9918 113.085 33.3058 113.185 33.5605 113.439C33.8153 113.694 33.9149 114.008 33.959 114.336C34.0011 114.649 34 115.043 34 115.5V122.5C34 122.957 34.0011 123.351 33.959 123.664C33.9149 123.992 33.8153 124.306 33.5605 124.561C33.3058 124.815 32.9918 124.915 32.6641 124.959C32.3507 125.001 31.9573 125 31.5 125C31.0427 125 30.6493 125.001 30.3359 124.959C30.0082 124.915 29.6942 124.815 29.4395 124.561C29.1847 124.306 29.0851 123.992 29.041 123.664C28.9989 123.351 29 122.957 29 122.5V115.5C29 115.043 28.9989 114.649 29.041 114.336C29.0851 114.008 29.1847 113.694 29.4395 113.439C29.6942 113.185 30.0082 113.085 30.3359 113.041C30.6493 112.999 31.0427 113 31.5 113ZM31.5 114C31.0147 114 30.7009 114.001 30.4697 114.032C30.2529 114.061 30.1845 114.108 30.1465 114.146C30.1084 114.185 30.0614 114.253 30.0322 114.47C30.0012 114.701 30 115.015 30 115.5V122.5C30 122.985 30.0012 123.299 30.0322 123.53C30.0614 123.747 30.1084 123.815 30.1465 123.854C30.1845 123.892 30.2529 123.939 30.4697 123.968C30.7009 123.999 31.0147 124 31.5 124C31.9853 124 32.2991 123.999 32.5303 123.968C32.7471 123.939 32.8155 123.892 32.8535 123.854C32.8916 123.815 32.9386 123.747 32.9678 123.53C32.9988 123.299 33 122.985 33 122.5V115.5C33 115.015 32.9988 114.701 32.9678 114.47C32.9386 114.253 32.8916 114.185 32.8535 114.146C32.8155 114.108 32.7471 114.061 32.5303 114.032C32.2991 114.001 31.9853 114 31.5 114Z" fill="currentColor"/>
</svg>
