<svg xmlns="http://www.w3.org/2000/svg" width="16" height="16" viewBox="19.61 110.0 17.03 17.03" fill="none">
  <path d="M30.5505 112.74C31.574 111.717 33.2338 111.717 34.2575 112.74C35.2811 113.764 35.281 115.424 34.2575 116.447L26.2448 124.461C25.9245 124.781 25.5231 125.009 25.0837 125.119L21.6208 125.984C21.4507 126.027 21.2702 125.977 21.1462 125.854C21.0223 125.729 20.9718 125.548 21.0143 125.378L21.8805 121.916C21.9904 121.477 22.2177 121.075 22.5378 120.755L24.8395 118.451C25.0638 118.726 25.379 118.912 25.7282 118.977L23.2448 121.462C23.0529 121.654 22.9161 121.895 22.8503 122.158L22.1862 124.812L24.8405 124.149C25.1042 124.083 25.3456 123.946 25.5378 123.754L32.2917 116.999L30.3815 115.089C30.4592 114.907 30.5024 114.708 30.5026 114.503C30.5026 114.047 30.2949 113.621 29.9499 113.34L30.5505 112.74ZM33.5505 113.447C32.9173 112.815 31.8906 112.814 31.2575 113.447L30.7057 113.999L32.9987 116.292L33.5505 115.74C34.1834 115.107 34.1835 114.08 33.5505 113.447Z" fill="currentColor"/>
  <path d="M26.0016 111C26.1975 111 26.3756 111.115 26.4567 111.293C26.7772 111.998 26.9133 112.293 27.0915 112.548C27.3264 112.884 27.6187 113.176 27.9548 113.411C28.2098 113.589 28.5047 113.725 29.2096 114.046C29.3881 114.127 29.5026 114.306 29.5026 114.502C29.5024 114.698 29.388 114.876 29.2096 114.957C28.5047 115.277 28.2098 115.414 27.9548 115.592C27.6187 115.827 27.3264 116.119 27.0915 116.455C26.9133 116.71 26.7772 117.005 26.4567 117.71C26.3756 117.888 26.1975 118.003 26.0016 118.003C25.8056 118.003 25.6267 117.888 25.5456 117.71C25.2251 117.005 25.0891 116.71 24.9108 116.455C24.6759 116.119 24.3836 115.827 24.0475 115.592C23.7925 115.414 23.4976 115.277 22.7927 114.957C22.6144 114.876 22.4999 114.698 22.4997 114.502C22.4997 114.306 22.6142 114.127 22.7927 114.046C23.4976 113.725 23.7925 113.589 24.0475 113.411C24.3836 113.176 24.6759 112.884 24.9108 112.548C25.0891 112.293 25.2251 111.998 25.5456 111.293L25.5807 111.229C25.6718 111.088 25.8301 111 26.0016 111ZM26.0007 112.664C25.912 112.833 25.8285 112.982 25.7311 113.121C25.429 113.553 25.053 113.929 24.6208 114.231C24.4815 114.329 24.3327 114.412 24.1637 114.501C24.3329 114.59 24.4814 114.674 24.6208 114.771C25.053 115.074 25.429 115.45 25.7311 115.882C25.8283 116.021 25.9122 116.169 26.0007 116.338C26.0892 116.169 26.1739 116.021 26.2712 115.882C26.5733 115.45 26.9493 115.074 27.3815 114.771C27.5207 114.674 27.6688 114.59 27.8376 114.501C27.669 114.413 27.5206 114.329 27.3815 114.231C26.9493 113.929 26.5733 113.553 26.2712 113.121C26.1737 112.982 26.0894 112.833 26.0007 112.664Z" fill="currentColor"/>
</svg>
