<svg xmlns="http://www.w3.org/2000/svg" width="16" height="16" viewBox="20.0 110.8 16.21 16.21" fill="none">
  <path d="M26.5 114C26.7761 114 27 114.224 27 114.5C26.9999 114.776 26.7761 115 26.5 115H25.5C24.5431 115 23.8756 115.001 23.3721 115.068C22.8829 115.134 22.624 115.255 22.4395 115.44C22.255 115.624 22.1341 115.883 22.0684 116.372C22.0007 116.876 22 117.543 22 118.5V121.5C22 122.457 22.0007 123.125 22.0684 123.628C22.1341 124.117 22.255 124.376 22.4395 124.561C22.624 124.745 22.8829 124.866 23.3721 124.932C23.8756 124.999 24.5431 125 25.5 125H28.5C29.4569 125 30.1244 124.999 30.6279 124.932C31.1171 124.866 31.376 124.745 31.5605 124.561C31.745 124.376 31.8659 124.117 31.9316 123.628C31.9993 123.125 32 122.457 32 121.5V120.5C32 120.224 32.2239 120 32.5 120C32.7761 120 33 120.224 33 120.5V121.5C33 122.429 33.0006 123.175 32.9219 123.761C32.8412 124.361 32.6688 124.866 32.2676 125.268C31.8663 125.669 31.3608 125.841 30.7607 125.922C30.1751 126.001 29.4285 126 28.5 126H25.5C24.5715 126 23.8249 126.001 23.2393 125.922C22.6392 125.841 22.1337 125.669 21.7324 125.268C21.3312 124.866 21.1588 124.361 21.0781 123.761C20.9994 123.175 21 122.429 21 121.5V118.5C21 117.572 20.9994 116.825 21.0781 116.239C21.1588 115.639 21.3312 115.134 21.7324 114.733C22.1337 114.331 22.6392 114.159 23.2393 114.078C23.8249 114 24.5715 114 25.5 114H26.5Z" fill="currentColor"/>
  <path d="M31.4277 112.614C32.2454 111.797 33.5715 111.797 34.3887 112.614C35.2053 113.432 35.2043 114.757 34.3877 115.574L28.0889 121.873C28.0342 121.928 27.9668 121.97 27.8936 121.994L24.9893 122.963C24.403 123.159 23.8449 122.601 24.04 122.015L25.0088 119.109L25.0576 119.003C25.0778 118.971 25.1017 118.939 25.1289 118.912L31.4277 112.614ZM25.9199 119.534L25.1465 121.857L27.4639 121.083L32.4199 116.127L30.874 114.581L25.9199 119.534ZM33.6816 113.321C33.2549 112.895 32.5618 112.895 32.1348 113.321L31.5811 113.874L33.127 115.42L33.6807 114.867C34.1068 114.441 34.1078 113.748 33.6816 113.321Z" fill="currentColor"/>
</svg>
