<svg xmlns="http://www.w3.org/2000/svg" width="16" height="16" viewBox="19.97 110.72 16.31 16.31" fill="none">
  <path d="M30.5505 112.74C31.5741 111.717 33.2339 111.717 34.2575 112.74C35.2811 113.764 35.281 115.424 34.2575 116.447L26.2448 124.461C25.9245 124.781 25.5233 125.009 25.0837 125.119L21.6208 125.984C21.4506 126.027 21.2703 125.977 21.1462 125.853C21.0222 125.729 20.9718 125.548 21.0144 125.378L21.8806 121.916C21.9905 121.477 22.2176 121.075 22.5378 120.755L30.5505 112.74ZM23.2448 121.462C23.0528 121.654 22.9162 121.895 22.8503 122.158L22.1862 124.812L24.8405 124.149C25.1043 124.083 25.3456 123.946 25.5378 123.754L32.2917 116.999L29.9987 114.706L23.2448 121.462ZM33.5505 113.447C32.9174 112.814 31.8906 112.814 31.2575 113.447L30.7058 113.999L32.9987 116.292L33.5505 115.74C34.1835 115.107 34.1836 114.08 33.5505 113.447Z" fill="currentColor"/>
</svg>
