<svg xmlns="http://www.w3.org/2000/svg" width="16" height="16" viewBox="20.94 110.94 14.12 14.12" fill="none">
  <path d="M31.5 118C32.8807 118 34 119.343 34 121C34 122.657 32.8807 124 31.5 124C30.1193 124 29 122.657 29 121C29 119.343 30.1193 118 31.5 118ZM31.5 119C30.8345 119 30 119.717 30 121C30 122.283 30.8345 123 31.5 123C32.1655 123 33 122.283 33 121C33 119.717 32.1655 119 31.5 119Z" fill="currentColor"/>
  <path d="M32.1133 112.184C32.2881 111.97 32.6027 111.938 32.8164 112.113C33.0301 112.288 33.0616 112.603 32.8867 112.816L23.8867 123.816C23.7119 124.03 23.3973 124.062 23.1836 123.887C22.9699 123.712 22.9384 123.397 23.1133 123.184L32.1133 112.184Z" fill="currentColor"/>
  <path d="M24.5 112C25.8807 112 27 113.343 27 115C27 116.657 25.8807 118 24.5 118C23.1193 118 22 116.657 22 115C22 113.343 23.1193 112 24.5 112ZM24.5 113C23.8345 113 23 113.717 23 115C23 116.283 23.8345 117 24.5 117C25.1655 117 26 116.283 26 115C26 113.717 25.1655 113 24.5 113Z" fill="currentColor"/>
</svg>
