<svg xmlns="http://www.w3.org/2000/svg" width="16" height="16" viewBox="19.66 110.39 16.69 16.69" fill="none">
  <path d="M21.7526 118.108C24.9398 114.071 31.0615 114.071 34.2487 118.108C35.3431 119.495 35.2273 121.482 33.9782 122.731L33.8229 122.886C33.3823 123.327 32.6911 123.395 32.1725 123.049L30.6208 122.015C29.9068 121.539 29.5691 120.665 29.777 119.833L29.9362 119.194C28.7914 118.325 27.2087 118.324 26.0641 119.194L26.2243 119.833C26.4321 120.665 26.0944 121.539 25.3805 122.015L23.8288 123.049C23.3102 123.395 22.6191 123.327 22.1784 122.886L22.0231 122.731C20.7738 121.482 20.658 119.495 21.7526 118.108ZM33.4635 118.727C30.6767 115.198 25.3245 115.198 22.5377 118.727C21.7573 119.716 21.8404 121.132 22.7311 122.023L22.8864 122.178C22.9901 122.282 23.1522 122.298 23.2741 122.217L24.8258 121.183C25.1881 120.941 25.359 120.497 25.2536 120.075L25.0729 119.352C24.9906 119.022 25.1081 118.674 25.3737 118.461C26.9093 117.233 29.0919 117.233 30.6276 118.461C30.8929 118.674 31.0107 119.022 30.9284 119.352L30.7477 120.075C30.6422 120.497 30.8131 120.941 31.1754 121.183L32.7272 122.217C32.8492 122.298 33.0113 122.282 33.1149 122.178L33.2702 122.023C34.1608 121.132 34.2437 119.716 33.4635 118.727Z" fill="currentColor"/>
</svg>
