<svg xmlns="http://www.w3.org/2000/svg" width="16" height="16" viewBox="18.81 111.0 16.24 16.24" fill="none">
  <path d="M24.0715 114.5C24.5807 114.5 25.0272 114.842 25.1604 115.333L25.7346 117.453C25.9389 118.208 25.6379 119.009 24.9875 119.442L24.5481 119.735C24.8069 121.114 25.8858 122.191 27.2649 122.45L27.5569 122.013C27.9907 121.362 28.7923 121.061 29.5471 121.266L31.6614 121.839C32.1561 121.973 32.5001 122.422 32.5002 122.935C32.5002 124.552 31.2351 125.886 29.6204 125.974L29.262 125.993C24.6714 126.241 20.8617 122.487 21.0413 117.894L21.0608 117.395C21.1241 115.778 22.4537 114.5 24.0715 114.5ZM24.0715 115.5C22.9908 115.5 22.1031 116.354 22.0608 117.434L22.0413 117.933C21.8847 121.938 25.2058 125.21 29.2082 124.994L29.5666 124.976C30.6508 124.917 31.5002 124.02 31.5002 122.935C31.5001 122.873 31.4587 122.82 31.3997 122.804L29.2854 122.23C28.9455 122.139 28.5843 122.274 28.3889 122.567L28.0559 123.067C27.8616 123.359 27.5145 123.509 27.1692 123.452C25.3128 123.143 23.8575 121.687 23.5481 119.831C23.4906 119.486 23.6414 119.139 23.9329 118.944L24.4329 118.61C24.7257 118.415 24.8608 118.054 24.7688 117.714L24.1946 115.595C24.1795 115.539 24.1291 115.5 24.0715 115.5Z" fill="currentColor"/>
  <path d="M29.4993 112C29.7754 112 29.9993 112.224 29.9993 112.5V118.5C29.9993 118.776 29.7754 119 29.4993 119C29.2232 119 28.9993 118.776 28.9993 118.5V112.5C28.9993 112.224 29.2232 112 29.4993 112Z" fill="currentColor"/>
  <path d="M32.4993 112C32.7754 112 32.9993 112.224 32.9993 112.5V118.5C32.9993 118.776 32.7754 119 32.4993 119C32.2232 119 31.9993 118.776 31.9993 118.5V112.5C31.9993 112.224 32.2232 112 32.4993 112Z" fill="currentColor"/>
</svg>
