<svg xmlns="http://www.w3.org/2000/svg" width="16" height="16" viewBox="19.31 111.0 16.24 16.24" fill="none">
  <path d="M24.072 114.5C24.5812 114.5 25.0277 114.842 25.1609 115.333L25.7351 117.453C25.9393 118.208 25.6384 119.009 24.988 119.442L24.5486 119.735C24.8074 121.114 25.8863 122.191 27.2654 122.45L27.5574 122.013C27.9912 121.362 28.7928 121.061 29.5476 121.266L31.6619 121.839C32.1566 121.973 32.5006 122.422 32.5007 122.935C32.5007 124.552 31.2356 125.886 29.6208 125.974L29.2624 125.993C24.6719 126.241 20.8622 122.487 21.0417 117.894L21.0613 117.395C21.1246 115.778 22.4542 114.5 24.072 114.5ZM24.072 115.5C22.9913 115.5 22.1036 116.354 22.0613 117.434L22.0417 117.933C21.8852 121.938 25.2063 125.21 29.2087 124.994L29.5671 124.976C30.6512 124.917 31.5007 124.02 31.5007 122.935C31.5006 122.873 31.4592 122.82 31.4001 122.804L29.2859 122.23C28.946 122.139 28.5848 122.274 28.3894 122.567L28.0564 123.067C27.8621 123.359 27.515 123.509 27.1697 123.452C25.3133 123.143 23.858 121.687 23.5486 119.831C23.4911 119.486 23.6419 119.139 23.9333 118.944L24.4333 118.61C24.7261 118.415 24.8613 118.054 24.7693 117.714L24.1951 115.595C24.18 115.539 24.1296 115.5 24.072 115.5Z" fill="currentColor"/>
  <path d="M30.4998 117C32.183 117 33.1696 117.575 33.6121 117.927C33.8958 118.152 33.9998 118.484 33.9998 118.771C33.9995 119.449 33.4492 120 32.7703 120H28.2292C27.5504 120 27 119.449 26.9998 118.771C26.9998 118.484 27.1038 118.152 27.3874 117.927C27.8299 117.575 28.8164 117 30.4998 117ZM30.4998 118C29.0632 118 28.2921 118.485 28.0095 118.71C28.013 118.707 28.0117 118.706 28.0085 118.714C28.0047 118.723 27.9998 118.742 27.9998 118.771C28 118.897 28.1027 119 28.2292 119H32.7703C32.8969 119 32.9995 118.897 32.9998 118.771C32.9998 118.742 32.9948 118.723 32.991 118.714C32.9878 118.706 32.9867 118.707 32.99 118.71C32.7073 118.485 31.9362 118 30.4998 118Z" fill="currentColor"/>
  <path d="M30.4998 112C31.6043 112 32.4998 112.895 32.4998 114C32.4998 115.105 31.6043 116 30.4998 116C29.3953 116 28.4998 115.104 28.4998 114C28.4998 112.896 29.3953 112 30.4998 112ZM30.4998 113C29.9476 113 29.4998 113.448 29.4998 114C29.4998 114.552 29.9476 115 30.4998 115C31.052 115 31.4998 114.552 31.4998 114C31.4998 113.448 31.052 113 30.4998 113Z" fill="currentColor"/>
</svg>
