<svg xmlns="http://www.w3.org/2000/svg" width="16" height="16" viewBox="19.25 111.0 16.75 16.75" fill="none">
  <path d="M33.9999 122.154C33.9997 122.006 33.8964 121.878 33.7519 121.846L31.0253 121.24C30.5828 121.142 30.1303 121.357 29.9276 121.763L29.6034 122.41C29.4136 122.79 29.0021 123.005 28.5819 122.944C26.2369 122.605 24.395 120.763 24.0556 118.418C23.9948 117.998 24.21 117.586 24.5897 117.396L25.2372 117.072C25.6426 116.87 25.8579 116.417 25.7597 115.975L25.1542 113.248C25.1221 113.104 24.9936 113 24.8456 113C23.4648 113 22.2951 114.019 22.1063 115.387L22.0771 115.598C21.3281 121.028 25.9722 125.672 31.4022 124.923L31.6132 124.894C32.9811 124.705 33.9999 123.535 33.9999 122.154ZM34.9999 122.154C34.9999 124.035 33.6125 125.627 31.7499 125.884L31.539 125.913C25.4525 126.753 20.2473 121.547 21.0868 115.461L21.1161 115.25C21.3732 113.387 22.9653 112 24.8456 112C25.4622 112 25.9958 112.428 26.1298 113.03L26.7362 115.758C26.9339 116.648 26.5002 117.559 25.6845 117.967L25.0468 118.285C25.3261 120.183 26.8161 121.672 28.7138 121.952L29.0331 121.315C29.441 120.5 30.3518 120.066 31.2421 120.264L33.9696 120.87C34.5715 121.004 34.9997 121.538 34.9999 122.154Z" fill="currentColor"/>
</svg>
