<svg xmlns="http://www.w3.org/2000/svg" width="16" height="16" viewBox="19.22 110.95 16.8 16.8" fill="none">
  <path d="M24.8453 112C25.4619 112 25.9956 112.428 26.1295 113.03L26.736 115.758C26.9337 116.648 26.5 117.559 25.6842 117.967L25.0465 118.285C25.3258 120.183 26.8161 121.672 28.7135 121.952L29.0328 121.315C29.4407 120.5 30.3516 120.066 31.2418 120.264L33.9694 120.87C34.5712 121.004 34.9995 121.538 34.9996 122.154C34.9996 124.035 33.6123 125.627 31.7496 125.884L31.5387 125.913C25.4524 126.752 20.2471 121.547 21.0866 115.461L21.1159 115.25C21.3729 113.388 22.9652 112 24.8453 112ZM24.8453 113C23.4647 113 22.2948 114.019 22.1061 115.387L22.0768 115.598C21.3279 121.028 25.9721 125.672 31.402 124.923L31.6129 124.894C32.9808 124.705 33.9996 123.535 33.9996 122.154C33.9995 122.006 33.8961 121.878 33.7516 121.846L31.025 121.24C30.5827 121.142 30.13 121.357 29.9274 121.763L29.6032 122.41C29.4133 122.79 29.0018 123.005 28.5817 122.944C26.2368 122.605 24.3947 120.763 24.0553 118.418C23.9946 117.998 24.21 117.586 24.5895 117.396L25.237 117.072C25.6423 116.87 25.8577 116.417 25.7594 115.975L25.1539 113.248C25.1218 113.104 24.9933 113 24.8453 113Z" fill="currentColor"/>
  <path d="M31.1461 112.146C31.3413 111.951 31.6579 111.951 31.8532 112.146L34.3532 114.646C34.5484 114.842 34.5484 115.158 34.3532 115.354C34.1579 115.549 33.8413 115.549 33.6461 115.354L31.9996 113.707V118.5C31.9996 118.776 31.7758 119 31.4996 119C31.2237 119 30.9996 118.776 30.9996 118.5V113.707L29.3532 115.354C29.1579 115.549 28.8413 115.549 28.6461 115.354C28.4511 115.158 28.4511 114.842 28.6461 114.646L31.1461 112.146Z" fill="currentColor"/>
</svg>
