<svg xmlns="http://www.w3.org/2000/svg" width="16" height="16" viewBox="19.31 110.95 16.29 16.29" fill="none">
  <path d="M24.0715 114.5C24.5807 114.5 25.0272 114.841 25.1604 115.333L25.7346 117.453C25.9388 118.208 25.6379 119.008 24.9875 119.442L24.5481 119.735C24.8069 121.114 25.8858 122.191 27.2649 122.45L27.5569 122.013C27.9907 121.362 28.7923 121.061 29.5471 121.266L31.6614 121.839C32.1561 121.973 32.5001 122.422 32.5002 122.934C32.5002 124.552 31.2351 125.886 29.6204 125.974L29.262 125.993C24.6714 126.241 20.8617 122.487 21.0413 117.893L21.0608 117.394C21.1241 115.778 22.4537 114.5 24.0715 114.5ZM24.0715 115.5C22.9908 115.5 22.1031 116.354 22.0608 117.434L22.0413 117.933C21.8847 121.938 25.2058 125.21 29.2082 124.994L29.5666 124.975C30.6507 124.917 31.5002 124.02 31.5002 122.934C31.5001 122.873 31.4587 122.82 31.3997 122.804L29.2854 122.23C28.9455 122.138 28.5843 122.274 28.3889 122.567L28.0559 123.067C27.8616 123.359 27.5145 123.509 27.1692 123.452C25.3128 123.143 23.8575 121.687 23.5481 119.831C23.4906 119.485 23.6414 119.139 23.9329 118.944L24.4329 118.61C24.7257 118.415 24.8608 118.054 24.7688 117.714L24.1946 115.595C24.1795 115.539 24.1291 115.5 24.0715 115.5Z" fill="currentColor"/>
  <path d="M33.1457 112.146C33.341 111.951 33.6575 111.951 33.8528 112.146C34.048 112.342 34.048 112.658 33.8528 112.853L31.2063 115.5L33.8528 118.146C34.048 118.342 34.048 118.658 33.8528 118.853C33.6575 119.049 33.341 119.049 33.1457 118.853L30.4993 116.207L27.8528 118.853C27.6575 119.049 27.341 119.049 27.1457 118.853C26.9506 118.658 26.9507 118.342 27.1457 118.146L29.7922 115.5L27.1457 112.853C26.9506 112.658 26.9507 112.342 27.1457 112.146C27.341 111.951 27.6575 111.951 27.8528 112.146L30.4993 114.793L33.1457 112.146Z" fill="currentColor"/>
</svg>
