<svg xmlns="http://www.w3.org/2000/svg" width="16" height="16" viewBox="19.69 110.92 16.36 16.36" fill="none">
  <path d="M29.0338 121.315C29.4418 120.5 30.3526 120.066 31.2428 120.264L33.9704 120.87C34.5719 121.004 35.0004 121.538 35.0006 122.154C35.0006 124.034 33.6129 125.626 31.7506 125.884L31.5397 125.913C29.1411 126.244 26.8808 125.633 25.0719 124.402L25.7926 123.682C27.3788 124.708 29.3334 125.208 31.403 124.923L31.6139 124.894C32.9815 124.705 34.0006 123.535 34.0006 122.154C34.0004 122.006 33.8968 121.878 33.7526 121.846L31.026 121.24C30.5837 121.142 30.1311 121.357 29.9284 121.763L29.6041 122.41C29.4144 122.79 29.0026 123.005 28.5827 122.944C28.0266 122.864 27.4985 122.698 27.0123 122.462L27.7731 121.701C28.0721 121.817 28.3871 121.904 28.7145 121.952L29.0338 121.315Z" fill="currentColor"/>
  <path d="M34.1461 112.146C34.3413 111.951 34.6579 111.951 34.8532 112.146C35.0484 112.342 35.0484 112.658 34.8532 112.854L21.8532 125.854C21.6579 126.049 21.3413 126.049 21.1461 125.854C20.9511 125.658 20.9511 125.342 21.1461 125.146L23.3717 122.92C21.6331 120.985 20.6931 118.321 21.0875 115.461L21.1168 115.25C21.374 113.387 22.9661 112 24.8463 112C25.4626 112 25.9966 112.429 26.1305 113.03L26.737 115.758C26.9346 116.648 26.5006 117.559 25.6852 117.967L25.0475 118.285C25.1616 119.06 25.479 119.765 25.942 120.35L34.1461 112.146ZM24.8463 113C23.4655 113 22.2959 114.019 22.1071 115.387L22.0778 115.598C21.7286 118.129 22.5516 120.489 24.0797 122.212L25.2291 121.062C24.6172 120.324 24.2008 119.416 24.0563 118.418C23.9955 117.998 24.2108 117.586 24.5905 117.396L25.2379 117.072C25.6429 116.869 25.8586 116.417 25.7604 115.975L25.1549 113.248C25.1229 113.104 24.9941 113 24.8463 113Z" fill="currentColor"/>
</svg>
