<svg xmlns="http://www.w3.org/2000/svg" width="16" height="16" viewBox="20.0 111.0 16.0 16.0" fill="none">
  <path d="M28 124C28.5523 124 29 124.448 29 125C29 125.552 28.5523 126 28 126C27.4477 126 27 125.552 27 125C27 124.448 27.4477 124 28 124Z" fill="currentColor"/>
  <path d="M24 120C24.5523 120 25 120.448 25 121C25 121.552 24.5523 122 24 122C23.4477 122 23 121.552 23 121C23 120.448 23.4477 120 24 120Z" fill="currentColor"/>
  <path d="M28 120C28.5523 120 29 120.448 29 121C29 121.552 28.5523 122 28 122C27.4477 122 27 121.552 27 121C27 120.448 27.4477 120 28 120Z" fill="currentColor"/>
  <path d="M32 120C32.5523 120 33 120.448 33 121C33 121.552 32.5523 122 32 122C31.4477 122 31 121.552 31 121C31 120.448 31.4477 120 32 120Z" fill="currentColor"/>
  <path d="M24 116C24.5523 116 25 116.448 25 117C25 117.552 24.5523 118 24 118C23.4477 118 23 117.552 23 117C23 116.448 23.4477 116 24 116Z" fill="currentColor"/>
  <path d="M28 116C28.5523 116 29 116.448 29 117C29 117.552 28.5523 118 28 118C27.4477 118 27 117.552 27 117C27 116.448 27.4477 116 28 116Z" fill="currentColor"/>
  <path d="M32 116C32.5523 116 33 116.448 33 117C33 117.552 32.5523 118 32 118C31.4477 118 31 117.552 31 117C31 116.448 31.4477 116 32 116Z" fill="currentColor"/>
  <path d="M24 112C24.5523 112 25 112.448 25 113C25 113.552 24.5523 114 24 114C23.4477 114 23 113.552 23 113C23 112.448 23.4477 112 24 112Z" fill="currentColor"/>
  <path d="M28 112C28.5523 112 29 112.448 29 113C29 113.552 28.5523 114 28 114C27.4477 114 27 113.552 27 113C27 112.448 27.4477 112 28 112Z" fill="currentColor"/>
  <path d="M32 112C32.5523 112 33 112.448 33 113C33 113.552 32.5523 114 32 114C31.4477 114 31 113.552 31 113C31 112.448 31.4477 112 32 112Z" fill="currentColor"/>
</svg>
