<svg xmlns="http://www.w3.org/2000/svg" width="16" height="16" viewBox="19.26 111.05 16.19 16.19" fill="none">
  <path d="M24.0715 114.499C24.5806 114.5 25.0272 114.841 25.1604 115.332L25.7346 117.452C25.9389 118.207 25.6378 119.008 24.9875 119.442L24.5481 119.735C24.8069 121.114 25.8858 122.191 27.2649 122.449L27.5569 122.012C27.9907 121.361 28.7924 121.06 29.5471 121.265L31.6614 121.838C32.1561 121.972 32.5 122.421 32.5002 122.934C32.5002 124.551 31.2351 125.886 29.6204 125.973L29.262 125.992C24.6714 126.24 20.8617 122.486 21.0413 117.893L21.0608 117.394C21.1242 115.777 22.4538 114.499 24.0715 114.499ZM24.0715 115.499C22.9909 115.499 22.1032 116.353 22.0608 117.433L22.0413 117.932C21.8847 121.937 25.2058 125.209 29.2082 124.993L29.5666 124.975C30.6507 124.916 31.5002 124.02 31.5002 122.934C31.5 122.873 31.4586 122.819 31.3997 122.803L29.2854 122.23C28.9456 122.138 28.5843 122.274 28.3889 122.567L28.0559 123.067C27.8616 123.358 27.5145 123.509 27.1692 123.451C25.3128 123.142 23.8575 121.687 23.5481 119.83C23.4907 119.485 23.6415 119.138 23.9329 118.944L24.4329 118.61C24.7256 118.414 24.8609 118.053 24.7688 117.713L24.1946 115.594C24.1794 115.538 24.1291 115.5 24.0715 115.499Z" fill="currentColor"/>
  <path d="M28.6477 112.27C29.0524 112.048 29.4678 112.153 29.8147 112.308C30.1596 112.462 30.5791 112.73 31.0735 113.044L32.2795 113.812C32.7124 114.087 33.0857 114.324 33.344 114.548C33.6086 114.777 33.8527 115.077 33.8528 115.499C33.8528 115.921 33.6086 116.221 33.344 116.45C33.0857 116.674 32.7126 116.911 32.2795 117.187L31.0735 117.954C30.579 118.269 30.1597 118.537 29.8147 118.691C29.4678 118.845 29.0525 118.951 28.6477 118.729C28.2432 118.506 28.1086 118.1 28.053 117.724C27.9977 117.35 27.9993 116.853 27.9993 116.267V114.732C27.9993 114.146 27.9977 113.648 28.053 113.275C28.1086 112.899 28.2431 112.492 28.6477 112.27ZM29.1291 113.147C29.1291 113.147 29.1214 113.149 29.1077 113.175C29.0886 113.212 29.0624 113.285 29.0422 113.421C29.0004 113.704 28.9993 114.112 28.9993 114.732V116.267C28.9993 116.887 29.0004 117.294 29.0422 117.577C29.0624 117.713 29.0886 117.787 29.1077 117.823C29.1208 117.849 29.1273 117.851 29.1291 117.852C29.1291 117.852 29.1344 117.857 29.1643 117.855C29.2056 117.851 29.2807 117.834 29.4065 117.778C29.6677 117.661 30.013 117.444 30.5364 117.111L31.7424 116.343C32.2035 116.05 32.5008 115.859 32.6897 115.696C32.7794 115.618 32.8205 115.565 32.8391 115.534C32.853 115.511 32.8528 115.504 32.8528 115.499C32.8528 115.495 32.8527 115.487 32.8391 115.464C32.8204 115.433 32.7791 115.38 32.6897 115.303C32.5008 115.139 32.2033 114.949 31.7424 114.656L30.5364 113.888C30.0132 113.555 29.6677 113.337 29.4065 113.221C29.2808 113.165 29.2055 113.147 29.1643 113.144C29.1345 113.141 29.1291 113.147 29.1291 113.147Z" fill="currentColor"/>
</svg>
