<svg xmlns="http://www.w3.org/2000/svg" width="16" height="16" viewBox="19.31 110.95 16.29 16.29" fill="none">
  <path d="M24.0715 114.5C24.5807 114.5 25.0272 114.841 25.1604 115.333L25.7346 117.453C25.9388 118.208 25.6379 119.008 24.9875 119.442L24.5481 119.735C24.8069 121.114 25.8858 122.191 27.2649 122.45L27.5569 122.013C27.9907 121.362 28.7923 121.061 29.5471 121.266L31.6614 121.839C32.1561 121.973 32.5001 122.422 32.5002 122.934C32.5002 124.552 31.2351 125.886 29.6204 125.974L29.262 125.993C24.6714 126.241 20.8617 122.487 21.0413 117.893L21.0608 117.394C21.1241 115.778 22.4537 114.5 24.0715 114.5ZM24.0715 115.5C22.9908 115.5 22.1031 116.354 22.0608 117.434L22.0413 117.933C21.8847 121.938 25.2058 125.21 29.2082 124.994L29.5666 124.975C30.6507 124.917 31.5002 124.02 31.5002 122.934C31.5001 122.873 31.4587 122.82 31.3997 122.804L29.2854 122.23C28.9455 122.138 28.5843 122.274 28.3889 122.567L28.0559 123.067C27.8616 123.359 27.5145 123.509 27.1692 123.452C25.3128 123.143 23.8575 121.687 23.5481 119.831C23.4906 119.485 23.6414 119.139 23.9329 118.944L24.4329 118.61C24.7257 118.415 24.8608 118.054 24.7688 117.714L24.1946 115.595C24.1795 115.539 24.1291 115.5 24.0715 115.5Z" fill="currentColor"/>
  <path d="M33.4993 116C33.7754 116 33.9993 116.224 33.9993 116.5C33.9992 116.776 33.7754 117 33.4993 117H28.7063L29.8528 118.146C30.048 118.342 30.048 118.658 29.8528 118.853C29.6575 119.049 29.341 119.049 29.1457 118.853L27.1457 116.853C27.1122 116.82 27.0867 116.782 27.0647 116.742C27.0245 116.67 26.9993 116.588 26.9993 116.5C26.9993 116.411 27.0242 116.329 27.0647 116.257C27.0706 116.246 27.0755 116.235 27.0823 116.225L27.1457 116.146C27.1694 116.123 27.1949 116.101 27.2229 116.082C27.2308 116.077 27.2402 116.074 27.2483 116.069C27.2677 116.058 27.2869 116.046 27.3079 116.037C27.3265 116.029 27.3462 116.025 27.3655 116.019C27.3772 116.016 27.3886 116.011 27.4006 116.009C27.4331 116.002 27.4663 116 27.4993 116H33.4993Z" fill="currentColor"/>
  <path d="M31.1457 112.146C31.341 111.951 31.6575 111.951 31.8528 112.146L33.8528 114.146C34.0245 114.318 34.0446 114.583 33.9143 114.777C33.8774 114.832 33.8308 114.88 33.7756 114.917C33.7714 114.92 33.7663 114.921 33.762 114.924C33.7119 114.955 33.6567 114.978 33.5969 114.99C33.5647 114.997 33.532 115 33.4993 115H27.4993C27.2232 115 26.9993 114.776 26.9993 114.5C26.9993 114.224 27.2232 114 27.4993 114H32.2922L31.1457 112.853C30.9506 112.658 30.9507 112.342 31.1457 112.146Z" fill="currentColor"/>
</svg>
