<svg xmlns="http://www.w3.org/2000/svg" width="16" height="16" viewBox="21.0 110.5 15.0 15.0" fill="none">
  <path d="M34.5 112C34.7761 112 35 112.224 35 112.5C35 112.776 34.7761 113 34.5 113H32V123.5C32 123.776 31.7761 124 31.5 124C31.2239 124 31 123.776 31 123.5V113H28V123.5C28 123.776 27.7761 124 27.5 124C27.2239 124 27 123.776 27 123.5V119H25.5C23.567 119 22 117.433 22 115.5C22 113.567 23.567 112 25.5 112H34.5ZM25.5 113C24.1193 113 23 114.119 23 115.5C23 116.881 24.1193 118 25.5 118H27V113H25.5Z" fill="currentColor"/>
</svg>
