<svg xmlns="http://www.w3.org/2000/svg" width="16" height="16" viewBox="19.99 111.0 16.0 16.0" fill="none">
  <path d="M27.9943 112C24.1319 112 21 115.132 21 118.994C21 121.959 22.842 124.492 25.4443 125.51C25.3809 124.958 25.3289 124.106 25.4668 123.502C25.5937 122.955 26.2847 120.024 26.2847 120.024C26.2847 120.024 26.0773 119.605 26.0773 118.989C26.0773 118.016 26.6414 117.29 27.3438 117.29C27.9423 117.29 28.2306 117.739 28.2306 118.275C28.2306 118.873 27.8504 119.772 27.649 120.606C27.4822 121.303 28.0002 121.872 28.6852 121.872C29.9287 121.872 30.8839 120.56 30.8839 118.672C30.8839 116.997 29.6809 115.828 27.9598 115.828C25.9679 115.828 24.7989 117.319 24.7989 118.862C24.7989 119.461 25.0292 120.105 25.3175 120.457C25.3749 120.525 25.3809 120.589 25.3634 120.658C25.312 120.877 25.1911 121.354 25.1681 121.452C25.1391 121.579 25.0642 121.608 24.9318 121.544C24.0565 121.136 23.5094 119.864 23.5094 118.833C23.5094 116.628 25.1106 114.602 28.1321 114.602C30.5562 114.602 32.4441 116.329 32.4441 118.643C32.4441 121.055 30.9243 122.995 28.8171 122.995C28.1092 122.995 27.4417 122.627 27.2169 122.189C27.2169 122.189 26.8657 123.525 26.7793 123.853C26.6244 124.463 26.1982 125.223 25.9105 125.689C26.5669 125.891 27.2574 126 27.9828 126C31.8456 126 34.977 122.869 34.977 119.006C34.9885 115.132 31.8566 112 27.9943 112Z" fill="currentColor"/>
</svg>
