<svg xmlns="http://www.w3.org/2000/svg" width="16" height="16" viewBox="20.0 111.0 16.0 16.0" fill="none">
  <path d="M27.6475 115.174C28.0217 114.968 28.41 115.043 28.7412 115.168C29.0681 115.291 29.4653 115.512 29.9307 115.769C30.4268 116.042 30.849 116.272 31.1416 116.493C31.4351 116.715 31.7212 117.016 31.7354 117.461C31.7362 117.487 31.7362 117.514 31.7354 117.541C31.7209 117.986 31.435 118.286 31.1416 118.508C30.849 118.729 30.4268 118.959 29.9307 119.232C29.4652 119.489 29.0672 119.709 28.7402 119.832C28.4091 119.956 28.0216 120.032 27.6475 119.826C27.6249 119.814 27.6018 119.801 27.5801 119.787C27.2195 119.558 27.0994 119.182 27.0488 118.832C26.9989 118.486 27 118.032 27 117.5C27 116.969 26.9989 116.514 27.0488 116.168C27.0995 115.818 27.2204 115.441 27.5811 115.213C27.6026 115.199 27.6251 115.186 27.6475 115.174ZM28.1289 116.05C28.1247 116.052 28.1203 116.055 28.1162 116.058C28.1162 116.058 28.1086 116.061 28.0957 116.087C28.0787 116.121 28.0559 116.188 28.0381 116.312C28.0009 116.569 28 116.936 28 117.5C28 118.064 28.0009 118.432 28.0381 118.689C28.0559 118.812 28.0788 118.879 28.0957 118.913C28.1086 118.939 28.1162 118.942 28.1162 118.942C28.1203 118.945 28.1247 118.948 28.1289 118.95C28.1306 118.951 28.1374 118.955 28.1641 118.954C28.2026 118.952 28.2725 118.94 28.3887 118.896C28.6319 118.805 28.9544 118.628 29.4482 118.356C29.9729 118.068 30.3177 117.877 30.5391 117.71C30.6456 117.63 30.6973 117.574 30.7207 117.54C30.7306 117.526 30.7335 117.517 30.7344 117.515C30.7344 117.515 30.7352 117.512 30.7354 117.509C30.7355 117.503 30.7355 117.498 30.7354 117.492C30.7352 117.489 30.7344 117.486 30.7344 117.486C30.7334 117.484 30.7305 117.475 30.7207 117.461C30.6973 117.427 30.6455 117.371 30.5391 117.291C30.3178 117.124 29.9737 116.932 29.4492 116.644C28.9553 116.372 28.6319 116.196 28.3887 116.104C28.2725 116.061 28.2026 116.048 28.1641 116.046C28.1374 116.045 28.1306 116.049 28.1289 116.05Z" fill="currentColor"/>
  <path d="M31.5 112C32.8807 112 34 113.119 34 114.5V123.5C34 124.881 32.8807 126 31.5 126H24C22.8954 126 22 125.105 22 124V114.5C22 113.119 23.1193 112 24.5 112H31.5ZM33 122.496C32.5818 122.811 32.0637 123 31.5 123H24C23.4477 123 23 123.448 23 124C23 124.552 23.4477 125 24 125H31.5C32.3284 125 33 124.328 33 123.5V122.496ZM24 113.087C23.4177 113.293 23 113.847 23 114.5V122.27C23.2944 122.099 23.6354 122 24 122V113.087ZM25 122H31.5C32.2767 122 32.9154 121.41 32.9922 120.653L33 120.5V114.5C33 113.672 32.3284 113 31.5 113H25V122Z" fill="currentColor"/>
</svg>
