<svg xmlns="http://www.w3.org/2000/svg" width="16" height="16" viewBox="21.42 111.96 14.16 14.16" fill="none">
  <path d="M23.998 113.293C24.5721 112.961 25.195 113.06 25.835 113.31C26.4707 113.56 27.2581 114.013 28.2422 114.578L30.7256 116.004C31.7175 116.573 32.5123 117.027 33.0518 117.453C33.5945 117.882 33.997 118.372 33.9971 119.039C33.9971 119.706 33.5945 120.196 33.0518 120.625C32.5124 121.051 31.7183 121.506 30.7266 122.075L28.2422 123.501C27.2581 124.066 26.4707 124.519 25.835 124.768C25.1948 125.019 24.5722 125.118 23.998 124.786C23.424 124.454 23.1996 123.864 23.0986 123.184C22.9984 122.509 23 121.6 23 120.465V117.614C23 116.48 22.9984 115.571 23.0986 114.895C23.1996 114.215 23.424 113.625 23.998 113.293ZM25.4697 114.242C24.9242 114.028 24.6732 114.057 24.499 114.158C24.3249 114.259 24.174 114.462 24.0879 115.042C24.0011 115.626 24 116.446 24 117.614V120.465C24 121.633 24.0011 122.452 24.0879 123.037C24.174 123.617 24.3249 123.82 24.499 123.921C24.6732 124.022 24.924 124.051 25.4697 123.837C26.0199 123.621 26.7307 123.214 27.7441 122.633L30.2285 121.208C31.2498 120.622 31.9654 120.209 32.4326 119.84C32.8963 119.473 32.9971 119.241 32.9971 119.039C32.997 118.837 32.8963 118.604 32.4326 118.238C31.9654 117.869 31.2497 117.457 30.2285 116.871L27.7441 115.445C26.7309 114.864 26.0198 114.458 25.4697 114.242Z" fill="currentColor"/>
</svg>
