<svg xmlns="http://www.w3.org/2000/svg" width="16" height="16" viewBox="19.95 110.95 16.1 16.1" fill="none">
  <path d="M26.1464 117.146C26.3416 116.951 26.6581 116.951 26.8534 117.146C27.0485 117.342 27.0486 117.658 26.8534 117.853L25.7069 119L27.9999 121.293L29.1464 120.146C29.3416 119.951 29.6581 119.951 29.8534 120.146C30.0484 120.342 30.0486 120.658 29.8534 120.853L28.7069 122L29.8534 123.146C30.0485 123.342 30.0486 123.658 29.8534 123.853C29.6582 124.049 29.3416 124.048 29.1464 123.853L28.9999 123.707L28.3534 124.353C28.0138 124.693 27.8078 124.9 27.6044 125.054C26.3581 125.992 24.6417 125.992 23.3954 125.054C23.274 124.962 23.1528 124.851 23.0018 124.704L21.8534 125.853C21.6582 126.048 21.3416 126.048 21.1464 125.853C20.9512 125.658 20.9513 125.342 21.1464 125.146L22.2948 123.997C22.1487 123.846 22.0373 123.725 21.9462 123.604C21.0082 122.358 21.0082 120.642 21.9462 119.395C22.0993 119.192 22.3067 118.986 22.6464 118.646L23.2929 118L23.1464 117.853C22.9511 117.658 22.9511 117.342 23.1464 117.146C23.3416 116.951 23.6581 116.951 23.8534 117.146L24.9999 118.293L26.1464 117.146ZM23.3534 119.353C22.9897 119.717 22.8452 119.864 22.745 119.997C22.0753 120.887 22.0753 122.113 22.745 123.003C22.8452 123.136 22.9896 123.283 23.3534 123.646C23.7172 124.01 23.8638 124.155 23.997 124.255C24.8871 124.924 26.1127 124.924 27.0028 124.255C27.136 124.155 27.2827 124.01 27.6464 123.646L28.2929 123L23.9999 118.707L23.3534 119.353Z" fill="currentColor"/>
  <path d="M34.1464 112.146C34.3416 111.951 34.6581 111.951 34.8534 112.146C35.0484 112.342 35.0485 112.658 34.8534 112.853L33.704 114.002C33.8505 114.153 33.9623 114.274 34.0536 114.395C34.9915 115.642 34.9915 117.358 34.0536 118.604C33.9005 118.808 33.6931 119.014 33.3534 119.353L32.7069 120L32.8534 120.146C33.0486 120.342 33.0485 120.658 32.8534 120.853C32.6581 121.049 32.3416 121.049 32.1464 120.853L26.1464 114.853C25.9511 114.658 25.9511 114.342 26.1464 114.146C26.3416 113.951 26.6582 113.951 26.8534 114.146L26.9999 114.293L27.6464 113.646C27.9861 113.307 28.192 113.099 28.3954 112.946C29.6417 112.008 31.3581 112.008 32.6044 112.946C32.7255 113.037 32.8464 113.149 32.997 113.295L34.1464 112.146ZM32.0028 113.745C31.1127 113.075 29.8871 113.075 28.997 113.745C28.8638 113.845 28.7172 113.99 28.3534 114.353L27.7069 115L31.9999 119.293L32.6464 118.646C33.0101 118.283 33.1545 118.136 33.2548 118.003C33.9245 117.113 33.9244 115.887 33.2548 114.997C33.1545 114.864 33.0101 114.717 32.6464 114.353C32.2827 113.99 32.136 113.845 32.0028 113.745Z" fill="currentColor"/>
</svg>
