<svg xmlns="http://www.w3.org/2000/svg" width="16" height="16" viewBox="20.0 111.0 16.0 16.0" fill="none">
  <path d="M28.5 112C28.7761 112 29 112.224 29 112.5C29 112.776 28.7761 113 28.5 113H27.5C26.0717 113 25.0503 113.001 24.2744 113.105C23.5132 113.208 23.0633 113.402 22.7324 113.732C22.4015 114.063 22.2079 114.513 22.1055 115.274C22.0012 116.05 22 117.072 22 118.5V119.5C22 120.928 22.0012 121.95 22.1055 122.726C22.2079 123.487 22.4015 123.937 22.7324 124.268C23.0633 124.598 23.5132 124.792 24.2744 124.895C25.0503 124.999 26.0717 125 27.5 125H28.5C29.9283 125 30.9497 124.999 31.7256 124.895C32.4868 124.792 32.9367 124.598 33.2676 124.268C33.5985 123.937 33.7921 123.487 33.8945 122.726C33.9988 121.95 34 120.928 34 119.5V118.5C34 118.224 34.2239 118 34.5 118C34.7761 118 35 118.224 35 118.5V119.5C35 120.9 35.0011 122 34.8857 122.858C34.7685 123.731 34.5223 124.427 33.9746 124.975C33.4269 125.522 32.7308 125.768 31.8584 125.886C31.0004 126.001 29.9001 126 28.5 126H27.5C26.0999 126 24.9996 126.001 24.1416 125.886C23.2692 125.768 22.5731 125.522 22.0254 124.975C21.4777 124.427 21.2315 123.731 21.1143 122.858C20.9989 122 21 120.9 21 119.5V118.5C21 117.1 20.9989 116 21.1143 115.142C21.2315 114.269 21.4777 113.573 22.0254 113.025C22.5731 112.478 23.2692 112.232 24.1416 112.114C24.9996 111.999 26.0999 112 27.5 112H28.5Z" fill="currentColor"/>
  <path d="M33.1465 113.146C33.3417 112.951 33.6583 112.951 33.8535 113.146C34.0488 113.342 34.0488 113.658 33.8535 113.854L27.707 120H31.5C31.7761 120 32 120.224 32 120.5C32 120.776 31.7761 121 31.5 121H26.5C26.2239 121 26 120.776 26 120.5V115.5C26 115.224 26.2239 115 26.5 115C26.7761 115 27 115.224 27 115.5V119.293L33.1465 113.146Z" fill="currentColor"/>
</svg>
