<svg xmlns="http://www.w3.org/2000/svg" width="16" height="16" viewBox="20.5 111.0 16.0 16.0" fill="none">
  <path d="M31.0674 114.053C31.2056 113.814 31.511 113.732 31.75 113.87C33.6915 114.993 35 117.093 35 119.5C35 123.09 32.0899 126 28.5 126C24.9101 126 22 123.09 22 119.5C22 117.093 23.3085 114.993 25.25 113.87C25.489 113.732 25.7944 113.814 25.9326 114.053C26.0707 114.292 25.989 114.597 25.75 114.735C24.1049 115.687 23 117.465 23 119.5C23 122.538 25.4624 125 28.5 125C31.5376 125 34 122.538 34 119.5C34 117.465 32.8951 115.687 31.25 114.735C31.011 114.597 30.9293 114.292 31.0674 114.053Z" fill="currentColor"/>
  <path d="M28.5 112C28.7761 112 29 112.224 29 112.5V118.5C29 118.776 28.7761 119 28.5 119C28.2239 119 28 118.776 28 118.5V112.5C28 112.224 28.2239 112 28.5 112Z" fill="currentColor"/>
</svg>
