<svg xmlns="http://www.w3.org/2000/svg" width="16" height="16" viewBox="22.5 114.5 12.0 12.0" fill="none">
  <path d="M30.6036 119.854C30.7988 119.658 30.7988 119.342 30.6036 119.146C30.4083 118.951 30.0917 118.951 29.8964 119.146L28 121.043L27.1036 120.146C26.9083 119.951 26.5917 119.951 26.3964 120.146C26.2012 120.342 26.2012 120.658 26.3964 120.854L27.6464 122.104C27.8417 122.299 28.1583 122.299 28.3536 122.104L30.6036 119.854Z" fill="currentColor"/>
  <path d="M24 120.5C24 122.985 26.0147 125 28.5 125C30.9853 125 33 122.985 33 120.5C33 118.015 30.9853 116 28.5 116C26.0147 116 24 118.015 24 120.5ZM25 120.5C25 118.567 26.567 117 28.5 117C30.433 117 32 118.567 32 120.5C32 122.433 30.433 124 28.5 124C26.567 124 25 122.433 25 120.5Z" fill="currentColor"/>
</svg>
