<svg xmlns="http://www.w3.org/2000/svg" width="16" height="16" viewBox="22.5 114.5 12.0 12.0" fill="none">
  <path d="M28.5 116C26.0147 116 24 118.015 24 120.5C24 122.985 26.0147 125 28.5 125C30.9853 125 33 122.985 33 120.5C33 118.015 30.9853 116 28.5 116ZM31.3037 118.403C31.7414 118.988 32 119.714 32 120.5C32 122.433 30.433 124 28.5 124C27.7138 124 26.9886 123.74 26.4043 123.303L31.3037 118.403ZM28.5 117C29.2862 117 30.0124 117.259 30.5967 117.696L25.6973 122.596C25.2597 122.011 25 121.286 25 120.5C25 118.567 26.567 117 28.5 117Z" fill="currentColor"/>
</svg>
