<svg xmlns="http://www.w3.org/2000/svg" width="16" height="16" viewBox="20.0 111.0 16.0 16.0" fill="none">
  <path d="M24 117C24.5523 117 25 117.448 25 118C25 118.552 24.5523 119 24 119C23.4477 119 23 118.552 23 118C23 117.448 23.4477 117 24 117Z" fill="currentColor"/>
  <path d="M30.5 112C30.9571 112 31.3508 111.999 31.6641 112.041C31.9917 112.085 32.3058 112.185 32.5605 112.439C32.8152 112.694 32.9149 113.008 32.959 113.336C33.0011 113.649 33 114.043 33 114.5V115.117C33.4961 115.211 33.9208 115.386 34.2676 115.732C34.6689 116.134 34.8412 116.639 34.9219 117.239C35.0006 117.825 35 118.572 35 119.5V120.9C35 121.263 35.0006 121.586 34.9658 121.845C34.9291 122.118 34.8446 122.394 34.6191 122.619C34.3937 122.845 34.1179 122.929 33.8447 122.966C33.6098 122.997 33.3224 122.999 33 122.999V123.5C33 123.957 33.0011 124.351 32.959 124.664C32.9149 124.992 32.8153 125.306 32.5605 125.561C32.3058 125.815 31.9918 125.915 31.6641 125.959C31.3507 126.001 30.9573 126 30.5 126H25.5C25.0427 126 24.6493 126.001 24.3359 125.959C24.0082 125.915 23.6942 125.815 23.4395 125.561C23.1847 125.306 23.0851 124.992 23.041 124.664C22.9989 124.351 23 123.957 23 123.5V122.999C22.6776 122.999 22.3902 122.997 22.1553 122.966C21.8821 122.929 21.6063 122.845 21.3809 122.619C21.1554 122.394 21.0709 122.118 21.0342 121.845C20.9994 121.586 21 121.263 21 120.9V119.5C21 118.572 20.9994 117.825 21.0781 117.239C21.1588 116.639 21.3311 116.134 21.7324 115.732C22.0789 115.386 22.5033 115.211 22.999 115.117V114.5C22.999 114.043 22.9979 113.649 23.04 113.336C23.0841 113.008 23.1837 112.694 23.4385 112.439C23.6932 112.185 24.0073 112.085 24.335 112.041C24.6483 111.999 25.0419 112 25.499 112H30.5ZM25.0996 121C24.7088 121 24.4658 121.001 24.2891 121.024C24.1267 121.046 24.0967 121.079 24.0879 121.088C24.0791 121.097 24.0462 121.127 24.0244 121.289C24.0007 121.466 24 121.709 24 122.1V123.5C24 123.985 24.0012 124.299 24.0322 124.53C24.0614 124.747 24.1084 124.815 24.1465 124.854C24.1845 124.892 24.2529 124.939 24.4697 124.968C24.7009 124.999 25.0147 125 25.5 125H30.5C30.9853 125 31.2991 124.999 31.5303 124.968C31.7471 124.939 31.8155 124.892 31.8535 124.854C31.8916 124.815 31.9386 124.747 31.9678 124.53C31.9988 124.299 32 123.985 32 123.5V122.1C32 121.709 31.9993 121.466 31.9756 121.289C31.9538 121.127 31.9209 121.097 31.9121 121.088C31.9033 121.079 31.8733 121.046 31.7109 121.024C31.5342 121.001 31.2912 121 30.9004 121H25.0996ZM25.5 116C24.5431 116 23.8756 116.001 23.3721 116.068C22.8829 116.134 22.624 116.255 22.4395 116.439C22.2549 116.624 22.1341 116.883 22.0684 117.372C22.0007 117.876 22 118.543 22 119.5V120.9C22 121.291 22.0007 121.534 22.0244 121.711C22.0462 121.873 22.0791 121.903 22.0879 121.912C22.0967 121.921 22.1267 121.954 22.2891 121.976C22.4502 121.997 22.6666 121.999 23 121.999C23.0002 121.677 23.0026 121.39 23.0342 121.155C23.0709 120.882 23.1554 120.606 23.3809 120.381C23.6063 120.155 23.8821 120.071 24.1553 120.034C24.4141 119.999 24.7368 120 25.0996 120H30.9004C31.2632 120 31.5859 119.999 31.8447 120.034C32.1179 120.071 32.3937 120.155 32.6191 120.381C32.8446 120.606 32.9291 120.882 32.9658 121.155C32.9974 121.39 32.9988 121.677 32.999 121.999C33.333 121.999 33.5496 121.997 33.7109 121.976C33.8733 121.954 33.9033 121.921 33.9121 121.912C33.9209 121.903 33.9538 121.873 33.9756 121.711C33.9993 121.534 34 121.291 34 120.9V119.5C34 118.543 33.9993 117.876 33.9316 117.372C33.8659 116.883 33.7451 116.624 33.5605 116.439C33.376 116.255 33.1171 116.134 32.6279 116.068C32.1244 116.001 31.4569 116 30.5 116H25.5ZM25.499 113C25.0139 113 24.6999 113.001 24.4688 113.032C24.2521 113.061 24.1836 113.108 24.1455 113.146C24.1074 113.185 24.0604 113.253 24.0313 113.47C24.0002 113.701 23.999 114.015 23.999 114.5V115.02C24.4348 115.002 24.9335 115 25.5 115H30.5C31.066 115 31.5644 115.002 32 115.02V114.5C32 114.015 31.9988 113.701 31.9678 113.47C31.9386 113.253 31.8916 113.185 31.8535 113.146C31.8155 113.108 31.7474 113.061 31.5313 113.032C31.3 113.001 30.9854 113 30.5 113H25.499Z" fill="currentColor"/>
</svg>
