<svg xmlns="http://www.w3.org/2000/svg" width="16" height="16" viewBox="20.0 111.5 16.01 16.01" fill="none">
  <path d="M23.5001 122C23.7003 122 23.8984 121.996 24.0733 122.043C24.5047 122.159 24.8415 122.496 24.9571 122.927C25.0039 123.102 25.0001 123.3 25.0001 123.5C25.0001 123.7 25.0039 123.898 24.9571 124.073C24.8415 124.505 24.5047 124.842 24.0733 124.957C23.8984 125.004 23.7003 125 23.5001 125H22.5001C22.2999 125 22.1018 125.004 21.9268 124.957C21.4955 124.842 21.1586 124.505 21.043 124.073C20.9962 123.898 21.0001 123.7 21.0001 123.5C21.0001 123.3 20.9962 123.102 21.043 122.927C21.1586 122.496 21.4955 122.159 21.9268 122.043C22.1018 121.996 22.2999 122 22.5001 122H23.5001ZM22.2491 123.003C22.2038 123.005 22.1881 123.008 22.1856 123.009C22.0994 123.032 22.032 123.099 22.0089 123.186C22.0083 123.188 22.0051 123.204 22.003 123.249C22.0005 123.305 22.0001 123.379 22.0001 123.5C22.0001 123.621 22.0005 123.695 22.003 123.751C22.0051 123.796 22.0083 123.812 22.0089 123.815C22.032 123.901 22.0994 123.968 22.1856 123.991C22.1881 123.992 22.2038 123.995 22.2491 123.997C22.3051 124 22.3793 124 22.5001 124H23.5001C23.6208 124 23.695 124 23.7511 123.997C23.7961 123.995 23.8119 123.992 23.8145 123.991C23.9008 123.968 23.9682 123.901 23.9913 123.815C23.9919 123.812 23.9951 123.796 23.9971 123.751C23.9997 123.695 24.0001 123.621 24.0001 123.5C24.0001 123.379 23.9997 123.305 23.9971 123.249C23.9951 123.204 23.9918 123.188 23.9913 123.186C23.9681 123.099 23.9008 123.032 23.8145 123.009C23.8118 123.008 23.7959 123.005 23.7511 123.003C23.6951 123 23.6208 123 23.5001 123H22.5001C22.3793 123 22.3051 123 22.2491 123.003Z" fill="currentColor"/>
  <path d="M28.3565 118.225C28.7963 118.147 29.2443 118.31 29.5313 118.652C29.6476 118.791 29.728 118.972 29.8126 119.153C29.8972 119.335 29.9842 119.513 30.0157 119.691C30.0932 120.131 29.9309 120.579 29.5889 120.866C29.4502 120.983 29.2685 121.063 29.087 121.148L28.1807 121.569C27.9993 121.654 27.821 121.742 27.6427 121.774C27.2031 121.851 26.7558 121.688 26.4688 121.346C26.3525 121.207 26.2721 121.026 26.1876 120.845C26.103 120.663 26.016 120.485 25.9845 120.307C25.9069 119.867 26.0692 119.419 26.4112 119.132C26.55 119.016 26.7317 118.935 26.9132 118.851L27.8194 118.429C28.0008 118.344 28.1783 118.256 28.3565 118.225Z" fill="currentColor"/>
  <path d="M23.5001 118C23.7003 118 23.8984 117.996 24.0733 118.043C24.5047 118.159 24.8415 118.496 24.9571 118.927C25.0039 119.102 25.0001 119.3 25.0001 119.5C25.0001 119.7 25.0039 119.898 24.9571 120.073C24.8415 120.505 24.5047 120.842 24.0733 120.957C23.8984 121.004 23.7003 121 23.5001 121H22.5001C22.2999 121 22.1018 121.004 21.9268 120.957C21.4955 120.842 21.1586 120.505 21.043 120.073C20.9962 119.898 21.0001 119.7 21.0001 119.5C21.0001 119.3 20.9962 119.102 21.043 118.927C21.1586 118.496 21.4955 118.159 21.9268 118.043C22.1018 117.996 22.2999 118 22.5001 118H23.5001ZM22.2491 119.003C22.2038 119.005 22.1881 119.008 22.1856 119.009C22.0994 119.032 22.032 119.099 22.0089 119.186C22.0083 119.188 22.0051 119.204 22.003 119.249C22.0005 119.305 22.0001 119.379 22.0001 119.5C22.0001 119.621 22.0005 119.695 22.003 119.751C22.0051 119.796 22.0083 119.812 22.0089 119.815C22.032 119.901 22.0994 119.968 22.1856 119.991C22.1881 119.992 22.2038 119.995 22.2491 119.997C22.3051 120 22.3793 120 22.5001 120H23.5001C23.6208 120 23.695 120 23.7511 119.997C23.7961 119.995 23.8119 119.992 23.8145 119.991C23.9008 119.968 23.9682 119.901 23.9913 119.815C23.9919 119.812 23.9951 119.796 23.9971 119.751C23.9997 119.695 24.0001 119.621 24.0001 119.5C24.0001 119.379 23.9997 119.305 23.9971 119.249C23.9951 119.204 23.9918 119.188 23.9913 119.186C23.9681 119.099 23.9008 119.032 23.8145 119.009C23.8118 119.008 23.7959 119.005 23.7511 119.003C23.6951 119 23.6208 119 23.5001 119H22.5001C22.3793 119 22.3051 119 22.2491 119.003Z" fill="currentColor"/>
  <path d="M33.5001 118C33.7003 118 33.8984 117.996 34.0733 118.043C34.5047 118.159 34.8415 118.496 34.9571 118.927C35.0039 119.102 35.0001 119.3 35.0001 119.5C35.0001 119.7 35.0039 119.898 34.9571 120.073C34.8415 120.505 34.5047 120.842 34.0733 120.957C33.8984 121.004 33.7003 121 33.5001 121H32.5001C32.2999 121 32.1018 121.004 31.9268 120.957C31.4955 120.842 31.1586 120.505 31.043 120.073C30.9962 119.898 31.0001 119.7 31.0001 119.5C31.0001 119.3 30.9962 119.102 31.043 118.927C31.1586 118.496 31.4955 118.159 31.9268 118.043C32.1018 117.996 32.2999 118 32.5001 118H33.5001ZM32.2491 119.003C32.2038 119.005 32.1881 119.008 32.1856 119.009C32.0994 119.032 32.032 119.099 32.0089 119.186C32.0083 119.188 32.0051 119.204 32.003 119.249C32.0005 119.305 32.0001 119.379 32.0001 119.5C32.0001 119.621 32.0005 119.695 32.003 119.751C32.0051 119.796 32.0083 119.812 32.0089 119.815C32.032 119.901 32.0994 119.968 32.1856 119.991C32.1881 119.992 32.2038 119.995 32.2491 119.997C32.3051 120 32.3793 120 32.5001 120H33.5001C33.6208 120 33.6951 120 33.7511 119.997C33.7961 119.995 33.8119 119.992 33.8145 119.991C33.9008 119.968 33.9682 119.901 33.9913 119.815C33.9919 119.812 33.9951 119.796 33.9971 119.751C33.9997 119.695 34.0001 119.621 34.0001 119.5C34.0001 119.379 33.9997 119.305 33.9971 119.249C33.9951 119.204 33.9918 119.188 33.9913 119.186C33.9681 119.099 33.9008 119.032 33.8145 119.009C33.8118 119.008 33.7959 119.005 33.7511 119.003C33.6951 119 33.6208 119 33.5001 119H32.5001C32.3793 119 32.3051 119 32.2491 119.003Z" fill="currentColor"/>
  <path d="M23.5001 114C23.7003 114 23.8984 113.996 24.0733 114.043C24.5047 114.159 24.8415 114.496 24.9571 114.927C25.0039 115.102 25.0001 115.3 25.0001 115.5C25.0001 115.7 25.0039 115.898 24.9571 116.073C24.8415 116.505 24.5047 116.842 24.0733 116.957C23.8984 117.004 23.7003 117 23.5001 117H22.5001C22.2999 117 22.1018 117.004 21.9268 116.957C21.4955 116.842 21.1586 116.505 21.043 116.073C20.9962 115.898 21.0001 115.7 21.0001 115.5C21.0001 115.3 20.9962 115.102 21.043 114.927C21.1586 114.496 21.4955 114.159 21.9268 114.043C22.1018 113.996 22.2999 114 22.5001 114H23.5001ZM22.2491 115.003C22.2038 115.005 22.1881 115.008 22.1856 115.009C22.0994 115.032 22.032 115.099 22.0089 115.186C22.0083 115.188 22.0051 115.204 22.003 115.249C22.0005 115.305 22.0001 115.379 22.0001 115.5C22.0001 115.621 22.0005 115.695 22.003 115.751C22.0051 115.796 22.0083 115.812 22.0089 115.815C22.032 115.901 22.0994 115.968 22.1856 115.991C22.1881 115.992 22.2038 115.995 22.2491 115.997C22.3051 116 22.3793 116 22.5001 116H23.5001C23.6208 116 23.695 116 23.7511 115.997C23.7961 115.995 23.8119 115.992 23.8145 115.991C23.9008 115.968 23.9682 115.901 23.9913 115.815C23.9919 115.812 23.9951 115.796 23.9971 115.751C23.9997 115.695 24.0001 115.621 24.0001 115.5C24.0001 115.379 23.9997 115.305 23.9971 115.249C23.9951 115.204 23.9918 115.188 23.9913 115.186C23.9681 115.099 23.9008 115.032 23.8145 115.009C23.8118 115.008 23.7959 115.005 23.7511 115.003C23.6951 115 23.6208 115 23.5001 115H22.5001C22.3793 115 22.3051 115 22.2491 115.003Z" fill="currentColor"/>
  <path d="M28.5001 114C28.7003 114 28.8984 113.996 29.0733 114.043C29.5047 114.159 29.8415 114.496 29.9571 114.927C30.0039 115.102 30.0001 115.3 30.0001 115.5C30.0001 115.7 30.0039 115.898 29.9571 116.073C29.8415 116.505 29.5047 116.842 29.0733 116.957C28.8984 117.004 28.7003 117 28.5001 117H27.5001C27.2999 117 27.1018 117.004 26.9268 116.957C26.4955 116.842 26.1586 116.505 26.043 116.073C25.9962 115.898 26.0001 115.7 26.0001 115.5C26.0001 115.3 25.9962 115.102 26.043 114.927C26.1586 114.496 26.4955 114.159 26.9268 114.043C27.1018 113.996 27.2999 114 27.5001 114H28.5001ZM27.2491 115.003C27.2038 115.005 27.1881 115.008 27.1856 115.009C27.0994 115.032 27.032 115.099 27.0089 115.186C27.0083 115.188 27.0051 115.204 27.003 115.249C27.0005 115.305 27.0001 115.379 27.0001 115.5C27.0001 115.621 27.0005 115.695 27.003 115.751C27.0051 115.796 27.0083 115.812 27.0089 115.815C27.032 115.901 27.0994 115.968 27.1856 115.991C27.1881 115.992 27.2038 115.995 27.2491 115.997C27.3051 116 27.3793 116 27.5001 116H28.5001C28.6208 116 28.695 116 28.7511 115.997C28.7961 115.995 28.8119 115.992 28.8145 115.991C28.9008 115.968 28.9682 115.901 28.9913 115.815C28.9919 115.812 28.9951 115.796 28.9971 115.751C28.9997 115.695 29.0001 115.621 29.0001 115.5C29.0001 115.379 28.9997 115.305 28.9971 115.249C28.9951 115.204 28.9918 115.188 28.9913 115.186C28.9681 115.099 28.9008 115.032 28.8145 115.009C28.8118 115.008 28.7959 115.005 28.7511 115.003C28.6951 115 28.6208 115 28.5001 115H27.5001C27.3793 115 27.3051 115 27.2491 115.003Z" fill="currentColor"/>
  <path d="M33.5001 114C33.7003 114 33.8984 113.996 34.0733 114.043C34.5047 114.159 34.8415 114.496 34.9571 114.927C35.0039 115.102 35.0001 115.3 35.0001 115.5C35.0001 115.7 35.0039 115.898 34.9571 116.073C34.8415 116.505 34.5047 116.842 34.0733 116.957C33.8984 117.004 33.7003 117 33.5001 117H32.5001C32.2999 117 32.1018 117.004 31.9268 116.957C31.4955 116.842 31.1586 116.505 31.043 116.073C30.9962 115.898 31.0001 115.7 31.0001 115.5C31.0001 115.3 30.9962 115.102 31.043 114.927C31.1586 114.496 31.4955 114.159 31.9268 114.043C32.1018 113.996 32.2999 114 32.5001 114H33.5001ZM32.2491 115.003C32.2038 115.005 32.1881 115.008 32.1856 115.009C32.0994 115.032 32.032 115.099 32.0089 115.186C32.0083 115.188 32.0051 115.204 32.003 115.249C32.0005 115.305 32.0001 115.379 32.0001 115.5C32.0001 115.621 32.0005 115.695 32.003 115.751C32.0051 115.796 32.0083 115.812 32.0089 115.815C32.032 115.901 32.0994 115.968 32.1856 115.991C32.1881 115.992 32.2038 115.995 32.2491 115.997C32.3051 116 32.3793 116 32.5001 116H33.5001C33.6208 116 33.6951 116 33.7511 115.997C33.7961 115.995 33.8119 115.992 33.8145 115.991C33.9008 115.968 33.9682 115.901 33.9913 115.815C33.9919 115.812 33.9951 115.796 33.9971 115.751C33.9997 115.695 34.0001 115.621 34.0001 115.5C34.0001 115.379 33.9997 115.305 33.9971 115.249C33.9951 115.204 33.9918 115.188 33.9913 115.186C33.9681 115.099 33.9008 115.032 33.8145 115.009C33.8118 115.008 33.7959 115.005 33.7511 115.003C33.6951 115 33.6208 115 33.5001 115H32.5001C32.3793 115 32.3051 115 32.2491 115.003Z" fill="currentColor"/>
</svg>
