<svg xmlns="http://www.w3.org/2000/svg" width="16" height="16" viewBox="20.5 111.0 16.0 16.0" fill="none">
  <path d="M30 114.5C30 113.672 29.3285 113 28.5 113C27.6716 113 27 113.672 27 114.5V115.507C27 115.78 26.7802 116.003 26.5069 116.007C25.391 116.023 24.8801 116.108 24.5645 116.334L24.4395 116.439C24.1777 116.701 24.0632 117.094 24.0235 118H24.5C25.8807 118 27 119.119 27 120.5L26.9874 120.756C26.8591 122.016 25.7944 123 24.5 123H24.0235C24.0632 123.906 24.1778 124.299 24.4395 124.561L24.5127 124.627C24.6926 124.774 24.9444 124.874 25.3721 124.932C25.8757 124.999 26.5432 125 27.5 125H29.5C30.4569 125 31.1245 124.998 31.628 124.931C32.1169 124.865 32.3761 124.745 32.5606 124.561L32.627 124.487C32.7744 124.307 32.8741 124.056 32.9317 123.628C32.9994 123.124 33 122.457 33 121.5V119.5C33 118.543 32.9994 117.876 32.9317 117.372C32.8741 116.944 32.7744 116.693 32.627 116.513L32.5606 116.439C32.2542 116.133 31.7687 116.025 30.4932 116.007C30.2199 116.003 30 115.78 30 115.507V114.5ZM31 115.019C31.9649 115.055 32.7208 115.186 33.2676 115.732L33.4073 115.888C33.7103 116.261 33.8513 116.714 33.9219 117.239C34.0007 117.825 34 118.571 34 119.5V121.5C34 122.429 34.0007 123.175 33.9219 123.761C33.8513 124.286 33.7103 124.739 33.4073 125.112L33.2676 125.268C32.8664 125.669 32.3608 125.841 31.7608 125.922C31.1751 126.001 30.4285 126 29.5 126H27.5C26.5716 126 25.825 126.001 25.2393 125.922C24.7142 125.851 24.2615 125.71 23.8877 125.407L23.7325 125.268C23.0958 124.631 23.0253 123.71 23.0079 122.507C23.006 122.373 23.0578 122.245 23.1514 122.149C23.2454 122.054 23.374 122 23.5079 122H24.5L24.6534 121.992C25.3593 121.92 25.9205 121.359 25.9922 120.653L26 120.5C26 119.723 25.4098 119.085 24.6534 119.008L24.5 119H23.5079C23.374 119 23.2454 118.946 23.1514 118.851C23.0578 118.755 23.006 118.627 23.0079 118.493C23.0253 117.29 23.0958 116.369 23.7325 115.732L23.8555 115.619C24.3907 115.167 25.1056 115.053 26 115.019V114.5C26 113.119 27.1193 112 28.5 112C29.8808 112 31 113.119 31 114.5V115.019Z" fill="currentColor"/>
</svg>
