<svg xmlns="http://www.w3.org/2000/svg" width="16" height="16" viewBox="20.0 111.0 16.0 16.0" fill="none">
  <path d="M24 122C24.4714 122 24.7071 122 24.8535 122.146C25 122.293 25 122.529 25 123C25 123.471 25 123.707 24.8535 123.854C24.7071 124 24.4714 124 24 124C23.5286 124 23.2929 124 23.1465 123.854C23 123.707 23 123.471 23 123C23 122.529 23 122.293 23.1465 122.146C23.2929 122 23.5286 122 24 122Z" fill="currentColor"/>
  <path d="M24.5 120C24.9573 120 25.3507 119.999 25.6641 120.041C25.9918 120.085 26.3058 120.185 26.5605 120.439C26.8153 120.694 26.9149 121.008 26.959 121.336C27.0011 121.649 27 122.043 27 122.5V123.5C27 123.957 27.0011 124.351 26.959 124.664C26.9149 124.992 26.8153 125.306 26.5605 125.561C26.3058 125.815 25.9918 125.915 25.6641 125.959C25.3507 126.001 24.9573 126 24.5 126H23.5C23.0427 126 22.6493 126.001 22.3359 125.959C22.0082 125.915 21.6942 125.815 21.4395 125.561C21.1847 125.306 21.0851 124.992 21.041 124.664C20.9989 124.351 21 123.957 21 123.5V122.5C21 122.043 20.9989 121.649 21.041 121.336C21.0851 121.008 21.1847 120.694 21.4395 120.439C21.6942 120.185 22.0082 120.085 22.3359 120.041C22.6493 119.999 23.0427 120 23.5 120H24.5ZM23.5 121C23.0147 121 22.7009 121.001 22.4697 121.032C22.2529 121.061 22.1845 121.108 22.1465 121.146C22.1084 121.185 22.0614 121.253 22.0322 121.47C22.0012 121.701 22 122.015 22 122.5V123.5C22 123.985 22.0012 124.299 22.0322 124.53C22.0614 124.747 22.1084 124.815 22.1465 124.854C22.1845 124.892 22.2529 124.939 22.4697 124.968C22.7009 124.999 23.0147 125 23.5 125H24.5C24.9853 125 25.2991 124.999 25.5303 124.968C25.7471 124.939 25.8155 124.892 25.8535 124.854C25.8916 124.815 25.9386 124.747 25.9678 124.53C25.9988 124.299 26 123.985 26 123.5V122.5C26 122.015 25.9988 121.701 25.9678 121.47C25.9386 121.253 25.8916 121.185 25.8535 121.146C25.8155 121.108 25.7471 121.061 25.5303 121.032C25.2991 121.001 24.9853 121 24.5 121H23.5Z" fill="currentColor"/>
  <path d="M30 125.5C30 125.736 30 125.854 29.9268 125.927C29.8535 126 29.7357 126 29.5 126C29.2643 126 29.1465 126 29.0732 125.927C29 125.854 29 125.736 29 125.5C29 125.264 29 125.146 29.0732 125.073C29.1465 125 29.2643 125 29.5 125H30V125.5Z" fill="currentColor"/>
  <path d="M30 122.5C30 122.736 30 122.854 30.0732 122.927C30.1465 123 30.2643 123 30.5 123H31V123.5C31 123.736 31 123.854 31.0732 123.927C31.1465 124 31.2643 124 31.5 124H32V125.5C32 125.736 32 125.854 31.9268 125.927C31.8535 126 31.7357 126 31.5 126C31.2643 126 31.1465 126 31.0732 125.927C31.0184 125.872 31.0044 125.792 31.001 125.656L30.999 125.344C30.9956 125.208 30.9816 125.128 30.9268 125.073C30.8535 125 30.7357 125 30.5 125H30V124.5C30 124.264 30 124.146 29.9268 124.073C29.8719 124.018 29.792 124.004 29.6563 124.001L29.3438 123.999C29.208 123.996 29.1281 123.982 29.0732 123.927C29 123.854 29 123.736 29 123.5V122.5C29 122.264 29 122.146 29.0732 122.073C29.1465 122 29.2643 122 29.5 122H30V122.5Z" fill="currentColor"/>
  <path d="M34.5 122C34.7357 122 34.8535 122 34.9268 122.073C35 122.146 35 122.264 35 122.5V125.5C35 125.736 35 125.854 34.9268 125.927C34.8535 126 34.7357 126 34.5 126C34.2643 126 34.1465 126 34.0732 125.927C34.0184 125.872 34.0044 125.792 34.001 125.656L33.999 125.344C33.9956 125.208 33.9816 125.128 33.9268 125.073C33.8719 125.018 33.792 125.004 33.6563 125.001L33.3438 124.999C33.208 124.996 33.1281 124.982 33.0732 124.927C33 124.854 33 124.736 33 124.5V124H33.5C33.7357 124 33.8535 124 33.9268 123.927C34 123.854 34 123.736 34 123.5V122H34.5Z" fill="currentColor"/>
  <path d="M32.5 123C32.7357 123 32.8535 123 32.9268 123.073C33 123.146 33 123.264 33 123.5V124H32V123H32.5Z" fill="currentColor"/>
  <path d="M32.5 120C32.7357 120 32.8535 120 32.9268 120.073C32.9816 120.128 32.9956 120.208 32.999 120.344L33.001 120.656C33.0044 120.792 33.0184 120.872 33.0732 120.927C33.1465 121 33.2643 121 33.5 121H34V122H32.5C32.2643 122 32.1465 122 32.0732 122.073C32 122.146 32 122.264 32 122.5V123H31V122.5C31 122.264 31 122.146 30.9268 122.073C30.8535 122 30.7357 122 30.5 122H30V121H31.5C31.7357 121 31.8535 121 31.9268 120.927C31.9816 120.872 31.9956 120.792 31.999 120.656L32.001 120.344C32.0044 120.208 32.0184 120.128 32.0732 120.073C32.1465 120 32.2643 120 32.5 120Z" fill="currentColor"/>
  <path d="M29.5 120C29.7357 120 29.8535 120 29.9268 120.073C30 120.146 30 120.264 30 120.5V121H29.5C29.2643 121 29.1465 121 29.0732 120.927C29 120.854 29 120.736 29 120.5C29 120.264 29 120.146 29.0732 120.073C29.1465 120 29.2643 120 29.5 120Z" fill="currentColor"/>
  <path d="M34.5 120C34.7357 120 34.8535 120 34.9268 120.073C35 120.146 35 120.264 35 120.5C35 120.736 35 120.854 34.9268 120.927C34.8535 121 34.7357 121 34.5 121H34V120.5C34 120.264 34 120.146 34.0732 120.073C34.1465 120 34.2643 120 34.5 120Z" fill="currentColor"/>
  <path d="M24 114C24.4714 114 24.7071 114 24.8535 114.146C25 114.293 25 114.529 25 115C25 115.471 25 115.707 24.8535 115.854C24.7071 116 24.4714 116 24 116C23.5286 116 23.2929 116 23.1465 115.854C23 115.707 23 115.471 23 115C23 114.529 23 114.293 23.1465 114.146C23.2929 114 23.5286 114 24 114Z" fill="currentColor"/>
  <path d="M24.5 112C24.9573 112 25.3507 111.999 25.6641 112.041C25.9918 112.085 26.3058 112.185 26.5605 112.439C26.8153 112.694 26.9149 113.008 26.959 113.336C27.0011 113.649 27 114.043 27 114.5V115.5C27 115.957 27.0011 116.351 26.959 116.664C26.9149 116.992 26.8153 117.306 26.5605 117.561C26.3058 117.815 25.9918 117.915 25.6641 117.959C25.3507 118.001 24.9573 118 24.5 118H23.5C23.0427 118 22.6493 118.001 22.3359 117.959C22.0082 117.915 21.6942 117.815 21.4395 117.561C21.1847 117.306 21.0851 116.992 21.041 116.664C20.9989 116.351 21 115.957 21 115.5V114.5C21 114.043 20.9989 113.649 21.041 113.336C21.0851 113.008 21.1847 112.694 21.4395 112.439C21.6942 112.185 22.0082 112.085 22.3359 112.041C22.6493 111.999 23.0427 112 23.5 112H24.5ZM23.5 113C23.0147 113 22.7009 113.001 22.4697 113.032C22.2529 113.061 22.1845 113.108 22.1465 113.146C22.1084 113.185 22.0614 113.253 22.0322 113.47C22.0012 113.701 22 114.015 22 114.5V115.5C22 115.985 22.0012 116.299 22.0322 116.53C22.0614 116.747 22.1084 116.815 22.1465 116.854C22.1845 116.892 22.2529 116.939 22.4697 116.968C22.7009 116.999 23.0147 117 23.5 117H24.5C24.9853 117 25.2991 116.999 25.5303 116.968C25.7471 116.939 25.8155 116.892 25.8535 116.854C25.8916 116.815 25.9386 116.747 25.9678 116.53C25.9988 116.299 26 115.985 26 115.5V114.5C26 114.015 25.9988 113.701 25.9678 113.47C25.9386 113.253 25.8916 113.185 25.8535 113.146C25.8155 113.108 25.7471 113.061 25.5303 113.032C25.2991 113.001 24.9853 113 24.5 113H23.5Z" fill="currentColor"/>
  <path d="M32 114C32.4714 114 32.7071 114 32.8535 114.146C33 114.293 33 114.529 33 115C33 115.471 33 115.707 32.8535 115.854C32.7071 116 32.4714 116 32 116C31.5286 116 31.2929 116 31.1465 115.854C31 115.707 31 115.471 31 115C31 114.529 31 114.293 31.1465 114.146C31.2929 114 31.5286 114 32 114Z" fill="currentColor"/>
  <path d="M32.5 112C32.9573 112 33.3507 111.999 33.6641 112.041C33.9918 112.085 34.3058 112.185 34.5605 112.439C34.8153 112.694 34.9149 113.008 34.959 113.336C35.0011 113.649 35 114.043 35 114.5V115.5C35 115.957 35.0011 116.351 34.959 116.664C34.9149 116.992 34.8153 117.306 34.5605 117.561C34.3058 117.815 33.9918 117.915 33.6641 117.959C33.3507 118.001 32.9573 118 32.5 118H31.5C31.0427 118 30.6493 118.001 30.3359 117.959C30.0082 117.915 29.6942 117.815 29.4395 117.561C29.1847 117.306 29.0851 116.992 29.041 116.664C28.9989 116.351 29 115.957 29 115.5V114.5C29 114.043 28.9989 113.649 29.041 113.336C29.0851 113.008 29.1847 112.694 29.4395 112.439C29.6942 112.185 30.0082 112.085 30.3359 112.041C30.6493 111.999 31.0427 112 31.5 112H32.5ZM31.5 113C31.0147 113 30.7009 113.001 30.4697 113.032C30.2529 113.061 30.1845 113.108 30.1465 113.146C30.1084 113.185 30.0614 113.253 30.0322 113.47C30.0012 113.701 30 114.015 30 114.5V115.5C30 115.985 30.0012 116.299 30.0322 116.53C30.0614 116.747 30.1084 116.815 30.1465 116.854C30.1845 116.892 30.2529 116.939 30.4697 116.968C30.7009 116.999 31.0147 117 31.5 117H32.5C32.9853 117 33.2991 116.999 33.5303 116.968C33.7471 116.939 33.8155 116.892 33.8535 116.854C33.8916 116.815 33.9386 116.747 33.9678 116.53C33.9988 116.299 34 115.985 34 115.5V114.5C34 114.015 33.9988 113.701 33.9678 113.47C33.9386 113.253 33.8916 113.185 33.8535 113.146C33.8155 113.108 33.7471 113.061 33.5303 113.032C33.2991 113.001 32.9853 113 32.5 113H31.5Z" fill="currentColor"/>
</svg>
