<svg xmlns="http://www.w3.org/2000/svg" width="16" height="16" viewBox="20.0 111.0 16.0 16.0" fill="none">
  <path d="M28.5 112C28.7761 112 29 112.224 29 112.5V119H34.5C34.7761 119 35 119.224 35 119.5C35 119.776 34.7761 120 34.5 120H29V125.5C29 125.776 28.7761 126 28.5 126C28.2239 126 28 125.776 28 125.5V120H21.5C21.2239 120 21 119.776 21 119.5C21 119.224 21.2239 119 21.5 119H28V112.5C28 112.224 28.2239 112 28.5 112Z" fill="currentColor"/>
  <path d="M25 121C26.1046 121 27 121.895 27 123C27 124.105 26.1046 125 25 125C23.8954 125 23 124.105 23 123C23 121.895 23.8954 121 25 121ZM25 122C24.4477 122 24 122.448 24 123C24 123.552 24.4477 124 25 124C25.5523 124 26 123.552 26 123C26 122.448 25.5523 122 25 122Z" fill="currentColor"/>
  <path d="M31.5 121C32.3284 121 33 121.672 33 122.5C33 123.328 32.3284 124 31.5 124C30.6716 124 30 123.328 30 122.5C30 121.672 30.6716 121 31.5 121ZM31.5 122C31.2239 122 31 122.224 31 122.5C31 122.776 31.2239 123 31.5 123C31.7761 123 32 122.776 32 122.5C32 122.224 31.7761 122 31.5 122Z" fill="currentColor"/>
  <path d="M23 116C23.5523 116 24 116.448 24 117C24 117.552 23.5523 118 23 118C22.4477 118 22 117.552 22 117C22 116.448 22.4477 116 23 116Z" fill="currentColor"/>
  <path d="M32.5 113C33.8807 113 35 114.119 35 115.5C35 116.881 33.8807 118 32.5 118C31.1193 118 30 116.881 30 115.5C30 114.119 31.1193 113 32.5 113ZM32.5 114C31.6716 114 31 114.672 31 115.5C31 116.328 31.6716 117 32.5 117C33.3284 117 34 116.328 34 115.5C34 114.672 33.3284 114 32.5 114Z" fill="currentColor"/>
  <path d="M25.5 113C26.3284 113 27 113.672 27 114.5C27 115.328 26.3284 116 25.5 116C24.6716 116 24 115.328 24 114.5C24 113.672 24.6716 113 25.5 113ZM25.5 114C25.2239 114 25 114.224 25 114.5C25 114.776 25.2239 115 25.5 115C25.7761 115 26 114.776 26 114.5C26 114.224 25.7761 114 25.5 114Z" fill="currentColor"/>
</svg>
