<svg xmlns="http://www.w3.org/2000/svg" width="16" height="16" viewBox="20.0 111.0 17.0 17.0" fill="none">
  <path d="M29.7695 125.876C30.0402 125.823 30.3028 125.999 30.3564 126.27C30.41 126.54 30.2338 126.804 29.9629 126.857C29.4894 126.951 29.0001 127 28.5 127C27.9999 127 27.5106 126.951 27.0371 126.857C26.7662 126.804 26.59 126.54 26.6436 126.27C26.6972 125.999 26.9598 125.823 27.2305 125.876C27.6405 125.957 28.0653 126 28.5 126C28.9347 126 29.3595 125.957 29.7695 125.876Z" fill="currentColor"/>
  <path d="M22.4014 122.974C22.6308 122.82 22.9412 122.882 23.0947 123.111C23.5694 123.82 24.1798 124.431 24.8887 124.905C25.118 125.059 25.1796 125.369 25.0264 125.599C24.8728 125.828 24.5624 125.89 24.333 125.736C23.5153 125.189 22.8111 124.485 22.2637 123.667C22.1103 123.438 22.172 123.127 22.4014 122.974Z" fill="currentColor"/>
  <path d="M33.9053 123.111C34.0588 122.882 34.3692 122.82 34.5986 122.974C34.828 123.127 34.8897 123.438 34.7363 123.667C34.1889 124.485 33.4847 125.189 32.667 125.736C32.4376 125.89 32.1272 125.828 31.9736 125.599C31.8204 125.369 31.882 125.059 32.1113 124.905C32.8202 124.431 33.4306 123.82 33.9053 123.111Z" fill="currentColor"/>
  <path d="M26.6533 116.124C27.0616 115.903 27.4788 116.013 27.8262 116.172C28.1723 116.33 28.5923 116.604 29.0889 116.927L30.4668 117.821C30.8895 118.096 31.2551 118.332 31.5078 118.555C31.7673 118.784 32.0047 119.083 32.0049 119.499C32.0047 119.915 31.7671 120.213 31.5078 120.442C31.2552 120.665 30.8894 120.901 30.4668 121.176L29.0889 122.07C28.5924 122.393 28.1723 122.667 27.8262 122.825C27.4787 122.984 27.0617 123.095 26.6533 122.873C26.2449 122.651 26.1106 122.241 26.0547 121.863C25.999 121.487 26 120.985 26 120.393V118.604C26 118.012 25.999 117.51 26.0547 117.134C26.1107 116.756 26.2451 116.346 26.6533 116.124ZM27.1309 117.003C27.1309 117.003 27.1235 117.005 27.1094 117.032C27.0901 117.069 27.0643 117.143 27.0439 117.28C27.0017 117.566 27 117.979 27 118.604V120.393C27 121.018 27.0017 121.431 27.0439 121.717C27.0643 121.854 27.0901 121.928 27.1094 121.965C27.1236 121.992 27.1309 121.994 27.1309 121.994C27.1309 121.994 27.1378 121.999 27.166 121.996C27.2078 121.992 27.2837 121.974 27.4102 121.916C27.6728 121.796 28.02 121.572 28.5449 121.231L29.9219 120.337C30.3723 120.044 30.6627 119.855 30.8467 119.692C30.9339 119.615 30.9743 119.564 30.9922 119.533C31.0049 119.511 31.0049 119.504 31.0049 119.499C31.0049 119.494 31.0052 119.486 30.9922 119.464C30.9743 119.433 30.9339 119.382 30.8467 119.305C30.6627 119.142 30.3725 118.953 29.9219 118.66L28.5449 117.766C28.0198 117.425 27.6729 117.201 27.4102 117.081C27.2837 117.023 27.2077 117.005 27.166 117.001C27.1395 116.998 27.1328 117.002 27.1309 117.003Z" fill="currentColor"/>
  <path d="M21.7305 117.644C22.0011 117.697 22.1773 117.96 22.124 118.23C22.0429 118.641 22 119.065 22 119.5C22 119.935 22.0429 120.359 22.124 120.77C22.1773 121.04 22.0011 121.303 21.7305 121.356C21.4596 121.41 21.1962 121.234 21.1426 120.963C21.0489 120.489 21 120 21 119.5C21 119 21.0489 118.511 21.1426 118.037C21.1962 117.766 21.4596 117.59 21.7305 117.644Z" fill="currentColor"/>
  <path d="M28.5 112C29.0001 112 29.4894 112.049 29.9629 112.143C29.9709 112.144 29.9785 112.147 29.9863 112.149C30.459 112.245 30.9225 112.386 31.3701 112.571C32.28 112.948 33.1073 113.5 33.8037 114.196C34.5001 114.893 35.0518 115.72 35.4287 116.63C35.614 117.077 35.754 117.54 35.8496 118.013C35.8517 118.021 35.8558 118.029 35.8574 118.037C35.9511 118.511 36 119 36 119.5C36 120 35.9511 120.489 35.8574 120.963C35.8038 121.234 35.5404 121.41 35.2695 121.356C34.9989 121.303 34.8227 121.04 34.876 120.77C34.9571 120.359 35 119.935 35 119.5C35 119.391 34.9975 119.283 34.9922 119.176C34.955 118.433 34.7901 117.701 34.5049 117.013C34.3132 116.55 34.068 116.113 33.7773 115.708C33.3227 115.076 32.7587 114.529 32.1113 114.096C31.758 113.86 31.3817 113.658 30.9873 113.495C30.1987 113.168 29.3536 113 28.5 113C28.0653 113 27.6405 113.043 27.2305 113.124C26.9598 113.177 26.6972 113.001 26.6436 112.73C26.59 112.46 26.7662 112.196 27.0371 112.143C27.5106 112.049 27.9999 112 28.5 112Z" fill="currentColor"/>
  <path d="M24.333 113.264C24.5624 113.11 24.8728 113.172 25.0264 113.401C25.1796 113.631 25.118 113.941 24.8887 114.095C24.1798 114.569 23.5694 115.18 23.0947 115.889C22.9412 116.118 22.6308 116.18 22.4014 116.026C22.172 115.873 22.1103 115.562 22.2637 115.333C22.8111 114.515 23.5153 113.811 24.333 113.264Z" fill="currentColor"/>
</svg>
