<svg xmlns="http://www.w3.org/2000/svg" width="16" height="16" viewBox="21.0 111.15 15.06 15.06" fill="none">
  <path d="M27.333 113.455C27.5931 113.363 27.8794 113.499 27.9717 113.759C28.0637 114.02 27.9271 114.306 27.667 114.398C25.7658 115.07 24.242 116.54 23.4971 118.405C23.9392 118.148 24.452 118 25 118C26.6567 118 27.9998 119.343 28 121C28 122.656 26.6569 124 25 124C23.3431 124 22 122.656 22 121C22.0002 117.516 24.2267 114.553 27.333 113.455ZM25 119C23.8956 119 23.0002 119.895 23 121C23 122.104 23.8954 123 25 123C26.1046 123 27 122.104 27 121C26.9998 119.895 26.1044 119 25 119Z" fill="currentColor"/>
  <path d="M34.333 113.455C34.5931 113.363 34.8794 113.499 34.9717 113.759C35.0637 114.02 34.9271 114.306 34.667 114.398C32.7658 115.07 31.242 116.54 30.4971 118.405C30.9392 118.148 31.452 118 32 118C33.6567 118 34.9998 119.343 35 121C35 122.656 33.6569 124 32 124C30.3431 124 29 122.656 29 121C29.0002 117.516 31.2267 114.553 34.333 113.455ZM32 119C30.8956 119 30.0002 119.895 30 121C30 122.104 30.8954 123 32 123C33.1046 123 34 122.104 34 121C33.9998 119.895 33.1044 119 32 119Z" fill="currentColor"/>
</svg>
