<svg xmlns="http://www.w3.org/2000/svg" width="16" height="16" viewBox="20.94 111.79 15.06 15.06" fill="none">
  <path d="M24.9996 114C26.6565 114 27.9996 115.343 27.9996 117C27.9996 120.484 25.773 123.447 22.6666 124.545C22.4064 124.637 22.12 124.5 22.028 124.24C21.9361 123.98 22.0727 123.694 22.3326 123.602C24.2341 122.93 25.7567 121.459 26.5016 119.594C26.0596 119.85 25.5474 120 24.9996 120C23.343 120 21.9996 118.657 21.9996 117C21.9996 115.343 23.343 114 24.9996 114ZM24.9996 115C23.8952 115 22.9996 115.896 22.9996 117C22.9996 118.104 23.8952 119 24.9996 119C26.1042 119 26.9996 118.105 26.9996 117C26.9996 115.895 26.1042 115 24.9996 115Z" fill="currentColor"/>
  <path d="M31.9996 114C33.6565 114 34.9996 115.343 34.9996 117C34.9996 120.484 32.773 123.447 29.6666 124.545C29.4064 124.637 29.12 124.5 29.028 124.24C28.9361 123.98 29.0727 123.694 29.3326 123.602C31.2341 122.93 32.7567 121.459 33.5016 119.594C33.0596 119.85 32.5474 120 31.9996 120C30.343 120 28.9996 118.657 28.9996 117C28.9996 115.343 30.343 114 31.9996 114ZM31.9996 115C30.8952 115 29.9996 115.896 29.9996 117C29.9996 118.104 30.8952 119 31.9996 119C33.1042 119 33.9996 118.105 33.9996 117C33.9996 115.895 33.1042 115 31.9996 115Z" fill="currentColor"/>
</svg>
