<svg xmlns="http://www.w3.org/2000/svg" width="16" height="16" viewBox="20.0 110.5 16.0 16.0" fill="none">
  <path d="M24.2227 119.084C24.3761 118.982 24.5737 118.973 24.7363 119.06C24.8986 119.147 25 119.316 25 119.5V124.5C25 124.776 24.7761 125 24.5 125C24.2239 125 24 124.776 24 124.5V120.434L23.2773 120.916C23.0476 121.069 22.7372 121.007 22.584 120.777C22.4308 120.548 22.4929 120.237 22.7227 120.084L24.2227 119.084Z" fill="currentColor"/>
  <path d="M32.0996 119C33.1492 119 34 119.851 34 120.9C34 121.442 33.7291 121.949 33.2783 122.249L31.6094 123.361C31.3733 123.519 31.1966 123.743 31.0957 124H33.5C33.7761 124 34 124.224 34 124.5C34 124.776 33.7761 125 33.5 125H30.5C30.2239 125 30 124.776 30 124.5C30 123.708 30.3958 122.969 31.0547 122.529L32.7236 121.417C32.8962 121.302 33 121.108 33 120.9C33 120.403 32.5969 120 32.0996 120H31.75C31.3358 120 31 120.336 31 120.75C31 121.026 30.7761 121.25 30.5 121.25C30.2239 121.25 30 121.026 30 120.75C30 119.784 30.7835 119 31.75 119H32.0996Z" fill="currentColor"/>
  <path d="M24 114C24.5523 114 25 114.448 25 115C25 115.552 24.5523 116 24 116C23.4477 116 23 115.552 23 115C23 114.448 23.4477 114 24 114Z" fill="currentColor"/>
  <path d="M24 112C25.6569 112 27 113.343 27 115C27 116.657 25.6569 118 24 118C22.3431 118 21 116.657 21 115C21 113.343 22.3431 112 24 112ZM24 113C22.8954 113 22 113.895 22 115C22 116.105 22.8954 117 24 117C25.1046 117 26 116.105 26 115C26 113.895 25.1046 113 24 113Z" fill="currentColor"/>
  <path d="M32 112C33.6569 112 35 113.343 35 115C35 116.657 33.6569 118 32 118C30.3431 118 29 116.657 29 115C29 113.343 30.3431 112 32 112ZM32 113C30.8954 113 30 113.895 30 115C30 116.105 30.8954 117 32 117C33.1046 117 34 116.105 34 115C34 113.895 33.1046 113 32 113Z" fill="currentColor"/>
</svg>
