<svg xmlns="http://www.w3.org/2000/svg" width="16" height="16" viewBox="14.49 109.0 26.01 26.01" fill="none">
  <path d="M27.5 113C29.9853 113 32 115.015 32 117.5C32 119.985 29.9853 122 27.5 122C25.0147 122 23 119.985 23 117.5C23 115.015 25.0147 113 27.5 113Z" fill="currentColor"/>
  <path d="M27.5 110C31.6421 110 35 113.358 35 117.5C35 121.642 31.6421 125 27.5 125C23.3579 125 20 121.642 20 117.5C20 113.358 23.3579 110 27.5 110ZM27.5 111C23.9101 111 21 113.91 21 117.5C21 121.09 23.9101 124 27.5 124C31.0899 124 34 121.09 34 117.5C34 113.91 31.0899 111 27.5 111Z" fill="currentColor"/>
  <path d="M25.5 131C28.5376 131 31 133.462 31 136.5C31 139.538 28.5376 142 25.5 142C22.4624 142 20 139.538 20 136.5C20 133.462 22.4624 131 25.5 131ZM25.5 132C23.0147 132 21 134.015 21 136.5C21 138.985 23.0147 141 25.5 141C27.9853 141 30 138.985 30 136.5C30 134.015 27.9853 132 25.5 132Z" fill="currentColor"/>
</svg>
