<svg xmlns="http://www.w3.org/2000/svg" width="16" height="16" viewBox="19.53 111.0 16.0 16.0" fill="none">
  <path d="M24 120C25.6569 120 27 121.343 27 123C27 124.657 25.6569 126 24 126C22.3431 126 21 124.657 21 123C21 121.343 22.3431 120 24 120ZM24 121C22.8954 121 22 121.895 22 123C22 124.105 22.8954 125 24 125C25.1046 125 26 124.105 26 123C26 121.895 25.1046 121 24 121Z" fill="currentColor"/>
  <path d="M31.75 120C32.7165 120 33.5 120.784 33.5 121.75C33.5 122.129 33.3775 122.478 33.1729 122.765C33.669 123.074 34 123.623 34 124.25C34 125.216 33.2165 126 32.25 126H30.5C30.3966 126 30.3004 125.969 30.2207 125.915C30.1672 125.879 30.121 125.833 30.085 125.779C30.0312 125.7 30 125.603 30 125.5V120.5C30 120.224 30.2239 120 30.5 120H31.75ZM31 125H32.25C32.6642 125 33 124.664 33 124.25C33 123.836 32.6642 123.5 32.25 123.5H31V125ZM31 122.5H31.75C32.1642 122.5 32.5 122.164 32.5 121.75C32.5 121.336 32.1642 121 31.75 121H31V122.5Z" fill="currentColor"/>
  <path d="M24 114C24.5523 114 25 114.448 25 115C25 115.552 24.5523 116 24 116C23.4477 116 23 115.552 23 115C23 114.448 23.4477 114 24 114Z" fill="currentColor"/>
  <path d="M24 112C25.6569 112 27 113.343 27 115C27 116.657 25.6569 118 24 118C22.3431 118 21 116.657 21 115C21 113.343 22.3431 112 24 112ZM24 113C22.8954 113 22 113.895 22 115C22 116.105 22.8954 117 24 117C25.1046 117 26 116.105 26 115C26 113.895 25.1046 113 24 113Z" fill="currentColor"/>
  <path d="M31.5 112C31.7045 112 31.8879 112.125 31.9639 112.314L33.9639 117.314C34.0664 117.571 33.9419 117.861 33.6855 117.964C33.4292 118.066 33.1387 117.942 33.0361 117.686L32.7617 117H30.2383L29.9639 117.686C29.8613 117.942 29.5708 118.066 29.3145 117.964C29.0581 117.861 28.9336 117.571 29.0361 117.314L31.0361 112.314L31.0693 112.246C31.1582 112.095 31.3212 112 31.5 112ZM30.6377 116H32.3623L31.5 113.845L30.6377 116Z" fill="currentColor"/>
</svg>
