<svg xmlns="http://www.w3.org/2000/svg" width="16" height="16" viewBox="20.0 111.1 16.0 16.0" fill="none">
  <path d="M32.7705 114.267C32.9759 114.225 33.2287 114.209 33.4707 114.333L33.5732 114.394L33.667 114.47C33.866 114.655 33.9372 114.898 33.9678 115.105C34.001 115.331 34 115.619 34 115.928V117.005C34.1269 117.042 34.2513 117.098 34.3701 117.182C34.7421 117.447 34.8816 117.845 34.9424 118.259C35.0014 118.661 35 119.185 35 119.808V121.5C35 121.957 35.0011 122.351 34.959 122.664C34.9149 122.991 34.8153 123.306 34.5605 123.56C34.3058 123.815 33.9917 123.915 33.6641 123.959C33.3507 124.001 32.9573 124 32.5 124H22.668C21.7469 124 21.0002 123.253 21 122.332C21 121.665 21.3963 121.066 22 120.803V119.2C22 119.042 21.9996 118.883 22.0146 118.748C22.0312 118.6 22.0702 118.434 22.1807 118.276L22.2695 118.17C22.3623 118.074 22.4667 118.008 22.5664 117.959C22.6881 117.898 22.8389 117.845 22.9873 117.791L31.9873 114.517C32.2769 114.412 32.5468 114.313 32.7705 114.267ZM33.3525 117.976C33.0423 118.035 32.6297 118.177 32.0098 118.391L22.4492 121.7C22.1803 121.793 22 122.047 22 122.332C22.0002 122.701 22.2992 123 22.668 123H32.5C32.9853 123 33.2991 122.999 33.5303 122.968C33.7469 122.938 33.8154 122.891 33.8535 122.853C33.8916 122.815 33.9386 122.747 33.9678 122.53C33.9988 122.299 34 121.985 34 121.5V119.808C34 119.153 33.999 118.716 33.9531 118.404C33.9089 118.103 33.8378 118.031 33.79 117.997C33.7423 117.963 33.6512 117.92 33.3525 117.976ZM32.9717 115.247C32.8371 115.275 32.6491 115.341 32.3291 115.458L23.3291 118.73C23.1594 118.792 23.0707 118.825 23.0107 118.854L23.0078 118.855V118.859C23.0004 118.926 23 119.02 23 119.2V120.451L31.6826 117.446C32.1925 117.27 32.6322 117.119 33 117.032V115.928C33 115.587 32.9985 115.387 32.9785 115.251L32.9766 115.246L32.9717 115.247Z" fill="currentColor"/>
</svg>
