<svg xmlns="http://www.w3.org/2000/svg" width="16" height="16" viewBox="20.53 111.0 17.0 17.0" fill="none">
  <path d="M31.5 123.875C31.845 123.875 32.125 124.155 32.125 124.5C32.125 124.845 31.845 125.125 31.5 125.125C31.155 125.125 30.875 124.845 30.875 124.5C30.875 124.155 31.155 123.875 31.5 123.875Z" fill="currentColor"/>
  <path d="M31.5 120C31.776 120 32 120.224 32 120.5V122.5C32 122.776 31.776 123 31.5 123C31.224 123 31 122.776 31 122.5V120.5C31 120.224 31.224 120 31.5 120Z" fill="currentColor"/>
  <path d="M31.5 118.025C32.0606 118.026 32.4419 118.395 32.7383 118.815C33.0363 119.238 33.3483 119.856 33.7305 120.611L35.127 123.371C35.4483 124.006 35.716 124.534 35.8584 124.962C36.003 125.397 36.0629 125.858 35.8008 126.285C35.5384 126.712 35.0989 126.867 34.6455 126.935C34.1993 127.001 33.608 127 32.8965 127H30.1035C29.3918 127 28.7998 127.001 28.3535 126.935C27.9003 126.867 27.4605 126.712 27.1982 126.285C26.9363 125.859 26.9961 125.397 27.1406 124.962C27.283 124.534 27.5507 124.006 27.8721 123.371L29.2686 120.611C29.6507 119.856 29.9627 119.238 30.2607 118.815C30.5571 118.395 30.9393 118.026 31.5 118.025ZM31.5 119.025C31.446 119.025 31.3246 119.042 31.0781 119.392C30.8327 119.74 30.5586 120.277 30.1611 121.062L28.7646 123.822C28.4282 124.487 28.2032 124.936 28.0898 125.277C27.979 125.611 28.0204 125.712 28.0508 125.762C28.0812 125.811 28.1532 125.895 28.501 125.946C28.8563 125.999 29.3587 126 30.1035 126H32.8965C33.6413 126 34.1437 125.999 34.499 125.946C34.8466 125.895 34.9188 125.811 34.9492 125.762C34.9796 125.712 35.0209 125.611 34.9102 125.277C34.7968 124.936 34.5709 124.487 34.2344 123.822L32.8379 121.062C32.4404 120.277 32.1664 119.74 31.9209 119.392C31.6745 119.042 31.554 119.025 31.5 119.025Z" fill="currentColor"/>
  <path d="M28.5 112C29.4285 112 30.1751 111.999 30.7607 112.078C31.3608 112.159 31.8663 112.331 32.2676 112.732C32.6689 113.134 32.8412 113.639 32.9219 114.239C33.0006 114.825 33 115.572 33 116.5V117.611C32.7368 117.381 32.4081 117.176 32 117.082V116.5C32 115.543 31.9993 114.876 31.9316 114.372C31.8659 113.883 31.7451 113.624 31.5605 113.439C31.376 113.255 31.1171 113.134 30.6279 113.068C30.1244 113.001 29.4569 113 28.5 113H26.5C25.5431 113 24.8756 113.001 24.3721 113.068C23.8829 113.134 23.624 113.255 23.4395 113.439C23.2549 113.624 23.1341 113.883 23.0684 114.372C23.0007 114.876 23 115.543 23 116.5V122.69L24.2764 122.053C24.4369 121.972 24.6281 121.984 24.7773 122.084L26 122.898L27.2227 122.084L27.2881 122.047C27.3376 122.024 27.3902 122.01 27.4434 122.004L26.9805 122.92C26.8466 123.184 26.7135 123.45 26.5898 123.707L26.2773 123.916C26.1094 124.028 25.8906 124.028 25.7227 123.916L24.4639 123.076L22.7236 123.947C22.5688 124.025 22.3847 124.017 22.2373 123.926C22.0899 123.835 22 123.673 22 123.5V116.5C22 115.572 21.9994 114.825 22.0781 114.239C22.1588 113.639 22.3311 113.134 22.7324 112.732C23.1337 112.331 23.6392 112.159 24.2393 112.078C24.8249 111.999 25.5715 112 26.5 112H28.5Z" fill="currentColor"/>
  <path d="M27.5 114.5C27.7761 114.5 28 114.724 28 115V115.087C28.5823 115.293 29 115.847 29 116.5C29 116.776 28.7761 117 28.5 117C28.2583 117 28.0563 116.829 28.0098 116.601L27.9902 116.399C27.9437 116.171 27.7417 116 27.5 116H27.4268C27.1911 116 27.0002 116.191 27 116.427C27 116.589 27.0917 116.736 27.2363 116.809L28.2109 117.297C28.6944 117.539 29 118.033 29 118.573C28.9999 119.212 28.5792 119.752 28 119.934V120C28 120.276 27.7761 120.5 27.5 120.5C27.2239 120.5 27 120.276 27 120V119.912C26.4178 119.706 26 119.153 26 118.5C26 118.224 26.2239 118 26.5 118C26.7417 118 26.9437 118.171 26.9902 118.399L27.0098 118.601C27.0563 118.829 27.2583 119 27.5 119H27.5732C27.8089 119 27.9998 118.809 28 118.573C28 118.411 27.9083 118.264 27.7637 118.191L26.7891 117.703C26.3056 117.461 26 116.967 26 116.427C26.0001 115.788 26.4206 115.247 27 115.065V115C27 114.724 27.2239 114.5 27.5 114.5Z" fill="currentColor"/>
</svg>
