<svg xmlns="http://www.w3.org/2000/svg" width="16" height="16" viewBox="20.55 111.0 17.04 17.04" fill="none">
  <path d="M33.4395 119.439C34.0252 118.854 34.9748 118.854 35.5605 119.439C36.1463 120.025 36.1463 120.975 35.5605 121.561L31.0605 126.061C31.0084 126.113 30.9453 126.153 30.876 126.178L28.6689 126.971C28.4868 127.036 28.2833 126.99 28.1465 126.854C28.0097 126.717 27.9639 126.513 28.0293 126.331L28.8223 124.124C28.8472 124.055 28.8873 123.992 28.9395 123.939L33.4395 119.439ZM29.7256 124.567L29.3291 125.671L30.4326 125.274L33.8555 121.852L33.1484 121.145L29.7256 124.567ZM34.8535 120.146C34.6583 119.951 34.3417 119.951 34.1465 120.146L33.8555 120.438L34.5625 121.145L34.8535 120.854C35.0488 120.658 35.0488 120.342 34.8535 120.146Z" fill="currentColor"/>
  <path d="M28.5 112C29.4285 112 30.1751 111.999 30.7607 112.078C31.3608 112.159 31.8663 112.331 32.2676 112.732C32.6689 113.134 32.8412 113.639 32.9219 114.239C33.0006 114.825 33 115.572 33 116.5V118.503C32.9073 118.573 32.8169 118.648 32.7324 118.732L32 119.465V116.5C32 115.543 31.9993 114.876 31.9316 114.372C31.8659 113.883 31.7451 113.624 31.5605 113.439C31.376 113.255 31.1171 113.134 30.6279 113.068C30.1244 113.001 29.4569 113 28.5 113H26.5C25.5431 113 24.8756 113.001 24.3721 113.068C23.8829 113.134 23.624 113.255 23.4395 113.439C23.2549 113.624 23.1341 113.883 23.0684 114.372C23.0007 114.876 23 115.543 23 116.5V122.69L24.2764 122.053C24.4369 121.972 24.6281 121.984 24.7773 122.084L26 122.898L27.2227 122.084L27.2881 122.047C27.4447 121.974 27.6305 121.986 27.7773 122.084L28.7393 122.725L28.2324 123.232C28.1618 123.303 28.0989 123.38 28.0439 123.463L27.5 123.101L26.2773 123.916C26.1094 124.028 25.8906 124.028 25.7227 123.916L24.4639 123.076L22.7236 123.947C22.5688 124.025 22.3847 124.017 22.2373 123.926C22.0899 123.835 22 123.673 22 123.5V116.5C22 115.572 21.9994 114.825 22.0781 114.239C22.1588 113.639 22.3311 113.134 22.7324 112.732C23.1337 112.331 23.6392 112.159 24.2393 112.078C24.8249 111.999 25.5715 112 26.5 112H28.5Z" fill="currentColor"/>
  <path d="M27.5 114.5C27.7761 114.5 28 114.724 28 115V115.087C28.5823 115.293 29 115.847 29 116.5C29 116.776 28.7761 117 28.5 117C28.2583 117 28.0563 116.829 28.0098 116.601L27.9902 116.399C27.9437 116.171 27.7417 116 27.5 116H27.4268C27.1911 116 27.0002 116.191 27 116.427C27 116.589 27.0917 116.736 27.2363 116.809L28.2109 117.297C28.6944 117.539 29 118.033 29 118.573C28.9999 119.212 28.5792 119.752 28 119.934V120C28 120.276 27.7761 120.5 27.5 120.5C27.2239 120.5 27 120.276 27 120V119.912C26.4178 119.706 26 119.153 26 118.5C26 118.224 26.2239 118 26.5 118C26.7417 118 26.9437 118.171 26.9902 118.399L27.0098 118.601C27.0563 118.829 27.2583 119 27.5 119H27.5732C27.8089 119 27.9998 118.809 28 118.573C28 118.411 27.9083 118.264 27.7637 118.191L26.7891 117.703C26.3056 117.461 26 116.967 26 116.427C26.0001 115.788 26.4206 115.247 27 115.065V115C27 114.724 27.2239 114.5 27.5 114.5Z" fill="currentColor"/>
</svg>
