<svg xmlns="http://www.w3.org/2000/svg" width="16" height="16" viewBox="20.0 111.0 16.0 16.0" fill="none">
  <path d="M34.5 123C34.7761 123 35 123.224 35 123.5C35 123.776 34.7761 124 34.5 124H21.5C21.2239 124 21 123.776 21 123.5C21 123.224 21.2239 123 21.5 123H34.5Z" fill="currentColor"/>
  <path d="M34.5 120C34.7761 120 35 120.224 35 120.5C35 120.776 34.7761 121 34.5 121H21.5C21.2239 121 21 120.776 21 120.5C21 120.224 21.2239 120 21.5 120H34.5Z" fill="currentColor"/>
  <path d="M34.5 117C34.7761 117 35 117.224 35 117.5C35 117.776 34.7761 118 34.5 118H21.5C21.2239 118 21 117.776 21 117.5C21 117.224 21.2239 117 21.5 117H34.5Z" fill="currentColor"/>
  <path d="M34.5 114C34.7761 114 35 114.224 35 114.5C35 114.776 34.7761 115 34.5 115H21.5C21.2239 115 21 114.776 21 114.5C21 114.224 21.2239 114 21.5 114H34.5Z" fill="currentColor"/>
</svg>
