<svg xmlns="http://www.w3.org/2000/svg" width="16" height="16" viewBox="20.0 111.0 16.0 16.0" fill="none">
  <path d="M33 120C33.2261 120 33.4207 120 33.5811 120.011C33.746 120.022 33.9113 120.047 34.0742 120.114C34.4416 120.266 34.7335 120.558 34.8857 120.926C34.9532 121.089 34.978 121.254 34.9893 121.419C35.0002 121.579 35 121.774 35 122C35 122.226 35.0002 122.421 34.9893 122.581C34.978 122.746 34.9532 122.911 34.8857 123.074C34.7335 123.442 34.4416 123.734 34.0742 123.886C33.9113 123.953 33.746 123.978 33.5811 123.989C33.4207 124 33.2261 124 33 124H23C22.7739 124 22.5793 124 22.4189 123.989C22.254 123.978 22.0887 123.953 21.9258 123.886C21.5584 123.734 21.2665 123.442 21.1143 123.074C21.0468 122.911 21.022 122.746 21.0107 122.581C20.9998 122.421 21 122.226 21 122C21 121.774 20.9998 121.579 21.0107 121.419C21.022 121.254 21.0468 121.089 21.1143 120.926C21.2665 120.558 21.5584 120.266 21.9258 120.114C22.0887 120.047 22.254 120.022 22.4189 120.011C22.5793 120 22.7739 120 23 120H33ZM23 121C22.7605 121 22.6057 121.001 22.4873 121.009C22.3733 121.017 22.3294 121.029 22.3086 121.038C22.1861 121.089 22.0888 121.186 22.0381 121.309C22.0295 121.329 22.0166 121.373 22.0088 121.487C22.0007 121.606 22 121.76 22 122C22 122.24 22.0007 122.394 22.0088 122.513C22.0166 122.627 22.0295 122.671 22.0381 122.691C22.0888 122.814 22.1861 122.911 22.3086 122.962C22.3294 122.971 22.3733 122.983 22.4873 122.991C22.6057 122.999 22.7605 123 23 123H33C33.2395 123 33.3943 122.999 33.5127 122.991C33.6267 122.983 33.6706 122.971 33.6914 122.962C33.8139 122.911 33.9112 122.814 33.9619 122.691C33.9705 122.671 33.9834 122.627 33.9912 122.513C33.9993 122.394 34 122.24 34 122C34 121.76 33.9993 121.606 33.9912 121.487C33.9834 121.373 33.9705 121.329 33.9619 121.309C33.9112 121.186 33.8139 121.089 33.6914 121.038C33.6706 121.029 33.6267 121.017 33.5127 121.009C33.3943 121.001 33.2395 121 33 121H23Z" fill="currentColor"/>
  <path d="M34.5 117C34.7761 117 35 117.224 35 117.5C35 117.776 34.7761 118 34.5 118H21.5C21.2239 118 21 117.776 21 117.5C21 117.224 21.2239 117 21.5 117H34.5Z" fill="currentColor"/>
  <path d="M34.5 114C34.7761 114 35 114.224 35 114.5C35 114.776 34.7761 115 34.5 115H21.5C21.2239 115 21 114.776 21 114.5C21 114.224 21.2239 114 21.5 114H34.5Z" fill="currentColor"/>
</svg>
