<svg xmlns="http://www.w3.org/2000/svg" width="16" height="16" viewBox="20.0 111.0 16.0 16.0" fill="none">
  <path d="M25.5 123C25.7761 123 26 123.224 26 123.5C26 123.776 25.7761 124 25.5 124H21.5C21.2239 124 21 123.776 21 123.5C21 123.224 21.2239 123 21.5 123H25.5Z" fill="currentColor"/>
  <path d="M31.5 114C32.193 114 32.7634 113.999 33.2129 114.06C33.6767 114.122 34.0861 114.258 34.4141 114.586C34.742 114.914 34.878 115.323 34.9404 115.787C35.0009 116.237 35 116.807 35 117.5V120.5C35 121.193 35.0009 121.763 34.9404 122.213C34.878 122.677 34.742 123.086 34.4141 123.414C34.0861 123.742 33.6767 123.878 33.2129 123.94C32.7634 124.001 32.193 124 31.5 124C30.807 124 30.2366 124.001 29.7871 123.94C29.3233 123.878 28.9139 123.742 28.5859 123.414C28.258 123.086 28.122 122.677 28.0596 122.213C27.9991 121.763 28 121.193 28 120.5V117.5C28 116.807 27.9991 116.237 28.0596 115.787C28.122 115.323 28.258 114.914 28.5859 114.586C28.9139 114.258 29.3233 114.122 29.7871 114.06C30.2366 113.999 30.807 114 31.5 114ZM31.5 115C30.7788 115 30.2883 115.001 29.9209 115.051C29.5679 115.098 29.4043 115.182 29.293 115.293C29.1817 115.404 29.0982 115.568 29.0508 115.921C29.0014 116.288 29 116.779 29 117.5V120.5C29 121.221 29.0014 121.712 29.0508 122.079C29.0982 122.432 29.1817 122.596 29.293 122.707C29.4043 122.818 29.5679 122.902 29.9209 122.949C30.2883 122.999 30.7788 123 31.5 123C32.2212 123 32.7117 122.999 33.0791 122.949C33.4321 122.902 33.5957 122.818 33.707 122.707C33.8183 122.596 33.9018 122.432 33.9492 122.079C33.9986 121.712 34 121.221 34 120.5V117.5C34 116.779 33.9986 116.288 33.9492 115.921C33.9018 115.568 33.8183 115.404 33.707 115.293C33.5957 115.182 33.4321 115.098 33.0791 115.051C32.7117 115.001 32.2212 115 31.5 115Z" fill="currentColor"/>
  <path d="M25.5 120C25.7761 120 26 120.224 26 120.5C26 120.776 25.7761 121 25.5 121H21.5C21.2239 121 21 120.776 21 120.5C21 120.224 21.2239 120 21.5 120H25.5Z" fill="currentColor"/>
  <path d="M25.5 117C25.7761 117 26 117.224 26 117.5C26 117.776 25.7761 118 25.5 118H21.5C21.2239 118 21 117.776 21 117.5C21 117.224 21.2239 117 21.5 117H25.5Z" fill="currentColor"/>
  <path d="M25.5 114C25.7761 114 26 114.224 26 114.5C26 114.776 25.7761 115 25.5 115H21.5C21.2239 115 21 114.776 21 114.5C21 114.224 21.2239 114 21.5 114H25.5Z" fill="currentColor"/>
</svg>
