<svg xmlns="http://www.w3.org/2000/svg" width="16" height="16" viewBox="21.0 112.0 15.0 15.0" fill="none">
  <path d="M31.5 113C31.9589 113 32.3281 113 32.6279 113.021C32.9323 113.041 33.2022 113.085 33.457 113.19C34.0693 113.444 34.5558 113.931 34.8096 114.543C34.9151 114.798 34.9587 115.068 34.9795 115.372C34.9999 115.672 35 116.041 35 116.5C35 116.959 34.9999 117.328 34.9795 117.628C34.9587 117.932 34.9151 118.202 34.8096 118.457C34.5558 119.069 34.0693 119.556 33.457 119.81C33.2022 119.915 32.9323 119.959 32.6279 119.979C32.3281 120 31.9589 120 31.5 120H29V124.293L31.1465 122.146C31.3417 121.951 31.6583 121.951 31.8535 122.146C32.0488 122.342 32.0488 122.658 31.8535 122.854L28.8535 125.854C28.7597 125.947 28.6326 126 28.5 126C28.3674 126 28.2403 125.947 28.1465 125.854L25.1465 122.854C24.9512 122.658 24.9512 122.342 25.1465 122.146C25.3417 121.951 25.6583 121.951 25.8535 122.146L28 124.293V120H25.5C25.0411 120 24.6719 120 24.3721 119.979C24.0677 119.959 23.7978 119.915 23.543 119.81C22.9307 119.556 22.4442 119.069 22.1904 118.457C22.0849 118.202 22.0413 117.932 22.0205 117.628C22.0001 117.328 22 116.959 22 116.5C22 116.041 22.0001 115.672 22.0205 115.372C22.0413 115.068 22.0849 114.798 22.1904 114.543C22.4442 113.931 22.9307 113.444 23.543 113.19C23.7978 113.085 24.0677 113.041 24.3721 113.021C24.6719 113 25.0411 113 25.5 113H31.5ZM25.5 114C25.0272 114 24.6974 114 24.4395 114.018C24.1862 114.035 24.0384 114.068 23.9258 114.114C23.5584 114.266 23.2665 114.558 23.1143 114.926C23.0676 115.038 23.0349 115.186 23.0176 115.439C23 115.697 23 116.027 23 116.5C23 116.973 23 117.303 23.0176 117.561C23.0349 117.814 23.0676 117.962 23.1143 118.074C23.2665 118.442 23.5584 118.734 23.9258 118.886C24.0384 118.932 24.1862 118.965 24.4395 118.982C24.6974 119 25.0272 119 25.5 119H31.5C31.9728 119 32.3026 119 32.5605 118.982C32.8138 118.965 32.9616 118.932 33.0742 118.886C33.4416 118.734 33.7335 118.442 33.8857 118.074C33.9324 117.962 33.9651 117.814 33.9824 117.561C34 117.303 34 116.973 34 116.5C34 116.027 34 115.697 33.9824 115.439C33.9651 115.186 33.9324 115.038 33.8857 114.926C33.7335 114.558 33.4416 114.266 33.0742 114.114C32.9616 114.068 32.8138 114.035 32.5605 114.018C32.3026 114 31.9728 114 31.5 114H25.5Z" fill="currentColor"/>
</svg>
