<svg xmlns="http://www.w3.org/2000/svg" width="16" height="16" viewBox="20.0 112.0 17.05 17.05" fill="none">
  <path d="M30.5 118C32.433 118 34 119.567 34 121.5C34 122.286 33.7403 123.011 33.3027 123.596L35.8535 126.146C36.0488 126.342 36.0488 126.658 35.8535 126.854C35.6583 127.049 35.3417 127.049 35.1465 126.854L32.5957 124.303C32.0114 124.74 31.2862 125 30.5 125C28.567 125 27 123.433 27 121.5C27 119.567 28.567 118 30.5 118ZM30.5 119C29.1193 119 28 120.119 28 121.5C28 122.881 29.1193 124 30.5 124C31.8807 124 33 122.881 33 121.5C33 120.119 31.8807 119 30.5 119Z" fill="currentColor"/>
  <path d="M30.5 114C31.4285 114 32.1751 113.999 32.7607 114.078C33.3608 114.159 33.8663 114.331 34.2676 114.732C34.6689 115.134 34.8412 115.639 34.9219 116.239C35.0006 116.825 35 117.572 35 118.5V120.086C35 120.452 34.9982 120.738 34.9697 120.993C34.8717 120.119 34.5252 119.321 34 118.672V118.5C34 117.543 33.9993 116.876 33.9316 116.372C33.8659 115.883 33.7451 115.624 33.5605 115.439C33.376 115.255 33.1171 115.134 32.6279 115.068C32.1244 115.001 31.4569 115 30.5 115H25.5C24.5431 115 23.8756 115.001 23.3721 115.068C22.8829 115.134 22.624 115.255 22.4395 115.439C22.2549 115.624 22.1341 115.883 22.0684 116.372C22.0007 116.876 22 117.543 22 118.5V119.5C22 120.457 22.0007 121.124 22.0684 121.628C22.1341 122.117 22.2549 122.376 22.4395 122.561C22.624 122.745 22.8829 122.866 23.3721 122.932C23.8756 122.999 24.5431 123 25.5 123H26.2578C26.3837 123.356 26.5522 123.692 26.7588 124H25.5C24.5715 124 23.8249 124.001 23.2393 123.922C22.6392 123.841 22.1337 123.669 21.7324 123.268C21.3311 122.866 21.1588 122.361 21.0781 121.761C20.9994 121.175 21 120.428 21 119.5V118.5C21 117.572 20.9994 116.825 21.0781 116.239C21.1588 115.639 21.3311 115.134 21.7324 114.732C22.1337 114.331 22.6392 114.159 23.2393 114.078C23.8249 113.999 24.5715 114 25.5 114H30.5Z" fill="currentColor"/>
</svg>
