<svg xmlns="http://www.w3.org/2000/svg" width="16" height="16" viewBox="20.0 112.0 17.01 17.01" fill="none">
  <path d="M33.1465 123.146C33.3417 122.951 33.6583 122.951 33.8535 123.146C34.0487 123.342 34.0488 123.658 33.8535 123.854L32.8516 124.854C32.9452 125.05 33 125.268 33 125.5C33 126.328 32.3284 127 31.5 127C30.6716 127 30 126.328 30 125.5C30 124.672 30.6716 124 31.5 124C31.7311 124 31.949 124.054 32.1445 124.147L33.1465 123.146ZM31.5 125C31.2239 125 31 125.224 31 125.5C31 125.776 31.2239 126 31.5 126C31.7761 126 32 125.776 32 125.5C32 125.224 31.7761 125 31.5 125Z" fill="currentColor"/>
  <path d="M31.501 120.5C32.6964 120.5 33.8445 120.974 34.6904 121.818C35.3838 122.511 35.8289 123.406 35.9668 124.364C35.9776 124.439 36.0059 124.617 36.002 124.785C35.9966 125.011 35.9344 125.307 35.7041 125.573C35.459 125.856 35.1549 125.95 34.9463 125.982C34.7832 126.008 34.6011 126.005 34.5127 126.005H33.9492C33.9826 125.842 34 125.673 34 125.5C34 125.33 33.9824 125.165 33.9502 125.005H34.5127C34.7224 125.005 34.8416 125.004 34.918 124.947L34.9482 124.919C35.0041 124.854 35.0101 124.776 34.9961 124.65L34.9766 124.507C34.8827 123.855 34.606 123.24 34.1768 122.735L33.9844 122.526C33.3261 121.869 32.4319 121.5 31.501 121.5C30.5702 121.5 29.6768 121.869 29.0186 122.526C28.4791 123.065 28.1336 123.762 28.0264 124.507L28.0068 124.65C27.9928 124.776 27.9978 124.854 28.0537 124.919C28.1097 124.983 28.1924 125 28.3311 125.004L28.4902 125.005H29.0498C29.0176 125.165 29 125.33 29 125.5C29 125.673 29.0174 125.842 29.0508 126.005H28.4902C28.4021 126.005 28.22 126.008 28.0566 125.982C27.848 125.95 27.5431 125.856 27.2979 125.573C27.0675 125.307 27.0053 125.011 27 124.785C26.996 124.617 27.0254 124.439 27.0361 124.364C27.174 123.406 27.6192 122.511 28.3125 121.818C29.1584 120.974 30.3058 120.5 31.501 120.5Z" fill="currentColor"/>
  <path d="M30.5 114C31.4285 114 32.1751 113.999 32.7607 114.078C33.3608 114.159 33.8663 114.331 34.2676 114.732C34.6689 115.134 34.8412 115.639 34.9219 116.239C35.0006 116.825 35 117.572 35 118.5V120.086C35 120.338 34.999 120.553 34.9902 120.745C34.6824 120.494 34.3501 120.277 33.999 120.099C33.999 120.094 34 120.09 34 120.086V118.5C34 117.543 33.9993 116.876 33.9316 116.372C33.8659 115.883 33.7451 115.624 33.5605 115.439C33.376 115.255 33.1171 115.134 32.6279 115.068C32.1244 115.001 31.4569 115 30.5 115H25.5C24.5431 115 23.8756 115.001 23.3721 115.068C22.8829 115.134 22.624 115.255 22.4395 115.439C22.2549 115.624 22.1341 115.883 22.0684 116.372C22.0007 116.876 22 117.543 22 118.5V119.5C22 120.457 22.0007 121.124 22.0684 121.628C22.1341 122.117 22.2549 122.376 22.4395 122.561C22.624 122.745 22.8829 122.866 23.3721 122.932C23.8756 122.999 24.5431 123 25.5 123H26.3691C26.2426 123.323 26.1458 123.657 26.082 124H25.5C24.5715 124 23.8249 124.001 23.2393 123.922C22.6392 123.841 22.1337 123.669 21.7324 123.268C21.3311 122.866 21.1588 122.361 21.0781 121.761C20.9994 121.175 21 120.428 21 119.5V118.5C21 117.572 20.9994 116.825 21.0781 116.239C21.1588 115.639 21.3311 115.134 21.7324 114.732C22.1337 114.331 22.6392 114.159 23.2393 114.078C23.8249 113.999 24.5715 114 25.5 114H30.5Z" fill="currentColor"/>
</svg>
