<svg xmlns="http://www.w3.org/2000/svg" width="16" height="16" viewBox="20.0 112.5 16.05 16.05" fill="none">
  <path d="M28.5 115C28.7761 115 29 115.224 29 115.5C29 115.776 28.7761 116 28.5 116H25C23.3431 116 22 117.343 22 119C22 120.657 23.3431 122 25 122H33.293L31.1465 119.854C30.9512 119.658 30.9512 119.342 31.1465 119.146C31.3417 118.951 31.6583 118.951 31.8535 119.146L34.8535 122.146C35.0488 122.342 35.0488 122.658 34.8535 122.854L31.8535 125.854C31.6583 126.049 31.3417 126.049 31.1465 125.854C30.9512 125.658 30.9512 125.342 31.1465 125.146L33.293 123H25C22.7909 123 21 121.209 21 119C21 116.791 22.7909 115 25 115H28.5Z" fill="currentColor"/>
</svg>
