<svg xmlns="http://www.w3.org/2000/svg" width="16" height="16" viewBox="20.0 109.45 16.05 16.05" fill="none">
  <path d="M31.1465 112.146C31.3417 111.951 31.6583 111.951 31.8535 112.146L34.8535 115.146C35.0488 115.342 35.0488 115.658 34.8535 115.853L31.8535 118.853C31.6583 119.049 31.3417 119.049 31.1465 118.853C30.9512 118.658 30.9512 118.342 31.1465 118.146L33.293 116H25C23.3431 116 22 117.343 22 119C22 120.657 23.3432 122 25 122H28.5C28.7761 122 29 122.224 29 122.5C29 122.776 28.7761 123 28.5 123H25C22.7909 123 21 121.209 21 119C21 116.791 22.7909 115 25 115H33.293L31.1465 112.853C30.9512 112.658 30.9512 112.342 31.1465 112.146Z" fill="currentColor"/>
</svg>
