<svg xmlns="http://www.w3.org/2000/svg" width="16" height="16" viewBox="21.0 111.97 14.07 14.07" fill="none">
  <path d="M23 123C23.5523 123 24 123.448 24 124C24 124.552 23.5523 125 23 125C22.4477 125 22 124.552 22 124C22 123.448 22.4477 123 23 123Z" fill="currentColor"/>
  <path d="M29.502 113C29.778 113 30.0019 113.224 30.002 113.5V117.097L33.2354 115.076C33.4695 114.93 33.7775 115.001 33.9238 115.235C34.0699 115.469 33.9987 115.778 33.7646 115.924L30.4424 117.999L33.7646 120.076C33.9987 120.223 34.07 120.531 33.9238 120.765C33.7775 120.999 33.4694 121.07 33.2354 120.924L30.002 118.902V122.5C30.002 122.776 29.778 123 29.502 123C29.2258 123 29.002 122.776 29.002 122.5V118.9L25.7646 120.924C25.5306 121.07 25.2225 120.999 25.0762 120.765C24.93 120.531 25.0013 120.223 25.2354 120.076L28.5566 117.999L25.2354 115.924C25.0013 115.778 24.9301 115.469 25.0762 115.235C25.2225 115.001 25.5305 114.93 25.7646 115.076L29.002 117.099V113.5C29.002 113.224 29.2258 113 29.502 113Z" fill="currentColor"/>
</svg>
