<svg xmlns="http://www.w3.org/2000/svg" width="16" height="16" viewBox="20.0 111.0 16.0 16.0" fill="none">
  <path d="M24.5 120.875C24.8452 120.875 25.125 121.155 25.125 121.5C25.125 121.845 24.8452 122.125 24.5 122.125C24.1548 122.125 23.875 121.845 23.875 121.5C23.875 121.155 24.1548 120.875 24.5 120.875Z" fill="currentColor"/>
  <path d="M31.5 121C31.7761 121 32 121.224 32 121.5C32 121.776 31.7761 122 31.5 122H26.5C26.2239 122 26 121.776 26 121.5C26 121.224 26.2239 121 26.5 121H31.5Z" fill="currentColor"/>
  <path d="M24.5 118.875C24.8452 118.875 25.125 119.155 25.125 119.5C25.125 119.845 24.8452 120.125 24.5 120.125C24.1548 120.125 23.875 119.845 23.875 119.5C23.875 119.155 24.1548 118.875 24.5 118.875Z" fill="currentColor"/>
  <path d="M31.5 119C31.7761 119 32 119.224 32 119.5C32 119.776 31.7761 120 31.5 120H26.5C26.2239 120 26 119.776 26 119.5C26 119.224 26.2239 119 26.5 119H31.5Z" fill="currentColor"/>
  <path d="M25.25 113C25.5925 113 25.8744 113 26.1045 113.016C26.3391 113.032 26.5567 113.066 26.7656 113.152C27.2555 113.355 27.6447 113.745 27.8477 114.234C27.9342 114.443 27.9684 114.661 27.9844 114.896C28.0001 115.126 28 115.408 28 115.75C28 115.873 28.0006 115.941 28.0039 115.989V115.995C28.006 115.995 28.0084 115.996 28.0107 115.996C28.0595 115.999 28.1269 116 28.25 116H31.5C32.193 116 32.7634 115.999 33.2129 116.06C33.6767 116.122 34.0861 116.258 34.4141 116.586C34.742 116.914 34.878 117.323 34.9404 117.787C35.0009 118.237 35 118.807 35 119.5V120.5C35 121.428 35.0006 122.175 34.9219 122.761C34.8412 123.361 34.6689 123.866 34.2676 124.268C33.8663 124.669 33.3608 124.841 32.7607 124.922C32.1751 125.001 31.4285 125 30.5 125H25.5C24.5715 125 23.8249 125.001 23.2393 124.922C22.6392 124.841 22.1337 124.669 21.7324 124.268C21.3311 123.866 21.1588 123.361 21.0781 122.761C20.9994 122.175 21 121.428 21 120.5V116.5C21 115.807 20.9991 115.237 21.0596 114.787C21.122 114.323 21.258 113.914 21.5859 113.586C21.9139 113.258 22.3234 113.122 22.7871 113.06C23.2366 112.999 23.807 113 24.5 113H25.25ZM24.5 114C23.7788 114 23.2883 114.001 22.9209 114.051C22.5679 114.098 22.4043 114.182 22.293 114.293C22.1817 114.404 22.0982 114.568 22.0508 114.921C22.0014 115.288 22 115.779 22 116.5V120.5C22 121.457 22.0007 122.124 22.0684 122.628C22.1341 123.117 22.2549 123.376 22.4395 123.561C22.624 123.745 22.8829 123.866 23.3721 123.932C23.8756 123.999 24.5431 124 25.5 124H30.5C31.4569 124 32.1244 123.999 32.6279 123.932C33.1171 123.866 33.376 123.745 33.5605 123.561C33.7451 123.376 33.8659 123.117 33.9316 122.628C33.9993 122.124 34 121.457 34 120.5V119.5C34 118.779 33.9986 118.288 33.9492 117.921C33.9018 117.568 33.8183 117.404 33.707 117.293C33.5957 117.182 33.4321 117.098 33.0791 117.051C32.7117 117.001 32.2212 117 31.5 117H28.25C28.1404 117 28.0331 117 27.9424 116.994C27.8472 116.988 27.7342 116.972 27.6172 116.924C27.3723 116.822 27.1777 116.628 27.0762 116.383C27.0277 116.266 27.0124 116.153 27.0059 116.058C26.9997 115.967 27 115.86 27 115.75C27 115.394 27.0001 115.151 26.9873 114.963C26.9748 114.779 26.9515 114.684 26.9238 114.617C26.8223 114.372 26.6277 114.178 26.3828 114.076C26.3161 114.049 26.2206 114.025 26.0371 114.013C25.8489 114 25.6063 114 25.25 114H24.5Z" fill="currentColor"/>
  <path d="M33.5 114C33.7761 114 34 114.224 34 114.5C34 114.776 33.7761 115 33.5 115H29.5C29.2239 115 29 114.776 29 114.5C29 114.224 29.2239 114 29.5 114H33.5Z" fill="currentColor"/>
</svg>
