<svg xmlns="http://www.w3.org/2000/svg" width="16" height="16" viewBox="19.95 110.95 16.1 16.1" fill="none">
  <path d="M33.5 118C33.7761 118 34 118.224 34 118.5V119.5C34 120.428 34.0006 121.175 33.9219 121.761C33.8412 122.361 33.6688 122.866 33.2676 123.268C32.8663 123.669 32.3608 123.841 31.7607 123.922C31.1751 124.001 30.4285 124 29.5 124H23.707L24.8535 125.146C25.0488 125.342 25.0488 125.658 24.8535 125.853C24.6583 126.049 24.3417 126.049 24.1465 125.853L22.1465 123.853C21.9512 123.658 21.9512 123.342 22.1465 123.146L24.1465 121.146C24.3417 120.951 24.6583 120.951 24.8535 121.146C25.0488 121.342 25.0488 121.658 24.8535 121.853L23.707 123H29.5C30.4569 123 31.1244 122.999 31.6279 122.932C32.1171 122.866 32.376 122.745 32.5605 122.561C32.7451 122.376 32.8659 122.117 32.9316 121.628C32.9993 121.124 33 120.457 33 119.5V118.5C33 118.224 33.2239 118 33.5 118Z" fill="currentColor"/>
  <path d="M31.1465 112.146C31.3417 111.951 31.6583 111.951 31.8535 112.146L33.8535 114.146C34.0488 114.342 34.0488 114.658 33.8535 114.853L31.8535 116.853C31.6583 117.049 31.3417 117.049 31.1465 116.853C30.9512 116.658 30.9512 116.342 31.1465 116.146L32.293 115H26.5C25.5431 115 24.8756 115.001 24.3721 115.068C23.8829 115.134 23.624 115.255 23.4395 115.439C23.255 115.624 23.1341 115.883 23.0684 116.372C23.0007 116.876 23 117.543 23 118.5V119.5C23 119.776 22.7761 120 22.5 120C22.2239 120 22 119.776 22 119.5V118.5C22 117.571 21.9994 116.825 22.0781 116.239C22.1588 115.639 22.3312 115.134 22.7324 114.732C23.1337 114.331 23.6392 114.159 24.2393 114.078C24.8249 113.999 25.5715 114 26.5 114H32.293L31.1465 112.853C30.9512 112.658 30.9512 112.342 31.1465 112.146Z" fill="currentColor"/>
</svg>
