<svg xmlns="http://www.w3.org/2000/svg" width="16" height="16" viewBox="19.95 111.45 16.05 16.05" fill="none">
  <path d="M25.1464 114.146C25.3417 113.951 25.6582 113.951 25.8535 114.146C26.0487 114.342 26.0487 114.658 25.8535 114.853L22.707 118H28.5C32.0898 118 35 120.91 35 124.5C34.9999 124.776 34.7761 125 34.5 125C34.2238 125 34 124.776 34 124.5C34 121.462 31.5375 119 28.5 119H22.707L25.8535 122.146C26.0487 122.342 26.0487 122.658 25.8535 122.853C25.6582 123.049 25.3417 123.049 25.1464 122.853L21.1464 118.853C20.9512 118.658 20.9512 118.342 21.1464 118.146L25.1464 114.146Z" fill="currentColor"/>
</svg>
