<svg xmlns="http://www.w3.org/2000/svg" width="16" height="16" viewBox="19.98 111.0 16.05 16.05" fill="none">
  <path d="M23.5 119C23.7761 119 24 119.224 24 119.5V121.5C24 121.985 24.0012 122.299 24.0322 122.53C24.0614 122.747 24.1084 122.815 24.1465 122.854C24.1845 122.892 24.2529 122.939 24.4697 122.968C24.7009 122.999 25.0147 123 25.5 123H26.293L25.1465 121.854C24.9512 121.658 24.9512 121.342 25.1465 121.146C25.3417 120.951 25.6583 120.951 25.8535 121.146L27.8535 123.146C28.0488 123.342 28.0488 123.658 27.8535 123.854L25.8535 125.854C25.6583 126.049 25.3417 126.049 25.1465 125.854C24.9512 125.658 24.9512 125.342 25.1465 125.146L26.293 124H25.5C25.0427 124 24.6493 124.001 24.3359 123.959C24.0082 123.915 23.6942 123.815 23.4395 123.561C23.1847 123.306 23.0851 122.992 23.041 122.664C22.9989 122.351 23 121.957 23 121.5V119.5C23 119.224 23.2239 119 23.5 119Z" fill="currentColor"/>
  <path d="M32 120C32.4431 120 32.876 119.998 33.2305 120.046C33.6137 120.097 34.0508 120.223 34.4141 120.586C34.7773 120.949 34.9026 121.386 34.9541 121.77C35.0018 122.124 35 122.557 35 123C35 123.443 35.0018 123.876 34.9541 124.23C34.9026 124.614 34.7773 125.051 34.4141 125.414C34.0508 125.777 33.6137 125.903 33.2305 125.954C32.876 126.002 32.4431 126 32 126C31.5569 126 31.124 126.002 30.7695 125.954C30.3863 125.903 29.9492 125.777 29.5859 125.414C29.2227 125.051 29.0974 124.614 29.0459 124.23C28.9982 123.876 29 123.443 29 123C29 122.557 28.9982 122.124 29.0459 121.77C29.0974 121.386 29.2227 120.949 29.5859 120.586C29.9492 120.223 30.3863 120.097 30.7695 120.046C31.124 119.998 31.5569 120 32 120ZM32 121C31.0572 121 30.5859 121 30.293 121.293C30.0001 121.586 30 122.057 30 123C30 123.943 30.0001 124.414 30.293 124.707C30.5859 125 31.0572 125 32 125C32.9428 125 33.4141 125 33.707 124.707C33.9999 124.414 34 123.943 34 123C34 122.057 33.9999 121.586 33.707 121.293C33.4141 121 32.9428 121 32 121Z" fill="currentColor"/>
  <path d="M24 112C25.6569 112 27 113.343 27 115C27 116.657 25.6569 118 24 118C22.3431 118 21 116.657 21 115C21 113.343 22.3431 112 24 112ZM24 113C22.8954 113 22 113.895 22 115C22 116.105 22.8954 117 24 117C25.1046 117 26 116.105 26 115C26 113.895 25.1046 113 24 113Z" fill="currentColor"/>
</svg>
