<svg xmlns="http://www.w3.org/2000/svg" width="16" height="16" viewBox="19.5 113.0 12.0 12.0" fill="none">
  <path d="M25.5007 114C25.7767 114 26.0007 114.224 26.0007 114.5V118.098L29.2361 116.076C29.4702 115.93 29.7783 116.001 29.9246 116.235C30.0707 116.469 29.9992 116.777 29.7654 116.924L26.4431 118.999L29.7654 121.076C29.9993 121.222 30.0706 121.531 29.9246 121.765C29.7783 121.999 29.4702 122.07 29.2361 121.924L26.0007 119.901V123.5C26.0007 123.776 25.7767 124 25.5007 124C25.2246 124 25.0007 123.776 25.0007 123.5V119.901L21.7654 121.924C21.5313 122.07 21.2233 121.999 21.0769 121.765C20.9307 121.531 21.002 121.222 21.2361 121.076L24.5574 118.999L21.2361 116.924C21.002 116.778 20.9307 116.469 21.0769 116.235C21.2233 116.001 21.5313 115.93 21.7654 116.076L25.0007 118.098V114.5C25.0007 114.224 25.2246 114 25.5007 114Z" fill="currentColor"/>
</svg>
