<svg xmlns="http://www.w3.org/2000/svg" width="16" height="16" viewBox="20.03 111.02 15.95 15.95" fill="none">
  <path d="M29.1512 117.146C29.3466 116.951 29.6631 116.951 29.8582 117.146C30.0533 117.342 30.0526 117.658 29.8573 117.854L26.8534 120.854C26.658 121.048 26.3415 121.049 26.1463 120.854L24.6463 119.354C24.4511 119.158 24.4511 118.842 24.6463 118.646C24.8416 118.451 25.1581 118.451 25.3534 118.646L26.4998 119.793L29.1512 117.146Z" fill="currentColor"/>
  <path d="M30.9315 114C31.4117 114 31.8292 114.001 32.1717 114.034C32.2295 114.039 32.2856 114.043 32.3397 114.05C32.7571 114.103 33.129 114.218 33.4442 114.493C33.7594 114.768 33.924 115.121 34.033 115.527C34.1384 115.92 34.2062 116.421 34.2889 117.025L34.8543 121.161C34.9246 121.675 34.9855 122.112 34.9842 122.463C34.9828 122.828 34.9157 123.186 34.6541 123.486C34.3925 123.786 34.0464 123.901 33.6854 123.952C33.3383 124.001 32.8961 124 32.3778 124H23.8084C23.2289 124 22.7387 124.001 22.3592 123.946C21.967 123.889 21.5906 123.76 21.326 123.417C21.0614 123.074 21.0309 122.677 21.075 122.283C21.1177 121.902 21.243 121.429 21.3895 120.868L22.5008 116.615C22.6385 116.088 22.7512 115.65 22.8856 115.308C23.0248 114.953 23.2053 114.649 23.5057 114.417C23.8061 114.185 24.1458 114.088 24.5242 114.043C24.8895 114 25.342 114 25.8866 114H30.9315ZM25.8866 115C25.3179 115 24.9351 115 24.6424 115.035C24.363 115.068 24.2216 115.128 24.117 115.209C24.0126 115.29 23.9198 115.411 23.8172 115.673C23.7096 115.947 23.6114 116.318 23.4676 116.868L22.3573 121.121C22.2028 121.712 22.1019 122.102 22.0692 122.395C22.0379 122.674 22.0824 122.76 22.118 122.806C22.1536 122.852 22.2252 122.917 22.5028 122.957C22.7936 122.999 23.1973 123 23.8084 123H28.995C29.5809 123 29.9759 122.999 30.2772 122.963C30.5649 122.928 30.7095 122.866 30.8153 122.781C30.9209 122.697 31.0134 122.57 31.1112 122.298C31.2136 122.012 31.3023 121.627 31.4325 121.056L32.3944 116.833C32.5262 116.254 32.6115 115.873 32.6346 115.588C32.6565 115.317 32.6121 115.234 32.576 115.188C32.5399 115.143 32.4683 115.081 32.1991 115.042C32.1467 115.034 32.0905 115.029 32.0301 115.024C31.9121 115.015 31.7814 115.009 31.6346 115.006L30.8211 115H25.8866ZM32.4071 121.277C32.2824 121.825 32.1801 122.279 32.0526 122.635C32.0065 122.763 31.9547 122.885 31.8944 123H32.3778C32.9262 123 33.2846 122.999 33.5457 122.962C33.7923 122.927 33.863 122.872 33.9002 122.829C33.9374 122.786 33.9832 122.709 33.9842 122.459C33.9852 122.195 33.9374 121.84 33.8631 121.297L33.3153 117.29L32.4071 121.277Z" fill="currentColor"/>
</svg>
