<svg xmlns="http://www.w3.org/2000/svg" width="16" height="16" viewBox="19.97 110.98 16.03 16.03" fill="none">
  <path d="M24.0001 116C24.1479 116 24.2549 115.999 24.3546 116.009C25.1066 116.08 25.756 116.57 26.0304 117.274C26.0671 117.369 26.0968 117.476 26.1358 117.614L26.6642 119.477C26.7871 119.91 26.887 120.264 26.9454 120.552C26.9895 120.77 27.0163 120.979 27.004 121.186L26.9776 121.391C26.8716 121.922 26.5541 122.384 26.1046 122.676L25.9581 124.22C25.8677 125.166 25.1163 125.903 24.1876 125.991L24.0001 126C22.9866 126 22.1385 125.23 22.0421 124.221L21.8937 122.675C21.5084 122.424 21.2198 122.049 21.0792 121.611L21.0226 121.391C20.9683 121.118 20.996 120.842 21.0548 120.552C21.1132 120.264 21.2131 119.91 21.336 119.477L21.8644 117.614C21.9034 117.476 21.9331 117.369 21.9698 117.274C22.2442 116.57 22.8936 116.08 23.6456 116.009C23.7453 115.999 23.8523 116 24.0001 116ZM23.7394 117.005C23.3627 117.041 23.0383 117.286 22.9015 117.638C22.8867 117.676 22.8741 117.722 22.8273 117.888L22.2989 119.75C22.1717 120.199 22.0843 120.509 22.0353 120.751C21.9867 120.991 21.9868 121.114 22.003 121.195L22.0314 121.306C22.1121 121.557 22.2905 121.768 22.5284 121.89L22.5362 121.893L22.5616 121.902L22.837 122.019L23.0382 124.125C23.0855 124.621 23.5018 125 24.0001 125C24.4983 125 24.9148 124.621 24.962 124.125L25.1622 122.019L25.4386 121.902C25.4494 121.898 25.4592 121.893 25.4659 121.891C25.4689 121.889 25.4726 121.889 25.4747 121.888L25.4767 121.886C25.7458 121.746 25.9379 121.492 25.9972 121.195L26.006 121.125C26.0107 121.045 26.0013 120.931 25.9649 120.751C25.9159 120.509 25.8285 120.199 25.7013 119.75L25.173 117.888C25.1261 117.722 25.1135 117.676 25.0987 117.638C24.962 117.286 24.6374 117.041 24.2608 117.005C24.2192 117.001 24.1677 117 24.0001 117C23.8326 117 23.781 117.001 23.7394 117.005Z" fill="currentColor"/>
  <path d="M32.0001 116C32.44 116 32.7346 115.997 32.9884 116.048C33.9796 116.245 34.7549 117.02 34.9523 118.012C35.0027 118.266 35.0001 118.56 35.0001 119V119.833C35.0001 120.135 35.0008 120.396 34.9815 120.608C34.9617 120.828 34.9171 121.045 34.7989 121.25C34.6673 121.478 34.478 121.667 34.2501 121.799C34.1689 121.846 34.0845 121.878 34.0001 121.904V124C34.0001 124.226 34.0003 124.421 33.9894 124.581C33.9809 124.705 33.9647 124.828 33.9288 124.951L33.8858 125.074C33.7526 125.396 33.5123 125.659 33.2081 125.822L33.0743 125.886C32.9114 125.953 32.746 125.978 32.5812 125.989C32.4208 126 32.2261 126 32.0001 126C31.7741 126 31.5794 126 31.419 125.989C31.2955 125.981 31.1716 125.965 31.0489 125.929L30.9259 125.886C30.6043 125.753 30.3407 125.512 30.1778 125.208L30.1144 125.074C30.0469 124.911 30.0221 124.746 30.0108 124.581C29.9999 124.421 30.0001 124.226 30.0001 124V121.904C29.9157 121.878 29.8313 121.846 29.7501 121.799C29.5222 121.667 29.3329 121.478 29.2013 121.25C29.0831 121.045 29.0385 120.828 29.0187 120.608C28.9994 120.396 29.0001 120.135 29.0001 119.833V119C29.0001 118.56 28.9975 118.266 29.048 118.012C29.2454 117.02 30.0205 116.245 31.0118 116.048C31.2656 115.997 31.5602 116 32.0001 116ZM32.0001 117C31.5111 117 31.3397 117.002 31.2071 117.028C30.6123 117.147 30.1469 117.612 30.0284 118.207C30.0021 118.34 30.0001 118.511 30.0001 119V119.833C30.0001 120.154 30.0006 120.361 30.0148 120.519C30.0283 120.668 30.0509 120.723 30.0665 120.75C30.1104 120.826 30.1741 120.89 30.2501 120.934C30.2785 120.95 30.3402 120.974 30.5343 120.987L31.0001 121.019V124C31.0001 124.239 31.0008 124.394 31.0089 124.513C31.0167 124.627 31.0296 124.671 31.0382 124.691L31.0851 124.778C31.1396 124.86 31.217 124.924 31.3087 124.962L31.3624 124.978C31.3901 124.983 31.4303 124.987 31.4874 124.991C31.6058 124.999 31.7607 125 32.0001 125C32.2395 125 32.3944 124.999 32.5128 124.991C32.6266 124.983 32.6707 124.971 32.6915 124.962L32.7784 124.915C32.8597 124.861 32.924 124.783 32.962 124.691L32.9776 124.638C32.983 124.61 32.9874 124.57 32.9913 124.513C32.9953 124.453 32.998 124.385 32.9991 124.302L33.0001 124V121.019L33.4659 120.987C33.6601 120.974 33.7217 120.95 33.7501 120.934C33.8261 120.89 33.8898 120.826 33.9337 120.75C33.9493 120.723 33.9719 120.668 33.9855 120.519C33.9997 120.361 34.0001 120.154 34.0001 119.833V119C34.0001 118.511 33.9981 118.34 33.9718 118.207C33.8534 117.612 33.3878 117.147 32.7931 117.028C32.6605 117.002 32.4892 117 32.0001 117Z" fill="currentColor"/>
  <path d="M24.0001 112C24.8285 112 25.5001 112.672 25.5001 113.5C25.5001 114.328 24.8285 115 24.0001 115C23.1717 115 22.5001 114.328 22.5001 113.5C22.5001 112.672 23.1717 112 24.0001 112ZM24.0001 113C23.724 113 23.5001 113.224 23.5001 113.5C23.5001 113.776 23.724 114 24.0001 114C24.2762 114 24.5001 113.776 24.5001 113.5C24.5001 113.224 24.2762 113 24.0001 113Z" fill="currentColor"/>
  <path d="M32.0001 112C32.8285 112 33.5001 112.672 33.5001 113.5C33.5001 114.328 32.8285 115 32.0001 115C31.1717 115 30.5001 114.328 30.5001 113.5C30.5001 112.672 31.1717 112 32.0001 112ZM32.0001 113C31.724 113 31.5001 113.224 31.5001 113.5C31.5001 113.776 31.724 114 32.0001 114C32.2762 114 32.5001 113.776 32.5001 113.5C32.5001 113.224 32.2762 113 32.0001 113Z" fill="currentColor"/>
</svg>
