<svg xmlns="http://www.w3.org/2000/svg" width="16" height="16" viewBox="20.0 111.0 16.0 16.0" fill="none">
  <path d="M32 120C32.4714 120 32.7071 120 32.8535 120.146C33 120.293 33 120.529 33 121C33 121.471 33 121.707 32.8535 121.854C32.7071 122 32.4714 122 32 122H31C30.5286 122 30.2929 122 30.1465 121.854C30 121.707 30 121.471 30 121C30 120.529 30 120.293 30.1465 120.146C30.2929 120 30.5286 120 31 120H32Z" fill="currentColor"/>
  <path d="M30 116C30.4714 116 30.7071 116 30.8535 116.146C31 116.293 31 116.529 31 117C31 117.471 31 117.707 30.8535 117.854C30.7071 118 30.4714 118 30 118H29C28.5286 118 28.2929 118 28.1465 117.854C28 117.707 28 117.471 28 117C28 116.529 28 116.293 28.1465 116.146C28.2929 116 28.5286 116 29 116H30Z" fill="currentColor"/>
  <path d="M24 120C24.4714 120 24.7071 120 24.8535 120.146C25 120.293 25 120.529 25 121C25 121.471 25 121.707 24.8535 121.854C24.7071 122 24.4714 122 24 122C23.5286 122 23.2929 122 23.1465 121.854C23 121.707 23 121.471 23 121C23 120.529 23 120.293 23.1465 120.146C23.2929 120 23.5286 120 24 120Z" fill="currentColor"/>
  <path d="M24 116C24.4714 116 24.7071 116 24.8535 116.146C25 116.293 25 116.529 25 117C25 117.471 25 117.707 24.8535 117.854C24.7071 118 24.4714 118 24 118C23.5286 118 23.2929 118 23.1465 117.854C23 117.707 23 117.471 23 117C23 116.529 23 116.293 23.1465 116.146C23.2929 116 23.5286 116 24 116Z" fill="currentColor"/>
  <path d="M30.5 113C31.4285 113 32.1751 112.999 32.7607 113.078C33.3608 113.159 33.8663 113.331 34.2676 113.732C34.6689 114.134 34.8412 114.639 34.9219 115.239C35.0006 115.825 35 116.572 35 117.5V120.5C35 121.428 35.0006 122.175 34.9219 122.761C34.8412 123.361 34.6689 123.866 34.2676 124.268C33.8663 124.669 33.3608 124.841 32.7607 124.922C32.1751 125.001 31.4285 125 30.5 125H25.5C24.5715 125 23.8249 125.001 23.2393 124.922C22.6392 124.841 22.1337 124.669 21.7324 124.268C21.3311 123.866 21.1588 123.361 21.0781 122.761C20.9994 122.175 21 121.428 21 120.5V117.5C21 116.572 20.9994 115.825 21.0781 115.239C21.1588 114.639 21.3311 114.134 21.7324 113.732C22.1337 113.331 22.6392 113.159 23.2393 113.078C23.8249 112.999 24.5715 113 25.5 113H30.5ZM27 124H30.5C31.4569 124 32.1244 123.999 32.6279 123.932C33.1171 123.866 33.376 123.745 33.5605 123.561C33.7451 123.376 33.8659 123.117 33.9316 122.628C33.9993 122.124 34 121.457 34 120.5V117.5C34 116.543 33.9993 115.876 33.9316 115.372C33.8659 114.883 33.7451 114.624 33.5605 114.439C33.376 114.255 33.1171 114.134 32.6279 114.068C32.1244 114.001 31.4569 114 30.5 114H27V124ZM25.5 114C24.5431 114 23.8756 114.001 23.3721 114.068C22.8829 114.134 22.624 114.255 22.4395 114.439C22.2549 114.624 22.1341 114.883 22.0684 115.372C22.0007 115.876 22 116.543 22 117.5V120.5C22 121.457 22.0007 122.124 22.0684 122.628C22.1341 123.117 22.2549 123.376 22.4395 123.561C22.624 123.745 22.8829 123.866 23.3721 123.932C23.8756 123.999 24.5431 124 25.5 124H26V114H25.5Z" fill="currentColor"/>
</svg>
