<svg xmlns="http://www.w3.org/2000/svg" width="16" height="16" viewBox="20.21 109.94 15.82 15.82" fill="none">
  <path d="M30.5003 114C31.3286 114 32.0003 114.672 32.0003 115.5C32.0003 116.329 31.3286 117 30.5003 117C29.6719 117 29.0003 116.329 29.0003 115.5C29.0003 114.672 29.6719 114 30.5003 114Z" fill="currentColor"/>
  <path d="M33.2044 111C33.4678 110.986 33.7326 110.969 33.9583 110.998C34.2177 111.032 34.4559 111.126 34.6653 111.334C34.8748 111.543 34.9705 111.78 35.0052 112.039C35.0353 112.265 35.0209 112.53 35.0081 112.793C34.9753 113.47 34.8789 114.342 34.6282 115.209C34.3784 116.074 33.9652 116.967 33.2786 117.655L33.2669 117.666L33.2552 117.677L32.9993 117.902L33.0003 120.859C33.0003 121.123 33.0088 121.395 32.9056 121.645C32.8022 121.895 32.6042 122.082 32.4173 122.27L30.5931 124.104C30.4532 124.244 30.3078 124.391 30.1771 124.489C30.0484 124.585 29.7953 124.738 29.4817 124.636C29.1684 124.534 29.0539 124.262 29.0062 124.109C28.9576 123.953 28.9267 123.749 28.8958 123.553L28.6087 121.733C28.5921 121.744 28.5771 121.758 28.5608 121.769C28.3532 121.908 28.1124 122.02 27.8187 122.011C27.5252 122.002 27.2923 121.875 27.0941 121.723C27.0689 121.704 27.0446 121.682 27.0189 121.66C26.4784 122.165 25.826 122.573 25.2191 122.803C24.8907 122.927 24.5518 123.01 24.2376 123.014C23.9285 123.018 23.5768 122.945 23.3157 122.684C23.0549 122.423 22.9825 122.071 22.9866 121.762C22.9909 121.448 23.0733 121.11 23.1976 120.782C23.4269 120.176 23.832 119.523 24.3343 118.984C24.2987 118.942 24.2651 118.902 24.2347 118.863C24.0807 118.662 23.9528 118.426 23.9456 118.128C23.9387 117.835 24.0513 117.596 24.1927 117.39L22.4183 117.136C22.2194 117.108 22.0133 117.08 21.8558 117.033C21.7016 116.988 21.4239 116.875 21.3187 116.56C21.2138 116.244 21.3692 115.989 21.4651 115.86C21.5142 115.794 21.5749 115.723 21.6419 115.653L21.8538 115.439L23.8489 113.444C23.9921 113.304 24.1444 113.173 24.3323 113.095C24.5205 113.017 24.7209 113.003 24.9212 113H28.138L28.3538 112.763L28.3616 112.754L28.3704 112.745C29.723 111.393 31.8925 111.072 33.2044 111ZM29.5023 120.98L29.8831 123.399L31.7083 121.564C31.9525 121.318 31.9706 121.287 31.9808 121.263C31.9908 121.238 32.0003 121.202 32.0003 120.858V118.782L29.5023 120.98ZM25.0316 119.702C24.6307 120.143 24.3089 120.668 24.1321 121.135C24.0332 121.396 23.9878 121.615 23.9857 121.776C23.9846 121.854 23.9949 121.907 24.0052 121.94C24.01 121.955 24.0148 121.965 24.0179 121.97C24.0202 121.974 24.0228 121.977 24.0228 121.977C24.0228 121.977 24.0259 121.98 24.0306 121.983C24.036 121.986 24.0458 121.991 24.0608 121.995C24.0933 122.006 24.1461 122.015 24.2239 122.014C24.3841 122.012 24.6034 121.966 24.8646 121.867C25.3313 121.691 25.8566 121.369 26.2972 120.968L25.0316 119.702ZM33.2591 111.999C31.9722 112.069 30.1485 112.384 29.0804 113.449L25.4905 117.401C25.2541 117.661 25.1105 117.821 25.0208 117.95C24.9427 118.063 24.9452 118.099 24.9456 118.104C24.9457 118.106 24.9406 118.141 25.0276 118.254C25.1235 118.379 25.2748 118.532 25.5237 118.781L27.1849 120.441C27.4302 120.686 27.5805 120.835 27.7034 120.93C27.8147 121.015 27.8481 121.011 27.8509 121.011C27.8553 121.011 27.8898 121.015 28.0032 120.939C28.1319 120.852 28.2919 120.714 28.5521 120.485L32.5794 116.938C33.0995 116.413 33.4457 115.699 33.6673 114.932C33.8893 114.163 33.9786 113.374 34.0091 112.744C34.0236 112.445 34.0293 112.287 34.014 112.172C34.0032 112.091 33.987 112.07 33.9603 112.043C33.9335 112.017 33.912 112.001 33.8314 111.99C33.7166 111.976 33.5582 111.983 33.2591 111.999ZM25.1214 114C24.7759 114 24.7397 114.009 24.7151 114.019C24.6906 114.029 24.6595 114.047 24.4144 114.292L22.5599 116.147L24.9661 116.49L27.2298 114H25.1214Z" fill="currentColor"/>
</svg>
