<svg xmlns="http://www.w3.org/2000/svg" width="16" height="16" viewBox="20.0 111.04 15.9 15.9" fill="none">
  <path d="M28 117.02C28.4474 117.02 28.8155 117.207 29.1602 117.47C29.4923 117.723 29.8614 118.094 30.3027 118.535L30.4648 118.697C30.9062 119.139 31.2769 119.508 31.5303 119.84C31.7932 120.185 31.9805 120.553 31.9805 121C31.9805 121.447 31.7932 121.815 31.5303 122.16C31.2769 122.492 30.9062 122.861 30.4648 123.303L30.3027 123.465C29.8614 123.906 29.4923 124.277 29.1602 124.53C28.8155 124.793 28.4474 124.98 28 124.98C27.5526 124.98 27.1845 124.793 26.8398 124.53C26.5077 124.277 26.1387 123.906 25.6973 123.465L25.5352 123.303C25.0938 122.861 24.7231 122.492 24.4697 122.16C24.2068 121.815 24.0195 121.447 24.0195 121C24.0195 120.553 24.2068 120.185 24.4697 119.84C24.7231 119.508 25.0938 119.139 25.5352 118.697L25.6973 118.535C26.1387 118.094 26.5077 117.723 26.8398 117.47C27.1845 117.207 27.5526 117.02 28 117.02ZM28 118.105C27.8853 118.105 27.7462 118.144 27.498 118.333C27.2374 118.532 26.9279 118.84 26.4648 119.303L26.3027 119.465C25.8397 119.928 25.5319 120.237 25.333 120.498C25.1437 120.746 25.1055 120.885 25.1055 121C25.1055 121.115 25.1437 121.254 25.333 121.502C25.5319 121.763 25.8397 122.072 26.3027 122.535L26.4648 122.697C26.9279 123.16 27.2374 123.468 27.498 123.667C27.7462 123.856 27.8853 123.895 28 123.895C28.1147 123.895 28.2538 123.856 28.502 123.667C28.7626 123.468 29.0721 123.16 29.5352 122.697L29.6973 122.535C30.1603 122.072 30.4681 121.763 30.667 121.502C30.8563 121.254 30.8945 121.115 30.8945 121C30.8945 120.885 30.8563 120.746 30.667 120.498C30.4681 120.237 30.1603 119.928 29.6973 119.465L29.5352 119.303C29.0721 118.84 28.7626 118.532 28.502 118.333C28.2538 118.144 28.1147 118.105 28 118.105Z" fill="currentColor"/>
  <path d="M28 113C30.9923 113 33.5741 114.753 34.7773 117.285C34.8958 117.534 34.7901 117.833 34.541 117.951C34.2918 118.069 33.9936 117.964 33.875 117.715C32.8312 115.518 30.5921 114 28 114C25.7001 114 23.6802 115.196 22.5244 117H24.5C24.7761 117 25 117.224 25 117.5C25 117.776 24.7761 118 24.5 118H21.5C21.2239 118 21 117.776 21 117.5V114.5C21 114.224 21.2239 114 21.5 114C21.7761 114 22 114.224 22 114.5V116.001C23.3678 114.18 25.5457 113 28 113Z" fill="currentColor"/>
</svg>
