<svg xmlns="http://www.w3.org/2000/svg" width="16" height="16" viewBox="20.1 111.04 15.9 15.9" fill="none">
  <path d="M28.0002 117.02C28.4475 117.02 28.8158 117.207 29.1604 117.47C29.4925 117.723 29.8616 118.094 30.3029 118.535L30.4651 118.697C30.9064 119.139 31.2771 119.508 31.5305 119.84C31.7934 120.184 31.9807 120.553 31.9807 121C31.9807 121.447 31.7934 121.816 31.5305 122.16C31.2771 122.492 30.9064 122.861 30.4651 123.303L30.3029 123.465C29.8616 123.906 29.4925 124.277 29.1604 124.53C28.8158 124.793 28.4475 124.98 28.0002 124.98C27.5529 124.98 27.1847 124.793 26.8401 124.53C26.508 124.277 26.1388 123.906 25.6975 123.465L25.5354 123.303C25.094 122.861 24.7233 122.492 24.4699 122.16C24.207 121.815 24.0197 121.447 24.0197 121C24.0197 120.553 24.207 120.185 24.4699 119.84C24.7233 119.508 25.094 119.139 25.5354 118.697L25.6975 118.535C26.1388 118.094 26.508 117.723 26.8401 117.47C27.1847 117.207 27.5529 117.02 28.0002 117.02ZM28.0002 118.105C27.8856 118.105 27.7463 118.144 27.4983 118.333C27.2377 118.532 26.928 118.84 26.4651 119.303L26.3029 119.465C25.84 119.928 25.5321 120.237 25.3332 120.498C25.1439 120.746 25.1057 120.885 25.1057 121C25.1057 121.115 25.1439 121.254 25.3332 121.502C25.5321 121.763 25.84 122.072 26.3029 122.535L26.4651 122.697C26.928 123.16 27.2377 123.468 27.4983 123.667C27.7463 123.856 27.8856 123.895 28.0002 123.895C28.1148 123.894 28.2542 123.856 28.5022 123.667C28.7627 123.468 29.0725 123.16 29.5354 122.697L29.6975 122.535C30.1604 122.072 30.4684 121.763 30.6672 121.502C30.8565 121.254 30.8947 121.115 30.8947 121C30.8947 120.885 30.8565 120.746 30.6672 120.498C30.4684 120.237 30.1604 119.928 29.6975 119.465L29.5354 119.303C29.0725 118.84 28.7627 118.532 28.5022 118.333C28.2542 118.144 28.1148 118.106 28.0002 118.105Z" fill="currentColor"/>
  <path d="M28.0002 113C30.4548 113 32.6325 114.18 34.0002 116.002V114.5C34.0002 114.224 34.2241 114 34.5002 114C34.7762 114 35.0002 114.224 35.0002 114.5V117.5C35.0002 117.776 34.7762 118 34.5002 118H31.5002C31.2241 118 31.0002 117.776 31.0002 117.5C31.0002 117.224 31.2241 117 31.5002 117H33.4758C32.3201 115.196 30.3 114 28.0002 114C25.4082 114 23.169 115.518 22.1252 117.715C22.0066 117.964 21.7084 118.069 21.4592 117.951C21.2101 117.833 21.1044 117.534 21.2229 117.285C22.4261 114.753 25.0079 113 28.0002 113Z" fill="currentColor"/>
</svg>
