<svg xmlns="http://www.w3.org/2000/svg" width="16" height="16" viewBox="21.0 112.0 14.0 14.0" fill="none">
  <path d="M23.5 122C24.3284 122 25 122.672 25 123.5C25 124.328 24.3284 125 23.5 125C22.6716 125 22 124.328 22 123.5C22 122.672 22.6716 122 23.5 122Z" fill="currentColor"/>
  <path d="M22.5 119C25.5376 119 28 121.462 28 124.5C28 124.776 27.7761 125 27.5 125C27.2239 125 27 124.776 27 124.5C27 122.015 24.9853 120 22.5 120C22.2239 120 22 119.776 22 119.5C22 119.224 22.2239 119 22.5 119Z" fill="currentColor"/>
  <path d="M22.5 116C27.1944 116 31 119.806 31 124.5C31 124.776 30.7761 125 30.5 125C30.2239 125 30 124.776 30 124.5C30 120.358 26.6421 117 22.5 117C22.2239 117 22 116.776 22 116.5C22 116.224 22.2239 116 22.5 116Z" fill="currentColor"/>
  <path d="M22.5 113C28.8513 113 34 118.149 34 124.5C34 124.776 33.7761 125 33.5 125C33.2239 125 33 124.776 33 124.5C33 118.701 28.299 114 22.5 114C22.2239 114 22 113.776 22 113.5C22 113.224 22.2239 113 22.5 113Z" fill="currentColor"/>
</svg>
