<svg xmlns="http://www.w3.org/2000/svg" width="16" height="16" viewBox="21.0 111.99 14.01 14.01" fill="none">
  <path d="M28.8428 113C29.6193 113 30.1472 112.991 30.6279 113.19C31.1087 113.39 31.4762 113.769 32.0254 114.318L32.6816 114.975C33.2308 115.524 33.6104 115.891 33.8096 116.372C34.0086 116.853 34 117.381 34 118.157V120.5C34 121.429 34.0006 122.175 33.9219 122.761C33.8412 123.361 33.6688 123.866 33.2676 124.268C32.8663 124.669 32.3608 124.841 31.7607 124.922C31.1751 125.001 30.4285 125 29.5 125H26.5C25.5715 125 24.8249 125.001 24.2393 124.922C23.6392 124.841 23.1337 124.669 22.7324 124.268C22.3312 123.866 22.1588 123.361 22.0781 122.761C21.9994 122.175 22 121.429 22 120.5V117.5C22 116.572 21.9994 115.825 22.0781 115.239C22.1588 114.639 22.3312 114.134 22.7324 113.732C23.1337 113.331 23.6392 113.159 24.2393 113.078C24.8249 112.999 25.5715 113 26.5 113H28.8428ZM26.5 120C26.0147 120 25.7009 120.001 25.4697 120.032C25.2529 120.061 25.1846 120.108 25.1465 120.147C25.1084 120.185 25.0614 120.253 25.0322 120.47C25.0012 120.701 25 121.015 25 121.5V123.98C25.4054 123.997 25.8947 124 26.5 124H29.5C30.1053 124 30.5946 123.997 31 123.98V121.5C31 121.015 30.9988 120.701 30.9678 120.47C30.9386 120.253 30.8916 120.185 30.8535 120.147C30.8154 120.108 30.7471 120.061 30.5303 120.032C30.2991 120.001 29.9853 120 29.5 120H26.5ZM30 114.5C30 114.957 30.0011 115.351 29.959 115.664C29.9149 115.992 29.8153 116.306 29.5605 116.561C29.3058 116.815 28.9918 116.915 28.6641 116.959C28.3507 117.001 27.9573 117 27.5 117H26.5C26.0427 117 25.6493 117.001 25.3359 116.959C25.0082 116.915 24.6942 116.815 24.4395 116.561C24.1847 116.306 24.0851 115.992 24.041 115.664C23.9989 115.351 24 114.957 24 114.5V114.141C23.7388 114.211 23.5703 114.309 23.4395 114.44C23.255 114.624 23.1341 114.883 23.0684 115.372C23.0007 115.876 23 116.543 23 117.5V120.5C23 121.457 23.0007 122.124 23.0684 122.628C23.1341 123.117 23.255 123.376 23.4395 123.561C23.5703 123.691 23.7389 123.789 24 123.858V121.5C24 121.043 23.9989 120.649 24.041 120.336C24.0851 120.008 24.1847 119.694 24.4395 119.44C24.6942 119.185 25.0082 119.085 25.3359 119.041C25.6493 118.999 26.0427 119 26.5 119H29.5C29.9573 119 30.3507 118.999 30.6641 119.041C30.9918 119.085 31.3058 119.185 31.5605 119.44C31.8153 119.694 31.9149 120.008 31.959 120.336C32.0011 120.649 32 121.043 32 121.5V123.858C32.2611 123.789 32.4297 123.691 32.5605 123.561C32.745 123.376 32.8659 123.117 32.9316 122.628C32.9993 122.124 33 121.457 33 120.5V118.157C33 117.299 32.9909 117.009 32.8857 116.755C32.7804 116.501 32.5815 116.289 31.9746 115.682L31.3184 115.025C30.7115 114.419 30.4994 114.22 30.2451 114.114C30.1709 114.084 30.0936 114.061 30 114.045V114.5ZM26.5 114C25.8948 114 25.4054 114.002 25 114.02V114.5C25 114.985 25.0012 115.299 25.0322 115.53C25.0614 115.747 25.1084 115.816 25.1465 115.854C25.1845 115.892 25.2529 115.939 25.4697 115.968C25.7009 115.999 26.0147 116 26.5 116H27.5C27.9853 116 28.2991 115.999 28.5303 115.968C28.7471 115.939 28.8155 115.892 28.8535 115.854C28.8916 115.816 28.9386 115.747 28.9678 115.53C28.9988 115.299 29 114.985 29 114.5V114H26.5Z" fill="currentColor"/>
</svg>
