<svg xmlns="http://www.w3.org/2000/svg" width="16" height="16" viewBox="20.5 111.0 16.0 16.0" fill="none">
  <path d="M28.5 112C29.1529 112 29.707 112.418 29.9131 113H33.5C33.7761 113 34 113.224 34 113.5C34 113.776 33.7761 114 33.5 114H33.2383L34.958 118.301C34.9728 118.335 34.9833 118.371 34.9902 118.408C34.9931 118.423 34.9937 118.439 34.9951 118.454C34.9965 118.469 35 118.484 35 118.5C35 119.881 33.8807 121 32.5 121C31.1193 121 30 119.881 30 118.5C30 118.484 30.0025 118.469 30.0039 118.454C30.0053 118.439 30.0059 118.423 30.0088 118.408C30.0157 118.371 30.0263 118.335 30.041 118.301L31.7617 114H29.9131C29.7625 114.426 29.4257 114.761 29 114.912V123H32C33.1046 123 34 123.895 34 125V125.5C34 125.776 33.7761 126 33.5 126H23.5C23.2239 126 23 125.776 23 125.5V125C23 123.895 23.8954 123 25 123H28V114.912C27.5743 114.761 27.2375 114.426 27.0869 114H25.2383L26.958 118.301C26.9728 118.335 26.9833 118.371 26.9902 118.408C26.9931 118.423 26.9937 118.439 26.9951 118.454C26.9965 118.469 27 118.484 27 118.5C27 119.881 25.8807 121 24.5 121C23.1193 121 22 119.881 22 118.5C22 118.484 22.0025 118.469 22.0039 118.454C22.0053 118.439 22.0059 118.423 22.0088 118.408C22.0157 118.371 22.0263 118.335 22.041 118.301L23.7617 114H23.5C23.2239 114 23 113.776 23 113.5C23 113.224 23.2239 113 23.5 113H27.0869C27.293 112.418 27.8471 112 28.5 112ZM25 124C24.4477 124 24 124.448 24 125H33C33 124.448 32.5523 124 32 124H25ZM23.0869 119C23.293 119.582 23.8471 120 24.5 120C25.1529 120 25.707 119.582 25.9131 119H23.0869ZM31.0869 119C31.293 119.582 31.8471 120 32.5 120C33.1529 120 33.707 119.582 33.9131 119H31.0869ZM23.2383 118H25.7617L24.5 114.845L23.2383 118ZM31.2383 118H33.7617L32.5 114.845L31.2383 118ZM28.5 113C28.2239 113 28 113.224 28 113.5C28 113.776 28.2239 114 28.5 114C28.7761 114 29 113.776 29 113.5C29 113.224 28.7761 113 28.5 113Z" fill="currentColor"/>
</svg>
