<svg xmlns="http://www.w3.org/2000/svg" width="16" height="16" viewBox="21.0 112.0 14.0 14.0" fill="none">
  <path d="M22.5 121C22.7761 121 23 121.224 23 121.5C23 121.973 23 122.303 23.0176 122.561C23.0349 122.814 23.0676 122.962 23.1143 123.074C23.2665 123.442 23.5584 123.734 23.9258 123.886C24.0384 123.932 24.1862 123.965 24.4395 123.982C24.6974 124 25.0272 124 25.5 124C25.7761 124 26 124.224 26 124.5C26 124.776 25.7761 125 25.5 125C25.0411 125 24.6719 125 24.3721 124.979C24.0677 124.959 23.7978 124.915 23.543 124.81C22.9307 124.556 22.4442 124.069 22.1904 123.457C22.0849 123.202 22.0413 122.932 22.0205 122.628C22.0001 122.328 22 121.959 22 121.5C22 121.224 22.2239 121 22.5 121Z" fill="currentColor"/>
  <path d="M33.5 121C33.7761 121 34 121.224 34 121.5C34 121.959 33.9999 122.328 33.9795 122.628C33.9587 122.932 33.9151 123.202 33.8096 123.457C33.5558 124.069 33.0693 124.556 32.457 124.81C32.2022 124.915 31.9323 124.959 31.6279 124.979C31.3281 125 30.9589 125 30.5 125C30.2239 125 30 124.776 30 124.5C30 124.224 30.2239 124 30.5 124C30.9728 124 31.3026 124 31.5605 123.982C31.8138 123.965 31.9616 123.932 32.0742 123.886C32.4416 123.734 32.7335 123.442 32.8857 123.074C32.9324 122.962 32.9651 122.814 32.9824 122.561C33 122.303 33 121.973 33 121.5C33 121.224 33.2239 121 33.5 121Z" fill="currentColor"/>
  <path d="M33.5 119C33.7761 119 34 119.224 34 119.5C34 119.776 33.7761 120 33.5 120H30.9902C30.9668 120.777 30.8812 121.24 30.5605 121.561C30.1212 122 29.4142 122 28 122C26.5858 122 25.8788 122 25.4395 121.561C25.1188 121.24 25.0332 120.777 25.0098 120H22.5C22.2239 120 22 119.776 22 119.5C22 119.224 22.2239 119 22.5 119H33.5Z" fill="currentColor"/>
  <path d="M28 116C29.4142 116 30.1212 116 30.5605 116.439C30.8812 116.76 30.9668 117.223 30.9902 118H25.0098C25.0332 117.223 25.1188 116.76 25.4395 116.439C25.8788 116 26.5858 116 28 116Z" fill="currentColor"/>
  <path d="M25.5 113C25.7761 113 26 113.224 26 113.5C26 113.776 25.7761 114 25.5 114C25.0272 114 24.6974 114 24.4395 114.018C24.1862 114.035 24.0384 114.068 23.9258 114.114C23.5584 114.266 23.2665 114.558 23.1143 114.926C23.0676 115.038 23.0349 115.186 23.0176 115.439C23 115.697 23 116.027 23 116.5C23 116.776 22.7761 117 22.5 117C22.2239 117 22 116.776 22 116.5C22 116.041 22.0001 115.672 22.0205 115.372C22.0413 115.068 22.0849 114.798 22.1904 114.543C22.4442 113.931 22.9307 113.444 23.543 113.19C23.7978 113.085 24.0677 113.041 24.3721 113.021C24.6719 113 25.0411 113 25.5 113Z" fill="currentColor"/>
  <path d="M30.5 113C30.9589 113 31.3281 113 31.6279 113.021C31.9323 113.041 32.2022 113.085 32.457 113.19C33.0693 113.444 33.5558 113.931 33.8096 114.543C33.9151 114.798 33.9587 115.068 33.9795 115.372C33.9999 115.672 34 116.041 34 116.5C34 116.776 33.7761 117 33.5 117C33.2239 117 33 116.776 33 116.5C33 116.027 33 115.697 32.9824 115.439C32.9651 115.186 32.9324 115.038 32.8857 114.926C32.7335 114.558 32.4416 114.266 32.0742 114.114C31.9616 114.068 31.8138 114.035 31.5605 114.018C31.3026 114 30.9728 114 30.5 114C30.2239 114 30 113.776 30 113.5C30 113.224 30.2239 113 30.5 113Z" fill="currentColor"/>
</svg>
