<svg xmlns="http://www.w3.org/2000/svg" width="16" height="16" viewBox="19.96 110.93 16.07 16.07" fill="none">
  <path d="M31.0566 112.269C31.1845 112.024 31.4868 111.929 31.7314 112.057C31.9757 112.184 32.0705 112.486 31.9434 112.731L28.5625 119.202L30.2451 122.424C30.6476 121.583 31.5051 121 32.5 121C33.8805 121 34.9997 122.12 35 123.5C35 124.881 33.8807 126 32.5 126C31.5498 126 30.7238 125.47 30.3008 124.69L30.2988 124.687L27.999 120.282L25.7246 124.638C25.7117 124.663 25.6983 124.688 25.6846 124.713L25.6816 124.72C25.6804 124.722 25.6781 124.724 25.6768 124.727C25.2478 125.486 24.4347 126 23.5 126C22.1193 126 21 124.881 21 123.5C21.0003 122.12 22.1195 121 23.5 121C24.494 121 25.35 121.582 25.7529 122.422L26.3379 121.302C26.3692 121.269 26.3989 121.233 26.4209 121.191L29.2393 115.751C29.242 115.746 29.2426 115.74 29.2451 115.734L31.0566 112.269ZM23.5 122C22.6717 122 22.0003 122.672 22 123.5C22 124.329 22.6716 125 23.5 125C24.3284 125 25 124.329 25 123.5C24.9997 122.672 24.3283 122 23.5 122ZM32.5 122C31.6717 122 31.0003 122.672 31 123.5C31 124.329 31.6716 125 32.5 125C33.3284 125 34 124.329 34 123.5C33.9997 122.672 33.3283 122 32.5 122Z" fill="currentColor"/>
  <path d="M24.2686 112.057C24.5132 111.929 24.8155 112.024 24.9434 112.269L27.4395 117.05L26.877 118.135L24.0566 112.732C23.9294 112.487 24.0241 112.184 24.2686 112.057Z" fill="currentColor"/>
</svg>
