<svg xmlns="http://www.w3.org/2000/svg" width="16" height="16" viewBox="20.0 111.5 16.0 16.0" fill="none">
  <path d="M24.75 121C24.8881 121 25 121.112 25 121.25V121.75C25 121.888 24.8881 122 24.75 122H23.25C23.1119 122 23 121.888 23 121.75V121.25C23 121.112 23.1119 121 23.25 121H24.75Z" fill="currentColor"/>
  <path d="M32.5 121C32.7761 121 33 121.224 33 121.5C33 121.776 32.7761 122 32.5 122H26.5C26.2239 122 26 121.776 26 121.5C26 121.224 26.2239 121 26.5 121H32.5Z" fill="currentColor"/>
  <path d="M24.75 119C24.8881 119 25 119.112 25 119.25V119.75C25 119.888 24.8881 120 24.75 120H23.25C23.1119 120 23 119.888 23 119.75V119.25C23 119.112 23.1119 119 23.25 119H24.75Z" fill="currentColor"/>
  <path d="M32.5 119C32.7761 119 33 119.224 33 119.5C33 119.776 32.7761 120 32.5 120H26.5C26.2239 120 26 119.776 26 119.5C26 119.224 26.2239 119 26.5 119H32.5Z" fill="currentColor"/>
  <path d="M24.75 117C24.8881 117 25 117.112 25 117.25V117.75C25 117.888 24.8881 118 24.75 118H23.25C23.1119 118 23 117.888 23 117.75V117.25C23 117.112 23.1119 117 23.25 117H24.75Z" fill="currentColor"/>
  <path d="M32.5 117C32.7761 117 33 117.224 33 117.5C33 117.776 32.7761 118 32.5 118H26.5C26.2239 118 26 117.776 26 117.5C26 117.224 26.2239 117 26.5 117H32.5Z" fill="currentColor"/>
  <path d="M30.5 114C31.4285 114 32.1751 113.999 32.7607 114.078C33.3608 114.159 33.8663 114.331 34.2676 114.732C34.6689 115.134 34.8412 115.639 34.9219 116.239C35.0006 116.825 35 117.572 35 118.5V120.5C35 121.428 35.0006 122.175 34.9219 122.761C34.8412 123.361 34.6689 123.866 34.2676 124.268C33.8663 124.669 33.3608 124.841 32.7607 124.922C32.1751 125.001 31.4285 125 30.5 125H25.5C24.5715 125 23.8249 125.001 23.2393 124.922C22.6392 124.841 22.1337 124.669 21.7324 124.268C21.3311 123.866 21.1588 123.361 21.0781 122.761C20.9994 122.175 21 121.428 21 120.5V118.5C21 117.572 20.9994 116.825 21.0781 116.239C21.1588 115.639 21.3311 115.134 21.7324 114.732C22.1337 114.331 22.6392 114.159 23.2393 114.078C23.8249 113.999 24.5715 114 25.5 114H30.5ZM25.5 115C24.5431 115 23.8756 115.001 23.3721 115.068C22.8829 115.134 22.624 115.255 22.4395 115.439C22.2549 115.624 22.1341 115.883 22.0684 116.372C22.0007 116.876 22 117.543 22 118.5V120.5C22 121.457 22.0007 122.124 22.0684 122.628C22.1341 123.117 22.2549 123.376 22.4395 123.561C22.624 123.745 22.8829 123.866 23.3721 123.932C23.8756 123.999 24.5431 124 25.5 124H30.5C31.4569 124 32.1244 123.999 32.6279 123.932C33.1171 123.866 33.376 123.745 33.5605 123.561C33.7451 123.376 33.8659 123.117 33.9316 122.628C33.9993 122.124 34 121.457 34 120.5V118.5C34 117.543 33.9993 116.876 33.9316 116.372C33.8659 115.883 33.7451 115.624 33.5605 115.439C33.376 115.255 33.1171 115.134 32.6279 115.068C32.1244 115.001 31.4569 115 30.5 115H25.5Z" fill="currentColor"/>
</svg>
