<svg xmlns="http://www.w3.org/2000/svg" width="16" height="16" viewBox="23.0 112.0 17.0 17.0" fill="none">
  <path d="M35.2354 118C35.5594 118 35.8642 118.153 36.0586 118.412L38.75 122C38.9123 122.216 39 122.48 39 122.75C39 123.44 38.4404 124 37.75 124H37.1943L37.7422 125.645C37.9644 126.311 37.4675 127 36.7646 127C36.4406 127 36.1358 126.847 35.9414 126.588L33.25 123C33.0877 122.784 33 122.52 33 122.25C33 121.56 33.5596 121 34.25 121H34.8057L34.2578 119.355C34.0356 118.689 34.5325 118 35.2354 118ZM35.2217 119.003C35.2184 119.005 35.2144 119.008 35.2109 119.013C35.2076 119.017 35.2057 119.022 35.2051 119.025C35.2046 119.028 35.2047 119.032 35.207 119.039L35.9746 121.342C36.0254 121.494 35.9992 121.662 35.9053 121.792C35.8113 121.922 35.6607 122 35.5 122H34.25C34.1119 122 34 122.112 34 122.25C34 122.304 34.0173 122.357 34.0498 122.4L36.7412 125.988C36.7468 125.996 36.7554 126 36.7646 126C36.772 126 36.7759 125.998 36.7783 125.997C36.7816 125.995 36.7856 125.992 36.7891 125.987C36.7924 125.983 36.7943 125.978 36.7949 125.975C36.7954 125.972 36.7953 125.968 36.793 125.961L36.0254 123.658C35.9746 123.506 36.0008 123.338 36.0947 123.208C36.1887 123.078 36.3393 123 36.5 123H37.75C37.8881 123 38 122.888 38 122.75C38 122.696 37.9827 122.643 37.9502 122.6L35.2588 119.012C35.2532 119.004 35.2446 119 35.2354 119C35.228 119 35.2241 119.002 35.2217 119.003Z" fill="currentColor"/>
  <path d="M33.5 114C34.4285 114 35.1751 113.999 35.7607 114.078C36.3608 114.159 36.8663 114.331 37.2676 114.732C37.6689 115.134 37.8412 115.639 37.9219 116.239C38.0006 116.825 38 117.572 38 118.5V119.333L36.9961 117.994C36.994 117.3 36.9867 116.782 36.9316 116.372C36.8659 115.883 36.7451 115.624 36.5605 115.439C36.376 115.255 36.1171 115.134 35.6279 115.068C35.1244 115.001 34.4569 115 33.5 115H28.5C27.5431 115 26.8756 115.001 26.3721 115.068C25.8829 115.134 25.624 115.255 25.4395 115.439C25.2549 115.624 25.1341 115.883 25.0684 116.372C25.0007 116.876 25 117.543 25 118.5V120.5C25 121.457 25.0007 122.124 25.0684 122.628C25.1341 123.117 25.2549 123.376 25.4395 123.561C25.624 123.745 25.8829 123.866 26.3721 123.932C26.8756 123.999 27.5431 124 28.5 124H32.75L33.5 125H28.5C27.5715 125 26.8249 125.001 26.2393 124.922C25.6392 124.841 25.1337 124.669 24.7324 124.268C24.3311 123.866 24.1588 123.361 24.0781 122.761C23.9994 122.175 24 121.428 24 120.5V118.5C24 117.572 23.9994 116.825 24.0781 116.239C24.1588 115.639 24.3311 115.134 24.7324 114.732C25.1337 114.331 25.6392 114.159 26.2393 114.078C26.8249 113.999 27.5715 114 28.5 114H33.5Z" fill="currentColor"/>
  <path d="M27.75 121C27.8881 121 28 121.112 28 121.25V121.75C28 121.888 27.8881 122 27.75 122H26.25C26.1119 122 26 121.888 26 121.75V121.25C26 121.112 26.1119 121 26.25 121H27.75Z" fill="currentColor"/>
  <path d="M32.3818 121C32.1854 121.292 32.0564 121.632 32.0156 122H29.5C29.2239 122 29 121.776 29 121.5C29 121.224 29.2239 121 29.5 121H32.3818Z" fill="currentColor"/>
  <path d="M27.75 119C27.8881 119 28 119.112 28 119.25V119.75C28 119.888 27.8881 120 27.75 120H26.25C26.1119 120 26 119.888 26 119.75V119.25C26 119.112 26.1119 119 26.25 119H27.75Z" fill="currentColor"/>
  <path d="M33.207 119C33.2041 119.221 33.2346 119.447 33.3096 119.672L33.4189 120H29.5C29.2239 120 29 119.776 29 119.5C29 119.224 29.2239 119 29.5 119H33.207Z" fill="currentColor"/>
  <path d="M27.75 117C27.8881 117 28 117.112 28 117.25V117.75C28 117.888 27.8881 118 27.75 118H26.25C26.1119 118 26 117.888 26 117.75V117.25C26 117.112 26.1119 117 26.25 117H27.75Z" fill="currentColor"/>
  <path d="M35.5 117C35.5895 117 35.6725 117.025 35.7451 117.066C35.6559 117.043 35.5651 117.025 35.4727 117.014L35.2354 117C34.4733 117 33.8361 117.412 33.4883 118H29.5C29.2239 118 29 117.776 29 117.5C29 117.224 29.2239 117 29.5 117H35.5Z" fill="currentColor"/>
</svg>
