<svg xmlns="http://www.w3.org/2000/svg" width="16" height="16" viewBox="20.0 111.0 16.0 16.0" fill="none">
  <path d="M25.8818 116C26.4993 116 27 116.501 27 117.118V119H27.5C27.7761 119 28 119.224 28 119.5C28 119.776 27.7761 120 27.5 120H27V121.5C27 121.776 26.7761 122 26.5 122C26.2239 122 26 121.776 26 121.5V120H24C23.8267 120 23.6653 119.91 23.5742 119.763C23.4833 119.615 23.4753 119.431 23.5527 119.276L24.8818 116.618C25.0712 116.239 25.4584 116 25.8818 116ZM25.8818 117C25.8372 117 25.7963 117.025 25.7764 117.065L24.8086 119H26V117.118C26 117.053 25.947 117 25.8818 117Z" fill="currentColor"/>
  <path d="M30.1973 116C31.1929 116 32 116.807 32 117.803C32 118.405 31.6988 118.968 31.1973 119.303L29.6094 120.361C29.3733 120.519 29.1966 120.743 29.0957 121H31.5C31.7761 121 32 121.224 32 121.5C32 121.776 31.7761 122 31.5 122H28.5C28.2239 122 28 121.776 28 121.5C28 120.708 28.3958 119.969 29.0547 119.529L30.6426 118.471C30.8659 118.322 31 118.071 31 117.803C31 117.359 30.6406 117 30.1973 117H29.9551C29.5592 117 29.1975 117.224 29.0205 117.578L28.9473 117.724C28.8238 117.971 28.5234 118.071 28.2764 117.947C28.0294 117.824 27.9292 117.523 28.0527 117.276L28.126 117.131C28.4724 116.438 29.1805 116 29.9551 116H30.1973Z" fill="currentColor"/>
  <path d="M28 112C31.866 112 35 115.134 35 119C35 122.866 31.866 126 28 126C24.134 126 21 122.866 21 119C21 115.134 24.134 112 28 112ZM28 113C24.6863 113 22 115.686 22 119C22 122.314 24.6863 125 28 125C31.3137 125 34 122.314 34 119C34 115.686 31.3137 113 28 113Z" fill="currentColor"/>
</svg>
