<svg xmlns="http://www.w3.org/2000/svg" width="16" height="16" viewBox="20.0 111.0 16.0 16.0" fill="none">
  <path d="M33.5 112C34.3284 112 35 112.672 35 113.5V114.5C35 114.776 34.7761 115 34.5 115H33V121.5C33 122.428 33.0006 123.175 32.9219 123.761C32.8412 124.361 32.6689 124.866 32.2676 125.268C31.8663 125.669 31.3608 125.841 30.7607 125.922C30.1751 126.001 29.4285 126 28.5 126H22.5C21.6716 126 21 125.328 21 124.5V122H23V113.5C23 112.672 23.6716 112 24.5 112H33.5ZM22 124.5C22 124.776 22.2239 125 22.5 125C22.7761 125 23 124.776 23 124.5V123H22V124.5ZM24.5 113C24.2239 113 24 113.224 24 113.5V124.5C24 124.676 23.9685 124.843 23.9131 125H28.5C29.4569 125 30.1244 124.999 30.6279 124.932C31.1171 124.866 31.376 124.745 31.5605 124.561C31.7451 124.376 31.8659 124.117 31.9316 123.628C31.9993 123.124 32 122.457 32 121.5V115H25.5C25.3674 115 25.2403 114.947 25.1465 114.854C25.0527 114.76 25 114.633 25 114.5V113.5C25 113.224 24.7761 113 24.5 113ZM25.9131 113C25.9685 113.157 26 113.324 26 113.5V114H34V113.5C34 113.224 33.7761 113 33.5 113H25.9131Z" fill="currentColor"/>
</svg>
