<svg xmlns="http://www.w3.org/2000/svg" width="16" height="16" viewBox="20.0 111.0 17.0 17.0" fill="none">
  <path d="M33.1465 121.146C33.3417 120.951 33.6582 120.951 33.8535 121.146C34.0484 121.342 34.0487 121.658 33.8535 121.854L31.3535 124.354C31.1584 124.549 30.8418 124.548 30.6465 124.354L29.1465 122.854C28.9514 122.658 28.9513 122.342 29.1465 122.146C29.3417 121.951 29.6582 121.951 29.8535 122.146L31 123.293L33.1465 121.146Z" fill="currentColor"/>
  <path d="M31.5 118C33.9853 118 36 120.015 36 122.5C36 124.985 33.9853 127 31.5 127C29.0147 127 27 124.985 27 122.5C27 120.015 29.0147 118 31.5 118ZM31.5 119C29.567 119 28 120.567 28 122.5C28 124.433 29.567 126 31.5 126C33.433 126 35 124.433 35 122.5C35 120.567 33.433 119 31.5 119Z" fill="currentColor"/>
  <path d="M33.5 112C34.3284 112 35 112.672 35 113.5V114.5C35 114.776 34.7761 115 34.5 115H33V117.208C32.6777 117.117 32.3435 117.054 32 117.023V115H25.5C25.3674 115 25.2403 114.947 25.1465 114.854C25.0527 114.76 25 114.633 25 114.5V113.5C25 113.224 24.7761 113 24.5 113C24.2239 113 24 113.224 24 113.5V125H26.6016C26.7844 125.358 27.0043 125.693 27.2578 126H22.5C21.6716 126 21 125.328 21 124.5V122H23V113.5C23 112.672 23.6716 112 24.5 112H33.5ZM22 124.5C22 124.776 22.2239 125 22.5 125C22.7761 125 23 124.776 23 124.5V123H22V124.5ZM25.9131 113C25.9685 113.157 26 113.324 26 113.5V114H34V113.5C34 113.224 33.7761 113 33.5 113H25.9131Z" fill="currentColor"/>
</svg>
