<svg xmlns="http://www.w3.org/2000/svg" width="16" height="16" viewBox="20.0 111.0 17.14 17.14" fill="none">
  <path d="M30.5098 118.408C31.0565 117.861 31.9435 117.861 32.4902 118.408L35.5928 121.51C36.1392 122.056 36.1392 122.944 35.5928 123.49L32.4902 126.592C31.9435 127.139 31.0565 127.139 30.5098 126.592L27.4082 123.49C26.8615 122.944 26.8615 122.056 27.4082 121.51L30.5098 118.408ZM31.7832 119.115C31.627 118.959 31.373 118.959 31.2168 119.115L28.1152 122.217C27.959 122.373 27.959 122.627 28.1152 122.783L31.2168 125.885C31.373 126.041 31.627 126.041 31.7832 125.885L34.8848 122.783C35.041 122.627 35.041 122.373 34.8848 122.217L31.7832 119.115Z" fill="currentColor"/>
  <path d="M33.5 112C34.3284 112 35 112.672 35 113.5V114.5C35 114.776 34.7761 115 34.5 115H33V117.524C32.7008 117.284 32.3573 117.128 32 117.052V115H25.5C25.3674 115 25.2403 114.947 25.1465 114.854C25.0527 114.76 25 114.633 25 114.5V113.5C25 113.224 24.7761 113 24.5 113C24.2239 113 24 113.224 24 113.5V125H27.5039L28.5029 125.999L28.5 126H22.5C21.6716 126 21 125.328 21 124.5V123C21 122.448 21.4477 122 22 122H23V113.5C23 112.672 23.6716 112 24.5 112H33.5ZM22 124.5C22 124.776 22.2239 125 22.5 125C22.7761 125 23 124.776 23 124.5V123H22V124.5ZM25.9131 113C25.9685 113.157 26 113.324 26 113.5V114H34V113.5C34 113.224 33.7761 113 33.5 113H25.9131Z" fill="currentColor"/>
</svg>
