<svg xmlns="http://www.w3.org/2000/svg" width="16" height="16" viewBox="21.0 112.0 16.05 16.05" fill="none">
  <path d="M27.3359 118.214C27.6655 117.946 28.0539 118.014 28.3271 118.1C28.6081 118.188 28.9586 118.357 29.3574 118.549L34.1016 120.83C34.637 121.088 35.0864 121.304 35.3906 121.503C35.658 121.678 36.0494 121.989 35.9883 122.491C35.9269 122.993 35.4734 123.202 35.1719 123.308C34.8287 123.428 34.3397 123.529 33.7578 123.65L32.2344 123.969C32.1203 123.993 32.0629 124.006 32.0225 124.018L32.0186 124.019C31.9944 124.053 31.9643 124.105 31.9053 124.205L31.1826 125.437C30.9272 125.872 30.7085 126.247 30.5078 126.5C30.3204 126.736 30.0102 127.045 29.5547 126.979C29.0992 126.913 28.8899 126.529 28.7773 126.249C28.6568 125.949 28.5538 125.527 28.4326 125.037L27.251 120.261C27.1448 119.831 27.0504 119.454 27.0215 119.161C26.9934 118.876 27.0065 118.482 27.3359 118.214ZM28.0166 119.062C28.0367 119.266 28.1073 119.558 28.2217 120.021L29.4033 124.797C29.5325 125.319 29.6172 125.658 29.7051 125.876C29.7072 125.881 29.7099 125.887 29.7119 125.892C29.7154 125.887 29.72 125.883 29.7236 125.879C29.87 125.694 30.048 125.395 30.3203 124.931L31.043 123.699C31.1312 123.549 31.2419 123.34 31.4336 123.202C31.6254 123.064 31.8587 123.026 32.0293 122.99L33.5537 122.672C34.1667 122.544 34.5747 122.457 34.8398 122.364C34.8481 122.361 34.8556 122.356 34.8633 122.354C34.8567 122.349 34.8499 122.344 34.8428 122.339C34.6077 122.185 34.2323 122.003 33.668 121.731L28.9238 119.45C28.4947 119.244 28.2231 119.115 28.0283 119.054C28.0242 119.052 28.0196 119.051 28.0156 119.05C28.016 119.054 28.0162 119.058 28.0166 119.062Z" fill="currentColor"/>
  <path d="M29.5 113C30.4285 113 31.1751 112.999 31.7607 113.078C32.3608 113.159 32.8663 113.331 33.2676 113.732C33.6689 114.134 33.8412 114.639 33.9219 115.239C34.0006 115.825 34 116.572 34 117.5V118.5C34 118.776 33.7761 119 33.5 119C33.2239 119 33 118.776 33 118.5V117.5C33 116.543 32.9993 115.876 32.9316 115.372C32.8659 114.883 32.7451 114.624 32.5605 114.439C32.376 114.255 32.1171 114.134 31.6279 114.068C31.1244 114.001 30.4569 114 29.5 114H26.5C25.5431 114 24.8756 114.001 24.3721 114.068C23.8829 114.134 23.624 114.255 23.4395 114.439C23.2549 114.624 23.1341 114.883 23.0684 115.372C23.0007 115.876 23 116.543 23 117.5V120.5C23 121.457 23.0007 122.124 23.0684 122.628C23.1341 123.117 23.2549 123.376 23.4395 123.561C23.624 123.745 23.8829 123.866 24.3721 123.932C24.8756 123.999 25.5431 124 26.5 124C26.7761 124 27 124.224 27 124.5C27 124.776 26.7761 125 26.5 125C25.5715 125 24.8249 125.001 24.2393 124.922C23.6392 124.841 23.1337 124.669 22.7324 124.268C22.3311 123.866 22.1588 123.361 22.0781 122.761C21.9994 122.175 22 121.428 22 120.5V117.5C22 116.572 21.9994 115.825 22.0781 115.239C22.1588 114.639 22.3311 114.134 22.7324 113.732C23.1337 113.331 23.6392 113.159 24.2393 113.078C24.8249 112.999 25.5715 113 26.5 113H29.5Z" fill="currentColor"/>
</svg>
