<svg xmlns="http://www.w3.org/2000/svg" width="16" height="16" viewBox="20.0 111.0 17.0 17.0" fill="none">
  <path d="M28.5 112C32.6421 112 36 115.358 36 119.5C36 123.642 32.6421 127 28.5 127C27.9999 127 27.5106 126.951 27.0371 126.857C26.7662 126.804 26.59 126.54 26.6436 126.27C26.6972 125.999 26.9598 125.823 27.2305 125.876C27.6405 125.957 28.0653 126 28.5 126C32.0899 126 35 123.09 35 119.5C35 115.91 32.0899 113 28.5 113C28.0653 113 27.6405 113.043 27.2305 113.124C26.9598 113.177 26.6972 113.001 26.6436 112.73C26.59 112.46 26.7662 112.196 27.0371 112.143C27.5106 112.049 27.9999 112 28.5 112Z" fill="currentColor"/>
  <path d="M22.4014 122.974C22.6308 122.82 22.9412 122.882 23.0947 123.111C23.5694 123.82 24.1798 124.431 24.8887 124.905C25.118 125.059 25.1796 125.369 25.0264 125.599C24.8728 125.828 24.5624 125.89 24.333 125.736C23.5153 125.189 22.8111 124.485 22.2637 123.667C22.1103 123.438 22.172 123.127 22.4014 122.974Z" fill="currentColor"/>
  <path d="M31 119C31.6069 119 32.1185 119.33 32.4609 119.786C32.8031 120.243 33 120.85 33 121.5C33 122.15 32.8031 122.757 32.4609 123.214C32.1185 123.671 31.6069 124 31 124C30.3931 124 29.8815 123.671 29.5391 123.214C29.1969 122.757 29 122.15 29 121.5C29 120.85 29.1969 120.243 29.5391 119.786C29.8815 119.33 30.3931 119 31 119ZM31 120C30.7785 120 30.5393 120.119 30.3389 120.386C30.1384 120.653 30 121.046 30 121.5C30 121.954 30.1384 122.347 30.3389 122.614C30.5393 122.881 30.7785 123 31 123C31.2215 123 31.4607 122.881 31.6611 122.614C31.8616 122.347 32 121.954 32 121.5C32 121.046 31.8616 120.653 31.6611 120.386C31.4607 120.119 31.2215 120 31 120Z" fill="currentColor"/>
  <path d="M31.0996 115.2C31.2652 114.979 31.5789 114.934 31.7998 115.1C32.0206 115.265 32.0658 115.579 31.9004 115.8L25.9004 123.801C25.7347 124.021 25.421 124.065 25.2002 123.899C24.9795 123.734 24.935 123.421 25.1006 123.2L31.0996 115.2Z" fill="currentColor"/>
  <path d="M21.7305 117.644C22.0011 117.697 22.1773 117.96 22.124 118.23C22.0429 118.641 22 119.065 22 119.5C22 119.935 22.0429 120.359 22.124 120.77C22.1773 121.04 22.0011 121.303 21.7305 121.356C21.4596 121.41 21.1962 121.234 21.1426 120.963C21.0489 120.489 21 120 21 119.5C21 119 21.0489 118.511 21.1426 118.037C21.1962 117.766 21.4596 117.59 21.7305 117.644Z" fill="currentColor"/>
  <path d="M26 115C26.6069 115 27.1185 115.33 27.4609 115.786C27.8031 116.243 28 116.85 28 117.5C28 118.15 27.8031 118.757 27.4609 119.214C27.1185 119.671 26.6069 120 26 120C25.3931 120 24.8815 119.671 24.5391 119.214C24.1969 118.757 24 118.15 24 117.5C24 116.85 24.1969 116.243 24.5391 115.786C24.8815 115.33 25.3931 115 26 115ZM26 116C25.7785 116 25.5393 116.119 25.3389 116.386C25.1384 116.653 25 117.046 25 117.5C25 117.954 25.1384 118.347 25.3389 118.614C25.5393 118.881 25.7785 119 26 119C26.2215 119 26.4607 118.881 26.6611 118.614C26.8616 118.347 27 117.954 27 117.5C27 117.046 26.8616 116.653 26.6611 116.386C26.4607 116.119 26.2215 116 26 116Z" fill="currentColor"/>
  <path d="M24.333 113.264C24.5624 113.11 24.8728 113.172 25.0264 113.401C25.1796 113.631 25.118 113.941 24.8887 114.095C24.1798 114.569 23.5694 115.18 23.0947 115.889C22.9412 116.118 22.6308 116.18 22.4014 116.026C22.172 115.873 22.1103 115.562 22.2637 115.333C22.8111 114.515 23.5153 113.811 24.333 113.264Z" fill="currentColor"/>
</svg>
