<svg xmlns="http://www.w3.org/2000/svg" width="16" height="16" viewBox="20.0 111.0 17.0 17.0" fill="none">
  <path d="M28.5 112C29.0001 112 29.4894 112.049 29.9629 112.143C29.9689 112.144 29.9746 112.146 29.9805 112.147C31.4182 112.437 32.7514 113.144 33.8037 114.196C34.8558 115.248 35.562 116.581 35.8516 118.019C35.8531 118.025 35.8562 118.031 35.8574 118.037C35.9511 118.511 36 119 36 119.5C36 120 35.9511 120.489 35.8574 120.963C35.8562 120.969 35.853 120.975 35.8516 120.98C35.5622 122.418 34.856 123.751 33.8037 124.804C32.7514 125.856 31.4182 126.562 29.9805 126.852C29.9745 126.853 29.969 126.856 29.9629 126.857C29.4894 126.951 29.0001 127 28.5 127C27.9999 127 27.5106 126.951 27.0371 126.857C26.7662 126.804 26.59 126.54 26.6436 126.27C26.6972 125.999 26.9598 125.823 27.2305 125.876C27.6405 125.957 28.0653 126 28.5 126C29.7929 126 31.0463 125.615 32.1064 124.908L32.3721 124.721C32.9258 124.309 33.41 123.811 33.8086 123.247C34.5773 122.158 35 120.851 35 119.5C35 118.091 34.542 116.729 33.709 115.612C33.2997 115.065 32.8056 114.585 32.2471 114.19C31.1577 113.422 29.851 113 28.5 113C28.0653 113 27.6405 113.043 27.2305 113.124C26.9598 113.177 26.6972 113.001 26.6436 112.73C26.59 112.46 26.7662 112.196 27.0371 112.143C27.5106 112.049 27.9999 112 28.5 112Z" fill="currentColor"/>
  <path d="M22.4014 122.974C22.6308 122.82 22.9412 122.882 23.0947 123.111C23.5694 123.82 24.1798 124.431 24.8887 124.905C25.118 125.059 25.1796 125.369 25.0264 125.599C24.8728 125.828 24.5624 125.89 24.333 125.736C23.5153 125.189 22.8111 124.485 22.2637 123.667C22.1103 123.438 22.172 123.127 22.4014 122.974Z" fill="currentColor"/>
  <path d="M26.6533 116.125C27.0617 115.903 27.4788 116.014 27.8262 116.173C28.1723 116.331 28.5924 116.605 29.0889 116.928L30.4668 117.822C30.8895 118.097 31.2551 118.333 31.5078 118.556C31.7673 118.785 32.0049 119.083 32.0049 119.5C32.0047 119.916 31.7672 120.214 31.5078 120.443C31.2551 120.666 30.8895 120.902 30.4668 121.177L29.0889 122.071C28.5924 122.394 28.1723 122.668 27.8262 122.826C27.4788 122.985 27.0617 123.096 26.6533 122.874C26.245 122.652 26.1106 122.242 26.0547 121.864C25.999 121.488 26 120.986 26 120.394V118.605C26 118.013 25.999 117.511 26.0547 117.135C26.1106 116.757 26.2449 116.347 26.6533 116.125ZM27.1309 117.004C27.1309 117.004 27.1236 117.006 27.1094 117.033C27.0901 117.07 27.0643 117.144 27.0439 117.281C27.0017 117.567 27 117.979 27 118.605V120.394C27 121.02 27.0017 121.432 27.0439 121.718C27.0643 121.855 27.0901 121.929 27.1094 121.966C27.1236 121.993 27.1309 121.995 27.1309 121.995C27.1326 121.996 27.1387 122 27.166 121.997C27.2077 121.993 27.2837 121.975 27.4102 121.917C27.6729 121.797 28.0199 121.573 28.5449 121.232L29.9219 120.338C30.3724 120.045 30.6627 119.856 30.8467 119.693C30.934 119.616 30.9743 119.565 30.9922 119.534C31.005 119.512 31.0049 119.505 31.0049 119.5C31.0049 119.495 31.0055 119.488 30.9922 119.465C30.9743 119.434 30.934 119.383 30.8467 119.306C30.6627 119.143 30.3724 118.954 29.9219 118.661L28.5449 117.767C28.0199 117.426 27.6729 117.202 27.4102 117.082C27.2837 117.024 27.2078 117.006 27.166 117.002C27.1386 116.999 27.1326 117.003 27.1309 117.004Z" fill="currentColor"/>
  <path d="M21.7305 117.644C22.0011 117.697 22.1773 117.96 22.124 118.23C22.0429 118.641 22 119.065 22 119.5C22 119.935 22.0429 120.359 22.124 120.77C22.1773 121.04 22.0011 121.303 21.7305 121.356C21.4596 121.41 21.1962 121.234 21.1426 120.963C21.0489 120.489 21 120 21 119.5C21 119 21.0489 118.511 21.1426 118.037C21.1962 117.766 21.4596 117.59 21.7305 117.644Z" fill="currentColor"/>
  <path d="M24.333 113.264C24.5624 113.11 24.8728 113.172 25.0264 113.401C25.1796 113.631 25.118 113.941 24.8887 114.095C24.1798 114.569 23.5694 115.18 23.0947 115.889C22.9412 116.118 22.6308 116.18 22.4014 116.026C22.172 115.873 22.1103 115.562 22.2637 115.333C22.8111 114.515 23.5153 113.811 24.333 113.264Z" fill="currentColor"/>
</svg>
