<svg xmlns="http://www.w3.org/2000/svg" width="16" height="16" viewBox="19.9 110.45 16.1 16.1" fill="none">
  <path d="M21.303 112.288C21.705 111.894 22.2492 111.978 22.6849 112.109C23.1482 112.25 23.7507 112.527 24.4876 112.866L32.7884 116.683C33.4123 116.969 33.9329 117.207 34.2903 117.438C34.6394 117.665 34.9983 117.989 34.9983 118.5C34.9982 119.01 34.6393 119.334 34.2903 119.561C33.9328 119.792 33.4125 120.03 32.7884 120.317L24.4876 124.133C23.7505 124.472 23.1482 124.75 22.6849 124.891C22.2764 125.014 21.7718 125.095 21.3792 124.78L21.302 124.711C20.9006 124.317 20.9737 123.771 21.097 123.333C21.2281 122.867 21.4941 122.259 21.8186 121.516L23.1351 118.5L21.8196 115.483C21.495 114.74 21.2281 114.132 21.097 113.666C20.9737 113.228 20.9011 112.682 21.303 112.288ZM22.0042 113.004C22.0029 113.01 22.0013 113.019 22.0003 113.032C21.9958 113.094 22.0066 113.206 22.0599 113.396C22.1677 113.779 22.3978 114.31 22.7356 115.084L24.0081 118H28.5003C28.7762 118 29.0003 118.224 29.0003 118.5C29.0003 118.776 28.7762 119 28.5003 119H24.0081L22.7356 121.916C22.3979 122.69 22.1677 123.221 22.0599 123.605C22.0068 123.793 21.9959 123.905 22.0003 123.967C22.0013 123.981 22.0029 123.991 22.0042 123.996C22.0099 123.997 22.0198 123.998 22.0335 123.999C22.0956 124.002 22.2072 123.989 22.3948 123.933C22.7759 123.817 23.3026 123.577 24.0696 123.225L32.3704 119.408C33.0253 119.107 33.4643 118.903 33.7464 118.721C33.8839 118.632 33.9514 118.568 33.9817 118.528C33.9947 118.511 33.9983 118.502 33.9983 118.502V118.498C33.9983 118.498 33.995 118.488 33.9817 118.471C33.9513 118.431 33.884 118.367 33.7464 118.278C33.4643 118.096 33.0251 117.892 32.3704 117.591L24.0696 113.775C23.3025 113.423 22.7759 113.182 22.3948 113.066C22.2073 113.01 22.0956 112.997 22.0335 113C22.0197 113.001 22.0099 113.003 22.0042 113.004Z" fill="currentColor"/>
</svg>
