<svg xmlns="http://www.w3.org/2000/svg" width="16" height="16" viewBox="20.5 111.0 16.0 16.0" fill="none">
  <path d="M33 112C34.1046 112 35 112.895 35 114C35 115.105 34.1046 116 33 116C32.6288 116 32.2823 115.897 31.9844 115.721L29 118.707V122.065C29.8623 122.288 30.5 123.068 30.5 124C30.5 125.105 29.6046 126 28.5 126C27.3954 126 26.5 125.105 26.5 124C26.5 123.068 27.1377 122.288 28 122.065V118.5C28 118.367 28.0527 118.24 28.1465 118.146L31.2783 115.014C31.1028 114.716 31 114.37 31 114C31 112.895 31.8954 112 33 112Z" fill="currentColor"/>
  <path d="M25.6465 115.646C25.8417 115.451 26.1583 115.451 26.3535 115.646L27.3535 116.646C27.5488 116.842 27.5488 117.158 27.3535 117.354C27.1583 117.549 26.8417 117.549 26.6465 117.354L25.6465 116.354C25.4512 116.158 25.4512 115.842 25.6465 115.646Z" fill="currentColor"/>
  <path d="M24 112C25.1046 112 26 112.895 26 114C26 115.105 25.1046 116 24 116C22.8954 116 22 115.105 22 114C22 112.895 22.8954 112 24 112ZM24 113C23.4477 113 23 113.448 23 114C23 114.552 23.4477 115 24 115C24.5523 115 25 114.552 25 114C25 113.448 24.5523 113 24 113Z" fill="currentColor"/>
</svg>
