<svg xmlns="http://www.w3.org/2000/svg" width="16" height="16" viewBox="20.0 112.0 17.0 17.0" fill="none">
  <path d="M32.5 119C33.193 119 33.7634 118.999 34.2129 119.06C34.6767 119.122 35.0861 119.258 35.4141 119.586C35.7421 119.914 35.8781 120.323 35.9405 120.787C36.0009 121.237 36 121.807 36 122.5V123.5C36 124.193 36.0009 124.763 35.9405 125.213C35.8781 125.677 35.7421 126.086 35.4141 126.414C35.0861 126.742 34.6767 126.878 34.2129 126.94C33.7634 127.001 33.193 127 32.5 127H30.5C29.8071 127 29.2367 127.001 28.7872 126.94C28.3234 126.878 27.9139 126.742 27.586 126.414C27.2581 126.086 27.122 125.677 27.0596 125.213C26.9992 124.763 27 124.193 27 123.5V122.5C27 121.807 26.9992 121.237 27.0596 120.787C27.122 120.323 27.258 119.914 27.586 119.586C27.9139 119.258 28.3234 119.122 28.7872 119.06C29.2367 118.999 29.8071 119 30.5 119H32.5ZM32.4004 123.45C31.8671 123.85 31.133 123.85 30.5997 123.45L28.0098 121.507C28.0014 121.781 28 122.106 28 122.5V123.5C28 124.221 28.0015 124.712 28.0508 125.079C28.0983 125.432 28.1818 125.596 28.293 125.707C28.4043 125.818 28.568 125.902 28.9209 125.949C29.2883 125.999 29.7789 126 30.5 126H32.5C33.2212 126 33.7118 125.999 34.0791 125.949C34.4322 125.902 34.5958 125.818 34.7071 125.707C34.8184 125.596 34.9018 125.432 34.9493 125.079C34.9986 124.712 35 124.221 35 123.5V122.5C35 122.106 34.9977 121.781 34.9893 121.507L32.4004 123.45ZM30.5 120C29.7789 120 29.2883 120.001 28.9209 120.051C28.568 120.098 28.4043 120.182 28.293 120.293C28.2614 120.325 28.233 120.361 28.2061 120.404L31.2002 122.65C31.3779 122.783 31.6222 122.783 31.7998 122.65L34.793 120.404C34.7662 120.361 34.7386 120.325 34.7071 120.293C34.5958 120.182 34.4321 120.098 34.0791 120.051C33.7118 120.001 33.2211 120 32.5 120H30.5Z" fill="currentColor"/>
  <path d="M32.5 114C32.9327 114 33.2473 113.996 33.5176 114.068C34.2077 114.253 34.7467 114.792 34.9317 115.482C35.0041 115.753 35 116.067 35 116.5C35 116.933 35.0041 117.247 34.9317 117.518C34.8729 117.737 34.7771 117.94 34.6534 118.122C34.549 118.1 34.4462 118.082 34.3457 118.068C33.8141 117.997 33.1647 118 32.5 118C32.9971 118 33.1477 117.996 33.2588 117.966C33.6039 117.873 33.8734 117.604 33.9659 117.259C33.9956 117.148 34 116.997 34 116.5C34 116.003 33.9956 115.852 33.9659 115.741C33.8733 115.396 33.6038 115.127 33.2588 115.034C33.1477 115.004 32.997 115 32.5 115H23.5C23.003 115 22.8524 115.004 22.7413 115.034C22.3962 115.127 22.1267 115.396 22.0342 115.741C22.0044 115.852 22 116.003 22 116.5C22 116.997 22.0045 117.148 22.0342 117.259C22.1267 117.604 22.3962 117.873 22.7413 117.966C22.8524 117.996 23.003 118 23.5 118H30.5C29.8354 118 29.186 117.997 28.6543 118.068C28.0796 118.146 27.4237 118.334 26.8789 118.879C26.8399 118.918 26.8051 118.96 26.7696 119H23.5C23.003 119 22.8524 119.004 22.7413 119.034C22.3962 119.127 22.1267 119.396 22.0342 119.741C22.0044 119.852 22 120.003 22 120.5C22 120.997 22.0045 121.148 22.0342 121.259C22.1267 121.604 22.3962 121.873 22.7413 121.966C22.8524 121.996 23.003 122 23.5 122H26.0039C26.0031 122.165 26 122.332 26 122.5V123H23.5C23.0673 123 22.7528 123.004 22.4825 122.932C21.7924 122.747 21.2533 122.208 21.0684 121.518C20.996 121.247 21 120.933 21 120.5C21 120.067 20.996 119.753 21.0684 119.482C21.172 119.096 21.3866 118.756 21.6768 118.5C21.3866 118.244 21.172 117.904 21.0684 117.518C20.996 117.247 21 116.933 21 116.5C21 116.067 20.996 115.753 21.0684 115.482C21.2534 114.792 21.7924 114.253 22.4825 114.068C22.7528 113.996 23.0673 114 23.5 114H32.5Z" fill="currentColor"/>
  <path d="M23.75 120C23.888 120 23.9999 120.112 24 120.25V120.75C24 120.888 23.8881 121 23.75 121H23.25C23.112 121 23 120.888 23 120.75V120.25C23.0002 120.112 23.1121 120 23.25 120H23.75Z" fill="currentColor"/>
  <path d="M25.75 120C25.888 120 25.9999 120.112 26 120.25V120.75C26 120.888 25.8881 121 25.75 121H25.25C25.112 121 25 120.888 25 120.75V120.25C25.0002 120.112 25.1121 120 25.25 120H25.75Z" fill="currentColor"/>
  <path d="M23.75 116C23.888 116 23.9999 116.112 24 116.25V116.75C24 116.888 23.8881 117 23.75 117H23.25C23.112 117 23 116.888 23 116.75V116.25C23.0002 116.112 23.1121 116 23.25 116H23.75Z" fill="currentColor"/>
  <path d="M25.75 116C25.888 116 25.9999 116.112 26 116.25V116.75C26 116.888 25.8881 117 25.75 117H25.25C25.112 117 25 116.888 25 116.75V116.25C25.0002 116.112 25.1121 116 25.25 116H25.75Z" fill="currentColor"/>
  <path d="M32.5 116C32.7761 116 32.9999 116.224 33 116.5C33 116.776 32.7762 117 32.5 117H28.5C28.224 117 28 116.776 28 116.5C28.0002 116.224 28.224 116 28.5 116H32.5Z" fill="currentColor"/>
</svg>
