<svg xmlns="http://www.w3.org/2000/svg" width="16" height="16" viewBox="20.0 111.95 17.0 17.0" fill="none">
  <path d="M33.5 119C34.8807 119 36 120.119 36 121.5C36 122.737 35.4227 123.826 34.7608 124.672C34.0955 125.522 33.3083 126.176 32.8047 126.551C32.3241 126.909 31.6759 126.909 31.1954 126.551C30.6918 126.176 29.9046 125.522 29.2393 124.672C28.5774 123.826 28 122.737 28 121.5C28.0001 120.119 29.1194 119 30.5 119C31.0639 119 31.583 119.188 32 119.502C32.4171 119.188 32.9362 119 33.5 119ZM33.5 120C33.0527 120 32.6513 120.196 32.375 120.51C32.2801 120.618 32.1436 120.68 32 120.68C31.8565 120.68 31.72 120.618 31.625 120.51C31.3487 120.196 30.9474 120 30.5 120C29.6716 120 29.0001 120.672 29 121.5C29 122.424 29.4349 123.298 30.0274 124.056C30.6168 124.809 31.3271 125.401 31.793 125.748C31.9192 125.842 32.0809 125.842 32.2071 125.748C32.673 125.401 33.3833 124.809 33.9727 124.056C34.5652 123.298 35 122.424 35 121.5C35 120.672 34.3285 120 33.5 120Z" fill="currentColor"/>
  <path d="M23.75 116C23.888 116 23.9999 116.112 24 116.25V116.75C24 116.888 23.8881 117 23.75 117H23.25C23.112 117 23 116.888 23 116.75V116.25C23.0002 116.112 23.1121 116 23.25 116H23.75Z" fill="currentColor"/>
  <path d="M25.75 116C25.888 116 25.9999 116.112 26 116.25V116.75C26 116.888 25.8881 117 25.75 117H25.25C25.112 117 25 116.888 25 116.75V116.25C25.0002 116.112 25.1121 116 25.25 116H25.75Z" fill="currentColor"/>
  <path d="M32.5 116C32.7761 116 32.9999 116.224 33 116.5C33 116.776 32.7762 117 32.5 117H28.5C28.224 117 28 116.776 28 116.5C28.0002 116.224 28.224 116 28.5 116H32.5Z" fill="currentColor"/>
  <path d="M32.5 114C32.9327 114 33.2473 113.996 33.5176 114.068C34.2077 114.253 34.7467 114.792 34.9317 115.482C35.0041 115.753 35 116.067 35 116.5C35 116.933 35.0041 117.247 34.9317 117.518C34.8666 117.761 34.7564 117.984 34.6123 118.181C34.2629 118.064 33.8889 118 33.5 118C32.9621 118 32.454 118.124 32 118.34C31.5461 118.124 31.0379 118 30.5 118C29.5468 118 28.683 118.382 28.0518 119H23.5C23.003 119 22.8524 119.004 22.7413 119.034C22.3962 119.127 22.1267 119.396 22.0342 119.741C22.0044 119.852 22 120.003 22 120.5C22 120.997 22.0045 121.148 22.0342 121.259C22.1267 121.604 22.3962 121.873 22.7413 121.966C22.8524 121.996 23.003 122 23.5 122H27.0264C27.0612 122.348 27.131 122.682 27.2266 123H23.5C23.0673 123 22.7528 123.004 22.4825 122.932C21.7924 122.747 21.2533 122.208 21.0684 121.518C20.996 121.247 21 120.933 21 120.5C21 120.067 20.996 119.753 21.0684 119.482C21.172 119.096 21.3866 118.756 21.6768 118.5C21.3866 118.244 21.172 117.904 21.0684 117.518C20.996 117.247 21 116.933 21 116.5C21 116.067 20.996 115.753 21.0684 115.482C21.2534 114.792 21.7924 114.253 22.4825 114.068C22.7528 113.996 23.0673 114 23.5 114H32.5ZM23.5 115C23.003 115 22.8524 115.004 22.7413 115.034C22.3962 115.127 22.1267 115.396 22.0342 115.741C22.0044 115.852 22 116.003 22 116.5C22 116.997 22.0045 117.148 22.0342 117.259C22.1267 117.604 22.3962 117.873 22.7413 117.966C22.8524 117.996 23.003 118 23.5 118H32.5C32.9971 118 33.1477 117.996 33.2588 117.966C33.6039 117.873 33.8734 117.604 33.9659 117.259C33.9956 117.148 34 116.997 34 116.5C34 116.003 33.9956 115.852 33.9659 115.741C33.8733 115.396 33.6038 115.127 33.2588 115.034C33.1477 115.004 32.997 115 32.5 115H23.5Z" fill="currentColor"/>
  <path d="M23.75 120C23.888 120 23.9999 120.112 24 120.25V120.75C24 120.888 23.8881 121 23.75 121H23.25C23.112 121 23 120.888 23 120.75V120.25C23.0002 120.112 23.1121 120 23.25 120H23.75Z" fill="currentColor"/>
  <path d="M25.75 120C25.888 120 25.9999 120.112 26 120.25V120.75C26 120.888 25.8881 121 25.75 121H25.25C25.112 121 25 120.888 25 120.75V120.25C25.0002 120.112 25.1121 120 25.25 120H25.75Z" fill="currentColor"/>
</svg>
