<svg xmlns="http://www.w3.org/2000/svg" width="16" height="16" viewBox="20.0 110.5 16.01 16.01" fill="none">
  <path d="M23.75 120C23.8881 120 24 120.112 24 120.25V120.75C24 120.888 23.8881 121 23.75 121H23.25C23.112 121 23 120.888 23 120.75V120.25C23.0001 120.112 23.112 120 23.25 120H23.75Z" fill="currentColor"/>
  <path d="M25.75 120C25.8881 120 26 120.112 26 120.25V120.75C26 120.888 25.8881 121 25.75 121H25.25C25.112 121 25 120.888 25 120.75V120.25C25.0001 120.112 25.112 120 25.25 120H25.75Z" fill="currentColor"/>
  <path d="M32.5 120C32.7762 120 33 120.224 33 120.5C33 120.776 32.7762 121 32.5 121H28.5C28.2239 121 28 120.776 28 120.5C28.0001 120.224 28.2239 120 28.5 120H32.5Z" fill="currentColor"/>
  <path d="M23.75 116C23.8881 116 24 116.112 24 116.25V116.75C24 116.888 23.8881 117 23.75 117H23.25C23.112 117 23 116.888 23 116.75V116.25C23.0001 116.112 23.112 116 23.25 116H23.75Z" fill="currentColor"/>
  <path d="M25.75 116C25.8881 116 26 116.112 26 116.25V116.75C26 116.888 25.8881 117 25.75 117H25.25C25.112 117 25 116.888 25 116.75V116.25C25.0001 116.112 25.112 116 25.25 116H25.75Z" fill="currentColor"/>
  <path d="M32.5 116C32.7762 116 33 116.224 33 116.5C33 116.776 32.7762 117 32.5 117H28.5C28.2239 117 28 116.776 28 116.5C28.0001 116.224 28.2239 116 28.5 116H32.5Z" fill="currentColor"/>
  <path d="M32.5 114C32.9328 114 33.2473 113.996 33.5176 114.068C34.2078 114.253 34.7467 114.792 34.9317 115.482C35.0041 115.753 35 116.067 35 116.5C35 116.933 35.0041 117.247 34.9317 117.518C34.828 117.905 34.6128 118.244 34.3223 118.5C34.6129 118.756 34.828 119.095 34.9317 119.482C35.0041 119.753 35 120.067 35 120.5C35 120.933 35.0041 121.247 34.9317 121.518C34.7467 122.208 34.2078 122.747 33.5176 122.932C33.2473 123.004 32.9328 123 32.5 123H23.5C23.0673 123 22.7528 123.004 22.4825 122.932C21.7923 122.747 21.2533 122.208 21.0684 121.518C20.996 121.247 21 120.933 21 120.5C21 120.067 20.996 119.753 21.0684 119.482C21.172 119.096 21.3865 118.756 21.6768 118.5C21.3866 118.244 21.172 117.904 21.0684 117.518C20.996 117.247 21 116.933 21 116.5C21 116.067 20.996 115.753 21.0684 115.482C21.2533 114.792 21.7923 114.253 22.4825 114.068C22.7528 113.996 23.0673 114 23.5 114H32.5ZM23.5 119C23.0029 119 22.8524 119.004 22.7413 119.034C22.3962 119.127 22.1267 119.396 22.0342 119.741C22.0044 119.852 22 120.003 22 120.5C22 120.997 22.0045 121.148 22.0342 121.259C22.1267 121.604 22.3962 121.873 22.7413 121.966C22.8524 121.996 23.0029 122 23.5 122H32.5C32.9972 122 33.1477 121.996 33.2588 121.966C33.6039 121.873 33.8734 121.604 33.9659 121.259C33.9956 121.148 34 120.997 34 120.5C34 120.003 33.9956 119.852 33.9659 119.741C33.8734 119.396 33.6039 119.127 33.2588 119.034C33.1477 119.004 32.9971 119 32.5 119H23.5ZM23.5 115C23.0029 115 22.8524 115.004 22.7413 115.034C22.3962 115.127 22.1267 115.396 22.0342 115.741C22.0044 115.852 22 116.003 22 116.5C22 116.997 22.0045 117.148 22.0342 117.259C22.1267 117.604 22.3962 117.873 22.7413 117.966C22.8524 117.996 23.0029 118 23.5 118H32.5C32.9972 118 33.1477 117.996 33.2588 117.966C33.6039 117.873 33.8734 117.604 33.9659 117.259C33.9956 117.148 34 116.997 34 116.5C34 116.003 33.9956 115.852 33.9659 115.741C33.8734 115.396 33.6039 115.127 33.2588 115.034C33.1477 115.004 32.9971 115 32.5 115H23.5Z" fill="currentColor"/>
</svg>
