<svg xmlns="http://www.w3.org/2000/svg" width="16" height="16" viewBox="20.0 112.0 17.0 17.0" fill="none">
  <path d="M31.5 120C31.7762 120 32 120.224 32 120.5V122H33.5C33.7762 122 34 122.224 34 122.5C34 122.776 33.7762 123 33.5 123H31.5C31.2239 123 31 122.776 31 122.5V120.5C31.0001 120.224 31.2239 120 31.5 120Z" fill="currentColor"/>
  <path d="M31.5 118C33.9853 118 36 120.015 36 122.5C36 124.985 33.9853 127 31.5 127C29.0148 127 27 124.985 27 122.5C27.0001 120.015 29.0148 118 31.5 118ZM31.5 119C29.5671 119 28.0001 120.567 28 122.5C28 124.433 29.5671 126 31.5 126C33.433 126 35 124.433 35 122.5C35 120.567 33.433 119 31.5 119Z" fill="currentColor"/>
  <path d="M32.5 114C32.9328 114 33.2473 113.996 33.5176 114.068C34.2077 114.253 34.7467 114.792 34.9317 115.482C35.0041 115.753 35 116.067 35 116.5C35 116.933 35.0041 117.247 34.9317 117.518C34.8822 117.702 34.8064 117.876 34.71 118.035C34.44 117.841 34.1523 117.669 33.8487 117.525C33.8994 117.444 33.9402 117.355 33.9659 117.259C33.9956 117.148 34 116.997 34 116.5C34 116.003 33.9956 115.852 33.9659 115.741C33.8733 115.396 33.6039 115.127 33.2588 115.034C33.1477 115.004 32.997 115 32.5 115H23.5C23.0029 115 22.8524 115.004 22.7413 115.034C22.3962 115.127 22.1267 115.396 22.0342 115.741C22.0044 115.852 22 116.003 22 116.5C22 116.997 22.0045 117.148 22.0342 117.259C22.1267 117.604 22.3962 117.873 22.7413 117.966C22.8524 117.996 23.0029 118 23.5 118H28.3399C27.9361 118.284 27.5716 118.62 27.2579 119H23.5C23.0029 119 22.8524 119.004 22.7413 119.034C22.3962 119.127 22.1267 119.396 22.0342 119.741C22.0044 119.852 22 120.003 22 120.5C22 120.997 22.0045 121.148 22.0342 121.259C22.1267 121.604 22.3962 121.873 22.7413 121.966C22.8524 121.996 23.0029 122 23.5 122H26.0235C26.0086 122.165 26 122.331 26 122.5C26 122.669 26.0086 122.835 26.0235 123H23.5C23.0673 123 22.7528 123.004 22.4825 122.932C21.7923 122.747 21.2533 122.208 21.0684 121.518C20.996 121.247 21 120.933 21 120.5C21 120.067 20.996 119.753 21.0684 119.482C21.172 119.096 21.3866 118.756 21.6768 118.5C21.3866 118.244 21.172 117.904 21.0684 117.518C20.996 117.247 21 116.933 21 116.5C21 116.067 20.996 115.753 21.0684 115.482C21.2534 114.792 21.7924 114.253 22.4825 114.068C22.7528 113.996 23.0673 114 23.5 114H32.5Z" fill="currentColor"/>
  <path d="M23.75 120C23.888 120 23.9999 120.112 24 120.25V120.75C24 120.888 23.8881 121 23.75 121H23.25C23.112 121 23 120.888 23 120.75V120.25C23.0002 120.112 23.1121 120 23.25 120H23.75Z" fill="currentColor"/>
  <path d="M25.75 120C25.888 120 25.9999 120.112 26 120.25V120.75C26 120.888 25.8881 121 25.75 121H25.25C25.112 121 25 120.888 25 120.75V120.25C25.0002 120.112 25.1121 120 25.25 120H25.75Z" fill="currentColor"/>
  <path d="M23.75 116C23.888 116 23.9999 116.112 24 116.25V116.75C24 116.888 23.8881 117 23.75 117H23.25C23.112 117 23 116.888 23 116.75V116.25C23.0002 116.112 23.1121 116 23.25 116H23.75Z" fill="currentColor"/>
  <path d="M25.75 116C25.888 116 25.9999 116.112 26 116.25V116.75C26 116.888 25.8881 117 25.75 117H25.25C25.112 117 25 116.888 25 116.75V116.25C25.0002 116.112 25.1121 116 25.25 116H25.75Z" fill="currentColor"/>
  <path d="M32.5 116C32.7761 116 32.9999 116.224 33 116.5C33 116.776 32.7762 117 32.5 117H28.5C28.2239 117 28 116.776 28 116.5C28.0002 116.224 28.224 116 28.5 116H32.5Z" fill="currentColor"/>
</svg>
