<svg xmlns="http://www.w3.org/2000/svg" width="16" height="16" viewBox="20.0 112.0 17.0 17.0" fill="none">
  <path d="M31.5 119C31.9573 119 32.3507 118.999 32.6641 119.041C32.9918 119.085 33.3058 119.185 33.5606 119.439C33.8154 119.694 33.9149 120.008 33.959 120.336C33.9849 120.528 33.9926 120.751 33.9961 121H34C35.1046 121 36 121.895 36 123C36 124.105 35.1046 125 34 125C33.9422 125 33.8849 124.997 33.8282 124.992C33.4682 126.019 32.5727 126.788 31.4698 126.963C31.2268 127.001 30.9454 127 30.5 127C30.0547 127 29.7733 127.001 29.5303 126.963C28.247 126.759 27.2406 125.753 27.0372 124.47C26.9987 124.227 27 123.945 27 123.5V121.5C27 121.043 26.9989 120.649 27.0411 120.336C27.0851 120.008 27.1847 119.694 27.4395 119.439C27.6943 119.185 28.0083 119.085 28.336 119.041C28.6493 118.999 29.0428 119 29.5 119H31.5ZM29.5 120C29.0148 120 28.701 120.001 28.4698 120.032C28.2529 120.061 28.1846 120.108 28.1465 120.147C28.1085 120.185 28.0614 120.253 28.0323 120.47C28.0012 120.701 28 121.015 28 121.5V123.5C28 123.983 28.0015 124.167 28.0245 124.313C28.16 125.168 28.8318 125.84 29.6875 125.976C29.8331 125.999 30.0169 126 30.5 126C30.9832 126 31.1669 125.999 31.3125 125.976C32.1683 125.84 32.8401 125.168 32.9756 124.313C32.9986 124.167 33 123.983 33 123.5V121.5C33 121.015 32.9989 120.701 32.9678 120.47C32.9387 120.253 32.8916 120.185 32.8536 120.147C32.8155 120.108 32.7471 120.061 32.5303 120.032C32.2991 120.001 31.9853 120 31.5 120H29.5ZM34 123.5C34 123.694 33.999 123.857 33.9961 123.999L34 124C34.5523 124 35 123.552 35 123C35 122.448 34.5523 122 34 122V123.5Z" fill="currentColor"/>
  <path d="M32.5 114C32.9327 114 33.2473 113.996 33.5176 114.068C34.2077 114.253 34.7467 114.792 34.9317 115.482C35.0041 115.753 35 116.067 35 116.5C35 116.933 35.0041 117.247 34.9317 117.518C34.828 117.905 34.6128 118.244 34.3223 118.5C34.6128 118.756 34.828 119.096 34.9317 119.482C34.9845 119.68 34.9925 119.9 34.9952 120.173C34.9771 120.167 34.9596 120.158 34.9414 120.152C34.8775 119.722 34.721 119.186 34.2676 118.732C33.7961 118.261 33.2355 118.109 32.7969 118.05C32.4015 117.997 31.9289 118 31.5 118H32.5C32.9971 118 33.1477 117.996 33.2588 117.966C33.6039 117.873 33.8734 117.604 33.9659 117.259C33.9956 117.148 34 116.997 34 116.5C34 116.003 33.9956 115.852 33.9659 115.741C33.8733 115.396 33.6038 115.127 33.2588 115.034C33.1477 115.004 32.997 115 32.5 115H23.5C23.003 115 22.8524 115.004 22.7413 115.034C22.3962 115.127 22.1267 115.396 22.0342 115.741C22.0044 115.852 22 116.003 22 116.5C22 116.997 22.0045 117.148 22.0342 117.259C22.1267 117.604 22.3962 117.873 22.7413 117.966C22.8524 117.996 23.003 118 23.5 118H29.5C29.0712 118 28.5985 117.997 28.2032 118.05C27.7646 118.109 27.204 118.261 26.7325 118.732C26.6465 118.818 26.5739 118.909 26.5079 119H23.5C23.003 119 22.8524 119.004 22.7413 119.034C22.3962 119.127 22.1267 119.396 22.0342 119.741C22.0044 119.852 22 120.003 22 120.5C22 120.997 22.0045 121.148 22.0342 121.259C22.1267 121.604 22.3962 121.873 22.7413 121.966C22.8524 121.996 23.003 122 23.5 122H26V123H23.5C23.0673 123 22.7528 123.004 22.4825 122.932C21.7924 122.747 21.2533 122.208 21.0684 121.518C20.996 121.247 21 120.933 21 120.5C21 120.067 20.996 119.753 21.0684 119.482C21.172 119.096 21.3866 118.756 21.6768 118.5C21.3866 118.244 21.172 117.904 21.0684 117.518C20.996 117.247 21 116.933 21 116.5C21 116.067 20.996 115.753 21.0684 115.482C21.2534 114.792 21.7924 114.253 22.4825 114.068C22.7528 113.996 23.0673 114 23.5 114H32.5Z" fill="currentColor"/>
  <path d="M23.75 120C23.888 120 23.9999 120.112 24 120.25V120.75C24 120.888 23.8881 121 23.75 121H23.25C23.112 121 23 120.888 23 120.75V120.25C23.0002 120.112 23.1121 120 23.25 120H23.75Z" fill="currentColor"/>
  <path d="M25.75 120C25.888 120 25.9999 120.112 26 120.25V120.75C26 120.888 25.8881 121 25.75 121H25.25C25.112 121 25 120.888 25 120.75V120.25C25.0002 120.112 25.1121 120 25.25 120H25.75Z" fill="currentColor"/>
  <path d="M23.75 116C23.888 116 23.9999 116.112 24 116.25V116.75C24 116.888 23.8881 117 23.75 117H23.25C23.112 117 23 116.888 23 116.75V116.25C23.0002 116.112 23.1121 116 23.25 116H23.75Z" fill="currentColor"/>
  <path d="M25.75 116C25.888 116 25.9999 116.112 26 116.25V116.75C26 116.888 25.8881 117 25.75 117H25.25C25.112 117 25 116.888 25 116.75V116.25C25.0002 116.112 25.1121 116 25.25 116H25.75Z" fill="currentColor"/>
  <path d="M32.5 116C32.7761 116 32.9999 116.224 33 116.5C33 116.776 32.7762 117 32.5 117H28.5C28.224 117 28 116.776 28 116.5C28.0002 116.224 28.224 116 28.5 116H32.5Z" fill="currentColor"/>
</svg>
