<svg xmlns="http://www.w3.org/2000/svg" width="16" height="16" viewBox="20.0 112.0 17.0 17.0" fill="none">
  <path d="M32.1543 120.004C33.6994 120.082 34.9346 121.33 34.9961 122.879C35.6 123.281 36 123.968 36 124.75L35.9883 124.981C35.8805 126.039 35.0397 126.88 33.9815 126.987L33.751 126.999H32.5332L32.5 127H29.5C28.2058 127 27.141 126.016 27.0127 124.756L27 124.5C27.0001 123.233 27.9425 122.189 29.1641 122.024C29.5693 120.847 30.6847 120 32 120L32.1543 120.004ZM32 121C31.033 121 30.2253 121.687 30.0401 122.6C29.9927 122.833 29.7876 123 29.5498 123H29.5C28.6718 123 28.0001 123.672 28 124.5L28.0079 124.653C28.0848 125.41 28.7236 126 29.5 126H32.4834C32.49 126 32.5009 125.999 32.5137 125.999H33.751L33.8789 125.992C34.4666 125.932 34.9333 125.466 34.9932 124.878L35 124.75C35 124.253 34.709 123.822 34.2852 123.621C34.1111 123.538 34 123.363 34 123.17V123L33.9893 122.796C33.8938 121.854 33.1457 121.106 32.2041 121.011L32 121Z" fill="currentColor"/>
  <path d="M23.75 116C23.888 116 23.9999 116.112 24 116.25V116.75C24 116.888 23.8881 117 23.75 117H23.25C23.112 117 23 116.888 23 116.75V116.25C23.0002 116.112 23.1121 116 23.25 116H23.75Z" fill="currentColor"/>
  <path d="M25.75 116C25.888 116 25.9999 116.112 26 116.25V116.75C26 116.888 25.8881 117 25.75 117H25.25C25.112 117 25 116.888 25 116.75V116.25C25.0002 116.112 25.1121 116 25.25 116H25.75Z" fill="currentColor"/>
  <path d="M32.5 116C32.7761 116 32.9999 116.224 33 116.5C33 116.776 32.7762 117 32.5 117H28.5C28.2239 117 28 116.776 28 116.5C28.0002 116.224 28.224 116 28.5 116H32.5Z" fill="currentColor"/>
  <path d="M32.5 114C32.9328 114 33.2473 113.996 33.5176 114.068C34.2077 114.253 34.7467 114.792 34.9317 115.482C35.0041 115.753 35 116.067 35 116.5C35 116.933 35.0041 117.247 34.9317 117.518C34.828 117.905 34.6128 118.244 34.3223 118.5C34.6128 118.756 34.828 119.096 34.9317 119.482C34.9959 119.722 34.998 119.997 34.9981 120.357C34.6689 119.984 34.2729 119.671 33.8262 119.441C33.6934 119.245 33.4948 119.097 33.2588 119.034C33.1477 119.004 32.997 119 32.5 119H23.5C23.003 119 22.8524 119.004 22.7413 119.034C22.3962 119.127 22.1267 119.396 22.0342 119.741C22.0044 119.852 22 120.003 22 120.5C22 120.997 22.0045 121.148 22.0342 121.259C22.1267 121.604 22.3962 121.873 22.7413 121.966C22.8524 121.996 23.0029 122 23.5 122H27.0508C26.7582 122.287 26.5179 122.626 26.3399 123H23.5C23.0673 123 22.7528 123.004 22.4825 122.932C21.7923 122.747 21.2533 122.208 21.0684 121.518C20.996 121.247 21 120.933 21 120.5C21 120.067 20.996 119.753 21.0684 119.482C21.172 119.096 21.3866 118.756 21.6768 118.5C21.3866 118.244 21.172 117.904 21.0684 117.518C20.996 117.247 21 116.933 21 116.5C21 116.067 20.996 115.753 21.0684 115.482C21.2534 114.792 21.7924 114.253 22.4825 114.068C22.7528 113.996 23.0673 114 23.5 114H32.5ZM23.5 115C23.003 115 22.8524 115.004 22.7413 115.034C22.3962 115.127 22.1267 115.396 22.0342 115.741C22.0044 115.852 22 116.003 22 116.5C22 116.997 22.0045 117.148 22.0342 117.259C22.1267 117.604 22.3962 117.873 22.7413 117.966C22.8524 117.996 23.0029 118 23.5 118H32.5C32.9971 118 33.1477 117.996 33.2588 117.966C33.6039 117.873 33.8734 117.604 33.9659 117.259C33.9956 117.148 34 116.997 34 116.5C34 116.003 33.9956 115.852 33.9659 115.741C33.8733 115.396 33.6039 115.127 33.2588 115.034C33.1477 115.004 32.997 115 32.5 115H23.5Z" fill="currentColor"/>
  <path d="M23.75 120C23.888 120 23.9999 120.112 24 120.25V120.75C24 120.888 23.8881 121 23.75 121H23.25C23.112 121 23 120.888 23 120.75V120.25C23.0002 120.112 23.1121 120 23.25 120H23.75Z" fill="currentColor"/>
  <path d="M25.75 120C25.888 120 25.9999 120.112 26 120.25V120.75C26 120.888 25.8881 121 25.75 121H25.25C25.112 121 25 120.888 25 120.75V120.25C25.0002 120.112 25.1121 120 25.25 120H25.75Z" fill="currentColor"/>
  <path d="M29.3594 120C29.0351 120.286 28.7582 120.623 28.5401 121H28.5C28.2239 121 28 120.776 28 120.5C28.0002 120.224 28.224 120 28.5 120H29.3594Z" fill="currentColor"/>
</svg>
