<svg xmlns="http://www.w3.org/2000/svg" width="16" height="16" viewBox="20.0 111.0 17.01 17.01" fill="none">
  <path d="M24.75 118C24.8881 118 25 118.112 25 118.25V118.75C25 118.888 24.8881 119 24.75 119H24.25C24.112 119 24 118.888 24 118.75V118.25C24.0001 118.112 24.112 118 24.25 118H24.75Z" fill="currentColor"/>
  <path d="M26.75 118C26.8881 118 27 118.112 27 118.25V118.75C27 118.888 26.8881 119 26.75 119H26.25C26.112 119 26 118.888 26 118.75V118.25C26.0001 118.112 26.112 118 26.25 118H26.75Z" fill="currentColor"/>
  <path d="M32.5 118C32.7762 118 33 118.224 33 118.5C33 118.776 32.7762 119 32.5 119H29.5C29.2239 119 29 118.776 29 118.5C29.0001 118.224 29.2239 118 29.5 118H32.5Z" fill="currentColor"/>
  <path d="M24.75 114C24.8881 114 25 114.112 25 114.25V114.75C25 114.888 24.8881 115 24.75 115H24.25C24.112 115 24 114.888 24 114.75V114.25C24.0001 114.112 24.112 114 24.25 114H24.75Z" fill="currentColor"/>
  <path d="M26.75 114C26.8881 114 27 114.112 27 114.25V114.75C27 114.888 26.8881 115 26.75 115H26.25C26.112 115 26 114.888 26 114.75V114.25C26.0001 114.112 26.112 114 26.25 114H26.75Z" fill="currentColor"/>
  <path d="M32.5 114C32.7762 114 33 114.224 33 114.5C33 114.776 32.7762 115 32.5 115H29.5C29.2239 115 29 114.776 29 114.5C29.0001 114.224 29.2239 114 29.5 114H32.5Z" fill="currentColor"/>
  <path d="M32.5 112C32.9328 112 33.2473 111.996 33.5176 112.068C34.2078 112.253 34.7467 112.792 34.9317 113.482C35.0041 113.753 35 114.067 35 114.5C35 114.933 35.0041 115.247 34.9317 115.518C34.828 115.905 34.6129 116.244 34.3223 116.5C34.6129 116.756 34.828 117.095 34.9317 117.482C35.0041 117.753 35 118.067 35 118.5C35 118.933 35.0041 119.247 34.9317 119.518C34.7467 120.208 34.2078 120.747 33.5176 120.932C33.2473 121.004 32.9328 121 32.5 121H29V122H31.5C31.9328 122 32.2473 121.996 32.5176 122.068C33.2078 122.253 33.7467 122.792 33.9317 123.482C33.9729 123.636 33.9877 123.804 33.9942 124H34C34.1037 124 34.2318 123.999 34.3409 124.014C34.4644 124.03 34.6353 124.075 34.7803 124.22C34.9253 124.365 34.9698 124.536 34.9864 124.659C35.001 124.768 35 124.896 35 125V126C35 126.104 35.001 126.232 34.9864 126.341C34.9698 126.464 34.9253 126.635 34.7803 126.78C34.6353 126.925 34.4644 126.97 34.3409 126.986C34.2318 127.001 34.1037 127 34 127H33C32.8964 127 32.7683 127.001 32.6592 126.986C32.5357 126.97 32.3647 126.925 32.2198 126.78C32.0748 126.635 32.0303 126.464 32.0137 126.341C31.9991 126.232 32 126.104 32 126V125C32 124.896 31.9991 124.768 32.0137 124.659C32.0303 124.536 32.0748 124.365 32.2198 124.22C32.3648 124.075 32.5357 124.03 32.6592 124.014C32.7663 123.999 32.8916 124 32.9942 124C32.9896 123.871 32.9818 123.801 32.9659 123.741C32.8734 123.396 32.6039 123.127 32.2588 123.034C32.1477 123.004 31.9971 123 31.5 123H29V124C29.1037 124 29.2318 123.999 29.3409 124.014C29.4644 124.03 29.6353 124.075 29.7803 124.22C29.9253 124.365 29.9698 124.536 29.9864 124.659C30.001 124.768 30 124.896 30 125V126C30 126.104 30.001 126.232 29.9864 126.341C29.9698 126.464 29.9253 126.635 29.7803 126.78C29.6353 126.925 29.4644 126.97 29.3409 126.986C29.2318 127.001 29.1037 127 29 127H28C27.8964 127 27.7683 127.001 27.6592 126.986C27.5357 126.97 27.3647 126.925 27.2198 126.78C27.0748 126.635 27.0303 126.464 27.0137 126.341C26.9991 126.232 27 126.104 27 126V125C27 124.896 26.9991 124.768 27.0137 124.659C27.0303 124.536 27.0748 124.365 27.2198 124.22C27.3648 124.075 27.5357 124.03 27.6592 124.014C27.7683 123.999 27.8964 124 28 124V123H25.5C25.0029 123 24.8524 123.004 24.7413 123.034C24.3962 123.127 24.1267 123.396 24.0342 123.741C24.0183 123.801 24.0095 123.871 24.0049 124C24.1077 124 24.2334 123.999 24.3409 124.014C24.4644 124.03 24.6353 124.075 24.7803 124.22C24.9253 124.365 24.9698 124.536 24.9864 124.659C25.001 124.768 25 124.896 25 125V126C25 126.104 25.001 126.232 24.9864 126.341C24.9698 126.464 24.9253 126.635 24.7803 126.78C24.6353 126.925 24.4644 126.97 24.3409 126.986C24.2318 127.001 24.1037 127 24 127H23C22.8964 127 22.7683 127.001 22.6592 126.986C22.5357 126.97 22.3647 126.925 22.2198 126.78C22.0748 126.635 22.0303 126.464 22.0137 126.341C21.9991 126.232 22 126.104 22 126V125C22 124.896 21.9991 124.768 22.0137 124.659C22.0303 124.536 22.0748 124.365 22.2198 124.22C22.3648 124.075 22.5357 124.03 22.6592 124.014C22.7683 123.999 22.8964 124 23 124H23.0059C23.0124 123.804 23.0272 123.636 23.0684 123.482C23.2533 122.792 23.7923 122.253 24.4825 122.068C24.7528 121.996 25.0673 122 25.5 122H28V121H24.5C24.0673 121 23.7528 121.004 23.4825 120.932C22.7923 120.747 22.2533 120.208 22.0684 119.518C21.996 119.247 22 118.933 22 118.5C22 118.067 21.996 117.753 22.0684 117.482C22.172 117.096 22.3865 116.756 22.6768 116.5C22.3866 116.244 22.172 115.904 22.0684 115.518C21.996 115.247 22 114.933 22 114.5C22 114.067 21.996 113.753 22.0684 113.482C22.2533 112.792 22.7923 112.253 23.4825 112.068C23.7528 111.996 24.0673 112 24.5 112H32.5ZM23 126H24V125H23V126ZM28 126H29V125H28V126ZM33 126H34V125H33V126ZM24.5 117C24.0029 117 23.8524 117.004 23.7413 117.034C23.3962 117.127 23.1267 117.396 23.0342 117.741C23.0044 117.852 23 118.003 23 118.5C23 118.997 23.0045 119.148 23.0342 119.259C23.1267 119.604 23.3962 119.873 23.7413 119.966C23.8524 119.996 24.0029 120 24.5 120H32.5C32.9972 120 33.1477 119.996 33.2588 119.966C33.6039 119.873 33.8734 119.604 33.9659 119.259C33.9956 119.148 34 118.997 34 118.5C34 118.003 33.9956 117.852 33.9659 117.741C33.8734 117.396 33.6039 117.127 33.2588 117.034C33.1477 117.004 32.9971 117 32.5 117H24.5ZM24.5 113C24.0029 113 23.8524 113.004 23.7413 113.034C23.3962 113.127 23.1267 113.396 23.0342 113.741C23.0044 113.852 23 114.003 23 114.5C23 114.997 23.0045 115.148 23.0342 115.259C23.1267 115.604 23.3962 115.873 23.7413 115.966C23.8524 115.996 24.0029 116 24.5 116H32.5C32.9972 116 33.1477 115.996 33.2588 115.966C33.6039 115.873 33.8734 115.604 33.9659 115.259C33.9956 115.148 34 114.997 34 114.5C34 114.003 33.9956 113.852 33.9659 113.741C33.8734 113.396 33.6039 113.127 33.2588 113.034C33.1477 113.004 32.9971 113 32.5 113H24.5Z" fill="currentColor"/>
</svg>
