<svg xmlns="http://www.w3.org/2000/svg" width="16" height="16" viewBox="20.0 112.0 17.0 17.0" fill="none">
  <path d="M32 118C33.019 118 33.9654 118.181 34.6758 118.493C35.0302 118.649 35.3486 118.847 35.585 119.093C35.8237 119.341 35.9999 119.661 36 120.038V124.962C35.9999 125.339 35.8237 125.659 35.585 125.907C35.3486 126.153 35.0302 126.351 34.6758 126.507C33.9654 126.819 33.019 127 32 127C30.9811 127 30.0347 126.819 29.3243 126.507C28.9699 126.351 28.6515 126.153 28.4151 125.907C28.1764 125.659 28.0002 125.339 28 124.962V120.038C28.0002 119.661 28.1763 119.341 28.4151 119.093C28.6515 118.847 28.9698 118.649 29.3243 118.493C30.0347 118.181 30.9811 118 32 118ZM35 121.42C34.8962 121.478 34.7884 121.535 34.6758 121.584C33.9654 121.896 33.019 122.077 32 122.077C30.9811 122.077 30.0347 121.896 29.3243 121.584C29.2117 121.535 29.1038 121.478 29 121.42V124.962C29.0001 125.01 29.0207 125.094 29.1358 125.214C29.2536 125.336 29.448 125.469 29.7266 125.592C30.2829 125.836 31.0863 126 32 126C32.9138 126 33.7172 125.836 34.2735 125.592C34.5521 125.469 34.7465 125.336 34.8643 125.214C34.9794 125.094 34.9999 125.01 35 124.962V121.42ZM32 119C31.0863 119 30.2829 119.164 29.7266 119.408C29.448 119.531 29.2536 119.664 29.1358 119.786C29.0207 119.906 29.0002 119.99 29 120.038C29 120.086 29.0204 120.171 29.1358 120.291C29.2536 120.413 29.4481 120.547 29.7266 120.669C30.2828 120.913 31.0863 121.077 32 121.077C32.9138 121.077 33.7172 120.913 34.2735 120.669C34.552 120.547 34.7465 120.413 34.8643 120.291C34.9797 120.171 35 120.086 35 120.038C34.9999 119.99 34.9794 119.906 34.8643 119.786C34.7465 119.664 34.5521 119.531 34.2735 119.408C33.7172 119.164 32.9138 119 32 119Z" fill="currentColor"/>
  <path d="M32.5 114C32.9327 114 33.2473 113.996 33.5176 114.068C34.2077 114.253 34.7467 114.792 34.9317 115.482C35.0041 115.753 35 116.067 35 116.5C35 116.933 35.0041 117.247 34.9317 117.518C34.6338 117.397 34.3115 117.296 33.9727 117.217C33.9939 117.107 34 116.938 34 116.5C34 116.003 33.9956 115.852 33.9659 115.741C33.8733 115.396 33.6038 115.127 33.2588 115.034C33.1477 115.004 32.9969 115 32.5 115H23.5C23.003 115 22.8524 115.004 22.7413 115.034C22.3963 115.127 22.1267 115.396 22.0342 115.741C22.0044 115.852 22 116.003 22 116.5C22 116.997 22.0045 117.148 22.0342 117.259C22.1267 117.604 22.3963 117.873 22.7413 117.966C22.8524 117.996 23.003 118 23.5 118H28.1651C27.9984 118.117 27.8389 118.249 27.6944 118.399C27.5349 118.565 27.3838 118.767 27.2618 119H23.5C23.003 119 22.8524 119.004 22.7413 119.034C22.3963 119.127 22.1267 119.396 22.0342 119.741C22.0044 119.852 22 120.003 22 120.5C22 120.997 22.0045 121.148 22.0342 121.259C22.1267 121.604 22.3963 121.873 22.7413 121.966C22.8524 121.996 23.003 122 23.5 122H27V123H23.5C23.0673 123 22.7528 123.004 22.4825 122.932C21.7924 122.747 21.2533 122.208 21.0684 121.518C20.996 121.247 21 120.933 21 120.5C21 120.067 20.996 119.753 21.0684 119.482C21.1721 119.096 21.3866 118.756 21.6768 118.5C21.3866 118.244 21.172 117.904 21.0684 117.518C20.996 117.247 21 116.933 21 116.5C21 116.067 20.996 115.753 21.0684 115.482C21.2534 114.792 21.7924 114.253 22.4825 114.068C22.7528 113.996 23.0673 114 23.5 114H32.5Z" fill="currentColor"/>
  <path d="M23.75 120C23.888 120 23.9999 120.112 24 120.25V120.75C24 120.888 23.8881 121 23.75 121H23.25C23.112 121 23 120.888 23 120.75V120.25C23.0002 120.112 23.1121 120 23.25 120H23.75Z" fill="currentColor"/>
  <path d="M25.75 120C25.888 120 25.9999 120.112 26 120.25V120.75C26 120.888 25.8881 121 25.75 121H25.25C25.112 121 25 120.888 25 120.75V120.25C25.0002 120.112 25.1121 120 25.25 120H25.75Z" fill="currentColor"/>
  <path d="M23.75 116C23.888 116 23.9999 116.112 24 116.25V116.75C24 116.888 23.8881 117 23.75 117H23.25C23.112 117 23 116.888 23 116.75V116.25C23.0002 116.112 23.1121 116 23.25 116H23.75Z" fill="currentColor"/>
  <path d="M25.75 116C25.888 116 25.9999 116.112 26 116.25V116.75C26 116.888 25.8881 117 25.75 117H25.25C25.112 117 25 116.888 25 116.75V116.25C25.0002 116.112 25.1121 116 25.25 116H25.75Z" fill="currentColor"/>
  <path d="M32.5 116C32.7761 116 32.9999 116.224 33 116.5C33 116.776 32.7762 117 32.5 117H28.5C28.224 117 28 116.776 28 116.5C28.0002 116.224 28.224 116 28.5 116H32.5Z" fill="currentColor"/>
</svg>
