<svg xmlns="http://www.w3.org/2000/svg" width="16" height="16" viewBox="20.0 111.0 16.0 16.0" fill="none">
  <path d="M28 112C29.5733 112 31.0217 112.289 32.0957 112.777C33.1246 113.245 34 113.993 34 115V123C34 124.007 33.1246 124.755 32.0957 125.223C31.0217 125.711 29.5733 126 28 126C26.4267 126 24.9783 125.711 23.9043 125.223C22.8754 124.755 22 124.007 22 123V115C22 113.993 22.8754 113.245 23.9043 112.777C24.9783 112.289 26.4267 112 28 112ZM33 116.697C32.7289 116.9 32.42 117.075 32.0957 117.223C31.0217 117.711 29.5733 118 28 118C26.4267 118 24.9783 117.711 23.9043 117.223C23.58 117.075 23.2711 116.9 23 116.697V123C23 123.374 23.3559 123.875 24.3174 124.312C25.234 124.729 26.5358 125 28 125C29.4642 125 30.766 124.729 31.6826 124.312C32.6441 123.875 33 123.374 33 123V116.697ZM28 113C26.5358 113 25.234 113.271 24.3174 113.688C23.3559 114.125 23 114.626 23 115C23 115.374 23.3559 115.875 24.3174 116.312C25.234 116.729 26.5358 117 28 117C29.4642 117 30.766 116.729 31.6826 116.312C32.6441 115.875 33 115.374 33 115C33 114.626 32.6441 114.125 31.6826 113.688C30.766 113.271 29.4642 113 28 113Z" fill="currentColor"/>
</svg>
