<svg xmlns="http://www.w3.org/2000/svg" width="16" height="16" viewBox="21.0 112.0 15.0 15.0" fill="none">
  <path d="M27.5 113C28.193 113 28.7634 112.999 29.2129 113.06C29.6766 113.122 30.0861 113.258 30.4141 113.586C30.742 113.914 30.878 114.323 30.9404 114.787C31.0009 115.237 31 115.807 31 116.5V117.027C33.2499 117.276 35 119.183 35 121.499C35 123.984 32.9853 125.999 30.5 125.999C28.1841 125.999 26.2775 124.249 26.0283 122H25.5C24.807 122 24.2366 122.001 23.7871 121.94C23.3234 121.878 22.9139 121.742 22.5859 121.414C22.258 121.086 22.122 120.677 22.0596 120.213C21.9991 119.763 22 119.193 22 118.5V116.5C22 115.807 21.9991 115.237 22.0596 114.787C22.122 114.323 22.258 113.914 22.5859 113.586C22.9139 113.258 23.3234 113.122 23.7871 113.06C24.2366 112.999 24.807 113 25.5 113H27.5ZM30.5 117.999C28.567 117.999 27 119.566 27 121.499C27 123.432 28.567 124.999 30.5 124.999C32.433 124.999 34 123.432 34 121.499C34 119.566 32.433 117.999 30.5 117.999ZM25.5 114C24.7789 114 24.2883 114.001 23.9209 114.051C23.5679 114.098 23.4043 114.182 23.293 114.293C23.1817 114.404 23.0982 114.568 23.0508 114.921C23.0014 115.288 23 115.779 23 116.5V118.5C23 119.221 23.0014 119.712 23.0508 120.079C23.0982 120.432 23.1817 120.596 23.293 120.707C23.4043 120.818 23.5679 120.902 23.9209 120.949C24.2883 120.999 24.7789 121 25.5 121H26.0283C26.2585 118.914 27.9139 117.258 30 117.027V116.5C30 115.779 29.9986 115.288 29.9492 114.921C29.9018 114.568 29.8183 114.404 29.707 114.293C29.5957 114.182 29.4321 114.098 29.0791 114.051C28.7117 114.001 28.2212 114 27.5 114H25.5Z" fill="currentColor"/>
</svg>
