<svg xmlns="http://www.w3.org/2000/svg" width="16" height="16" viewBox="19.0 110.42 17.0 17.0" fill="none">
  <path d="M23.5 111.923C24.391 111.923 25.2226 112.107 25.8496 112.429C26.4502 112.737 27 113.252 27 113.962V116.944C27.1639 116.931 27.3308 116.923 27.5 116.923C27.6692 116.923 27.8361 116.931 28 116.944V114.077C28.0002 113.368 28.5499 112.853 29.1504 112.545C29.7774 112.223 30.609 112.039 31.5 112.039C32.391 112.039 33.2226 112.223 33.8496 112.545C34.4501 112.853 34.9998 113.368 35 114.077V119.001C34.9998 119.71 34.4501 120.225 33.8496 120.533C33.2226 120.855 32.391 121.039 31.5 121.039C31.3308 121.039 31.1639 121.032 31 121.019V123.885C30.9998 124.594 30.4501 125.109 29.8496 125.417C29.2226 125.739 28.391 125.923 27.5 125.923C26.609 125.923 25.7774 125.739 25.1504 125.417C24.5499 125.109 24.0002 124.594 24 123.885V120.902C23.8361 120.916 23.6692 120.923 23.5 120.923C22.609 120.923 21.7774 120.739 21.1504 120.417C20.5499 120.109 20.0001 119.594 20 118.885V113.962C20 113.252 20.5498 112.737 21.1504 112.429C21.7774 112.107 22.609 111.923 23.5 111.923ZM29.8496 120.494C29.2226 120.816 28.391 121 27.5 121C26.609 121 25.7774 120.816 25.1504 120.494C25.0994 120.468 25.05 120.438 25 120.409V123.885C25.0002 124.025 25.122 124.279 25.6064 124.527C26.0652 124.763 26.7341 124.923 27.5 124.923C28.2659 124.923 28.9348 124.763 29.3936 124.527C29.878 124.279 29.9998 124.025 30 123.885V120.409C29.95 120.438 29.9006 120.468 29.8496 120.494ZM33.8496 115.61C33.2226 115.932 32.391 116.116 31.5 116.116C30.609 116.116 29.7774 115.932 29.1504 115.61C29.0994 115.584 29.05 115.555 29 115.525V117.11C29.3101 117.192 29.5966 117.299 29.8496 117.429C30.4501 117.737 30.9998 118.252 31 118.961V120.014C31.1609 120.029 31.3279 120.039 31.5 120.039C32.2659 120.039 32.9348 119.879 33.3936 119.644C33.878 119.395 33.9998 119.141 34 119.001V115.525C33.95 115.555 33.9006 115.584 33.8496 115.61ZM27.5 117.923C26.7341 117.923 26.0652 118.083 25.6064 118.318C25.122 118.567 25.0002 118.821 25 118.961C25 119.101 25.1215 119.356 25.6064 119.604C26.0652 119.84 26.7341 120 27.5 120C28.2659 120 28.9348 119.84 29.3936 119.604C29.8785 119.356 30 119.101 30 118.961C29.9998 118.821 29.878 118.567 29.3936 118.318C28.9348 118.083 28.2659 117.923 27.5 117.923ZM25.8496 115.494C25.2226 115.816 24.391 116 23.5 116C22.609 116 21.7774 115.816 21.1504 115.494C21.0994 115.468 21.05 115.438 21 115.409V118.885C21.0001 119.025 21.1218 119.279 21.6064 119.527C22.0652 119.763 22.7341 119.923 23.5 119.923C23.6721 119.923 23.8391 119.913 24 119.897V118.961C24.0002 118.252 24.5499 117.737 25.1504 117.429C25.4034 117.299 25.6899 117.192 26 117.11V115.409C25.95 115.438 25.9006 115.468 25.8496 115.494ZM31.5 113.039C30.7341 113.039 30.0652 113.199 29.6064 113.435C29.122 113.683 29.0002 113.937 29 114.077C29 114.217 29.1215 114.472 29.6064 114.721C30.0652 114.956 30.7341 115.116 31.5 115.116C32.2659 115.116 32.9348 114.956 33.3936 114.721C33.8785 114.472 34 114.217 34 114.077C33.9998 113.937 33.878 113.683 33.3936 113.435C32.9348 113.199 32.2659 113.039 31.5 113.039ZM23.5 112.923C22.7341 112.923 22.0652 113.083 21.6064 113.318C21.1215 113.567 21 113.822 21 113.962C21.0002 114.102 21.122 114.356 21.6064 114.604C22.0652 114.84 22.7341 115 23.5 115C24.2659 115 24.9348 114.84 25.3936 114.604C25.878 114.356 25.9998 114.102 26 113.962C26 113.822 25.8785 113.567 25.3936 113.318C24.9348 113.083 24.2659 112.923 23.5 112.923Z" fill="currentColor"/>
</svg>
