<svg xmlns="http://www.w3.org/2000/svg" width="16" height="16" viewBox="20.0 111.0 16.0 16.0" fill="none">
  <path d="M32.5 112C33.8807 112 35 113.119 35 114.5C35 115.881 33.8807 117 32.5 117C31.701 117 30.9918 116.623 30.5342 116.04L25.9121 118.352C25.9676 118.559 26 118.775 26 119C26 119.224 25.9673 119.44 25.9121 119.646L30.5342 121.958C30.9919 121.375 31.7016 121 32.5 121C33.8807 121 35 122.119 35 123.5C35 124.881 33.8807 126 32.5 126C31.1193 126 30 124.881 30 123.5C30 123.276 30.0316 123.059 30.0869 122.853L25.4648 120.541C25.0071 121.124 24.2985 121.5 23.5 121.5C22.1193 121.5 21 120.381 21 119C21 117.619 22.1193 116.5 23.5 116.5C24.2977 116.5 25.0061 116.875 25.4639 117.457L30.0869 115.146C30.0319 114.939 30 114.723 30 114.5C30 113.119 31.1193 112 32.5 112ZM32.5 122C31.6716 122 31 122.672 31 123.5C31 124.328 31.6716 125 32.5 125C33.3284 125 34 124.328 34 123.5C34 122.672 33.3284 122 32.5 122ZM23.5 117.5C22.6716 117.5 22 118.172 22 119C22 119.828 22.6716 120.5 23.5 120.5C24.3284 120.5 25 119.828 25 119C25 118.172 24.3284 117.5 23.5 117.5ZM32.5 113C31.6716 113 31 113.672 31 114.5C31 115.328 31.6716 116 32.5 116C33.3284 116 34 115.328 34 114.5C34 113.672 33.3284 113 32.5 113Z" fill="currentColor"/>
</svg>
