<svg xmlns="http://www.w3.org/2000/svg" width="16" height="16" viewBox="21.0 110.95 15.05 15.05" fill="none">
  <path d="M28.5 113C28.7761 113 29 113.224 29 113.5C29 113.776 28.7761 114 28.5 114H26.5C25.5431 114 24.8756 114.001 24.3721 114.068C23.8829 114.134 23.624 114.255 23.4395 114.439C23.255 114.624 23.1341 114.883 23.0684 115.372C23.0007 115.876 23 116.543 23 117.5V120.5C23 121.457 23.0007 122.124 23.0684 122.628C23.1341 123.117 23.2549 123.376 23.4395 123.561C23.624 123.745 23.8829 123.866 24.3721 123.932C24.8756 123.999 25.5431 124 26.5 124H29.5C30.4569 124 31.1244 123.999 31.6279 123.932C32.1171 123.866 32.376 123.745 32.5605 123.561C32.7451 123.376 32.8659 123.117 32.9316 122.628C32.9655 122.376 32.9826 122.084 32.9912 121.734L33 120.5C33 120.224 33.2239 120 33.5 120C33.7761 120 34 120.224 34 120.5L33.999 121.162C33.9955 121.791 33.9809 122.321 33.9219 122.761C33.8412 123.361 33.6688 123.866 33.2676 124.268C32.8663 124.669 32.3608 124.841 31.7607 124.922C31.1751 125.001 30.4285 125 29.5 125H26.5C25.5715 125 24.8249 125.001 24.2393 124.922C23.6392 124.841 23.1337 124.669 22.7324 124.268C22.3312 123.866 22.1588 123.361 22.0781 122.761C21.9994 122.175 22 121.428 22 120.5V117.5C22 116.571 21.9994 115.825 22.0781 115.239C22.1588 114.639 22.3312 114.134 22.7324 113.732C23.1337 113.331 23.6392 113.159 24.2393 113.078C24.8249 112.999 25.5715 113 26.5 113H28.5Z" fill="currentColor"/>
  <path d="M31.1465 112.146C31.3417 111.951 31.6583 111.951 31.8535 112.146L34.8535 115.146C35.0487 115.342 35.0488 115.658 34.8535 115.853L31.8535 118.853C31.6583 119.049 31.3417 119.049 31.1465 118.853C30.9512 118.658 30.9513 118.342 31.1465 118.146L33.293 116H32.5C31.3074 116 30.463 116.001 29.8232 116.087C29.198 116.171 28.8436 116.328 28.5859 116.586C28.3282 116.844 28.171 117.198 28.0869 117.823C28.0009 118.463 28 119.307 28 120.5V121C28 121.276 27.7761 121.5 27.5 121.5C27.2239 121.5 27 121.276 27 121V120.5C27 119.336 26.9987 118.412 27.0957 117.69C27.1947 116.954 27.4044 116.353 27.8789 115.879C28.3534 115.404 28.9542 115.195 29.6904 115.096C30.4122 114.999 31.3358 115 32.5 115H33.293L31.1465 112.853C30.9512 112.658 30.9513 112.342 31.1465 112.146Z" fill="currentColor"/>
</svg>
