<svg xmlns="http://www.w3.org/2000/svg" width="16" height="16" viewBox="20.48 110.95 16.05 16.05" fill="none">
  <path d="M30.5 117C31.193 117 31.7634 116.999 32.2129 117.06C32.6766 117.122 33.0861 117.258 33.4141 117.586C33.742 117.914 33.878 118.324 33.9404 118.787C34.0009 119.237 34 119.807 34 120.5V122.5C34 123.193 34.0008 123.764 33.9404 124.213C33.878 124.677 33.742 125.086 33.4141 125.414C33.0861 125.742 32.6766 125.878 32.2129 125.941C31.7634 126.001 31.193 126 30.5 126H26.5C25.807 126 25.2366 126.001 24.7871 125.941C24.3234 125.878 23.9139 125.742 23.5859 125.414C23.258 125.086 23.122 124.677 23.0596 124.213C22.9992 123.764 23 123.193 23 122.5V120.5C23 119.807 22.9991 119.237 23.0596 118.787C23.122 118.324 23.258 117.914 23.5859 117.586C23.9139 117.258 24.3234 117.122 24.7871 117.06C25.2366 116.999 25.807 117 26.5 117C26.7761 117 26.9999 117.224 27 117.5C27 117.776 26.7761 118 26.5 118C25.7789 118 25.2883 118.002 24.9209 118.051C24.568 118.098 24.4043 118.182 24.293 118.293C24.1817 118.404 24.0982 118.568 24.0508 118.921C24.0014 119.288 24 119.779 24 120.5V122.5C24 123.221 24.0014 123.712 24.0508 124.079C24.0982 124.432 24.1817 124.596 24.293 124.707C24.4043 124.818 24.5679 124.902 24.9209 124.949C25.2883 124.999 25.7788 125 26.5 125H30.5C31.2212 125 31.7117 124.999 32.0791 124.949C32.4321 124.902 32.5957 124.818 32.707 124.707C32.8183 124.596 32.9018 124.432 32.9492 124.079C32.9986 123.712 33 123.221 33 122.5V120.5C33 119.779 32.9986 119.288 32.9492 118.921C32.9018 118.568 32.8183 118.404 32.707 118.293C32.5957 118.182 32.432 118.098 32.0791 118.051C31.7117 118.002 31.2211 118 30.5 118C30.2239 118 30 117.776 30 117.5C30.0001 117.224 30.2239 117 30.5 117Z" fill="currentColor"/>
  <path d="M28.2246 112.082C28.4186 111.954 28.6827 111.976 28.8535 112.147L31.8535 115.147C32.0487 115.342 32.0487 115.658 31.8535 115.854C31.6583 116.049 31.3417 116.049 31.1465 115.854L29 113.707V120.5C29 120.776 28.7761 121 28.5 121C28.2239 121 28 120.776 28 120.5V113.707L25.8535 115.854C25.6583 116.049 25.3417 116.049 25.1465 115.854C24.9513 115.658 24.9513 115.342 25.1465 115.147L28.1465 112.147L28.2246 112.082Z" fill="currentColor"/>
</svg>
