<svg xmlns="http://www.w3.org/2000/svg" width="16" height="16" viewBox="20.0 111.11 17.0 17.0" fill="none">
  <path d="M33.1465 121.146C33.3417 120.951 33.6583 120.951 33.8535 121.146C34.0485 121.342 34.0486 121.658 33.8535 121.854L31.3535 124.354C31.1583 124.549 30.8418 124.549 30.6465 124.354L29.1465 122.854C28.9514 122.658 28.9513 122.342 29.1465 122.146C29.3417 121.951 29.6583 121.951 29.8535 122.146L31 123.293L33.1465 121.146Z" fill="currentColor"/>
  <path d="M31.5 118C33.9853 118 36 120.015 36 122.5C36 124.985 33.9853 127 31.5 127C29.0147 127 27 124.985 27 122.5C27 120.015 29.0147 118 31.5 118ZM31.5 119C29.567 119 28 120.567 28 122.5C28 124.433 29.567 126 31.5 126C33.433 126 35 124.433 35 122.5C35 120.567 33.433 119 31.5 119Z" fill="currentColor"/>
  <path d="M27 112.23C27.2219 112.23 27.4485 112.311 27.6592 112.398C27.8819 112.491 28.1646 112.627 28.5156 112.796C29.1151 113.085 29.9254 113.413 30.9258 113.675C31.343 113.784 31.6933 113.875 31.9629 113.976C32.235 114.077 32.4987 114.214 32.6875 114.458C32.8713 114.696 32.9398 114.968 32.9707 115.245C33.0005 115.513 33 115.846 33 116.234V117.208C32.6777 117.117 32.3435 117.054 32 117.023V116.234C32 115.823 31.9988 115.555 31.9766 115.355C31.9553 115.165 31.9202 115.101 31.8955 115.069C31.8757 115.044 31.8205 114.99 31.6133 114.912C31.4029 114.833 31.1112 114.756 30.6729 114.642C29.6028 114.362 28.7315 114.011 28.0811 113.697C27.719 113.523 27.4664 113.401 27.2754 113.321C27.1816 113.282 27.1141 113.258 27.0645 113.244C27.0142 113.23 26.9964 113.23 27 113.23C27.0037 113.23 26.9858 113.23 26.9355 113.244C26.8859 113.258 26.8184 113.282 26.7246 113.321C26.5336 113.401 26.281 113.523 25.9189 113.697C25.2685 114.011 24.3972 114.362 23.3271 114.642C22.8888 114.756 22.5971 114.833 22.3867 114.912C22.1795 114.99 22.1243 115.044 22.1045 115.069C22.0798 115.101 22.0447 115.165 22.0234 115.355C22.0012 115.555 22 115.823 22 116.234V120C22 121.413 22.7815 122.494 23.791 123.309C24.7328 124.068 25.8264 124.552 26.5068 124.807C26.6951 125.213 26.9316 125.593 27.209 125.938C27.1438 125.948 27.075 125.955 27 125.955C26.7267 125.955 26.5324 125.881 26.3135 125.803C25.6057 125.55 24.3002 125.004 23.1631 124.087C22.0241 123.168 21 121.829 21 120V116.234C21 115.846 20.9995 115.513 21.0293 115.245C21.0602 114.968 21.1287 114.696 21.3125 114.458C21.5013 114.214 21.765 114.077 22.0371 113.976C22.3067 113.875 22.657 113.784 23.0742 113.675C24.0746 113.413 24.8849 113.085 25.4844 112.796C25.8354 112.627 26.1181 112.491 26.3408 112.398C26.5515 112.311 26.7781 112.23 27 112.23Z" fill="currentColor"/>
</svg>
