<svg xmlns="http://www.w3.org/2000/svg" width="16" height="16" viewBox="20.14 111.23 15.72 15.72" fill="none">
  <path d="M29.6465 116.646C29.8417 116.451 30.1583 116.451 30.3535 116.646C30.5488 116.842 30.5488 117.158 30.3535 117.354L28.707 119L30.3535 120.646C30.5488 120.842 30.5488 121.158 30.3535 121.354C30.1583 121.549 29.8417 121.549 29.6465 121.354L28 119.707L26.3535 121.354C26.1583 121.549 25.8417 121.549 25.6465 121.354C25.4512 121.158 25.4512 120.842 25.6465 120.646L27.293 119L25.6465 117.354C25.4512 117.158 25.4512 116.842 25.6465 116.646C25.8417 116.451 26.1583 116.451 26.3535 116.646L28 118.293L29.6465 116.646Z" fill="currentColor"/>
  <path d="M28 112.23C28.2219 112.23 28.4485 112.311 28.6592 112.398C28.8819 112.491 29.1646 112.627 29.5156 112.796C30.1151 113.085 30.9254 113.413 31.9258 113.675C32.343 113.784 32.6933 113.875 32.9629 113.976C33.235 114.077 33.4987 114.214 33.6875 114.458C33.8713 114.696 33.9398 114.968 33.9707 115.245C34.0005 115.513 34 115.846 34 116.234V120C34 121.829 32.9759 123.168 31.8369 124.087C30.6998 125.004 29.3943 125.55 28.6865 125.803C28.4676 125.881 28.2733 125.955 28 125.955C27.7267 125.955 27.5324 125.881 27.3135 125.803C26.6057 125.55 25.3002 125.004 24.1631 124.087C23.0241 123.168 22 121.829 22 120V116.234C22 115.846 21.9995 115.513 22.0293 115.245C22.0602 114.968 22.1287 114.696 22.3125 114.458C22.5013 114.214 22.765 114.077 23.0371 113.976C23.3067 113.875 23.657 113.784 24.0742 113.675C25.0746 113.413 25.8849 113.085 26.4844 112.796C26.8354 112.627 27.1181 112.491 27.3408 112.398C27.5515 112.311 27.7781 112.23 28 112.23ZM27.9355 113.244C27.8859 113.258 27.8184 113.282 27.7246 113.321C27.5336 113.401 27.281 113.523 26.9189 113.697C26.2685 114.011 25.3972 114.362 24.3271 114.642C23.8888 114.756 23.5971 114.833 23.3867 114.912C23.1795 114.99 23.1243 115.044 23.1045 115.069C23.0798 115.101 23.0447 115.165 23.0234 115.355C23.0012 115.555 23 115.823 23 116.234V120C23 121.413 23.7815 122.494 24.791 123.309C25.8025 124.124 26.9885 124.624 27.6504 124.86C27.8908 124.946 27.9263 124.955 28 124.955C28.0737 124.955 28.1092 124.946 28.3496 124.86C29.0115 124.624 30.1975 124.124 31.209 123.309C32.2185 122.494 33 121.413 33 120V116.234C33 115.823 32.9988 115.555 32.9766 115.355C32.9553 115.165 32.9202 115.101 32.8955 115.069C32.8757 115.044 32.8205 114.99 32.6133 114.912C32.4029 114.833 32.1112 114.756 31.6729 114.642C30.6028 114.362 29.7315 114.011 29.0811 113.697C28.719 113.523 28.4664 113.401 28.2754 113.321C28.1816 113.282 28.1141 113.258 28.0645 113.244C28.0142 113.23 27.9964 113.23 28 113.23C28.0037 113.23 27.9858 113.23 27.9355 113.244Z" fill="currentColor"/>
</svg>
