<svg xmlns="http://www.w3.org/2000/svg" width="16" height="16" viewBox="20.0 110.5 16.0 16.0" fill="none">
  <path d="M24.5 116C24.7761 116 25 116.224 25 116.5V121.5C25 121.776 24.7761 122 24.5 122C24.2239 122 24 121.776 24 121.5V116.5C24 116.224 24.2239 116 24.5 116Z" fill="currentColor"/>
  <path d="M26.5 116C26.7761 116 27 116.224 27 116.5V121.5C27 121.776 26.7761 122 26.5 122C26.2239 122 26 121.776 26 121.5V116.5C26 116.224 26.2239 116 26.5 116Z" fill="currentColor"/>
  <path d="M29.5 116C29.7761 116 30 116.224 30 116.5V121.5C30 121.776 29.7761 122 29.5 122C29.2239 122 29 121.776 29 121.5V116.5C29 116.224 29.2239 116 29.5 116Z" fill="currentColor"/>
  <path d="M31.5 116C31.7761 116 32 116.224 32 116.5V121.5C32 121.776 31.7761 122 31.5 122C31.2239 122 31 121.776 31 121.5V116.5C31 116.224 31.2239 116 31.5 116Z" fill="currentColor"/>
  <path d="M32.5 113C32.7761 113 33 113.224 33 113.5V114.117C33.4961 114.211 33.9208 114.386 34.2676 114.732C34.6689 115.134 34.8412 115.639 34.9219 116.239C35.0006 116.825 35 117.572 35 118.5V119.5C35 120.428 35.0006 121.175 34.9219 121.761C34.8412 122.361 34.6689 122.866 34.2676 123.268C33.8663 123.669 33.3608 123.841 32.7607 123.922C32.1751 124.001 31.4285 124 30.5 124H25.5C24.5715 124 23.8249 124.001 23.2393 123.922C22.6392 123.841 22.1337 123.669 21.7324 123.268C21.3311 122.866 21.1588 122.361 21.0781 121.761C20.9994 121.175 21 120.428 21 119.5V118.5C21 117.572 20.9994 116.825 21.0781 116.239C21.1588 115.639 21.3311 115.134 21.7324 114.732C22.0792 114.386 22.5039 114.211 23 114.117V113.5C23 113.224 23.2239 113 23.5 113C23.7761 113 24 113.224 24 113.5V114.02C24.4356 114.002 24.934 114 25.5 114H30.5C31.066 114 31.5644 114.002 32 114.02V113.5C32 113.224 32.2239 113 32.5 113ZM25.5 115C24.5431 115 23.8756 115.001 23.3721 115.068C22.8829 115.134 22.624 115.255 22.4395 115.439C22.2549 115.624 22.1341 115.883 22.0684 116.372C22.0007 116.876 22 117.543 22 118.5V119.5C22 120.457 22.0007 121.124 22.0684 121.628C22.1341 122.117 22.2549 122.376 22.4395 122.561C22.624 122.745 22.8829 122.866 23.3721 122.932C23.8756 122.999 24.5431 123 25.5 123H30.5C31.4569 123 32.1244 122.999 32.6279 122.932C33.1171 122.866 33.376 122.745 33.5605 122.561C33.7451 122.376 33.8659 122.117 33.9316 121.628C33.9993 121.124 34 120.457 34 119.5V118.5C34 117.543 33.9993 116.876 33.9316 116.372C33.8659 115.883 33.7451 115.624 33.5605 115.439C33.376 115.255 33.1171 115.134 32.6279 115.068C32.1244 115.001 31.4569 115 30.5 115H25.5Z" fill="currentColor"/>
</svg>
