<svg xmlns="http://www.w3.org/2000/svg" width="16" height="16" viewBox="20.0 110.89 15.21 15.21" fill="none">
  <path d="M27 123C27.5523 123 28 123.448 28 124C28 124.552 27.5523 125 27 125C26.4477 125 26 124.552 26 124C26 123.448 26.4477 123 27 123Z" fill="currentColor"/>
  <path d="M31 123C31.5523 123 32 123.448 32 124C32 124.552 31.5523 125 31 125C30.4477 125 30 124.552 30 124C30 123.448 30.4477 123 31 123Z" fill="currentColor"/>
  <path d="M22.6973 112C23.4003 112 24.0096 112.489 24.1621 113.175L24.3457 114H25V113.5C25 113.224 25.2239 113 25.5 113H28.5C28.7761 113 29 113.224 29 113.5V114H30V112.5C30 112.224 30.2239 112 30.5 112H31.5C31.7761 112 32 112.224 32 112.5V114H32.4961C33.4892 114 34.2081 114.948 33.9404 115.904L33.1006 118.904C32.9193 119.552 32.3289 120 31.6562 120H25.6787L25.7266 120.217C25.8282 120.674 26.2345 121 26.7031 121H32.5645C32.8404 121 33.0645 121.224 33.0645 121.5C33.0645 121.776 32.8404 122 32.5645 122H26.7031C25.7658 122 24.9543 121.349 24.751 120.434L23.1855 113.392C23.1347 113.163 22.9316 113 22.6973 113H21.4961C21.22 113 20.9961 112.776 20.9961 112.5C20.9961 112.224 21.22 112 21.4961 112H22.6973ZM25.4561 119.001C25.4595 119.001 25.4634 119 25.4668 119H31.6562C31.8804 119 32.0772 118.851 32.1377 118.635L32.9775 115.635C33.0667 115.316 32.827 115 32.4961 115H24.5674L25.4561 119.001Z" fill="currentColor"/>
</svg>
