<svg xmlns="http://www.w3.org/2000/svg" width="16" height="16" viewBox="19.95 110.95 16.1 16.1" fill="none">
  <path d="M22.6973 112C23.4003 112 24.0096 112.489 24.1621 113.175L24.3457 114H32.293L34.1465 112.146C34.3417 111.951 34.6583 111.951 34.8535 112.146C35.0488 112.342 35.0488 112.658 34.8535 112.854L21.8535 125.854C21.6583 126.049 21.3417 126.049 21.1465 125.854C20.9512 125.658 20.9512 125.342 21.1465 125.146L25.0986 121.193C24.9342 120.973 24.8137 120.716 24.751 120.434L23.1855 113.392C23.1347 113.163 22.9316 113 22.6973 113H21.4961C21.22 113 20.9961 112.776 20.9961 112.5C20.9961 112.224 21.22 112 21.4961 112H22.6973ZM25.6787 120L25.7266 120.217C25.7467 120.307 25.7789 120.392 25.8213 120.471L26.293 120H25.6787ZM24.5674 115L25.4561 119.001C25.4595 119.001 25.4634 119 25.4668 119H27.293L31.293 115H24.5674Z" fill="currentColor"/>
  <path d="M27 123C27.5523 123 28 123.448 28 124C28 124.552 27.5523 125 27 125C26.4477 125 26 124.552 26 124C26 123.448 26.4477 123 27 123Z" fill="currentColor"/>
  <path d="M31 123C31.5523 123 32 123.448 32 124C32 124.552 31.5523 125 31 125C30.4477 125 30 124.552 30 124C30 123.448 30.4477 123 31 123Z" fill="currentColor"/>
  <path d="M32.5645 121C32.8404 121 33.0645 121.224 33.0645 121.5C33.0645 121.776 32.8404 122 32.5645 122H27.4746L28.4746 121H32.5645Z" fill="currentColor"/>
  <path d="M33.9941 115.479C33.9958 115.619 33.9804 115.761 33.9404 115.904L33.1006 118.904C32.9193 119.552 32.3289 120 31.6562 120H29.4746L30.4746 119H31.6562C31.8804 119 32.0772 118.851 32.1377 118.635L32.6416 116.832L33.9941 115.479Z" fill="currentColor"/>
</svg>
