<svg xmlns="http://www.w3.org/2000/svg" width="16" height="16" viewBox="19.79 110.42 16.41 16.41" fill="none">
  <path d="M27.9997 120.75C28.69 120.75 29.2497 121.31 29.2497 122C29.2497 122.69 28.69 123.25 27.9997 123.25C27.3094 123.25 26.7497 122.69 26.7497 122C26.7497 121.31 27.3094 120.75 27.9997 120.75Z" fill="currentColor"/>
  <path d="M28.0007 118C29.813 118 31.3431 119.206 31.8346 120.857C31.9132 121.122 31.7621 121.401 31.4977 121.479C31.2332 121.558 30.9544 121.407 30.8757 121.143C30.5068 119.903 29.3585 119 28.0007 119C26.6425 119 25.4937 119.903 25.1247 121.143C25.046 121.407 24.7671 121.558 24.5026 121.479C24.238 121.401 24.087 121.122 24.1657 120.857C24.6574 119.206 26.1879 118 28.0007 118Z" fill="currentColor"/>
  <path d="M27.9997 116C30.332 116 32.3529 117.331 33.3454 119.272C33.4709 119.518 33.3734 119.82 33.1276 119.945C32.8818 120.071 32.5804 119.973 32.4548 119.728C31.6265 118.107 29.9419 117 27.9997 117C26.0575 117 24.3728 118.107 23.5446 119.728C23.4189 119.973 23.1176 120.071 22.8717 119.945C22.6261 119.82 22.5285 119.518 22.654 119.272C23.6464 117.331 25.6674 116 27.9997 116Z" fill="currentColor"/>
  <path d="M27.9997 114C31.0703 114 33.7362 115.73 35.0768 118.267C35.2057 118.511 35.1128 118.813 34.8688 118.942C34.6247 119.071 34.3221 118.978 34.193 118.733C33.0187 116.512 30.6851 115 27.9997 115C25.3144 115 22.9817 116.512 21.8073 118.733C21.6783 118.977 21.3756 119.071 21.1315 118.942C20.8875 118.813 20.7938 118.511 20.9225 118.267C22.2632 115.73 24.9291 114 27.9997 114Z" fill="currentColor"/>
</svg>
