<svg xmlns="http://www.w3.org/2000/svg" width="16" height="16" viewBox="18.0 111.0 16.0 16.0" fill="none">
  <path d="M20.9531 114.153C21.1445 113.954 21.4611 113.948 21.6602 114.14C21.8589 114.331 21.865 114.648 21.6738 114.847C20.6373 115.926 20 117.389 20 119C20 120.611 20.6373 122.074 21.6738 123.153C21.865 123.352 21.8589 123.669 21.6602 123.86C21.4612 124.051 21.1445 124.045 20.9531 123.847C19.7453 122.589 19 120.88 19 119C19 117.119 19.7453 115.41 20.9531 114.153Z" fill="currentColor"/>
  <path d="M30.3398 114.14C30.5389 113.948 30.8555 113.954 31.0469 114.153C32.2547 115.41 33 117.119 33 119C33 120.88 32.2547 122.589 31.0469 123.847C30.8555 124.045 30.5388 124.051 30.3398 123.86C30.1411 123.669 30.135 123.352 30.3262 123.153C31.3627 122.074 32 120.611 32 119C32 117.389 31.3627 115.926 30.3262 114.847C30.135 114.648 30.1411 114.331 30.3398 114.14Z" fill="currentColor"/>
  <path d="M22.2764 115.666C22.4607 115.461 22.7769 115.444 22.9824 115.628C23.1876 115.812 23.2047 116.128 23.0205 116.334C22.3858 117.042 22 117.976 22 119C22 120.024 22.3858 120.957 23.0205 121.666C23.2046 121.871 23.1877 122.188 22.9824 122.372C22.7769 122.556 22.4607 122.539 22.2764 122.334C21.4841 121.45 21 120.28 21 119C21 117.72 21.4841 116.55 22.2764 115.666Z" fill="currentColor"/>
  <path d="M29.0176 115.628C29.2231 115.444 29.5393 115.461 29.7236 115.666C30.5159 116.55 31 117.72 31 119C31 120.28 30.5159 121.45 29.7236 122.334C29.5393 122.539 29.2231 122.556 29.0176 122.372C28.8123 122.188 28.7954 121.871 28.9795 121.666C29.6142 120.957 30 120.024 30 119C30 117.976 29.6142 117.042 28.9795 116.334C28.7953 116.128 28.8124 115.812 29.0176 115.628Z" fill="currentColor"/>
  <path d="M26 117C27.1023 117 28 117.895 28 119C27.9999 120.104 27.1023 121 26 121C24.8977 121 24.0001 120.104 24 119C24 117.895 24.8977 117 26 117ZM26 118C25.4493 118 25 118.448 25 119C25.0001 119.551 25.4494 120 26 120C26.5506 120 26.9999 119.551 27 119C27 118.448 26.5507 118 26 118Z" fill="currentColor"/>
</svg>
