<svg xmlns="http://www.w3.org/2000/svg" width="16" height="16" viewBox="21.0 111.0 15.0 15.0" fill="none">
  <path d="M27.5 116C28.193 116 28.7634 115.999 29.2129 116.06C29.6767 116.122 30.0861 116.258 30.4141 116.586C30.742 116.914 30.878 117.323 30.9404 117.787C31.0009 118.237 31 118.807 31 119.5V121.5C31 122.193 31.0009 122.763 30.9404 123.213C30.878 123.677 30.742 124.086 30.4141 124.414C30.0861 124.742 29.6767 124.878 29.2129 124.94C28.7634 125.001 28.193 125 27.5 125H25.5C24.807 125 24.2366 125.001 23.7871 124.94C23.3234 124.878 22.9139 124.742 22.5859 124.414C22.258 124.086 22.122 123.677 22.0596 123.213C21.9991 122.763 22 122.193 22 121.5V119.5C22 118.807 21.9991 118.237 22.0596 117.787C22.122 117.323 22.258 116.914 22.5859 116.586C22.9139 116.258 23.3234 116.122 23.7871 116.06C24.2366 115.999 24.807 116 25.5 116H27.5ZM25.5 117C24.7788 117 24.2883 117.001 23.9209 117.051C23.5679 117.098 23.4043 117.182 23.293 117.293C23.1817 117.404 23.0982 117.568 23.0508 117.921C23.0014 118.288 23 118.779 23 119.5V121.5C23 122.221 23.0014 122.712 23.0508 123.079C23.0982 123.432 23.1817 123.596 23.293 123.707C23.4043 123.818 23.5679 123.902 23.9209 123.949C24.2883 123.999 24.7788 124 25.5 124H27.5C28.2212 124 28.7117 123.999 29.0791 123.949C29.4321 123.902 29.5957 123.818 29.707 123.707C29.8183 123.596 29.9018 123.432 29.9492 123.079C29.9986 122.712 30 122.221 30 121.5V119.5C30 118.779 29.9986 118.288 29.9492 117.921C29.9018 117.568 29.8183 117.404 29.707 117.293C29.5957 117.182 29.4321 117.098 29.0791 117.051C28.7117 117.001 28.2212 117 27.5 117H25.5Z" fill="currentColor"/>
  <path d="M34.5 116C34.7761 116 35 116.224 35 116.5C35 116.776 34.7761 117 34.5 117H34V124H34.5C34.7761 124 35 124.224 35 124.5C35 124.776 34.7761 125 34.5 125H32.5C32.2239 125 32 124.776 32 124.5C32 124.224 32.2239 124 32.5 124H33V117H32.5C32.2239 117 32 116.776 32 116.5C32 116.224 32.2239 116 32.5 116H34.5Z" fill="currentColor"/>
  <path d="M30.5 112C30.7761 112 31 112.224 31 112.5V114.5C31 114.776 30.7761 115 30.5 115C30.2239 115 30 114.776 30 114.5V114H23V114.5C23 114.776 22.7761 115 22.5 115C22.2239 115 22 114.776 22 114.5V112.5C22 112.224 22.2239 112 22.5 112C22.7761 112 23 112.224 23 112.5V113H30V112.5C30 112.224 30.2239 112 30.5 112Z" fill="currentColor"/>
</svg>
