<svg xmlns="http://www.w3.org/2000/svg" width="16" height="16" viewBox="20.0 111.0 16.0 16.0" fill="none">
  <path d="M26.1535 114.941C25.344 114.941 24.683 114.28 24.683 113.471C24.683 112.661 25.344 112 26.1535 112C26.9625 112 27.6235 112.661 27.6235 113.471V114.941H26.1535Z" fill="currentColor"/>
  <path d="M22.4711 122.317C23.2806 122.317 23.9416 121.656 23.9416 120.847V119.376H22.4711C21.6611 119.376 21.0001 120.038 21.0001 120.847C21.0001 121.656 21.6611 122.317 22.4711 122.317Z" fill="currentColor"/>
  <path d="M26.1533 119.376C25.3438 119.376 24.6828 120.038 24.6828 120.847V124.529C24.6828 125.339 25.3438 126 26.1533 126C26.9628 126 27.6238 125.339 27.6238 124.529V120.847C27.6238 120.038 26.9628 119.376 26.1533 119.376Z" fill="currentColor"/>
  <path d="M27.6235 117.153C27.6235 116.344 26.9625 115.682 26.1535 115.682H22.471C21.6615 115.682 21 116.344 21 117.153C21 117.963 21.6615 118.624 22.471 118.624H26.1535C26.9625 118.624 27.6235 117.963 27.6235 117.153Z" fill="currentColor"/>
  <path d="M32.0588 117.153C32.0588 116.344 32.7198 115.683 33.5293 115.683C34.3393 115.683 35.0003 116.344 35.0003 117.153C35.0003 117.963 34.3393 118.624 33.5293 118.624H32.0588V117.153Z" fill="currentColor"/>
  <path d="M29.8471 118.624C30.6566 118.624 31.3176 117.963 31.3176 117.153V113.471C31.3176 112.661 30.6566 112 29.8471 112C29.0376 112 28.3766 112.661 28.3766 113.471V117.153C28.3766 117.963 29.0376 118.624 29.8471 118.624Z" fill="currentColor"/>
  <path d="M29.8469 123.059C30.6564 123.059 31.3174 123.72 31.3174 124.529C31.3174 125.339 30.6564 126 29.8469 126C29.0379 126 28.3769 125.339 28.3769 124.529V123.059H29.8469Z" fill="currentColor"/>
  <path d="M28.3769 120.847C28.3769 121.656 29.0379 122.318 29.8469 122.318H33.5294C34.3389 122.318 35.0004 121.656 35.0004 120.847C35.0004 120.038 34.3389 119.377 33.5294 119.377H29.8469C29.0379 119.377 28.3769 120.038 28.3769 120.847Z" fill="currentColor"/>
</svg>
