<svg xmlns="http://www.w3.org/2000/svg" width="16" height="16" viewBox="20.0 111.0 16.0 16.0" fill="none">
  <path d="M30.5 120C31.7095 120 32.7186 120.859 32.9502 122H34.5C34.7761 122 35 122.224 35 122.5C35 122.776 34.7761 123 34.5 123H32.9502C32.7186 124.141 31.7095 125 30.5 125C29.2905 125 28.2814 124.141 28.0498 123H21.5C21.2239 123 21 122.776 21 122.5C21 122.224 21.2239 122 21.5 122H28.0498C28.2814 120.859 29.2905 120 30.5 120ZM30.5 121C29.6716 121 29 121.672 29 122.5C29 123.328 29.6716 124 30.5 124C31.3284 124 32 123.328 32 122.5C32 121.672 31.3284 121 30.5 121Z" fill="currentColor"/>
  <path d="M25.5 113C26.7095 113 27.7186 113.859 27.9502 115H34.5C34.7761 115 35 115.224 35 115.5C35 115.776 34.7761 116 34.5 116H27.9502C27.7186 117.141 26.7095 118 25.5 118C24.2905 118 23.2814 117.141 23.0498 116H21.5C21.2239 116 21 115.776 21 115.5C21 115.224 21.2239 115 21.5 115H23.0498C23.2814 113.859 24.2905 113 25.5 113ZM25.5 114C24.6716 114 24 114.672 24 115.5C24 116.328 24.6716 117 25.5 117C26.3284 117 27 116.328 27 115.5C27 114.672 26.3284 114 25.5 114Z" fill="currentColor"/>
</svg>
