<svg xmlns="http://www.w3.org/2000/svg" width="16" height="16" viewBox="20.0 111.0 16.0 16.0" fill="none">
  <path d="M24.5 112C24.7761 112 25 112.224 25 112.5V119.05C26.1411 119.281 27 120.291 27 121.5C27 122.709 26.141 123.718 25 123.949V125.5C25 125.776 24.7761 126 24.5 126C24.2239 126 24 125.776 24 125.5V123.949C22.859 123.718 22 122.709 22 121.5C22 120.291 22.8589 119.281 24 119.05V112.5C24 112.224 24.2239 112 24.5 112ZM24.5 120C23.6716 120 23 120.672 23 121.5C23 122.328 23.6716 123 24.5 123C25.3284 123 26 122.328 26 121.5C26 120.672 25.3284 120 24.5 120Z" fill="currentColor"/>
  <path d="M31.5 112C31.7761 112 32 112.224 32 112.5V114.05C33.1411 114.281 34 115.291 34 116.5C34 117.709 33.141 118.718 32 118.949V125.5C32 125.776 31.7761 126 31.5 126C31.2239 126 31 125.776 31 125.5V118.949C29.859 118.718 29 117.709 29 116.5C29 115.291 29.8589 114.281 31 114.05V112.5C31 112.224 31.2239 112 31.5 112ZM31.5 115C30.6716 115 30 115.672 30 116.5C30 117.328 30.6716 118 31.5 118C32.3284 118 33 117.328 33 116.5C33 115.672 32.3284 115 31.5 115Z" fill="currentColor"/>
</svg>
