<svg xmlns="http://www.w3.org/2000/svg" width="16" height="16" viewBox="20.0 111.0 16.0 16.0" fill="none">
  <path d="M28.5 113C29.8982 113 31.0968 113.822 31.6572 115.004C33.5172 115.086 35 116.62 35 118.5C35 119.398 34.6587 120.214 34.1025 120.832C34.6432 121.19 35 121.803 35 122.5C35 123.482 34.292 124.298 33.3584 124.467C33.0021 124.797 32.5247 125 32 125C31.056 125 30.2667 124.345 30.0566 123.466C29.7112 123.414 29.3855 123.303 29.0898 123.145C28.5511 123.671 27.816 124 27 124C26.0699 124 25.2414 123.575 24.6924 122.913C24.4711 122.967 24.24 123 24 123C22.3431 123 21 121.657 21 120C21 119.071 21.4234 118.242 22.085 117.692C22.0317 117.471 22 117.239 22 117L22.0039 116.846C22.0842 115.261 23.3949 114 25 114C25.3194 114 25.6259 114.052 25.9131 114.145C26.5521 113.443 27.4737 113 28.5 113ZM32 121C31.4477 121 31 121.448 31 122C31 122.118 31.0201 122.229 31.0566 122.333C31.0947 122.441 31.0947 122.559 31.0566 122.667C31.0201 122.771 31 122.882 31 123C31 123.552 31.4477 124 32 124C32.2976 124 32.5641 123.87 32.748 123.663C32.8336 123.567 32.9535 123.507 33.082 123.497C33.5956 123.456 34 123.025 34 122.5C34 121.975 33.5956 121.544 33.082 121.503C32.9535 121.493 32.8336 121.433 32.748 121.337C32.5641 121.13 32.2976 121 32 121ZM28.5 114C27.6677 114 26.9311 114.407 26.4756 115.036C26.3342 115.231 26.0731 115.298 25.8555 115.194C25.5941 115.07 25.305 115 25 115C23.8954 115 23 115.895 23 117C23 117.248 23.048 117.487 23.1328 117.71C23.2172 117.932 23.1333 118.183 22.9326 118.311C22.3711 118.666 22 119.29 22 120C22 121.105 22.8954 122 24 122L24.1836 121.991C24.3656 121.974 24.5418 121.93 24.71 121.866L24.7939 121.843C24.9927 121.805 25.1993 121.891 25.3105 122.066C25.6663 122.628 26.2895 123 27 123C27.6532 123 28.232 122.685 28.5986 122.195C28.6783 122.089 28.7972 122.019 28.9287 122C29.0602 121.981 29.1937 122.016 29.2998 122.096C29.5208 122.262 29.7756 122.383 30.0518 122.447C30.0185 122.303 30 122.153 30 122C30 120.895 30.8954 120 32 120C32.4304 120 32.8281 120.138 33.1543 120.369C33.6727 119.911 34 119.245 34 118.5C34 117.119 32.8807 116 31.5 116C31.4514 116 31.4032 116.001 31.3555 116.004C31.1332 116.017 30.9294 115.881 30.8555 115.671C30.5126 114.697 29.5879 114 28.5 114Z" fill="currentColor"/>
</svg>
