<svg xmlns="http://www.w3.org/2000/svg" width="16" height="16" viewBox="19.95 111.5 16.05 16.05" fill="none">
  <path d="M23.5 114C23.7761 114 24 114.224 24 114.5V123.293L25.1464 122.146C25.3417 121.951 25.6582 121.951 25.8535 122.146C26.0487 122.342 26.0487 122.658 25.8535 122.854L23.8535 124.854C23.6826 125.024 23.4186 125.046 23.2246 124.918L23.1464 124.854L21.1464 122.854C20.9512 122.658 20.9512 122.342 21.1464 122.146C21.3417 121.951 21.6582 121.951 21.8535 122.146L23 123.293V114.5C23 114.224 23.2238 114 23.5 114Z" fill="currentColor"/>
  <path d="M30.5 123C30.7761 123 31 123.224 31 123.5C31 123.776 30.7761 124 30.5 124H28.5C28.2238 124 28 123.776 28 123.5C28 123.224 28.2238 123 28.5 123H30.5Z" fill="currentColor"/>
  <path d="M32.5 119C32.7761 119 33 119.224 33 119.5C33 119.776 32.7761 120 32.5 120H28.5C28.2238 120 28 119.776 28 119.5C28 119.224 28.2238 119 28.5 119H32.5Z" fill="currentColor"/>
  <path d="M34.5 115C34.7761 115 35 115.224 35 115.5C35 115.776 34.7761 116 34.5 116H28.5C28.2238 116 28 115.776 28 115.5C28 115.224 28.2238 115 28.5 115H34.5Z" fill="currentColor"/>
</svg>
