<svg xmlns="http://www.w3.org/2000/svg" width="16" height="16" viewBox="19.95 111.45 16.05 16.05" fill="none">
  <path d="M23.2245 114.082C23.4186 113.954 23.6826 113.975 23.8534 114.146L25.8534 116.146C26.0487 116.341 26.0486 116.658 25.8534 116.853C25.6582 117.048 25.3417 117.048 25.1464 116.853L23.9999 115.707V124.5C23.9999 124.776 23.776 125 23.4999 125C23.2238 125 22.9999 124.776 22.9999 124.5V115.707L21.8534 116.853C21.6582 117.048 21.3417 117.048 21.1464 116.853C20.9512 116.658 20.9512 116.341 21.1464 116.146L23.1464 114.146L23.2245 114.082Z" fill="currentColor"/>
  <path d="M34.4999 123C34.776 123 34.9998 123.224 34.9999 123.5C34.9999 123.776 34.776 124 34.4999 124H28.4999C28.2238 124 27.9999 123.776 27.9999 123.5C28 123.224 28.2238 123 28.4999 123H34.4999Z" fill="currentColor"/>
  <path d="M32.4999 119C32.776 119 32.9998 119.224 32.9999 119.5C32.9999 119.776 32.776 120 32.4999 120H28.4999C28.2238 120 27.9999 119.776 27.9999 119.5C28 119.224 28.2238 119 28.4999 119H32.4999Z" fill="currentColor"/>
  <path d="M30.4999 115C30.776 115 30.9998 115.224 30.9999 115.5C30.9999 115.776 30.776 116 30.4999 116H28.4999C28.2238 116 27.9999 115.776 27.9999 115.5C28 115.224 28.2238 115 28.4999 115H30.4999Z" fill="currentColor"/>
</svg>
