<svg xmlns="http://www.w3.org/2000/svg" width="16" height="16" viewBox="20.5 111.0 16.0 16.0" fill="none">
  <path d="M28.5 112C28.7761 112 29 112.224 29 112.5V125.5C29 125.776 28.7761 126 28.5 126C28.2239 126 28 125.776 28 125.5V112.5C28 112.224 28.2239 112 28.5 112Z" fill="currentColor"/>
  <path d="M25.5 115C25.7761 115 26 115.224 26 115.5V122.5C26 122.776 25.7761 123 25.5 123C25.2239 123 25 122.776 25 122.5V115.5C25 115.224 25.2239 115 25.5 115Z" fill="currentColor"/>
  <path d="M31.5 115C31.7761 115 32 115.224 32 115.5V122.5C32 122.776 31.7761 123 31.5 123C31.2239 123 31 122.776 31 122.5V115.5C31 115.224 31.2239 115 31.5 115Z" fill="currentColor"/>
  <path d="M22.5 117C22.7761 117 23 117.224 23 117.5V120.5C23 120.776 22.7761 121 22.5 121C22.2239 121 22 120.776 22 120.5V117.5C22 117.224 22.2239 117 22.5 117Z" fill="currentColor"/>
  <path d="M34.5 117C34.7761 117 35 117.224 35 117.5V120.5C35 120.776 34.7761 121 34.5 121C34.2239 121 34 120.776 34 120.5V117.5C34 117.224 34.2239 117 34.5 117Z" fill="currentColor"/>
</svg>
