<svg xmlns="http://www.w3.org/2000/svg" width="16" height="16" viewBox="20.0 111.01 15.98 15.98" fill="none">
  <path d="M27.126 112.921C28.1609 112.921 29 113.76 29 114.795V123.206C28.9999 124.241 28.1608 125.079 27.126 125.079C26.5836 125.079 26.0678 124.844 25.7119 124.435L23.8125 122.25C23.7505 122.179 23.7379 122.164 23.7266 122.153C23.6434 122.072 23.5347 122.022 23.419 122.013C23.4032 122.011 23.3841 122.012 23.2901 122.012C23.0397 122.012 22.8578 122.013 22.6983 121.988C21.8338 121.856 21.1546 121.178 21.0225 120.313C20.9981 120.154 21 119.972 21 119.722V118.278C21 118.028 20.9982 117.847 21.0225 117.688C21.1546 116.823 21.8338 116.144 22.6983 116.012C22.8578 115.987 23.0397 115.989 23.2901 115.989C23.3841 115.989 23.4032 115.989 23.419 115.987C23.5347 115.978 23.6434 115.928 23.7266 115.847C23.7379 115.836 23.7511 115.822 23.8125 115.751L25.7119 113.565C26.0678 113.156 26.5836 112.921 27.126 112.921ZM27.126 113.921C26.8731 113.921 26.6327 114.031 26.4668 114.222L24.5674 116.406C24.5163 116.465 24.4726 116.517 24.4248 116.563C24.1753 116.807 23.8483 116.956 23.501 116.984C23.4347 116.99 23.3676 116.989 23.2901 116.989C23.0027 116.989 22.9143 116.991 22.8487 117.001C22.4167 117.067 22.0778 117.406 22.0118 117.838C22.0017 117.903 22 117.991 22 118.278V119.722C22 120.009 22.0018 120.097 22.0118 120.162C22.0778 120.594 22.4166 120.934 22.8487 121C22.9143 121.01 23.0026 121.012 23.2901 121.012C23.3676 121.012 23.4347 121.011 23.501 121.017C23.8484 121.045 24.1753 121.194 24.4248 121.438C24.4726 121.484 24.5164 121.535 24.5674 121.594L26.4668 123.779C26.6327 123.97 26.8732 124.079 27.126 124.079C27.6085 124.079 27.9999 123.689 28 123.206V114.795C28 114.312 27.6086 113.921 27.126 113.921Z" fill="currentColor"/>
  <path d="M32.1465 115.146C32.3418 114.951 32.6583 114.951 32.8536 115.146C34.9818 117.275 34.9818 120.725 32.8536 122.854C32.6583 123.049 32.3418 123.049 32.1465 122.854C31.9513 122.658 31.9513 122.342 32.1465 122.146C33.8843 120.409 33.8843 117.591 32.1465 115.854C31.9513 115.658 31.9513 115.342 32.1465 115.146Z" fill="currentColor"/>
  <path d="M30.1465 116.146C30.3418 115.951 30.6583 115.951 30.8536 116.146C32.4295 117.722 32.4295 120.278 30.8536 121.854C30.6583 122.049 30.3418 122.049 30.1465 121.854C29.9513 121.658 29.9513 121.342 30.1465 121.146C31.332 119.961 31.332 118.039 30.1465 116.854C29.9513 116.658 29.9513 116.342 30.1465 116.146Z" fill="currentColor"/>
</svg>
