<svg xmlns="http://www.w3.org/2000/svg" width="16" height="16" viewBox="19.93 111.96 15.13 15.13" fill="none">
  <path d="M31.1465 120.146C31.3417 119.951 31.6582 119.951 31.8535 120.146C32.0487 120.342 32.0487 120.658 31.8535 120.854L27.8535 124.854C27.6582 125.049 27.3417 125.049 27.1465 124.854L25.1465 122.854C24.9512 122.658 24.9512 122.342 25.1465 122.146C25.3417 121.951 25.6582 121.951 25.8535 122.146L27.5 123.793L31.1465 120.146Z" fill="currentColor"/>
  <path d="M23.25 114C23.4486 114 23.6284 114.118 23.708 114.3L25.458 118.3C25.5685 118.553 25.4531 118.847 25.2002 118.958C24.9472 119.069 24.6526 118.953 24.542 118.7L24.2353 118H22.2646L21.958 118.7C21.8473 118.953 21.5527 119.069 21.2998 118.958C21.0468 118.847 20.9314 118.553 21.042 118.3L22.792 114.3L22.8261 114.234C22.9166 114.09 23.0762 114 23.25 114ZM22.7021 117H23.7978L23.25 115.747L22.7021 117Z" fill="currentColor"/>
  <path d="M27.5 114C28.3284 114 29 114.672 29 115.5C29 115.768 28.9284 116.018 28.8056 116.235C29.2229 116.502 29.5 116.968 29.5 117.5C29.5 118.328 28.8284 119 28 119H26.5C26.4656 119 26.4319 118.997 26.3994 118.99C26.2039 118.95 26.0496 118.796 26.0097 118.601L26 118.5V114.5C26 114.224 26.2238 114 26.5 114H27.5ZM27 118H28C28.2761 118 28.5 117.776 28.5 117.5C28.5 117.224 28.2761 117 28 117H27V118ZM27 116H27.5C27.7761 116 28 115.776 28 115.5C28 115.224 27.7761 115 27.5 115H27V116Z" fill="currentColor"/>
  <path d="M32.25 114C32.9033 114 33.4795 114.308 33.8799 114.774C34.0596 114.984 34.0348 115.3 33.8252 115.479C33.6155 115.659 33.2998 115.635 33.1201 115.426C32.8852 115.152 32.5758 115 32.25 115C31.6202 115 31 115.607 31 116.5C31 117.393 31.6202 118 32.25 118C32.5758 118 32.8852 117.848 33.1201 117.574C33.2998 117.365 33.6155 117.341 33.8252 117.521C34.0348 117.7 34.0596 118.016 33.8799 118.226C33.4795 118.692 32.9033 119 32.25 119C30.9467 119 30 117.816 30 116.5C30 115.184 30.9467 114 32.25 114Z" fill="currentColor"/>
</svg>
