<svg xmlns="http://www.w3.org/2000/svg" width="16" height="16" viewBox="20.5 111.0 16.0 16.0" fill="none">
  <path d="M28.5 122C28.7761 122 29 122.224 29 122.5V125.5C29 125.776 28.7761 126 28.5 126C28.2239 126 28 125.776 28 125.5V122.5C28 122.224 28.2239 122 28.5 122Z" fill="currentColor"/>
  <path d="M25.1191 116.207C25.4686 116.029 25.895 115.895 26.3203 116.114C26.7456 116.334 26.8842 116.759 26.9414 117.147C26.9987 117.537 26.9971 118.059 26.9971 118.679V119.323C26.9971 119.943 26.9988 120.466 26.9414 120.855C26.8842 121.243 26.7454 121.668 26.3203 121.888C25.8949 122.107 25.4686 121.973 25.1191 121.795C24.7682 121.616 24.343 121.312 23.8379 120.953L23.3848 120.631C23.0066 120.362 22.6768 120.128 22.4482 119.909C22.2114 119.682 22.0001 119.394 22 119.001C22.0001 118.608 22.2115 118.32 22.4482 118.093C22.6768 117.874 23.0067 117.64 23.3848 117.371L23.8379 117.049C24.3428 116.69 24.7683 116.386 25.1191 116.207ZM25.8262 117.002C25.7824 117.008 25.7033 117.031 25.5732 117.098C25.3038 117.235 24.9503 117.486 24.418 117.864L23.9648 118.187C23.5604 118.474 23.3026 118.658 23.1396 118.814C23.0628 118.888 23.0275 118.937 23.0117 118.966C23.0001 118.987 23 118.995 23 119.001C23 119.006 23 119.015 23.0117 119.036C23.0274 119.065 23.0626 119.114 23.1396 119.188C23.3027 119.344 23.5601 119.529 23.9648 119.816L24.418 120.138C24.9505 120.516 25.3038 120.767 25.5732 120.904C25.7034 120.971 25.7824 120.994 25.8262 121C25.8453 121.003 25.8564 121.001 25.8564 121.001C25.8564 121.001 25.8587 121 25.8613 120.999C25.8639 120.998 25.8662 120.996 25.8662 120.996C25.8678 120.994 25.8743 120.987 25.8828 120.971C25.9033 120.931 25.9299 120.853 25.9512 120.709C25.9952 120.41 25.9971 119.976 25.9971 119.323V118.679C25.9971 118.025 25.9952 117.592 25.9512 117.293C25.9298 117.148 25.9033 117.07 25.8828 117.031C25.874 117.014 25.8662 117.007 25.8662 117.007C25.8662 117.007 25.8648 117.005 25.8613 117.003C25.8586 117.002 25.8564 117.001 25.8564 117.001C25.8564 117.001 25.8453 116.999 25.8262 117.002Z" fill="currentColor"/>
  <path d="M30.6768 116.114C31.1021 115.895 31.5285 116.029 31.8779 116.207C32.2288 116.386 32.6542 116.69 33.1592 117.049L33.6123 117.371C33.9904 117.64 34.3203 117.874 34.5488 118.093C34.7856 118.32 34.9969 118.608 34.9971 119.001C34.997 119.394 34.7857 119.682 34.5488 119.909C34.3203 120.128 33.9905 120.362 33.6123 120.631L33.1592 120.953C32.6541 121.312 32.2289 121.616 31.8779 121.795C31.5284 121.973 31.1022 122.107 30.6768 121.888C30.2517 121.668 30.1129 121.243 30.0557 120.855C29.9983 120.466 30 119.943 30 119.323V118.679C30 118.059 29.9984 117.537 30.0557 117.147C30.1129 116.759 30.2515 116.334 30.6768 116.114ZM31.1357 117.003C31.1323 117.005 31.1309 117.007 31.1309 117.007C31.1309 117.007 31.1231 117.014 31.1143 117.031C31.0938 117.07 31.0672 117.148 31.0459 117.293C31.0019 117.592 31 118.025 31 118.679V119.323C31 119.976 31.0019 120.41 31.0459 120.709C31.0672 120.853 31.0938 120.931 31.1143 120.971C31.1227 120.987 31.1292 120.994 31.1309 120.996C31.1309 120.996 31.1332 120.998 31.1357 120.999C31.1384 121 31.1406 121.001 31.1406 121.001C31.1406 121.001 31.1518 121.003 31.1709 121C31.2147 120.994 31.2937 120.971 31.4238 120.904C31.6933 120.767 32.0466 120.516 32.5791 120.138L33.0322 119.816C33.437 119.529 33.6944 119.344 33.8574 119.188C33.9344 119.114 33.9697 119.065 33.9854 119.036C33.9971 119.015 33.9971 119.006 33.9971 119.001C33.9971 118.995 33.997 118.987 33.9854 118.966C33.9696 118.937 33.9343 118.888 33.8574 118.814C33.6944 118.658 33.4367 118.474 33.0322 118.187L32.5791 117.864C32.0467 117.486 31.6933 117.235 31.4238 117.098C31.2938 117.031 31.2147 117.008 31.1709 117.002C31.1518 116.999 31.1406 117.001 31.1406 117.001C31.1406 117.001 31.1385 117.002 31.1357 117.003Z" fill="currentColor"/>
  <path d="M28.5 117C28.7761 117 29 117.224 29 117.5V120.5C29 120.776 28.7761 121 28.5 121C28.2239 121 28 120.776 28 120.5V117.5C28 117.224 28.2239 117 28.5 117Z" fill="currentColor"/>
  <path d="M28.5 112C28.7761 112 29 112.224 29 112.5V115.5C29 115.776 28.7761 116 28.5 116C28.2239 116 28 115.776 28 115.5V112.5C28 112.224 28.2239 112 28.5 112Z" fill="currentColor"/>
</svg>
