<svg xmlns="http://www.w3.org/2000/svg" width="16" height="16" viewBox="19.0 111.0 16.0 16.0" fill="none">
  <path d="M22 112C23.1046 112 24 112.895 24 114C24 114.371 23.8964 114.716 23.7207 115.014L25.2627 116.556C25.7531 116.206 26.3521 116 27 116C27.6473 116 28.2452 116.207 28.7354 116.556L30.1465 115.145C30.0533 114.949 30 114.731 30 114.5C30 113.672 30.6716 113 31.5 113C32.3284 113 33 113.672 33 114.5C33 115.328 32.3284 116 31.5 116C31.2682 116 31.0495 115.945 30.8535 115.852L29.4424 117.262C29.7922 117.752 30 118.351 30 119C30 119.266 29.9613 119.522 29.8965 119.768L31.4199 120.46C31.6928 120.177 32.0756 120 32.5 120C33.3284 120 34 120.672 34 121.5C34 122.328 33.3284 123 32.5 123C31.6716 123 31 122.328 31 121.5C31 121.456 31.0021 121.412 31.0059 121.369L29.4863 120.678C29.271 120.996 28.9963 121.271 28.6777 121.486L29.3691 123.006C29.4123 123.002 29.4559 123 29.5 123C30.3284 123 31 123.672 31 124.5C31 125.328 30.3284 126 29.5 126C28.6716 126 28 125.328 28 124.5C28 124.076 28.1767 123.693 28.46 123.42L27.7666 121.897C27.5216 121.962 27.2653 122 27 122C26.3515 122 25.7524 121.792 25.2617 121.442L23.7197 122.984C23.8961 123.282 24 123.629 24 124C24 125.105 23.1046 126 22 126C20.8954 126 20 125.105 20 124C20 122.895 20.8954 122 22 122C22.3703 122 22.7163 122.102 23.0137 122.277L24.5557 120.735C24.2071 120.245 24 119.647 24 119C24 118.352 24.2065 117.753 24.5557 117.263L23.0137 115.721C22.7161 115.896 22.3706 116 22 116C20.8954 116 20 115.105 20 114C20 112.895 20.8954 112 22 112ZM22 123C21.4477 123 21 123.448 21 124C21 124.552 21.4477 125 22 125C22.5523 125 23 124.552 23 124C23 123.448 22.5523 123 22 123ZM29.5 124C29.2239 124 29 124.224 29 124.5C29 124.776 29.2239 125 29.5 125C29.7761 125 30 124.776 30 124.5C30 124.224 29.7761 124 29.5 124ZM32.5 121C32.2239 121 32 121.224 32 121.5C32 121.776 32.2239 122 32.5 122C32.7761 122 33 121.776 33 121.5C33 121.224 32.7761 121 32.5 121ZM27 117C25.8954 117 25 117.895 25 119C25 120.105 25.8954 121 27 121C28.1046 121 29 120.105 29 119C29 117.895 28.1046 117 27 117ZM22 113C21.4477 113 21 113.448 21 114C21 114.552 21.4477 115 22 115C22.5523 115 23 114.552 23 114C23 113.448 22.5523 113 22 113ZM31.5 114C31.2239 114 31 114.224 31 114.5C31 114.776 31.2239 115 31.5 115C31.7761 115 32 114.776 32 114.5C32 114.224 31.7761 114 31.5 114Z" fill="currentColor"/>
</svg>
