<svg xmlns="http://www.w3.org/2000/svg" width="16" height="16" viewBox="20.03 111.0 16.01 16.01" fill="none">
  <path d="M30.5 112C30.6996 112 30.899 111.995 31.0742 112.042C31.5051 112.158 31.8423 112.495 31.958 112.926C32.005 113.101 32 113.301 32 113.5C32 113.7 32.0047 113.899 31.958 114.073C31.8424 114.504 31.5052 114.842 31.0742 114.958C30.9058 115.003 30.7152 114.999 30.5235 114.999C30.5558 115.38 30.6227 115.746 30.7266 116.073C30.8771 116.547 31.09 116.908 31.335 117.128C31.5402 117.313 31.5567 117.63 31.3721 117.835C31.1874 118.04 30.8703 118.057 30.6651 117.872C30.2435 117.493 29.9563 116.952 29.7735 116.376C29.643 115.965 29.5607 115.519 29.5235 115.065C29.4022 115.107 29.3225 115.169 29.2637 115.241C29.1251 115.413 29.0002 115.766 29 116.499L29.0117 116.684C29.0343 116.866 29.0899 117.043 29.1768 117.206L31.5986 121.734C31.6981 121.919 31.7718 122.055 31.8242 122.201L31.8819 122.391C31.8977 122.454 31.9094 122.519 31.919 122.583C31.9418 122.737 31.9414 122.891 31.9414 123.102C31.9414 123.513 31.9414 123.851 31.919 124.126C31.8961 124.407 31.847 124.665 31.7236 124.907C31.5314 125.285 31.2241 125.591 30.8477 125.782C30.6053 125.906 30.3471 125.955 30.0664 125.978C29.7915 126 29.4532 126 29.042 126H27.5586C26.8657 126 26.2952 126.001 25.8457 125.941C25.44 125.886 25.0759 125.775 24.7715 125.528L24.6445 125.414C24.3169 125.086 24.1806 124.677 24.1182 124.213C24.0577 123.764 24.0586 123.193 24.0586 122.5V120.555C24.0586 119.807 24.0546 119.346 24.1699 118.901C24.2855 118.455 24.5124 118.052 24.876 117.398L25.374 116.499L24.3086 114.58C24.253 114.48 24.2051 114.395 24.168 114.303C24.1439 114.243 24.1239 114.181 24.1074 114.118L24.0703 113.926C24.0581 113.827 24.0586 113.73 24.0586 113.615C24.0586 113.453 24.0584 113.306 24.0664 113.184C24.0747 113.058 24.0937 112.921 24.1485 112.784C24.2755 112.468 24.5268 112.217 24.8428 112.09C24.9797 112.035 25.1159 112.016 25.2422 112.008C25.3642 112 25.511 112 25.6738 112H30.5ZM25.751 117.884C25.364 118.581 25.215 118.856 25.1387 119.151C25.0625 119.445 25.0586 119.757 25.0586 120.555V122.5C25.0586 123.221 25.06 123.712 25.1094 124.079C25.1569 124.432 25.2404 124.596 25.3516 124.707L25.4473 124.785C25.5568 124.858 25.7149 124.914 25.9795 124.949C26.3469 124.999 26.8375 125 27.5586 125H29.042C29.4696 125 29.7606 125 29.9854 124.982C30.2042 124.964 30.3164 124.931 30.3945 124.892C30.5837 124.795 30.7374 124.642 30.833 124.454C30.8727 124.376 30.905 124.264 30.9229 124.045C30.9412 123.82 30.9414 123.529 30.9414 123.102C30.9414 122.865 30.9403 122.795 30.9307 122.73C30.9258 122.697 30.9191 122.664 30.9111 122.632L30.8828 122.539C30.8607 122.477 30.8292 122.414 30.7178 122.205L28.2959 117.679C28.1817 117.465 28.1021 117.236 28.0537 117H26.2412L25.751 117.884ZM25.3076 113.006C25.2423 113.01 25.2197 113.016 25.2158 113.018C25.1526 113.043 25.1016 113.094 25.0762 113.157C25.0747 113.162 25.0687 113.185 25.0645 113.249C25.0591 113.331 25.0586 113.439 25.0586 113.615L25.0625 113.803L25.0742 113.865C25.0797 113.886 25.0874 113.907 25.0957 113.928C25.1048 113.95 25.1178 113.975 25.1836 114.094L26.2422 116H28.0205C28.0674 115.432 28.2039 114.96 28.4863 114.611C28.635 114.428 28.8094 114.295 29 114.201V113H25.6738C25.4973 113 25.3892 113.001 25.3076 113.006ZM30 114H30.5C30.621 114 30.6948 114 30.751 113.997C30.7955 113.995 30.8116 113.992 30.8145 113.991C30.9007 113.968 30.9681 113.901 30.9912 113.815C30.992 113.811 30.9952 113.794 30.9971 113.751C30.9996 113.695 31 113.621 31 113.5C31 113.379 30.9996 113.305 30.9971 113.249C30.9951 113.205 30.9919 113.189 30.9912 113.186C30.9681 113.1 30.9006 113.032 30.8145 113.009C30.8113 113.008 30.795 113.005 30.751 113.003C30.6948 113.001 30.6209 113 30.5 113H30V114Z" fill="currentColor"/>
</svg>
