<svg xmlns="http://www.w3.org/2000/svg" width="16" height="16" viewBox="21.0 113.0 15.0 15.0" fill="none">
  <path d="M30.5 114C31.4285 114 32.1751 113.999 32.7607 114.078C33.3608 114.159 33.8663 114.331 34.2676 114.732C34.6689 115.134 34.8412 115.639 34.9219 116.239C35.0006 116.825 35 117.572 35 118.5V122.5C35 123.428 35.0006 124.175 34.9219 124.761C34.8412 125.361 34.6689 125.866 34.2676 126.268C33.8663 126.669 33.3608 126.841 32.7607 126.922C32.1751 127.001 31.4285 127 30.5 127H26.5C25.5715 127 24.8249 127.001 24.2393 126.922C23.6392 126.841 23.1337 126.669 22.7324 126.268C22.3311 125.866 22.1588 125.361 22.0781 124.761C21.9994 124.175 22 123.428 22 122.5V118.5C22 117.572 21.9994 116.825 22.0781 116.239C22.1588 115.639 22.3311 115.134 22.7324 114.732C23.1337 114.331 23.6392 114.159 24.2393 114.078C24.8249 113.999 25.5715 114 26.5 114H30.5ZM26.5 115C25.5431 115 24.8756 115.001 24.3721 115.068C23.8829 115.134 23.624 115.255 23.4395 115.439C23.2549 115.624 23.1341 115.883 23.0684 116.372C23.0007 116.876 23 117.543 23 118.5V122.5C23 123.457 23.0007 124.124 23.0684 124.628C23.1341 125.117 23.2549 125.376 23.4395 125.561C23.624 125.745 23.8829 125.866 24.3721 125.932C24.8756 125.999 25.5431 126 26.5 126H30.5C31.4569 126 32.1244 125.999 32.6279 125.932C33.1171 125.866 33.376 125.745 33.5605 125.561C33.7451 125.376 33.8659 125.117 33.9316 124.628C33.9993 124.124 34 123.457 34 122.5V118.5C34 117.543 33.9993 116.876 33.9316 116.372C33.8659 115.883 33.7451 115.624 33.5605 115.439C33.376 115.255 33.1171 115.134 32.6279 115.068C32.1244 115.001 31.4569 115 30.5 115H26.5Z" fill="currentColor"/>
</svg>
