<svg xmlns="http://www.w3.org/2000/svg" width="16" height="16" viewBox="21.0 112.0 14.0 14.0" fill="none">
  <path d="M25.5 113C25.7761 113 26 113.224 26 113.5C26 113.776 25.7761 114 25.5 114H25C24.4477 114 24 114.448 24 115V123C24 123.552 24.4477 124 25 124H25.5C25.7761 124 26 124.224 26 124.5C26 124.776 25.7761 125 25.5 125H25C23.8954 125 23 124.105 23 123V115C23 113.895 23.8954 113 25 113H25.5Z" fill="currentColor"/>
  <path d="M31 113C32.1046 113 33 113.895 33 115V123C33 124.105 32.1046 125 31 125H30.5C30.2239 125 30 124.776 30 124.5C30 124.224 30.2239 124 30.5 124H31C31.5523 124 32 123.552 32 123V115C32 114.448 31.5523 114 31 114H30.5C30.2239 114 30 113.776 30 113.5C30 113.224 30.2239 113 30.5 113H31Z" fill="currentColor"/>
</svg>
