<svg xmlns="http://www.w3.org/2000/svg" width="16" height="16" viewBox="20.0 111.0 15.0 15.0" fill="none">
  <path d="M29.5 115C29.7762 115 30 115.224 30 115.5C30 115.776 29.7762 116 29.5 116H28V121H29.5C29.7762 121 30 121.224 30 121.5C30 121.776 29.7762 122 29.5 122H25.5C25.2239 122 25 121.776 25 121.5C25 121.224 25.2239 121 25.5 121H27V116H25.5C25.2239 116 25 115.776 25 115.5C25 115.224 25.2239 115 25.5 115H29.5Z" fill="currentColor"/>
  <path d="M30 112C30.6788 112 31.2887 111.998 31.7793 112.063C32.2986 112.133 32.8312 112.296 33.2676 112.732C33.704 113.169 33.8667 113.701 33.9365 114.221C34.0025 114.711 34 115.321 34 116V121C34 121.679 34.0025 122.289 33.9365 122.779C33.8667 123.299 33.704 123.831 33.2676 124.268C32.8312 124.704 32.2986 124.867 31.7793 124.937C31.2887 125.002 30.6788 125 30 125H25C24.3212 125 23.7113 125.002 23.2207 124.937C22.7014 124.867 22.1688 124.704 21.7324 124.268C21.296 123.831 21.1333 123.299 21.0635 122.779C20.9975 122.289 21 121.679 21 121V116C21 115.321 20.9975 114.711 21.0635 114.221C21.1333 113.701 21.296 113.169 21.7324 112.732C22.1688 112.296 22.7014 112.133 23.2207 112.063C23.7113 111.998 24.3212 112 25 112H30ZM25 113C23.5858 113 22.8788 113 22.4395 113.439L22.3623 113.525C22.0004 113.97 22 114.674 22 116V121C22 122.414 22.0001 123.121 22.4395 123.561C22.8788 124 23.5858 124 25 124H30C31.4142 124 32.1212 124 32.5606 123.561C32.9999 123.121 33 122.414 33 121V116C33 114.674 32.9996 113.97 32.6377 113.525L32.5606 113.439C32.1212 113 31.4142 113 30 113H25Z" fill="currentColor"/>
</svg>
