<svg xmlns="http://www.w3.org/2000/svg" width="16" height="16" viewBox="20.0 111.0 15.0 15.0" fill="none">
  <path d="M27.417 115C28.3776 115 29.2441 115.407 29.8623 116.056C30.0526 116.256 30.0446 116.572 29.8447 116.763C29.6448 116.953 29.3281 116.945 29.1377 116.745C28.6973 116.283 28.0883 116 27.417 116C26.0955 116 25 117.106 25 118.5C25 119.894 26.0955 121 27.417 121C28.0883 121 28.6973 120.717 29.1377 120.255C29.3281 120.055 29.6448 120.047 29.8447 120.237C30.0446 120.428 30.0526 120.744 29.8623 120.944C29.2441 121.593 28.3776 122 27.417 122C25.5169 122 24 120.42 24 118.5C24 116.58 25.5169 115 27.417 115Z" fill="currentColor"/>
  <path d="M30 112C30.6788 112 31.2887 111.998 31.7793 112.063C32.2986 112.133 32.8312 112.296 33.2676 112.732C33.704 113.169 33.8667 113.701 33.9365 114.221C34.0025 114.711 34 115.321 34 116V121C34 121.679 34.0025 122.289 33.9365 122.779C33.8667 123.299 33.704 123.831 33.2676 124.268C32.8312 124.704 32.2986 124.867 31.7793 124.937C31.2887 125.002 30.6788 125 30 125H25C24.3212 125 23.7113 125.002 23.2207 124.937C22.7014 124.867 22.1688 124.704 21.7324 124.268C21.296 123.831 21.1333 123.299 21.0635 122.779C20.9975 122.289 21 121.679 21 121V116C21 115.321 20.9975 114.711 21.0635 114.221C21.1333 113.701 21.296 113.169 21.7324 112.732C22.1688 112.296 22.7014 112.133 23.2207 112.063C23.7113 111.998 24.3212 112 25 112H30ZM25 113C23.5858 113 22.8788 113 22.4395 113.439L22.3623 113.525C22.0004 113.97 22 114.674 22 116V121C22 122.414 22.0001 123.121 22.4395 123.561C22.8788 124 23.5858 124 25 124H30C31.4142 124 32.1212 124 32.5606 123.561C32.9999 123.121 33 122.414 33 121V116C33 114.674 32.9996 113.97 32.6377 113.525L32.5606 113.439C32.1212 113 31.4142 113 30 113H25Z" fill="currentColor"/>
</svg>
