<svg xmlns="http://www.w3.org/2000/svg" width="16" height="16" viewBox="20.5 110.0 17.0 17.0" fill="none">
  <path d="M22.5 122C22.7761 122 23 122.224 23 122.5C23 122.973 23 123.303 23.0176 123.561C23.0349 123.814 23.0676 123.962 23.1143 124.074C23.2665 124.442 23.5584 124.734 23.9258 124.886C24.0384 124.932 24.1862 124.965 24.4395 124.982C24.6974 125 25.0272 125 25.5 125C25.7761 125 26 125.224 26 125.5C26 125.776 25.7761 126 25.5 126C25.0411 126 24.6719 126 24.3721 125.979C24.0677 125.959 23.7978 125.915 23.543 125.81C22.9307 125.556 22.4442 125.069 22.1904 124.457C22.0849 124.202 22.0413 123.932 22.0205 123.628C22.0001 123.328 22 122.959 22 122.5C22 122.224 22.2239 122 22.5 122Z" fill="currentColor"/>
  <path d="M29.5 125C29.7761 125 30 125.224 30 125.5C30 125.776 29.7761 126 29.5 126H27.5C27.2239 126 27 125.776 27 125.5C27 125.224 27.2239 125 27.5 125H29.5Z" fill="currentColor"/>
  <path d="M34.5 122C34.7761 122 35 122.224 35 122.5C35 122.959 34.9999 123.328 34.9795 123.628C34.9587 123.932 34.9151 124.202 34.8096 124.457C34.5558 125.069 34.0693 125.556 33.457 125.81C33.2022 125.915 32.9323 125.959 32.6279 125.979C32.3281 126 31.9589 126 31.5 126C31.2239 126 31 125.776 31 125.5C31 125.224 31.2239 125 31.5 125C31.9728 125 32.3026 125 32.5605 124.982C32.8138 124.965 32.9616 124.932 33.0742 124.886C33.4416 124.734 33.7335 124.442 33.8857 124.074C33.9324 123.962 33.9651 123.814 33.9824 123.561C34 123.303 34 122.973 34 122.5C34 122.224 34.2239 122 34.5 122Z" fill="currentColor"/>
  <path d="M22.5 118C22.7761 118 23 118.224 23 118.5V120.5C23 120.776 22.7761 121 22.5 121C22.2239 121 22 120.776 22 120.5V118.5C22 118.224 22.2239 118 22.5 118Z" fill="currentColor"/>
  <path d="M34.5 118C34.7761 118 35 118.224 35 118.5V120.5C35 120.776 34.7761 121 34.5 121C34.2239 121 34 120.776 34 120.5V118.5C34 118.224 34.2239 118 34.5 118Z" fill="currentColor"/>
  <path d="M32.502 111C32.6978 111 32.876 111.115 32.957 111.293C33.2775 111.998 33.4135 112.293 33.5918 112.548C33.8268 112.884 34.1189 113.176 34.4551 113.411C34.7101 113.589 35.0049 113.725 35.71 114.046C35.8885 114.127 36.0029 114.306 36.0029 114.502C36.0027 114.698 35.8883 114.876 35.71 114.957C35.0049 115.278 34.7101 115.414 34.4551 115.592C34.1189 115.827 33.8268 116.119 33.5918 116.455C33.4135 116.71 33.2775 117.005 32.957 117.71C32.876 117.888 32.6978 118.003 32.502 118.003C32.3059 118.003 32.127 117.888 32.0459 117.71C31.7254 117.005 31.5894 116.71 31.4111 116.455C31.1762 116.119 30.884 115.827 30.5479 115.592C30.2928 115.414 29.998 115.278 29.293 114.957C29.1146 114.876 29.0002 114.698 29 114.502C29 114.306 29.1145 114.127 29.293 114.046C29.998 113.725 30.2928 113.589 30.5479 113.411C30.884 113.176 31.1762 112.884 31.4111 112.548C31.5894 112.293 31.7254 111.998 32.0459 111.293L32.0811 111.229C32.1721 111.088 32.3303 111 32.502 111ZM32.501 112.664C32.4123 112.833 32.3288 112.982 32.2314 113.121C31.9293 113.553 31.5534 113.929 31.1211 114.231C30.9818 114.329 30.8331 114.412 30.6641 114.501C30.8332 114.59 30.9817 114.674 31.1211 114.771C31.5534 115.074 31.9293 115.45 32.2314 115.882C32.3287 116.021 32.4125 116.169 32.501 116.338C32.5896 116.169 32.6742 116.021 32.7715 115.882C33.0736 115.45 33.4496 115.074 33.8818 114.771C34.0211 114.674 34.169 114.59 34.3379 114.501C34.1692 114.412 34.0209 114.329 33.8818 114.231C33.4496 113.929 33.0736 113.553 32.7715 113.121C32.674 112.982 32.5897 112.833 32.501 112.664Z" fill="currentColor"/>
  <path d="M25.5 113C25.7761 113 26 113.224 26 113.5C26 113.776 25.7761 114 25.5 114C25.0272 114 24.6974 114 24.4395 114.018C24.1862 114.035 24.0384 114.068 23.9258 114.114C23.5584 114.266 23.2665 114.558 23.1143 114.926C23.0676 115.038 23.0349 115.186 23.0176 115.439C23 115.697 23 116.027 23 116.5C23 116.776 22.7761 117 22.5 117C22.2239 117 22 116.776 22 116.5C22 116.041 22.0001 115.672 22.0205 115.372C22.0413 115.068 22.0849 114.798 22.1904 114.543C22.4442 113.931 22.9307 113.444 23.543 113.19C23.7978 113.085 24.0677 113.041 24.3721 113.021C24.6719 113 25.0411 113 25.5 113Z" fill="currentColor"/>
  <path d="M28.8789 113.136C28.5009 113.308 28.2204 113.624 28.0869 114H27.5C27.2239 114 27 113.776 27 113.5C27 113.224 27.2239 113 27.5 113H29.1709L28.8789 113.136Z" fill="currentColor"/>
</svg>
