<svg xmlns="http://www.w3.org/2000/svg" width="16" height="16" viewBox="20.0 111.0 15.0 15.0" fill="none">
  <path d="M27.4834 115C28.3022 115 29.0307 115.521 29.2969 116.295L29.3428 116.429C29.4324 116.69 29.2933 116.974 29.0322 117.063C28.7714 117.153 28.4873 117.015 28.3975 116.754L28.3516 116.619C28.2241 116.249 27.8751 116 27.4834 116H27.3994C27.026 116 26.7 116.255 26.6113 116.618C26.5195 116.994 26.7068 117.383 27.0576 117.546L28.2637 118.106C29.0208 118.458 29.4884 119.236 29.4453 120.069C29.3893 121.15 28.4995 122.002 27.416 122.008C26.4283 122.013 25.5777 121.311 25.3965 120.34L25.3789 120.243C25.3283 119.972 25.5072 119.711 25.7783 119.66C26.0497 119.61 26.3106 119.788 26.3613 120.06L26.3799 120.156C26.4724 120.652 26.9062 121.01 27.4102 121.008C27.9621 121.005 28.4176 120.57 28.4463 120.018C28.4684 119.591 28.2291 119.193 27.8428 119.014L26.6358 118.453C25.8521 118.089 25.4346 117.22 25.6397 116.381C25.8378 115.57 26.5652 115 27.3994 115H27.4834Z" fill="currentColor"/>
  <path d="M30 112C30.6788 112 31.2887 111.998 31.7793 112.063C32.2986 112.133 32.8312 112.296 33.2676 112.732C33.704 113.169 33.8667 113.701 33.9365 114.221C34.0025 114.711 34 115.321 34 116V121C34 121.679 34.0025 122.289 33.9365 122.779C33.8667 123.299 33.704 123.831 33.2676 124.268C32.8312 124.704 32.2986 124.867 31.7793 124.937C31.2887 125.002 30.6788 125 30 125H25C24.3212 125 23.7113 125.002 23.2207 124.937C22.7014 124.867 22.1688 124.704 21.7324 124.268C21.296 123.831 21.1333 123.299 21.0635 122.779C20.9975 122.289 21 121.679 21 121V116C21 115.321 20.9975 114.711 21.0635 114.221C21.1333 113.701 21.296 113.169 21.7324 112.732C22.1688 112.296 22.7014 112.133 23.2207 112.063C23.7113 111.998 24.3212 112 25 112H30ZM25 113C23.5858 113 22.8788 113 22.4395 113.439L22.3623 113.525C22.0004 113.97 22 114.674 22 116V121C22 122.414 22.0001 123.121 22.4395 123.561C22.8788 124 23.5858 124 25 124H30C31.4142 124 32.1212 124 32.5606 123.561C32.9999 123.121 33 122.414 33 121V116C33 114.674 32.9996 113.97 32.6377 113.525L32.5606 113.439C32.1212 113 31.4142 113 30 113H25Z" fill="currentColor"/>
</svg>
