<svg xmlns="http://www.w3.org/2000/svg" width="16" height="16" viewBox="21.0 112.0 15.0 15.0" fill="none">
  <path d="M27 115C27.2762 115 27.5 115.224 27.5 115.5C27.5 115.776 27.2762 116 27 116C26.4477 116 26 116.448 26 117V118.5C26 118.885 25.8535 119.234 25.6152 119.5C25.8535 119.766 26 120.115 26 120.5V122C26 122.552 26.4477 123 27 123C27.2762 123 27.5 123.224 27.5 123.5C27.5 123.776 27.2762 124 27 124C25.8954 124 25 123.105 25 122V120.5C25 120.258 24.8286 120.056 24.6006 120.01L24.3994 119.99C24.3675 119.984 24.337 119.973 24.3076 119.961C24.3012 119.958 24.2954 119.954 24.2891 119.951C24.2695 119.942 24.2505 119.932 24.2324 119.921C24.2206 119.913 24.2094 119.905 24.1983 119.896C24.1846 119.886 24.1717 119.875 24.1592 119.863C24.1504 119.855 24.1419 119.847 24.1338 119.838C24.1214 119.824 24.1095 119.811 24.0986 119.796C24.0909 119.785 24.0831 119.775 24.0762 119.764C24.067 119.749 24.0594 119.733 24.0518 119.718C24.0461 119.706 24.0399 119.695 24.0352 119.683C24.0283 119.665 24.0234 119.647 24.0186 119.629C24.0154 119.617 24.0111 119.605 24.0088 119.593C24.0032 119.563 24 119.532 24 119.5C24 119.468 24.003 119.437 24.0088 119.406C24.0111 119.394 24.0153 119.382 24.0186 119.37C24.0235 119.352 24.0283 119.334 24.0352 119.316C24.04 119.304 24.0461 119.293 24.0518 119.281C24.0594 119.266 24.067 119.25 24.0762 119.235C24.0831 119.224 24.0909 119.214 24.0986 119.203C24.1095 119.188 24.1214 119.175 24.1338 119.161C24.142 119.152 24.1504 119.144 24.1592 119.136C24.1717 119.124 24.1846 119.113 24.1983 119.103C24.2094 119.094 24.2206 119.086 24.2324 119.078C24.2505 119.067 24.2696 119.057 24.2891 119.048C24.2954 119.045 24.3012 119.041 24.3076 119.038C24.3369 119.026 24.3676 119.016 24.3994 119.01L24.6006 118.99C24.8286 118.944 25 118.742 25 118.5V117C25 115.895 25.8955 115 27 115Z" fill="currentColor"/>
  <path d="M30 115C31.1046 115 32 115.895 32 117V118.5C32 118.742 32.1715 118.944 32.3994 118.99L32.6006 119.01C32.6321 119.016 32.6624 119.026 32.6914 119.038C32.6979 119.041 32.7037 119.045 32.71 119.048C32.7295 119.057 32.7485 119.067 32.7666 119.078C32.7785 119.086 32.7896 119.094 32.8008 119.103C32.8145 119.113 32.8273 119.124 32.8399 119.136C32.8486 119.144 32.8571 119.152 32.8652 119.161C32.8777 119.175 32.8895 119.188 32.9004 119.203C32.9082 119.214 32.9159 119.224 32.9229 119.235C32.9321 119.25 32.9396 119.266 32.9473 119.281C32.953 119.293 32.9591 119.304 32.9639 119.316C32.9708 119.334 32.9756 119.352 32.9805 119.37C32.9837 119.382 32.9879 119.394 32.9902 119.406C32.996 119.437 33 119.468 33 119.5C33 119.532 32.9959 119.563 32.9902 119.593C32.9879 119.605 32.9837 119.617 32.9805 119.629C32.9756 119.647 32.9707 119.665 32.9639 119.683C32.9591 119.695 32.953 119.706 32.9473 119.718C32.9396 119.733 32.9321 119.749 32.9229 119.764C32.9159 119.775 32.9082 119.785 32.9004 119.796C32.8895 119.811 32.8777 119.824 32.8652 119.838C32.8571 119.847 32.8486 119.855 32.8399 119.863C32.8273 119.875 32.8145 119.886 32.8008 119.896C32.7896 119.905 32.7785 119.913 32.7666 119.921C32.7485 119.932 32.7296 119.942 32.71 119.951C32.7036 119.954 32.6979 119.958 32.6914 119.961C32.6623 119.973 32.6322 119.984 32.6006 119.99L32.3994 120.01C32.1715 120.056 32 120.258 32 120.5V122C32 123.105 31.1046 124 30 124C29.7239 124 29.5 123.776 29.5 123.5C29.5 123.224 29.7239 123 30 123C30.5523 123 31 122.552 31 122V120.5C31 120.115 31.1458 119.765 31.3838 119.5C31.1458 119.235 31 118.885 31 118.5V117C31 116.448 30.5523 116 30 116C29.7239 116 29.5 115.776 29.5 115.5C29.5 115.224 29.7239 115 30 115Z" fill="currentColor"/>
  <path d="M31 113C31.6788 113 32.2887 112.998 32.7793 113.063C33.2986 113.133 33.8312 113.296 34.2676 113.732C34.704 114.169 34.8667 114.701 34.9365 115.221C35.0025 115.711 35 116.321 35 117V122C35 122.679 35.0025 123.289 34.9365 123.779C34.8667 124.299 34.704 124.831 34.2676 125.268C33.8312 125.704 33.2986 125.867 32.7793 125.937C32.2887 126.002 31.6788 126 31 126H26C25.3212 126 24.7113 126.002 24.2207 125.937C23.7014 125.867 23.1688 125.704 22.7324 125.268C22.296 124.831 22.1333 124.299 22.0635 123.779C21.9975 123.289 22 122.679 22 122V117C22 116.321 21.9975 115.711 22.0635 115.221C22.1333 114.701 22.296 114.169 22.7324 113.732C23.1688 113.296 23.7014 113.133 24.2207 113.063C24.7113 112.998 25.3212 113 26 113H31ZM26 114C24.5858 114 23.8788 114 23.4395 114.439L23.3623 114.525C23.0004 114.97 23 115.674 23 117V122C23 123.414 23.0001 124.121 23.4395 124.561C23.8788 125 24.5858 125 26 125H31C32.4142 125 33.1212 125 33.5606 124.561C33.9999 124.121 34 123.414 34 122V117C34 115.674 33.9996 114.97 33.6377 114.525L33.5606 114.439C33.1212 114 32.4142 114 31 114H26Z" fill="currentColor"/>
</svg>
