<svg xmlns="http://www.w3.org/2000/svg" width="16" height="16" viewBox="21.0 112.0 15.0 15.0" fill="none">
  <path d="M31.1465 116.146C31.3418 115.951 31.6583 115.951 31.8535 116.146C32.0487 116.342 32.0488 116.658 31.8535 116.854L31.8359 116.871C31.8332 116.874 31.8309 116.877 31.8281 116.88C31.8254 116.883 31.8221 116.885 31.8193 116.888L31.793 116.914C31.79 116.917 31.7871 116.921 31.7842 116.924C31.7812 116.927 31.7774 116.93 31.7744 116.933L31.6182 117.089C31.6151 117.092 31.6125 117.096 31.6094 117.099C31.6063 117.102 31.6027 117.104 31.5996 117.107L31.3506 117.356C31.3472 117.36 31.3443 117.364 31.3408 117.367C31.3374 117.371 31.3335 117.374 31.3301 117.377L31.3193 117.388C31.3159 117.391 31.313 117.395 31.3096 117.398C31.3062 117.402 31.3023 117.405 31.2988 117.408L31.2774 117.43C31.2739 117.433 31.271 117.437 31.2676 117.44C31.2642 117.444 31.2603 117.447 31.2568 117.45L30.6484 118.059C30.6445 118.063 30.6407 118.067 30.6367 118.071C30.6328 118.075 30.628 118.079 30.624 118.083L30.4678 118.239C30.4637 118.243 30.4601 118.248 30.4561 118.252C30.452 118.256 30.4474 118.26 30.4434 118.264C30.4393 118.268 30.4357 118.272 30.4317 118.276C30.4276 118.28 30.423 118.284 30.419 118.288L30.3574 118.35C30.3534 118.354 30.3498 118.358 30.3457 118.362C30.3417 118.366 30.3371 118.37 30.333 118.374L30.3203 118.387C30.3163 118.391 30.3127 118.395 30.3086 118.399C30.3045 118.403 30.3 118.407 30.2959 118.411L30.2207 118.486C30.2167 118.49 30.2131 118.495 30.209 118.499C30.2049 118.503 30.2004 118.507 30.1963 118.511L30.1328 118.574C30.1288 118.578 30.1252 118.583 30.1211 118.587C30.1171 118.591 30.1125 118.595 30.1084 118.599L29.9815 118.726C29.9772 118.73 29.973 118.735 29.9688 118.739C29.9645 118.744 29.9593 118.748 29.9551 118.752L29.8789 118.828C29.8746 118.832 29.8705 118.838 29.8662 118.842C29.8619 118.846 29.8568 118.85 29.8526 118.855L29.8145 118.893C29.8102 118.897 29.8061 118.902 29.8018 118.906C29.7975 118.911 29.7924 118.915 29.7881 118.919L29.5674 119.14C29.563 119.144 29.5591 119.149 29.5547 119.153C29.5503 119.158 29.5454 119.162 29.541 119.166L29.4756 119.231C29.4712 119.236 29.4673 119.241 29.4629 119.245C29.4585 119.25 29.4536 119.253 29.4492 119.258L29.2647 119.442C29.2603 119.447 29.2563 119.452 29.252 119.456C29.2476 119.46 29.2427 119.464 29.2383 119.469L29.207 119.5L31.8535 122.146C32.0487 122.342 32.0488 122.658 31.8535 122.854C31.6583 123.049 31.3418 123.049 31.1465 122.854L28.5 120.207L28.4688 120.238C28.4644 120.243 28.4605 120.248 28.4561 120.252C28.4517 120.256 28.4468 120.26 28.4424 120.265L28.2578 120.449C28.2535 120.454 28.2495 120.459 28.2451 120.463C28.2408 120.467 28.2358 120.471 28.2315 120.476L28.166 120.541C28.1617 120.545 28.1577 120.55 28.1533 120.555C28.149 120.559 28.144 120.563 28.1397 120.567L27.919 120.788C27.9147 120.792 27.9106 120.797 27.9063 120.802C27.902 120.806 27.8969 120.81 27.8926 120.814L27.8545 120.853C27.8502 120.857 27.8461 120.862 27.8418 120.866C27.8375 120.871 27.8324 120.875 27.8281 120.879L27.752 120.955C27.7477 120.959 27.7435 120.965 27.7393 120.969C27.735 120.973 27.7298 120.977 27.7256 120.981L27.5986 121.108C27.5946 121.112 27.591 121.117 27.5869 121.121C27.5829 121.125 27.5783 121.129 27.5742 121.133L27.5108 121.196C27.5067 121.2 27.5031 121.205 27.499 121.209C27.495 121.213 27.4904 121.217 27.4863 121.221L27.4111 121.296C27.4071 121.3 27.4035 121.305 27.3994 121.309C27.3954 121.313 27.3908 121.316 27.3867 121.32L27.374 121.333C27.37 121.337 27.3664 121.342 27.3623 121.346C27.3582 121.35 27.3537 121.353 27.3496 121.357L27.2881 121.419C27.284 121.423 27.2804 121.428 27.2764 121.432C27.2723 121.436 27.2677 121.439 27.2637 121.443C27.2596 121.447 27.256 121.452 27.252 121.456C27.2479 121.46 27.2433 121.464 27.2393 121.468L27.083 121.624C27.079 121.628 27.0753 121.633 27.0713 121.637C27.0673 121.641 27.0626 121.644 27.0586 121.648L26.4502 122.257C26.4468 122.26 26.4439 122.264 26.4404 122.268C26.437 122.271 26.4331 122.274 26.4297 122.277L26.4082 122.299C26.4048 122.302 26.4019 122.306 26.3984 122.31C26.395 122.313 26.3911 122.316 26.3877 122.319L26.377 122.33C26.3736 122.334 26.3706 122.337 26.3672 122.341C26.3638 122.344 26.3599 122.347 26.3565 122.351L26.1074 122.6C26.1043 122.603 26.1017 122.606 26.0986 122.609C26.0956 122.612 26.092 122.615 26.0889 122.618L25.9326 122.774C25.9297 122.777 25.9268 122.781 25.9238 122.784C25.9209 122.787 25.917 122.79 25.9141 122.793L25.8877 122.819C25.8849 122.822 25.8826 122.825 25.8799 122.828C25.8771 122.831 25.8739 122.833 25.8711 122.836L25.8535 122.854C25.6583 123.049 25.3418 123.049 25.1465 122.854C24.9512 122.658 24.9512 122.342 25.1465 122.146L25.1641 122.129C25.1668 122.126 25.1691 122.123 25.1719 122.12C25.1746 122.117 25.1779 122.115 25.1807 122.112L25.207 122.086C25.21 122.083 25.2129 122.079 25.2158 122.076C25.2188 122.073 25.2226 122.07 25.2256 122.067L25.3818 121.911C25.3849 121.908 25.3875 121.904 25.3906 121.901C25.3937 121.898 25.3973 121.896 25.4004 121.893L25.6494 121.644C25.6528 121.64 25.6558 121.636 25.6592 121.633C25.6626 121.629 25.6665 121.626 25.6699 121.623L25.6807 121.612C25.6841 121.609 25.687 121.605 25.6904 121.602C25.6939 121.598 25.6978 121.595 25.7012 121.592L25.7227 121.57C25.7261 121.567 25.729 121.563 25.7324 121.56C25.7358 121.556 25.7398 121.553 25.7432 121.55L26.3516 120.941C26.3555 120.937 26.3593 120.933 26.3633 120.929C26.3673 120.925 26.372 120.921 26.376 120.917L26.5322 120.761C26.5363 120.757 26.5399 120.752 26.544 120.748C26.548 120.744 26.5526 120.74 26.5567 120.736C26.5607 120.732 26.5643 120.728 26.5684 120.724C26.5724 120.72 26.577 120.716 26.5811 120.712L26.6426 120.65C26.6467 120.646 26.6502 120.642 26.6543 120.638C26.6584 120.634 26.6629 120.63 26.667 120.626L26.6797 120.613C26.6838 120.609 26.6873 120.605 26.6914 120.601C26.6955 120.597 26.7 120.593 26.7041 120.589L26.7793 120.514C26.7834 120.51 26.787 120.505 26.791 120.501C26.7951 120.497 26.7997 120.493 26.8037 120.489L26.8672 120.426C26.8713 120.422 26.8748 120.417 26.8789 120.413C26.883 120.409 26.8876 120.405 26.8916 120.401L27.0186 120.274C27.0228 120.27 27.027 120.265 27.0313 120.261C27.0355 120.257 27.0407 120.252 27.0449 120.248L27.1211 120.172C27.1254 120.168 27.1295 120.163 27.1338 120.158C27.1381 120.154 27.1432 120.15 27.1475 120.146L27.1856 120.107C27.1899 120.103 27.1939 120.098 27.1983 120.094C27.2025 120.089 27.2076 120.085 27.2119 120.081L27.4326 119.86C27.437 119.856 27.441 119.851 27.4453 119.847C27.4497 119.842 27.4546 119.838 27.459 119.834L27.5244 119.769C27.5288 119.764 27.5327 119.759 27.5371 119.755C27.5415 119.751 27.5464 119.747 27.5508 119.742L27.7354 119.558C27.7397 119.553 27.7437 119.548 27.7481 119.544C27.7525 119.54 27.7573 119.536 27.7617 119.531L27.793 119.5L25.1465 116.854C24.9512 116.658 24.9512 116.342 25.1465 116.146C25.3418 115.951 25.6583 115.951 25.8535 116.146L28.5 118.793L28.5313 118.762C28.5357 118.757 28.5396 118.752 28.544 118.748C28.5483 118.744 28.5532 118.74 28.5576 118.735L28.7422 118.551C28.7466 118.546 28.7505 118.541 28.7549 118.537C28.7593 118.533 28.7642 118.529 28.7686 118.524L28.834 118.459C28.8384 118.455 28.8423 118.45 28.8467 118.445C28.8511 118.441 28.856 118.437 28.8604 118.433L29.0811 118.212C29.0854 118.208 29.0895 118.203 29.0938 118.198C29.0981 118.194 29.1031 118.19 29.1074 118.186L29.1455 118.147C29.1498 118.143 29.1539 118.138 29.1582 118.134C29.1625 118.13 29.1676 118.125 29.1719 118.121L29.2481 118.045C29.2523 118.041 29.2565 118.036 29.2608 118.031C29.265 118.027 29.2702 118.023 29.2744 118.019L29.4014 117.892C29.4054 117.888 29.409 117.883 29.4131 117.879C29.4172 117.875 29.4217 117.871 29.4258 117.867L29.4893 117.804C29.4933 117.8 29.4969 117.795 29.501 117.791C29.5051 117.787 29.5096 117.783 29.5137 117.779L29.5889 117.704C29.593 117.7 29.5965 117.695 29.6006 117.691C29.6047 117.687 29.6092 117.684 29.6133 117.68L29.626 117.667C29.6301 117.663 29.6336 117.658 29.6377 117.654C29.6418 117.65 29.6463 117.647 29.6504 117.643L29.7119 117.581C29.716 117.577 29.7196 117.572 29.7236 117.568C29.7277 117.564 29.7323 117.561 29.7363 117.557C29.7404 117.553 29.744 117.548 29.7481 117.544C29.7521 117.54 29.7567 117.536 29.7608 117.532L29.917 117.376C29.921 117.372 29.9248 117.367 29.9287 117.363C29.9327 117.359 29.9375 117.356 29.9414 117.352L30.5498 116.743C30.5532 116.74 30.5562 116.736 30.5596 116.732C30.563 116.729 30.5669 116.726 30.5703 116.723L30.5918 116.701C30.5952 116.698 30.5982 116.694 30.6016 116.69C30.605 116.687 30.6089 116.684 30.6123 116.681L30.6231 116.67C30.6265 116.667 30.6294 116.663 30.6328 116.659C30.6362 116.656 30.6402 116.653 30.6436 116.649L30.8926 116.4C30.8957 116.397 30.8983 116.394 30.9014 116.391C30.9045 116.388 30.9081 116.385 30.9111 116.382L31.0674 116.226C31.0704 116.223 31.0732 116.219 31.0762 116.216C31.0791 116.213 31.083 116.21 31.0859 116.207L31.1123 116.181C31.1151 116.178 31.1174 116.175 31.1201 116.172C31.1229 116.169 31.1262 116.167 31.1289 116.164L31.1465 116.146Z" fill="currentColor"/>
  <path d="M31 113C31.6788 113 32.2887 112.998 32.7793 113.063C33.2986 113.133 33.8312 113.296 34.2676 113.732C34.704 114.169 34.8667 114.701 34.9365 115.221C35.0025 115.711 35 116.321 35 117V122C35 122.679 35.0025 123.289 34.9365 123.779C34.8667 124.299 34.704 124.831 34.2676 125.268C33.8312 125.704 33.2986 125.867 32.7793 125.937C32.2887 126.002 31.6788 126 31 126H26C25.3212 126 24.7113 126.002 24.2207 125.937C23.7014 125.867 23.1688 125.704 22.7324 125.268C22.296 124.831 22.1333 124.299 22.0635 123.779C21.9975 123.289 22 122.679 22 122V117C22 116.321 21.9975 115.711 22.0635 115.221C22.1333 114.701 22.296 114.169 22.7324 113.732C23.1688 113.296 23.7014 113.133 24.2207 113.063C24.7113 112.998 25.3212 113 26 113H31ZM26 114C24.5858 114 23.8788 114 23.4395 114.439L23.3623 114.525C23.0004 114.97 23 115.674 23 117V122C23 123.414 23.0001 124.121 23.4395 124.561C23.8788 125 24.5858 125 26 125H31C32.4142 125 33.1212 125 33.5606 124.561C33.9999 124.121 34 123.414 34 122V117C34 115.674 33.9996 114.97 33.6377 114.525L33.5606 114.439C33.1212 114 32.4142 114 31 114H26Z" fill="currentColor"/>
</svg>
