<svg xmlns="http://www.w3.org/2000/svg" width="16" height="16" viewBox="21.0 112.0 15.0 15.0" fill="none">
  <path d="M27.1465 115.146C27.3417 114.951 27.6583 114.951 27.8535 115.146C28.0488 115.342 28.0488 115.658 27.8535 115.854L25.707 118.001H29.5C30.8807 118.001 32 119.12 32 120.501V123.5C32 123.776 31.7762 124 31.5 124C31.2239 124 31 123.776 31 123.5V120.501C31 119.673 30.3284 119.001 29.5 119.001H25.707L27.8535 121.146C28.0488 121.342 28.0488 121.658 27.8535 121.854C27.6583 122.049 27.3418 122.049 27.1465 121.854L24.1465 118.855C24.0528 118.761 24.0001 118.634 24 118.501C24 118.368 24.0528 118.241 24.1465 118.147L27.1465 115.146Z" fill="currentColor"/>
  <path d="M31 113C31.6788 113 32.2887 112.998 32.7793 113.063C33.2986 113.133 33.8312 113.296 34.2676 113.732C34.704 114.169 34.8667 114.701 34.9365 115.221C35.0025 115.711 35 116.321 35 117V122C35 122.679 35.0025 123.289 34.9365 123.779C34.8667 124.299 34.704 124.831 34.2676 125.268C33.8312 125.704 33.2986 125.867 32.7793 125.937C32.2887 126.002 31.6788 126 31 126H26C25.3212 126 24.7113 126.002 24.2207 125.937C23.7014 125.867 23.1688 125.704 22.7324 125.268C22.296 124.831 22.1333 124.299 22.0635 123.779C21.9975 123.289 22 122.679 22 122V117C22 116.321 21.9975 115.711 22.0635 115.221C22.1333 114.701 22.296 114.169 22.7324 113.732C23.1688 113.296 23.7014 113.133 24.2207 113.063C24.7113 112.998 25.3212 113 26 113H31ZM26 114C24.5858 114 23.8788 114 23.4395 114.439L23.3623 114.525C23.0004 114.97 23 115.674 23 117V122C23 123.414 23.0001 124.121 23.4395 124.561C23.8788 125 24.5858 125 26 125H31C32.4142 125 33.1212 125 33.5606 124.561C33.9999 124.121 34 123.414 34 122V117C34 115.674 33.9996 114.97 33.6377 114.525L33.5606 114.439C33.1212 114 32.4142 114 31 114H26Z" fill="currentColor"/>
</svg>
