<svg xmlns="http://www.w3.org/2000/svg" width="16" height="16" viewBox="20.0 111.0 16.01 16.01" fill="none">
  <path d="M33.5 113C33.7215 113 33.938 112.999 34.1152 113.022C34.3068 113.048 34.5254 113.111 34.707 113.293C34.8886 113.475 34.9518 113.693 34.9776 113.885C35.0014 114.062 35 114.278 35 114.5V117.086C35 117.25 35.0088 117.471 34.9238 117.676C34.8389 117.881 34.6762 118.031 34.5606 118.146L28.1465 124.561C28.0309 124.676 27.8808 124.839 27.6758 124.924C27.4707 125.009 27.2495 125 27.086 125H22.5C22.2785 125 22.062 125.001 21.8848 124.978C21.6932 124.952 21.4746 124.889 21.293 124.707C21.1114 124.525 21.0482 124.307 21.0225 124.115C20.9987 123.938 21 123.722 21 123.5V121.5C21 121.278 20.9987 121.062 21.0225 120.885C21.0482 120.693 21.1114 120.475 21.293 120.293L21.3623 120.23C21.5285 120.096 21.717 120.045 21.8848 120.022C22.062 119.999 22.2785 120 22.5 120H24.5C24.7498 120 24.8873 119.999 24.9824 119.986L24.9854 119.985L24.9863 119.982C24.9991 119.887 25 119.75 25 119.5V117.5C25 117.278 24.9987 117.062 25.0225 116.885C25.0482 116.693 25.1114 116.475 25.293 116.293L25.3623 116.23C25.5285 116.096 25.717 116.045 25.8848 116.022C26.062 115.999 26.2785 116 26.5 116H28.5C28.7498 116 28.8873 115.999 28.9824 115.986L28.9854 115.985L28.9863 115.982C28.9991 115.887 29 115.75 29 115.5V114.5C29 114.278 28.9987 114.062 29.0225 113.885C29.0482 113.693 29.1114 113.475 29.293 113.293L29.3623 113.23C29.5285 113.096 29.717 113.045 29.8848 113.022C30.062 112.999 30.2785 113 30.5 113H33.5ZM30.5 114C30.2502 114 30.1127 114.001 30.0176 114.014H30.0137V114.018C30.0009 114.113 30 114.25 30 114.5V115.5C30 115.722 30.0014 115.938 29.9776 116.115C29.9518 116.307 29.8887 116.525 29.707 116.707C29.5254 116.889 29.3068 116.952 29.1152 116.978C28.938 117.001 28.7215 117 28.5 117H26.5C26.2502 117 26.1127 117.001 26.0176 117.014H26.0137V117.018C26.0009 117.113 26 117.25 26 117.5V119.5C26 119.722 26.0014 119.938 25.9776 120.115C25.9518 120.307 25.8887 120.525 25.707 120.707C25.5254 120.889 25.3068 120.952 25.1152 120.978C24.938 121.001 24.7215 121 24.5 121H22.5C22.2502 121 22.1127 121.001 22.0176 121.014H22.0137V121.018C22.0009 121.113 22 121.25 22 121.5V123.5C22 123.75 22.0009 123.887 22.0137 123.982V123.985L22.0176 123.986C22.1127 123.999 22.2502 124 22.5 124H27.086C27.1951 124 27.2498 124 27.2891 123.997L27.2901 123.996L27.293 123.995C27.3229 123.969 27.362 123.931 27.4395 123.854L33.8535 117.439C33.931 117.362 33.9694 117.323 33.9951 117.293L33.9961 117.29L33.9971 117.289C34.0001 117.25 34 117.195 34 117.086V114.5C34 114.25 33.9991 114.113 33.9863 114.018L33.9854 114.014H33.9824C33.8873 114.001 33.7498 114 33.5 114H30.5Z" fill="currentColor"/>
</svg>
