<svg xmlns="http://www.w3.org/2000/svg" width="16" height="16" viewBox="19.91 111.04 16.19 16.19" fill="none">
  <path d="M28.1514 112.327C28.4815 112.385 28.6966 112.629 28.836 112.833C28.9983 113.071 29.1627 113.413 29.3506 113.798L30.5196 116.194L33.2032 116.644C33.6159 116.713 33.9825 116.774 34.252 116.86C34.5181 116.946 34.8581 117.11 34.9786 117.501C35.0987 117.892 34.9102 118.219 34.7383 118.439C34.5641 118.663 34.294 118.919 33.9913 119.208L32.1475 120.969L32.6104 123.695C32.6807 124.11 32.7447 124.477 32.751 124.761C32.7573 125.041 32.7136 125.417 32.3819 125.659C32.0502 125.901 31.6789 125.828 31.4141 125.736C31.1457 125.644 30.8147 125.471 30.4415 125.277L28.0059 124.016L25.6456 125.28C25.2608 125.486 24.9217 125.669 24.6475 125.769C24.3799 125.865 23.9992 125.947 23.6602 125.698C23.3211 125.449 23.285 125.062 23.2969 124.777C23.3092 124.486 23.3827 124.108 23.4639 123.679L23.9639 121.032L22.0362 119.212C21.7296 118.923 21.4568 118.667 21.2803 118.443C21.1064 118.223 20.9136 117.897 21.0332 117.503C21.153 117.109 21.4948 116.944 21.7618 116.858C22.0326 116.771 22.4017 116.711 22.8174 116.642L25.4844 116.194L26.6543 113.798C26.8423 113.412 27.0076 113.071 27.17 112.833C27.3293 112.6 27.5869 112.314 28.003 112.314L28.1514 112.327ZM27.9961 113.396C27.8849 113.559 27.7567 113.82 27.5538 114.236L26.2715 116.864C26.2008 117.009 26.0635 117.112 25.9043 117.139L22.9825 117.628C22.5334 117.703 22.2527 117.751 22.0684 117.811C22.0651 117.812 22.0618 117.813 22.0586 117.814C22.0606 117.817 22.0624 117.821 22.0645 117.823C22.1846 117.975 22.3907 118.172 22.7217 118.484L24.8497 120.492C24.9733 120.609 25.0296 120.781 24.9981 120.948L24.4463 123.865C24.3589 124.327 24.3044 124.618 24.2959 124.819C24.2958 124.823 24.2961 124.827 24.2959 124.831C24.2995 124.83 24.3039 124.829 24.3077 124.828C24.4967 124.76 24.7584 124.62 25.1729 124.398L27.7666 123.01C27.9118 122.932 28.0863 122.931 28.2325 123.007L30.9014 124.39C31.3048 124.599 31.5579 124.728 31.7403 124.791C31.7433 124.792 31.7471 124.792 31.75 124.793C31.75 124.79 31.751 124.786 31.751 124.783C31.7467 124.59 31.701 124.31 31.625 123.862L31.1182 120.874C31.0906 120.71 31.1458 120.544 31.2657 120.43L33.3008 118.485C33.6279 118.173 33.831 117.977 33.9493 117.825C33.9515 117.822 33.953 117.818 33.9551 117.815C33.9522 117.814 33.9485 117.813 33.9454 117.812C33.7625 117.753 33.4841 117.705 33.0381 117.63L30.1006 117.139C29.9416 117.112 29.8052 117.009 29.7344 116.864L28.4522 114.236C28.2494 113.821 28.1209 113.559 28.0098 113.396C28.0078 113.393 28.005 113.391 28.003 113.388C28.0009 113.391 27.9983 113.393 27.9961 113.396Z" fill="currentColor"/>
</svg>
