<svg xmlns="http://www.w3.org/2000/svg" width="16" height="16" viewBox="20.0 110.0 17.0 17.0" fill="none">
  <path d="M28.5 115C28.7761 115 29 115.224 29 115.5V119.5C29 119.776 28.7761 120 28.5 120C28.2239 120 28 119.776 28 119.5V115.5C28 115.224 28.2239 115 28.5 115Z" fill="currentColor"/>
  <path d="M32.1465 113.146C32.3417 112.951 32.6583 112.951 32.8535 113.146C33.0488 113.342 33.0488 113.658 32.8535 113.854L32.4033 114.303C33.98 115.489 35 117.375 35 119.5C35 123.09 32.0899 126 28.5 126C24.9101 126 22 123.09 22 119.5C22 115.91 24.9101 113 28.5 113C29.5979 113 30.6321 113.272 31.5391 113.753L32.1465 113.146ZM28.5 114C25.4624 114 23 116.462 23 119.5C23 122.538 25.4624 125 28.5 125C31.5376 125 34 122.538 34 119.5C34 116.462 31.5376 114 28.5 114Z" fill="currentColor"/>
  <path d="M29.5 111C29.7761 111 30 111.224 30 111.5C30 111.776 29.7761 112 29.5 112H27.5C27.2239 112 27 111.776 27 111.5C27 111.224 27.2239 111 27.5 111H29.5Z" fill="currentColor"/>
</svg>
