<svg xmlns="http://www.w3.org/2000/svg" width="16" height="16" viewBox="20.0 111.0 16.0 16.0" fill="none">
  <path d="M33.5 122C33.7215 122 33.938 121.999 34.1152 122.022C34.3068 122.048 34.5254 122.111 34.707 122.293C34.8886 122.475 34.9518 122.693 34.9775 122.885C35.0014 123.062 35 123.278 35 123.5C35 123.722 35.0014 123.938 34.9775 124.115C34.9518 124.307 34.8886 124.525 34.707 124.707C34.5254 124.889 34.3068 124.952 34.1152 124.978C33.938 125.001 33.7215 125 33.5 125H30.5C30.2785 125 30.062 125.001 29.8848 124.978C29.6932 124.952 29.4746 124.889 29.293 124.707C29.1114 124.525 29.0482 124.307 29.0225 124.115C28.9986 123.938 29 123.722 29 123.5C29 123.278 28.9986 123.062 29.0225 122.885C29.0482 122.693 29.1114 122.475 29.293 122.293C29.4746 122.111 29.6932 122.048 29.8848 122.022C30.062 121.999 30.2785 122 30.5 122H33.5ZM30.5 123C30.2502 123 30.1127 123.001 30.0176 123.014H30.0137V123.018C30.0009 123.113 30 123.25 30 123.5C30 123.75 30.0009 123.887 30.0137 123.982V123.985L30.0176 123.986C30.1127 123.999 30.2502 124 30.5 124H33.5C33.7498 124 33.8873 123.999 33.9824 123.986L33.9854 123.985L33.9863 123.982C33.9991 123.887 34 123.75 34 123.5C34 123.25 33.9991 123.113 33.9863 123.018L33.9854 123.014H33.9824C33.8873 123.001 33.7498 123 33.5 123H30.5Z" fill="currentColor"/>
  <path d="M23.5 115C23.7761 115 24 115.224 24 115.5V118.5C24 118.776 23.7761 119 23.5 119C23.2239 119 23 118.776 23 118.5V115.5C23 115.224 23.2239 115 23.5 115Z" fill="currentColor"/>
  <path d="M31.5 113C32.193 113 32.7634 112.999 33.2129 113.06C33.6767 113.122 34.0861 113.258 34.4141 113.586C34.742 113.914 34.878 114.323 34.9404 114.787C35.0009 115.237 35 115.807 35 116.5V117.5C35 118.193 35.0009 118.763 34.9404 119.213C34.878 119.677 34.742 120.086 34.4141 120.414C34.0861 120.742 33.6767 120.878 33.2129 120.94C32.7634 121.001 32.193 121 31.5 121H24.5C23.807 121 23.2366 121.001 22.7871 120.94C22.3234 120.878 21.9139 120.742 21.5859 120.414C21.258 120.086 21.122 119.677 21.0596 119.213C20.9991 118.763 21 118.193 21 117.5V116.5C21 115.807 20.9991 115.237 21.0596 114.787C21.122 114.323 21.258 113.914 21.5859 113.586C21.9139 113.258 22.3234 113.122 22.7871 113.06C23.2366 112.999 23.807 113 24.5 113H31.5ZM24.5 114C23.7788 114 23.2883 114.001 22.9209 114.051C22.5679 114.098 22.4043 114.182 22.293 114.293C22.1817 114.404 22.0982 114.568 22.0508 114.921C22.0014 115.288 22 115.779 22 116.5V117.5C22 118.221 22.0014 118.712 22.0508 119.079C22.0982 119.432 22.1817 119.596 22.293 119.707C22.4043 119.818 22.5679 119.902 22.9209 119.949C23.2883 119.999 23.7788 120 24.5 120H31.5C32.2212 120 32.7117 119.999 33.0791 119.949C33.4321 119.902 33.5957 119.818 33.707 119.707C33.8183 119.596 33.9018 119.432 33.9492 119.079C33.9986 118.712 34 118.221 34 117.5V116.5C34 115.779 33.9986 115.288 33.9492 114.921C33.9018 114.568 33.8183 114.404 33.707 114.293C33.5957 114.182 33.4321 114.098 33.0791 114.051C32.7117 114.001 32.2212 114 31.5 114H24.5Z" fill="currentColor"/>
</svg>
