<svg xmlns="http://www.w3.org/2000/svg" width="16" height="16" viewBox="20.0 111.5 16.0 16.0" fill="none">
  <path d="M33.5 123C33.7215 123 33.938 122.999 34.1152 123.022C34.3068 123.048 34.5254 123.111 34.707 123.293C34.8886 123.475 34.9518 123.693 34.9775 123.885C35.0014 124.062 35 124.278 35 124.5C35 124.722 35.0014 124.938 34.9775 125.115C34.9518 125.307 34.8886 125.525 34.707 125.707C34.5254 125.889 34.3068 125.952 34.1152 125.978C33.938 126.001 33.7215 126 33.5 126H30.5C30.2785 126 30.062 126.001 29.8848 125.978C29.6932 125.952 29.4746 125.889 29.293 125.707C29.1114 125.525 29.0482 125.307 29.0225 125.115C28.9986 124.938 29 124.722 29 124.5C29 124.278 28.9986 124.062 29.0225 123.885C29.0482 123.693 29.1114 123.475 29.293 123.293C29.4746 123.111 29.6932 123.048 29.8848 123.022C30.062 122.999 30.2785 123 30.5 123H33.5ZM30.5 124C30.2502 124 30.1127 124.001 30.0176 124.014H30.0137V124.018C30.0009 124.113 30 124.25 30 124.5C30 124.75 30.0009 124.887 30.0137 124.982V124.985L30.0176 124.986C30.1127 124.999 30.2502 125 30.5 125H33.5C33.7498 125 33.8873 124.999 33.9824 124.986L33.9854 124.985L33.9863 124.982C33.9991 124.887 34 124.75 34 124.5C34 124.25 33.9991 124.113 33.9863 124.018L33.9854 124.014H33.9824C33.8873 124.001 33.7498 124 33.5 124H30.5Z" fill="currentColor"/>
  <path d="M25.5 115C25.7761 115 26 115.224 26 115.5V117.5C26 117.776 25.7761 118 25.5 118C25.2239 118 25 117.776 25 117.5V115.5C25 115.224 25.2239 115 25.5 115Z" fill="currentColor"/>
  <path d="M32.792 113.006C33.0319 113.012 33.2478 113.024 33.4385 113.05C33.8342 113.103 34.1959 113.221 34.4873 113.513C34.7787 113.804 34.897 114.166 34.9502 114.562C35.0015 114.943 35 115.425 35 116V117C35 117.575 35.0015 118.057 34.9502 118.438C34.897 118.834 34.7787 119.196 34.4873 119.487C34.1959 119.779 33.8342 119.897 33.4385 119.95C33.3005 119.969 33.1493 119.978 32.9854 119.985C32.9788 120.149 32.9688 120.3 32.9502 120.438C32.897 120.834 32.7787 121.196 32.4873 121.487C32.1959 121.779 31.8342 121.897 31.4385 121.95C31.057 122.001 30.5751 122 30 122H24C23.4249 122 22.943 122.001 22.5615 121.95C22.1658 121.897 21.8041 121.779 21.5127 121.487C21.2213 121.196 21.103 120.834 21.0498 120.438C20.9985 120.057 21 119.575 21 119V118C21 117.425 20.9985 116.943 21.0498 116.562C21.103 116.166 21.2213 115.804 21.5127 115.513C21.8041 115.221 22.1658 115.103 22.5615 115.05C22.6993 115.031 22.8501 115.02 23.0137 115.013C23.021 114.85 23.0313 114.699 23.0498 114.562C23.103 114.166 23.2213 113.804 23.5127 113.513C23.8041 113.221 24.1658 113.103 24.5615 113.05C24.943 112.999 25.4249 113 26 113H32L32.792 113.006ZM23 116.015C22.8871 116.02 22.7864 116.029 22.6953 116.041C22.4104 116.079 22.2944 116.145 22.2197 116.22C22.1451 116.294 22.0793 116.41 22.041 116.695C22.0008 116.995 22 117.397 22 118V119C22 119.603 22.0008 120.005 22.041 120.305C22.0793 120.59 22.1451 120.706 22.2197 120.78C22.2944 120.855 22.4104 120.921 22.6953 120.959C22.9946 120.999 23.3968 121 24 121H30C30.6032 121 31.0054 120.999 31.3047 120.959C31.5896 120.921 31.7056 120.855 31.7803 120.78C31.855 120.706 31.9207 120.59 31.959 120.305C31.9712 120.214 31.9789 120.113 31.9844 120H26C25.4249 120 24.943 120.001 24.5615 119.95C24.1658 119.897 23.8041 119.779 23.5127 119.487C23.2213 119.196 23.103 118.834 23.0498 118.438C22.9985 118.057 23 117.575 23 117V116.015ZM26 114C25.3968 114 24.9946 114.001 24.6953 114.041C24.4104 114.079 24.2944 114.145 24.2197 114.22C24.1451 114.294 24.0793 114.41 24.041 114.695C24.0008 114.995 24 115.397 24 116V117C24 117.603 24.0008 118.005 24.041 118.305C24.0793 118.59 24.1451 118.706 24.2197 118.78C24.2944 118.855 24.4104 118.921 24.6953 118.959C24.9946 118.999 25.3968 119 26 119H32C32.6032 119 33.0054 118.999 33.3047 118.959C33.5896 118.921 33.7056 118.855 33.7803 118.78C33.855 118.706 33.9207 118.59 33.959 118.305C33.9992 118.005 34 117.603 34 117V116C34 115.397 33.9992 114.995 33.959 114.695C33.9207 114.41 33.855 114.294 33.7803 114.22C33.7056 114.145 33.5896 114.079 33.3047 114.041C33.1551 114.021 32.9798 114.011 32.7666 114.006L32 114H26Z" fill="currentColor"/>
</svg>
