<svg xmlns="http://www.w3.org/2000/svg" width="16" height="16" viewBox="20.0 111.0 16.0 16.0" fill="none">
  <path d="M32.3691 122C32.3546 122.174 32.3318 122.348 32.2959 122.522C31.8834 124.526 30.1137 126 28.0518 126H27.9863C26.2724 126 24.7278 124.966 24.0752 123.381C23.8649 122.87 24.1085 122.286 24.6191 122.075C25.1298 121.865 25.7145 122.108 25.9248 122.619C26.2688 123.455 27.0829 124 27.9863 124H28.0518C29.1483 124 30.1125 123.209 30.3369 122.119C30.3451 122.079 30.3513 122.04 30.3574 122H32.3691Z" fill="currentColor"/>
  <path d="M28.1182 112C29.497 112 30.7574 112.779 31.374 114.013L31.3945 114.053C31.6415 114.547 31.4412 115.148 30.9473 115.395C30.4533 115.642 29.8525 115.441 29.6055 114.947L29.585 114.907C29.3071 114.351 28.7395 114 28.1182 114H28.043C27.3179 114 26.6905 114.504 26.5332 115.212C26.3471 116.05 26.8791 116.879 27.7188 117.06L28.9219 117.317C29.5047 117.442 30.034 117.679 30.4941 118H33C33.5523 118 34 118.448 34 119C34 119.552 33.5523 120 33 120H23C22.4477 120 22 119.552 22 119C22 118.448 22.4477 118 23 118H25.4805C24.6905 117.173 24.314 115.979 24.5811 114.777C24.9418 113.155 26.3807 112 28.043 112H28.1182Z" fill="currentColor"/>
</svg>
