<svg xmlns="http://www.w3.org/2000/svg" width="16" height="16" viewBox="20.0 110.52 17.0 17.0" fill="none">
  <path d="M31.1465 122.146C31.3417 121.951 31.6583 121.951 31.8535 122.146C32.0488 122.342 32.0488 122.658 31.8535 122.854L28.8535 125.854C28.6583 126.049 28.3417 126.049 28.1465 125.854L25.1465 122.854C24.9512 122.658 24.9512 122.342 25.1465 122.146C25.3417 121.951 25.6583 121.951 25.8535 122.146L28.5 124.793L31.1465 122.146Z" fill="currentColor"/>
  <path d="M28.5 115C29.0909 115 29.6758 115.117 30.2217 115.343C30.7676 115.569 31.2638 115.9 31.6816 116.318C32.0995 116.736 32.4311 117.232 32.6572 117.778C32.8192 118.17 32.9237 118.581 32.9707 119H35.5C35.7761 119 36 119.224 36 119.5C36 119.776 35.7761 120 35.5 120H21.5C21.2239 120 21 119.776 21 119.5C21 119.224 21.2239 119 21.5 119H24.0293C24.0763 118.581 24.1808 118.17 24.3428 117.778C24.5689 117.232 24.9005 116.736 25.3184 116.318C25.7362 115.9 26.2324 115.569 26.7783 115.343C27.3242 115.117 27.9091 115 28.5 115ZM28.5 116C28.0404 116 27.5848 116.091 27.1602 116.267C26.7357 116.442 26.3503 116.701 26.0254 117.025C25.7005 117.35 25.4425 117.736 25.2666 118.16C25.1549 118.43 25.0777 118.712 25.0361 119H31.9639C31.9223 118.712 31.8451 118.43 31.7334 118.16C31.5575 117.736 31.2995 117.35 30.9746 117.025C30.6497 116.701 30.2643 116.442 29.8398 116.267C29.4152 116.091 28.9596 116 28.5 116Z" fill="currentColor"/>
  <path d="M23.1465 114.146C23.3417 113.951 23.6582 113.951 23.8535 114.146L24.6035 114.896C24.7988 115.092 24.7988 115.408 24.6035 115.604C24.4083 115.799 24.0917 115.799 23.8965 115.604L23.1465 114.854C22.9513 114.658 22.9512 114.342 23.1465 114.146Z" fill="currentColor"/>
  <path d="M33.1465 114.146C33.3417 113.951 33.6583 113.951 33.8535 114.146C34.0488 114.342 34.0488 114.658 33.8535 114.854L33.1035 115.604C32.9082 115.799 32.5917 115.799 32.3965 115.604C32.2012 115.408 32.2013 115.092 32.3965 114.896L33.1465 114.146Z" fill="currentColor"/>
  <path d="M28.5 112C28.7761 112 29 112.224 29 112.5V113.5C29 113.776 28.7761 114 28.5 114C28.2239 114 28 113.776 28 113.5V112.5C28 112.224 28.2239 112 28.5 112Z" fill="currentColor"/>
</svg>
