<svg xmlns="http://www.w3.org/2000/svg" width="16" height="16" viewBox="19.0 111.0 17.0 17.0" fill="none">
  <path d="M27.5 125C27.7761 125 28 125.224 28 125.5V126.5C28 126.776 27.7761 127 27.5 127C27.2239 127 27 126.776 27 126.5V125.5C27 125.224 27.2239 125 27.5 125Z" fill="currentColor"/>
  <path d="M22.8965 123.396C23.0917 123.201 23.4083 123.201 23.6035 123.396C23.7988 123.592 23.7988 123.908 23.6035 124.104L22.8535 124.854C22.6582 125.049 22.3417 125.049 22.1465 124.854C21.9512 124.658 21.9513 124.342 22.1465 124.146L22.8965 123.396Z" fill="currentColor"/>
  <path d="M31.3965 123.396C31.5917 123.201 31.9082 123.201 32.1035 123.396L32.8535 124.146C33.0488 124.342 33.0488 124.658 32.8535 124.854C32.6583 125.049 32.3417 125.049 32.1465 124.854L31.3965 124.104C31.2013 123.908 31.2012 123.592 31.3965 123.396Z" fill="currentColor"/>
  <path d="M27.5 115C29.9853 115 32 117.015 32 119.5C32 121.985 29.9853 124 27.5 124C25.0147 124 23 121.985 23 119.5C23 117.015 25.0147 115 27.5 115ZM27.5 116C25.567 116 24 117.567 24 119.5C24 121.433 25.567 123 27.5 123C29.433 123 31 121.433 31 119.5C31 117.567 29.433 116 27.5 116Z" fill="currentColor"/>
  <path d="M21.5 119C21.7761 119 22 119.224 22 119.5C22 119.776 21.7761 120 21.5 120H20.5C20.2239 120 20 119.776 20 119.5C20 119.224 20.2239 119 20.5 119H21.5Z" fill="currentColor"/>
  <path d="M34.5 119C34.7761 119 35 119.224 35 119.5C35 119.776 34.7761 120 34.5 120H33.5C33.2239 120 33 119.776 33 119.5C33 119.224 33.2239 119 33.5 119H34.5Z" fill="currentColor"/>
  <path d="M22.1465 114.146C22.3417 113.951 22.6582 113.951 22.8535 114.146L23.6035 114.896C23.7988 115.092 23.7988 115.408 23.6035 115.604C23.4083 115.799 23.0917 115.799 22.8965 115.604L22.1465 114.854C21.9513 114.658 21.9512 114.342 22.1465 114.146Z" fill="currentColor"/>
  <path d="M32.1465 114.146C32.3417 113.951 32.6583 113.951 32.8535 114.146C33.0488 114.342 33.0488 114.658 32.8535 114.854L32.1035 115.604C31.9082 115.799 31.5917 115.799 31.3965 115.604C31.2012 115.408 31.2013 115.092 31.3965 114.896L32.1465 114.146Z" fill="currentColor"/>
  <path d="M27.5 112C27.7761 112 28 112.224 28 112.5V113.5C28 113.776 27.7761 114 27.5 114C27.2239 114 27 113.776 27 113.5V112.5C27 112.224 27.2239 112 27.5 112Z" fill="currentColor"/>
</svg>
