<svg xmlns="http://www.w3.org/2000/svg" width="16" height="16" viewBox="19.38 110.38 17.23 17.23" fill="none">
  <path d="M34.459 117.986C34.734 117.965 34.9749 118.17 34.997 118.444C35.225 121.323 33.6265 124.161 30.8398 125.399C28.0937 126.617 24.9859 125.926 23 123.9V125.5C23 125.776 22.7761 126 22.5 126C22.2238 126 22 125.776 22 125.5V122.5C22.0001 122.224 22.2239 122 22.5 122H25.5C25.7761 122 25.9999 122.224 26 122.5C26 122.776 25.7761 123 25.5 123H23.5273C25.2166 124.89 27.9935 125.568 30.4345 124.484C32.825 123.423 34.1949 120.989 34 118.525C33.9782 118.249 34.1839 118.008 34.459 117.986Z" fill="currentColor"/>
  <path d="M26.6338 116.237C27.0282 116.014 27.4371 116.105 27.7822 116.248C28.124 116.39 28.5393 116.641 29.0283 116.935L29.6133 117.285C30.0775 117.564 30.4761 117.801 30.751 118.026C31.0306 118.256 31.2919 118.562 31.292 119C31.292 119.438 31.0306 119.744 30.751 119.974C30.4761 120.2 30.0775 120.436 29.6133 120.715L29.0293 121.066C28.5402 121.359 28.124 121.61 27.7822 121.752C27.4371 121.895 27.0281 121.986 26.6338 121.763C26.2396 121.539 26.1075 121.142 26.0527 120.773C25.9984 120.407 26 119.921 26 119.351V118.65C25.9999 118.079 25.9984 117.594 26.0527 117.228C26.1075 116.858 26.2395 116.461 26.6338 116.237ZM27.1269 117.108C27.125 117.109 27.1181 117.11 27.1045 117.136C27.0861 117.172 27.0616 117.242 27.042 117.374C27.0012 117.649 26.9999 118.045 27 118.65V119.351C27 119.955 27.0012 120.351 27.042 120.626C27.0616 120.758 27.0861 120.829 27.1045 120.864C27.118 120.891 27.1249 120.892 27.1269 120.893C27.1289 120.894 27.1334 120.899 27.1631 120.897C27.2032 120.894 27.2762 120.879 27.3994 120.828C27.6563 120.722 27.9966 120.519 28.5146 120.208L29.0986 119.858C29.5917 119.562 29.9124 119.369 30.1162 119.201C30.2136 119.121 30.2581 119.067 30.2783 119.034C30.2933 119.01 30.292 119.003 30.292 119C30.292 118.997 30.2931 118.99 30.2783 118.966C30.2581 118.934 30.2132 118.88 30.1162 118.8C29.9124 118.632 29.5917 118.439 29.0986 118.143L28.5146 117.792C27.9966 117.481 27.6563 117.279 27.3994 117.172C27.2763 117.121 27.2033 117.106 27.1631 117.104C27.1343 117.102 27.129 117.106 27.1269 117.108Z" fill="currentColor"/>
  <path d="M33.5 112C33.7761 112 33.9999 112.224 34 112.5V115.5C34 115.776 33.7761 116 33.5 116H30.5C30.2238 116 30 115.776 30 115.5C30.0001 115.224 30.2239 115 30.5 115H32.4726C30.7833 113.11 28.0064 112.433 25.5654 113.517C23.1749 114.578 21.805 117.012 22 119.477C22.0218 119.752 21.816 119.993 21.541 120.015C21.2659 120.036 21.0249 119.831 21.0029 119.556C20.7752 116.678 22.373 113.84 25.1592 112.603C27.9051 111.384 31.0138 112.075 33 114.101V112.5C33.0001 112.224 33.2239 112 33.5 112Z" fill="currentColor"/>
</svg>
