<svg xmlns="http://www.w3.org/2000/svg" width="16" height="16" viewBox="19.38 110.38 17.23 17.23" fill="none">
  <path d="M34.459 117.985C34.7341 117.963 34.975 118.169 34.9971 118.444C35.225 121.323 33.6265 124.161 30.8398 125.398C28.0938 126.617 24.9859 125.925 23 123.899V125.5C23 125.776 22.7761 126 22.5 126C22.2239 126 22 125.776 22 125.5V122.5C22.0001 122.224 22.2239 122 22.5 122H25.5C25.7761 122 25.9999 122.224 26 122.5C26 122.776 25.7761 123 25.5 123H23.5273C25.2166 124.889 27.9935 125.567 30.4346 124.484C32.8252 123.423 34.1951 120.988 34 118.523C33.9784 118.248 34.184 118.007 34.459 117.985Z" fill="currentColor"/>
  <path d="M33.5 112C33.7761 112 33.9999 112.224 34 112.5V115.5C34 115.776 33.7761 116 33.5 116H30.5C30.2239 116 30 115.776 30 115.5C30.0001 115.224 30.2239 115 30.5 115H32.4726C30.7833 113.11 28.0065 112.433 25.5654 113.516C23.1749 114.578 21.8049 117.012 22 119.476C22.0218 119.751 21.816 119.992 21.541 120.014C21.266 120.036 21.0249 119.83 21.0029 119.555C20.7751 116.677 22.373 113.839 25.1592 112.602C27.9052 111.383 31.0139 112.074 33 114.1V112.5C33.0001 112.224 33.2239 112 33.5 112Z" fill="currentColor"/>
</svg>
