<svg xmlns="http://www.w3.org/2000/svg" width="16" height="16" viewBox="20.5 111.75 16.5 16.5" fill="none">
  <path d="M33.1465 121.146C33.3417 120.951 33.6583 120.951 33.8535 121.146C34.0485 121.342 34.0486 121.658 33.8535 121.854L31.3535 124.354C31.1583 124.549 30.8418 124.549 30.6465 124.354L29.1465 122.854C28.9514 122.658 28.9513 122.342 29.1465 122.146C29.3417 121.951 29.6583 121.951 29.8535 122.146L31 123.293L33.1465 121.146Z" fill="currentColor"/>
  <path d="M31.5 118C33.9853 118 36 120.015 36 122.5C36 124.985 33.9853 127 31.5 127C29.0147 127 27 124.985 27 122.5C27 120.015 29.0147 118 31.5 118ZM31.5 119C29.567 119 28 120.567 28 122.5C28 124.433 29.567 126 31.5 126C33.433 126 35 124.433 35 122.5C35 120.567 33.433 119 31.5 119Z" fill="currentColor"/>
  <path d="M25 113C25.2761 113 25.5 113.224 25.5 113.5C25.5 113.776 25.2761 114 25 114C24.4477 114 24 114.448 24 115V117.5C24 118.098 23.7357 118.633 23.3193 119C23.7357 119.367 24 119.902 24 120.5V123C24 123.552 24.4477 124 25 124C25.2761 124 25.5 124.224 25.5 124.5C25.5 124.776 25.2761 125 25 125C23.8954 125 23 124.105 23 123V120.5C23 119.948 22.5523 119.5 22 119.5C21.7239 119.5 21.5 119.276 21.5 119C21.5 118.724 21.7239 118.5 22 118.5C22.5523 118.5 23 118.052 23 117.5V115C23 113.895 23.8954 113 25 113Z" fill="currentColor"/>
  <path d="M31 113C32.1046 113 33 113.895 33 115V117.208C32.6777 117.117 32.3435 117.054 32 117.023V115C32 114.448 31.5523 114 31 114C30.7239 114 30.5 113.776 30.5 113.5C30.5 113.224 30.7239 113 31 113Z" fill="currentColor"/>
</svg>
