<svg xmlns="http://www.w3.org/2000/svg" width="16" height="16" viewBox="20.5 111.69 16.65 16.65" fill="none">
  <path d="M33.4395 119.439C34.0252 118.854 34.9748 118.854 35.5605 119.439C36.1463 120.025 36.1463 120.975 35.5605 121.561L31.0605 126.061C31.0084 126.113 30.9453 126.153 30.876 126.178L28.6689 126.971C28.4868 127.036 28.2833 126.99 28.1465 126.854C28.0097 126.717 27.9639 126.513 28.0293 126.331L28.8223 124.124C28.8472 124.055 28.8873 123.992 28.9395 123.939L33.4395 119.439ZM29.7256 124.567L29.3291 125.671L30.4326 125.274L33.8555 121.852L33.1484 121.145L29.7256 124.567ZM34.8535 120.146C34.6583 119.951 34.3417 119.951 34.1465 120.146L33.8555 120.438L34.5625 121.145L34.8535 120.854C35.0488 120.658 35.0488 120.342 34.8535 120.146Z" fill="currentColor"/>
  <path d="M25 113C25.2761 113 25.5 113.224 25.5 113.5C25.5 113.776 25.2761 114 25 114C24.4477 114 24 114.448 24 115V117.5C24 118.098 23.7357 118.633 23.3193 119C23.7357 119.367 24 119.902 24 120.5V123C24 123.552 24.4477 124 25 124C25.2761 124 25.5 124.224 25.5 124.5C25.5 124.776 25.2761 125 25 125C23.8954 125 23 124.105 23 123V120.5C23 119.948 22.5523 119.5 22 119.5C21.7239 119.5 21.5 119.276 21.5 119C21.5 118.724 21.7239 118.5 22 118.5C22.5523 118.5 23 118.052 23 117.5V115C23 113.895 23.8954 113 25 113Z" fill="currentColor"/>
  <path d="M31 113C32.1046 113 33 113.895 33 115V117.5C33 117.811 33.1423 118.089 33.3652 118.272C33.1372 118.389 32.9232 118.542 32.7324 118.732L32.5703 118.894C32.2187 118.533 32 118.043 32 117.5V115C32 114.448 31.5523 114 31 114C30.7239 114 30.5 113.776 30.5 113.5C30.5 113.224 30.7239 113 31 113Z" fill="currentColor"/>
</svg>
