<svg xmlns="http://www.w3.org/2000/svg" width="16" height="16" viewBox="19.0 111.52 17.0 17.0" fill="none">
  <path d="M23.5 118C25.433 118 27 119.567 27 121.5C27 122.286 26.7403 123.011 26.3027 123.596L28.8535 126.146C29.0488 126.342 29.0488 126.658 28.8535 126.854C28.6583 127.049 28.3417 127.049 28.1465 126.854L25.5957 124.303C25.0114 124.74 24.2862 125 23.5 125C21.567 125 20 123.433 20 121.5C20 119.567 21.567 118 23.5 118ZM23.5 119C22.1193 119 21 120.119 21 121.5C21 122.881 22.1193 124 23.5 124C24.8807 124 26 122.881 26 121.5C26 120.119 24.8807 119 23.5 119Z" fill="currentColor"/>
  <path d="M30.5 113C31.4285 113 32.1751 112.999 32.7607 113.078C33.3608 113.159 33.8663 113.331 34.2676 113.732C34.6689 114.134 34.8412 114.639 34.9219 115.239C35.0006 115.825 35 116.572 35 117.5V120.5C35 121.428 35.0006 122.175 34.9219 122.761C34.8412 123.361 34.6689 123.866 34.2676 124.268C33.8663 124.669 33.3608 124.841 32.7607 124.922C32.1751 125.001 31.4285 125 30.5 125H29.1211L28.1211 124H30V122H27.9717C27.9899 121.836 28 121.669 28 121.5C28 121.331 27.9898 121.164 27.9717 121H30V117H26V117.758C25.6916 117.551 25.3559 117.383 25 117.257V117H22.0039C22.0037 117.083 22.0019 117.168 22.001 117.256C21.6446 117.382 21.3088 117.551 21 117.758V117.5C21 116.572 20.9994 115.825 21.0781 115.239C21.1588 114.639 21.3311 114.134 21.7324 113.732C22.1337 113.331 22.6392 113.159 23.2393 113.078C23.8249 112.999 24.5715 113 25.5 113H30.5ZM31 123.996C31.6972 123.994 32.2171 123.987 32.6279 123.932C33.1171 123.866 33.376 123.745 33.5605 123.561C33.7451 123.376 33.8659 123.117 33.9316 122.628C33.9565 122.443 33.9694 122.236 33.9795 122H31V123.996ZM31 121H33.9961C33.9966 120.843 34 120.676 34 120.5V117.5C34 117.324 33.9966 117.157 33.9961 117H31V121ZM25 114.003C24.3028 114.005 23.7829 114.013 23.3721 114.068C22.8829 114.134 22.624 114.255 22.4395 114.439C22.2549 114.624 22.1341 114.883 22.0684 115.372C22.0435 115.557 22.0306 115.764 22.0205 116H25V114.003ZM26 116H30V114H26V116ZM31 116H33.9795C33.9694 115.764 33.9565 115.557 33.9316 115.372C33.8659 114.883 33.7451 114.624 33.5605 114.439C33.376 114.255 33.1171 114.134 32.6279 114.068C32.2171 114.013 31.6972 114.005 31 114.003V116Z" fill="currentColor"/>
</svg>
