<svg xmlns="http://www.w3.org/2000/svg" width="16" height="16" viewBox="20.0 111.0 16.0 16.0" fill="none">
  <path d="M30.5 113C31.4285 113 32.1751 112.999 32.7607 113.078C33.3608 113.159 33.8663 113.331 34.2676 113.732C34.6689 114.134 34.8412 114.639 34.9219 115.239C35.0006 115.825 35 116.572 35 117.5V120.5C35 121.428 35.0006 122.175 34.9219 122.761C34.8412 123.361 34.6689 123.866 34.2676 124.268C33.8663 124.669 33.3608 124.841 32.7607 124.922C32.1751 125.001 31.4285 125 30.5 125H25.5C24.5715 125 23.8249 125.001 23.2393 124.922C22.6392 124.841 22.1337 124.669 21.7324 124.268C21.3311 123.866 21.1588 123.361 21.0781 122.761C20.9994 122.175 21 121.428 21 120.5V117.5C21 116.572 20.9994 115.825 21.0781 115.239C21.1588 114.639 21.3311 114.134 21.7324 113.732C22.1337 113.331 22.6392 113.159 23.2393 113.078C23.8249 112.999 24.5715 113 25.5 113H30.5ZM26 124H30V122H26V124ZM31 123.996C31.6972 123.994 32.2171 123.987 32.6279 123.932C33.1171 123.866 33.376 123.745 33.5605 123.561C33.7451 123.376 33.8659 123.117 33.9316 122.628C33.9565 122.443 33.9694 122.236 33.9795 122H31V123.996ZM22.0205 122C22.0306 122.236 22.0435 122.443 22.0684 122.628C22.1341 123.117 22.2549 123.376 22.4395 123.561C22.624 123.745 22.8829 123.866 23.3721 123.932C23.7829 123.987 24.3028 123.994 25 123.996V122H22.0205ZM22 117.5V120.5C22 120.676 22.0034 120.843 22.0039 121H25V117H22.0039C22.0034 117.157 22 117.324 22 117.5ZM31 121H33.9961C33.9966 120.843 34 120.676 34 120.5V117.5C34 117.324 33.9966 117.157 33.9961 117H31V121ZM26 121H30V117H26V121ZM25 114.003C24.3028 114.005 23.7829 114.013 23.3721 114.068C22.8829 114.134 22.624 114.255 22.4395 114.439C22.2549 114.624 22.1341 114.883 22.0684 115.372C22.0435 115.557 22.0306 115.764 22.0205 116H25V114.003ZM31 116H33.9795C33.9694 115.764 33.9565 115.557 33.9316 115.372C33.8659 114.883 33.7451 114.624 33.5605 114.439C33.376 114.255 33.1171 114.134 32.6279 114.068C32.2171 114.013 31.6972 114.005 31 114.003V116ZM26 116H30V114H26V116Z" fill="currentColor"/>
</svg>
