<svg xmlns="http://www.w3.org/2000/svg" width="16" height="16" viewBox="20.0 111.5 17.0 17.0" fill="none">
  <path d="M31.5 117.998C31.8396 117.998 32.1135 118.142 32.3545 118.326C32.5838 118.501 32.8363 118.754 33.126 119.044L34.9561 120.873C35.246 121.163 35.4997 121.416 35.6748 121.646C35.8587 121.887 36.0029 122.16 36.0029 122.5C36.0029 122.84 35.8587 123.113 35.6748 123.354C35.4997 123.584 35.246 123.837 34.9561 124.127L33.126 125.956C32.8363 126.246 32.5838 126.499 32.3545 126.674C32.1135 126.858 31.8396 127.002 31.5 127.002C31.1604 127.002 30.8865 126.859 30.6455 126.675C30.416 126.5 30.1631 126.245 29.873 125.955L28.0439 124.126C27.7542 123.836 27.5003 123.584 27.3252 123.354C27.1414 123.113 26.998 122.84 26.998 122.5C26.998 122.16 27.1414 121.887 27.3252 121.646C27.5003 121.416 27.7542 121.164 28.0439 120.874L29.873 119.045C30.1631 118.755 30.416 118.5 30.6455 118.325C30.8865 118.141 31.1604 117.998 31.5 117.998ZM31.5 118.998C31.4669 118.998 31.4034 119.005 31.252 119.12C31.0884 119.245 30.8898 119.442 30.5801 119.752L28.751 121.581C28.4412 121.891 28.2449 122.088 28.1201 122.252C28.0041 122.404 27.998 122.467 27.998 122.5C27.998 122.533 28.0041 122.596 28.1201 122.748C28.2449 122.912 28.4412 123.109 28.751 123.419L30.5801 125.248C30.8898 125.558 31.0884 125.755 31.252 125.88C31.4034 125.995 31.4669 126.002 31.5 126.002C31.5332 126.002 31.5963 125.996 31.748 125.88C31.9116 125.755 32.1092 125.559 32.4189 125.249L34.249 123.42C34.5585 123.11 34.755 122.913 34.8799 122.749C34.9959 122.597 35.0029 122.533 35.0029 122.5C35.0029 122.467 34.9959 122.403 34.8799 122.251C34.755 122.087 34.5585 121.89 34.249 121.58L32.4189 119.751C32.1092 119.441 31.9116 119.245 31.748 119.12C31.5963 119.004 31.5332 118.998 31.5 118.998Z" fill="currentColor"/>
  <path d="M30.5 113C31.4285 113 32.1751 112.999 32.7607 113.078C33.3608 113.159 33.8663 113.331 34.2676 113.732C34.6689 114.134 34.8412 114.639 34.9219 115.239C35.0006 115.825 35 116.572 35 117.5V119.503L34 118.503V117.5C34 117.324 33.9966 117.157 33.9961 117H31.5361C31.5241 117 31.5121 116.998 31.5 116.998C31.4879 116.998 31.4759 117 31.4639 117H31V117.058C30.5969 117.153 30.2766 117.348 30.0381 117.53C30.0251 117.54 30.013 117.551 30 117.562V117H26V121H26.5625C26.552 121.013 26.5404 121.026 26.5303 121.039C26.3483 121.278 26.1528 121.597 26.0576 122H26V122.464C25.9998 122.476 25.998 122.488 25.998 122.5C25.998 122.511 25.9998 122.522 26 122.533V124H26.5625C26.7848 124.283 27.0792 124.575 27.3369 124.833L27.5039 125H25.5C24.5715 125 23.8249 125.001 23.2393 124.922C22.6392 124.841 22.1337 124.669 21.7324 124.268C21.3311 123.866 21.1588 123.361 21.0781 122.761C20.9994 122.175 21 121.428 21 120.5V117.5C21 116.572 20.9994 115.825 21.0781 115.239C21.1588 114.639 21.3311 114.134 21.7324 113.732C22.1337 113.331 22.6392 113.159 23.2393 113.078C23.8249 112.999 24.5715 113 25.5 113H30.5ZM22.0205 122C22.0306 122.236 22.0435 122.443 22.0684 122.628C22.1341 123.117 22.2549 123.376 22.4395 123.561C22.624 123.745 22.8829 123.866 23.3721 123.932C23.7829 123.987 24.3028 123.994 25 123.996V122H22.0205ZM22 117.5V120.5C22 120.676 22.0034 120.843 22.0039 121H25V117H22.0039C22.0034 117.157 22 117.324 22 117.5ZM25 114.003C24.3028 114.005 23.7829 114.013 23.3721 114.068C22.8829 114.134 22.624 114.255 22.4395 114.439C22.2549 114.624 22.1341 114.883 22.0684 115.372C22.0435 115.557 22.0306 115.764 22.0205 116H25V114.003ZM26 116H30V114H26V116ZM31 116H33.9795C33.9694 115.764 33.9565 115.557 33.9316 115.372C33.8659 114.883 33.7451 114.624 33.5605 114.439C33.376 114.255 33.1171 114.134 32.6279 114.068C32.2171 114.013 31.6972 114.005 31 114.003V116Z" fill="currentColor"/>
</svg>
