<svg xmlns="http://www.w3.org/2000/svg" width="16" height="16" viewBox="19.99 110.99 16.01 16.01" fill="none">
  <path d="M28 117C29.1046 117 30 117.895 30 119C30 120.105 29.1046 121 28 121C26.8955 121 26 120.105 26 119C26.0001 117.895 26.8955 117 28 117Z" fill="currentColor"/>
  <path d="M26.292 111.998C27.2006 111.998 27.7843 111.991 28.3194 112.194C28.3795 112.217 28.4395 112.242 28.4981 112.269C29.0187 112.506 29.4228 112.927 30.0606 113.572L32.5469 116.089C33.2833 116.834 33.8688 117.426 34.2725 117.948C34.6834 118.48 34.9489 118.995 34.9903 119.596C35.0001 119.739 35 119.883 34.9893 120.025C34.9443 120.626 34.6749 121.138 34.2608 121.668C33.8539 122.189 33.2655 122.777 32.5245 123.519C31.7835 124.26 31.196 124.849 30.6758 125.256C30.1462 125.67 29.6338 125.939 29.0332 125.984C28.8903 125.995 28.7465 125.996 28.6036 125.986C28.0029 125.945 27.4885 125.68 26.9561 125.27C26.433 124.866 25.8409 124.28 25.0948 123.544L22.5733 121.057C21.9277 120.42 21.5076 120.016 21.2696 119.496C21.2422 119.436 21.2168 119.375 21.1934 119.314C20.9903 118.779 20.9981 118.197 20.9981 117.29C20.9981 116.226 20.997 115.381 21.0791 114.716C21.1629 114.039 21.3393 113.479 21.7422 113.02C21.8285 112.921 21.9212 112.828 22.0196 112.742C22.479 112.339 23.0386 112.163 23.7159 112.079C24.3812 111.997 25.2268 111.998 26.292 111.998ZM26.292 112.998C25.2011 112.998 24.4287 112.999 23.8389 113.072C23.2613 113.144 22.9276 113.277 22.6797 113.494C22.6141 113.552 22.5517 113.614 22.4942 113.68C22.277 113.928 22.1437 114.261 22.0723 114.838C21.9995 115.427 21.9981 116.2 21.9981 117.29C21.9981 118.272 22.0062 118.635 22.1289 118.958C22.1445 118.999 22.1615 119.04 22.1797 119.08C22.3236 119.394 22.5767 119.655 23.2754 120.345L25.7969 122.833C26.5611 123.587 27.103 124.12 27.5664 124.478C28.0203 124.828 28.3478 124.966 28.6719 124.988C28.7671 124.995 28.8629 124.995 28.958 124.987C29.282 124.963 29.6082 124.822 30.0596 124.469C30.5206 124.108 31.0584 123.571 31.8174 122.812C32.5764 122.052 33.1132 121.514 33.4737 121.053C33.8266 120.601 33.9679 120.275 33.9922 119.951C33.9994 119.856 33.9988 119.759 33.9922 119.664C33.9698 119.34 33.8306 119.013 33.4805 118.56C33.1228 118.096 32.5893 117.555 31.835 116.791L29.3496 114.275C28.6591 113.576 28.3977 113.322 28.083 113.179C28.044 113.161 28.004 113.144 27.9639 113.129C27.6405 113.006 27.2758 112.998 26.292 112.998Z" fill="currentColor"/>
</svg>
