<svg xmlns="http://www.w3.org/2000/svg" width="16" height="16" viewBox="19.99 110.99 16.01 16.01" fill="none">
  <path d="M31.6464 119.647C31.8417 119.451 32.1582 119.451 32.3534 119.647C32.5487 119.842 32.5487 120.158 32.3534 120.354L29.3534 123.354C29.1582 123.549 28.8417 123.549 28.6464 123.354C28.4512 123.158 28.4512 122.842 28.6464 122.647L31.6464 119.647Z" fill="currentColor"/>
  <path d="M29.6464 117.647C29.8417 117.451 30.1582 117.451 30.3534 117.647C30.5487 117.842 30.5487 118.158 30.3534 118.354L27.3534 121.354C27.1582 121.549 26.8417 121.549 26.6464 121.354C26.4512 121.158 26.4512 120.842 26.6464 120.647L29.6464 117.647Z" fill="currentColor"/>
  <path d="M26.2919 111.998C27.2005 111.998 27.7841 111.991 28.3193 112.194C28.3794 112.217 28.4394 112.242 28.498 112.269C29.0186 112.506 29.4227 112.927 30.0605 113.572L32.5468 116.089C33.2831 116.834 33.8687 117.426 34.2724 117.948C34.6833 118.48 34.9487 118.995 34.9902 119.596C35 119.739 34.9999 119.883 34.9892 120.025C34.9441 120.626 34.6748 121.138 34.2607 121.668C33.8538 122.189 33.2654 122.777 32.5243 123.519C31.7834 124.26 31.1959 124.849 30.6757 125.256C30.1461 125.67 29.6337 125.939 29.0331 125.984C28.8902 125.995 28.7464 125.996 28.6034 125.986C28.0027 125.945 27.4884 125.68 26.956 125.27C26.4329 124.866 25.8408 124.28 25.0946 123.544L22.5732 121.057C21.9275 120.42 21.5075 120.016 21.2694 119.496C21.2421 119.436 21.2166 119.375 21.1933 119.314C20.9902 118.779 20.998 118.197 20.998 117.29C20.998 116.226 20.9969 115.381 21.079 114.716C21.1627 114.039 21.3392 113.479 21.7421 113.02C21.8284 112.921 21.9211 112.828 22.0194 112.742C22.4789 112.339 23.0384 112.163 23.7157 112.079C24.381 111.997 25.2267 111.998 26.2919 111.998ZM26.2919 112.998C25.201 112.998 24.4285 112.999 23.8388 113.072C23.2612 113.144 22.9275 113.277 22.6796 113.494C22.614 113.552 22.5516 113.614 22.4941 113.68C22.2769 113.928 22.1435 114.261 22.0722 114.838C21.9994 115.427 21.998 116.2 21.998 117.29C21.998 118.272 22.0061 118.635 22.1288 118.958C22.1444 118.999 22.1614 119.04 22.1796 119.08C22.3235 119.394 22.5766 119.655 23.2753 120.345L25.7968 122.833C26.5609 123.587 27.1029 124.12 27.5663 124.478C28.0202 124.828 28.3476 124.966 28.6718 124.988C28.767 124.995 28.8628 124.995 28.9579 124.987C29.2819 124.963 29.6081 124.822 30.0595 124.469C30.5205 124.108 31.0583 123.571 31.8173 122.812C32.5763 122.052 33.1131 121.514 33.4736 121.053C33.8265 120.601 33.9677 120.275 33.9921 119.951C33.9992 119.856 33.9987 119.759 33.9921 119.664C33.9697 119.34 33.8305 119.013 33.4804 118.56C33.1227 118.096 32.5891 117.555 31.8349 116.791L29.3495 114.275C28.659 113.576 28.3976 113.322 28.0829 113.179C28.0439 113.161 28.0039 113.144 27.9638 113.129C27.6403 113.006 27.2756 112.998 26.2919 112.998Z" fill="currentColor"/>
</svg>
