<svg xmlns="http://www.w3.org/2000/svg" width="16" height="16" viewBox="19.99 110.99 16.01 16.01" fill="none">
  <path d="M24 114C24.5523 114 25 114.448 25 115C25 115.552 24.5523 116 24 116C23.4477 116 23 115.552 23 115C23 114.448 23.4477 114 24 114Z" fill="currentColor"/>
  <path d="M26.292 111.997C27.2005 111.997 27.7842 111.99 28.3193 112.193C28.3795 112.216 28.4394 112.241 28.498 112.268C29.0187 112.505 29.4226 112.925 30.0605 113.571L32.5469 116.088C33.2833 116.834 33.8687 117.425 34.2724 117.947C34.6835 118.48 34.9487 118.994 34.9902 119.595C35.0001 119.738 34.9999 119.882 34.9892 120.024C34.9443 120.625 34.6748 121.137 34.2607 121.667C33.8539 122.187 33.2653 122.776 32.5244 123.518C31.7836 124.259 31.1959 124.848 30.6758 125.255C30.1461 125.669 29.6337 125.938 29.0332 125.983C28.8903 125.994 28.7465 125.995 28.6035 125.985C28.0027 125.944 27.4885 125.679 26.956 125.269C26.4329 124.865 25.841 124.279 25.0947 123.543L22.5732 121.056C21.9274 120.419 21.5075 120.015 21.2695 119.495C21.2421 119.435 21.2167 119.374 21.1933 119.313C20.9904 118.778 20.998 118.196 20.998 117.289C20.998 116.225 20.9969 115.38 21.0791 114.715C21.1628 114.038 21.3393 113.478 21.7422 113.019C21.8283 112.92 21.9213 112.827 22.0195 112.741C22.4789 112.339 23.0387 112.162 23.7158 112.078C24.3811 111.996 25.2268 111.997 26.292 111.997ZM26.292 112.997C25.2012 112.997 24.4286 112.998 23.8388 113.071C23.2616 113.143 22.9275 113.276 22.6797 113.493C22.6142 113.551 22.5516 113.613 22.4941 113.679C22.2769 113.927 22.1436 114.26 22.0722 114.837C21.9994 115.426 21.998 116.199 21.998 117.289C21.998 118.271 22.0063 118.634 22.1289 118.957C22.1445 118.998 22.1614 119.039 22.1797 119.079C22.3235 119.393 22.5764 119.654 23.2754 120.344L25.7969 122.832C26.5612 123.586 27.1029 124.119 27.5664 124.477C28.0204 124.827 28.3476 124.965 28.6719 124.987C28.767 124.994 28.8629 124.994 28.958 124.986C29.282 124.962 29.6081 124.821 30.0595 124.468C30.5204 124.107 31.0585 123.57 31.8174 122.811C32.5762 122.051 33.1132 121.513 33.4736 121.052C33.8265 120.6 33.9679 120.274 33.9922 119.95C33.9993 119.855 33.9987 119.758 33.9922 119.663C33.9697 119.339 33.8307 119.012 33.4804 118.559C33.1227 118.095 32.5893 117.554 31.8349 116.79L29.3496 114.274C28.6589 113.575 28.3978 113.321 28.083 113.178C28.0439 113.16 28.004 113.143 27.9638 113.128C27.6404 113.005 27.2756 112.997 26.292 112.997Z" fill="currentColor"/>
</svg>
