<svg xmlns="http://www.w3.org/2000/svg" width="16" height="16" viewBox="19.99 111.49 16.19 16.19" fill="none">
  <path d="M26.2499 115.5C26.6642 115.5 26.9999 115.836 26.9999 116.25C26.9999 116.664 26.6641 117 26.2499 117C25.8358 117 25.5 116.664 25.4999 116.25C25.4999 115.836 25.8358 115.5 26.2499 115.5Z" fill="currentColor"/>
  <path d="M27.6464 113C28.4298 113 28.9621 112.991 29.4462 113.193C29.9303 113.396 30.2982 113.781 30.8486 114.338L33.0644 116.582C33.7128 117.239 34.2351 117.767 34.5888 118.236C34.9512 118.717 35.1832 119.195 35.1816 119.76C35.1799 120.324 34.9453 120.801 34.58 121.28C34.2236 121.748 33.6981 122.272 33.0458 122.925L32.9296 123.041C32.277 123.694 31.7524 124.221 31.2851 124.578C30.8064 124.944 30.3295 125.179 29.7646 125.181C29.7617 125.181 29.7587 125.18 29.7558 125.18C29.591 125.329 29.4357 125.463 29.2851 125.578C28.8064 125.944 28.3295 126.179 27.7646 126.181C27.1998 126.183 26.7214 125.951 26.2402 125.589C25.7704 125.235 25.2421 124.712 24.5849 124.064L22.3388 121.848C21.7811 121.297 21.3958 120.929 21.1933 120.445C20.9909 119.961 20.9999 119.428 20.9999 118.645V118.5C20.9999 117.572 20.9994 116.825 21.0781 116.239C21.1587 115.639 21.3311 115.134 21.7324 114.732C22.1336 114.331 22.6392 114.159 23.2392 114.078C23.3136 114.068 23.391 114.062 23.4706 114.055C23.5448 113.941 23.6314 113.833 23.7324 113.732C24.1336 113.331 24.6391 113.159 25.2392 113.078C25.8248 112.999 26.5715 113 27.4999 113H27.6464ZM23.0966 115.116C22.7789 115.187 22.5857 115.293 22.4394 115.44C22.2549 115.624 22.1341 115.883 22.0683 116.372C22.0006 116.876 21.9999 117.543 21.9999 118.5V118.645C21.9999 119.511 22.0091 119.804 22.1162 120.06C22.2232 120.316 22.425 120.528 23.041 121.136L25.287 123.352C25.9643 124.02 26.438 124.486 26.8417 124.79C27.2335 125.085 27.501 125.182 27.7607 125.181C28.0042 125.18 28.2531 125.092 28.6044 124.836C28.4823 124.763 28.3613 124.68 28.2402 124.589C27.7704 124.235 27.2421 123.712 26.5849 123.064L24.3388 120.848C23.7811 120.297 23.3958 119.93 23.1933 119.445C22.9909 118.961 22.9999 118.428 22.9999 117.645V117.5C22.9999 116.572 22.9994 115.825 23.0781 115.239C23.0836 115.198 23.0901 115.157 23.0966 115.116ZM27.4999 114C26.5431 114 25.8756 114.001 25.372 114.068C24.8829 114.134 24.6239 114.255 24.4394 114.44C24.2549 114.624 24.1341 114.883 24.0683 115.372C24.0006 115.876 23.9999 116.543 23.9999 117.5V117.645C23.9999 118.511 24.0091 118.804 24.1162 119.06C24.2233 119.316 24.4249 119.528 25.041 120.136L27.287 122.352C27.9643 123.02 28.438 123.486 28.8417 123.79C29.2335 124.085 29.501 124.182 29.7607 124.181C30.0206 124.18 30.2876 124.081 30.6777 123.783C31.0792 123.476 31.5492 123.008 32.2216 122.335L32.3388 122.218C33.0108 121.545 33.4788 121.075 33.7851 120.674C34.0826 120.284 34.1808 120.017 34.1816 119.757C34.1823 119.497 34.0852 119.23 33.79 118.838C33.486 118.435 33.0206 117.962 32.3525 117.285L30.1367 115.041C29.5284 114.425 29.3165 114.223 29.0605 114.116C28.8045 114.009 28.5121 114 27.6464 114H27.4999Z" fill="currentColor"/>
</svg>
