<svg xmlns="http://www.w3.org/2000/svg" width="16" height="16" viewBox="20.5 111.5 16.0 16.0" fill="none">
  <path d="M28.5 117C29.8807 117 31 118.119 31 119.5C31 120.881 29.8807 122 28.5 122C27.1193 122 26 120.881 26 119.5C26 118.119 27.1193 117 28.5 117ZM28.5 118C27.6716 118 27 118.672 27 119.5C27 120.328 27.6716 121 28.5 121C29.3284 121 30 120.328 30 119.5C30 118.672 29.3284 118 28.5 118Z" fill="currentColor"/>
  <path d="M28.5 112.5C28.7761 112.5 29 112.724 29 113V114.023C31.6385 114.261 33.7388 116.362 33.9766 119H35C35.2761 119 35.5 119.224 35.5 119.5C35.5 119.776 35.2761 120 35 120H33.9766C33.7388 122.638 31.6385 124.738 29 124.976V126C29 126.276 28.7761 126.5 28.5 126.5C28.2239 126.5 28 126.276 28 126V124.976C25.3615 124.738 23.2612 122.638 23.0234 120H22C21.7239 120 21.5 119.776 21.5 119.5C21.5 119.224 21.7239 119 22 119H23.0234C23.2612 116.362 25.3615 114.261 28 114.023V113C28 112.724 28.2239 112.5 28.5 112.5ZM28.5 115C26.0147 115 24 117.015 24 119.5C24 121.985 26.0147 124 28.5 124C30.9853 124 33 121.985 33 119.5C33 117.015 30.9853 115 28.5 115Z" fill="currentColor"/>
</svg>
