<svg xmlns="http://www.w3.org/2000/svg" width="16" height="16" viewBox="20.0 111.5 17.0 17.0" fill="none">
  <path d="M33.5 122C33.7761 122 34 122.224 34 122.5C34 122.776 33.7761 123 33.5 123H29.5C29.2239 123 29 122.776 29 122.5C29 122.224 29.2239 122 29.5 122H33.5Z" fill="currentColor"/>
  <path d="M31.5 118C33.9853 118 36 120.015 36 122.5C36 124.985 33.9853 127 31.5 127C29.0147 127 27 124.985 27 122.5C27 120.015 29.0147 118 31.5 118ZM31.5 119C29.567 119 28 120.567 28 122.5C28 124.433 29.567 126 31.5 126C33.433 126 35 124.433 35 122.5C35 120.567 33.433 119 31.5 119Z" fill="currentColor"/>
  <path d="M26.0234 123C26.0879 123.715 26.2897 124.39 26.6016 125H22C21.4477 125 21 124.552 21 124C21 123.448 21.4477 123 22 123H26.0234Z" fill="currentColor"/>
  <path d="M31 113C31.5523 113 32 113.448 32 114V115C32 115.552 31.5523 116 31 116C30.4477 116 30 115.552 30 115H27.7549L26.3115 120.05C26.3874 120.075 26.4577 120.111 26.5244 120.152C26.2557 120.721 26.0827 121.343 26.0234 121.998C26.0156 121.998 26.0078 122 26 122H24C23.4477 122 23 121.552 23 121C23 120.448 23.4477 120 24 120H24.2451L25.6738 115H24C24 115.552 23.5523 116 23 116C22.4477 116 22 115.552 22 115V114C22 113.448 22.4477 113 23 113H31Z" fill="currentColor"/>
</svg>
