<svg xmlns="http://www.w3.org/2000/svg" width="16" height="16" viewBox="21.0 112.0 14.0 14.0" fill="none">
  <path d="M32 123C32.5523 123 33 123.448 33 124C33 124.552 32.5523 125 32 125H24C23.4477 125 23 124.552 23 124C23 123.448 23.4477 123 24 123H32Z" fill="currentColor"/>
  <path d="M31 113C31.5523 113 32 113.448 32 114V118C32 120.209 30.2091 122 28 122C25.7909 122 24 120.209 24 118V114C24 113.448 24.4477 113 25 113C25.5523 113 26 113.448 26 114V118C26 119.105 26.8954 120 28 120C29.1046 120 30 119.105 30 118V114C30 113.448 30.4477 113 31 113Z" fill="currentColor"/>
</svg>
