<svg xmlns="http://www.w3.org/2000/svg" width="16" height="16" viewBox="21.0 113.0 16.0 16.0" fill="none">
  <path d="M31.5 117.998C31.8396 117.998 32.1135 118.142 32.3545 118.326C32.5838 118.501 32.8363 118.754 33.126 119.044L34.9561 120.873C35.246 121.163 35.4997 121.416 35.6748 121.646C35.8587 121.887 36.0029 122.16 36.0029 122.5C36.0029 122.84 35.8587 123.113 35.6748 123.354C35.4997 123.584 35.246 123.837 34.9561 124.127L33.126 125.956C32.8363 126.246 32.5838 126.499 32.3545 126.674C32.1135 126.858 31.8396 127.002 31.5 127.002C31.1604 127.002 30.8865 126.859 30.6455 126.675C30.416 126.5 30.1631 126.245 29.873 125.955L28.0439 124.126C27.7542 123.836 27.5003 123.584 27.3252 123.354C27.1414 123.113 26.998 122.84 26.998 122.5C26.998 122.16 27.1414 121.887 27.3252 121.646C27.5003 121.416 27.7542 121.164 28.0439 120.874L29.873 119.045C30.1631 118.755 30.416 118.5 30.6455 118.325C30.8865 118.141 31.1604 117.998 31.5 117.998ZM31.5 118.998C31.4669 118.998 31.4034 119.005 31.252 119.12C31.0884 119.245 30.8898 119.442 30.5801 119.752L28.751 121.581C28.4412 121.891 28.2449 122.088 28.1201 122.252C28.0041 122.404 27.998 122.467 27.998 122.5C27.998 122.533 28.0041 122.596 28.1201 122.748C28.2449 122.912 28.4412 123.109 28.751 123.419L30.5801 125.248C30.8898 125.558 31.0884 125.755 31.252 125.88C31.4034 125.995 31.4669 126.002 31.5 126.002C31.5332 126.002 31.5963 125.996 31.748 125.88C31.9116 125.755 32.1092 125.559 32.4189 125.249L34.249 123.42C34.5585 123.11 34.755 122.913 34.8799 122.749C34.9959 122.597 35.0029 122.533 35.0029 122.5C35.0029 122.467 34.9959 122.403 34.8799 122.251C34.755 122.087 34.5585 121.89 34.249 121.58L32.4189 119.751C32.1092 119.441 31.9116 119.245 31.748 119.12C31.5963 119.004 31.5332 118.998 31.5 118.998Z" fill="currentColor"/>
  <path d="M26.0576 123C26.1528 123.403 26.3483 123.722 26.5303 123.961C26.5404 123.974 26.552 123.987 26.5625 124H22.5C22.2239 124 22 123.776 22 123.5C22 123.224 22.2239 123 22.5 123H26.0576Z" fill="currentColor"/>
  <path d="M27.5039 120H22.5C22.2239 120 22 119.776 22 119.5C22 119.224 22.2239 119 22.5 119H28.5039L27.5039 120Z" fill="currentColor"/>
  <path d="M33.5 115C33.7761 115 34 115.224 34 115.5C34 115.776 33.7761 116 33.5 116H22.5C22.2239 116 22 115.776 22 115.5C22 115.224 22.2239 115 22.5 115H33.5Z" fill="currentColor"/>
</svg>
