<svg xmlns="http://www.w3.org/2000/svg" width="16" height="16" viewBox="19.95 111.48 16.05 16.05" fill="none">
  <path d="M30.5001 123C30.7762 123 31.0001 123.224 31.0001 123.5C31.0001 123.776 30.7762 124 30.5001 124H26.5001C26.2239 124 26.0001 123.776 26.0001 123.5C26.0001 123.224 26.2239 123 26.5001 123H30.5001Z" fill="currentColor"/>
  <path d="M21.1466 117.146C21.3418 116.951 21.6583 116.951 21.8536 117.146L23.8536 119.146C24.0488 119.342 24.0488 119.658 23.8536 119.854L21.8536 121.854C21.6583 122.049 21.3418 122.049 21.1466 121.854C20.9513 121.658 20.9513 121.342 21.1466 121.146L22.7931 119.5L21.1466 117.854C20.9513 117.658 20.9513 117.342 21.1466 117.146Z" fill="currentColor"/>
  <path d="M34.5001 119C34.7762 119 35.0001 119.224 35.0001 119.5C35.0001 119.776 34.7762 120 34.5001 120H26.5001C26.2239 120 26.0001 119.776 26.0001 119.5C26.0001 119.224 26.2239 119 26.5001 119H34.5001Z" fill="currentColor"/>
  <path d="M32.5001 115C32.7762 115 33.0001 115.224 33.0001 115.5C33.0001 115.776 32.7762 116 32.5001 116H26.5001C26.2239 116 26.0001 115.776 26.0001 115.5C26.0001 115.224 26.2239 115 26.5001 115H32.5001Z" fill="currentColor"/>
</svg>
