<svg xmlns="http://www.w3.org/2000/svg" width="16" height="16" viewBox="21.0 112.5 14.0 14.0" fill="none">
  <path d="M27.5 123C27.7761 123 28 123.224 28 123.5C28 123.776 27.7761 124 27.5 124H22.5C22.2239 124 22 123.776 22 123.5C22 123.224 22.2239 123 22.5 123H27.5Z" fill="currentColor"/>
  <path d="M33.5 119C33.7761 119 34 119.224 34 119.5C34 119.776 33.7761 120 33.5 120H22.5C22.2239 120 22 119.776 22 119.5C22 119.224 22.2239 119 22.5 119H33.5Z" fill="currentColor"/>
  <path d="M33.5 115C33.7761 115 34 115.224 34 115.5C34 115.776 33.7761 116 33.5 116H22.5C22.2239 116 22 115.776 22 115.5C22 115.224 22.2239 115 22.5 115H33.5Z" fill="currentColor"/>
</svg>
