<svg xmlns="http://www.w3.org/2000/svg" width="16" height="16" viewBox="20.0 111.5 17.0 17.0" fill="none">
  <path d="M31.5 120C31.7761 120 32 120.224 32 120.5V122H33.5C33.7761 122 34 122.224 34 122.5C34 122.776 33.7761 123 33.5 123H32V124.5C32 124.776 31.7761 125 31.5 125C31.2239 125 31 124.776 31 124.5V123H29.5C29.2239 123 29 122.776 29 122.5C29 122.224 29.2239 122 29.5 122H31V120.5C31 120.224 31.2239 120 31.5 120Z" fill="currentColor"/>
  <path d="M31.5 118C33.9853 118 36 120.015 36 122.5C36 124.985 33.9853 127 31.5 127C29.0147 127 27 124.985 27 122.5C27 120.015 29.0147 118 31.5 118ZM31.5 119C29.567 119 28 120.567 28 122.5C28 124.433 29.567 126 31.5 126C33.433 126 35 124.433 35 122.5C35 120.567 33.433 119 31.5 119Z" fill="currentColor"/>
  <path d="M30 113C30.5523 113 31 113.448 31 114V115C31 115.552 30.5523 116 30 116C29.4477 116 29 115.552 29 115H27V119.339C26.4607 120.105 26.1122 121.015 26.0234 122H25C24.4477 122 24 121.552 24 121C24 120.482 24.3933 120.056 24.8975 120.005L25 120V115H23C23 115.552 22.5523 116 22 116C21.4477 116 21 115.552 21 115V114C21 113.448 21.4477 113 22 113H30Z" fill="currentColor"/>
</svg>
