<svg xmlns="http://www.w3.org/2000/svg" width="16" height="16" viewBox="21.25 112.0 14.0 14.0" fill="none">
  <path d="M28 113C29.933 113 31.5 114.567 31.5 116.5C31.5 117.257 31.2581 117.957 30.8496 118.529C31.8403 119.147 32.5 120.246 32.5 121.5C32.5 123.433 30.933 125 29 125H25C24.4477 125 24 124.552 24 124V114C24.0001 113.448 24.4478 113 25 113H28ZM26 123H29C29.8284 123 30.5 122.328 30.5 121.5C30.5 120.672 29.8284 120 29 120H26V123ZM26 118H28C28.8284 118 29.5 117.328 29.5 116.5C29.5 115.672 28.8284 115 28 115H26V118Z" fill="currentColor"/>
</svg>
