<svg xmlns="http://www.w3.org/2000/svg" width="16" height="16" viewBox="21.0 113.0 16.0 16.0" fill="none">
  <path d="M30.5 121C30.7761 121 31 121.224 31 121.5V125C31 126.105 30.1046 127 29 127C27.8954 127 27 126.105 27 125V121.5C27 121.224 27.2239 121 27.5 121C27.7761 121 28 121.224 28 121.5V125C28 125.552 28.4477 126 29 126C29.5523 126 30 125.552 30 125V121.5C30 121.224 30.2239 121 30.5 121Z" fill="currentColor"/>
  <path d="M34.5225 121C35.3382 121 36 121.662 36 122.478C35.9998 122.971 35.7526 123.432 35.3418 123.706L34.9004 124L35.3418 124.294C35.7526 124.568 35.9998 125.029 36 125.522C36 126.338 35.3382 127 34.5225 127H33.4775C32.6618 127 32 126.338 32 125.522C32.0002 125.029 32.2474 124.568 32.6582 124.294L33.0986 124L32.6582 123.706C32.2474 123.432 32.0002 122.971 32 122.478C32 121.662 32.6618 121 33.4775 121H34.5225ZM33.2129 125.126C33.0803 125.214 33.0002 125.363 33 125.522C33 125.786 33.2141 126 33.4775 126H34.5225C34.7859 126 35 125.786 35 125.522C34.9998 125.363 34.9197 125.214 34.7871 125.126L34 124.601L33.2129 125.126ZM33.4775 122C33.2141 122 33 122.214 33 122.478C33.0002 122.637 33.0803 122.786 33.2129 122.874L34 123.398L34.7871 122.874C34.9197 122.786 34.9998 122.637 35 122.478C35 122.214 34.7859 122 34.5225 122H33.4775Z" fill="currentColor"/>
  <path d="M26 124H22.5C22.2239 124 22 123.776 22 123.5C22 123.224 22.2239 123 22.5 123H26V124Z" fill="currentColor"/>
  <path d="M33.5 119C33.7761 119 34 119.224 34 119.5C34 119.776 33.7761 120 33.5 120H22.5C22.2239 120 22 119.776 22 119.5C22 119.224 22.2239 119 22.5 119H33.5Z" fill="currentColor"/>
  <path d="M33.5 115C33.7761 115 34 115.224 34 115.5C34 115.776 33.7761 116 33.5 116H22.5C22.2239 116 22 115.776 22 115.5C22 115.224 22.2239 115 22.5 115H33.5Z" fill="currentColor"/>
</svg>
