<svg xmlns="http://www.w3.org/2000/svg" width="16" height="16" viewBox="21.0 112.0 14.0 14.0" fill="none">
  <path d="M33 113C33.5523 113 34 113.448 34 114V115C34 115.552 33.5523 116 33 116C32.4477 116 32 115.552 32 115H29V123C29.5523 123 30 123.448 30 124C30 124.552 29.5523 125 29 125H27C26.4477 125 26 124.552 26 124C26 123.482 26.3933 123.056 26.8975 123.005L27 123V115H24C24 115.552 23.5523 116 23 116C22.4477 116 22 115.552 22 115V114C22 113.448 22.4477 113 23 113H33Z" fill="currentColor"/>
</svg>
