<svg xmlns="http://www.w3.org/2000/svg" width="16" height="16" viewBox="21.0 113.0 16.05 16.05" fill="none">
  <path d="M35.1465 121.146C35.3417 120.951 35.6583 120.951 35.8535 121.146C36.0486 121.342 36.0487 121.658 35.8535 121.854L33.707 124L35.8535 126.146L35.918 126.225C36.046 126.419 36.0243 126.683 35.8535 126.854C35.6827 127.024 35.4187 127.046 35.2246 126.918L35.1465 126.854L33 124.707L30.8535 126.854C30.6583 127.049 30.3417 127.049 30.1465 126.854C29.9513 126.658 29.9514 126.342 30.1465 126.146L32.293 124L30.1465 121.854C29.9512 121.658 29.9512 121.342 30.1465 121.146C30.3417 120.951 30.6583 120.951 30.8535 121.146L33 123.293L35.1465 121.146Z" fill="currentColor"/>
  <path d="M27.5 123C27.7761 123 28 123.224 28 123.5C28 123.776 27.7761 124 27.5 124H22.5C22.2239 124 22 123.776 22 123.5C22 123.224 22.2239 123 22.5 123H27.5Z" fill="currentColor"/>
  <path d="M33.5 119C33.7761 119 34 119.224 34 119.5C34 119.776 33.7761 120 33.5 120H22.5C22.2239 120 22 119.776 22 119.5C22 119.224 22.2239 119 22.5 119H33.5Z" fill="currentColor"/>
  <path d="M33.5 115C33.7761 115 34 115.224 34 115.5C34 115.776 33.7761 116 33.5 116H22.5C22.2239 116 22 115.776 22 115.5C22 115.224 22.2239 115 22.5 115H33.5Z" fill="currentColor"/>
</svg>
