<svg xmlns="http://www.w3.org/2000/svg" width="16" height="16" viewBox="21.0 112.0 14.0 14.0" fill="none">
  <path d="M25 121C25.5523 121 26 121.448 26 122C26 122.552 25.5523 123 25 123C24.4477 123 24 122.552 24 122C24 121.448 24.4477 121 25 121Z" fill="currentColor"/>
  <path d="M25 113C25.4579 113 25.8348 113 26.1396 113.027C26.4514 113.056 26.7372 113.116 27 113.268C27.304 113.443 27.5569 113.696 27.7324 114L27.7852 114.1C27.8937 114.324 27.942 114.565 27.9678 114.824C28.2034 114.63 28.4445 114.475 28.7314 114.398C29.0704 114.308 29.4276 114.308 29.7666 114.398C30.0596 114.477 30.3045 114.636 30.5449 114.837C30.78 115.033 31.0465 115.299 31.3701 115.623C31.6938 115.947 31.9612 116.213 32.1572 116.448C32.3576 116.689 32.5171 116.934 32.5957 117.227C32.6865 117.566 32.6865 117.924 32.5957 118.263L32.5625 118.37C32.4781 118.613 32.3358 118.823 32.1641 119.03C32.4663 119.059 32.7442 119.12 33 119.268C33.3039 119.443 33.5569 119.696 33.7324 120C33.884 120.263 33.9444 120.549 33.9727 120.86C34.0002 121.165 34 121.542 34 122C34 122.458 34.0002 122.835 33.9727 123.14C33.9444 123.451 33.884 123.737 33.7324 124C33.5569 124.304 33.3039 124.557 33 124.732L32.9004 124.785C32.6655 124.899 32.4124 124.948 32.1396 124.973C31.8348 125 31.4579 125 31 125H25C24.7929 125 24.5908 124.979 24.3955 124.939C24.2001 124.899 24.0116 124.841 23.832 124.765C22.9348 124.385 22.2603 123.581 22.0605 122.604C22.0206 122.409 22 122.207 22 122V116C22 115.542 21.9997 115.165 22.0273 114.86C22.0556 114.549 22.1159 114.263 22.2676 114C22.4431 113.696 22.696 113.443 23 113.268C23.2628 113.116 23.5486 113.056 23.8604 113.027C24.1652 113 24.5421 113 25 113ZM25 114C24.5235 114 24.1996 114.001 23.9502 114.023C23.7078 114.045 23.5852 114.085 23.5 114.134C23.348 114.222 23.2216 114.348 23.1338 114.5C23.0846 114.585 23.0454 114.708 23.0234 114.95C23.0008 115.2 23 115.523 23 116V122C23 123.105 23.8954 124 25 124C26.1046 124 27 123.105 27 122V116C27 115.523 26.9992 115.2 26.9766 114.95C26.9601 114.768 26.9343 114.654 26.9014 114.572L26.8662 114.5C26.7784 114.348 26.652 114.222 26.5 114.134C26.4148 114.085 26.2922 114.045 26.0498 114.023C25.8004 114.001 25.4765 114 25 114ZM27.2363 124H31C31.4765 124 31.8005 123.999 32.0498 123.977C32.2314 123.96 32.346 123.934 32.4277 123.901L32.5 123.866C32.6519 123.778 32.7785 123.652 32.8662 123.5C32.9153 123.415 32.9546 123.292 32.9766 123.05C32.9991 122.801 33 122.476 33 122C33 121.524 32.9991 121.199 32.9766 120.95C32.9546 120.708 32.9153 120.585 32.8662 120.5C32.7785 120.348 32.6519 120.222 32.5 120.134C32.4148 120.085 32.2921 120.045 32.0498 120.023C31.8435 120.005 31.586 120.002 31.2334 120.001L27.2363 124ZM29.5078 115.364C29.3384 115.319 29.1597 115.319 28.9902 115.364C28.8952 115.39 28.7806 115.449 28.5938 115.604C28.4346 115.737 28.25 115.917 28 116.166V121.821L30.6631 119.158C30.9999 118.821 31.2284 118.592 31.3887 118.399C31.5054 118.259 31.569 118.16 31.6035 118.079L31.6289 118.003C31.6742 117.834 31.6743 117.655 31.6289 117.485C31.6034 117.39 31.5443 117.276 31.3887 117.089C31.2283 116.897 30.9998 116.667 30.6631 116.33C30.3263 115.993 30.0965 115.765 29.9043 115.604C29.7174 115.449 29.6029 115.39 29.5078 115.364Z" fill="currentColor"/>
</svg>
