<svg xmlns="http://www.w3.org/2000/svg" width="16" height="16" viewBox="19.97 110.01 16.05 16.05" fill="none">
  <path d="M28 111.573C28.4144 111.573 28.7373 111.773 29.0176 112.029C29.2878 112.276 29.5823 112.635 29.9297 113.057L34.0391 118.047C34.3198 118.388 34.5675 118.687 34.7197 118.938C34.8679 119.183 35.0257 119.543 34.8447 119.927C34.6637 120.31 34.2851 120.418 34.002 120.459C33.711 120.501 33.3226 120.5 32.8809 120.5H31V122C31 122.457 31.0011 122.851 30.959 123.164C30.9149 123.492 30.8154 123.806 30.5606 124.061C30.3058 124.315 29.9918 124.415 29.6641 124.459C29.3507 124.501 28.9573 124.5 28.5 124.5H27.5C27.0428 124.5 26.6493 124.501 26.336 124.459C26.0083 124.415 25.6943 124.315 25.4395 124.061C25.1847 123.806 25.0851 123.492 25.041 123.164C24.9989 122.851 25 122.457 25 122V120.5H23.1192C22.6775 120.5 22.289 120.501 21.9981 120.459C21.7149 120.418 21.3363 120.31 21.1553 119.927C20.9743 119.543 21.1321 119.183 21.2803 118.938C21.4326 118.687 21.6802 118.388 21.961 118.047L26.0703 113.057C26.4178 112.635 26.7123 112.276 26.9824 112.029C27.2628 111.773 27.5857 111.573 28 111.573ZM28 112.573C27.9425 112.573 27.8511 112.59 27.6563 112.768C27.4512 112.955 27.2089 113.247 26.8418 113.692L22.7334 118.683C22.4311 119.05 22.2413 119.282 22.1358 119.456C22.1336 119.46 22.1319 119.463 22.1299 119.467C22.1338 119.467 22.1376 119.469 22.1416 119.47C22.3432 119.499 22.6434 119.5 23.1192 119.5H25.5C25.7762 119.5 26 119.724 26 120V122C26 122.485 26.0012 122.799 26.0322 123.03C26.0614 123.247 26.1084 123.315 26.1465 123.354C26.1846 123.392 26.2529 123.439 26.4697 123.468C26.701 123.499 27.0148 123.5 27.5 123.5H28.5C28.9853 123.5 29.2991 123.499 29.5303 123.468C29.7471 123.439 29.8155 123.392 29.8535 123.354C29.8916 123.315 29.9386 123.247 29.9678 123.03C29.9988 122.799 30 122.485 30 122V120C30 119.724 30.2239 119.5 30.5 119.5H32.8809C33.3567 119.5 33.6568 119.499 33.8584 119.47C33.8622 119.469 33.8656 119.467 33.8692 119.467C33.8672 119.464 33.8663 119.459 33.8643 119.456C33.7587 119.282 33.569 119.05 33.2666 118.683L29.1582 113.692C28.7911 113.247 28.5488 112.955 28.3438 112.768C28.1489 112.59 28.0575 112.573 28 112.573Z" fill="currentColor"/>
</svg>
