<svg xmlns="http://www.w3.org/2000/svg" width="16" height="16" viewBox="20.0 111.0 17.0 17.0" fill="none">
  <path d="M28.5 112C28.6092 112 28.7183 112.002 28.8271 112.007C28.8699 112.009 28.9125 112.012 28.9551 112.015C29.0213 112.019 29.0873 112.024 29.1533 112.029C29.1993 112.033 29.2452 112.037 29.291 112.042C29.352 112.048 29.4128 112.056 29.4736 112.064C29.5792 112.078 29.6839 112.094 29.7881 112.112C29.8223 112.118 29.8566 112.123 29.8906 112.13C29.9147 112.134 29.9389 112.138 29.9629 112.143C29.9712 112.144 29.9792 112.147 29.9873 112.149C30.94 112.342 31.851 112.718 32.667 113.264C32.7656 113.33 32.8619 113.398 32.957 113.469C32.9662 113.476 32.9752 113.482 32.9844 113.489C33.366 113.774 33.7183 114.093 34.0371 114.442C34.0472 114.453 34.0573 114.464 34.0674 114.476C34.2215 114.646 34.3671 114.825 34.5049 115.009C34.5201 115.029 34.5348 115.05 34.5498 115.07C34.5986 115.137 34.6468 115.204 34.6934 115.272C34.7073 115.293 34.7226 115.312 34.7363 115.333C34.739 115.337 34.7406 115.342 34.7432 115.346C35.0113 115.749 35.2417 116.178 35.4287 116.63C35.6144 117.078 35.7543 117.542 35.8496 118.013C35.8517 118.021 35.8558 118.029 35.8574 118.037C35.8652 118.077 35.8707 118.117 35.8779 118.156C35.8849 118.194 35.8911 118.232 35.8975 118.271C35.908 118.334 35.9178 118.398 35.9268 118.463C35.9343 118.517 35.9409 118.572 35.9473 118.626C35.9526 118.672 35.9594 118.718 35.9639 118.765C35.9735 118.863 35.9796 118.961 35.9854 119.06C35.9885 119.113 35.9912 119.167 35.9932 119.221C35.9954 119.28 35.9972 119.34 35.998 119.399C35.9985 119.433 36 119.466 36 119.5C36 119.517 35.9982 119.535 35.998 119.552C35.9977 119.609 35.9959 119.666 35.9941 119.724C35.9913 119.821 35.987 119.917 35.9805 120.014C35.9766 120.069 35.9728 120.125 35.9678 120.181C35.9625 120.239 35.9559 120.298 35.9492 120.356C35.9449 120.394 35.9404 120.431 35.9355 120.468C35.9141 120.634 35.8897 120.8 35.8574 120.963C35.8559 120.971 35.8515 120.978 35.8496 120.985C35.6558 121.944 35.2775 122.851 34.7402 123.658C34.7385 123.661 34.7381 123.664 34.7363 123.667C34.7319 123.674 34.7271 123.68 34.7227 123.687C34.5294 123.974 34.3147 124.247 34.082 124.507C34.0677 124.523 34.0535 124.539 34.0391 124.555C33.9622 124.639 33.8846 124.723 33.8037 124.804C33.7228 124.885 33.6389 124.962 33.5547 125.039C33.5423 125.05 33.5301 125.062 33.5176 125.073C33.4354 125.147 33.3517 125.219 33.2666 125.289C33.2618 125.293 33.2568 125.297 33.252 125.301C33.0701 125.45 32.8819 125.59 32.6875 125.721C32.6804 125.726 32.6741 125.732 32.667 125.736C32.6644 125.738 32.6609 125.739 32.6582 125.74C31.8514 126.277 30.9445 126.656 29.9854 126.85C29.9777 126.851 29.9707 126.856 29.9629 126.857C29.7998 126.89 29.6344 126.914 29.4678 126.936C29.4307 126.94 29.3936 126.945 29.3564 126.949C29.298 126.956 29.2395 126.962 29.1807 126.968C29.125 126.973 29.0693 126.977 29.0137 126.98C28.9174 126.987 28.8208 126.991 28.7236 126.994C28.6663 126.996 28.6091 126.998 28.5518 126.998C28.5345 126.998 28.5173 127 28.5 127C28.4674 127 28.4349 126.997 28.4023 126.997C28.347 126.996 28.2917 126.995 28.2363 126.993C28.1772 126.991 28.1183 126.989 28.0596 126.985C27.997 126.982 27.9345 126.977 27.8721 126.972C27.7942 126.965 27.7168 126.957 27.6396 126.948C27.5807 126.941 27.5217 126.935 27.4629 126.927C27.3985 126.918 27.3344 126.908 27.2705 126.897C27.2386 126.892 27.2067 126.887 27.1748 126.881C27.1289 126.873 27.0827 126.866 27.0371 126.857C27.0287 126.856 27.0209 126.852 27.0127 126.85C26.5416 126.754 26.0783 126.614 25.6299 126.429C25.1783 126.242 24.7488 126.011 24.3457 125.743C24.3417 125.741 24.337 125.739 24.333 125.736C24.3124 125.723 24.2929 125.707 24.2725 125.693C24.1966 125.642 24.1217 125.589 24.0479 125.534C24.0348 125.525 24.0218 125.515 24.0088 125.505C23.8255 125.368 23.6486 125.223 23.4785 125.069C23.4665 125.059 23.4543 125.048 23.4424 125.037C22.9981 124.632 22.6014 124.172 22.2637 123.667C21.7184 122.851 21.3421 121.94 21.1494 120.987C21.1474 120.979 21.1442 120.971 21.1426 120.963C21.1378 120.939 21.1344 120.915 21.1299 120.891C21.1222 120.85 21.1164 120.809 21.1094 120.769C21.0927 120.671 21.0773 120.573 21.0645 120.474C21.0565 120.413 21.0485 120.352 21.042 120.291C21.0372 120.245 21.0333 120.199 21.0293 120.153C21.0235 120.087 21.0187 120.021 21.0146 119.955C21.012 119.912 21.0097 119.868 21.0078 119.824C21.0031 119.716 21 119.608 21 119.5C21 119 21.0489 118.511 21.1426 118.037C21.1962 117.766 21.4596 117.59 21.7305 117.644C22.0011 117.697 22.1773 117.96 22.124 118.23C22.0429 118.641 22 119.065 22 119.5C22 119.751 22.0153 119.998 22.043 120.241C22.0541 120.338 22.0675 120.435 22.083 120.531C22.0914 120.584 22.0997 120.637 22.1094 120.689C22.2698 121.551 22.6042 122.376 23.0957 123.111C23.1179 123.145 23.1412 123.177 23.1641 123.21C23.613 123.854 24.1751 124.413 24.8223 124.858C25.1938 125.113 25.5922 125.331 26.0127 125.505C26.4476 125.685 26.8986 125.815 27.3574 125.897C27.4623 125.916 27.5681 125.932 27.6748 125.945C27.7723 125.958 27.8699 125.969 27.9678 125.977C28.1219 125.989 28.2775 125.996 28.4346 125.998C28.4717 125.998 28.5088 125.998 28.5459 125.998C28.6227 125.998 28.6992 125.996 28.7754 125.993C28.8125 125.992 28.8496 125.99 28.8867 125.987C29.1378 125.973 29.3847 125.943 29.627 125.9C29.6741 125.892 29.7215 125.884 29.7686 125.875C30.6222 125.705 31.4284 125.366 32.1426 124.883C32.8273 124.419 33.4185 123.827 33.8828 123.143C34.3658 122.428 34.7051 121.622 34.875 120.769C34.8858 120.714 34.8949 120.659 34.9043 120.604C34.9457 120.362 34.9753 120.116 34.9893 119.865C34.9916 119.824 34.9926 119.782 34.9941 119.74C34.9965 119.676 34.9976 119.611 34.998 119.546C34.9984 119.497 34.9988 119.448 34.998 119.399C34.9958 119.254 34.9882 119.11 34.9766 118.968C34.9615 118.785 34.9396 118.603 34.9092 118.422C34.9056 118.4 34.9013 118.379 34.8975 118.357C34.8155 117.899 34.685 117.448 34.5049 117.013C34.3272 116.584 34.1044 116.178 33.8428 115.8C33.4002 115.162 32.8468 114.608 32.21 114.164C32.1771 114.141 32.1446 114.118 32.1113 114.096C31.3794 113.607 30.5592 113.274 29.7021 113.112C29.6677 113.106 29.6332 113.1 29.5986 113.094C29.5189 113.08 29.4387 113.068 29.3584 113.058C29.0776 113.021 28.7911 113 28.5 113C28.0653 113 27.6405 113.043 27.2305 113.124C26.9598 113.177 26.6972 113.001 26.6436 112.73C26.59 112.46 26.7662 112.196 27.0371 112.143C27.5106 112.049 27.9999 112 28.5 112Z" fill="currentColor"/>
  <path d="M26.6533 116.125C27.0617 115.903 27.4787 116.014 27.8262 116.173C28.1722 116.331 28.5925 116.605 29.0889 116.928L30.4668 117.822C30.8894 118.097 31.2552 118.333 31.5078 118.556C31.7672 118.785 32.0049 119.084 32.0049 119.5C32.0046 119.916 31.7672 120.214 31.5078 120.443C31.2551 120.666 30.8895 120.902 30.4668 121.177L29.0889 122.071C28.5923 122.394 28.1723 122.668 27.8262 122.826C27.4788 122.985 27.0616 123.095 26.6533 122.874C26.2451 122.652 26.1107 122.242 26.0547 121.864C25.999 121.488 26 120.986 26 120.394V118.605C26 118.014 25.999 117.511 26.0547 117.135C26.1106 116.757 26.2449 116.347 26.6533 116.125ZM27.1309 117.004C27.1309 117.004 27.1236 117.006 27.1094 117.033C27.0901 117.071 27.0643 117.144 27.0439 117.281C27.0017 117.567 27 117.98 27 118.605V120.394C27 121.019 27.0017 121.432 27.0439 121.718C27.0643 121.855 27.0901 121.929 27.1094 121.966C27.1235 121.993 27.1309 121.995 27.1309 121.995C27.1328 121.996 27.1396 122 27.166 121.997C27.2077 121.993 27.2837 121.975 27.4102 121.917C27.6729 121.797 28.0198 121.573 28.5449 121.232L29.9219 120.338C30.3724 120.045 30.6627 119.856 30.8467 119.693C30.9339 119.616 30.9742 119.565 30.9922 119.534C31.0047 119.513 31.0049 119.505 31.0049 119.5C31.0049 119.495 31.0053 119.487 30.9922 119.465C30.9743 119.435 30.9338 119.383 30.8467 119.306C30.6627 119.143 30.3723 118.954 29.9219 118.661L28.5449 117.767C28.02 117.426 27.6728 117.202 27.4102 117.082C27.2837 117.024 27.2078 117.006 27.166 117.002C27.1379 116.999 27.1309 117.004 27.1309 117.004Z" fill="currentColor"/>
  <path d="M24.333 113.264C24.5624 113.11 24.8728 113.172 25.0264 113.401C25.1796 113.631 25.118 113.941 24.8887 114.095C24.1798 114.569 23.5694 115.18 23.0947 115.889C22.9412 116.118 22.6308 116.18 22.4014 116.026C22.172 115.873 22.1103 115.562 22.2637 115.333C22.8111 114.515 23.5153 113.811 24.333 113.264Z" fill="currentColor"/>
</svg>
