<svg xmlns="http://www.w3.org/2000/svg" width="16" height="16" viewBox="20.5 111.0 16.0 16.0" fill="none">
  <path d="M25.5 119C25.8252 119 26.1698 118.998 26.4561 119.036C26.7712 119.078 27.1607 119.186 27.4873 119.513C27.8139 119.839 27.9215 120.229 27.9639 120.544C28.0024 120.83 28 121.175 28 121.5V123.5C28 123.825 28.0024 124.17 27.9639 124.456C27.9215 124.771 27.8139 125.161 27.4873 125.487C27.1607 125.814 26.7712 125.922 26.4561 125.964C26.1698 126.002 25.8252 126 25.5 126H24.5C24.1748 126 23.8303 126.002 23.544 125.964C23.2289 125.921 22.8393 125.814 22.5127 125.487C22.1861 125.161 22.0785 124.771 22.0362 124.456C21.9977 124.17 22 123.825 22 123.5V121.5C22 121.175 21.9977 120.83 22.0362 120.544C22.0785 120.229 22.1861 119.839 22.5127 119.513C22.8393 119.186 23.2289 119.079 23.544 119.036C23.8303 118.998 24.1748 119 24.5 119H25.5ZM24.5 120C23.7929 120 23.4394 120 23.2198 120.22C23.0001 120.439 23 120.793 23 121.5V123.5C23 124.207 23.0001 124.561 23.2198 124.78C23.4394 125 23.7929 125 24.5 125H25.5C26.2071 125 26.5606 125 26.7803 124.78C27 124.561 27 124.207 27 123.5V121.5C27 120.793 27 120.439 26.7803 120.22C26.5606 120 26.2071 120 25.5 120H24.5Z" fill="currentColor"/>
  <path d="M32.5 114C32.8252 114 33.1698 113.998 33.4561 114.036C33.7712 114.078 34.1607 114.186 34.4873 114.513C34.8139 114.839 34.9215 115.229 34.9639 115.544C35.0024 115.83 35 116.175 35 116.5V123.5C35 123.825 35.0024 124.17 34.9639 124.456C34.9215 124.771 34.8139 125.161 34.4873 125.487C34.1607 125.814 33.7712 125.922 33.4561 125.964C33.1698 126.002 32.8252 126 32.5 126H31.5C31.1748 126 30.8303 126.002 30.544 125.964C30.2289 125.921 29.8393 125.814 29.5127 125.487C29.1861 125.161 29.0785 124.771 29.0362 124.456C28.9977 124.17 29 123.825 29 123.5V116.5C29 116.175 28.9977 115.83 29.0362 115.544C29.0785 115.229 29.1861 114.839 29.5127 114.513C29.8393 114.186 30.2289 114.079 30.544 114.036C30.8303 113.998 31.1748 114 31.5 114H32.5ZM31.5 115C30.7929 115 30.4394 115 30.2198 115.22C30.0001 115.439 30 115.793 30 116.5V123.5L30.0039 123.968C30.0142 124.376 30.0551 124.616 30.2198 124.78C30.4394 125 30.7929 125 31.5 125H32.5C33.2071 125 33.5606 125 33.7803 124.78C34 124.561 34 124.207 34 123.5V116.5C34 115.793 34 115.439 33.7803 115.22C33.5606 115 33.2071 115 32.5 115H31.5Z" fill="currentColor"/>
  <path d="M34.5 112C34.7762 112 35 112.224 35 112.5C35 112.776 34.7762 113 34.5 113H22.5C22.2239 113 22 112.776 22 112.5C22 112.224 22.2239 112 22.5 112H34.5Z" fill="currentColor"/>
</svg>
