<svg xmlns="http://www.w3.org/2000/svg" width="16" height="16" viewBox="19.95 110.95 16.11 16.11" fill="none">
  <path d="M24.2925 117.754C23.8472 117.737 23.399 117.88 23.0406 118.178L22.9146 118.293L22.8013 118.406C22.7499 118.458 22.7498 118.542 22.8013 118.594L28.4068 124.199C28.4586 124.25 28.5425 124.25 28.5943 124.199L28.7076 124.086C29.0834 123.71 29.2651 123.206 29.2456 122.707L30.1275 123.589C29.9965 124.031 29.76 124.447 29.4146 124.793L29.3013 124.906C28.859 125.348 28.1421 125.348 27.6997 124.906L25.2505 122.457L21.854 125.853C21.6589 126.048 21.3422 126.048 21.147 125.853C20.9519 125.658 20.9521 125.342 21.147 125.146L24.5435 121.75L22.0943 119.301C21.6522 118.858 21.6523 118.141 22.0943 117.699L22.2076 117.586L22.4019 117.408C22.7038 117.157 23.0474 116.977 23.4087 116.87L24.2925 117.754Z" fill="currentColor"/>
  <path d="M21.1587 112.146C21.3539 111.951 21.6705 111.951 21.8658 112.146L26.5816 116.862L28.2593 115.466L27.897 115.103C27.2877 114.494 27.2878 113.506 27.897 112.896C28.5065 112.287 29.4947 112.287 30.104 112.896L34.104 116.896C34.713 117.506 34.7131 118.494 34.104 119.103C33.4947 119.713 32.5065 119.712 31.897 119.103L31.5337 118.74L30.1363 120.417L34.8658 125.146C35.061 125.342 35.061 125.658 34.8658 125.853C34.6705 126.048 34.3539 126.049 34.1587 125.853L21.1587 112.853C20.9637 112.658 20.9638 112.342 21.1587 112.146ZM29.397 113.603C29.1781 113.385 28.823 113.385 28.604 113.603C28.3853 113.822 28.3853 114.177 28.604 114.396L29.354 115.145C29.4531 115.245 29.5058 115.382 29.4995 115.522C29.4931 115.662 29.4276 115.794 29.3199 115.884L27.2925 117.573L29.4253 119.706L31.1167 117.681C31.2066 117.573 31.3379 117.507 31.4781 117.501C31.6181 117.495 31.7549 117.547 31.854 117.646L32.604 118.396C32.823 118.615 33.1782 118.615 33.397 118.396C33.6155 118.178 33.6154 117.822 33.397 117.603L29.397 113.603Z" fill="currentColor"/>
</svg>
