<svg xmlns="http://www.w3.org/2000/svg" width="16" height="16" viewBox="20.0 111.49 16.02 16.02" fill="none">
  <path d="M29.1611 113C30.0546 113 30.7678 112.999 31.3389 113.065C31.9226 113.133 32.4125 113.275 32.8418 113.595C32.8773 113.621 32.912 113.649 32.9463 113.677C33.361 114.016 33.6172 114.456 33.8242 115.006C34.0268 115.544 34.1993 116.236 34.416 117.103L34.7393 118.396C34.8294 118.756 34.9018 119.046 34.9473 119.283C34.9931 119.522 35.0192 119.741 34.999 119.958C34.9177 120.834 34.3336 121.582 33.5039 121.873C33.2981 121.945 33.0792 121.974 32.8369 121.987C32.5961 122.001 32.2964 122 31.9248 122H31.0781C30.9005 122 30.7751 122.174 30.8311 122.343L31.3516 123.912C31.6927 124.94 30.9276 126 29.8447 126C29.2978 126 28.7893 125.718 28.499 125.255L27.0752 122.98C26.5677 122.17 26.3642 121.854 26.1035 121.624C25.8322 121.385 25.5125 121.208 25.166 121.105C24.8958 121.024 24.5971 121.005 23.9824 121.001C23.9794 121.041 23.9766 121.079 23.9717 121.115C23.9461 121.306 23.8838 121.523 23.7041 121.704C23.7022 121.706 23.7002 121.708 23.6983 121.71C23.5169 121.89 23.2989 121.952 23.1084 121.978C22.9323 122.001 22.7171 122 22.4971 122C22.277 122 22.0619 122.001 21.8858 121.978C21.6952 121.952 21.4773 121.89 21.2959 121.71C21.294 121.708 21.292 121.706 21.2901 121.704C21.1102 121.523 21.048 121.305 21.0225 121.114C20.999 120.938 21 120.723 21 120.503V114.5C21 114.279 20.9987 114.062 21.0225 113.885C21.045 113.717 21.0959 113.529 21.2295 113.363L21.292 113.293L21.293 113.292C21.4745 113.111 21.6934 113.048 21.8848 113.022C22.0619 112.999 22.2786 113 22.5 113C22.7214 113 22.9382 112.999 23.1152 113.022C23.2828 113.045 23.4707 113.097 23.6367 113.23L23.707 113.293C23.8884 113.475 23.951 113.694 23.9766 113.886C23.9829 113.933 23.987 113.983 23.9902 114.035L23.9922 114.034C24.6153 113.586 25.0118 113.295 25.4776 113.145C25.9434 112.995 26.4355 113 27.2031 113H29.1611ZM27.2031 114C26.3732 114 26.0661 114.006 25.7842 114.097C25.5023 114.188 25.2491 114.362 24.5752 114.847L23.9981 115.262L23.9942 120.001C24.6117 120.004 25.0457 120.025 25.4512 120.146C25.9364 120.29 26.3847 120.539 26.7647 120.873C27.1608 121.222 27.4489 121.691 27.9238 122.45L29.3467 124.724C29.4541 124.895 29.6422 125 29.8447 125C30.2456 125 30.5286 124.607 30.4024 124.227L29.8818 122.657C29.6113 121.841 30.2186 121 31.0781 121H31.9248C32.3075 121 32.5745 121 32.7813 120.988C32.9865 120.977 33.0973 120.956 33.1729 120.93C33.6338 120.768 33.9577 120.352 34.0029 119.865C34.0103 119.786 34.0046 119.673 33.9658 119.472C33.9268 119.268 33.8623 119.01 33.7695 118.639L33.4463 117.345C33.2239 116.455 33.0662 115.83 32.8887 115.358C32.7156 114.899 32.5411 114.637 32.3135 114.451C32.2906 114.433 32.2669 114.414 32.2432 114.397C32.0077 114.221 31.7119 114.115 31.2246 114.059C30.7242 114.001 30.0782 114 29.1611 114H27.2031ZM22.5 114C22.2504 114 22.1126 114.001 22.0176 114.014H22.0147L22.0137 114.018C22.0009 114.113 22 114.25 22 114.5V120.503C22 120.751 22.001 120.888 22.0137 120.982L22.0147 120.985L22.0176 120.986C22.1122 120.999 22.2488 121 22.4971 121C22.7453 121 22.882 120.999 22.9766 120.986L22.9805 120.985V120.982C22.9932 120.888 22.994 120.751 22.9942 120.503L22.999 114.5C22.9992 114.25 22.9981 114.113 22.9854 114.018V114.014H22.9815C22.8864 114.001 22.7494 114 22.5 114Z" fill="currentColor"/>
</svg>
