<svg xmlns="http://www.w3.org/2000/svg" width="16" height="16" viewBox="20.0 110.49 16.02 16.02" fill="none">
  <path d="M29.8447 112C30.9276 112 31.6927 113.06 31.3516 114.088L30.8311 115.657C30.7751 115.826 30.9005 116 31.0781 116H31.9248C32.2965 116 32.5961 115.999 32.8369 116.013C33.0792 116.026 33.2981 116.055 33.5039 116.127C34.3336 116.418 34.9177 117.166 34.999 118.042C35.0192 118.259 34.9931 118.479 34.9473 118.717C34.9018 118.954 34.8294 119.244 34.7393 119.604L34.416 120.897C34.1993 121.764 34.0268 122.456 33.8242 122.994C33.6171 123.544 33.361 123.984 32.9463 124.323C32.912 124.351 32.8773 124.379 32.8418 124.405C32.4125 124.725 31.9226 124.867 31.3389 124.935C30.7678 125.001 30.0547 125 29.1611 125H27.2031C26.4355 125 25.9434 125.005 25.4776 124.855C25.0118 124.705 24.6153 124.414 23.9922 123.966L23.9902 123.964C23.987 124.016 23.9829 124.067 23.9766 124.114C23.951 124.306 23.8884 124.524 23.707 124.706L23.6367 124.77C23.4707 124.903 23.2828 124.955 23.1152 124.978C22.9382 125.001 22.7214 125 22.5 125C22.2786 125 22.0619 125.001 21.8848 124.978C21.6934 124.952 21.4745 124.889 21.293 124.708L21.292 124.707L21.2295 124.637C21.0959 124.471 21.045 124.283 21.0225 124.115C20.9987 123.938 21 123.721 21 123.5V117.497C21 117.277 20.999 117.062 21.0225 116.886C21.048 116.695 21.1102 116.477 21.2901 116.296C21.292 116.294 21.294 116.292 21.2959 116.29C21.4773 116.11 21.6952 116.048 21.8858 116.022C22.0619 115.999 22.277 116 22.4971 116C22.7171 116 22.9323 115.999 23.1084 116.022C23.2989 116.048 23.5169 116.11 23.6983 116.29C23.7002 116.292 23.7022 116.294 23.7041 116.296C23.8838 116.477 23.9461 116.694 23.9717 116.885C23.9766 116.921 23.9795 116.959 23.9824 116.998C24.5971 116.994 24.8958 116.976 25.166 116.896C25.5125 116.792 25.8322 116.615 26.1035 116.376C26.3642 116.146 26.5677 115.83 27.0752 115.02L28.499 112.745C28.7893 112.282 29.2978 112 29.8447 112ZM22.4971 117C22.2488 117 22.1122 117.001 22.0176 117.014L22.0147 117.015L22.0137 117.018C22.001 117.112 22 117.249 22 117.497V123.5C22 123.75 22.0009 123.887 22.0137 123.982L22.0147 123.986H22.0176C22.1126 123.999 22.2504 124 22.5 124C22.7494 124 22.8864 123.999 22.9815 123.986H22.9854V123.982C22.9981 123.887 22.9992 123.75 22.999 123.5L22.9942 117.497C22.994 117.249 22.9932 117.112 22.9805 117.018V117.015L22.9766 117.014C22.882 117.001 22.7453 117 22.4971 117ZM29.8447 113C29.6422 113 29.4541 113.105 29.3467 113.276L27.9238 115.55C27.4489 116.309 27.1608 116.778 26.7647 117.127C26.3847 117.462 25.9364 117.71 25.4512 117.854C25.0457 117.975 24.6117 117.995 23.9942 117.998L23.9981 122.737L24.5752 123.153C25.2491 123.638 25.5023 123.812 25.7842 123.903C26.0661 123.994 26.3732 124 27.2031 124H29.1611C30.0782 124 30.7242 123.999 31.2246 123.941C31.712 123.885 32.0077 123.779 32.2432 123.604C32.2669 123.586 32.2906 123.568 32.3135 123.549C32.5411 123.363 32.7156 123.101 32.8887 122.642C33.0662 122.17 33.2239 121.545 33.4463 120.655L33.7695 119.361C33.8623 118.99 33.9268 118.732 33.9658 118.528C34.0046 118.327 34.0103 118.214 34.0029 118.135C33.9577 117.648 33.6338 117.232 33.1729 117.07C33.0973 117.044 32.9865 117.023 32.7813 117.012C32.5745 117 32.3075 117 31.9248 117H31.0781C30.2186 117 29.6112 116.159 29.8818 115.343L30.4024 113.773C30.5286 113.393 30.2456 113 29.8447 113Z" fill="currentColor"/>
</svg>
