<svg xmlns="http://www.w3.org/2000/svg" width="16" height="16" viewBox="19.95 111.29 15.76 15.76" fill="none">
  <path d="M27.8968 112.896C28.5062 112.287 29.4944 112.287 30.1038 112.896L34.1038 116.896C34.7131 117.506 34.7132 118.494 34.1038 119.103C33.4944 119.713 32.5063 119.713 31.8968 119.103L31.5335 118.74L29.682 120.964C29.6562 120.995 29.6549 121.039 29.679 121.071C30.5289 122.205 30.416 123.791 29.4144 124.793L29.3011 124.906C28.8588 125.348 28.1419 125.348 27.6995 124.906L25.2493 122.456L21.8529 125.853C21.6576 126.048 21.3409 126.049 21.1458 125.853C20.9511 125.658 20.9511 125.342 21.1458 125.146L24.5423 121.749L22.0941 119.301C21.6518 118.858 21.6518 118.142 22.0941 117.699L22.2073 117.586C23.2093 116.584 24.7955 116.471 25.929 117.321C25.9612 117.345 26.0056 117.344 26.0364 117.318L28.2591 115.466L27.8968 115.103C27.2875 114.494 27.2874 113.506 27.8968 112.896ZM29.3968 113.603C29.1779 113.385 28.8227 113.385 28.6038 113.603C28.3849 113.822 28.385 114.177 28.6038 114.396L29.3538 115.146C29.4529 115.246 29.5056 115.382 29.4993 115.522C29.493 115.663 29.4275 115.794 29.3196 115.884L26.6761 118.087C26.2892 118.409 25.7313 118.424 25.3284 118.122C24.5931 117.571 23.5644 117.643 22.9144 118.293L22.8011 118.406C22.7494 118.458 22.7494 118.542 22.8011 118.594L28.4066 124.199C28.4584 124.251 28.5423 124.251 28.5941 124.199L28.7073 124.086C29.3571 123.436 29.4296 122.407 28.8782 121.672C28.576 121.269 28.5911 120.71 28.9134 120.323L31.1155 117.681C31.2055 117.573 31.3375 117.507 31.4779 117.501C31.618 117.495 31.7546 117.547 31.8538 117.646L32.6038 118.396C32.8228 118.615 33.1779 118.615 33.3968 118.396C33.6156 118.178 33.6156 117.822 33.3968 117.603L29.3968 113.603Z" fill="currentColor"/>
</svg>
