<svg xmlns="http://www.w3.org/2000/svg" width="16" height="16" viewBox="20.0 111.0 15.99 15.99" fill="none">
  <path d="M26.5 118C26.7761 118 27 118.224 27 118.5V119.5C27 119.776 26.7762 120 26.5 120C26.2239 120 26 119.776 26 119.5V118.5C26 118.224 26.2239 118 26.5 118Z" fill="currentColor"/>
  <path d="M31.5 114C32.193 114 32.7634 113.999 33.2129 114.06C33.6766 114.122 34.0861 114.258 34.4141 114.586C34.7006 114.873 34.8405 115.222 34.9121 115.617C34.9811 115.998 34.9931 116.459 34.9961 116.998C34.9968 117.131 34.9442 117.259 34.8506 117.354C34.757 117.448 34.6298 117.501 34.4971 117.501C33.67 117.503 33 118.174 33 119.001L33.0078 119.154C33.085 119.909 33.7221 120.498 34.4971 120.5C34.6298 120.5 34.757 120.553 34.8506 120.647C34.9442 120.742 34.9968 120.87 34.9961 121.003C34.9931 121.542 34.9811 122.004 34.9121 122.384C34.8405 122.778 34.7004 123.128 34.4141 123.414C34.0861 123.742 33.6766 123.878 33.2129 123.94C32.7634 124.001 32.193 124 31.5 124H24.5C23.807 124 23.2366 124.001 22.7871 123.94C22.3234 123.878 21.9139 123.742 21.5859 123.414C21.2997 123.128 21.1599 122.779 21.0879 122.384C21.0186 122.003 21.0059 121.542 21.0029 121.003C21.0022 120.87 21.0548 120.742 21.1484 120.647C21.242 120.553 21.3692 120.5 21.502 120.5C22.2773 120.499 22.915 119.909 22.9922 119.154L23 119.001C23 118.173 22.3294 117.502 21.502 117.501C21.3692 117.501 21.242 117.448 21.1484 117.354C21.0548 117.259 21.0022 117.131 21.0029 116.998C21.0059 116.459 21.0187 115.998 21.0879 115.617C21.1598 115.222 21.2996 114.872 21.5859 114.586L21.7129 114.472C22.0173 114.225 22.3814 114.114 22.7871 114.06C23.2367 113.999 23.8071 114 24.5 114H31.5ZM24.5 115C23.7789 115 23.2883 115.001 22.9209 115.051C22.6563 115.086 22.4982 115.142 22.3887 115.215L22.293 115.293C22.1951 115.391 22.1201 115.528 22.0713 115.796C22.0354 115.993 22.0182 116.237 22.0098 116.553C23.146 116.788 24 117.795 24 119.001L23.9873 119.257C23.8761 120.347 23.0642 121.229 22.0098 121.447C22.0182 121.763 22.0354 122.007 22.0713 122.204C22.1201 122.472 22.1951 122.609 22.293 122.707C22.4043 122.818 22.5679 122.902 22.9209 122.949C23.2883 122.999 23.7788 123 24.5 123H26.5C26.2239 123 26 122.776 26 122.5V121.5C26 121.224 26.2239 121 26.5 121C26.7761 121 27 121.224 27 121.5V122.5C27 122.776 26.7762 123 26.5 123H31.5L32.4219 122.993C32.6808 122.987 32.8953 122.974 33.0791 122.949C33.4321 122.902 33.5957 122.818 33.707 122.707C33.8047 122.609 33.8792 122.472 33.9277 122.205C33.9635 122.008 33.98 121.764 33.9883 121.447C32.8535 121.211 32.0006 120.206 32 119.001C32 117.796 32.853 116.789 33.9883 116.553C33.98 116.237 33.9635 115.993 33.9277 115.796C33.8792 115.528 33.8048 115.391 33.707 115.293C33.5957 115.182 33.4321 115.098 33.0791 115.051C32.8953 115.026 32.6808 115.013 32.4219 115.007L31.5 115H24.5ZM26.5 115C26.7761 115 27 115.224 27 115.5V116.5C27 116.776 26.7762 117 26.5 117C26.2239 117 26 116.776 26 116.5V115.5C26 115.224 26.2239 115 26.5 115Z" fill="currentColor"/>
</svg>
