<svg xmlns="http://www.w3.org/2000/svg" width="16" height="16" viewBox="20.0 112.0 17.0 17.0" fill="none">
  <path d="M31.5 120C31.7761 120 32 120.224 32 120.5V122H33.5C33.7761 122 34 122.224 34 122.5C34 122.776 33.7761 123 33.5 123H32V124.5C32 124.776 31.7761 125 31.5 125C31.2239 125 31 124.776 31 124.5V123H29.5C29.2239 123 29 122.776 29 122.5C29 122.224 29.2239 122 29.5 122H31V120.5C31 120.224 31.2239 120 31.5 120Z" fill="currentColor"/>
  <path d="M31.5 118C33.9853 118 36 120.015 36 122.5C36 124.985 33.9853 127 31.5 127C29.0147 127 27 124.985 27 122.5C27 120.015 29.0147 118 31.5 118ZM31.5 119C29.567 119 28 120.567 28 122.5C28 124.433 29.567 126 31.5 126C33.433 126 35 124.433 35 122.5C35 120.567 33.433 119 31.5 119Z" fill="currentColor"/>
  <path d="M31.5 114C32.193 114 32.7634 113.999 33.2129 114.06C33.6766 114.122 34.0861 114.258 34.4141 114.586C34.7004 114.872 34.8405 115.222 34.9121 115.616C34.9811 115.996 34.9931 116.458 34.9961 116.997C34.9968 117.13 34.9442 117.258 34.8506 117.353C34.757 117.447 34.6298 117.5 34.4971 117.5C34.3165 117.5 34.1437 117.534 33.9834 117.593C33.6146 117.406 33.2223 117.259 32.8115 117.158C33.1366 116.86 33.54 116.645 33.9883 116.552C33.98 116.236 33.9635 115.992 33.9277 115.795C33.8792 115.528 33.8047 115.391 33.707 115.293C33.5957 115.182 33.4321 115.098 33.0791 115.051C32.7118 115.001 32.2212 115 31.5 115H24.5C23.7789 115 23.2883 115.001 22.9209 115.051C22.6563 115.086 22.4982 115.142 22.3887 115.215L22.293 115.293C22.1951 115.391 22.1201 115.528 22.0713 115.796C22.0354 115.993 22.0182 116.236 22.0098 116.552C23.1462 116.787 24 117.795 24 119.001C23.9995 120.206 23.1455 121.212 22.0098 121.447C22.0182 121.763 22.0354 122.007 22.0713 122.204C22.1201 122.472 22.1951 122.609 22.293 122.707C22.4043 122.818 22.5679 122.902 22.9209 122.949C23.2883 122.999 23.7788 123 24.5 123H26.0234C26.0544 123.343 26.1168 123.678 26.208 124H24.5C23.807 124 23.2366 124.001 22.7871 123.94C22.3234 123.878 21.9139 123.742 21.5859 123.414C21.2997 123.128 21.1599 122.778 21.0879 122.384C21.0186 122.003 21.0059 121.542 21.0029 121.003C21.0022 120.87 21.0548 120.742 21.1484 120.647C21.242 120.553 21.3692 120.5 21.502 120.5C22.2773 120.499 22.915 119.909 22.9922 119.154L23 119.001C23 118.173 22.329 117.501 21.502 117.5C21.3692 117.5 21.242 117.447 21.1484 117.353C21.0548 117.258 21.0022 117.13 21.0029 116.997C21.006 116.458 21.0186 115.997 21.0879 115.616C21.1599 115.222 21.2998 114.872 21.5859 114.586L21.7129 114.472C22.0173 114.225 22.3814 114.114 22.7871 114.06C23.2367 113.999 23.8071 114 24.5 114H31.5ZM26.5 115C26.7761 115 27 115.224 27 115.5V116.5C27 116.776 26.7762 117 26.5 117C26.2239 117 26 116.776 26 116.5V115.5C26 115.224 26.2239 115 26.5 115Z" fill="currentColor"/>
  <path d="M26.5 118C26.7761 118 27 118.224 27 118.5V119.339C26.8548 119.545 26.7227 119.761 26.6065 119.987C26.5721 119.995 26.5366 120 26.5 120C26.2239 120 26 119.776 26 119.5V118.5C26 118.224 26.2239 118 26.5 118Z" fill="currentColor"/>
</svg>
