<svg xmlns="http://www.w3.org/2000/svg" width="16" height="16" viewBox="20.0 111.5 16.0 16.0" fill="none">
  <path d="M34.5 125C34.7762 125 35 125.224 35 125.5C35 125.776 34.7762 126 34.5 126H21.5C21.2239 126 21 125.776 21 125.5C21 125.224 21.2239 125 21.5 125H34.5Z" fill="currentColor"/>
  <path d="M33.5 121H30.5C30.4105 121 30.2429 120.998 30.0928 121.019C29.9138 121.043 29.6196 121.113 29.3662 121.366C29.1129 121.62 29.0427 121.914 29.0186 122.093C28.9984 122.243 29 122.41 29 122.5C29 122.59 28.9984 122.757 29.0186 122.907C29.0426 123.086 29.1129 123.38 29.3662 123.634C29.6196 123.887 29.9138 123.957 30.0928 123.981C30.2429 124.002 30.4105 124 30.5 124H33.5C33.5896 124 33.7571 124.002 33.9073 123.981C34.0862 123.957 34.3804 123.887 34.6338 123.634C34.8872 123.38 34.9574 123.086 34.9815 122.907C35.0016 122.757 35 122.59 35 122.5C35 122.41 35.0016 122.243 34.9815 122.093C34.9574 121.914 34.8872 121.62 34.6338 121.366C34.3804 121.113 34.0862 121.043 33.9073 121.019C33.7571 120.998 33.5896 121 33.5 121ZM30.5 122H33.5C33.7357 122 33.8536 122 33.9268 122.073C34 122.146 34 122.264 34 122.5C34 122.736 34 122.854 33.9268 122.927C33.8536 123 33.7357 123 33.5 123H30.5C30.2643 123 30.1465 123 30.0733 122.927C30.0001 122.854 30 122.736 30 122.5C30 122.264 30.0001 122.146 30.0733 122.073C30.1465 122 30.2644 122 30.5 122Z" fill="currentColor"/>
  <path d="M30.5 117C30.5896 117 30.7571 116.998 30.9073 117.019C31.0862 117.043 31.3804 117.113 31.6338 117.366C31.8872 117.62 31.9574 117.914 31.9815 118.093C32.0016 118.243 32 118.41 32 118.5C32 118.59 32.0016 118.757 31.9815 118.907C31.9574 119.086 31.8872 119.38 31.6338 119.634C31.3804 119.887 31.0862 119.957 30.9073 119.981C30.7571 120.002 30.5896 120 30.5 120H24.5C24.4105 120 24.2429 120.002 24.0928 119.981C23.9138 119.957 23.6196 119.887 23.3662 119.634C23.1129 119.38 23.0426 119.086 23.0186 118.907C22.9984 118.757 23 118.59 23 118.5C23 118.41 22.9984 118.243 23.0186 118.093C23.0427 117.914 23.1129 117.62 23.3662 117.366C23.6196 117.113 23.9138 117.043 24.0928 117.019C24.2429 116.998 24.4105 117 24.5 117H30.5ZM24.3438 118.001C24.2081 118.004 24.1281 118.018 24.0733 118.073C24.0001 118.146 24 118.264 24 118.5C24 118.736 24.0001 118.854 24.0733 118.927C24.1281 118.982 24.208 118.996 24.3438 118.999L24.5 119H30.5C30.7357 119 30.8536 119 30.9268 118.927C31 118.854 31 118.736 31 118.5C31 118.264 31 118.146 30.9268 118.073C30.8536 118 30.7357 118 30.5 118H24.5L24.3438 118.001Z" fill="currentColor"/>
  <path d="M24.5 113C24.5896 113 24.7571 112.998 24.9073 113.019C25.0862 113.043 25.3804 113.113 25.6338 113.366C25.8872 113.62 25.9574 113.914 25.9815 114.093C26.0016 114.243 26 114.41 26 114.5C26 114.59 26.0016 114.757 25.9815 114.907C25.9574 115.086 25.8872 115.38 25.6338 115.634C25.3804 115.887 25.0862 115.958 24.9073 115.982C24.7572 116.003 24.5896 116 24.5 116H22.5C22.4104 116 22.2428 116.003 22.0928 115.982C21.9139 115.958 21.6197 115.887 21.3662 115.634C21.1129 115.38 21.0426 115.086 21.0186 114.907C20.9984 114.757 21 114.59 21 114.5C21 114.41 20.9984 114.243 21.0186 114.093C21.0427 113.914 21.1129 113.62 21.3662 113.366C21.6196 113.113 21.9138 113.043 22.0928 113.019C22.2429 112.998 22.4105 113 22.5 113H24.5ZM22.3438 114.001C22.2081 114.004 22.1281 114.018 22.0733 114.073C22.0001 114.146 22 114.264 22 114.5C22 114.736 22.0001 114.854 22.0733 114.927C22.1282 114.982 22.2084 114.996 22.3448 114.999L22.5 115H24.5C24.7357 115 24.8536 115 24.9268 114.927C25 114.854 25 114.736 25 114.5C25 114.264 25 114.146 24.9268 114.073C24.8536 114 24.7357 114 24.5 114H22.5L22.3438 114.001Z" fill="currentColor"/>
</svg>
