<svg xmlns="http://www.w3.org/2000/svg" width="16" height="16" viewBox="20.0 111.0 16.0 16.0" fill="none">
  <path d="M29.5 118C29.9573 118 30.3507 117.999 30.6641 118.041C30.9918 118.085 31.3058 118.185 31.5605 118.439C31.8153 118.694 31.9149 119.008 31.959 119.336C32.0011 119.649 32 120.043 32 120.5V121.5C32 121.957 32.0011 122.351 31.959 122.664C31.9149 122.992 31.8153 123.306 31.5605 123.561C31.3058 123.815 30.9918 123.915 30.6641 123.959C30.3507 124.001 29.9573 124 29.5 124H26.5C26.0427 124 25.6493 124.001 25.3359 123.959C25.0082 123.915 24.6942 123.815 24.4395 123.561C24.1847 123.306 24.0851 122.992 24.041 122.664C23.9989 122.351 24 121.957 24 121.5V120.5C24 120.043 23.9989 119.649 24.041 119.336C24.0851 119.008 24.1847 118.694 24.4395 118.439C24.6942 118.185 25.0082 118.085 25.3359 118.041C25.6493 117.999 26.0427 118 26.5 118H29.5Z" fill="currentColor"/>
  <path d="M31.5 116C31.7761 116 32 116.224 32 116.5C32 116.776 31.7761 117 31.5 117H24.5C24.2239 117 24 116.776 24 116.5C24 116.224 24.2239 116 24.5 116H31.5Z" fill="currentColor"/>
  <path d="M27.5 114C27.7761 114 28 114.224 28 114.5C28 114.776 27.7761 115 27.5 115H24.5C24.2239 115 24 114.776 24 114.5C24 114.224 24.2239 114 24.5 114H27.5Z" fill="currentColor"/>
  <path d="M29.5 112C30.4285 112 31.1751 111.999 31.7607 112.078C32.3608 112.159 32.8663 112.331 33.2676 112.732C33.6689 113.134 33.8412 113.639 33.9219 114.239C34.0006 114.825 34 115.572 34 116.5V121.5C34 122.428 34.0006 123.175 33.9219 123.761C33.8412 124.361 33.6689 124.866 33.2676 125.268C32.8663 125.669 32.3608 125.841 31.7607 125.922C31.1751 126.001 30.4285 126 29.5 126H26.5C25.5715 126 24.8249 126.001 24.2393 125.922C23.6392 125.841 23.1337 125.669 22.7324 125.268C22.3311 124.866 22.1588 124.361 22.0781 123.761C21.9994 123.175 22 122.428 22 121.5V116.5C22 115.572 21.9994 114.825 22.0781 114.239C22.1588 113.639 22.3311 113.134 22.7324 112.732C23.1337 112.331 23.6392 112.159 24.2393 112.078C24.8249 111.999 25.5715 112 26.5 112H29.5ZM26.5 113C25.5431 113 24.8756 113.001 24.3721 113.068C23.8829 113.134 23.624 113.255 23.4395 113.439C23.2549 113.624 23.1341 113.883 23.0684 114.372C23.0007 114.876 23 115.543 23 116.5V121.5C23 122.457 23.0007 123.124 23.0684 123.628C23.1341 124.117 23.2549 124.376 23.4395 124.561C23.624 124.745 23.8829 124.866 24.3721 124.932C24.8756 124.999 25.5431 125 26.5 125H29.5C30.4569 125 31.1244 124.999 31.6279 124.932C32.1171 124.866 32.376 124.745 32.5605 124.561C32.7451 124.376 32.8659 124.117 32.9316 123.628C32.9993 123.124 33 122.457 33 121.5V116.5C33 115.543 32.9993 114.876 32.9316 114.372C32.8659 113.883 32.7451 113.624 32.5605 113.439C32.376 113.255 32.1171 113.134 31.6279 113.068C31.1244 113.001 30.4569 113 29.5 113H26.5Z" fill="currentColor"/>
</svg>
