<svg xmlns="http://www.w3.org/2000/svg" width="16" height="16" viewBox="20.0 111.0 16.0 16.0" fill="none">
  <path d="M22.5 123C22.7761 123 23 123.224 23 123.5C23 124.328 23.6716 125 24.5 125C24.7761 125 25 125.224 25 125.5C25 125.776 24.7761 126 24.5 126C23.1193 126 22 124.881 22 123.5C22 123.224 22.2239 123 22.5 123Z" fill="currentColor"/>
  <path d="M28.5 125C28.7761 125 29 125.224 29 125.5C29 125.776 28.7761 126 28.5 126H27.5C27.2239 126 27 125.776 27 125.5C27 125.224 27.2239 125 27.5 125H28.5Z" fill="currentColor"/>
  <path d="M33.5 123C33.7761 123 34 123.224 34 123.5C34 124.881 32.8807 126 31.5 126C31.2239 126 31 125.776 31 125.5C31 125.224 31.2239 125 31.5 125C32.3284 125 33 124.328 33 123.5C33 123.224 33.2239 123 33.5 123Z" fill="currentColor"/>
  <path d="M29.5 118C29.9573 118 30.3507 117.999 30.6641 118.041C30.9918 118.085 31.3058 118.185 31.5605 118.439C31.8153 118.694 31.9149 119.008 31.959 119.336C32.0011 119.649 32 120.043 32 120.5V121.5C32 121.957 32.0011 122.351 31.959 122.664C31.9149 122.992 31.8153 123.306 31.5605 123.561C31.3058 123.815 30.9918 123.915 30.6641 123.959C30.3507 124.001 29.9573 124 29.5 124H26.5C26.0427 124 25.6493 124.001 25.3359 123.959C25.0082 123.915 24.6942 123.815 24.4395 123.561C24.1847 123.306 24.0851 122.992 24.041 122.664C23.9989 122.351 24 121.957 24 121.5V120.5C24 120.043 23.9989 119.649 24.041 119.336C24.0851 119.008 24.1847 118.694 24.4395 118.439C24.6942 118.185 25.0082 118.085 25.3359 118.041C25.6493 117.999 26.0427 118 26.5 118H29.5Z" fill="currentColor"/>
  <path d="M22.5 117C22.7761 117 23 117.224 23 117.5V120.5C23 120.776 22.7761 121 22.5 121C22.2239 121 22 120.776 22 120.5V117.5C22 117.224 22.2239 117 22.5 117Z" fill="currentColor"/>
  <path d="M33.5 117C33.7761 117 34 117.224 34 117.5V120.5C34 120.776 33.7761 121 33.5 121C33.2239 121 33 120.776 33 120.5V117.5C33 117.224 33.2239 117 33.5 117Z" fill="currentColor"/>
  <path d="M31.5 116C31.7761 116 32 116.224 32 116.5C32 116.776 31.7761 117 31.5 117H24.5C24.2239 117 24 116.776 24 116.5C24 116.224 24.2239 116 24.5 116H31.5Z" fill="currentColor"/>
  <path d="M24.5 112C24.7761 112 25 112.224 25 112.5C25 112.776 24.7761 113 24.5 113C23.6716 113 23 113.672 23 114.5C23 114.776 22.7761 115 22.5 115C22.2239 115 22 114.776 22 114.5C22 113.119 23.1193 112 24.5 112Z" fill="currentColor"/>
  <path d="M27.5 114C27.7761 114 28 114.224 28 114.5C28 114.776 27.7761 115 27.5 115H24.5C24.2239 115 24 114.776 24 114.5C24 114.224 24.2239 114 24.5 114H27.5Z" fill="currentColor"/>
  <path d="M31.5 112C32.8807 112 34 113.119 34 114.5C34 114.776 33.7761 115 33.5 115C33.2239 115 33 114.776 33 114.5C33 113.672 32.3284 113 31.5 113C31.2239 113 31 112.776 31 112.5C31 112.224 31.2239 112 31.5 112Z" fill="currentColor"/>
  <path d="M28.5 112C28.7761 112 29 112.224 29 112.5C29 112.776 28.7761 113 28.5 113H27.5C27.2239 113 27 112.776 27 112.5C27 112.224 27.2239 112 27.5 112H28.5Z" fill="currentColor"/>
</svg>
