<svg xmlns="http://www.w3.org/2000/svg" width="16" height="16" viewBox="20.0 111.0 16.0 16.0" fill="none">
  <path d="M25 115C26.0141 115 26.9395 115.378 27.6445 116H32C33.6569 116 35 117.343 35 119C35 120.657 33.6569 122 32 122H27.6445C26.9395 122.622 26.0141 123 25 123C22.7909 123 21 121.209 21 119C21 116.791 22.7909 115 25 115ZM25 116C23.3431 116 22 117.343 22 119C22 120.657 23.3431 122 25 122C26.6569 122 28 120.657 28 119C28 117.343 26.6569 116 25 116ZM28.4639 117C28.8044 117.588 29 118.271 29 119C29 119.729 28.8044 120.412 28.4639 121H32C33.1046 121 34 120.105 34 119C34 117.895 33.1046 117 32 117H28.4639Z" fill="currentColor"/>
</svg>
