<svg xmlns="http://www.w3.org/2000/svg" width="16" height="16" viewBox="20.0 111.0 16.0 16.0" fill="none">
  <path d="M28.5 113C28.9573 113 29.3507 112.999 29.6641 113.041C29.9918 113.085 30.3058 113.185 30.5605 113.439C30.8153 113.694 30.9149 114.008 30.959 114.336C30.9849 114.528 30.9926 114.751 30.9961 115H31.5908C32.0077 115 32.3433 115 32.6162 115.017C32.8932 115.034 33.1394 115.07 33.374 115.157C34.0533 115.411 34.5894 115.947 34.8428 116.626C34.9303 116.861 34.9662 117.107 34.9834 117.384C35.0003 117.657 35 117.992 35 118.409C35 118.562 35.0003 118.699 34.9932 118.813C34.9858 118.932 34.9689 119.058 34.9209 119.187C34.7942 119.526 34.5262 119.794 34.1865 119.921C34.104 119.952 34.0223 119.968 33.9434 119.979C33.9524 120.023 33.9619 120.066 33.9678 120.11C34.0008 120.356 34 120.661 34 121V123C34 123.339 34.0008 123.644 33.9678 123.89C33.9329 124.149 33.852 124.416 33.6338 124.634C33.4156 124.852 33.1493 124.933 32.8896 124.968C32.6444 125.001 32.3394 125 32 125H24C23.6606 125 23.3556 125.001 23.1104 124.968C22.8507 124.933 22.5844 124.852 22.3662 124.634C22.148 124.416 22.0671 124.149 22.0322 123.89C21.9992 123.644 22 123.339 22 123V121C22 120.661 21.9992 120.356 22.0322 120.11C22.0381 120.066 22.0467 120.023 22.0557 119.979C21.977 119.968 21.8956 119.952 21.8135 119.921C21.4738 119.794 21.2058 119.526 21.0791 119.187C21.0311 119.058 21.0142 118.932 21.0068 118.813C20.9997 118.699 21 118.562 21 118.409C21 117.992 20.9997 117.657 21.0166 117.384C21.0338 117.107 21.0697 116.861 21.1572 116.626C21.4106 115.947 21.9467 115.411 22.626 115.157C22.8606 115.07 23.1068 115.034 23.3838 115.017C23.6567 115 23.9923 115 24.4092 115H25.0039C25.0074 114.751 25.0151 114.528 25.041 114.336C25.0851 114.008 25.1847 113.694 25.4395 113.439C25.6942 113.185 26.0082 113.085 26.3359 113.041C26.6493 112.999 27.0427 113 27.5 113H28.5ZM26 121C26 121.104 26.001 121.232 25.9863 121.341C25.9697 121.464 25.9253 121.635 25.7803 121.78C25.6353 121.925 25.4643 121.97 25.3408 121.986C25.2317 122.001 25.1037 122 25 122C24.8963 122 24.7683 122.001 24.6592 121.986C24.5357 121.97 24.3647 121.925 24.2197 121.78C24.0747 121.635 24.0303 121.464 24.0137 121.341C23.999 121.232 24 121.104 24 121V120L23.5459 120.004C23.4231 120.007 23.3258 120.012 23.2441 120.023C23.0956 120.043 23.0748 120.072 23.0732 120.073C23.0718 120.075 23.0434 120.095 23.0234 120.244C23.0016 120.407 23 120.633 23 121V123C23 123.367 23.0016 123.593 23.0234 123.756C23.0434 123.904 23.0717 123.925 23.0732 123.927C23.0748 123.928 23.0956 123.957 23.2441 123.977C23.4073 123.998 23.6326 124 24 124H32C32.3674 124 32.5927 123.998 32.7559 123.977C32.9046 123.957 32.9253 123.928 32.9268 123.927C32.9283 123.925 32.9566 123.904 32.9766 123.756C32.9984 123.593 33 123.367 33 123V121C33 120.633 32.9984 120.407 32.9766 120.244C32.9566 120.096 32.9283 120.075 32.9268 120.073C32.9253 120.072 32.9046 120.043 32.7559 120.023C32.6742 120.012 32.5769 120.007 32.4541 120.004L32 120V121C32 121.104 32.001 121.232 31.9863 121.341C31.9697 121.464 31.9253 121.635 31.7803 121.78C31.6353 121.925 31.4643 121.97 31.3408 121.986C31.2317 122.001 31.1037 122 31 122C30.8963 122 30.7683 122.001 30.6592 121.986C30.5357 121.97 30.3647 121.925 30.2197 121.78C30.0747 121.635 30.0303 121.464 30.0137 121.341C29.999 121.232 30 121.104 30 121V120H26V121ZM24.4092 116C23.9797 116 23.6801 116 23.4453 116.015C23.2145 116.029 23.0791 116.056 22.9756 116.095C22.5681 116.247 22.2468 116.568 22.0947 116.976C22.0561 117.079 22.029 117.214 22.0146 117.445C22.0001 117.68 22 117.98 22 118.409C22 118.574 22.0002 118.675 22.0049 118.751C22.0087 118.812 22.0144 118.833 22.0156 118.837C22.041 118.905 22.0951 118.959 22.1631 118.984C22.1668 118.986 22.1879 118.991 22.249 118.995C22.3251 119 22.426 119 22.5908 119H24C24 118.896 23.999 118.768 24.0137 118.659C24.0303 118.536 24.0747 118.365 24.2197 118.22C24.3647 118.075 24.5357 118.03 24.6592 118.014C24.7683 117.999 24.8963 118 25 118C25.1037 118 25.2317 117.999 25.3408 118.014C25.4643 118.03 25.6353 118.075 25.7803 118.22C25.9253 118.365 25.9697 118.536 25.9863 118.659C26.001 118.768 26 118.896 26 119H30C30 118.896 29.999 118.768 30.0137 118.659C30.0303 118.536 30.0747 118.365 30.2197 118.22C30.3647 118.075 30.5357 118.03 30.6592 118.014C30.7683 117.999 30.8963 118 31 118C31.1037 118 31.2317 117.999 31.3408 118.014C31.4643 118.03 31.6353 118.075 31.7803 118.22C31.9253 118.365 31.9697 118.536 31.9863 118.659C32.001 118.768 32 118.896 32 119H33.4092C33.574 119 33.6749 119 33.751 118.995C33.8121 118.991 33.8332 118.986 33.8369 118.984C33.9049 118.959 33.959 118.905 33.9844 118.837C33.9856 118.833 33.9913 118.812 33.9951 118.751C33.9998 118.675 34 118.574 34 118.409C34 117.98 33.9999 117.68 33.9854 117.445C33.971 117.214 33.9439 117.079 33.9053 116.976C33.7532 116.568 33.4319 116.247 33.0244 116.095C32.9209 116.056 32.7855 116.029 32.5547 116.015C32.3199 116 32.0203 116 31.5908 116H24.4092ZM27.5 114C27.0147 114 26.7009 114.001 26.4697 114.032C26.2529 114.061 26.1845 114.108 26.1465 114.146C26.1084 114.185 26.0614 114.253 26.0322 114.47C26.0134 114.61 26.0072 114.78 26.0039 115H29.9961C29.9928 114.78 29.9866 114.61 29.9678 114.47C29.9386 114.253 29.8916 114.185 29.8535 114.146C29.8155 114.108 29.7471 114.061 29.5303 114.032C29.2991 114.001 28.9853 114 28.5 114H27.5Z" fill="currentColor"/>
</svg>
