<svg xmlns="http://www.w3.org/2000/svg" width="16" height="16" viewBox="20.0 110.25 16.07 16.07" fill="none">
  <path d="M31 117C31.1894 117 31.3626 117.107 31.4473 117.276L34.9473 124.276C35.0708 124.523 34.9706 124.824 34.7236 124.947C34.4766 125.071 34.1762 124.971 34.0527 124.724L33.1914 123H28.8086L27.9473 124.724C27.8238 124.971 27.5234 125.071 27.2764 124.947C27.0294 124.824 26.9292 124.523 27.0527 124.276L30.5527 117.276L30.5889 117.216C30.6813 117.082 30.8344 117 31 117ZM29.3086 122H32.6914L31 118.618L29.3086 122Z" fill="currentColor"/>
  <path d="M25 111.5C25.2761 111.5 25.5 111.724 25.5 112V113H28.5C28.7761 113 29 113.224 29 113.5C29 113.776 28.7761 114 28.5 114H27.6152C27.6152 115.07 26.9193 116.145 26.0176 117.002C25.9913 117.027 25.9624 117.049 25.9355 117.074C26.496 117.487 27.1009 117.825 27.6689 118.029C27.9286 118.123 28.0639 118.409 27.9707 118.669C27.8772 118.929 27.5908 119.064 27.3311 118.971C26.6086 118.711 25.8376 118.269 25.1387 117.724C24.3811 118.27 23.5164 118.717 22.6436 118.979C22.3791 119.058 22.1008 118.908 22.0215 118.644C21.9421 118.379 22.0919 118.101 22.3564 118.021C23.0471 117.814 23.7416 117.469 24.3662 117.046C23.908 116.594 23.513 116.101 23.2324 115.596C23.0986 115.354 23.1854 115.05 23.4268 114.916C23.6681 114.782 23.9723 114.869 24.1064 115.11C24.3569 115.562 24.7272 116.012 25.1611 116.426C25.2173 116.376 25.2753 116.328 25.3291 116.277C26.1581 115.49 26.6152 114.661 26.6152 114H21.5C21.2239 114 21 113.776 21 113.5C21 113.224 21.2239 113 21.5 113H24.5V112C24.5 111.724 24.7239 111.5 25 111.5Z" fill="currentColor"/>
</svg>
