<svg xmlns="http://www.w3.org/2000/svg" width="16" height="16" viewBox="20.45 110.7 15.62 15.62" fill="none">
  <path d="M31 117C31.1893 117 31.3625 117.107 31.4472 117.276L34.9472 124.276C35.0707 124.523 34.9706 124.824 34.7236 124.947C34.4766 125.071 34.1762 124.971 34.0527 124.724L33.1914 123H28.8086L27.9472 124.724C27.8237 124.971 27.5233 125.071 27.2763 124.947C27.0293 124.824 26.9292 124.523 27.0527 124.276L30.5527 117.276L30.5888 117.216C30.6813 117.082 30.8343 117 31 117ZM29.3086 122H32.6914L31 118.618L29.3086 122Z" fill="currentColor"/>
  <path d="M24.1464 112.146C24.3417 111.951 24.6582 111.951 24.8535 112.146C25.0487 112.342 25.0487 112.658 24.8535 112.853L22.707 115L24.8535 117.146C25.0487 117.342 25.0487 117.658 24.8535 117.853C24.6582 118.049 24.3417 118.049 24.1464 117.853L21.6464 115.353C21.4512 115.158 21.4512 114.842 21.6464 114.646L24.1464 112.146Z" fill="currentColor"/>
  <path d="M26.1464 112.146C26.3417 111.951 26.6582 111.951 26.8535 112.146L29.3535 114.646C29.5487 114.842 29.5487 115.158 29.3535 115.353L26.8535 117.853C26.6582 118.049 26.3417 118.049 26.1464 117.853C25.9512 117.658 25.9512 117.342 26.1464 117.146L28.2929 115L26.1464 112.853C25.9512 112.658 25.9512 112.342 26.1464 112.146Z" fill="currentColor"/>
</svg>
