<svg xmlns="http://www.w3.org/2000/svg" width="16" height="16" viewBox="20.5 111.0 15.0 15.0" fill="none">
  <path d="M26.5 117C26.7761 117 27 117.224 27 117.5V121.5C27 121.776 26.7761 122 26.5 122C26.2239 122 26 121.776 26 121.5V117.5C26 117.224 26.2239 117 26.5 117Z" fill="currentColor"/>
  <path d="M29.5 117C29.7761 117 30 117.224 30 117.5V121.5C30 121.776 29.7761 122 29.5 122C29.2239 122 29 121.776 29 121.5V117.5C29 117.224 29.2239 117 29.5 117Z" fill="currentColor"/>
  <path d="M33.5 114C33.7761 114 34 114.224 34 114.5C34 114.776 33.7761 115 33.5 115H33V120.5C33 121.428 33.0006 122.175 32.9219 122.761C32.8412 123.361 32.6689 123.866 32.2676 124.268C31.8663 124.669 31.3608 124.841 30.7607 124.922C30.1751 125.001 29.4285 125 28.5 125H27.5C26.5715 125 25.8249 125.001 25.2393 124.922C24.6392 124.841 24.1337 124.669 23.7324 124.268C23.3311 123.866 23.1588 123.361 23.0781 122.761C22.9994 122.175 23 121.428 23 120.5V115H22.5C22.2239 115 22 114.776 22 114.5C22 114.224 22.2239 114 22.5 114H33.5ZM24 120.5C24 121.457 24.0007 122.124 24.0684 122.628C24.1341 123.117 24.2549 123.376 24.4395 123.561C24.624 123.745 24.8829 123.866 25.3721 123.932C25.8756 123.999 26.5431 124 27.5 124H28.5C29.4569 124 30.1244 123.999 30.6279 123.932C31.1171 123.866 31.376 123.745 31.5605 123.561C31.7451 123.376 31.8659 123.117 31.9316 122.628C31.9993 122.124 32 121.457 32 120.5V115H24V120.5Z" fill="currentColor"/>
  <path d="M29.5 112C29.7761 112 30 112.224 30 112.5C30 112.776 29.7761 113 29.5 113H26.5C26.2239 113 26 112.776 26 112.5C26 112.224 26.2239 112 26.5 112H29.5Z" fill="currentColor"/>
</svg>
