<svg xmlns="http://www.w3.org/2000/svg" width="16" height="16" viewBox="20.0 110.5 16.0 16.0" fill="none">
  <path d="M32.5 112C33.8807 112 35 113.119 35 114.5C35 115.881 33.8807 117 32.5 117C31.2923 117 30.2843 116.144 30.0508 115.005C29.889 115.009 29.808 115.016 29.7412 115.034C29.3961 115.127 29.1267 115.396 29.0342 115.741C29.0044 115.852 29 116.003 29 116.5V120.5C29 120.997 29.0044 121.148 29.0342 121.259C29.1267 121.604 29.3961 121.873 29.7412 121.966C29.808 121.984 29.889 121.99 30.0508 121.994C30.2847 120.856 31.2926 120 32.5 120C33.8807 120 35 121.119 35 122.5C35 123.881 33.8807 125 32.5 125C31.2885 125 30.2782 124.138 30.0489 122.994C29.8319 122.989 29.6488 122.976 29.4824 122.932C28.7923 122.747 28.2533 122.208 28.0684 121.518C27.9959 121.247 28 120.933 28 120.5V119H26V120C26 120.207 26.002 120.463 25.9727 120.682C25.9395 120.929 25.8506 121.271 25.5606 121.561C25.2706 121.851 24.9287 121.939 24.6817 121.973C24.4634 122.002 24.2074 122 24 122H23C22.7927 122 22.5366 122.002 22.3184 121.973C22.0713 121.939 21.7295 121.851 21.4395 121.561C21.1495 121.271 21.0606 120.929 21.0274 120.682C20.9981 120.463 21 120.207 21 120V117C21 116.793 20.9981 116.537 21.0274 116.318C21.0606 116.071 21.1495 115.729 21.4395 115.439C21.7295 115.149 22.0713 115.061 22.3184 115.027C22.5366 114.998 22.7927 115 23 115H24C24.2074 115 24.4634 114.998 24.6817 115.027C24.9287 115.061 25.2706 115.149 25.5606 115.439C25.8506 115.729 25.9395 116.071 25.9727 116.318C26.002 116.537 26 116.793 26 117V118H28V116.5C28 116.067 27.9959 115.753 28.0684 115.482C28.2533 114.792 28.7923 114.253 29.4824 114.068C29.6488 114.024 29.8319 114.01 30.0489 114.005C30.2786 112.861 31.2888 112 32.5 112ZM32.5 121C31.6716 121 31 121.672 31 122.5C31 123.328 31.6716 124 32.5 124C33.3284 124 34 123.328 34 122.5C34 121.672 33.3284 121 32.5 121ZM32.5 113C31.6716 113 31 113.672 31 114.5C31 115.328 31.6716 116 32.5 116C33.3285 116 34 115.328 34 114.5C34 113.672 33.3285 113 32.5 113ZM22 120C22 120.471 22.0001 120.707 22.1465 120.854C22.293 121 22.5286 121 23 121H24C24.4714 121 24.7071 121 24.8535 120.854C24.9634 120.744 24.9912 120.584 24.9981 120.312L25 120V117C25 116.529 25 116.293 24.8535 116.146C24.7071 116 24.4714 116 24 116H23C22.5286 116 22.293 116 22.1465 116.146C22.0001 116.293 22 116.529 22 117V120Z" fill="currentColor"/>
</svg>
