<svg xmlns="http://www.w3.org/2000/svg" width="16" height="16" viewBox="18.75 111.0 17.05 17.05" fill="none">
  <path d="M29.1465 121.147C29.3417 120.951 29.6583 120.951 29.8535 121.147C30.0488 121.342 30.0488 121.658 29.8535 121.854L27.707 124L29.8535 126.147C30.0488 126.342 30.0488 126.658 29.8535 126.854C29.6583 127.049 29.3417 127.049 29.1465 126.854L26.6465 124.354C26.4512 124.158 26.4512 123.842 26.6465 123.647L29.1465 121.147Z" fill="currentColor"/>
  <path d="M31.1465 121.147C31.3417 120.951 31.6583 120.951 31.8535 121.147L34.3535 123.647C34.5488 123.842 34.5488 124.158 34.3535 124.354L31.8535 126.854C31.6583 127.049 31.3417 127.049 31.1465 126.854C30.9512 126.658 30.9512 126.342 31.1465 126.147L33.293 124L31.1465 121.854C30.9512 121.658 30.9512 121.342 31.1465 121.147Z" fill="currentColor"/>
  <path d="M28 112C28.2074 112 28.4634 111.998 28.6816 112.027C28.9287 112.061 29.2706 112.15 29.5605 112.439C29.8505 112.729 29.9394 113.071 29.9727 113.318C30.002 113.537 30 113.793 30 114V115C30 115.207 30.002 115.463 29.9727 115.682C29.9394 115.929 29.8505 116.271 29.5605 116.561C29.2706 116.851 28.9287 116.939 28.6816 116.973C28.4634 117.002 28.2074 117 28 117H27V119H28.5C28.9328 119 29.2472 118.996 29.5176 119.068C30.0365 119.207 30.4697 119.547 30.7314 120H29.5C29.4053 120 29.3115 120.009 29.2197 120.026C29.1098 120.005 28.942 120 28.5 120H24.5C24.0029 120 23.8523 120.004 23.7412 120.034C23.3962 120.127 23.1267 120.396 23.0342 120.741C23.0163 120.808 23.009 120.889 23.0049 121.051C24.1436 121.284 24.9999 122.292 25 123.5C25 124.881 23.8807 126 22.5 126C21.1193 126 20 124.881 20 123.5C20.0001 122.289 20.8614 121.279 22.0049 121.049C22.0103 120.832 22.0238 120.649 22.0684 120.482C22.2533 119.792 22.7923 119.253 23.4824 119.068C23.7528 118.996 24.0672 119 24.5 119H26V117H25C24.7926 117 24.5366 117.002 24.3184 116.973C24.0713 116.939 23.7294 116.851 23.4395 116.561C23.1495 116.271 23.0606 115.929 23.0273 115.682C22.998 115.463 23 115.207 23 115V114C23 113.793 22.998 113.537 23.0273 113.318C23.0606 113.071 23.1495 112.729 23.4395 112.439C23.7294 112.15 24.0713 112.061 24.3184 112.027C24.5366 111.998 24.7926 112 25 112H28ZM22.5 122C21.6716 122 21.0001 122.672 21 123.5C21 124.328 21.6716 125 22.5 125C23.3284 125 24 124.328 24 123.5C23.9999 122.672 23.3284 122 22.5 122ZM25 113C24.5287 113 24.2929 113 24.1465 113.147C24.0001 113.293 24 113.529 24 114V115C24 115.471 24.0001 115.707 24.1465 115.854C24.2563 115.963 24.4164 115.991 24.6885 115.998L25 116H28C28.4714 116 28.7071 116 28.8535 115.854C28.9999 115.707 29 115.471 29 115V114C29 113.529 28.9999 113.293 28.8535 113.147C28.7071 113 28.4713 113 28 113H25Z" fill="currentColor"/>
</svg>
