<svg xmlns="http://www.w3.org/2000/svg" width="16" height="16" viewBox="21.0 112.93 14.0 14.0" fill="none">
  <path d="M24.5 113.934C25.3284 113.934 26 114.605 26 115.434C26 116.086 25.5822 116.64 25 116.846V120.434C25 121.155 25.0014 121.645 25.0508 122.013C25.0982 122.366 25.1817 122.529 25.293 122.641C25.4042 122.752 25.568 122.835 25.9209 122.883C26.2883 122.932 26.779 122.934 27.5 122.934H28.0498C28.2814 121.792 29.2905 120.934 30.5 120.934C31.8807 120.934 33 122.053 33 123.434C33 124.814 31.8807 125.934 30.5 125.934C29.2905 125.934 28.2814 125.075 28.0498 123.934H27.5C26.8074 123.934 26.2375 123.934 25.7881 123.874C25.3242 123.812 24.914 123.676 24.5859 123.348C24.258 123.02 24.122 122.61 24.0596 122.146C23.9991 121.697 24 121.127 24 120.434V116.846C23.4178 116.64 23 116.086 23 115.434C23 114.605 23.6716 113.934 24.5 113.934ZM30.5 121.934C29.6716 121.934 29 122.605 29 123.434C29 124.262 29.6716 124.934 30.5 124.934C31.3284 124.934 32 124.262 32 123.434C32 122.605 31.3284 121.934 30.5 121.934Z" fill="currentColor"/>
</svg>
