<svg xmlns="http://www.w3.org/2000/svg" width="16" height="16" viewBox="20.6 111.21 15.8 15.8" fill="none">
  <path d="M28.5 112.207C28.9101 112.207 29.2149 112.386 29.4131 112.537C29.5881 112.671 29.7675 112.853 29.9141 113L30.5508 113.637C30.6974 113.783 30.8802 113.963 31.0137 114.138C31.1459 114.311 31.2986 114.566 31.335 114.901L31.3438 115.051L31.336 115.199C31.2997 115.535 31.146 115.79 31.0137 115.964C30.8801 116.139 30.6974 116.318 30.5508 116.465L29.9141 117.102C29.7675 117.248 29.5881 117.431 29.4131 117.564C29.3065 117.646 29.1682 117.734 29 117.799V119H30.5C30.9328 119 31.2473 118.996 31.5176 119.068C32.2078 119.253 32.7467 119.792 32.9317 120.482C32.9762 120.649 32.9888 120.832 32.9942 121.049C34.1382 121.278 35 122.288 35 123.5C35 124.881 33.8807 126 32.5 126C31.1193 126 30 124.881 30 123.5C30 122.293 30.8559 121.285 31.9942 121.051C31.99 120.889 31.9837 120.808 31.9658 120.741C31.8734 120.396 31.6039 120.127 31.2588 120.034C31.1477 120.004 30.9972 120 30.5 120H26.5C26.0029 120 25.8524 120.004 25.7412 120.034C25.3962 120.127 25.1267 120.396 25.0342 120.741C25.0183 120.801 25.0095 120.871 25.0049 121C25.2114 121 25.4651 120.998 25.6817 121.027C25.9287 121.061 26.2706 121.149 26.5606 121.439C26.8506 121.729 26.9395 122.071 26.9727 122.318C27.002 122.537 27 122.793 27 123V124C27 124.207 27.002 124.463 26.9727 124.682C26.9395 124.929 26.8506 125.271 26.5606 125.561C26.2706 125.851 25.9287 125.939 25.6817 125.973C25.4634 126.002 25.2074 126 25 126H24C23.7927 126 23.5366 126.002 23.3184 125.973C23.0713 125.939 22.7295 125.851 22.4395 125.561C22.1495 125.271 22.0606 124.929 22.0274 124.682C21.9981 124.463 22 124.207 22 124V123C22 122.793 21.9981 122.537 22.0274 122.318C22.0606 122.071 22.1495 121.729 22.4395 121.439C22.7295 121.149 23.0713 121.061 23.3184 121.027C23.5366 120.998 23.7927 121 24 121H24.0059C24.0124 120.804 24.0272 120.636 24.0684 120.482C24.2533 119.792 24.7923 119.253 25.4824 119.068C25.7528 118.996 26.0672 119 26.5 119H28V117.799C27.8319 117.734 27.6936 117.646 27.5869 117.564C27.412 117.431 27.2326 117.248 27.086 117.102L26.4492 116.465C26.3026 116.318 26.1199 116.139 25.9864 115.964C25.8352 115.766 25.6564 115.461 25.6563 115.051C25.6563 114.641 25.8352 114.336 25.9864 114.138C26.1199 113.963 26.3026 113.783 26.4492 113.637L27.086 113C27.2326 112.853 27.4119 112.671 27.5869 112.537C27.7851 112.386 28.0899 112.207 28.5 112.207ZM24 122C23.5286 122 23.293 122 23.1465 122.146C23.0001 122.293 23 122.529 23 123V124L23.002 124.312C23.0088 124.584 23.0367 124.744 23.1465 124.854C23.2564 124.963 23.4164 124.991 23.6885 124.998L24 125H25L25.3116 124.998C25.5836 124.991 25.7437 124.963 25.8535 124.854C26 124.707 26 124.471 26 124V123C26 122.529 26 122.293 25.8535 122.146C25.7071 122 25.4714 122 25 122H24ZM32.5 122C31.6716 122 31 122.672 31 123.5C31 124.328 31.6716 125 32.5 125C33.3285 125 34 124.328 34 123.5C34 122.672 33.3285 122 32.5 122ZM28.5 113.207C28.2929 113.207 28.1263 113.374 27.793 113.707L27.1563 114.344L26.9375 114.565C26.7502 114.762 26.6563 114.896 26.6563 115.051C26.6564 115.206 26.7511 115.338 26.9385 115.535L27.1563 115.758L27.793 116.395L28.0157 116.613C28.1797 116.769 28.2988 116.861 28.4239 116.887L28.5 116.895C28.6552 116.895 28.7875 116.8 28.9844 116.613L29.2071 116.395L29.8438 115.758C30.1769 115.425 30.3436 115.258 30.3438 115.051C30.3437 114.896 30.2499 114.762 30.0625 114.565L29.8438 114.344L29.2071 113.707C28.8738 113.374 28.7071 113.207 28.5 113.207Z" fill="currentColor"/>
</svg>
