<svg xmlns="http://www.w3.org/2000/svg" width="16" height="16" viewBox="20.5 111.0 16.0 16.0" fill="none">
  <path d="M30 112C30.2074 112 30.4634 111.998 30.6816 112.027C30.9287 112.061 31.2706 112.149 31.5605 112.439C31.8505 112.729 31.9394 113.071 31.9727 113.318C32.002 113.537 32 113.793 32 114V115C32 115.207 32.002 115.463 31.9727 115.682C31.9394 115.929 31.8505 116.271 31.5605 116.561C31.2706 116.851 30.9287 116.939 30.6816 116.973C30.4634 117.002 30.2074 117 30 117H29V119H30.5C30.9328 119 31.2472 118.996 31.5176 119.068C32.2078 119.253 32.7467 119.792 32.9316 120.482C32.9762 120.649 32.9887 120.832 32.9941 121.049C34.1382 121.278 35 122.288 35 123.5C35 124.881 33.8807 126 32.5 126C31.1193 126 30 124.881 30 123.5C30 122.293 30.8559 121.285 31.9941 121.051C31.99 120.889 31.9837 120.808 31.9658 120.741C31.8733 120.396 31.6039 120.127 31.2588 120.034C31.1477 120.004 30.9972 120 30.5 120H26.5C26.0028 120 25.8523 120.004 25.7412 120.034C25.3961 120.127 25.1267 120.396 25.0342 120.741C25.0163 120.808 25.009 120.889 25.0049 121.051C26.1436 121.284 27 122.292 27 123.5C27 124.881 25.8807 126 24.5 126C23.1193 126 22 124.881 22 123.5C22 122.289 22.8613 121.279 24.0049 121.049C24.0103 120.832 24.0238 120.649 24.0684 120.482C24.2533 119.792 24.7922 119.253 25.4824 119.068C25.7528 118.996 26.0672 119 26.5 119H28V117H27C26.7926 117 26.5366 117.002 26.3184 116.973C26.0713 116.939 25.7294 116.851 25.4395 116.561C25.1495 116.271 25.0606 115.929 25.0273 115.682C24.998 115.463 25 115.207 25 115V114C25 113.793 24.998 113.537 25.0273 113.318C25.0606 113.071 25.1495 112.729 25.4395 112.439C25.7294 112.149 26.0713 112.061 26.3184 112.027C26.5366 111.998 26.7926 112 27 112H30ZM24.5 122C23.6716 122 23 122.672 23 123.5C23 124.328 23.6716 125 24.5 125C25.3284 125 26 124.328 26 123.5C26 122.672 25.3284 122 24.5 122ZM32.5 122C31.6716 122 31 122.672 31 123.5C31 124.328 31.6716 125 32.5 125C33.3284 125 34 124.328 34 123.5C34 122.672 33.3284 122 32.5 122ZM27 113C26.5286 113 26.2929 113 26.1465 113.147C26 113.293 26 113.529 26 114V115C26 115.471 26.0001 115.707 26.1465 115.854C26.2563 115.963 26.4164 115.991 26.6885 115.998L27 116H30C30.4714 116 30.7071 116 30.8535 115.854C30.9999 115.707 31 115.471 31 115V114C31 113.529 31 113.293 30.8535 113.147C30.7071 113 30.4714 113 30 113H27Z" fill="currentColor"/>
</svg>
