<svg xmlns="http://www.w3.org/2000/svg" width="16" height="16" viewBox="20.0 110.0 17.0 17.0" fill="none">
  <path d="M23 112C24.1046 112 25 112.895 25 114C25 114.74 24.5971 115.384 24 115.729V118H30.2695C30.4047 117.767 30.5855 117.563 30.7998 117.401C30.8775 117.561 30.9816 117.785 31.1357 118.124C31.1696 118.198 31.2096 118.269 31.2539 118.335C31.0962 118.512 31 118.744 31 119C31 119.552 31.4477 120 32 120C32.5523 120 33 119.552 33 119C33 118.972 32.9983 118.945 32.9961 118.918C33.3508 118.794 33.6512 118.539 33.8301 118.196C33.9383 118.442 34 118.714 34 119C34 120.105 33.1046 121 32 121C30.8954 121 30 120.105 30 119H24V120.5C24 121.221 24.0014 121.712 24.0508 122.079C24.0982 122.432 24.1817 122.596 24.293 122.707C24.4043 122.818 24.5679 122.902 24.9209 122.949C25.2883 122.999 25.7788 123 26.5 123H30.2695C30.6155 122.403 31.2601 122 32 122C33.1046 122 34 122.895 34 124C34 125.105 33.1046 126 32 126C30.8954 126 30 125.105 30 124H26.5C25.807 124 25.2366 124.001 24.7871 123.94C24.3233 123.878 23.9139 123.742 23.5859 123.414C23.258 123.086 23.122 122.677 23.0596 122.213C22.9991 121.763 23 121.193 23 120.5V116C21.8954 116 21 115.105 21 114C21 112.895 21.8954 112 23 112ZM32 123C31.4477 123 31 123.448 31 124C31 124.552 31.4477 125 32 125C32.5523 125 33 124.552 33 124C33 123.448 32.5523 123 32 123ZM23 113C22.4477 113 22 113.448 22 114C22 114.552 22.4477 115 23 115C23.5523 115 24 114.552 24 114C24 113.448 23.5523 113 23 113Z" fill="currentColor"/>
  <path d="M32.502 111C32.6978 111 32.876 111.115 32.957 111.293C33.2775 111.998 33.4135 112.293 33.5918 112.548C33.8268 112.884 34.1189 113.176 34.4551 113.411C34.7101 113.589 35.0049 113.725 35.71 114.046C35.8885 114.127 36.0029 114.306 36.0029 114.502C36.0027 114.698 35.8883 114.876 35.71 114.957C35.0049 115.278 34.7101 115.414 34.4551 115.592C34.1189 115.827 33.8268 116.119 33.5918 116.455C33.4135 116.71 33.2775 117.005 32.957 117.71C32.876 117.888 32.6978 118.003 32.502 118.003C32.3059 118.003 32.127 117.888 32.0459 117.71C31.7254 117.005 31.5894 116.71 31.4111 116.455C31.1762 116.119 30.884 115.827 30.5479 115.592C30.2928 115.414 29.998 115.278 29.293 114.957C29.1146 114.876 29.0002 114.698 29 114.502C29 114.306 29.1145 114.127 29.293 114.046C29.998 113.725 30.2928 113.589 30.5479 113.411C30.884 113.176 31.1762 112.884 31.4111 112.548C31.5894 112.293 31.7254 111.998 32.0459 111.293L32.0811 111.229C32.1721 111.088 32.3303 111 32.502 111ZM32.501 112.664C32.4123 112.833 32.3288 112.982 32.2314 113.121C31.9293 113.553 31.5534 113.929 31.1211 114.231C30.9818 114.329 30.8331 114.412 30.6641 114.501C30.8332 114.59 30.9817 114.674 31.1211 114.771C31.5534 115.074 31.9293 115.45 32.2314 115.882C32.3287 116.021 32.4125 116.169 32.501 116.338C32.5896 116.169 32.6742 116.021 32.7715 115.882C33.0736 115.45 33.4496 115.074 33.8818 114.771C34.0211 114.674 34.169 114.59 34.3379 114.501C34.1692 114.412 34.0209 114.329 33.8818 114.231C33.4496 113.929 33.0736 113.553 32.7715 113.121C32.674 112.982 32.5897 112.833 32.501 112.664Z" fill="currentColor"/>
</svg>
