<svg xmlns="http://www.w3.org/2000/svg" width="16" height="16" viewBox="20.0 111.0 16.0 16.0" fill="none">
  <path d="M26 114C26.2261 114 26.4207 114 26.5811 114.011C26.746 114.022 26.9113 114.047 27.0742 114.114C27.4416 114.266 27.7335 114.558 27.8857 114.926C27.9532 115.089 27.978 115.254 27.9893 115.419C28.0002 115.579 28 115.774 28 116C28 116.226 28.0002 116.421 27.9893 116.581C27.978 116.746 27.9532 116.911 27.8857 117.074C27.7335 117.442 27.4416 117.734 27.0742 117.886C26.9113 117.953 26.746 117.978 26.5811 117.989C26.4207 118 26.2261 118 26 118H25V118.5C25 119.221 25.0014 119.712 25.0508 120.079C25.0982 120.432 25.1817 120.596 25.293 120.707C25.4043 120.818 25.5679 120.902 25.9209 120.949C26.2883 120.999 26.7788 121 27.5 121H31.2695C31.6155 120.403 32.2601 120 33 120C34.1046 120 35 120.895 35 122C35 123.105 34.1046 124 33 124C31.8954 124 31 123.105 31 122H27.5C26.807 122 26.2366 122.001 25.7871 121.94C25.3234 121.878 24.9139 121.742 24.5859 121.414C24.258 121.086 24.122 120.677 24.0596 120.213C23.9991 119.763 24 119.193 24 118.5V118H23C22.7739 118 22.5793 118 22.4189 117.989C22.254 117.978 22.0887 117.953 21.9258 117.886C21.5584 117.734 21.2665 117.442 21.1143 117.074C21.0468 116.911 21.022 116.746 21.0107 116.581C20.9998 116.421 21 116.226 21 116C21 115.774 20.9998 115.579 21.0107 115.419C21.022 115.254 21.0468 115.089 21.1143 114.926C21.2665 114.558 21.5584 114.266 21.9258 114.114C22.0887 114.047 22.254 114.022 22.4189 114.011C22.5793 114 22.7739 114 23 114H26ZM33 121C32.4477 121 32 121.448 32 122C32 122.552 32.4477 123 33 123C33.5523 123 34 122.552 34 122C34 121.448 33.5523 121 33 121ZM23 115C22.7605 115 22.6057 115.001 22.4873 115.009C22.3733 115.017 22.3294 115.029 22.3086 115.038C22.1861 115.089 22.0888 115.186 22.0381 115.309C22.0295 115.329 22.0166 115.373 22.0088 115.487C22.0007 115.606 22 115.76 22 116C22 116.24 22.0007 116.394 22.0088 116.513C22.0166 116.627 22.0295 116.671 22.0381 116.691C22.0888 116.814 22.1861 116.911 22.3086 116.962C22.3294 116.971 22.3733 116.983 22.4873 116.991C22.6057 116.999 22.7605 117 23 117H26C26.2395 117 26.3943 116.999 26.5127 116.991C26.6267 116.983 26.6706 116.971 26.6914 116.962C26.8139 116.911 26.9112 116.814 26.9619 116.691C26.9705 116.671 26.9834 116.627 26.9912 116.513C26.9993 116.394 27 116.24 27 116C27 115.76 26.9993 115.606 26.9912 115.487C26.9834 115.373 26.9705 115.329 26.9619 115.309C26.9112 115.186 26.8139 115.089 26.6914 115.038C26.6706 115.029 26.6267 115.017 26.5127 115.009C26.3943 115.001 26.2395 115 26 115H23Z" fill="currentColor"/>
</svg>
