<svg xmlns="http://www.w3.org/2000/svg" width="16" height="16" viewBox="20.0 111.0 16.0 16.0" fill="none">
  <path d="M26 112C26.2261 112 26.4207 112 26.5811 112.011C26.746 112.022 26.9113 112.047 27.0742 112.114C27.4416 112.266 27.7335 112.558 27.8857 112.926C27.9532 113.089 27.978 113.254 27.9893 113.419C28.0002 113.579 28 113.774 28 114C28 114.226 28.0002 114.421 27.9893 114.581C27.978 114.746 27.9532 114.911 27.8857 115.074C27.7335 115.442 27.4416 115.734 27.0742 115.886C26.9113 115.953 26.746 115.978 26.5811 115.989C26.4207 116 26.2261 116 26 116H25V118H31.2695C31.6155 117.403 32.2601 117 33 117C34.1046 117 35 117.895 35 119C35 120.105 34.1046 121 33 121C31.8954 121 31 120.105 31 119H25V120.5C25 121.221 25.0014 121.712 25.0508 122.079C25.0982 122.432 25.1817 122.596 25.293 122.707C25.4043 122.818 25.5679 122.902 25.9209 122.949C26.2883 122.999 26.7788 123 27.5 123H31.2695C31.6155 122.403 32.2601 122 33 122C34.1046 122 35 122.895 35 124C35 125.105 34.1046 126 33 126C31.8954 126 31 125.105 31 124H27.5C26.807 124 26.2366 124.001 25.7871 123.94C25.3234 123.878 24.9139 123.742 24.5859 123.414C24.258 123.086 24.122 122.677 24.0596 122.213C23.9991 121.763 24 121.193 24 120.5V116H23C22.7739 116 22.5793 116 22.4189 115.989C22.254 115.978 22.0887 115.953 21.9258 115.886C21.5584 115.734 21.2665 115.442 21.1143 115.074C21.0468 114.911 21.022 114.746 21.0107 114.581C20.9998 114.421 21 114.226 21 114C21 113.774 20.9998 113.579 21.0107 113.419C21.022 113.254 21.0468 113.089 21.1143 112.926C21.2665 112.558 21.5584 112.266 21.9258 112.114C22.0887 112.047 22.254 112.022 22.4189 112.011C22.5793 112 22.7739 112 23 112H26ZM33 123C32.4477 123 32 123.448 32 124C32 124.552 32.4477 125 33 125C33.5523 125 34 124.552 34 124C34 123.448 33.5523 123 33 123ZM33 118C32.4477 118 32 118.448 32 119C32 119.552 32.4477 120 33 120C33.5523 120 34 119.552 34 119C34 118.448 33.5523 118 33 118ZM23 113C22.7605 113 22.6057 113.001 22.4873 113.009C22.3733 113.017 22.3294 113.029 22.3086 113.038C22.1861 113.089 22.0888 113.186 22.0381 113.309C22.0295 113.329 22.0166 113.373 22.0088 113.487C22.0007 113.606 22 113.76 22 114C22 114.24 22.0007 114.394 22.0088 114.513C22.0166 114.627 22.0295 114.671 22.0381 114.691C22.0888 114.814 22.1861 114.911 22.3086 114.962C22.3294 114.971 22.3733 114.983 22.4873 114.991C22.6057 114.999 22.7605 115 23 115H26C26.2395 115 26.3943 114.999 26.5127 114.991C26.6267 114.983 26.6706 114.971 26.6914 114.962C26.8139 114.911 26.9112 114.814 26.9619 114.691C26.9705 114.671 26.9834 114.627 26.9912 114.513C26.9993 114.394 27 114.24 27 114C27 113.76 26.9993 113.606 26.9912 113.487C26.9834 113.373 26.9705 113.329 26.9619 113.309C26.9112 113.186 26.8139 113.089 26.6914 113.038C26.6706 113.029 26.6267 113.017 26.5127 113.009C26.3943 113.001 26.2395 113 26 113H23Z" fill="currentColor"/>
</svg>
