<svg xmlns="http://www.w3.org/2000/svg" width="16" height="16" viewBox="20.5 111.0 16.0 16.0" fill="none">
  <path d="M24 112C25.1046 112 26 112.895 26 114C26 114.74 25.5971 115.384 25 115.729V118H31.2695C31.6155 117.403 32.2601 117 33 117C34.1046 117 35 117.895 35 119C35 120.105 34.1046 121 33 121C31.8954 121 31 120.105 31 119H25V120.5C25 121.221 25.0014 121.712 25.0508 122.079C25.0982 122.432 25.1817 122.596 25.293 122.707C25.4043 122.818 25.5679 122.902 25.9209 122.949C26.2883 122.999 26.7788 123 27.5 123H31.2695C31.6155 122.403 32.2601 122 33 122C34.1046 122 35 122.895 35 124C35 125.105 34.1046 126 33 126C31.8954 126 31 125.105 31 124H27.5C26.807 124 26.2366 124.001 25.7871 123.94C25.3233 123.878 24.9139 123.742 24.5859 123.414C24.258 123.086 24.122 122.677 24.0596 122.213C23.9991 121.763 24 121.193 24 120.5V116C22.8954 116 22 115.105 22 114C22 112.895 22.8954 112 24 112ZM33 123C32.4477 123 32 123.448 32 124C32 124.552 32.4477 125 33 125C33.5523 125 34 124.552 34 124C34 123.448 33.5523 123 33 123ZM33 118C32.4477 118 32 118.448 32 119C32 119.552 32.4477 120 33 120C33.5523 120 34 119.552 34 119C34 118.448 33.5523 118 33 118ZM24 113C23.4477 113 23 113.448 23 114C23 114.552 23.4477 115 24 115C24.5523 115 25 114.552 25 114C25 113.448 24.5523 113 24 113Z" fill="currentColor"/>
</svg>
