<svg xmlns="http://www.w3.org/2000/svg" width="16" height="16" viewBox="20.06 110.04 16.87 16.87" fill="none">
  <path d="M28.4996 122C28.7758 122 28.9996 122.224 28.9996 122.5C28.9996 122.776 28.7758 123 28.4996 123C28.2236 123 27.9996 122.776 27.9996 122.5C27.9996 122.224 28.2236 122 28.4996 122Z" fill="currentColor"/>
  <path d="M28.4996 116C28.7758 116 28.9996 116.224 28.9996 116.5V120.5C28.9996 120.776 28.7758 121 28.4996 121C28.2236 121 27.9996 120.776 27.9996 120.5V116.5C27.9996 116.224 28.2236 116 28.4996 116Z" fill="currentColor"/>
  <path d="M28.4977 111.942C29.1524 111.942 29.6389 112.33 30.066 112.855C30.4896 113.377 30.9426 114.144 31.5094 115.101L34.2457 119.716C34.8326 120.706 35.3029 121.498 35.5641 122.138C35.8267 122.781 35.9364 123.409 35.6051 123.99C35.2737 124.572 34.6771 124.798 33.9899 124.9C33.3065 125.002 32.3857 125.001 31.235 125.001H25.7643C24.6135 125.001 23.6928 125.003 23.0094 124.901C22.3222 124.799 21.7257 124.574 21.3942 123.992C21.0627 123.411 21.1717 122.782 21.4342 122.139C21.6953 121.499 22.1661 120.708 22.7526 119.718L25.4869 115.102C26.0536 114.145 26.5069 113.377 26.9303 112.855C27.3573 112.33 27.8432 111.943 28.4977 111.942ZM28.4977 112.942C28.2978 112.943 28.0682 113.041 27.7067 113.486C27.3413 113.936 26.931 114.625 26.3473 115.61L23.6129 120.228C23.0092 121.247 22.5863 121.962 22.36 122.517C22.1352 123.067 22.1632 123.321 22.2633 123.497C22.3635 123.673 22.5677 123.825 23.1559 123.912C23.7483 124 24.5796 124.001 25.7643 124.001H31.235C32.4197 124.001 33.251 123.999 33.8434 123.911C34.4319 123.824 34.6359 123.671 34.736 123.495C34.8359 123.319 34.8632 123.066 34.6383 122.516C34.4118 121.961 33.9895 121.245 33.3854 120.226L30.649 115.61C30.0651 114.625 29.6552 113.936 29.2897 113.486C28.9277 113.041 28.6977 112.942 28.4977 112.942Z" fill="currentColor"/>
</svg>
