<svg xmlns="http://www.w3.org/2000/svg" width="16" height="16" viewBox="20.0 112.0 16.0 16.0" fill="none">
  <path d="M30.4115 124.361H28.936C27.6075 124.361 26.6175 123.677 26.6175 122.042V119.424H25.41V118.005C26.7385 117.66 27.2945 116.517 27.3585 115.527H28.7375V117.775H30.3475V119.424H28.7375V121.703C28.7375 122.387 29.083 122.623 29.6315 122.623H30.4115V124.361ZM32.2045 113H23.7955C22.258 113 21 114.258 21 115.796V124.205C21 125.742 22.258 127 23.7955 127H32.2045C33.7415 127 35 125.742 35 124.205V115.796C35 114.258 33.7415 113 32.2045 113Z" fill="currentColor"/>
</svg>
