<svg xmlns="http://www.w3.org/2000/svg" width="16" height="16" viewBox="19.86 111.0 16.14 16.14" fill="none">
  <path d="M28 112C26.6155 112 25.2622 112.411 24.111 113.18C22.9599 113.949 22.0627 115.042 21.5328 116.321C21.003 117.6 20.8644 119.008 21.1345 120.366C21.4046 121.723 22.0713 122.971 23.0503 123.95C24.0292 124.929 25.2765 125.595 26.6344 125.865C27.9922 126.136 29.3997 125.997 30.6788 125.467C31.9579 124.937 33.0511 124.04 33.8203 122.889C34.5895 121.738 35 120.384 35 119C35 117.143 34.2625 115.363 32.9497 114.05C31.637 112.737 29.8565 112 28 112ZM28 124.133C26.9847 124.133 25.9922 123.832 25.1481 123.268C24.3039 122.704 23.646 121.902 23.2574 120.964C22.8689 120.026 22.7672 118.994 22.9653 117.999C23.1634 117.003 23.6523 116.088 24.3702 115.37C25.0881 114.652 26.0028 114.163 26.9985 113.965C27.9943 113.767 29.0264 113.869 29.9644 114.257C30.9024 114.646 31.7042 115.304 32.2682 116.148C32.8323 116.992 33.1333 117.985 33.1333 119C33.1333 120.361 32.5925 121.667 31.6298 122.63C30.6671 123.592 29.3614 124.133 28 124.133ZM31.1733 117.273C31.1733 117.559 31.0885 117.839 30.9295 118.077C30.7706 118.315 30.5446 118.5 30.2803 118.61C30.0159 118.719 29.7251 118.748 29.4444 118.692C29.1638 118.636 28.906 118.499 28.7037 118.296C28.5014 118.094 28.3636 117.836 28.3078 117.556C28.252 117.275 28.2806 116.984 28.3901 116.72C28.4996 116.455 28.685 116.229 28.9229 116.07C29.1608 115.912 29.4405 115.827 29.7267 115.827C30.1096 115.829 30.4761 115.982 30.7469 116.253C31.0177 116.524 31.1709 116.89 31.1733 117.273ZM31.1733 120.727C31.1733 121.013 31.0885 121.292 30.9295 121.53C30.7706 121.768 30.5446 121.954 30.2803 122.063C30.0159 122.173 29.7251 122.201 29.4444 122.146C29.1638 122.09 28.906 121.952 28.7037 121.75C28.5014 121.547 28.3636 121.29 28.3078 121.009C28.252 120.728 28.2806 120.437 28.3901 120.173C28.4996 119.909 28.685 119.683 28.9229 119.524C29.1608 119.365 29.4405 119.28 29.7267 119.28C30.1096 119.282 30.4761 119.436 30.7469 119.706C31.0177 119.977 31.1709 120.344 31.1733 120.727ZM27.72 120.727C27.72 121.013 27.6352 121.292 27.4762 121.53C27.3172 121.768 27.0913 121.954 26.827 122.063C26.5626 122.173 26.2717 122.201 25.9911 122.146C25.7105 122.09 25.4527 121.952 25.2504 121.75C25.0481 121.547 24.9103 121.29 24.8545 121.009C24.7986 120.728 24.8273 120.437 24.9368 120.173C25.0463 119.909 25.2317 119.683 25.4696 119.524C25.7075 119.365 25.9872 119.28 26.2733 119.28C26.657 119.28 27.025 119.432 27.2963 119.704C27.5676 119.975 27.72 120.343 27.72 120.727ZM27.72 117.273C27.72 117.559 27.6352 117.839 27.4762 118.077C27.3172 118.315 27.0913 118.5 26.827 118.61C26.5626 118.719 26.2717 118.748 25.9911 118.692C25.7105 118.636 25.4527 118.499 25.2504 118.296C25.0481 118.094 24.9103 117.836 24.8545 117.556C24.7986 117.275 24.8273 116.984 24.9368 116.72C25.0463 116.455 25.2317 116.229 25.4696 116.07C25.7075 115.912 25.9872 115.827 26.2733 115.827C26.657 115.827 27.025 115.979 27.2963 116.25C27.5676 116.522 27.72 116.89 27.72 117.273Z" fill="currentColor"/>
</svg>
