<svg xmlns="http://www.w3.org/2000/svg" width="16" height="16" viewBox="22.0 111.0 14.0 14.0" fill="none">
  <path d="M27 112C29.2205 112 31.1578 113.207 32.1953 115H34C34.5523 115 35 115.448 35 116V120C35 120.552 34.5523 121 34 121H32.1953C31.1578 122.793 29.2205 124 27 124C26.7239 124 26.5 123.776 26.5 123.5C26.5 123.224 26.7239 123 27 123C29.7614 123 32 120.761 32 118C32 115.239 29.7614 113 27 113C26.7239 113 26.5 112.776 26.5 112.5C26.5 112.224 26.7239 112 27 112Z" fill="currentColor"/>
  <path d="M27 114C29.2091 114 31 115.791 31 118C31 120.209 29.2091 122 27 122C24.7909 122 23 120.209 23 118C23 115.791 24.7909 114 27 114ZM27 115C25.3431 115 24 116.343 24 118C24 119.657 25.3431 121 27 121C28.6569 121 30 119.657 30 118C30 116.343 28.6569 115 27 115Z" fill="currentColor"/>
</svg>
