<svg xmlns="http://www.w3.org/2000/svg" width="16" height="16" viewBox="19.95 112.5 16.05 16.05" fill="none">
  <path d="M31 115C33.2091 115 35 116.791 35 119C35 121.209 33.2091 123 31 123H22.7071L24.8535 125.146C25.0488 125.342 25.0488 125.658 24.8535 125.854C24.6583 126.049 24.3418 126.049 24.1465 125.854L21.1465 122.854C20.9512 122.658 20.9512 122.342 21.1465 122.146L24.1465 119.146C24.3418 118.951 24.6583 118.951 24.8535 119.146C25.0488 119.342 25.0488 119.658 24.8535 119.854L22.7071 122H31C32.6569 122 34 120.657 34 119C34 117.343 32.6569 116 31 116H27.5C27.2239 116 27 115.776 27 115.5C27 115.224 27.2239 115 27.5 115H31Z" fill="currentColor"/>
</svg>
