<svg xmlns="http://www.w3.org/2000/svg" width="16" height="16" viewBox="19.95 109.45 16.05 16.05" fill="none">
  <path d="M24.1465 112.146C24.3418 111.951 24.6583 111.951 24.8535 112.146C25.0488 112.342 25.0488 112.658 24.8535 112.853L22.7071 115H31C33.2091 115 35 116.791 35 119C35 121.209 33.2091 123 31 123H27.5C27.2239 123 27 122.776 27 122.5C27 122.224 27.2239 122 27.5 122H31C32.6568 122 34 120.657 34 119C34 117.343 32.6569 116 31 116H22.7071L24.8535 118.146C25.0488 118.342 25.0488 118.658 24.8535 118.853C24.6583 119.049 24.3418 119.049 24.1465 118.853L21.1465 115.853C20.9512 115.658 20.9512 115.342 21.1465 115.146L24.1465 112.146Z" fill="currentColor"/>
</svg>
