<svg xmlns="http://www.w3.org/2000/svg" width="16" height="16" viewBox="19.69 110.67 16.66 16.66" fill="none">
  <path d="M30.5 123C30.7761 123 31 123.224 31 123.5V125.5C30.9999 125.776 30.7761 126 30.5 126C30.2239 126 30.0001 125.776 30 125.5V123.5C30 123.224 30.2239 123 30.5 123Z" fill="currentColor"/>
  <path d="M32.1465 123.147C32.3417 122.952 32.6582 122.952 32.8535 123.147L34.8535 125.147C35.0487 125.342 35.0487 125.659 34.8535 125.854C34.6583 126.049 34.3417 126.049 34.1465 125.854L32.1465 123.854C31.9514 123.659 31.9514 123.342 32.1465 123.147Z" fill="currentColor"/>
  <path d="M24.1445 118.149C24.3385 117.953 24.6551 117.95 24.8516 118.144C25.0479 118.338 25.0495 118.655 24.8555 118.852L22.7041 121.031C21.8046 121.941 21.8088 123.408 22.7139 124.313C23.6272 125.226 25.11 125.221 26.0176 124.302L28.1445 122.149C28.3384 121.953 28.6541 121.951 28.8506 122.144C29.0471 122.338 29.0495 122.655 28.8555 122.852L26.7285 125.005C25.4312 126.319 23.3123 126.325 22.0068 125.02C20.713 123.726 20.7064 121.63 21.9922 120.328L24.1445 118.149Z" fill="currentColor"/>
  <path d="M34.5 120.999C34.7761 120.999 34.9999 121.223 35 121.499C35 121.776 34.7761 121.999 34.5 121.999H32.5C32.2239 121.999 32 121.776 32 121.499C32.0001 121.223 32.2239 120.999 32.5 120.999H34.5Z" fill="currentColor"/>
  <path d="M29.3252 112.968C30.625 111.669 32.7315 111.669 34.0312 112.968C35.3309 114.268 35.3316 116.375 34.0322 117.675L31.8535 119.854C31.6583 120.049 31.3417 120.049 31.1465 119.854C30.9514 119.659 30.9515 119.342 31.1465 119.147L33.3252 116.968C34.2341 116.059 34.2334 114.584 33.3242 113.675C32.415 112.766 30.9415 112.766 30.0322 113.675L27.8535 115.854C27.6583 116.049 27.3417 116.049 27.1465 115.854C26.9513 115.659 26.9515 115.342 27.1465 115.147L29.3252 112.968Z" fill="currentColor"/>
  <path d="M23.5 116C23.7761 116 23.9999 116.224 24 116.5C24 116.777 23.7761 117 23.5 117H21.5C21.2239 117 21 116.777 21 116.5C21.0001 116.224 21.2239 116 21.5 116H23.5Z" fill="currentColor"/>
  <path d="M21.1465 112.147C21.3417 111.952 21.6583 111.952 21.8535 112.147L23.8535 114.147C24.0484 114.342 24.0487 114.659 23.8535 114.854C23.6584 115.049 23.3417 115.049 23.1465 114.854L21.1465 112.854C20.9513 112.659 20.9513 112.342 21.1465 112.147Z" fill="currentColor"/>
  <path d="M25.5 112C25.7761 112 26 112.224 26 112.5V114.5C25.9999 114.776 25.7761 115 25.5 115C25.2239 115 25.0001 114.776 25 114.5V112.5C25 112.224 25.2239 112 25.5 112Z" fill="currentColor"/>
</svg>
