<svg xmlns="http://www.w3.org/2000/svg" width="16" height="16" viewBox="20.98 110.95 15.05 15.05" fill="none">
  <path d="M34.5 122C34.7761 122 35 122.224 35 122.5C35 123.881 33.8807 125 32.5 125H24.5C23.1193 125 22 123.881 22 122.5C22 122.224 22.2239 122 22.5 122C22.7761 122 23 122.224 23 122.5C23 123.328 23.6716 124 24.5 124H32.5C33.3284 124 34 123.328 34 122.5C34 122.224 34.2239 122 34.5 122Z" fill="currentColor"/>
  <path d="M28.1465 112.146C28.3417 111.951 28.6583 111.951 28.8535 112.146L32.8535 116.146C33.0488 116.342 33.0488 116.658 32.8535 116.853C32.6583 117.049 32.3417 117.049 32.1465 116.853L29 113.707V122.5C29 122.776 28.7761 123 28.5 123C28.2239 123 28 122.776 28 122.5V113.707L24.8535 116.853C24.6583 117.049 24.3417 117.049 24.1465 116.853C23.9512 116.658 23.9512 116.342 24.1465 116.146L28.1465 112.146Z" fill="currentColor"/>
</svg>
