<svg xmlns="http://www.w3.org/2000/svg" width="16" height="16" viewBox="20.0 111.0 16.0 16.0" fill="none">
  <path d="M28.0002 121C31.5057 121 33.0564 122.177 33.6536 122.862C33.9266 123.176 34.0002 123.563 34.0002 123.882C34.0002 125.051 33.0517 126 31.8821 126H24.1184C22.9487 126 22.0002 125.052 22.0002 123.882C22.0003 123.562 22.0737 123.176 22.3469 122.862C22.9442 122.177 24.4948 121 28.0002 121ZM28.0002 122C24.7428 122 23.4828 123.082 23.1008 123.52C23.044 123.585 23.0003 123.699 23.0002 123.882C23.0002 124.499 23.5009 125 24.1184 125H31.8821C32.4994 125 33.0002 124.499 33.0002 123.882C33.0002 123.699 32.9565 123.585 32.8997 123.52C32.5178 123.082 31.2578 122 28.0002 122ZM28.0002 112C30.2093 112 32.0002 113.791 32.0002 116C32.0002 118.209 30.2093 120 28.0002 120C25.7911 120 24.0002 118.209 24.0002 116C24.0002 113.791 25.7911 112 28.0002 112ZM28.0002 113C26.3434 113 25.0002 114.343 25.0002 116C25.0002 117.657 26.3434 119 28.0002 119C29.657 119 31.0002 117.657 31.0002 116C31.0002 114.343 29.657 113 28.0002 113Z" fill="currentColor"/>
</svg>
