<svg xmlns="http://www.w3.org/2000/svg" width="16" height="16" viewBox="20.0 110.97 17.06 17.06" fill="none">
  <path d="M31.5 123.875C31.845 123.875 32.125 124.155 32.125 124.5C32.125 124.845 31.845 125.125 31.5 125.125C31.155 125.125 30.875 124.845 30.875 124.5C30.875 124.155 31.155 123.875 31.5 123.875Z" fill="currentColor"/>
  <path d="M31.5 120C31.776 120 32 120.224 32 120.5V122.5C32 122.776 31.776 123 31.5 123C31.224 123 31 122.776 31 122.5V120.5C31 120.224 31.224 120 31.5 120Z" fill="currentColor"/>
  <path d="M31.5 118.025C32.0606 118.026 32.4419 118.395 32.7383 118.815C33.0363 119.238 33.3483 119.856 33.7305 120.611L35.127 123.371C35.4483 124.006 35.716 124.534 35.8584 124.962C36.003 125.397 36.0629 125.858 35.8008 126.285C35.5384 126.712 35.0989 126.867 34.6455 126.935C34.1993 127.001 33.608 127 32.8965 127H30.1035C29.3918 127 28.7998 127.001 28.3535 126.935C27.9003 126.867 27.4605 126.712 27.1982 126.285C26.9363 125.859 26.9961 125.397 27.1406 124.962C27.283 124.534 27.5507 124.006 27.8721 123.371L29.2686 120.611C29.6507 119.856 29.9627 119.238 30.2607 118.815C30.5571 118.395 30.9393 118.026 31.5 118.025ZM31.5 119.025C31.446 119.025 31.3246 119.042 31.0781 119.392C30.8327 119.74 30.5586 120.277 30.1611 121.062L28.7646 123.822C28.4282 124.487 28.2032 124.936 28.0898 125.277C27.979 125.611 28.0204 125.712 28.0508 125.762C28.0812 125.811 28.1532 125.895 28.501 125.946C28.8563 125.999 29.3587 126 30.1035 126H32.8965C33.6413 126 34.1437 125.999 34.499 125.946C34.8466 125.895 34.9188 125.811 34.9492 125.762C34.9796 125.712 35.0209 125.611 34.9102 125.277C34.7968 124.936 34.5709 124.487 34.2344 123.822L32.8379 121.062C32.4404 120.277 32.1664 119.74 31.9209 119.392C31.6745 119.042 31.554 119.025 31.5 119.025Z" fill="currentColor"/>
  <path d="M26 119C27.0708 119 27.9653 119.238 28.6846 119.556C28.5833 119.752 28.4806 119.955 28.377 120.16L28.2314 120.447C27.6314 120.19 26.8879 120 26 120C23.9947 120 22.7247 120.968 22.1846 121.491C22.0705 121.602 22 121.777 22 122C22 122.552 22.4477 123 23 123H26.9404C26.7686 123.339 26.5996 123.679 26.4541 124H23C21.8954 124 21 123.105 21 122C21 121.574 21.1371 121.115 21.4893 120.773C22.1419 120.141 23.6476 119 26 119Z" fill="currentColor"/>
  <path d="M26 112C27.6569 112 29 113.343 29 115C29 116.657 27.6569 118 26 118C24.3431 118 23 116.657 23 115C23 113.343 24.3431 112 26 112ZM26 113C24.8954 113 24 113.895 24 115C24 116.105 24.8954 117 26 117C27.1046 117 28 116.105 28 115C28 113.895 27.1046 113 26 113Z" fill="currentColor"/>
</svg>
