<svg xmlns="http://www.w3.org/2000/svg" width="16" height="16" viewBox="20.0 111.0 17.0 17.0" fill="none">
  <path d="M32.5 118C33.193 118 33.7634 117.999 34.2129 118.06C34.6767 118.122 35.0861 118.258 35.4141 118.586C35.742 118.914 35.878 119.323 35.9404 119.787C36.0009 120.237 36 120.807 36 121.5V123.5C36 124.193 36.0009 124.763 35.9404 125.213C35.878 125.677 35.742 126.086 35.4141 126.414C35.0861 126.742 34.6767 126.878 34.2129 126.94C33.7634 127.001 33.193 127 32.5 127H31.5C30.807 127 30.2366 127.001 29.7871 126.94C29.3233 126.878 28.9139 126.742 28.5859 126.414C28.258 126.086 28.122 125.677 28.0596 125.213C27.9991 124.763 28 124.193 28 123.5V121.5C28 120.807 27.9991 120.237 28.0596 119.787C28.122 119.323 28.258 118.914 28.5859 118.586C28.9139 118.258 29.3233 118.122 29.7871 118.06C30.2366 117.999 30.807 118 31.5 118H32.5ZM33.9238 119.036C33.9719 119.182 34 119.338 34 119.5C34 120.328 33.3284 121 32.5 121H31.5C30.6716 121 30 120.328 30 119.5C30 119.338 30.0272 119.182 30.0752 119.036C30.0215 119.041 29.97 119.044 29.9209 119.051C29.5679 119.098 29.4043 119.182 29.293 119.293C29.1817 119.404 29.0982 119.568 29.0508 119.921C29.0014 120.288 29 120.779 29 121.5V123.5C29 124.221 29.0014 124.712 29.0508 125.079C29.0982 125.432 29.1817 125.596 29.293 125.707C29.4043 125.818 29.5679 125.902 29.9209 125.949C30.2883 125.999 30.7788 126 31.5 126H32.5C33.2212 126 33.7117 125.999 34.0791 125.949C34.4321 125.902 34.5957 125.818 34.707 125.707C34.8183 125.596 34.9018 125.432 34.9492 125.079C34.9986 124.712 35 124.221 35 123.5V121.5C35 120.779 34.9986 120.288 34.9492 119.921C34.9018 119.568 34.8183 119.404 34.707 119.293C34.5957 119.182 34.4321 119.098 34.0791 119.051C34.0297 119.044 33.9779 119.041 33.9238 119.036ZM31.5 119C31.2239 119 31 119.224 31 119.5C31 119.776 31.2239 120 31.5 120H32.5C32.7761 120 33 119.776 33 119.5C33 119.224 32.7761 119 32.5 119H31.5Z" fill="currentColor"/>
  <path d="M26 119C26.421 119 26.8149 119.037 27.1816 119.101C27.1287 119.289 27.0924 119.475 27.0684 119.654C27.0499 119.792 27.0362 119.937 27.0264 120.089C26.7088 120.033 26.3667 120 26 120C23.9947 120 22.7247 120.968 22.1846 121.491C22.0705 121.602 22 121.777 22 122C22 122.552 22.4477 123 23 123H27V123.5C27 123.668 27.003 123.835 27.0039 124H23C21.8954 124 21 123.105 21 122C21 121.574 21.1371 121.115 21.4893 120.773C22.1419 120.141 23.6476 119 26 119Z" fill="currentColor"/>
  <path d="M26 112C27.6569 112 29 113.343 29 115C29 116.657 27.6569 118 26 118C24.3431 118 23 116.657 23 115C23 113.343 24.3431 112 26 112ZM26 113C24.8954 113 24 113.895 24 115C24 116.105 24.8954 117 26 117C27.1046 117 28 116.105 28 115C28 113.895 27.1046 113 26 113Z" fill="currentColor"/>
</svg>
