<svg xmlns="http://www.w3.org/2000/svg" width="16" height="16" viewBox="20.5 112.0 15.0 15.0" fill="none">
  <path d="M26.5312 117C26.8074 117 27.0312 117.224 27.0312 117.5C27.0312 117.776 26.8074 118 26.5312 118C24.5773 118 23 119.571 23 121.5C23 123.429 24.5773 125 26.5312 125C28.2714 125 29.7143 123.753 30.0078 122.117C30.0567 121.846 30.3164 121.665 30.5879 121.714C30.8596 121.763 31.0408 122.022 30.9922 122.294C30.6137 124.403 28.7585 126 26.5312 126C24.0324 126 22 123.989 22 121.5C22 119.011 24.0324 117 26.5312 117Z" fill="currentColor"/>
  <path d="M27.5674 114.546L27.7256 114.585C27.8768 114.637 28.0071 114.721 28.1123 114.784L29.3066 115.501C29.5158 115.626 29.7184 115.746 29.8682 115.867C30.0091 115.981 30.1539 116.134 30.2236 116.354L30.249 116.451L30.2627 116.552C30.2806 116.781 30.2037 116.977 30.1162 117.136C30.0231 117.304 29.8807 117.492 29.7344 117.688L28.5996 119.2C28.3277 119.563 28.1592 119.79 28.0674 119.959C28.0657 119.962 28.064 119.965 28.0625 119.968C28.066 119.968 28.0695 119.97 28.0732 119.971C28.2636 119.999 28.5466 120 29 120H31.5C31.7215 120 31.938 119.999 32.1152 120.022C32.283 120.045 32.4715 120.096 32.6377 120.23L32.707 120.293L32.7695 120.362C32.9037 120.529 32.955 120.717 32.9775 120.885C33.0014 121.062 33 121.278 33 121.5V122.5C33 122.75 33.0009 122.887 33.0137 122.982V122.985L33.0176 122.986C33.1127 122.999 33.2502 123 33.5 123C33.7761 123 34 123.224 34 123.5C34 123.776 33.7761 124 33.5 124C33.2785 124 33.062 124.001 32.8848 123.978C32.6932 123.952 32.4746 123.889 32.293 123.707C32.1114 123.525 32.0482 123.307 32.0225 123.115C31.9986 122.938 32 122.722 32 122.5V121.5C32 121.25 31.9991 121.113 31.9863 121.018L31.9854 121.014H31.9824C31.8873 121.001 31.7498 121 31.5 121H29C28.5808 121 28.2092 121.001 27.9287 120.96C27.6519 120.919 27.2889 120.814 27.1055 120.447C26.9221 120.081 27.0549 119.727 27.1885 119.481C27.3238 119.232 27.5482 118.935 27.7998 118.6L28.9346 117.087C29.0988 116.868 29.1897 116.745 29.2412 116.651L29.2422 116.647L29.2402 116.646C29.1573 116.579 29.0267 116.499 28.792 116.358L27.5977 115.642C27.5041 115.585 27.4571 115.558 27.4219 115.54L27.4189 115.538L27.418 115.539C27.3791 115.546 27.3258 115.559 27.2197 115.586L25.6211 115.985C25.3533 116.052 25.0816 115.889 25.0146 115.621C24.9478 115.353 25.1111 115.082 25.3789 115.015L26.9766 114.615C27.0957 114.585 27.2453 114.544 27.4053 114.538L27.5674 114.546Z" fill="currentColor"/>
  <path d="M31.5 113C32.3284 113 33 113.672 33 114.5C33 115.328 32.3284 116 31.5 116C30.6716 116 30 115.328 30 114.5C30 113.672 30.6716 113 31.5 113ZM31.5 114C31.2239 114 31 114.224 31 114.5C31 114.776 31.2239 115 31.5 115C31.7761 115 32 114.776 32 114.5C32 114.224 31.7761 114 31.5 114Z" fill="currentColor"/>
</svg>
