<svg xmlns="http://www.w3.org/2000/svg" width="16" height="16" viewBox="20.0 111.0 17.0 17.0" fill="none">
  <path d="M32 118C33.6569 118 35 119.343 35 121V122.268C35.4534 122.529 35.7925 122.963 35.9316 123.482C36.0041 123.753 36 124.067 36 124.5C36 124.933 36.0041 125.247 35.9316 125.518C35.7467 126.208 35.2077 126.747 34.5176 126.932C34.2472 127.004 33.9328 127 33.5 127H30.5C30.0672 127 29.7528 127.004 29.4824 126.932C28.7923 126.747 28.2533 126.208 28.0684 125.518C27.9959 125.247 28 124.933 28 124.5C28 124.067 27.9959 123.753 28.0684 123.482C28.2075 122.963 28.5466 122.529 29 122.268V121C29 119.343 30.3431 118 32 118ZM30.5 123C30.0029 123 29.8523 123.004 29.7412 123.034C29.3962 123.127 29.1267 123.396 29.0342 123.741C29.0044 123.852 29 124.003 29 124.5C29 124.997 29.0044 125.148 29.0342 125.259C29.1266 125.604 29.3961 125.873 29.7412 125.966C29.8523 125.996 30.0029 126 30.5 126H33.5C33.9971 126 34.1477 125.996 34.2588 125.966C34.6039 125.873 34.8734 125.604 34.9658 125.259C34.9956 125.148 35 124.997 35 124.5C35 124.003 34.9956 123.852 34.9658 123.741C34.8733 123.396 34.6038 123.127 34.2588 123.034C34.1477 123.004 33.9971 123 33.5 123H30.5ZM32 119C30.8954 119 30 119.895 30 121V122.006C30.1486 122.001 30.3133 122 30.5 122H33.5C33.6867 122 33.8514 122.001 34 122.006V121C34 119.895 33.1046 119 32 119Z" fill="currentColor"/>
  <path d="M26 119C26.9007 119 27.677 119.168 28.3291 119.41C28.1974 119.714 28.1018 120.037 28.0488 120.374C27.4825 120.156 26.8001 120 26 120C23.9947 120 22.7247 120.968 22.1846 121.491C22.0705 121.602 22 121.777 22 122C22 122.552 22.4477 123 23 123H27.1729C27.1469 123.073 27.1229 123.148 27.1025 123.224C27.0348 123.477 27.0117 123.745 27.0039 124H23C21.8954 124 21 123.105 21 122C21 121.574 21.1371 121.115 21.4893 120.773C22.1419 120.141 23.6476 119 26 119Z" fill="currentColor"/>
  <path d="M26 112C27.6569 112 29 113.343 29 115C29 116.657 27.6569 118 26 118C24.3431 118 23 116.657 23 115C23 113.343 24.3431 112 26 112ZM26 113C24.8954 113 24 113.895 24 115C24 116.105 24.8954 117 26 117C27.1046 117 28 116.105 28 115C28 113.895 27.1046 113 26 113Z" fill="currentColor"/>
</svg>
