<svg xmlns="http://www.w3.org/2000/svg" width="16" height="16" viewBox="20.0 111.0 16.0 16.0" fill="none">
  <path d="M25.6367 120.076L25.2725 120.295C24.9045 120.531 24.6295 120.83 24.4307 121.156C23.4665 121.356 22.7737 121.708 22.3506 121.979C22.1356 122.117 22 122.386 22 122.732C22.0001 123.432 22.5676 124 23.2676 124H24.2549C24.4127 124.375 24.6399 124.712 24.918 125H23.2676C22.0153 125 21.0001 123.985 21 122.732C21 122.141 21.2372 121.505 21.8115 121.137C22.5389 120.671 23.8614 120.05 25.7725 120.004C25.7263 120.029 25.6805 120.052 25.6367 120.076Z" fill="currentColor"/>
  <path d="M30 120C32.034 120 33.4326 120.653 34.1885 121.137C34.7628 121.505 35 122.141 35 122.732C34.9999 123.985 33.9847 125 32.7324 125H27.2676C26.0153 125 25.0001 123.985 25 122.732C25 122.141 25.2372 121.505 25.8115 121.137C26.5674 120.653 27.966 120 30 120ZM30 121C28.1904 121 26.9761 121.579 26.3506 121.979C26.1356 122.117 26 122.386 26 122.732C26.0001 123.432 26.5676 124 27.2676 124H32.7324C33.4324 124 33.9999 123.432 34 122.732C34 122.386 33.8644 122.117 33.6494 121.979C33.0239 121.579 31.8096 121 30 121Z" fill="currentColor"/>
  <path d="M26 113C26.3981 113 26.7774 113.079 27.125 113.22C26.8811 113.472 26.6693 113.755 26.498 114.064C26.3387 114.024 26.1721 114 26 114C24.8954 114 24 114.895 24 116C24 117.105 24.8954 118 26 118C26.1722 118 26.3386 117.975 26.498 117.935C26.6692 118.244 26.8812 118.527 27.125 118.779C26.7773 118.92 26.3982 119 26 119C24.3431 119 23 117.657 23 116C23 114.343 24.3431 113 26 113Z" fill="currentColor"/>
  <path d="M30 113C31.6569 113 33 114.343 33 116C33 117.657 31.6569 119 30 119C28.3431 119 27 117.657 27 116C27 114.343 28.3431 113 30 113ZM30 114C28.8954 114 28 114.895 28 116C28 117.105 28.8954 118 30 118C31.1046 118 32 117.105 32 116C32 114.895 31.1046 114 30 114Z" fill="currentColor"/>
</svg>
