<svg xmlns="http://www.w3.org/2000/svg" width="16" height="16" viewBox="21.0 110.0 16.0 16.0" fill="none">
  <path d="M27 120C29.3524 120 30.8581 121.141 31.5107 121.773C31.8629 122.115 32 122.574 32 123C32 124.105 31.1046 125 30 125H24C22.8954 125 22 124.105 22 123C22 122.574 22.1371 122.115 22.4893 121.773C23.1419 121.141 24.6476 120 27 120ZM27 121C24.9947 121 23.7247 121.968 23.1846 122.491C23.0705 122.602 23 122.777 23 123C23 123.552 23.4477 124 24 124H30C30.5523 124 31 123.552 31 123C31 122.777 30.9295 122.602 30.8154 122.491C30.2753 121.968 29.0053 121 27 121Z" fill="currentColor"/>
  <path d="M27 113C28.6569 113 30 114.343 30 116C30 117.657 28.6569 119 27 119C25.3431 119 24 117.657 24 116C24 114.343 25.3431 113 27 113ZM27 114C25.8954 114 25 114.895 25 116C25 117.105 25.8954 118 27 118C28.1046 118 29 117.105 29 116C29 114.895 28.1046 114 27 114Z" fill="currentColor"/>
  <path d="M31.5 115C31.7761 115 32 115.224 32 115.5C32 115.776 31.7761 116 31.5 116C31.2239 116 31 115.776 31 115.5C31 115.224 31.2239 115 31.5 115Z" fill="currentColor"/>
  <path d="M31.5 113C32.8807 113 34 114.119 34 115.5C34 115.776 33.7761 116 33.5 116C33.2239 116 33 115.776 33 115.5C33 114.672 32.3284 114 31.5 114C31.2239 114 31 113.776 31 113.5C31 113.224 31.2239 113 31.5 113Z" fill="currentColor"/>
  <path d="M31.5 111C33.9853 111 36 113.015 36 115.5C36 115.776 35.7761 116 35.5 116C35.2239 116 35 115.776 35 115.5C35 113.567 33.433 112 31.5 112C31.2239 112 31 111.776 31 111.5C31 111.224 31.2239 111 31.5 111Z" fill="currentColor"/>
</svg>
