<svg xmlns="http://www.w3.org/2000/svg" width="16" height="16" viewBox="20.0 111.0 16.38 16.38" fill="none">
  <path d="M30 120C30.5523 120 31 120.448 31 121C31 121.552 30.5523 122 30 122C29.4477 122 29 121.552 29 121C29 120.448 29.4477 120 30 120Z" fill="currentColor"/>
  <path d="M30.3281 118C30.8348 118 31.2111 117.993 31.5605 118.12C31.6167 118.14 31.6724 118.163 31.7266 118.188C32.0631 118.346 32.3236 118.617 32.6816 118.975L33.8535 120.146C34.286 120.579 34.6421 120.935 34.8916 121.252C35.1481 121.578 35.3344 121.914 35.3711 122.32C35.3818 122.44 35.3818 122.56 35.3711 122.68C35.3345 123.086 35.1481 123.422 34.8916 123.748C34.6421 124.065 34.286 124.421 33.8535 124.854C33.421 125.286 33.0653 125.642 32.748 125.892C32.4219 126.148 32.0858 126.334 31.6797 126.371C31.5603 126.382 31.4397 126.382 31.3203 126.371C30.9142 126.334 30.5781 126.148 30.252 125.892C29.9347 125.642 29.579 125.286 29.1465 124.854L27.9746 123.682C27.6166 123.324 27.346 123.063 27.1885 122.727C27.1632 122.672 27.1405 122.617 27.1201 122.561C26.9934 122.211 27 121.835 27 121.328C27 120.717 26.999 120.213 27.0469 119.812C27.0962 119.401 27.2036 119.032 27.4648 118.719C27.5416 118.627 27.6267 118.542 27.7188 118.465C28.0318 118.204 28.4005 118.096 28.8125 118.047C29.2132 117.999 29.7166 118 30.3281 118ZM30.3281 119C29.6919 119 29.2592 119.001 28.9316 119.04C28.6154 119.078 28.4637 119.145 28.3594 119.232C28.3134 119.271 28.2708 119.313 28.2324 119.359C28.1453 119.464 28.0779 119.615 28.04 119.932C28.0009 120.259 28 120.692 28 121.328C28 121.906 28.0067 122.074 28.0596 122.22C28.0698 122.248 28.0811 122.276 28.0938 122.303C28.1595 122.443 28.273 122.566 28.6816 122.975L29.8535 124.146C30.3036 124.597 30.6107 124.902 30.8701 125.105C31.1205 125.302 31.2748 125.363 31.4102 125.375C31.4698 125.38 31.5302 125.38 31.5898 125.375C31.7252 125.363 31.8795 125.302 32.1299 125.105C32.3893 124.902 32.6964 124.597 33.1465 124.146C33.5965 123.696 33.9015 123.389 34.1055 123.13C34.3023 122.88 34.3628 122.725 34.375 122.59C34.3804 122.53 34.3804 122.47 34.375 122.41C34.3628 122.275 34.3023 122.12 34.1055 121.87C33.9015 121.611 33.5965 121.304 33.1465 120.854L31.9746 119.682C31.566 119.273 31.4433 119.16 31.3027 119.094C31.2756 119.081 31.2478 119.07 31.2197 119.06C31.0738 119.007 30.9064 119 30.3281 119Z" fill="currentColor"/>
  <path d="M26.1982 119.006C26.1238 119.243 26.0799 119.476 26.0537 119.694C26.042 119.792 26.0335 119.895 26.0264 120C26.0176 120 26.0088 120 26 120C23.9947 120 22.7247 120.968 22.1846 121.491C22.0705 121.602 22 121.777 22 122C22 122.552 22.4477 123 23 123H26.2207C26.2408 123.05 26.2593 123.101 26.2822 123.15C26.4377 123.483 26.6646 123.762 26.8867 124H23C21.8954 124 21 123.105 21 122C21 121.574 21.1371 121.115 21.4893 120.773C22.1419 120.141 23.6476 119 26 119C26.0668 119 26.1328 119.004 26.1982 119.006Z" fill="currentColor"/>
  <path d="M26 112C27.6569 112 29 113.343 29 115C29 115.862 28.6332 116.636 28.0508 117.184C27.7236 117.281 27.3884 117.437 27.0771 117.697C27.0138 117.75 26.9533 117.806 26.8945 117.864C26.612 117.952 26.3116 118 26 118C24.3431 118 23 116.657 23 115C23 113.343 24.3431 112 26 112ZM26 113C24.8954 113 24 113.895 24 115C24 116.105 24.8954 117 26 117C27.1046 117 28 116.105 28 115C28 113.895 27.1046 113 26 113Z" fill="currentColor"/>
</svg>
