<svg xmlns="http://www.w3.org/2000/svg" width="16" height="16" viewBox="20.0 111.0 17.0 17.0" fill="none">
  <path d="M31.1465 120.146C31.3417 119.951 31.6583 119.951 31.8535 120.146L33.8535 122.146C34.0241 122.317 34.046 122.581 33.918 122.775L33.8535 122.854L31.8535 124.854C31.6583 125.049 31.3417 125.048 31.1465 124.854C30.9514 124.658 30.9513 124.342 31.1465 124.146L32.293 123H29.5C29.224 123 29.0002 122.776 29 122.5C29.0001 122.224 29.2239 122 29.5 122H32.293L31.1465 120.854C30.9514 120.658 30.9513 120.342 31.1465 120.146Z" fill="currentColor"/>
  <path d="M31.5 118C33.9853 118 36 120.015 36 122.5C36 124.985 33.9853 127 31.5 127C29.0147 127 27 124.985 27 122.5C27 120.015 29.0147 118 31.5 118ZM31.5 119C29.567 119 28 120.567 28 122.5C28 124.433 29.567 126 31.5 126C33.433 126 35 124.433 35 122.5C35 120.567 33.433 119 31.5 119Z" fill="currentColor"/>
  <path d="M26 119C26.4196 119 26.8121 119.037 27.1777 119.101C26.9507 119.389 26.7514 119.7 26.585 120.03C26.3974 120.012 26.2026 120 26 120C23.9947 120 22.7247 120.968 22.1846 121.491C22.0705 121.602 22 121.777 22 122C22 122.552 22.4477 123 23 123H26.0234C26.0544 123.343 26.1168 123.678 26.208 124H23C21.8954 124 21 123.105 21 122C21 121.574 21.1371 121.115 21.4893 120.773C22.1419 120.141 23.6476 119 26 119Z" fill="currentColor"/>
  <path d="M26 112C27.6569 112 29 113.343 29 115C29 116.657 27.6569 118 26 118C24.3431 118 23 116.657 23 115C23 113.343 24.3431 112 26 112ZM26 113C24.8954 113 24 113.895 24 115C24 116.105 24.8954 117 26 117C27.1046 117 28 116.105 28 115C28 113.895 27.1046 113 26 113Z" fill="currentColor"/>
</svg>
