<svg xmlns="http://www.w3.org/2000/svg" width="16" height="16" viewBox="19.39 110.25 16.81 16.81" fill="none">
  <path d="M26.0795 112.376C29.4656 111.254 33.1695 112.71 34.8852 115.84L34.937 115.934C35.008 116.064 35.0181 116.218 34.9643 116.356C34.9103 116.494 34.7972 116.602 34.6567 116.649L28.7368 118.631L30.1958 123.007C31.6885 123.088 33.1041 123.884 33.9301 125.234C34.074 125.47 34.0005 125.778 33.7651 125.922C33.5298 126.065 33.2218 125.992 33.0776 125.757C32.5031 124.818 31.5655 124.222 30.5444 124.053L30.9741 125.342C31.0613 125.603 30.9203 125.887 30.6586 125.974C30.3968 126.062 30.1133 125.92 30.0258 125.658L29.4829 124.03C29.144 124.073 28.8059 124.164 28.479 124.306L24.6997 125.954C24.4468 126.064 24.1519 125.948 24.0415 125.695C23.9313 125.442 24.0468 125.148 24.2993 125.037L28.0786 123.389C28.4321 123.235 28.7958 123.129 29.1616 123.066L27.7885 118.948L21.7446 120.972C21.604 121.02 21.4498 121.001 21.3237 120.924C21.1978 120.846 21.1124 120.717 21.0913 120.57L21.0756 120.464C20.568 116.93 22.6541 113.535 26.0327 112.391C26.0404 112.389 26.0482 112.385 26.0561 112.383L26.0795 112.376ZM25.0297 113.963C23.0431 115.195 21.8574 117.444 22.0151 119.828L24.9516 118.844C24.7154 117.816 24.6832 116.491 24.7963 115.35C24.8453 114.857 24.923 114.38 25.0297 113.963ZM26.3051 113.419C26.241 113.513 26.1707 113.661 26.101 113.864C25.9623 114.269 25.8535 114.824 25.7915 115.449C25.6873 116.499 25.7246 117.658 25.9077 118.523L29.8618 117.199C29.4884 116.397 28.8212 115.45 28.1079 114.674C27.6829 114.211 27.2626 113.832 26.9086 113.593C26.7313 113.472 26.5869 113.398 26.479 113.361C26.4244 113.343 26.3904 113.337 26.3735 113.336C26.3607 113.347 26.3369 113.372 26.3051 113.419ZM27.8247 113.027C28.1607 113.297 28.5088 113.631 28.8442 113.996C29.6192 114.839 30.389 115.917 30.8168 116.88L33.7534 115.897C32.4483 113.898 30.1512 112.815 27.8247 113.027Z" fill="currentColor" fill-rule="evenodd" clip-rule="evenodd"/>
</svg>
