<svg xmlns="http://www.w3.org/2000/svg" width="16" height="16" viewBox="19.95 110.95 17.05 17.05" fill="none">
  <path d="M33.1466 121.146C33.3418 120.951 33.6583 120.951 33.8536 121.146C34.0485 121.342 34.0486 121.658 33.8536 121.853L31.3536 124.353C31.1584 124.549 30.8418 124.548 30.6466 124.353L29.1466 122.853C28.9515 122.658 28.9514 122.342 29.1466 122.146C29.3418 121.951 29.6583 121.951 29.8536 122.146L31.0001 123.293L33.1466 121.146Z" fill="currentColor"/>
  <path d="M31.5001 118C33.9853 118 36.0001 120.015 36.0001 122.5C36.0001 124.985 33.9853 127 31.5001 127C29.0148 127 27.0001 124.985 27.0001 122.5C27.0001 120.015 29.0148 118 31.5001 118ZM31.5001 119C29.5671 119 28.0001 120.567 28.0001 122.5C28.0001 124.433 29.5671 126 31.5001 126C33.433 126 35.0001 124.433 35.0001 122.5C35.0001 120.567 33.433 119 31.5001 119Z" fill="currentColor"/>
  <path d="M31.1466 112.146C31.3418 111.951 31.6583 111.951 31.8536 112.146L33.8536 114.146C34.0487 114.342 34.0488 114.658 33.8536 114.853C33.6584 115.049 33.3418 115.049 33.1466 114.853L32.5001 114.207L31.2071 115.5L32.8819 117.175C32.4404 117.061 31.9773 117 31.5001 117C31.4321 117 31.3643 117.001 31.2969 117.004L28.5001 114.207L27.2071 115.5L28.3536 116.646C28.5487 116.842 28.5488 117.158 28.3536 117.353C28.1584 117.549 27.8418 117.549 27.6466 117.353L26.5001 116.207L25.2071 117.5L26.3536 118.646C26.5487 118.842 26.5488 119.158 26.3536 119.353C26.1584 119.549 25.8418 119.549 25.6466 119.353L24.502 118.209C24.2379 118.477 24.04 118.685 23.8946 118.87C23.6978 119.12 23.6373 119.275 23.6251 119.41C23.6197 119.47 23.6197 119.53 23.6251 119.59C23.6373 119.725 23.6978 119.88 23.8946 120.13C24.0986 120.389 24.4036 120.696 24.8536 121.146C25.3036 121.596 25.6108 121.901 25.8702 122.105C25.9189 122.144 25.9649 122.175 26.0069 122.204C26.0017 122.302 26.0001 122.401 26.0001 122.5C26.0001 122.78 26.0212 123.055 26.0616 123.324C25.7669 123.247 25.5062 123.091 25.252 122.892C25.0257 122.714 24.7814 122.48 24.502 122.204L21.8536 124.853C21.6584 125.049 21.3418 125.049 21.1466 124.853C20.9513 124.658 20.9513 124.342 21.1466 124.146L23.795 121.497C23.5199 121.218 23.2863 120.974 23.1085 120.748C22.852 120.422 22.6657 120.086 22.629 119.68C22.6182 119.56 22.6182 119.44 22.629 119.32C22.6656 118.914 22.852 118.578 23.1085 118.252C23.358 117.935 23.7141 117.579 24.1466 117.146L27.793 113.5L27.1466 112.853C26.9513 112.658 26.9513 112.342 27.1466 112.146C27.3418 111.951 27.6583 111.951 27.8536 112.146L30.5001 114.793L31.793 113.5L31.1466 112.853C30.9513 112.658 30.9513 112.342 31.1466 112.146Z" fill="currentColor"/>
</svg>
