<svg xmlns="http://www.w3.org/2000/svg" width="16" height="16" viewBox="19.97 110.98 16.03 16.03" fill="none">
  <path d="M25.998 112.003C26.23 112.003 26.4973 112.041 26.7588 112.175C26.9628 112.279 27.1221 112.419 27.2441 112.574L27.3545 112.732L28.7295 114.979C29.1329 115.636 29.5354 116.296 29.9639 117.002H32.502C33.163 117.002 33.7676 117.161 34.2334 117.512C34.7122 117.872 34.9978 118.407 35 118.995V118.999C34.9998 119.588 34.7154 120.125 34.2363 120.486C33.7702 120.838 33.1643 120.997 32.502 120.997L32.5029 120.998C31.5463 121.001 30.8812 121.002 29.9639 120.998C29.0602 122.488 28.2686 123.767 27.3545 125.268C27.2233 125.483 27.0307 125.686 26.7588 125.825C26.4973 125.959 26.23 125.997 25.998 125.997H25.7178C25.692 125.997 25.6385 125.995 25.5752 125.986C25.4526 125.97 25.1386 125.908 24.8965 125.61C24.6571 125.316 24.6571 125 24.666 124.872C24.6705 124.808 24.6798 124.755 24.6846 124.729C24.6895 124.703 24.695 124.676 24.6973 124.666L25.4795 120.998H24.1924C23.9221 121.369 23.8093 121.526 23.4766 121.988C23.3009 122.232 23.0763 122.359 22.9053 122.423C22.8205 122.454 22.7441 122.471 22.6836 122.481C22.653 122.487 22.6251 122.491 22.6006 122.493C22.5883 122.494 22.5762 122.495 22.5654 122.496C22.5602 122.496 22.5547 122.497 22.5498 122.497H22.5361L22.5176 122.498H22.1475C22.1475 122.498 22.0337 122.5 21.9258 122.484C21.7989 122.466 21.4485 122.393 21.208 122.043C20.9672 121.693 21.0247 121.338 21.0527 121.214C21.0762 121.11 21.1172 121.008 21.1191 121.003C21.2055 120.778 21.35 120.39 21.5049 119.975C21.473 119.952 21.44 119.929 21.4092 119.902C21.1651 119.692 21.0023 119.381 21.002 119.012L21.001 119.011V118.988C21.0013 118.619 21.1651 118.308 21.4092 118.098C21.4402 118.071 21.4729 118.047 21.5049 118.024C21.3501 117.609 21.2054 117.222 21.1191 116.997C21.1172 116.992 21.0762 116.89 21.0527 116.786C21.0247 116.662 20.9672 116.307 21.208 115.957L21.3027 115.839C21.5326 115.59 21.8148 115.532 21.9258 115.516C22.0337 115.5 22.1475 115.502 22.1475 115.502H22.5176L22.5361 115.503H22.5498C22.5547 115.503 22.5602 115.504 22.5654 115.504C22.5762 115.505 22.5883 115.506 22.6006 115.507C22.6251 115.509 22.653 115.513 22.6836 115.519C22.7441 115.529 22.8205 115.546 22.9053 115.577C23.0549 115.633 23.2453 115.737 23.4082 115.926L23.4766 116.012L24.1924 117.002H25.4795L24.6973 113.334C24.695 113.324 24.6895 113.297 24.6846 113.271C24.6798 113.245 24.6705 113.192 24.666 113.128C24.6571 113 24.6571 112.684 24.8965 112.39L24.9902 112.288C25.2142 112.077 25.468 112.028 25.5752 112.014C25.6385 112.005 25.692 112.003 25.7178 112.003H25.998ZM25.707 113.005C25.6906 113.007 25.6794 113.011 25.6719 113.021C25.6568 113.039 25.6626 113.068 25.6748 113.125L26.6904 117.881C26.7023 117.937 26.7083 117.965 26.6934 117.983L26.6582 117.999C26.6421 118.001 26.6203 118.002 26.5918 118.002H23.75C23.6557 118.002 23.5741 117.854 23.5 117.752C23.1369 117.254 23.0411 117.119 22.665 116.597C22.5998 116.506 22.5 116.502 22.5 116.502H22.1475L22.0703 116.505C22.0519 116.508 22.0397 116.513 22.0322 116.523C22.0174 116.545 22.0289 116.577 22.0527 116.639C22.1925 117.003 22.4821 117.779 22.7188 118.418C22.7334 118.458 22.7412 118.477 22.7344 118.495L22.7139 118.518C22.7034 118.525 22.6893 118.532 22.6699 118.542L22.5215 118.615L22.2148 118.769L22.1299 118.81C22.0525 118.851 22.002 118.897 22.002 118.989V119.011C22.002 119.133 22.092 119.174 22.2148 119.231L22.6699 119.458C22.7081 119.477 22.7273 119.487 22.7344 119.505C22.7412 119.523 22.7334 119.542 22.7188 119.582C22.4821 120.221 22.1925 120.997 22.0527 121.361L22.0283 121.434C22.0241 121.452 22.0247 121.466 22.0322 121.477C22.0397 121.487 22.0519 121.492 22.0703 121.495L22.1475 121.498H22.5L22.5576 121.484C22.5741 121.478 22.5929 121.47 22.6113 121.457L22.665 121.403C23.0411 120.881 23.1369 120.746 23.5 120.248C23.5741 120.146 23.6557 119.998 23.75 119.998H26.5918C26.6489 119.998 26.6784 119.998 26.6934 120.017C26.7083 120.035 26.7023 120.063 26.6904 120.119L25.7939 124.316L25.7725 124.415L25.6748 124.875C25.6626 124.932 25.6568 124.961 25.6719 124.979C25.6794 124.989 25.6906 124.993 25.707 124.995L25.7764 124.997C25.8194 124.997 25.8813 124.997 25.998 124.997C26.248 124.997 26.3981 124.914 26.5 124.747C27.4696 123.155 28.2851 121.842 29.25 120.248C29.3806 120.032 29.6182 119.997 29.75 119.998C30.7803 120.003 31.4697 120.001 32.5 119.998C33.4583 119.998 33.9377 119.566 33.9941 119.094L34 118.999C33.9982 118.525 33.5782 118.063 32.6846 118.008L32.5 118.002C31.4697 117.999 30.7803 117.997 29.75 118.002L29.6348 117.993C29.5276 117.977 29.4 117.932 29.3037 117.824L29.25 117.752C28.2851 116.158 27.4696 114.845 26.5 113.253C26.4108 113.106 26.2847 113.025 26.0869 113.007L25.998 113.003C25.8813 113.003 25.8194 113.003 25.7764 113.003L25.707 113.005Z" fill="currentColor"/>
</svg>
