<svg xmlns="http://www.w3.org/2000/svg" width="16" height="16" viewBox="20.0 111.0 16.01 16.01" fill="none">
  <path d="M27.7401 112C27.7735 112 27.8984 111.998 28.0155 112.014C28.1618 112.033 28.4331 112.095 28.6689 112.331C28.9046 112.567 28.9666 112.838 28.9862 112.984C29.0019 113.102 28.9999 113.226 28.9999 113.26V113.74C28.9999 113.774 29.002 113.899 28.9862 114.016C28.9666 114.162 28.9047 114.433 28.6689 114.669C28.433 114.905 28.1618 114.967 28.0155 114.986C28.0104 114.987 28.0051 114.987 27.9999 114.987V118H28.9999V117.26C28.9999 117.226 28.9979 117.102 29.0136 116.984C29.0333 116.838 29.0952 116.567 29.331 116.331C29.5667 116.095 29.838 116.033 29.9843 116.014C30.1013 115.998 30.2262 116 30.2597 116H30.7401C30.7735 116 30.8984 115.998 31.0155 116.014C31.1618 116.033 31.4331 116.095 31.6689 116.331C31.9046 116.567 31.9666 116.838 31.9862 116.984C32.0019 117.102 31.9999 117.226 31.9999 117.26V118.157L32.0956 118.219C32.2039 118.299 32.2778 118.384 32.3241 118.444C32.3725 118.508 32.4155 118.577 32.4247 118.592L34.5995 122.072C34.6365 122.132 34.7275 122.272 34.787 122.408C34.8486 122.549 35.0033 122.968 34.7538 123.418C34.5042 123.868 34.0673 123.958 33.9149 123.981C33.7679 124.002 33.6011 124 33.5312 124H32.9501C32.7185 125.141 31.7094 126 30.4999 126C29.2904 126 28.2813 125.141 28.0497 124H26.9501C26.7185 125.141 25.7094 126 24.4999 126C23.287 126 22.2755 125.136 22.0478 123.99C22.0268 123.989 22.0053 123.989 21.9843 123.986C21.838 123.967 21.5667 123.905 21.331 123.669C21.0953 123.433 21.0332 123.162 21.0136 123.016C20.9979 122.899 20.9999 122.774 20.9999 122.74V119.26C20.9999 119.226 20.9979 119.101 21.0136 118.984C21.0333 118.838 21.0953 118.567 21.331 118.331C21.5667 118.095 21.838 118.033 21.9843 118.014C21.9895 118.013 21.9947 118.012 21.9999 118.012V114.987C21.9948 114.987 21.9894 114.987 21.9843 114.986C21.838 114.967 21.5667 114.905 21.331 114.669C21.0952 114.433 21.0332 114.162 21.0136 114.016C20.9979 113.899 20.9999 113.774 20.9999 113.74V113.26C20.9999 113.226 20.9979 113.102 21.0136 112.984C21.0333 112.838 21.0952 112.567 21.331 112.331C21.5667 112.095 21.838 112.033 21.9843 112.014C22.1013 111.998 22.2262 112 22.2597 112H27.7401ZM24.4999 122C23.6716 122 23 122.672 22.9999 123.5C22.9999 124.328 23.6715 125 24.4999 125C25.3283 125 25.9999 124.329 25.9999 123.5C25.9999 122.672 25.3283 122 24.4999 122ZM30.4999 122C29.6716 122 29 122.672 28.9999 123.5C28.9999 124.328 29.6715 125 30.4999 125C31.3283 125 31.9999 124.329 31.9999 123.5C31.9999 122.672 31.3283 122 30.4999 122ZM22.2597 119C22.1374 119 22.076 119 22.038 119.038C22 119.076 21.9999 119.138 21.9999 119.26V122.74L22.0048 122.883C22.0095 122.918 22.0191 122.943 22.038 122.962C22.043 122.967 22.0496 122.97 22.0556 122.974C22.2973 121.846 23.2998 121 24.4999 121C25.7094 121 26.7184 121.859 26.9501 123H28.0497C28.2814 121.859 29.2905 121 30.4999 121C31.7094 121 32.7184 121.859 32.9501 123H33.5312L33.6679 122.999C33.7861 122.996 33.851 122.983 33.8788 122.933C33.9063 122.883 33.883 122.821 33.8232 122.719L33.7509 122.603L31.5761 119.122C31.5391 119.063 31.5203 119.033 31.4911 119.017C31.4618 119.001 31.4256 119 31.3554 119H22.2597ZM22.9999 118H26.9999V115H22.9999V118ZM30.2597 117C30.1373 117 30.076 117 30.038 117.038C30.019 117.057 30.0096 117.082 30.0048 117.117L29.9999 117.26V118H30.9999V117.26C30.9999 117.138 30.9999 117.076 30.9618 117.038C30.9238 117 30.8625 117 30.7401 117H30.2597ZM22.2597 113C22.1373 113 22.076 113 22.038 113.038C22 113.076 21.9999 113.138 21.9999 113.26V113.74L22.0048 113.883C22.0096 113.918 22.0191 113.943 22.038 113.962C22.076 114 22.1373 114 22.2597 114H27.7401L27.8827 113.995C27.918 113.99 27.9428 113.981 27.9618 113.962C27.9808 113.943 27.9903 113.918 27.995 113.883L27.9999 113.74V113.26C27.9999 113.138 27.9999 113.076 27.9618 113.038C27.9428 113.019 27.918 113.01 27.8827 113.005L27.7401 113H22.2597Z" fill="currentColor"/>
</svg>
