<svg xmlns="http://www.w3.org/2000/svg" width="16" height="16" viewBox="20.0 111.0 16.0 16.0" fill="none">
  <path d="M26.6172 113C27.2764 113 27.8587 113.43 28.0518 114.061L29.582 119.061C29.6272 119.208 29.6462 119.356 29.6465 119.5H30V114.5C30 114.224 30.2239 114 30.5 114C30.7761 114 31 114.224 31 114.5V121.5C31 121.776 31.2239 122 31.5 122H34.5C34.7761 122 35 122.224 35 122.5C35 122.776 34.7761 123 34.5 123H31.5C31.3225 123 31.153 122.967 30.9951 122.91C30.9964 122.94 31 122.97 31 123C31 124.105 30.1046 125 29 125C28.2601 125 27.6155 124.597 27.2695 124H25.7305C25.3845 124.597 24.7399 125 24 125C23.251 125 22.5985 124.588 22.2559 123.979C21.5437 123.862 21 123.245 21 122.5V119.992C21 119.39 21.3604 118.846 21.915 118.611L23 118.151V114.5C23 113.672 23.6716 113 24.5 113H26.6172ZM24 122C23.4477 122 23 122.448 23 123C23 123.552 23.4477 124 24 124C24.5523 124 25 123.552 25 123C25 122.448 24.5523 122 24 122ZM29 122C28.4477 122 28 122.448 28 123C28 123.552 28.4477 124 29 124C29.5523 124 30 123.552 30 123C30 122.448 29.5523 122 29 122ZM22.3047 119.531C22.1199 119.61 22 119.791 22 119.992V122.5C22 122.558 22.0118 122.614 22.0303 122.666C22.1894 121.721 23.0094 121 24 121C25.1046 121 26 121.895 26 123H27C27 121.895 27.8954 121 29 121C29.3646 121 29.7056 121.099 30 121.27V120.5H29.2637C28.9929 120.803 28.6002 121 28.1484 121H24.5C23.6716 121 23 120.328 23 119.5V119.236L22.3047 119.531ZM24.5 114C24.2239 114 24 114.224 24 114.5V119.5C24 119.776 24.2239 120 24.5 120H28.1484C28.4843 120 28.7243 119.675 28.626 119.354L27.0957 114.354C27.0314 114.143 26.8369 114 26.6172 114H24.5Z" fill="currentColor"/>
</svg>
