<svg xmlns="http://www.w3.org/2000/svg" width="16" height="16" viewBox="20.0 111.5 16.0 16.0" fill="none">
  <path d="M27.5 113C28.193 113 28.7634 112.999 29.2129 113.06C29.6767 113.122 30.0861 113.258 30.4141 113.586C30.742 113.914 30.878 114.323 30.9404 114.787C30.9497 114.856 30.9543 114.928 30.9609 115.003C30.9739 115.002 30.9868 115 31 115H31.0684C31.5749 115 31.9972 114.999 32.3398 115.038C32.695 115.078 33.0149 115.166 33.3047 115.373C33.5947 115.58 33.7805 115.855 33.9336 116.179C34.0812 116.49 34.2172 116.89 34.3809 117.369L34.8125 118.632C34.8877 118.852 34.9441 119.015 34.9727 119.187C35.0012 119.358 35 119.53 35 119.763V120.5C35 121.193 35.0009 121.763 34.9404 122.213C34.878 122.677 34.742 123.086 34.4141 123.414C34.0861 123.742 33.6767 123.878 33.2129 123.94C32.8763 123.986 32.4719 123.993 31.999 123.996L32 124C32 125.105 31.1046 126 30 126C28.8954 126 28 125.105 28 124V123.994C27.8411 123.995 27.6744 124 27.5 124H26C26 125.105 25.1046 126 24 126C22.8954 126 22 125.105 22 124C22 123.906 22.009 123.814 22.0215 123.724C21.8643 123.646 21.7183 123.546 21.5859 123.414C21.258 123.086 21.122 122.677 21.0596 122.213C20.9991 121.763 21 121.193 21 120.5V116.5C21 115.807 20.9991 115.237 21.0596 114.787C21.122 114.323 21.258 113.914 21.5859 113.586C21.9139 113.258 22.3234 113.122 22.7871 113.06C23.2366 112.999 23.807 113 24.5 113H27.5ZM24 123C23.4477 123 23 123.448 23 124C23 124.552 23.4477 125 24 125C24.5523 125 25 124.552 25 124C25 123.448 24.5523 123 24 123ZM30 123C29.4477 123 29 123.448 29 124C29 124.552 29.4477 125 30 125C30.5523 125 31 124.552 31 124C31 123.448 30.5523 123 30 123ZM24.5 114C23.7789 114 23.2883 114.001 22.9209 114.051C22.5679 114.098 22.4043 114.182 22.293 114.293C22.1817 114.404 22.0982 114.568 22.0508 114.921C22.0014 115.288 22 115.779 22 116.5V120.5C22 121.221 22.0014 121.712 22.0508 122.079C22.0982 122.432 22.1817 122.596 22.293 122.707C22.3249 122.739 22.3624 122.767 22.4063 122.794C22.7714 122.312 23.3488 122 24 122C24.7399 122 25.3845 122.403 25.7305 123H27.5C27.7933 123 28.0483 122.999 28.2725 122.994C28.6123 122.412 29.2369 122.017 29.9561 122.002C29.9962 121.643 30 121.172 30 120.5V116.5C30 115.779 29.9986 115.288 29.9492 114.921C29.9018 114.568 29.8183 114.404 29.707 114.293C29.5957 114.182 29.4321 114.098 29.0791 114.051C28.7117 114.001 28.2212 114 27.5 114H24.5ZM31 120.5C31 121.193 31.0009 121.763 30.9404 122.213C30.9395 122.219 30.9374 122.226 30.9365 122.232C31.2673 122.408 31.5408 122.675 31.7285 122.998C32.327 122.997 32.7519 122.993 33.0791 122.949C33.4321 122.902 33.5957 122.818 33.707 122.707C33.8183 122.596 33.9018 122.432 33.9492 122.079C33.9527 122.053 33.954 122.027 33.957 122H33.5C33.2239 122 33 121.776 33 121.5C33 121.224 33.2239 121 33.5 121H33.9961C33.997 120.847 34 120.681 34 120.5V120H31V120.5ZM31 116.5V119H33.8809C33.876 118.986 33.8715 118.971 33.8662 118.955L33.4346 117.692C33.2635 117.191 33.1479 116.855 33.0303 116.606C32.9182 116.37 32.825 116.259 32.7236 116.187C32.6222 116.114 32.487 116.062 32.2266 116.032C31.9534 116.001 31.5978 116 31.0684 116H31L30.9961 115.999C30.997 116.158 31 116.325 31 116.5Z" fill="currentColor"/>
</svg>
