<svg xmlns="http://www.w3.org/2000/svg" width="16" height="16" viewBox="19.95 110.93 16.11 16.11" fill="none">
  <path d="M31.2502 124C31.4101 124 31.5605 124.077 31.6545 124.206L31.6575 124.209C31.6609 124.214 31.6667 124.222 31.675 124.232C31.6921 124.254 31.7192 124.286 31.7541 124.326C31.8247 124.407 31.9261 124.514 32.05 124.619C32.313 124.843 32.6049 125 32.8752 125C33.1699 125 33.3985 124.881 33.6008 124.711C33.7042 124.624 33.7971 124.527 33.8869 124.427C33.963 124.342 34.0712 124.216 34.1614 124.133C34.3643 123.946 34.6802 123.958 34.8674 124.161C35.0545 124.364 35.0418 124.68 34.8391 124.867C34.7941 124.909 34.7437 124.97 34.6301 125.097C34.5302 125.208 34.4009 125.345 34.2444 125.477C33.9263 125.744 33.4777 126 32.8752 126C32.2483 126 31.7277 125.657 31.4026 125.381C31.3474 125.334 31.298 125.285 31.2502 125.239C31.2025 125.285 31.153 125.334 31.0979 125.381C30.7728 125.657 30.2522 126 29.6252 126C28.9983 126 28.4777 125.657 28.1526 125.381C28.0974 125.334 28.048 125.285 28.0002 125.239C27.9525 125.285 27.903 125.334 27.8479 125.381C27.5228 125.657 27.0022 126 26.3752 126C25.7483 126 25.2277 125.657 24.9026 125.381C24.8474 125.334 24.798 125.285 24.7502 125.239C24.7025 125.285 24.653 125.334 24.5979 125.381C24.2728 125.657 23.7522 126 23.1252 126C22.5227 126 22.0741 125.744 21.7561 125.477C21.5995 125.345 21.4703 125.208 21.3703 125.097C21.2567 124.97 21.2064 124.909 21.1614 124.867C20.9585 124.68 20.9458 124.364 21.133 124.161C21.3204 123.958 21.6362 123.946 21.8391 124.133C21.9293 124.216 22.0374 124.342 22.1135 124.427C22.2034 124.527 22.2962 124.624 22.3996 124.711C22.602 124.881 22.8305 125 23.1252 125C23.3955 125 23.6875 124.843 23.9504 124.619C24.0743 124.514 24.1758 124.407 24.2463 124.326C24.2812 124.286 24.3084 124.254 24.3254 124.232C24.3337 124.222 24.3395 124.214 24.343 124.209L24.3459 124.206C24.44 124.077 24.5904 124 24.7502 124C24.9101 124 25.0605 124.077 25.1545 124.206L25.1575 124.209C25.1609 124.214 25.1667 124.222 25.175 124.232C25.1921 124.254 25.2192 124.286 25.2541 124.326C25.3247 124.407 25.4261 124.514 25.55 124.619C25.813 124.843 26.1049 125 26.3752 125C26.6455 125 26.9375 124.843 27.2004 124.619C27.3243 124.514 27.4258 124.407 27.4963 124.326C27.5312 124.286 27.5584 124.254 27.5754 124.232C27.5837 124.222 27.5895 124.214 27.593 124.209L27.5959 124.206C27.69 124.077 27.8404 124 28.0002 124C28.1601 124 28.3105 124.077 28.4045 124.206L28.4075 124.209C28.4109 124.214 28.4167 124.222 28.425 124.232C28.4421 124.254 28.4692 124.286 28.5041 124.326C28.5747 124.407 28.6761 124.514 28.8 124.619C29.063 124.843 29.3549 125 29.6252 125C29.8955 125 30.1875 124.843 30.4504 124.619C30.5743 124.514 30.6758 124.407 30.7463 124.326C30.7812 124.286 30.8084 124.254 30.8254 124.232C30.8337 124.222 30.8395 124.214 30.843 124.209L30.8459 124.206C30.94 124.077 31.0904 124 31.2502 124Z" fill="currentColor"/>
  <path d="M34.1877 121.055C34.2823 121.056 34.5849 121.068 34.7522 121.355C34.9195 121.641 34.7821 121.912 34.7366 121.994C34.6809 122.095 34.5941 122.209 34.5237 122.303L33.4006 123.8C33.235 124.021 32.9213 124.066 32.7004 123.9C32.4796 123.735 32.4344 123.421 32.5998 123.2L33.3879 122.148C31.9539 122.326 29.4909 122.598 27.7278 122.593C26.0844 122.588 23.9339 122.336 22.6223 122.162L23.4006 123.2C23.5659 123.421 23.5206 123.735 23.3 123.9C23.0792 124.066 22.7655 124.021 22.5998 123.8L21.4846 122.313C21.4129 122.217 21.325 122.101 21.2688 122C21.224 121.919 21.0825 121.645 21.2532 121.356C21.424 121.068 21.732 121.059 21.8244 121.06C21.9406 121.06 22.0846 121.081 22.2034 121.098C23.3762 121.263 25.9018 121.587 27.7307 121.593C29.6748 121.598 32.5512 121.254 33.8147 121.089C33.9307 121.074 34.0726 121.054 34.1877 121.055Z" fill="currentColor"/>
  <path d="M28.3723 112.017C28.5912 111.959 28.8224 112.055 28.9348 112.252L32.9348 119.252C33.0063 119.377 33.0201 119.528 32.9729 119.664C32.9256 119.8 32.8214 119.91 32.6877 119.964C31.2022 120.564 29.3281 120.485 28.51 120.5C28.3758 120.503 28.2454 120.45 28.1496 120.356C28.0541 120.262 28.0002 120.134 28.0002 120V112.5C28.0003 112.273 28.1532 112.075 28.3723 112.017ZM29.0002 119.494C29.7851 119.489 30.8243 119.47 31.7619 119.217L29.0002 114.383V119.494Z" fill="currentColor"/>
  <path d="M26.0715 114.243C26.1872 114.051 26.4175 113.959 26.634 114.019C26.8502 114.079 27.0002 114.276 27.0002 114.5V120C27.0002 120.137 26.9437 120.269 26.844 120.363C26.7441 120.458 26.6091 120.507 26.4719 120.499C25.2151 120.428 24.5184 120.333 23.3547 119.979C23.2074 119.934 23.0888 119.823 23.0334 119.68C22.9782 119.536 22.9925 119.375 23.0715 119.243L26.0715 114.243ZM24.2668 119.194C24.8517 119.343 25.3416 119.413 26.0002 119.463V116.305L24.2668 119.194Z" fill="currentColor"/>
</svg>
