<svg xmlns="http://www.w3.org/2000/svg" width="16" height="16" viewBox="20.0 110.0 16.0 16.0" fill="none">
  <path d="M30 113C32.7614 113 35 115.239 35 118C35 120.761 32.7614 123 30 123C29.2888 123 28.6126 122.851 28 122.583C27.4953 122.804 26.9473 122.942 26.3721 122.984C26.2492 122.993 26.1252 123 26 123C25.9139 123 25.8282 122.997 25.7432 122.993C23.1862 122.864 21.1362 120.814 21.0068 118.257C21.0025 118.172 21 118.086 21 118C21 117.914 21.0025 117.828 21.0068 117.743C21.1405 115.101 23.3247 113 26 113C26.0838 113 26.1672 113.002 26.25 113.006C26.2598 113.006 26.2695 113.007 26.2793 113.008C26.3385 113.011 26.3974 113.015 26.4561 113.021C26.4939 113.024 26.5317 113.028 26.5693 113.032C26.6089 113.037 26.6482 113.042 26.6875 113.048C26.7215 113.053 26.7553 113.057 26.7891 113.062C26.8405 113.071 26.8915 113.08 26.9424 113.09C26.9832 113.098 27.024 113.105 27.0645 113.114C27.1095 113.124 27.1546 113.134 27.1992 113.145L27.25 113.157C27.3466 113.182 27.4418 113.211 27.5361 113.241C27.587 113.258 27.6374 113.275 27.6875 113.293C27.6979 113.297 27.7084 113.3 27.7188 113.304L27.7617 113.319C27.8028 113.335 27.8432 113.352 27.8838 113.368C27.9226 113.384 27.9616 113.399 28 113.416C28.6125 113.148 29.2889 113 30 113ZM30 114C29.6991 114 29.406 114.034 29.124 114.097C30.2129 114.969 30.9274 116.288 30.9932 117.775C30.9969 117.85 31 117.925 31 118C31 118.075 30.9969 118.149 30.9932 118.223C30.9279 119.711 30.2131 121.029 29.124 121.902C29.406 121.965 29.699 122 30 122C32.2091 122 34 120.209 34 118C34 115.791 32.2091 114 30 114ZM27.9971 114.537C26.8032 115.229 26 116.521 26 118C26 119.479 26.803 120.769 27.9961 121.461C28.3221 121.273 28.6203 121.043 28.8799 120.773C29.0379 120.609 29.1822 120.432 29.3105 120.243C29.4302 120.067 29.5362 119.881 29.627 119.687C29.634 119.671 29.6396 119.656 29.6465 119.641C29.7304 119.455 29.8015 119.261 29.8564 119.062C29.9275 118.803 29.9737 118.534 29.9912 118.257C29.9966 118.172 30 118.086 30 118C30 117.901 29.9954 117.802 29.9883 117.705C29.9097 116.627 29.4041 115.668 28.6396 114.996C28.4836 114.859 28.3168 114.734 28.1406 114.622C28.1287 114.615 28.1174 114.606 28.1055 114.599C28.0702 114.577 28.0331 114.558 27.9971 114.537Z" fill="currentColor"/>
</svg>
