<svg xmlns="http://www.w3.org/2000/svg" width="16" height="16" viewBox="20.0 110.0 16.0 16.0" fill="none">
  <path d="M30 113C32.7614 113 35 115.239 35 118C35 120.761 32.7614 123 30 123C29.8745 123 29.7501 122.994 29.627 122.984C29.0521 122.942 28.5044 122.803 28 122.583C27.3874 122.851 26.7112 123 26 123C23.2386 123 21 120.761 21 118C21 115.239 23.2386 113 26 113C26.7111 113 27.3875 113.148 28 113.416C28.0247 113.405 28.0493 113.394 28.0742 113.384C28.2039 113.33 28.3367 113.282 28.4717 113.238C28.5048 113.228 28.5379 113.217 28.5713 113.207C28.6075 113.196 28.6441 113.187 28.6807 113.177C28.7103 113.169 28.7397 113.16 28.7695 113.152C28.8267 113.138 28.8844 113.125 28.9424 113.112C28.9803 113.104 29.0184 113.097 29.0566 113.09C29.1078 113.08 29.1592 113.071 29.2109 113.062C29.2424 113.058 29.274 113.053 29.3057 113.049C29.3478 113.043 29.3901 113.037 29.4326 113.032C29.4689 113.028 29.5054 113.025 29.542 113.021C29.601 113.016 29.6602 113.011 29.7197 113.008C29.7295 113.007 29.7392 113.006 29.749 113.006C29.8322 113.002 29.9158 113 30 113ZM26 114C23.7909 114 22 115.791 22 118C22 120.209 23.7909 122 26 122C26.3007 122 26.5933 121.965 26.875 121.902C26.5709 121.659 26.2965 121.38 26.0566 121.072C26.051 121.065 26.0447 121.058 26.0391 121.051C26.0359 121.047 26.0334 121.042 26.0303 121.038C25.9019 120.871 25.7835 120.695 25.6768 120.512C25.6745 120.508 25.6722 120.504 25.6699 120.5C25.6572 120.478 25.6452 120.456 25.6328 120.434C25.5302 120.25 25.4385 120.059 25.3594 119.862C25.3471 119.832 25.3349 119.801 25.3232 119.771C25.3214 119.766 25.3202 119.761 25.3184 119.756C25.2457 119.562 25.1842 119.363 25.1357 119.159C25.1344 119.154 25.1331 119.148 25.1318 119.143C25.128 119.126 25.1247 119.11 25.1211 119.094C25.1206 119.092 25.1196 119.09 25.1191 119.088C25.0713 118.872 25.0376 118.651 25.0186 118.426C25.0182 118.421 25.018 118.417 25.0176 118.412C25.016 118.393 25.0151 118.373 25.0137 118.354C25.0107 118.311 25.0078 118.268 25.0059 118.225C25.0023 118.15 25 118.075 25 118C25 117.924 25.0023 117.849 25.0059 117.773C25.0086 117.712 25.0127 117.651 25.0176 117.591V117.587C25.018 117.581 25.0181 117.576 25.0186 117.57C25.0578 117.109 25.1595 116.666 25.3154 116.249C25.318 116.242 25.3207 116.235 25.3232 116.229C25.3333 116.202 25.344 116.176 25.3545 116.149C25.523 115.727 25.7463 115.332 26.0176 114.976C26.0216 114.97 26.0262 114.965 26.0303 114.96C26.0517 114.932 26.0737 114.904 26.0957 114.877C26.1851 114.765 26.2795 114.658 26.3779 114.555C26.4011 114.53 26.4246 114.506 26.4482 114.482C26.5832 114.346 26.7252 114.217 26.875 114.097C26.5933 114.034 26.3006 114 26 114ZM27.8945 114.599C26.8359 115.255 26.1074 116.392 26.0117 117.705C26.0046 117.802 26 117.901 26 118C26 118.086 26.0034 118.172 26.0088 118.257C26.041 118.765 26.1682 119.248 26.373 119.688C26.4636 119.882 26.5691 120.067 26.6885 120.243C26.6939 120.251 26.6996 120.259 26.7051 120.267C26.8248 120.44 26.9576 120.604 27.1025 120.756C27.1083 120.762 27.1144 120.767 27.1201 120.773C27.3793 121.042 27.6765 121.273 28.002 121.461C29.1958 120.769 30 119.479 30 118C30 116.52 29.1963 115.229 28.002 114.537C27.9662 114.558 27.9296 114.577 27.8945 114.599Z" fill="currentColor"/>
</svg>
