<svg xmlns="http://www.w3.org/2000/svg" width="16" height="16" viewBox="20.0 110.0 16.0 16.0" fill="none">
  <path d="M27.999 114.539C29.1942 115.231 30 116.52 30 118C30 119.48 29.1939 120.768 27.999 121.459C26.805 120.767 26 119.479 26 118C26 116.52 26.8047 115.231 27.999 114.539Z" fill="currentColor"/>
  <path d="M30 113C32.7614 113 35 115.239 35 118C35 120.761 32.7614 123 30 123C29.2888 123 28.6126 122.851 28 122.583C27.3874 122.851 26.7112 123 26 123C23.2386 123 21 120.761 21 118C21 115.239 23.2386 113 26 113C26.7111 113 27.3875 113.148 28 113.416C28.6125 113.148 29.2889 113 30 113ZM27.6826 113.568C27.6536 113.584 27.6254 113.6 27.5967 113.616C27.5285 113.654 27.4608 113.692 27.3945 113.732C27.3523 113.758 27.3109 113.785 27.2695 113.812C27.21 113.851 27.1505 113.89 27.0928 113.932C27.0612 113.954 27.031 113.979 27 114.002C26.9582 114.033 26.9158 114.064 26.875 114.097L26.8779 114.098C25.7341 115.014 25 116.42 25 118C25 119.579 25.7342 120.985 26.8779 121.901L26.875 121.902C26.9131 121.933 26.9532 121.961 26.9922 121.99C27.0258 122.016 27.0586 122.042 27.0928 122.066C27.1505 122.108 27.21 122.147 27.2695 122.186C27.3109 122.213 27.3523 122.24 27.3945 122.266C27.4608 122.306 27.5284 122.344 27.5967 122.382C27.6254 122.398 27.6536 122.414 27.6826 122.43C27.7865 122.484 27.892 122.536 28 122.583C28.1075 122.536 28.2121 122.484 28.3154 122.43C28.3564 122.408 28.3962 122.385 28.4365 122.362C28.4903 122.332 28.5442 122.303 28.5967 122.271C28.6596 122.232 28.7202 122.19 28.7812 122.149C28.8157 122.126 28.8509 122.104 28.8848 122.08C28.9395 122.041 28.9928 122.001 29.0459 121.96C29.0715 121.94 29.0988 121.923 29.124 121.902L29.1211 121.901C30.2652 120.985 31 119.58 31 118C31 116.42 30.2655 115.013 29.1211 114.097H29.124C29.0948 114.073 29.0639 114.052 29.0342 114.029C28.9849 113.992 28.9355 113.954 28.8848 113.918C28.8509 113.894 28.8157 113.872 28.7812 113.849C28.7202 113.808 28.6596 113.766 28.5967 113.728C28.5442 113.696 28.4903 113.666 28.4365 113.636C28.3962 113.613 28.3564 113.59 28.3154 113.568C28.2122 113.514 28.1073 113.463 28 113.416C27.8922 113.463 27.7863 113.514 27.6826 113.568Z" fill="currentColor"/>
</svg>
