<svg xmlns="http://www.w3.org/2000/svg" width="16" height="16" viewBox="20.0 110.0 16.0 16.0" fill="none">
  <path d="M30 113C32.7614 113 35 115.239 35 118C35 120.761 32.7614 123 30 123C29.2888 123 28.6126 122.851 28 122.583C27.3874 122.851 26.7112 123 26 123C23.2386 123 21 120.761 21 118C21 115.239 23.2386 113 26 113C26.7111 113 27.3875 113.148 28 113.416C28.6125 113.148 29.2889 113 30 113ZM26 114C23.7909 114 22 115.791 22 118C22 120.209 23.7909 122 26 122C26.3007 122 26.5933 121.965 26.875 121.902C25.7322 120.986 25 119.579 25 118C25 116.421 25.7319 115.013 26.875 114.097C26.5933 114.034 26.3006 114 26 114ZM30 114C29.6991 114 29.406 114.034 29.124 114.097C30.2674 115.013 31 116.421 31 118C31 119.579 30.2672 120.986 29.124 121.902C29.406 121.965 29.699 122 30 122C32.2091 122 34 120.209 34 118C34 115.791 32.2091 114 30 114ZM28 114.536C26.8046 115.228 26 116.52 26 118C26 119.48 26.8049 120.771 28 121.463C29.1951 120.771 30 119.48 30 118C30 116.52 29.1954 115.228 28 114.536Z" fill="currentColor"/>
</svg>
