<svg xmlns="http://www.w3.org/2000/svg" width="16" height="16" viewBox="20.0 110.0 17.0 17.0" fill="none">
  <path d="M31.5 119C31.7761 119 32 119.224 32 119.5V121H33.5C33.7761 121 34 121.224 34 121.5C34 121.776 33.7761 122 33.5 122H32V123.5C32 123.776 31.7761 124 31.5 124C31.2239 124 31 123.776 31 123.5V122H29.5C29.2239 122 29 121.776 29 121.5C29 121.224 29.2239 121 29.5 121H31V119.5C31 119.224 31.2239 119 31.5 119Z" fill="currentColor"/>
  <path d="M31.5 117C33.9853 117 36 119.015 36 121.5C36 123.985 33.9853 126 31.5 126C29.0147 126 27 123.985 27 121.5C27 119.015 29.0147 117 31.5 117ZM31.5 118C29.567 118 28 119.567 28 121.5C28 123.433 29.567 125 31.5 125C33.433 125 35 123.433 35 121.5C35 119.567 33.433 118 31.5 118Z" fill="currentColor"/>
  <path d="M30.5 111C31.4285 111 32.1751 110.999 32.7607 111.078C33.3608 111.159 33.8663 111.331 34.2676 111.732C34.6689 112.134 34.8412 112.639 34.9219 113.239C35.0006 113.825 35 114.572 35 115.5V117.257C34.693 117.003 34.3576 116.783 34 116.601V115.5C34 114.543 33.9993 113.876 33.9316 113.372C33.8659 112.883 33.7451 112.624 33.5605 112.439C33.376 112.255 33.1171 112.134 32.6279 112.068C32.1244 112.001 31.4569 112 30.5 112H25.5C24.5431 112 23.8756 112.001 23.3721 112.068C22.8829 112.134 22.624 112.255 22.4395 112.439C22.2549 112.624 22.1341 112.883 22.0684 113.372C22.0007 113.876 22 114.543 22 115.5V118.5C22 119.457 22.0007 120.124 22.0684 120.628C22.1341 121.117 22.2549 121.376 22.4395 121.561C22.624 121.745 22.8829 121.866 23.3721 121.932C23.8756 121.999 24.5431 122 25.5 122H26.0234C26.0544 122.343 26.1168 122.678 26.208 123H25.5C24.5715 123 23.8249 123.001 23.2393 122.922C22.6392 122.841 22.1337 122.669 21.7324 122.268C21.3311 121.866 21.1588 121.361 21.0781 120.761C20.9994 120.175 21 119.428 21 118.5V115.5C21 114.572 20.9994 113.825 21.0781 113.239C21.1588 112.639 21.3311 112.134 21.7324 111.732C22.1337 111.331 22.6392 111.159 23.2393 111.078C23.8249 110.999 24.5715 111 25.5 111H30.5Z" fill="currentColor"/>
  <path d="M26.6162 114.148C26.8982 114.038 27.1777 114.103 27.3916 114.185C27.6313 114.276 27.9185 114.44 28.2354 114.618L30.1465 115.692C30.3716 115.819 30.5816 115.937 30.7588 116.051C30.2822 116.115 29.8252 116.24 29.3955 116.418L27.7451 115.489C27.3988 115.295 27.188 115.178 27.0342 115.119C27.0315 115.118 27.0289 115.117 27.0264 115.116C27.026 115.119 27.0258 115.122 27.0254 115.125C27.0013 115.288 27 115.529 27 115.926V118.075C27 118.171 27.0015 118.257 27.002 118.336C26.7181 118.739 26.4867 119.181 26.3184 119.653C26.1352 119.467 26.0663 119.226 26.0361 119.022C25.9985 118.769 26 118.439 26 118.075V115.926C26 115.562 25.9985 115.231 26.0361 114.978C26.0746 114.719 26.1734 114.395 26.4951 114.207L26.6162 114.148Z" fill="currentColor"/>
</svg>
