<svg xmlns="http://www.w3.org/2000/svg" width="16" height="16" viewBox="20.0 111.0 16.0 16.0" fill="none">
  <path d="M26.6162 116.148C26.8982 116.038 27.1777 116.103 27.3916 116.185C27.6313 116.276 27.9185 116.44 28.2354 116.618L30.1465 117.692C30.475 117.877 30.7725 118.043 30.9805 118.204C31.191 118.367 31.4316 118.618 31.4316 119C31.4316 119.382 31.191 119.633 30.9805 119.796C30.7725 119.957 30.475 120.123 30.1465 120.308L28.2354 121.383C27.9185 121.561 27.6313 121.724 27.3916 121.815C27.1471 121.909 26.8169 121.981 26.4951 121.793C26.1733 121.605 26.0746 121.281 26.0361 121.022C25.9985 120.769 26 120.439 26 120.075V117.926C26 117.562 25.9985 117.231 26.0361 116.978C26.0746 116.719 26.1734 116.395 26.4951 116.207L26.6162 116.148ZM27.0254 117.125C27.0013 117.288 27 117.529 27 117.926V120.075C27 120.472 27.0012 120.713 27.0254 120.876C27.0257 120.878 27.026 120.881 27.0264 120.883C27.0288 120.882 27.0316 120.882 27.0342 120.881C27.188 120.822 27.3988 120.705 27.7451 120.511L29.6562 119.436C30.0143 119.234 30.2328 119.111 30.3682 119.006C30.3704 119.004 30.3719 119.002 30.374 119C30.372 118.998 30.3703 118.996 30.3682 118.994C30.2328 118.889 30.0143 118.766 29.6562 118.564L27.7451 117.489C27.3988 117.295 27.188 117.178 27.0342 117.119C27.0315 117.118 27.0289 117.117 27.0264 117.116C27.026 117.119 27.0258 117.122 27.0254 117.125Z" fill="currentColor"/>
  <path d="M30.5 113C31.4285 113 32.1751 112.999 32.7607 113.078C33.3608 113.159 33.8663 113.331 34.2676 113.732C34.6689 114.134 34.8412 114.639 34.9219 115.239C35.0006 115.825 35 116.572 35 117.5V120.5C35 121.428 35.0006 122.175 34.9219 122.761C34.8412 123.361 34.6689 123.866 34.2676 124.268C33.8663 124.669 33.3608 124.841 32.7607 124.922C32.1751 125.001 31.4285 125 30.5 125H25.5C24.5715 125 23.8249 125.001 23.2393 124.922C22.6392 124.841 22.1337 124.669 21.7324 124.268C21.3311 123.866 21.1588 123.361 21.0781 122.761C20.9994 122.175 21 121.428 21 120.5V117.5C21 116.572 20.9994 115.825 21.0781 115.239C21.1588 114.639 21.3311 114.134 21.7324 113.732C22.1337 113.331 22.6392 113.159 23.2393 113.078C23.8249 112.999 24.5715 113 25.5 113H30.5ZM25.5 114C24.5431 114 23.8756 114.001 23.3721 114.068C22.8829 114.134 22.624 114.255 22.4395 114.439C22.2549 114.624 22.1341 114.883 22.0684 115.372C22.0007 115.876 22 116.543 22 117.5V120.5C22 121.457 22.0007 122.124 22.0684 122.628C22.1341 123.117 22.2549 123.376 22.4395 123.561C22.624 123.745 22.8829 123.866 23.3721 123.932C23.8756 123.999 24.5431 124 25.5 124H30.5C31.4569 124 32.1244 123.999 32.6279 123.932C33.1171 123.866 33.376 123.745 33.5605 123.561C33.7451 123.376 33.8659 123.117 33.9316 122.628C33.9993 122.124 34 121.457 34 120.5V117.5C34 116.543 33.9993 115.876 33.9316 115.372C33.8659 114.883 33.7451 114.624 33.5605 114.439C33.376 114.255 33.1171 114.134 32.6279 114.068C32.1244 114.001 31.4569 114 30.5 114H25.5Z" fill="currentColor"/>
</svg>
