<svg xmlns="http://www.w3.org/2000/svg" width="16" height="16" viewBox="20.0 111.0 16.0 16.0" fill="none">
  <path d="M26.5 114C27.4285 114 28.1751 113.999 28.7607 114.078C29.3608 114.159 29.8663 114.331 30.2676 114.732C30.6664 115.131 30.8386 115.633 30.9199 116.229L32.1016 115.635C32.5735 115.397 32.9779 115.192 33.3096 115.083C33.6482 114.971 34.0398 114.915 34.4062 115.141C34.7725 115.366 34.8978 115.741 34.9502 116.094C35.0015 116.439 35 116.893 35 117.422V120.576C35 121.104 35.0015 121.558 34.9502 121.903C34.8978 122.256 34.7723 122.631 34.4062 122.856C34.0402 123.082 33.649 123.025 33.3105 122.914C32.979 122.805 32.5743 122.601 32.1025 122.364L30.9199 121.771C30.8387 122.366 30.6667 122.868 30.2676 123.268C29.8663 123.669 29.3608 123.841 28.7607 123.922C28.1751 124.001 27.4285 124 26.5 124H25.5C24.5715 124 23.8249 124.001 23.2393 123.922C22.6392 123.841 22.1337 123.669 21.7324 123.268C21.3311 122.866 21.1588 122.361 21.0781 121.761C20.9994 121.175 21 120.428 21 119.5V118.5C21 117.572 20.9994 116.825 21.0781 116.239C21.1588 115.639 21.3311 115.134 21.7324 114.732C22.1337 114.331 22.6392 114.159 23.2393 114.078C23.8249 113.999 24.5715 114 25.5 114H26.5ZM25.5 115C24.5431 115 23.8756 115.001 23.3721 115.068C22.8829 115.134 22.624 115.255 22.4395 115.439C22.2549 115.624 22.1341 115.883 22.0684 116.372C22.0007 116.876 22 117.543 22 118.5V119.5C22 120.457 22.0007 121.124 22.0684 121.628C22.1341 122.117 22.2549 122.376 22.4395 122.561C22.624 122.745 22.8829 122.866 23.3721 122.932C23.8756 122.999 24.5431 123 25.5 123H26.5C27.4569 123 28.1244 122.999 28.6279 122.932C29.1171 122.866 29.376 122.745 29.5605 122.561C29.7451 122.376 29.8659 122.117 29.9316 121.628C29.9993 121.124 30 120.457 30 119.5V118.5C30 117.543 29.9993 116.876 29.9316 116.372C29.8659 115.883 29.7451 115.624 29.5605 115.439C29.376 115.255 29.1171 115.134 28.6279 115.068C28.1244 115.001 27.4569 115 26.5 115H25.5ZM33.8447 115.985C33.8077 115.985 33.7398 115.995 33.623 116.033C33.3787 116.114 33.0527 116.276 32.5508 116.528L30.9912 117.312C30.9992 117.669 31 118.065 31 118.5V119.5C31 119.935 30.9992 120.329 30.9912 120.687L32.5518 121.471C33.0532 121.722 33.3789 121.885 33.623 121.965C33.7396 122.003 33.8077 122.012 33.8447 122.012C33.8718 122.012 33.8776 122.007 33.8809 122.005C33.8841 122.003 33.8908 122 33.9033 121.976C33.92 121.943 33.9429 121.877 33.9609 121.756C33.9987 121.502 34 121.137 34 120.576V117.422C34 116.86 33.9987 116.496 33.9609 116.241C33.9429 116.119 33.92 116.055 33.9033 116.021C33.8908 115.997 33.8841 115.994 33.8809 115.992C33.8776 115.99 33.8719 115.985 33.8447 115.985Z" fill="currentColor"/>
</svg>
