<svg xmlns="http://www.w3.org/2000/svg" width="16" height="16" viewBox="21.0 112.0 16.0 16.0" fill="none">
  <path d="M31.5 122C32.3284 122 33 122.672 33 123.5C33 124.328 32.3284 125 31.5 125C30.6716 125 30 124.328 30 123.5C30 122.672 30.6716 122 31.5 122ZM31.5 123C31.2239 123 31 123.224 31 123.5C31 123.776 31.2239 124 31.5 124C31.7761 124 32 123.776 32 123.5C32 123.224 31.7761 123 31.5 123Z" fill="currentColor"/>
  <path d="M31.5 120C32.6394 120 33.6707 120.474 34.4512 121.113C35.2248 121.747 35.8026 122.587 35.9873 123.388C36.0043 123.462 36.0043 123.538 35.9873 123.612C35.8009 124.42 35.1967 125.26 34.4053 125.891C33.6059 126.527 32.5547 127 31.417 127C30.2759 127 29.2634 126.525 28.502 125.882C27.7466 125.244 27.1957 124.405 27.0127 123.612C26.9957 123.538 26.9957 123.462 27.0127 123.388C27.1974 122.587 27.7744 121.747 28.5479 121.113C29.3283 120.473 30.3605 120 31.5 120ZM31.5 121C30.6396 121 29.8252 121.36 29.1826 121.887C28.5784 122.382 28.1724 122.989 28.0195 123.5C28.1717 124.018 28.5631 124.626 29.1465 125.118C29.7666 125.642 30.5586 126 31.417 126C32.2792 126 33.1173 125.639 33.7822 125.109C34.4081 124.611 34.8262 124.003 34.9795 123.498C34.8261 122.987 34.4208 122.381 33.8174 121.887C33.1748 121.36 32.3604 121 31.5 121Z" fill="currentColor"/>
  <path d="M22.5 121C22.7761 121 23 121.224 23 121.5C23 121.973 23 122.303 23.0176 122.561C23.0349 122.814 23.0676 122.962 23.1143 123.074C23.2665 123.442 23.5584 123.734 23.9258 123.886C24.0384 123.932 24.1862 123.965 24.4395 123.982C24.6974 124 25.0272 124 25.5 124C25.7761 124 26 124.224 26 124.5C26 124.776 25.7761 125 25.5 125C25.0411 125 24.6719 125 24.3721 124.979C24.0677 124.959 23.7978 124.915 23.543 124.81C22.9307 124.556 22.4442 124.069 22.1904 123.457C22.0849 123.202 22.0413 122.932 22.0205 122.628C22.0001 122.328 22 121.959 22 121.5C22 121.224 22.2239 121 22.5 121Z" fill="currentColor"/>
  <path d="M25.5 113C25.7761 113 26 113.224 26 113.5C26 113.776 25.7761 114 25.5 114C25.0272 114 24.6974 114 24.4395 114.018C24.1862 114.035 24.0384 114.068 23.9258 114.114C23.5584 114.266 23.2665 114.558 23.1143 114.926C23.0676 115.038 23.0349 115.186 23.0176 115.439C23 115.697 23 116.027 23 116.5C23 116.776 22.7761 117 22.5 117C22.2239 117 22 116.776 22 116.5C22 116.041 22.0001 115.672 22.0205 115.372C22.0413 115.068 22.0849 114.798 22.1904 114.543C22.4442 113.931 22.9307 113.444 23.543 113.19C23.7978 113.085 24.0677 113.041 24.3721 113.021C24.6719 113 25.0411 113 25.5 113Z" fill="currentColor"/>
  <path d="M30.5 113C30.9589 113 31.3281 113 31.6279 113.021C31.9323 113.041 32.2022 113.085 32.457 113.19C33.0693 113.444 33.5558 113.931 33.8096 114.543C33.9151 114.798 33.9587 115.068 33.9795 115.372C33.9999 115.672 34 116.041 34 116.5C34 116.776 33.7761 117 33.5 117C33.2239 117 33 116.776 33 116.5C33 116.027 33 115.697 32.9824 115.439C32.9651 115.186 32.9324 115.038 32.8857 114.926C32.7335 114.558 32.4416 114.266 32.0742 114.114C31.9616 114.068 31.8138 114.035 31.5605 114.018C31.3026 114 30.9728 114 30.5 114C30.2239 114 30 113.776 30 113.5C30 113.224 30.2239 113 30.5 113Z" fill="currentColor"/>
</svg>
