<svg xmlns="http://www.w3.org/2000/svg" width="16" height="16" viewBox="19.87 109.85 17.27 17.27" fill="none">
  <path d="M27.0108 113.02C27.1976 113.022 27.3902 113.062 27.5694 113.185L27.6456 113.243L27.7188 113.312C27.8757 113.478 27.9424 113.674 27.9718 113.859C28.0015 114.047 28.0001 114.275 28.0001 114.5V119H32.5001C32.7251 119 32.9531 118.998 33.1407 119.028C33.3258 119.058 33.5222 119.124 33.6876 119.281L33.7569 119.354L33.8145 119.431C33.9376 119.61 33.9785 119.802 33.9796 119.989C33.9806 120.171 33.9432 120.382 33.9102 120.578C33.7585 121.48 33.417 122.344 32.9044 123.111C32.1902 124.18 31.175 125.013 29.9874 125.505C28.7997 125.997 27.4923 126.126 26.2315 125.875C24.9709 125.624 23.8123 125.005 22.9034 124.097C21.9945 123.188 21.376 122.029 21.1251 120.768C20.8743 119.508 21.0032 118.2 21.4952 117.013C21.9871 115.825 22.8199 114.81 23.8888 114.096C24.6559 113.583 25.5201 113.241 26.422 113.09C26.6181 113.057 26.8286 113.019 27.0108 113.02ZM28.0001 124.975C28.5487 124.925 29.09 124.794 29.6046 124.581C30.6095 124.165 31.469 123.46 32.0733 122.556C32.507 121.906 32.7955 121.175 32.9239 120.412C32.9422 120.303 32.9561 120.218 32.9659 120.145C32.9738 120.086 32.9766 120.045 32.9776 120.015C32.8863 120.001 32.7519 120 32.5001 120H28.0001V124.975ZM26.8546 114.034C26.7816 114.044 26.697 114.058 26.588 114.076C25.8249 114.204 25.0935 114.493 24.4444 114.927C23.5399 115.531 22.8353 116.39 22.419 117.395C22.0028 118.4 21.8933 119.506 22.1055 120.573C22.3178 121.64 22.8423 122.619 23.6114 123.389C24.3805 124.158 25.3601 124.682 26.4268 124.894C26.6168 124.932 26.8084 124.955 27.0001 124.973V114.5C27.0001 114.247 26.9981 114.113 26.9845 114.021C26.9545 114.022 26.913 114.026 26.8546 114.034Z" fill="currentColor"/>
  <path d="M33.4395 111.439C34.0253 110.854 34.9748 110.854 35.5606 111.439C36.1463 112.025 36.1463 112.975 35.5606 113.56L31.5606 117.56C31.4875 117.634 31.393 117.683 31.2911 117.7L29.5841 117.993C29.4243 118.02 29.2612 117.968 29.1466 117.853C29.0318 117.739 28.9795 117.575 29.0069 117.415L29.2999 115.708C29.3174 115.606 29.3665 115.512 29.4395 115.439L33.4395 111.439ZM30.2589 116.034L30.1124 116.888L30.9659 116.741L34.0001 113.707L33.293 113L30.2589 116.034ZM34.8536 112.146C34.6583 111.951 34.3418 111.951 34.1466 112.146L34.0001 112.293L34.7071 113L34.8536 112.853C35.0488 112.658 35.0487 112.342 34.8536 112.146Z" fill="currentColor"/>
</svg>
