<svg xmlns="http://www.w3.org/2000/svg" width="16" height="16" viewBox="20.0 111.0 16.0 16.0" fill="none">
  <path d="M32 116C33.6569 116 35 117.343 35 119C35 120.657 33.6569 122 32 122H24C22.3431 122 21 120.657 21 119C21 117.343 22.3431 116 24 116C25.6569 116 27 117.343 27 119C27 119.769 26.7077 120.469 26.2314 121H29.7686C29.2923 120.469 29 119.769 29 119C29 117.343 30.3431 116 32 116ZM24 117C22.8954 117 22 117.895 22 119C22 120.105 22.8954 121 24 121C25.1046 121 26 120.105 26 119C26 117.895 25.1046 117 24 117ZM32 117C30.8954 117 30 117.895 30 119C30 120.105 30.8954 121 32 121C33.1046 121 34 120.105 34 119C34 117.895 33.1046 117 32 117Z" fill="currentColor"/>
</svg>
