<svg xmlns="http://www.w3.org/2000/svg" width="16" height="16" viewBox="19.91 111.0 16.15 16.15" fill="none">
  <path d="M29.0002 112C30.1047 112 31.0002 112.895 31.0002 114C31.0002 114.659 30.6799 115.24 30.1886 115.604L30.1906 115.606L30.3224 115.779L30.9621 116.738L31.9748 117.077L32.1173 117.133C32.8108 117.445 33.1695 118.238 32.924 118.975C32.6618 119.76 31.8113 120.185 31.0255 119.923L30.6535 119.8L31.1095 120.104L31.2111 120.176C31.6733 120.527 31.96 121.063 31.9962 121.643L32.0002 121.768V124.5C32.0002 125.277 31.4096 125.915 30.6535 125.992L30.5002 126C29.6719 126 29.0002 125.328 29.0002 124.5V122.303L28.3029 121.838L27.9435 122.919L27.9425 122.92C27.8559 123.179 27.7098 123.412 27.5197 123.603L25.5617 125.561C24.9757 126.146 24.0268 126.145 23.4416 125.562L23.4406 125.561C22.8547 124.975 22.8552 124.025 23.4406 123.439L25.1896 121.688L26.0519 119.104L26.0998 118.865L25.7003 119.399C25.2041 120.061 24.2642 120.198 23.6007 119.701L23.5998 119.7C22.9392 119.204 22.8024 118.264 23.299 117.601L23.3 117.6L24.7257 115.699L24.7423 115.678L24.7599 115.656L24.8166 115.589L24.8371 115.565L24.8586 115.543C25.187 115.198 25.6443 115 26.1252 115H27.2707C27.1001 114.706 27.0002 114.365 27.0002 114C27.0002 112.896 27.8957 112 29.0002 112ZM26.1007 122.118C26.0823 122.174 26.0729 122.202 26.0578 122.227C26.0426 122.251 26.0217 122.272 25.9806 122.313L24.1476 124.146C23.9524 124.342 23.9524 124.658 24.1476 124.854C24.3429 125.048 24.6596 125.049 24.8546 124.854L26.8127 122.896C26.8947 122.813 26.9575 122.713 26.9943 122.603L27.4396 121.263L26.6681 120.748C26.637 120.727 26.6073 120.705 26.5783 120.683L26.1007 122.118ZM26.1252 116C25.919 116 25.7227 116.085 25.5822 116.232L25.5255 116.3L24.0998 118.2C23.9346 118.421 23.9799 118.735 24.2003 118.9C24.4212 119.066 24.7349 119.02 24.9005 118.8L26.0998 117.2C26.1732 117.102 26.2112 117.053 26.2638 117.026C26.3165 117 26.3781 117 26.5002 117H26.8888C27.1713 117 27.3128 117 27.3878 117.092C27.4629 117.184 27.4344 117.322 27.3781 117.6L27.0197 119.367C26.9637 119.569 27.0387 119.793 27.2228 119.916L29.7775 121.619C29.8863 121.692 29.9412 121.728 29.9709 121.783C30.0004 121.838 30.0002 121.904 30.0002 122.035V124.5C30.0002 124.776 30.2242 125 30.5002 125C30.7762 125 31.0002 124.776 31.0002 124.5V121.768C31.0001 121.433 30.833 121.121 30.5548 120.936L28.8498 119.799C28.7482 119.731 28.6843 119.688 28.6466 119.642L28.6173 119.593C28.6029 119.558 28.5992 119.52 28.6037 119.472L28.6369 119.283L28.9992 117.503L29.0002 117.497C29.0002 117.468 29.0369 117.458 29.0529 117.481L29.5363 118.206C29.6287 118.345 29.7651 118.449 29.923 118.502L31.342 118.975C31.6039 119.062 31.8874 118.92 31.9748 118.658C32.062 118.396 31.9203 118.113 31.6584 118.025L30.4836 117.634C30.4436 117.62 30.413 117.609 30.3888 117.6L30.3293 117.567C30.3129 117.555 30.2981 117.54 30.2824 117.52L30.2257 117.437L29.4904 116.334C29.3513 116.126 29.117 116 28.8664 116H26.1252ZM29.0002 113C28.448 113 28.0002 113.448 28.0002 114C28.0002 114.552 28.448 115 29.0002 115C29.5524 115 30.0002 114.552 30.0002 114C30.0002 113.448 29.5524 113 29.0002 113Z" fill="currentColor"/>
</svg>
