<svg xmlns="http://www.w3.org/2000/svg" width="16" height="16" viewBox="20.0 109.98 16.0 16.0" fill="none">
  <path d="M25.5 117C26.8807 117 28 118.119 28 119.5C28 120.881 26.8807 122 25.5 122C24.1193 122 23 120.881 23 119.5C23 118.119 24.1193 117 25.5 117ZM25.5 118C24.6716 118 24 118.672 24 119.5C24 120.328 24.6716 121 25.5 121C26.3284 121 27 120.328 27 119.5C27 118.672 26.3284 118 25.5 118Z" fill="currentColor"/>
  <path d="M34.5 115C34.7761 115 35 115.224 35 115.5V118.5C35 118.776 34.7761 119 34.5 119H29.9707C29.9889 119.164 30 119.331 30 119.5C30 121.985 27.9853 124 25.5 124C23.0147 124 21 121.985 21 119.5C21 117.015 23.0147 115 25.5 115H34.5ZM25.5 116C23.567 116 22 117.567 22 119.5C22 121.433 23.567 123 25.5 123C27.433 123 29 121.433 29 119.5C29 119.197 28.9615 118.904 28.8896 118.625C28.8511 118.475 28.8838 118.316 28.9785 118.193C29.0732 118.071 29.2195 118 29.374 118H34V116H30V117H28V116H25.5Z" fill="currentColor"/>
  <path d="M25.1465 112.146C25.3417 111.951 25.6583 111.951 25.8535 112.146L26.8535 113.146C27.0488 113.342 27.0488 113.658 26.8535 113.854C26.6583 114.049 26.3417 114.049 26.1465 113.854L25.1465 112.854C24.9512 112.658 24.9512 112.342 25.1465 112.146Z" fill="currentColor"/>
  <path d="M28.5 112C28.7761 112 29 112.224 29 112.5V113.5C29 113.776 28.7761 114 28.5 114C28.2239 114 28 113.776 28 113.5V112.5C28 112.224 28.2239 112 28.5 112Z" fill="currentColor"/>
  <path d="M31.1465 112.146C31.3417 111.951 31.6583 111.951 31.8535 112.146C32.0488 112.342 32.0488 112.658 31.8535 112.854L30.8535 113.854C30.6583 114.049 30.3417 114.049 30.1465 113.854C29.9512 113.658 29.9512 113.342 30.1465 113.146L31.1465 112.146Z" fill="currentColor"/>
</svg>
