<svg xmlns="http://www.w3.org/2000/svg" width="16" height="16" viewBox="20.0 111.5 17.0 17.0" fill="none">
  <path d="M31.5 120C31.7761 120 32 120.224 32 120.5V122H33.5C33.7761 122 34 122.224 34 122.5C34 122.776 33.7761 123 33.5 123H32V124.5C32 124.776 31.7761 125 31.5 125C31.2239 125 31 124.776 31 124.5V123H29.5C29.2239 123 29 122.776 29 122.5C29 122.224 29.2239 122 29.5 122H31V120.5C31 120.224 31.2239 120 31.5 120Z" fill="currentColor"/>
  <path d="M31.5 118C33.9853 118 36 120.015 36 122.5C36 124.985 33.9853 127 31.5 127C29.0147 127 27 124.985 27 122.5C27 120.015 29.0147 118 31.5 118ZM31.5 119C29.567 119 28 120.567 28 122.5C28 124.433 29.567 126 31.5 126C33.433 126 35 124.433 35 122.5C35 120.567 33.433 119 31.5 119Z" fill="currentColor"/>
  <path d="M30.5 113C31.4285 113 32.1751 112.999 32.7607 113.078C33.3608 113.159 33.8663 113.331 34.2676 113.732C34.6689 114.134 34.8412 114.639 34.9219 115.239C35.0006 115.825 35 116.572 35 117.5V118.257C34.693 118.003 34.3576 117.783 34 117.601V117.5C34 117.324 33.9966 117.157 33.9961 117H22.0039C22.0034 117.157 22 117.324 22 117.5V120.5C22 121.457 22.0007 122.124 22.0684 122.628C22.1341 123.117 22.2549 123.376 22.4395 123.561C22.624 123.745 22.8829 123.866 23.3721 123.932C23.8756 123.999 24.5431 124 25.5 124H26.208C26.3067 124.349 26.4395 124.683 26.6016 125H25.5C24.5715 125 23.8249 125.001 23.2393 124.922C22.6392 124.841 22.1337 124.669 21.7324 124.268C21.3311 123.866 21.1588 123.361 21.0781 122.761C20.9994 122.175 21 121.428 21 120.5V117.5C21 116.572 20.9994 115.825 21.0781 115.239C21.1588 114.639 21.3311 114.134 21.7324 113.732C22.1337 113.331 22.6392 113.159 23.2393 113.078C23.8249 112.999 24.5715 113 25.5 113H30.5ZM25.5 114C24.5431 114 23.8756 114.001 23.3721 114.068C22.8829 114.134 22.624 114.255 22.4395 114.439C22.2549 114.624 22.1341 114.883 22.0684 115.372C22.0435 115.557 22.0306 115.764 22.0205 116H33.9795C33.9694 115.764 33.9565 115.557 33.9316 115.372C33.8659 114.883 33.7451 114.624 33.5605 114.439C33.376 114.255 33.1171 114.134 32.6279 114.068C32.1244 114.001 31.4569 114 30.5 114H25.5Z" fill="currentColor"/>
</svg>
