<svg xmlns="http://www.w3.org/2000/svg" width="16" height="16" viewBox="20.0 111.5 17.0 17.0" fill="none">
  <path d="M32 118C33.019 118 33.9653 118.181 34.6758 118.493C35.0302 118.649 35.3485 118.847 35.585 119.093C35.8237 119.341 35.9999 119.661 36 120.038V124.962C35.9999 125.339 35.8237 125.659 35.585 125.907C35.3485 126.153 35.0302 126.351 34.6758 126.507C33.9653 126.819 33.019 127 32 127C30.981 127 30.0347 126.819 29.3242 126.507C28.9698 126.351 28.6515 126.153 28.415 125.907C28.1763 125.659 28.0001 125.339 28 124.962V120.038C28.0001 119.661 28.1763 119.341 28.415 119.093C28.6515 118.847 28.9698 118.649 29.3242 118.493C30.0347 118.181 30.981 118 32 118ZM35 121.42C34.8962 121.478 34.7884 121.534 34.6758 121.584C33.9653 121.896 33.019 122.077 32 122.077C30.981 122.077 30.0347 121.896 29.3242 121.584C29.2116 121.534 29.1038 121.478 29 121.42V124.962C29.0001 125.01 29.0206 125.094 29.1357 125.214C29.2535 125.336 29.4479 125.469 29.7266 125.592C30.2828 125.836 31.0862 126 32 126C32.9138 126 33.7172 125.836 34.2734 125.592C34.5521 125.469 34.7465 125.336 34.8643 125.214C34.9794 125.094 34.9999 125.01 35 124.962V121.42ZM32 119C31.0862 119 30.2828 119.164 29.7266 119.408C29.4479 119.531 29.2535 119.664 29.1357 119.786C29.0207 119.906 29.0001 119.99 29 120.038C29 120.086 29.0203 120.171 29.1357 120.291C29.2535 120.413 29.448 120.547 29.7266 120.669C30.2828 120.913 31.0862 121.077 32 121.077C32.9138 121.077 33.7172 120.913 34.2734 120.669C34.552 120.547 34.7465 120.413 34.8643 120.291C34.9797 120.171 35 120.086 35 120.038C34.9999 119.99 34.9793 119.906 34.8643 119.786C34.7465 119.664 34.5521 119.531 34.2734 119.408C33.7172 119.164 32.9138 119 32 119Z" fill="currentColor"/>
  <path d="M30.5 113C31.4285 113 32.1751 112.999 32.7607 113.078C33.3608 113.159 33.8663 113.331 34.2676 113.732C34.6689 114.134 34.8412 114.639 34.9219 115.239C35.0006 115.825 35 116.572 35 117.5V117.545C34.6901 117.415 34.3532 117.307 33.9971 117.223C33.9962 117.146 33.9963 117.072 33.9961 117H22.0039C22.0034 117.157 22 117.324 22 117.5V120.5C22 121.457 22.0007 122.124 22.0684 122.628C22.1341 123.117 22.2549 123.376 22.4395 123.561C22.624 123.745 22.8829 123.866 23.3721 123.932C23.8756 123.999 24.5431 124 25.5 124H27V124.962C27 124.975 27.0008 124.987 27.001 125H25.5C24.5715 125 23.8249 125.001 23.2393 124.922C22.6392 124.841 22.1337 124.669 21.7324 124.268C21.3311 123.866 21.1588 123.361 21.0781 122.761C20.9994 122.175 21 121.428 21 120.5V117.5C21 116.572 20.9994 115.825 21.0781 115.239C21.1588 114.639 21.3311 114.134 21.7324 113.732C22.1337 113.331 22.6392 113.159 23.2393 113.078C23.8249 112.999 24.5715 113 25.5 113H30.5ZM25.5 114C24.5431 114 23.8756 114.001 23.3721 114.068C22.8829 114.134 22.624 114.255 22.4395 114.439C22.2549 114.624 22.1341 114.883 22.0684 115.372C22.0435 115.557 22.0306 115.764 22.0205 116H33.9795C33.9694 115.764 33.9565 115.557 33.9316 115.372C33.8659 114.883 33.7451 114.624 33.5605 114.439C33.376 114.255 33.1171 114.134 32.6279 114.068C32.1244 114.001 31.4569 114 30.5 114H25.5Z" fill="currentColor"/>
</svg>
