<svg xmlns="http://www.w3.org/2000/svg" width="16" height="16" viewBox="20.0 111.5 17.0 17.0" fill="none">
  <path d="M31.5 118C33.9853 118 36 120.015 36 122.5C36 124.985 33.9853 127 31.5 127C29.0147 127 27 124.985 27 122.5C27 120.015 29.0147 118 31.5 118ZM30.6152 124C30.6862 124.44 30.7864 124.831 30.9072 125.153C31.0305 125.482 31.1657 125.713 31.29 125.854C31.415 125.994 31.4872 126 31.5 126C31.5128 126 31.585 125.994 31.71 125.854C31.8343 125.713 31.9695 125.482 32.0928 125.153C32.2136 124.831 32.3138 124.44 32.3848 124H30.6152ZM28.3369 124C28.6895 124.742 29.2961 125.34 30.0439 125.683C30.0192 125.624 29.9935 125.565 29.9707 125.504C29.809 125.073 29.6859 124.561 29.6055 124H28.3369ZM33.3945 124C33.3141 124.561 33.191 125.073 33.0293 125.504C33.0064 125.565 32.9799 125.624 32.9551 125.683C33.7033 125.34 34.3103 124.743 34.6631 124H33.3945ZM28.0361 122C28.0128 122.163 28 122.33 28 122.5C28 122.67 28.0128 122.837 28.0361 123H29.5117C29.5044 122.836 29.5 122.669 29.5 122.5C29.5 122.331 29.5044 122.164 29.5117 122H28.0361ZM30.5137 122C30.5057 122.163 30.5 122.33 30.5 122.5C30.5 122.67 30.5057 122.837 30.5137 123H32.4863C32.4943 122.837 32.5 122.67 32.5 122.5C32.5 122.33 32.4943 122.163 32.4863 122H30.5137ZM33.4883 122C33.4956 122.164 33.5 122.331 33.5 122.5C33.5 122.669 33.4956 122.836 33.4883 123H34.9639C34.9872 122.837 35 122.67 35 122.5C35 122.33 34.9872 122.163 34.9639 122H33.4883ZM30.0439 119.316C29.2959 119.659 28.6896 120.258 28.3369 121H29.6055C29.6859 120.439 29.809 119.927 29.9707 119.496C29.9936 119.435 30.019 119.375 30.0439 119.316ZM31.5 119C31.4872 119 31.415 119.006 31.29 119.146C31.1657 119.287 31.0305 119.518 30.9072 119.847C30.7864 120.169 30.6862 120.56 30.6152 121H32.3848C32.3138 120.56 32.2136 120.169 32.0928 119.847C31.9695 119.518 31.8343 119.287 31.71 119.146C31.585 119.006 31.5128 119 31.5 119ZM33.0293 119.496C33.191 119.927 33.3141 120.439 33.3945 121H34.6631C34.3103 120.257 33.7035 119.659 32.9551 119.316C32.98 119.376 33.0063 119.435 33.0293 119.496Z" fill="currentColor"/>
  <path d="M30.5 113C31.4285 113 32.1751 112.999 32.7607 113.078C33.3608 113.159 33.8663 113.331 34.2676 113.732C34.6689 114.134 34.8412 114.639 34.9219 115.239C35.0006 115.825 35 116.572 35 117.5V118.257C34.693 118.003 34.3576 117.783 34 117.601V117.5C34 117.324 33.9966 117.157 33.9961 117H22.0039C22.0034 117.157 22 117.324 22 117.5V120.5C22 121.457 22.0007 122.124 22.0684 122.628C22.1341 123.117 22.2549 123.376 22.4395 123.561C22.624 123.745 22.8829 123.866 23.3721 123.932C23.8756 123.999 24.5431 124 25.5 124H26.208C26.3067 124.349 26.4395 124.683 26.6016 125H25.5C24.5715 125 23.8249 125.001 23.2393 124.922C22.6392 124.841 22.1337 124.669 21.7324 124.268C21.3311 123.866 21.1588 123.361 21.0781 122.761C20.9994 122.175 21 121.428 21 120.5V117.5C21 116.572 20.9994 115.825 21.0781 115.239C21.1588 114.639 21.3311 114.134 21.7324 113.732C22.1337 113.331 22.6392 113.159 23.2393 113.078C23.8249 112.999 24.5715 113 25.5 113H30.5ZM25.5 114C24.5431 114 23.8756 114.001 23.3721 114.068C22.8829 114.134 22.624 114.255 22.4395 114.439C22.2549 114.624 22.1341 114.883 22.0684 115.372C22.0435 115.557 22.0306 115.764 22.0205 116H33.9795C33.9694 115.764 33.9565 115.557 33.9316 115.372C33.8659 114.883 33.7451 114.624 33.5605 114.439C33.376 114.255 33.1171 114.134 32.6279 114.068C32.1244 114.001 31.4569 114 30.5 114H25.5Z" fill="currentColor"/>
</svg>
