<svg xmlns="http://www.w3.org/2000/svg" width="16" height="16" viewBox="20.0 111.0 16.0 16.0" fill="none">
  <path d="M30.5 113C31.4285 113 32.1751 112.999 32.7607 113.078C33.3608 113.159 33.8663 113.331 34.2676 113.732C34.6689 114.134 34.8412 114.639 34.9219 115.239C35.0006 115.825 35 116.572 35 117.5V118.5C35 119.428 35.0006 120.175 34.9219 120.761C34.8412 121.361 34.6689 121.866 34.2676 122.268C33.8977 122.637 33.4389 122.811 32.8994 122.899C32.8111 123.439 32.6375 123.898 32.2676 124.268C31.8663 124.669 31.3608 124.841 30.7607 124.922C30.1751 125.001 29.4285 125 28.5 125H25.5C24.5715 125 23.8249 125.001 23.2393 124.922C22.6392 124.841 22.1337 124.669 21.7324 124.268C21.3311 123.866 21.1588 123.361 21.0781 122.761C20.9994 122.175 21 121.428 21 120.5V119.5C21 118.572 20.9994 117.825 21.0781 117.239C21.1588 116.639 21.3311 116.134 21.7324 115.732C22.1022 115.363 22.5605 115.188 23.0996 115.1C23.188 114.56 23.3627 114.102 23.7324 113.732C24.1337 113.331 24.6392 113.159 25.2393 113.078C25.8249 112.999 26.5715 113 27.5 113H30.5ZM23.0137 116.137C22.7445 116.207 22.5726 116.306 22.4395 116.439C22.2549 116.624 22.1341 116.883 22.0684 117.372C22.0007 117.876 22 118.543 22 119.5V120.5C22 121.457 22.0007 122.124 22.0684 122.628C22.1341 123.117 22.2549 123.376 22.4395 123.561C22.624 123.745 22.8829 123.866 23.3721 123.932C23.8756 123.999 24.5431 124 25.5 124H28.5C29.4569 124 30.1244 123.999 30.6279 123.932C31.1171 123.866 31.376 123.745 31.5605 123.561C31.6938 123.427 31.7922 123.255 31.8623 122.985C31.4602 122.998 31.0073 123 30.5 123H27.5C26.5715 123 25.8249 123.001 25.2393 122.922C24.6392 122.841 24.1337 122.669 23.7324 122.268C23.3311 121.866 23.1588 121.361 23.0781 120.761C22.9994 120.175 23 119.428 23 118.5V117.5C23 116.992 23.001 116.539 23.0137 116.137ZM24.0205 116C24.0032 116.405 24 116.895 24 117.5V118.5C24 119.457 24.0007 120.124 24.0684 120.628C24.1341 121.117 24.2549 121.376 24.4395 121.561C24.624 121.745 24.8829 121.866 25.3721 121.932C25.8756 121.999 26.5431 122 27.5 122H30.5C31.4569 122 32.1244 121.999 32.6279 121.932C33.1171 121.866 33.376 121.745 33.5605 121.561C33.7451 121.376 33.8659 121.117 33.9316 120.628C33.9993 120.124 34 119.457 34 118.5V117.5C34 116.895 33.9968 116.405 33.9795 116H24.0205ZM27.5 114C26.5431 114 25.8756 114.001 25.3721 114.068C24.8829 114.134 24.624 114.255 24.4395 114.439C24.3086 114.57 24.2105 114.739 24.1406 115H33.8594C33.7895 114.739 33.6914 114.57 33.5605 114.439C33.376 114.255 33.1171 114.134 32.6279 114.068C32.1244 114.001 31.4569 114 30.5 114H27.5Z" fill="currentColor"/>
</svg>
