<svg xmlns="http://www.w3.org/2000/svg" width="16" height="16" viewBox="20.5 111.0 15.0 15.0" fill="none">
  <path d="M25.5 121C25.7761 121 26 121.224 26 121.5C26 121.776 25.7761 122 25.5 122C25.2239 122 25 121.776 25 121.5C25 121.224 25.2239 121 25.5 121Z" fill="currentColor"/>
  <path d="M30.5 121C30.7761 121 31 121.224 31 121.5C31 121.776 30.7761 122 30.5 122H27.5C27.2239 122 27 121.776 27 121.5C27 121.224 27.2239 121 27.5 121H30.5Z" fill="currentColor"/>
  <path d="M29 115C29.7854 115 30.5 115.661 30.5 116.5C30.5 117.46 29.8731 118.271 29.3535 118.791C29.0824 119.062 28.813 119.281 28.6123 119.432C28.5116 119.507 28.4266 119.566 28.3662 119.607C28.3201 119.639 28.2948 119.659 28.2666 119.673L28.2656 119.674C28.1036 119.775 27.8974 119.775 27.7354 119.674C27.716 119.664 27.6884 119.644 27.6338 119.607C27.5734 119.566 27.4884 119.507 27.3877 119.432C27.187 119.281 26.9176 119.062 26.6465 118.791C26.1269 118.271 25.5 117.46 25.5 116.5C25.5 115.661 26.2146 115 27 115C27.4281 115 27.7701 115.196 27.9844 115.513C27.9899 115.521 27.9946 115.53 28 115.538C28.0054 115.53 28.0101 115.521 28.0156 115.513C28.2299 115.196 28.5719 115 29 115Z" fill="currentColor"/>
  <path d="M28.5 112C29.4285 112 30.1751 111.999 30.7607 112.078C31.3608 112.159 31.8663 112.331 32.2676 112.732C32.6689 113.134 32.8412 113.639 32.9219 114.239C33.0006 114.825 33 115.572 33 116.5V120.5C33 121.428 33.0006 122.175 32.9219 122.761C32.8412 123.361 32.6689 123.866 32.2676 124.268C31.8663 124.669 31.3608 124.841 30.7607 124.922C30.1751 125.001 29.4285 125 28.5 125H27.5C26.5715 125 25.8249 125.001 25.2393 124.922C24.6392 124.841 24.1337 124.669 23.7324 124.268C23.3311 123.866 23.1588 123.361 23.0781 122.761C22.9994 122.175 23 121.428 23 120.5V116.5C23 115.572 22.9994 114.825 23.0781 114.239C23.1588 113.639 23.3311 113.134 23.7324 112.732C24.1337 112.331 24.6392 112.159 25.2393 112.078C25.8249 111.999 26.5715 112 27.5 112H28.5ZM27.5 113C26.5431 113 25.8756 113.001 25.3721 113.068C24.8829 113.134 24.624 113.255 24.4395 113.439C24.2549 113.624 24.1341 113.883 24.0684 114.372C24.0007 114.876 24 115.543 24 116.5V120.5C24 121.457 24.0007 122.124 24.0684 122.628C24.1341 123.117 24.2549 123.376 24.4395 123.561C24.624 123.745 24.8829 123.866 25.3721 123.932C25.8756 123.999 26.5431 124 27.5 124H28.5C29.4569 124 30.1244 123.999 30.6279 123.932C31.1171 123.866 31.376 123.745 31.5605 123.561C31.7451 123.376 31.8659 123.117 31.9316 122.628C31.9993 122.124 32 121.457 32 120.5V116.5C32 115.543 31.9993 114.876 31.9316 114.372C31.8659 113.883 31.7451 113.624 31.5605 113.439C31.376 113.255 31.1171 113.134 30.6279 113.068C30.1244 113.001 29.4569 113 28.5 113H27.5Z" fill="currentColor"/>
</svg>
