<svg xmlns="http://www.w3.org/2000/svg" width="16" height="16" viewBox="20.0 111.0 17.0 17.0" fill="none">
  <path d="M29.8818 116.007C30.0221 116.007 30.1647 116.006 30.2861 116.019C30.4189 116.032 30.5669 116.065 30.7129 116.155C30.8589 116.246 30.9547 116.364 31.0264 116.477C31.0918 116.579 31.1552 116.707 31.2178 116.832L32.2178 118.832C32.3054 119.007 32.4346 119.238 32.4346 119.5C32.4346 119.762 32.3054 119.993 32.2178 120.168L31.2178 122.168C31.1552 122.293 31.0918 122.421 31.0264 122.523C30.9547 122.636 30.8589 122.754 30.7129 122.845C30.5669 122.935 30.4189 122.968 30.2861 122.981C30.1647 122.994 30.0221 122.993 29.8818 122.993H27.1182C26.9779 122.993 26.8353 122.994 26.7139 122.981C26.5811 122.968 26.4331 122.935 26.2871 122.845C26.1411 122.754 26.0453 122.636 25.9736 122.523C25.9082 122.421 25.8448 122.293 25.7822 122.168L24.7822 120.168C24.7056 120.015 24.5972 119.819 24.5713 119.597L24.5654 119.5L24.5713 119.403C24.5972 119.181 24.7056 118.985 24.7822 118.832L25.7822 116.832C25.8448 116.707 25.9082 116.579 25.9736 116.477C26.0453 116.364 26.1411 116.246 26.2871 116.155L26.3965 116.098C26.506 116.05 26.6143 116.029 26.7139 116.019C26.8353 116.006 26.9779 116.007 27.1182 116.007H29.8818ZM26.8154 117C26.8131 117 26.8107 117 26.8086 117C26.8086 117 26.8068 117.004 26.8057 117.006C26.7738 117.056 26.7366 117.13 26.665 117.273L25.665 119.273C25.6064 119.391 25.5762 119.45 25.5586 119.495L25.5566 119.5L25.5586 119.505C25.5762 119.55 25.6064 119.609 25.665 119.727L26.665 121.727C26.7366 121.87 26.7738 121.944 26.8057 121.994L26.8086 121.999C26.8107 121.999 26.813 122 26.8154 122C26.8745 122.006 26.9577 122.007 27.1182 122.007H29.8818C30.0423 122.007 30.1255 122.006 30.1846 122C30.1866 122 30.1904 121.999 30.1904 121.999C30.1904 121.999 30.1932 121.996 30.1943 121.994C30.2262 121.944 30.2634 121.87 30.335 121.727L31.335 119.727C31.3936 119.609 31.4238 119.55 31.4414 119.505L31.4424 119.5L31.4414 119.495C31.4238 119.45 31.3936 119.391 31.335 119.273L30.335 117.273C30.2634 117.13 30.2262 117.056 30.1943 117.006C30.1931 117.004 30.1916 117.002 30.1904 117C30.1904 117 30.1866 117 30.1846 117C30.1255 116.994 30.0423 116.993 29.8818 116.993H27.1182C26.9577 116.993 26.8745 116.994 26.8154 117Z" fill="currentColor"/>
  <path d="M28.5 112C32.6421 112 36 115.358 36 119.5C36 123.642 32.6421 127 28.5 127C24.3579 127 21 123.642 21 119.5C21 115.358 24.3579 112 28.5 112ZM28.5 113C24.9101 113 22 115.91 22 119.5C22 123.09 24.9101 126 28.5 126C32.0899 126 35 123.09 35 119.5C35 115.91 32.0899 113 28.5 113Z" fill="currentColor"/>
</svg>
