<svg xmlns="http://www.w3.org/2000/svg" width="16" height="16" viewBox="19.98 110.96 16.04 16.04" fill="none">
  <path d="M27.6875 112.109C27.8701 111.964 28.1299 111.964 28.3125 112.109L29.25 112.859L30.1875 112.109C30.3575 111.974 30.5962 111.963 30.7773 112.084L32 112.9L33.2227 112.084C33.376 111.982 33.5738 111.973 33.7363 112.06C33.8986 112.147 33.9999 112.316 34 112.5V121.5C34 122.429 34.0005 123.175 33.9219 123.761C33.8412 124.361 33.6688 124.866 33.2676 125.268C32.8663 125.669 32.3608 125.841 31.7607 125.922C31.1751 126.001 30.4285 126 29.5 126H26.5C25.5715 126 24.8249 126.001 24.2393 125.922C23.6392 125.841 23.1337 125.669 22.7324 125.268C22.3312 124.866 22.1588 124.361 22.0781 123.761C21.9995 123.175 22 122.429 22 121.5V112.5C22.0001 112.316 22.1014 112.147 22.2637 112.06C22.4262 111.973 22.624 111.982 22.7773 112.084L24 112.9L25.2227 112.084C25.4038 111.963 25.6425 111.974 25.8125 112.109L26.75 112.859L27.6875 112.109ZM26 123V124.996C26.1574 124.997 26.3238 125 26.5 125H29.5C30.4569 125 31.1244 124.999 31.6279 124.932C32.1171 124.866 32.376 124.745 32.5605 124.561C32.745 124.376 32.8659 124.117 32.9316 123.628C32.9565 123.443 32.9694 123.236 32.9795 123H26ZM23.0205 123C23.0306 123.236 23.0435 123.443 23.0684 123.628C23.1341 124.117 23.255 124.376 23.4395 124.561C23.624 124.745 23.8829 124.866 24.3721 124.932C24.5571 124.957 24.7644 124.97 25 124.98V123H23.0205ZM26 120V122H32.9961C32.9966 121.843 33 121.676 33 121.5V120H26ZM23 121.5C23 121.676 23.0034 121.843 23.0039 122H25V120H23V121.5ZM26 117V119H33V117H26ZM23 119H25V117H23V119ZM29.5625 113.891C29.3799 114.037 29.1201 114.037 28.9375 113.891L28 113.141L27.0625 113.891C26.8799 114.037 26.6201 114.037 26.4375 113.891L26 113.54V116H33V113.435L32.2773 113.916L32.2119 113.953C32.0553 114.027 31.8695 114.014 31.7227 113.916L30.5273 113.119L29.5625 113.891ZM24.2773 113.916L24.2119 113.953C24.0553 114.027 23.8695 114.014 23.7227 113.916L23 113.435V116H25V113.435L24.2773 113.916Z" fill="currentColor"/>
</svg>
