<svg xmlns="http://www.w3.org/2000/svg" width="16" height="16" viewBox="20.0 111.0 17.0 17.0" fill="none">
  <path d="M31.1465 120.146C31.3417 119.951 31.6583 119.951 31.8535 120.146C32.0487 120.342 32.0487 120.658 31.8535 120.854L28.8535 123.854C28.7597 123.947 28.6326 124 28.5 124C28.3674 124 28.2403 123.947 28.1465 123.854L26.1465 121.854C25.9513 121.658 25.9513 121.342 26.1465 121.146C26.3417 120.951 26.6583 120.951 26.8535 121.146L28.5 122.793L31.1465 120.146Z" fill="currentColor"/>
  <path d="M28.1465 115.146C28.3417 114.951 28.6583 114.951 28.8535 115.146L30.8535 117.146C30.9473 117.24 31 117.367 31 117.5C31 117.633 30.9473 117.76 30.8535 117.854L28.8535 119.854C28.6583 120.049 28.3417 120.049 28.1465 119.854C27.9512 119.658 27.9512 119.342 28.1465 119.146L29.293 118H25.5C25.2239 118 25 117.776 25 117.5C25 117.224 25.2239 117 25.5 117H29.293L28.1465 115.854C27.9512 115.658 27.9512 115.342 28.1465 115.146Z" fill="currentColor"/>
  <path d="M28.5 112C32.6421 112 36 115.358 36 119.5C36 123.642 32.6421 127 28.5 127C24.3579 127 21 123.642 21 119.5C21 115.358 24.3579 112 28.5 112ZM28.5 113C24.9101 113 22 115.91 22 119.5C22 123.09 24.9101 126 28.5 126C32.0899 126 35 123.09 35 119.5C35 115.91 32.0899 113 28.5 113Z" fill="currentColor"/>
</svg>
