<svg xmlns="http://www.w3.org/2000/svg" width="16" height="16" viewBox="20.5 111.0 16.0 16.0" fill="none">
  <path d="M25 120C26.4142 120 27.1212 120 27.5605 120.439C27.9999 120.879 28 121.586 28 123C28 124.414 27.9999 125.121 27.5605 125.561C27.1212 126 26.4142 126 25 126C23.6743 126 22.9703 126 22.5254 125.638L22.4395 125.561C22.0001 125.121 22 124.414 22 123C22 121.674 22.0004 120.97 22.3623 120.525L22.4395 120.439C22.8788 120 23.5858 120 25 120ZM25 121C24.2646 121 23.8137 121.002 23.4873 121.046C23.1897 121.086 23.1494 121.144 23.1465 121.146C23.1436 121.149 23.0859 121.19 23.0459 121.487C23.002 121.814 23 122.265 23 123C23 123.735 23.002 124.186 23.0459 124.513C23.0859 124.81 23.1436 124.851 23.1465 124.854C23.1494 124.856 23.1897 124.914 23.4873 124.954C23.8137 124.998 24.2646 125 25 125C25.7354 125 26.1863 124.998 26.5127 124.954C26.8103 124.914 26.8506 124.856 26.8535 124.854C26.8564 124.851 26.9141 124.81 26.9541 124.513C26.998 124.186 27 123.735 27 123C27 122.265 26.998 121.814 26.9541 121.487C26.9141 121.19 26.8564 121.149 26.8535 121.146C26.8506 121.144 26.8103 121.086 26.5127 121.046C26.1863 121.002 25.7354 121 25 121Z" fill="currentColor"/>
  <path d="M32 119C33.4142 119 34.1212 119 34.5605 119.439C34.9999 119.879 35 120.586 35 122C35 123.414 34.9999 124.121 34.5605 124.561C34.1212 125 33.4142 125 32 125C30.6743 125 29.9703 125 29.5254 124.638L29.4395 124.561C29.0001 124.121 29 123.414 29 122C29 120.674 29.0004 119.97 29.3623 119.525L29.4395 119.439C29.8788 119 30.5858 119 32 119ZM32 120C31.2646 120 30.8137 120.002 30.4873 120.046C30.1897 120.086 30.1494 120.144 30.1465 120.146C30.1436 120.149 30.0859 120.19 30.0459 120.487C30.002 120.814 30 121.265 30 122C30 122.735 30.002 123.186 30.0459 123.513C30.0859 123.81 30.1436 123.851 30.1465 123.854C30.1494 123.856 30.1897 123.914 30.4873 123.954C30.8137 123.998 31.2646 124 32 124C32.7354 124 33.1863 123.998 33.5127 123.954C33.8103 123.914 33.8506 123.856 33.8535 123.854C33.8564 123.851 33.9141 123.81 33.9541 123.513C33.998 123.186 34 122.735 34 122C34 121.265 33.998 120.814 33.9541 120.487C33.9141 120.19 33.8564 120.149 33.8535 120.146C33.8506 120.144 33.8103 120.086 33.5127 120.046C33.1863 120.002 32.7354 120 32 120Z" fill="currentColor"/>
  <path d="M25 113C26.4142 113 27.1212 113 27.5605 113.439C27.9999 113.879 28 114.586 28 116C28 117.414 27.9999 118.121 27.5605 118.561C27.1212 119 26.4142 119 25 119C23.6743 119 22.9703 119 22.5254 118.638L22.4395 118.561C22.0001 118.121 22 117.414 22 116C22 114.674 22.0004 113.97 22.3623 113.525L22.4395 113.439C22.8788 113 23.5858 113 25 113ZM25 114C24.2646 114 23.8137 114.002 23.4873 114.046C23.1897 114.086 23.1494 114.144 23.1465 114.146C23.1436 114.149 23.0859 114.19 23.0459 114.487C23.002 114.814 23 115.265 23 116C23 116.735 23.002 117.186 23.0459 117.513C23.0859 117.81 23.1436 117.851 23.1465 117.854C23.1494 117.856 23.1897 117.914 23.4873 117.954C23.8137 117.998 24.2646 118 25 118C25.7354 118 26.1863 117.998 26.5127 117.954C26.8103 117.914 26.8506 117.856 26.8535 117.854C26.8564 117.851 26.9141 117.81 26.9541 117.513C26.998 117.186 27 116.735 27 116C27 115.265 26.998 114.814 26.9541 114.487C26.9141 114.19 26.8564 114.149 26.8535 114.146C26.8506 114.144 26.8103 114.086 26.5127 114.046C26.1863 114.002 25.7354 114 25 114Z" fill="currentColor"/>
  <path d="M32 112C33.4142 112 34.1212 112 34.5605 112.439C34.9999 112.879 35 113.586 35 115C35 116.414 34.9999 117.121 34.5605 117.561C34.1212 118 33.4142 118 32 118C30.6743 118 29.9703 118 29.5254 117.638L29.4395 117.561C29.0001 117.121 29 116.414 29 115C29 113.674 29.0004 112.97 29.3623 112.525L29.4395 112.439C29.8788 112 30.5858 112 32 112ZM32 113C31.2646 113 30.8137 113.002 30.4873 113.046C30.1897 113.086 30.1494 113.144 30.1465 113.146C30.1436 113.149 30.0859 113.19 30.0459 113.487C30.002 113.814 30 114.265 30 115C30 115.735 30.002 116.186 30.0459 116.513C30.0859 116.81 30.1436 116.851 30.1465 116.854C30.1494 116.856 30.1897 116.914 30.4873 116.954C30.8137 116.998 31.2646 117 32 117C32.7354 117 33.1863 116.998 33.5127 116.954C33.8103 116.914 33.8506 116.856 33.8535 116.854C33.8564 116.851 33.9141 116.81 33.9541 116.513C33.998 116.186 34 115.735 34 115C34 114.265 33.998 113.814 33.9541 113.487C33.9141 113.19 33.8564 113.149 33.8535 113.146C33.8506 113.144 33.8103 113.086 33.5127 113.046C33.1863 113.002 32.7354 113 32 113Z" fill="currentColor"/>
</svg>
