<svg xmlns="http://www.w3.org/2000/svg" width="16" height="16" viewBox="20.01 111.0 17.0 17.0" fill="none">
  <path d="M32.502 120C32.6978 120 32.876 120.115 32.957 120.293C33.2775 120.998 33.4135 121.293 33.5918 121.548C33.8268 121.884 34.1189 122.176 34.4551 122.411C34.7101 122.589 35.0049 122.725 35.71 123.046C35.8885 123.127 36.0029 123.306 36.0029 123.502C36.0027 123.698 35.8883 123.876 35.71 123.957C35.0049 124.278 34.7101 124.414 34.4551 124.592C34.1189 124.827 33.8268 125.119 33.5918 125.455C33.4135 125.71 33.2775 126.005 32.957 126.71C32.876 126.888 32.6978 127.003 32.502 127.003C32.3059 127.003 32.127 126.888 32.0459 126.71C31.7254 126.005 31.5894 125.71 31.4111 125.455C31.1762 125.119 30.884 124.827 30.5479 124.592C30.2928 124.414 29.998 124.278 29.293 123.957C29.1146 123.876 29.0002 123.698 29 123.502C29 123.306 29.1145 123.127 29.293 123.046C29.998 122.725 30.2928 122.589 30.5479 122.411C30.884 122.176 31.1762 121.884 31.4111 121.548C31.5894 121.293 31.7254 120.998 32.0459 120.293L32.0811 120.229C32.1721 120.088 32.3303 120 32.502 120ZM32.501 121.664C32.4123 121.833 32.3288 121.982 32.2314 122.121C31.9293 122.553 31.5534 122.929 31.1211 123.231C30.9818 123.329 30.8331 123.412 30.6641 123.501C30.8332 123.59 30.9817 123.674 31.1211 123.771C31.5534 124.074 31.9293 124.45 32.2314 124.882C32.3287 125.021 32.4125 125.169 32.501 125.338C32.5896 125.169 32.6742 125.021 32.7715 124.882C33.0736 124.45 33.4496 124.074 33.8818 123.771C34.0211 123.674 34.169 123.59 34.3379 123.501C34.1692 123.412 34.0209 123.329 33.8818 123.231C33.4496 122.929 33.0736 122.553 32.7715 122.121C32.674 121.982 32.5897 121.833 32.501 121.664Z" fill="currentColor"/>
  <path d="M30.041 112C31.1456 112 32.041 112.895 32.041 114C32.041 114.18 32.0143 114.354 31.9697 114.52L34.1035 115.716C34.6722 116.035 35.0204 116.605 35.0205 117.221C35.0205 118.192 34.1696 118.98 33.1201 118.98H23.3252C22.6257 118.981 22.0586 119.506 22.0586 120.153C22.0587 120.53 22.2544 120.885 22.585 121.105L24.7031 122.516C25.0576 122.196 25.526 122 26.041 122C27.0251 122 27.8401 122.711 28.0068 123.647C28.0118 123.699 28.0202 123.749 28.0303 123.799C28.0369 123.865 28.041 123.932 28.041 124C28.041 125.105 27.1456 126 26.041 126C24.9364 126 24.041 125.105 24.041 124C24.041 123.767 24.0828 123.543 24.1562 123.335L21.9795 121.884C21.3781 121.483 21.0206 120.839 21.0205 120.153C21.0205 118.975 22.0526 118.02 23.3252 118.02H33.1201C33.5964 118.019 33.9824 117.662 33.9824 117.221C33.9824 116.941 33.8244 116.683 33.5664 116.538L31.4912 115.374C31.1267 115.759 30.6127 116 30.041 116C28.9364 116 28.041 115.105 28.041 114C28.041 112.895 28.9364 112 30.041 112ZM26.041 123C25.4887 123 25.041 123.448 25.041 124C25.041 124.552 25.4887 125 26.041 125C26.5933 125 27.041 124.552 27.041 124C27.041 123.448 26.5933 123 26.041 123ZM30.041 113C29.4887 113 29.041 113.448 29.041 114C29.041 114.552 29.4887 115 30.041 115C30.5933 115 31.041 114.552 31.041 114C31.041 113.448 30.5933 113 30.041 113Z" fill="currentColor"/>
</svg>
