<svg xmlns="http://www.w3.org/2000/svg" width="16" height="16" viewBox="20.43 111.72 15.57 15.57" fill="none">
  <path d="M27.5002 120C28.3285 120 29.0002 120.672 29.0002 121.5C29.0002 122.328 28.3285 123 27.5002 123C26.6718 123 26.0002 122.328 26.0002 121.5C26.0002 120.672 26.6718 120 27.5002 120ZM27.5002 121C27.2241 121 27.0002 121.224 27.0002 121.5C27.0002 121.776 27.2241 122 27.5002 122C27.7762 122 28.0002 121.776 28.0002 121.5C28.0002 121.224 27.7762 121 27.5002 121Z" fill="currentColor"/>
  <path d="M28.0002 116C30.5475 116 32.7759 117.361 34.0002 119.394V117.5C34.0002 117.224 34.2241 117 34.5002 117C34.7762 117 35.0002 117.224 35.0002 117.5V120.5C35.0002 120.776 34.7762 121 34.5002 121H31.5002C31.2241 121 31.0002 120.776 31.0002 120.5C31.0002 120.224 31.2241 120 31.5002 120H33.1965C32.1586 118.206 30.22 117 28.0002 117C25.5066 117 23.3668 118.521 22.4612 120.688C22.3547 120.943 22.0624 121.063 21.8078 120.957C21.553 120.851 21.4328 120.558 21.5393 120.303C22.595 117.777 25.0894 116 28.0002 116Z" fill="currentColor"/>
</svg>
