<svg xmlns="http://www.w3.org/2000/svg" width="16" height="16" viewBox="20.51 110.96 17.04 17.04" fill="none">
  <path d="M31.5 123.875C31.845 123.875 32.125 124.155 32.125 124.5C32.125 124.845 31.845 125.125 31.5 125.125C31.155 125.125 30.875 124.845 30.875 124.5C30.875 124.155 31.155 123.875 31.5 123.875Z" fill="currentColor"/>
  <path d="M31.5 120C31.776 120 32 120.224 32 120.5V122.5C32 122.776 31.776 123 31.5 123C31.224 123 31 122.776 31 122.5V120.5C31 120.224 31.224 120 31.5 120Z" fill="currentColor"/>
  <path d="M31.5 118.025C32.0606 118.026 32.4419 118.395 32.7383 118.815C33.0363 119.238 33.3483 119.856 33.7305 120.611L35.127 123.371C35.4483 124.006 35.716 124.534 35.8584 124.962C36.003 125.397 36.0629 125.858 35.8008 126.285C35.5384 126.712 35.0989 126.867 34.6455 126.935C34.1993 127.001 33.608 127 32.8965 127H30.1035C29.3918 127 28.7998 127.001 28.3535 126.935C27.9003 126.867 27.4605 126.712 27.1982 126.285C26.9363 125.859 26.9961 125.397 27.1406 124.962C27.283 124.534 27.5507 124.006 27.8721 123.371L29.2686 120.611C29.6507 119.856 29.9627 119.238 30.2607 118.815C30.5571 118.395 30.9393 118.026 31.5 118.025ZM31.5 119.025C31.446 119.025 31.3246 119.042 31.0781 119.392C30.8327 119.74 30.5586 120.277 30.1611 121.063L28.7646 123.822C28.4282 124.487 28.2032 124.936 28.0898 125.277C27.979 125.611 28.0204 125.712 28.0508 125.762C28.0812 125.811 28.1532 125.895 28.501 125.946C28.8563 125.999 29.3587 126 30.1035 126H32.8965C33.6413 126 34.1437 125.999 34.499 125.946C34.8467 125.895 34.9188 125.811 34.9492 125.762C34.9796 125.712 35.0209 125.611 34.9102 125.277C34.7968 124.936 34.5709 124.487 34.2344 123.822L32.8379 121.063C32.4404 120.277 32.1664 119.74 31.9209 119.392C31.6745 119.043 31.554 119.025 31.5 119.025Z" fill="currentColor"/>
  <path d="M27.6875 112.109C27.87 111.964 28.13 111.964 28.3125 112.109L29.25 112.859L30.1875 112.109C30.3574 111.974 30.5963 111.963 30.7773 112.084L32 112.899L33.2227 112.084C33.376 111.982 33.5739 111.973 33.7363 112.06C33.8985 112.147 33.9998 112.316 34 112.5V118.967C33.8506 118.697 33.7042 118.449 33.5557 118.238C33.4195 118.045 33.2359 117.818 33 117.611V117H26V119H28.9814C28.8102 119.311 28.6348 119.65 28.458 120H26V122H27.4463L26.9805 122.92C26.967 122.947 26.9539 122.973 26.9404 123H26V124.996C26.0312 124.996 26.0628 124.996 26.0947 124.996C26.0268 125.292 25.9893 125.636 26.0469 125.999C25.3249 125.997 24.7264 125.987 24.2393 125.922C23.6392 125.841 23.1337 125.669 22.7324 125.268C22.3313 124.866 22.1588 124.361 22.0781 123.761C21.9995 123.175 22 122.428 22 121.5V112.5C22.0002 112.316 22.1015 112.147 22.2637 112.06C22.4261 111.973 22.624 111.982 22.7773 112.084L24 112.899L25.2227 112.084C25.4037 111.963 25.6426 111.974 25.8125 112.109L26.75 112.859L27.6875 112.109ZM23.0205 123C23.0306 123.235 23.0435 123.443 23.0684 123.628C23.1341 124.117 23.2551 124.376 23.4395 124.561C23.624 124.745 23.8829 124.866 24.3721 124.932C24.5571 124.957 24.7645 124.969 25 124.98V123H23.0205ZM23 121.5C23 121.676 23.0034 121.843 23.0039 122H25V120H23V121.5ZM23 119H25V117H23V119ZM24.2773 113.916L24.2119 113.953C24.0553 114.026 23.8695 114.014 23.7227 113.916L23 113.435V116H25V113.435L24.2773 113.916ZM29.5625 113.891C29.3799 114.037 29.1201 114.037 28.9375 113.891L28 113.141L27.0625 113.891C26.8799 114.037 26.6201 114.037 26.4375 113.891L26 113.54V116H33V113.435L32.2773 113.916L32.2119 113.953C32.0553 114.026 31.8695 114.014 31.7227 113.916L30.5273 113.119L29.5625 113.891Z" fill="currentColor"/>
</svg>
