<svg xmlns="http://www.w3.org/2000/svg" width="16" height="16" viewBox="20.0 110.6 16.4 16.4" fill="none">
  <path d="M32.0938 111.608C32.3057 111.631 32.475 111.729 32.6094 111.831C32.7514 111.939 32.904 112.093 33.0605 112.25L34.749 113.939C34.9056 114.096 35.0595 114.249 35.168 114.391C35.2852 114.544 35.3954 114.743 35.3955 115C35.3954 115.257 35.2852 115.456 35.168 115.609C35.0595 115.751 34.9056 115.904 34.749 116.061L33.0605 117.749C33.0405 117.769 33.0199 117.789 33 117.809V120.174C34.1647 120.586 35 121.694 35 123C35 124.657 33.6569 126 32 126C30.3432 126 29 124.657 29 123C29 121.343 30.3432 120 32 120V118.396C31.7433 118.395 31.5443 118.285 31.3906 118.168C31.2485 118.06 31.096 117.906 30.9395 117.749L29.25 116.061C29.0934 115.904 28.9395 115.751 28.8311 115.609C28.7286 115.475 28.6312 115.306 28.6084 115.094L28.6035 115H27C27 116.657 25.6569 118 24 118V120H24.5C24.9573 120 25.3507 119.999 25.6641 120.041C25.9918 120.085 26.3058 120.185 26.5605 120.439C26.8153 120.694 26.9149 121.008 26.959 121.336C27.0011 121.649 27 122.043 27 122.5V123.5C27 123.957 27.0011 124.351 26.959 124.664C26.9149 124.992 26.8153 125.306 26.5605 125.561C26.3058 125.815 25.9918 125.915 25.6641 125.959C25.3507 126.001 24.9573 126 24.5 126H23.5C23.0427 126 22.6493 126.001 22.3359 125.959C22.0082 125.915 21.6942 125.815 21.4395 125.561C21.1847 125.306 21.0851 124.992 21.041 124.664C20.9989 124.351 21 123.957 21 123.5V122.5C21 122.043 20.9989 121.649 21.041 121.336C21.0851 121.008 21.1847 120.694 21.4395 120.439C21.6942 120.185 22.0082 120.085 22.3359 120.041C22.5284 120.015 22.751 120.006 23 120.003V117.825C21.8355 117.413 21 116.306 21 115C21 113.343 22.3431 112 24 112C25.3059 112 26.4141 112.835 26.8262 114H29.1904C29.2103 113.98 29.2299 113.96 29.25 113.939L30.9395 112.25C31.096 112.093 31.2485 111.939 31.3906 111.831C31.5442 111.714 31.7434 111.604 32 111.604L32.0938 111.608ZM23.5 121C23.0147 121 22.7009 121.001 22.4697 121.032C22.2529 121.061 22.1845 121.108 22.1465 121.146C22.1084 121.185 22.0614 121.253 22.0322 121.47C22.0012 121.701 22 122.015 22 122.5V123.5C22 123.985 22.0012 124.299 22.0322 124.53C22.0614 124.747 22.1084 124.815 22.1465 124.854C22.1845 124.892 22.2529 124.939 22.4697 124.968C22.7009 124.999 23.0147 125 23.5 125H24.5C24.9853 125 25.2991 124.999 25.5303 124.968C25.7471 124.939 25.8155 124.892 25.8535 124.854C25.8916 124.815 25.9386 124.747 25.9678 124.53C25.9988 124.299 26 123.985 26 123.5V122.5C26 122.015 25.9988 121.701 25.9678 121.47C25.9386 121.253 25.8916 121.185 25.8535 121.146C25.8155 121.108 25.7471 121.061 25.5303 121.032C25.2991 121.001 24.9853 121 24.5 121H23.5ZM32 121C30.8954 121 30 121.895 30 123C30 124.105 30.8954 125 32 125C33.1046 125 34 124.105 34 123C34 121.895 33.1046 121 32 121ZM31.9971 112.626C31.9208 112.684 31.823 112.781 31.6465 112.957L29.957 114.646C29.7805 114.823 29.6842 114.921 29.626 114.997L29.624 114.999L29.626 115.003C29.6842 115.079 29.7806 115.177 29.957 115.354L31.6465 117.042C31.8229 117.218 31.9208 117.315 31.9971 117.373L31.999 117.375L32.0029 117.373C32.0792 117.315 32.1771 117.218 32.3535 117.042L34.042 115.354C34.2184 115.177 34.3148 115.079 34.373 115.003L34.375 114.999L34.373 114.997C34.3148 114.921 34.2184 114.823 34.042 114.646L32.3535 112.957C32.1771 112.781 32.0792 112.684 32.0029 112.626L31.999 112.624L31.9971 112.626ZM24 113C22.8954 113 22 113.895 22 115C22 116.105 22.8954 117 24 117C25.1046 117 26 116.105 26 115C26 113.895 25.1046 113 24 113Z" fill="currentColor"/>
</svg>
