<svg xmlns="http://www.w3.org/2000/svg" width="16" height="16" viewBox="19.5 111.0 16.0 16.0" fill="none">
  <path d="M25 112C27.2091 112 29 113.791 29 116C29 117.481 28.1944 118.772 27 119.463V123.971L26.9893 124.179C26.892 125.133 26.1333 125.892 25.1787 125.989L24.9707 126C23.8498 126 22.9416 125.091 22.9414 123.971V119.428C21.7797 118.729 21 117.457 21 116C21 113.791 22.7909 112 25 112ZM26 115.5C26 115.776 25.7761 116 25.5 116H24.5C24.2239 116 24 115.776 24 115.5V113.174C22.8353 113.586 22 114.694 22 116C22 117.176 22.6765 118.194 23.6641 118.687C23.8338 118.771 23.9414 118.944 23.9414 119.134V123.971L23.9463 124.076C23.9992 124.595 24.4379 125 24.9707 125L25.0762 124.995C25.5604 124.946 25.9458 124.56 25.9951 124.076L26 123.971V119.163C26 118.97 26.111 118.795 26.2852 118.712C27.2999 118.23 28 117.196 28 116C28 114.694 27.1647 113.586 26 113.174V115.5Z" fill="currentColor"/>
  <path d="M31.9707 112C32.1446 112 32.3067 112.091 32.3975 112.239L33.9268 114.739C33.9747 114.818 34.001 114.908 34.001 115V123.971C34.0008 125.091 33.0912 126 31.9707 126C30.8501 126 29.9416 125.091 29.9414 123.971V115C29.9414 114.908 29.9667 114.818 30.0146 114.739L31.5449 112.239L31.582 112.187C31.6762 112.07 31.8185 112 31.9707 112ZM30.9414 123V123.971C30.9416 124.539 31.4024 125 31.9707 125C32.539 125 33.0008 124.539 33.001 123.971V123H30.9414ZM30.9414 115.141V122H33.001V115.141L31.9707 113.457L30.9414 115.141Z" fill="currentColor"/>
</svg>
