<svg xmlns="http://www.w3.org/2000/svg" width="16" height="16" viewBox="19.62 111.0 16.38 16.38" fill="none">
  <path d="M29.9992 112C32.7606 112 34.9992 114.239 34.9992 117C34.9992 119.761 32.7606 122 29.9992 122C29.6009 122 29.213 121.952 28.841 121.863L25.3527 125.354C24.3931 126.313 22.8744 126.373 21.8449 125.533L21.6457 125.354C20.6227 124.33 20.6226 122.67 21.6457 121.646L25.1359 118.154C25.048 117.784 24.9992 117.397 24.9992 117C24.9992 114.239 27.2382 112 29.9992 112ZM29.9992 113C27.7904 113 25.9992 114.791 25.9992 117C25.9992 117.404 26.0598 117.794 26.1711 118.161C26.2244 118.338 26.1764 118.529 26.0461 118.659L22.3527 122.354C21.7201 122.987 21.7201 124.013 22.3527 124.646L22.4758 124.758C23.1124 125.277 24.052 125.24 24.6457 124.646L28.3381 120.953L28.3898 120.908C28.5162 120.812 28.6827 120.781 28.8371 120.828C29.2044 120.939 29.5946 121 29.9992 121C32.2084 121 33.9992 119.209 33.9992 117C33.9992 116.414 33.873 115.858 33.6467 115.356L31.299 117.731C30.9092 118.126 30.2731 118.127 29.8811 117.735L29.2951 117.15C28.9062 116.762 28.9047 116.131 29.2912 115.74L31.6477 113.355C31.145 113.128 30.5869 113 29.9992 113Z" fill="currentColor"/>
</svg>
