<svg xmlns="http://www.w3.org/2000/svg" width="16" height="16" viewBox="18.81 110.0 17.37 17.37" fill="none">
  <path d="M29.999 112C32.7603 112 34.999 114.239 34.999 117C34.999 119.761 32.7603 122 29.999 122C29.6009 122 29.2126 121.952 28.8408 121.863L25.3525 125.354C24.3929 126.313 22.8741 126.373 21.8447 125.533L21.6455 125.354C20.6227 124.33 20.6227 122.67 21.6455 121.646L25.1357 118.154C25.102 118.012 25.0754 117.867 25.0537 117.721C25.2462 117.304 25.3223 117.156 25.4111 117.028C25.5789 116.788 25.7884 116.579 26.0283 116.411C26.033 116.408 26.0382 116.405 26.043 116.401C26.0137 116.597 25.999 116.797 25.999 117C25.999 117.404 26.0597 117.794 26.1709 118.161C26.2241 118.337 26.1761 118.529 26.0459 118.659L22.3525 122.354C21.7202 122.986 21.7202 124.013 22.3525 124.646L22.4756 124.758C23.1121 125.277 24.0519 125.24 24.6455 124.646L28.3379 120.953L28.3896 120.908C28.5159 120.813 28.6827 120.782 28.8369 120.828C29.204 120.939 29.5946 121 29.999 121L30.2051 120.995C32.3183 120.888 33.999 119.14 33.999 117C33.999 116.414 33.8717 115.859 33.6455 115.357L31.2988 117.731C30.909 118.126 30.2729 118.127 29.8809 117.735L29.2949 117.15C28.9063 116.762 28.9047 116.131 29.291 115.74L31.6484 113.354C31.2049 113.154 30.7172 113.031 30.2051 113.005L29.999 113C29.1698 113 28.3986 113.252 27.7598 113.685C27.6074 113.45 27.39 113.257 27.124 113.136C27.057 113.105 26.995 113.075 26.9365 113.048C27.7826 112.391 28.8455 112 29.999 112Z" fill="currentColor"/>
  <path d="M23.502 111C23.6978 111 23.876 111.115 23.957 111.293C24.2775 111.998 24.4135 112.293 24.5918 112.548C24.8268 112.884 25.1189 113.176 25.4551 113.411C25.7101 113.589 26.0049 113.725 26.71 114.046C26.8884 114.127 27.0029 114.306 27.0029 114.502C27.0027 114.698 26.8883 114.876 26.71 114.957C26.0049 115.278 25.7101 115.414 25.4551 115.592C25.1189 115.827 24.8268 116.119 24.5918 116.455C24.4135 116.71 24.2775 117.005 23.957 117.71C23.876 117.888 23.6978 118.003 23.502 118.003C23.3059 118.003 23.127 117.888 23.0459 117.71C22.7254 117.005 22.5894 116.71 22.4111 116.455C22.1762 116.119 21.884 115.827 21.5479 115.592C21.2928 115.414 20.998 115.278 20.293 114.957C20.1146 114.876 20.0002 114.698 20 114.502C20 114.306 20.1145 114.127 20.293 114.046C20.998 113.725 21.2928 113.589 21.5479 113.411C21.884 113.176 22.1762 112.884 22.4111 112.548C22.5894 112.293 22.7254 111.998 23.0459 111.293L23.0811 111.229C23.1721 111.088 23.3303 111 23.502 111ZM23.501 112.664C23.4123 112.833 23.3288 112.982 23.2314 113.121C22.9293 113.553 22.5534 113.929 22.1211 114.231C21.9818 114.329 21.8331 114.412 21.6641 114.501C21.8332 114.59 21.9817 114.674 22.1211 114.771C22.5534 115.074 22.9293 115.45 23.2314 115.882C23.3287 116.021 23.4125 116.169 23.501 116.338C23.5896 116.169 23.6742 116.021 23.7715 115.882C24.0736 115.45 24.4496 115.074 24.8818 114.771C25.0211 114.674 25.169 114.59 25.3379 114.501C25.1692 114.412 25.0209 114.329 24.8818 114.231C24.4496 113.929 24.0736 113.553 23.7715 113.121C23.674 112.982 23.5897 112.833 23.501 112.664Z" fill="currentColor"/>
</svg>
