<svg xmlns="http://www.w3.org/2000/svg" width="16" height="16" viewBox="20.0 110.93 16.0 16.0" fill="none">
  <path d="M26.5685 121.014V116.851L30.227 118.932L26.5685 121.014ZM34.7075 115.541C34.5465 114.934 34.0725 114.456 33.47 114.294C32.378 114 28 114 28 114C28 114 23.622 114 22.5305 114.294C21.928 114.456 21.454 114.934 21.2925 115.541C21 116.639 21 118.932 21 118.932C21 118.932 21 121.224 21.2925 122.323C21.454 122.93 21.928 123.408 22.5305 123.569C23.622 123.864 28 123.864 28 123.864C28 123.864 32.378 123.864 33.47 123.569C34.0725 123.408 34.5465 122.93 34.7075 122.323C35 121.224 35 118.932 35 118.932C35 118.932 35 116.639 34.7075 115.541Z" fill="currentColor"/>
</svg>
