<svg xmlns="http://www.w3.org/2000/svg" width="16" height="16" viewBox="21.0 112.0 14.0 14.0" fill="none">
  <path d="M30.04 113C32.2274 113 33.9999 114.773 34 116.96V121.04C33.9999 123.227 32.2274 125 30.04 125H25.96C23.7726 125 22.0001 123.227 22 121.04V116.96C22.0001 114.773 23.7726 113 25.96 113H30.04ZM25.3701 117.132C25.1234 117.132 24.9998 117.132 24.9053 117.181C24.822 117.224 24.7551 117.291 24.7129 117.373C24.6645 117.468 24.6641 117.591 24.6641 117.838V119.021C24.6641 119.667 24.6643 119.99 24.79 120.237C24.901 120.454 25.0779 120.63 25.2949 120.741C25.5418 120.867 25.865 120.867 26.5117 120.867H28.7617C29.0086 120.867 29.132 120.867 29.2266 120.818C29.3101 120.775 29.3778 120.709 29.4199 120.626C29.4683 120.531 29.4678 120.408 29.4678 120.161V118.979C29.4678 118.333 29.4675 118.01 29.3418 117.763C29.2309 117.546 29.055 117.369 28.8379 117.258C28.591 117.132 28.267 117.132 27.6201 117.132H25.3701ZM30.998 117.183C30.9372 117.198 30.8614 117.261 30.7109 117.387L30.0938 117.901C29.9932 117.985 29.943 118.027 29.9023 118.074C29.8212 118.17 29.767 118.286 29.7451 118.409C29.7342 118.471 29.7344 118.537 29.7344 118.667V119.333C29.7344 119.463 29.7342 119.529 29.7451 119.591C29.767 119.714 29.8212 119.83 29.9023 119.926C29.943 119.974 29.9937 120.016 30.0938 120.1L30.7109 120.613C30.8614 120.739 30.9372 120.802 30.998 120.817C31.123 120.848 31.2523 120.787 31.3086 120.672C31.3359 120.616 31.3359 120.517 31.3359 120.32V117.68C31.3359 117.483 31.336 117.384 31.3086 117.328C31.2523 117.213 31.123 117.152 30.998 117.183Z" fill="currentColor"/>
</svg>
